<svg id="CONTENT" xmlns="http://www.w3.org/2000/svg" viewBox="0 0 1173.22 1726.8"><defs><style>.cls-1{fill:none;stroke:#1d1d1b;stroke-miterlimit:10;stroke-width:5px;}</style></defs><g id="CLOUDS_FALL" data-name="CLOUDS FALL"><g id="TETE_GAUCHE" data-name="TETE GAUCHE"><path class="cls-1" d="M300.87,600.71c1.8.46,5.76,1.21,6.08,1.26,16.33,2.45,22.35-4.61,22.35-4.61L309.15,380.42C303.06,283.67,154.5,257.06,154.5,257.06s-128.83-27-154,2.44" transform="translate(1.4 -30.7)"/><path class="cls-1" d="M305.94,602.48v42.86s-3.7,23.29-14.83,26c0,0,12.22,15.28-7.15,71.88" transform="translate(1.4 -30.7)"/><path class="cls-1" d="M208.38,436.87l48.12-11.18s10.63,17.39-6.25,48.45Z" transform="translate(1.4 -30.7)"/></g><g id="TETE_DROITE" data-name="TETE DROITE"><path class="cls-1" d="M966.1,436.87,918,425.69s-10.63,17.39,6.24,48.45Z" transform="translate(1.4 -30.7)"/><path class="cls-1" d="M873.62,600.71c-1.81.46-5.76,1.21-6.08,1.26-16.33,2.45-22.36-4.61-22.36-4.61l20.16-216.94C871.43,283.67,1020,257.06,1020,257.06l13.42-2.79s109.1-23.1,136.6,6.06" transform="translate(1.4 -30.7)"/><path class="cls-1" d="M868.55,602.48v42.86s3.7,23.29,14.83,26c0,0-12.23,15.28,7.14,71.88" transform="translate(1.4 -30.7)"/></g><circle class="cls-1" cx="589.36" cy="39.04" r="36.54"/><g id="CHUTE"><line class="cls-1" x1="455.13" y1="356.64" x2="454.84" y2="624.83"/><line class="cls-1" x1="503.36" y1="400.8" x2="503.2" y2="462.23"/><line class="cls-1" x1="548.36" y1="317.31" x2="549.78" y2="458.62"/><line class="cls-1" x1="596.35" y1="342.41" x2="596.76" y2="397.56"/><line class="cls-1" x1="643.42" y1="319.86" x2="643.19" y2="360.92"/><line class="cls-1" x1="740.08" y1="349.9" x2="740.08" y2="719.9"/><line class="cls-1" x1="691.53" y1="394.98" x2="691.7" y2="426.62"/><line class="cls-1" x1="643.42" y1="415.67" x2="643.42" y2="574.65"/><line class="cls-1" x1="690.97" y1="515.44" x2="691.61" y2="630.74"/><line class="cls-1" x1="595.5" y1="564.62" x2="596.89" y2="737.25"/><line class="cls-1" x1="547.15" y1="526.98" x2="548.34" y2="757.28"/><line class="cls-1" x1="501.99" y1="562.53" x2="501.99" y2="676.33"/><line class="cls-1" x1="402.49" y1="515.86" x2="402.2" y2="784.04"/><line class="cls-1" x1="455.21" y1="691.73" x2="455.12" y2="837.54"/><line class="cls-1" x1="503.07" y1="724.34" x2="504.45" y2="896.97"/><line class="cls-1" x1="347.7" y1="609.38" x2="349.08" y2="782.02"/><line class="cls-1" x1="548.74" y1="794.68" x2="548.53" y2="856.1"/><line class="cls-1" x1="401.88" y1="351.99" x2="402.52" y2="467.29"/><line class="cls-1" x1="348.18" y1="316.56" x2="348.6" y2="408.06"/><line class="cls-1" x1="643.57" y1="647.93" x2="643.28" y2="873.65"/><line class="cls-1" x1="596.2" y1="810.66" x2="597.58" y2="983.29"/><line class="cls-1" x1="548.75" y1="919.58" x2="549.39" y2="1010.16"/><line class="cls-1" x1="503.76" y1="944.64" x2="504.02" y2="976.49"/><line class="cls-1" x1="691.12" y1="709.53" x2="690.83" y2="928.26"/><line class="cls-1" x1="738.49" y1="792.89" x2="738.51" y2="965.53"/><line class="cls-1" x1="788.07" y1="343.15" x2="788.71" y2="458.45"/><line class="cls-1" x1="785.83" y1="518.57" x2="785.54" y2="786.75"/><line class="cls-1" x1="831.51" y1="604.93" x2="831.42" y2="676.33"/><line class="cls-1" x1="831.67" y1="387.98" x2="831.3" y2="435.04"/><line class="cls-1" x1="831.29" y1="726.93" x2="831.55" y2="758.78"/><line class="cls-1" x1="301.35" y1="314.98" x2="878.45" y2="314.98"/></g><g id="NUAGE_CHUTE" data-name="NUAGE CHUTE"><path class="cls-1" d="M770.35,1395.14s-22.5,60.43-55.56,23.28" transform="translate(1.4 -30.7)"/><path class="cls-1" d="M767.26,1399.58s97.54,42.53-2.52,96.12" transform="translate(1.4 -30.7)"/><path class="cls-1" d="M484.83,1573.69s-87.07-12.53-58.15-76.56" transform="translate(1.4 -30.7)"/><path class="cls-1" d="M475.75,1512.44s-76.24,3.93-67-79.47" transform="translate(1.4 -30.7)"/><path class="cls-1" d="M370.69,1465.81" transform="translate(1.4 -30.7)"/><path class="cls-1" d="M412,1472.72s-39.13-4.69-68.43,9c-19.8,9.23-35.11,26.85-30.83,60" transform="translate(1.4 -30.7)"/><path class="cls-1" d="M297.23,1452.58s52.64-8.58,46.34,29.12" transform="translate(1.4 -30.7)"/><path class="cls-1" d="M516.38,1608.49c1.86-4.18-67.21-41.76-18.06-66.82" transform="translate(1.4 -30.7)"/><path class="cls-1" d="M784,1683.73s-6.1-172.36,117.52-69.23" transform="translate(1.4 -30.7)"/><path class="cls-1" d="M714.8,1683.73c77-36.15,106.72,48.69,106.72,48.69" transform="translate(1.4 -30.7)"/><path class="cls-1" d="M877.24,1662.82s26-92.13,72.18-54.42" transform="translate(1.4 -30.7)"/><path class="cls-1" d="M719.36,1720.59s13.12-63.34-38.39-48.72" transform="translate(1.4 -30.7)"/><path class="cls-1" d="M373.49,1735.69c110.18,5,64.49-82,64.49-82s24,23,30.83,5.66" transform="translate(1.4 -30.7)"/><path class="cls-1" d="M354.45,1703.33s51.42,48.7-9.61,51.67" transform="translate(1.4 -30.7)"/><path class="cls-1" d="M349.86,1633.3s-66.36-76.8-115.36-5.8" transform="translate(1.4 -30.7)"/><path class="cls-1" d="M257.19,1606.3s-43.72-69.83-72.25-15.07" transform="translate(1.4 -30.7)"/><path class="cls-1" d="M269.18,1666.86S248,1591,164.52,1640.76" transform="translate(1.4 -30.7)"/><path class="cls-1" d="M351.87,1225.9s76.24,3.93,67-79.47" transform="translate(1.4 -30.7)"/><path class="cls-1" d="M761.84,964.62s-55.93,42.56,0,85.11" transform="translate(1.4 -30.7)"/><path class="cls-1" d="M737.1,1001.78s-61.64,12.52-62,55.24c-.41,54.59,39.89,34.71,44.9,42.65" transform="translate(1.4 -30.7)"/><path class="cls-1" d="M678,1078.63s-81.85,1.11-73.5,79.06" transform="translate(1.4 -30.7)"/><path class="cls-1" d="M415.62,1186.18s39.13-4.69,68.43,9c19.8,9.23,35.11,26.85,30.83,60" transform="translate(1.4 -30.7)"/><path class="cls-1" d="M530.39,1166s-52.63-8.58-46.34,29.12" transform="translate(1.4 -30.7)"/><path class="cls-1" d="M1020,888.34s-32.35-2.86-60.44,7.29C935.15,904.44,914,923.06,920,961.88a154.31,154.31,0,0,0-21.48-20.49c-21.42-16.7-63.89-15.26-63.89,33" transform="translate(1.4 -30.7)"/><path class="cls-1" d="M914.69,858.41s51-4,44.85,37.22" transform="translate(1.4 -30.7)"/><path class="cls-1" d="M1020,1101.87s-67.48-78.37-115.48-5.37" transform="translate(1.4 -30.7)"/><path class="cls-1" d="M927.31,1074.87s-43.72-69.84-72.26-15.08" transform="translate(1.4 -30.7)"/><path class="cls-1" d="M939.29,1135.42s-21.13-75.86-104.65-26.1" transform="translate(1.4 -30.7)"/><path class="cls-1" d="M799.37,1260.74s6.75-172.37-116.87-69.24" transform="translate(1.4 -30.7)"/><path class="cls-1" d="M868.55,1260.74c-77-36.16-106.71,48.68-106.71,48.68" transform="translate(1.4 -30.7)"/><path class="cls-1" d="M706.12,1239.82s-26-92.13-72.18-54.42" transform="translate(1.4 -30.7)"/><path class="cls-1" d="M311.24,1322c-1.86-4.18,67.21-41.76,18.06-66.82" transform="translate(1.4 -30.7)"/><path class="cls-1" d="M864,1297.59s-13.11-63.34,38.39-48.72" transform="translate(1.4 -30.7)"/><path class="cls-1" d="M561.4,1397.3c110.19,5,64.5-82,64.5-82s24,23,30.83,5.66" transform="translate(1.4 -30.7)"/><path class="cls-1" d="M542.37,1364.94s51.42,48.7-9.61,51.67" transform="translate(1.4 -30.7)"/><path class="cls-1" d="M225,747.13c-12.89-31.45-34.45-11.31-34.45-11.31a43.27,43.27,0,0,0,2.88-8c3.1-12.16,2.9-33.57-38.95-29.87,0,0-9-54.48-56-38.48" transform="translate(1.4 -30.7)"/><path class="cls-1" d="M215,769.85s9.6-61.39,48,9.65" transform="translate(1.4 -30.7)"/><path class="cls-1" d="M215,732.61s29.55-21,38,5.63c0,0,42.61-10.07,38,29.4,0,0,42.18,5.13,29.65,39.26,0,0,43.85-1.39,27.84,51.51" transform="translate(1.4 -30.7)"/><path class="cls-1" d="M864,832.54" transform="translate(1.4 -30.7)"/><path class="cls-1" d="M949.46,747.13c12.89-31.45,34.45-11.31,34.45-11.31a42.85,42.85,0,0,1-2.87-8c-3.1-12.16-2.9-33.57,38.94-29.87,0,0,13.85-84.23,60.69-19.36,0,0,31.83-110.12,89.33-51.62" transform="translate(1.4 -30.7)"/><path class="cls-1" d="M959.54,769.85s-9.61-61.39-48,9.65" transform="translate(1.4 -30.7)"/><path class="cls-1" d="M959.54,732.61s-29.56-21-38,5.63c0,0-42.61-10.07-38,29.4,0,0-22.35,11-33.26,30.21a41.82,41.82,0,0,0-5.69,24.81c.76,8.23,4.13,17.24,11.31,26.93,0,0-35.26-8.15-52,34.9,0,0-80.27-.67-29.69,115.37" transform="translate(1.4 -30.7)"/><path class="cls-1" d="M246.67,884.49c44.82-46.28-23.73-50.37-23.73-50.37,11.62-45.87-65-44.76-65-44.76" transform="translate(1.4 -30.7)"/><path class="cls-1" d="M329.3,888.34s32.9-73.44,49-18.1" transform="translate(1.4 -30.7)"/><path class="cls-1" d="M362.28,884.49s4.64-20.28,34.1-15.53c0,0,66.12,22.86,34.8,81.32" transform="translate(1.4 -30.7)"/><path class="cls-1" d="M159.77,976.73s71.88-31.55,79.2,36.19" transform="translate(1.4 -30.7)"/><path class="cls-1" d="M237.83,1051.89s63.5-16.3,57.12,19.5" transform="translate(1.4 -30.7)"/><path class="cls-1" d="M323.28,1053.75s-97.54,42.54,2.52,96.13" transform="translate(1.4 -30.7)"/><path class="cls-1" d="M385,950.28s68.5-23,67.8,51.5" transform="translate(1.4 -30.7)"/><path class="cls-1" d="M418.86,1033.8s34.6-74.47,68-2.78" transform="translate(1.4 -30.7)"/><path class="cls-1" d="M342.79,1287.15s87.07-12.53,58.15-76.56" transform="translate(1.4 -30.7)"/><path class="cls-1" d="M456.94,1086s10.2-100.69,87.69-36.27c0,0,41.3-56.53,62.88-28.69,0,0,52.43-49.88,82.36,1.62" transform="translate(1.4 -30.7)"/><path class="cls-1" d="M.5,636.78s103.22-11,108.61,44.85" transform="translate(1.4 -30.7)"/><path class="cls-1" d="M72.78,946.41c-30.74-105.93,64.56-82,64.56-82" transform="translate(1.4 -30.7)"/><path class="cls-1" d="M108.71,957.29s-59.43-38.52-48,21.5" transform="translate(1.4 -30.7)"/><path class="cls-1" d="M89.86,1162.84s126.64-117.11,128.56,43.86" transform="translate(1.4 -30.7)"/><path class="cls-1" d="M44.91,1110.25c77.51,35,32.33,112.75,32.33,112.75" transform="translate(1.4 -30.7)"/><path class="cls-1" d="M166.35,1220.14s86.94-40.07,88.26,19.51" transform="translate(1.4 -30.7)"/><path class="cls-1" d="M114.13,1396.6c90.7-62.75,98.23,35.23,98.23,35.23s8.13-32.23,23.11-21.18" transform="translate(1.4 -30.7)"/><path class="cls-1" d="M115.2,1434.13s17.68-68.58-35.6-38.67" transform="translate(1.4 -30.7)"/><path class="cls-1" d="M1099.12,1455.06s-58.42-65.77-95.93-6.36" transform="translate(1.4 -30.7)"/><path class="cls-1" d="M1043,1481.22s-38.72-65.8-103.22-12.13" transform="translate(1.4 -30.7)"/><path class="cls-1" d="M974.73,1449.9s-25.47-30.07-30.2-62.06" transform="translate(1.4 -30.7)"/><path class="cls-1" d="M894.7,1365.21s21.83,48.66,49.83,22.63" transform="translate(1.4 -30.7)"/><path class="cls-1" d="M1145.55,1462.22c-2.47,3.85-71.89-33.09-65.72,21.73" transform="translate(1.4 -30.7)"/></g></g></svg>