<svg id="CONTENT"
    xmlns="http://www.w3.org/2000/svg" viewBox="0 0 1170 1640.43">
    <defs>
        <style>.cls-1,.cls-3{fill:none;}.cls-1,.cls-5{stroke:#1d1d1b;}.cls-1,.cls-3,.cls-4,.cls-5,.cls-6{stroke-miterlimit:10;stroke-width:5px;}.cls-2,.cls-4,.cls-6{fill:#fff;}.cls-3,.cls-4{stroke:#000;}.cls-5{fill:#1d1d1b;}.cls-6{stroke:#fff;}</style>
    </defs>
    <g id="FLOWERDUST">
        <g id="Chute">
            <line class="cls-1" x1="463.5" y1="2.43" x2="450.5" y2="1770.43"/>
            <line class="cls-1" x1="746.5" y1="2.43" x2="765.5" y2="1770.43"/>
            <line class="cls-1" x1="540.5" y1="2.43" x2="534.5" y2="1771.43"/>
            <line class="cls-1" x1="576.5" y1="2.43" x2="564.5" y2="1770.43"/>
            <line class="cls-1" x1="712.6" y1="0.03" x2="734.5" y2="1777.23"/>
            <line class="cls-1" x1="437.5" y1="5.36" x2="419.4" y2="1775.76"/>
            <line class="cls-1" x1="503.5" y1="6.56" x2="490.5" y2="1774.56"/>
            <line class="cls-1" x1="616.5" y1="3.23" x2="610.5" y2="1772.23"/>
            <line class="cls-1" x1="780.5" y1="6.23" x2="799.5" y2="1774.23"/>
            <line class="cls-1" x1="686.5" y1="6.23" x2="697.5" y2="1773.23"/>
            <line class="cls-1" x1="655.5" y1="2.23" x2="643.5" y2="1770.23"/>
            <line class="cls-1" x1="403.5" y1="6.36" x2="385.4" y2="1776.76"/>
        </g>
        <g id="Nuage_Haut" data-name="Nuage Haut">
            <polyline class="cls-2" points="4 931.23 17 934.23 29.93 942.38 36 958.23 38 965.23 49 969.23 55.04 979.56 55 992.23 65 996.23 76 1008.23 93 1010.23 105 1016.23 113 1033.23 114.98 1059.73 128.71 1056.92 143 1058.23 152.1 1061.84 163 1076.23 165.5 1094.9 166.19 1099.59 177.08 1099.59 192 1101.23 198.71 1112.81 198 1126.23 190 1141.23 176.63 1153.38 181.82 1159.83 189.58 1170.82 193.61 1189.73 193.5 1200.98 201 1204.23 215.4 1209.62 225.7 1219.75 228.5 1232.73 249 1228.68 263 1229.73 270.5 1235.73 277.5 1241.73 283.5 1235.73 292.5 1230.73 302.5 1229.73 313.5 1233.73 322.5 1241.73 327.58 1249.7 329.56 1259.81 325.62 1272.28 334.25 1276.59 344.5 1287.73 347.85 1300.55 348.5 1314.73 358.86 1319.43 365.51 1327.92 369 1334.73 382.01 1348.8 386.5 1370.56 390.5 1414.73 397.45 1457.9 737.5 1457.9 737.5 1406.01 737.93 1381.81 746.01 1361.67 756.83 1353.17 770.5 1352.73 784.5 1353.73 793.5 1361.23 808.13 1349.23 819.5 1346.73 820.5 1335.73 824.5 1324.73 836.5 1312.73 849.44 1306.81 851.5 1294.73 854.71 1280.46 867.5 1265.73 875.5 1260.73 891.83 1257.56 904.33 1263.01 916.5 1271.73 924.5 1279.81 932.02 1272.73 944.86 1265.23 949.71 1261.41 945.93 1241.4 952.35 1227.71 958.5 1221.73 972.83 1217.73 978.42 1217.73 981.5 1196.73 989.5 1185.73 1003.43 1179.46 999.37 1159.06 1002.5 1143.73 1007.32 1131.69 1015.63 1123.3 1030.5 1118.73 1044.42 1118 1058.5 1119.73 1060.5 1118.73 1058.5 1107.06 1059.5 1096.73 1062.5 1088.73 1059.33 1081.62 1056.5 1068.73 1057.5 1052.73 1064.5 1039.73 1076.99 1034.27 1093.5 1029.73 1098.97 1026.11 1093.06 1018.03 1089.46 1009.4 1090.97 998.25 1097.5 989.73 1105.18 982.69 1102.89 978.6 1096.78 971.88 1096.64 962.38 1101.48 955.23 1110.5 949.73 1118.5 946.73 1126.5 945.73 1133.5 945.73 1134.5 933.73 1137.5 923.73 1145.49 915.8 1154.5 910.73 1162.25 910.3 1167.5 911.73 1167.5 1607.56 4 1614.9"/>
            <path class="cls-3" d="M2.5,1607.5l1165-5v-700c-16.24-2.69-29.47,7.45-33,22-3,12.45,3,26.12,15,33" transform="translate(0 8.23)"/>
            <path class="cls-3" d="M26.5,964.5c3.37-2.89,8.86-8.64,9-16,.22-11.92-11.66-25.12-33-27v515" transform="translate(0 8.23)"/>
            <path class="cls-3" d="M34.5,955.5c2,.1,10.69.65,15,5,5.6,5.66,7.58,17.42,3,26" transform="translate(0 8.23)"/>
            <path class="cls-3" d="M45.5,993.5c1-2,3.39-6.41,8-8,7.06-2.43,17.93,3.42,23,14" transform="translate(0 8.23)"/>
            <path class="cls-3" d="M60.5,1021.5c.34-1.49,4-16.51,17-21a27.26,27.26,0,0,1,20,2c15.45,8.08,21.27,35.45,15,68" transform="translate(0 8.23)"/>
            <path class="cls-3" d="M116.5,1051.5c2.53-.9,21.21-7.19,34,1,14.54,9.31,20.13,32.69,9,54" transform="translate(0 8.23)"/>
            <path class="cls-3" d="M165.5,1091.5c10.5-2.2,24.9-.82,30,6,7.94,10.62-1,26.58-3.76,31.48a48.05,48.05,0,0,1-17.24,17.52" transform="translate(0 8.23)"/>
            <path class="cls-3" d="M149.5,1139.5c3.86,0,23.14.66,35,15,13.8,16.69,12.28,45.62-7,67" transform="translate(0 8.23)"/>
            <path class="cls-3" d="M193.5,1194.5c14.12.52,30.21,9.17,34,21,4.9,15.28-4.6,34.1-23,40" transform="translate(0 8.23)"/>
            <path class="cls-3" d="M229.5,1225.5c2.06-.91,22.27-11,35-4,13.69,7.48,20.34,27.09,13,46" transform="translate(0 8.23)"/>
            <path class="cls-3" d="M278.5,1234.5c1.79-1.89,8-15,22-14,13.38,1,25.62,10.33,28,23,1.55,8.3-1.53,16.18-3,19" transform="translate(0 8.23)"/>
            <path class="cls-3" d="M310.5,1263.5a31.37,31.37,0,0,1,19,2c12.56,5.83,20.18,21.93,19,39" transform="translate(0 8.23)"/>
            <path class="cls-3" d="M324.5,1317.5a23.22,23.22,0,0,1,43,9" transform="translate(0 8.23)"/>
            <path class="cls-3" d="M355.5,1338.5c7.95-11.52,13.83-11.14,15-11,8.4,1,15.72,17,16,41" transform="translate(0 8.23)"/>
            <path class="cls-3" d="M1133.5,938.5c-20-7-38.9,11.62-38,21,.65,6.81,8.35,13.11,18,16" transform="translate(0 8.23)"/>
            <path class="cls-3" d="M1106.5,973.5c-1.3,1-18,12-17,24a32.73,32.73,0,0,0,9.47,20.38,31.48,31.48,0,0,0,14.53,7.62" transform="translate(0 8.23)"/>
            <path class="cls-3" d="M1097.5,1019.5c13.06-.17-31,2-39,22a40.44,40.44,0,0,0,5,39" transform="translate(0 8.23)"/>
            <path class="cls-3" d="M1075.5,1070.5c-10.26,5.63-16.89,16-17,27-.14,14.23,10.54,27.48,26,31" transform="translate(0 8.23)"/>
            <path class="cls-3" d="M1063.5,1113.5c-2.51-.91-30.85-9.21-47,1-15.94,10.07-21.13,35-14,56" transform="translate(0 8.23)"/>
            <path class="cls-3" d="M1033.5,1177.5c-1.41-1.07-15-11-31-6-13.89,4.32-27,20-23,38" transform="translate(0 8.23)"/>
            <path class="cls-3" d="M995.5,1220.5a28.87,28.87,0,0,0-16-10c-10.77-2.28-23.71,2.06-30,13-5.11,8.88-4.69,22.09,1,31" transform="translate(0 8.23)"/>
            <path class="cls-3" d="M985.5,1266.5c-1.32-1.29-15.4-14.63-35-11-14.78,2.74-26.85,14-31,29" transform="translate(0 8.23)"/>
            <path class="cls-3" d="M924.5,1270.5c-1.15-1.4-20.51-23.29-40-21s-36.16,22.54-35,48" transform="translate(0 8.23)"/>
            <path class="cls-3" d="M819.5,1336.5c-2-18,12.45-34.69,27-38,9.71-2.21,18.14,1.13,22,3" transform="translate(0 8.23)"/>
            <path class="cls-3" d="M839.5,1338.5a41.91,41.91,0,0,0-22-1c-21.21,4.94-30,25.55-31,28" transform="translate(0 8.23)"/>
            <path class="cls-3" d="M793.5,1352.5c-8-9-27.26-12-38-7-15.52,7.21-17.87,30-18,31" transform="translate(0 8.23)"/>
            <path class="cls-1" d="M159.56,1463.15s14.26-26.1,35-41.69c18-13.53,40.92-19.13,63.63,7.2a163.33,163.33,0,0,1-2.86-27.76c-.37-25.58,9.21-59.43,41.17-32.4" transform="translate(0 8.23)"/>
            <path class="cls-1" d="M1062.64,1377.67s-102.12-108.47,31.88-123.88" transform="translate(0 8.23)"/>
            <path class="cls-1" d="M1020.47,1424.13c26.37-75.4,92.74-39.74,92.74-39.74" transform="translate(0 8.23)"/>
            <path class="cls-1" d="M1107.59,1301.33s-36.52-77.88,13.06-84.15" transform="translate(0 8.23)"/>
            <path class="cls-1" d="M1044.21,1445.23s-28-50.33-51.11-6.16" transform="translate(0 8.23)"/>
            <path class="cls-1" d="M34.56,1152.66s22.24,10.67,36.67,26.46c12.54,13.71,19.17,31.29.23,49.09a130.72,130.72,0,0,1,22-2.52c20.45-.6,47.65,16.09,29,41" transform="translate(0 8.23)"/>
            <path class="cls-1" d="M114.92,1176.71s-31.77-21.19-43.69,2.41" transform="translate(0 8.23)"/>
            <path class="cls-1" d="M76,1301.89s-5.47,74.72,36.63,44.72" transform="translate(0 8.23)"/>
        </g>
        <g id="TOMBE">
            <path class="cls-4" d="M336.7,1426s-10.4-32.79,1.68-47.53a18.27,18.27,0,0,1,4.6-5.32c3.28-2.66,7.78-6.21,12.49-5.6l14.64-1s8.18-1.42,10.13-2c2.25-.73,5.2,2,6.66,4.15a3.06,3.06,0,0,0,2.94,1.31c2.3-.3,5.77-.76,6.57-1,1.23-.3,7.78,3.48,7.78,3.48l4.85.91a2.84,2.84,0,0,1,2.2,2,49.38,49.38,0,0,1,1.23,5.22,3.52,3.52,0,0,0,2.77,2.91c4.28.89,12.41,2.35,16.38,1.54,5.52-1.13,20.05-16.48,34.18-17.3s69-2.66,77.58,1.85,35.82,3.89,35.82,3.89l105.55,3.27,40.67-.55s30.84,4.92,31.93,7.37,40.94,4.37,40.94,4.37l29.07,4.67a9.67,9.67,0,0,0,3,0l22.67-3.31.2,0c1.31-.31,19.83-4,28.72,32.7" transform="translate(0 8.23)"/>
            <path class="cls-3" d="M406.23,1406.26s15.56-9.53,28.67-5.28a3.49,3.49,0,0,0,2.12,0c4.49-1.35,21.6-6.13,34.31-4.36,14.73,2,63.45,11.46,74.91,10.64s50.56,1.23,50.56,1.23,18.83-4.51,34.39,13.92" transform="translate(0 8.23)"/>
            <polygon class="cls-4" points="920 1936.24 919.67 1429.94 289.43 1429.77 288.5 1937.23 920 1936.24"/>
        </g>
        <g id="Nuage_Bas" data-name="Nuage Bas">
            <polygon id="Fond" class="cls-2" points="3.53 1443.99 14.89 1439.7 29 1445.23 41.68 1460.3 45.49 1462.93 56 1458.23 72 1458.23 80.84 1459.34 87.59 1465.63 86.41 1477.01 86.12 1481.78 95 1483.23 109.75 1495.09 112.49 1514.63 130.44 1514.63 150.3 1517.34 167.89 1532.07 173.92 1552.45 173.92 1561.56 183.61 1570.81 187.5 1576.73 210.5 1568.73 221.5 1566.73 235.5 1570.73 243.5 1574.73 259.5 1589.73 266.5 1604.73 271.5 1611.73 281.99 1611.89 289.09 1615.84 300.28 1622.62 305.5 1632.73 316.56 1629.5 334.42 1630.71 347.5 1640.73 350.5 1648.23 352.5 1660.73 362.22 1660.03 375.5 1661.73 381.15 1664.34 384.63 1655.02 389.92 1644.65 397.45 1633.73 406.5 1627.73 421.79 1626.73 432.22 1628.57 444.5 1634.73 456.22 1643.9 460 1653.59 471.5 1652.73 482.5 1654.73 496.23 1660.73 504.5 1674.51 513.11 1673.75 524.33 1673.75 536.02 1676.53 539.5 1670.73 545.08 1661.28 557.5 1654.73 568.5 1653.73 581.4 1657.48 590.24 1668.31 598.5 1666.73 612.5 1662.73 623.58 1663.92 632.67 1672.73 637.07 1685.01 634.63 1699.39 638.58 1705.09 648.64 1713.44 653.33 1715.07 662.5 1707.73 671.67 1706.26 678.75 1701.73 688.56 1695.11 696.5 1694.73 707.11 1679.44 716.5 1670.73 728.5 1666.73 737.5 1665.73 737.5 1657.23 740.5 1646.73 747.5 1639.73 757.5 1633.73 767.5 1633.73 780.87 1638.83 787.33 1648.19 791.5 1655.73 801.5 1651.73 814.21 1649.95 825.9 1654.45 837.57 1662.9 843.5 1660.73 850.21 1653.51 866.22 1649.54 885.1 1652.82 891.22 1634.91 903.48 1621.16 916.68 1615.36 915.8 1608.78 910.09 1595.23 910.09 1584.06 911.35 1573.21 915.98 1564.54 923.44 1560.54 938.22 1559.45 946.86 1565.02 951.01 1565.24 960.89 1548.21 978.5 1538.73 990.67 1537.01 1001.5 1544.73 1011.48 1550.62 1024.13 1526.53 1033.5 1517.73 1045 1512.73 1054.22 1512.73 1065.63 1517.9 1069.5 1518.73 1074.67 1513.39 1086.67 1510.47 1093.42 1511.34 1095.5 1503.73 1101.5 1495.73 1109.5 1491.73 1118.47 1491.57 1124.5 1491.73 1127.16 1481.64 1134.5 1476.73 1144.5 1473.73 1153.01 1472.22 1162.5 1473.73 1167.5 1476.01 1167.5 2029.56 2.5 2031.73 3.53 1443.99"/>
            <path class="cls-3" d="M1122.5,1484.5c-1.88-.68-10-3.29-15.61-.93-7.35,3-14.3,11.25-13.39,20.93" transform="translate(0 8.23)"/>
            <path class="cls-3" d="M1097.85,1515.56c-.09-2.26-.65-7.23-4.29-10.47-5.58-5-16.31-3.39-25.06,4.41" transform="translate(0 8.23)"/>
            <path class="cls-3" d="M1073.21,1535.6c.26-1.51,2.64-16.79-7.58-25.93a27.23,27.23,0,0,0-19.23-5.87c-17.37,1.49-33.3,24.5-40.07,57" transform="translate(0 8.23)"/>
            <path class="cls-3" d="M1010.5,1541.5c-2-1.8-17-16-32.28-12-16.71,4.35-31.18,22.4-29.14,46.35" transform="translate(0 8.23)"/>
            <path class="cls-3" d="M949.5,1559.5c-7-9-22.82-10.19-30.16-5.86-11.42,6.73-9.32,24.92-8.67,30.49a48.08,48.08,0,0,0,9.14,22.81" transform="translate(0 8.23)"/>
            <path class="cls-3" d="M945.58,1610.13c-3.59-1.45-21.61-8.32-38.08.34-19.17,10.07-28.93,37.34-19.39,64.51" transform="translate(0 8.23)"/>
            <path class="cls-3" d="M883.5,1644.5c-13-7-31.14-3.8-39.21,5.66-10.41,12.2-8.91,33.23,5.79,45.77" transform="translate(0 8.23)"/>
            <path class="cls-3" d="M839.5,1656.5c-1.54-1.63-17.23-16.59-31.66-15.08-15.51,1.62-29.22,17.14-29.74,37.42" transform="translate(0 8.23)"/>
            <path class="cls-3" d="M792.5,1647.5c-.92-2.43-8.11-16.77-17.48-20.89-12.28-5.4-27.63-.36-34.71,10.41-4.63,7.06-4.08,15.31-3.81,18.48" transform="translate(0 8.23)"/>
            <path class="cls-3" d="M749.2,1662.42a31.42,31.42,0,0,0-18.3-5.49c-13.83.54-26.91,12.37-32.4,28.57" transform="translate(0 8.23)"/>
            <path class="cls-3" d="M715.45,1706.84a23.22,23.22,0,0,0-43.14-8.29" transform="translate(0 8.23)"/>
            <path class="cls-3" d="M678.75,1714.25c-2.89-13.69-8.46-15.61-9.6-15.93C661,1696,648.08,1708,638.58,1730" transform="translate(0 8.23)"/>
            <path class="cls-3" d="M38.52,1479.94c7.51-11.62,6.59-26.53-1.81-36.21-9.82-11.31-21-17.07-34.21-7.23v587h1165v-557c-20.42-6.5-38.67.31-43.06,11.4-2.72,6.84.13,14.27,2.13,18.23" transform="translate(0 8.23)"/>
            <path class="cls-3" d="M43.5,1456.5c14-14,40.42-8.31,43.92.44,2.54,6.35-1.4,15.48-8.65,22.48" transform="translate(0 8.23)"/>
            <path class="cls-3" d="M85.5,1473.5c1.63.31,19-1,24.69,14.45,3.84,10.45,2,19.58.93,22.45a31.31,31.31,0,0,1-9.41,13.44" transform="translate(0 8.23)"/>
            <path class="cls-3" d="M111.5,1508.5c1.37-.55,30.76-6.45,46.42,4.33,11.44,7.87,17.72,24.56,15.58,38.67" transform="translate(0 8.23)"/>
            <path class="cls-3" d="M156.12,1546.39c11.7.29,22.32,6.43,27.49,16.19,6.65,12.58,3.24,29.26-8.88,39.48" transform="translate(0 8.23)"/>
            <path class="cls-3" d="M186.5,1570.5c1.81-2,23-17,42.23-12.08,18.26,4.67,37.49,22.18,40.77,44.08" transform="translate(0 8.23)"/>
            <path class="cls-3" d="M242.53,1622.2c.76-1.6,8.28-16.64,24.79-19.56,14.33-2.53,34.18,6.86,40.18,22.86" transform="translate(0 8.23)"/>
            <path class="cls-3" d="M296,1643a28.88,28.88,0,0,1,9.63-16.23c8.52-7,22-9,32.62-2.21,8.61,5.55,15.2,17.45,14.23,28" transform="translate(0 8.23)"/>
            <path class="cls-3" d="M326,1679.25c.58-1.75,7-20.06,26.05-25.83,14.39-4.35,30.3.16,40.85,11.55" transform="translate(0 8.23)"/>
            <path class="cls-3" d="M382.5,1655.5c.38-1.77,6-34,25.45-37.69,19.14-3.63,42.48,3.44,53.13,26.59" transform="translate(0 8.23)"/>
            <path class="cls-3" d="M504.5,1664.5c-8.1-16.56-25.85-24.32-40.3-20.59-9.64,2.5-15.6,9.33-18.17,12.76" transform="translate(0 8.23)"/>
            <path class="cls-3" d="M488.77,1676.24a41.93,41.93,0,0,1,19.09-11c21.11-5.34,38.38,8.94,40.39,10.66" transform="translate(0 8.23)"/>
            <path class="cls-3" d="M537.5,1667.5c1-17,17-24.19,29.12-23.57a27.91,27.91,0,0,1,25.88,23.57" transform="translate(0 8.23)"/>
            <path class="cls-3" d="M592.5,1660.5c9-6.44,24.55-10.21,33-5,11,6.75,15.23,24.66,8,38" transform="translate(0 8.23)"/>
            <path class="cls-3" d="M611.5,1700.5c9.92-7.89,22-8.65,29-3,4.13,3.36,9.5,8.23,10,11" transform="translate(0 8.23)"/>
            <path class="cls-1" d="M180.88,1749.93s-15.56-25.35-37.07-39.86c-18.67-12.6-41.84-17-63.18,10.42a162.67,162.67,0,0,0,1.44-27.86c-.92-25.57-24.63-55.76-55.18-27.14" transform="translate(0 8.23)"/>
            <path class="cls-1" d="M143.31,1655.2s29.88,34.9.5,54.87" transform="translate(0 8.23)"/>
            <path class="cls-1" d="M318,1913.21s-94.11,22.46-92.77-50" transform="translate(0 8.23)"/>
            <path class="cls-1" d="M231.47,1888.67s-71.09,27.64-64.27-23.24" transform="translate(0 8.23)"/>
            <path class="cls-1" d="M272.92,1852.65s-56.7,42.28-95.34-30.74" transform="translate(0 8.23)"/>
            <path class="cls-1" d="M510.66,1801.21c-51.7,86.22-86.56,2.87-86.56,2.87s3.24,31.06-11.64,26.52" transform="translate(0 8.23)"/>
            <path class="cls-1" d="M498.71,1768.65s6.61,66.24,39,21.68" transform="translate(0 8.23)"/>
            <path class="cls-1" d="M660.5,1876.63c17-14.74,39.51-21.89,64,2.82a163,163,0,0,1-4.74-27.49c-2.13-25.5,17.82-58.3,51.56-33.52" transform="translate(0 8.23)"/>
            <path class="cls-1" d="M628.44,1920.61s12.43-27,32.06-44" transform="translate(0 8.23)"/>
            <path class="cls-1" d="M654.47,1822.09s-25.52,38.2,6,54.54" transform="translate(0 8.23)"/>
            <path class="cls-1" d="M1034.53,1857.21s-95.41-16.11-89.22,56.1" transform="translate(0 8.23)"/>
            <path class="cls-1" d="M949.88,1887.48s-72.78-22.82-62.57,27.49" transform="translate(0 8.23)"/>
            <path class="cls-1" d="M993.65,1920.65s-59.4-38.39-93.08,37" transform="translate(0 8.23)"/>
            <path class="cls-1" d="M1003.81,1697.63c29.57,95.74,83.1,23.33,83.1,23.33s-10.51,29.3,5,28.44" transform="translate(0 8.23)"/>
            <path class="cls-1" d="M1023.11,1669s-22.14,62.54-42.94,11.71" transform="translate(0 8.23)"/>
        </g>
        <g id="TETE">
            <path class="cls-5" d="M446.4,724.24c-.11-2.37-1.26-4.81-1.78-7.13-4.77-21.32-25-124.61,2.56-164.9,0,0,129.13-189.86,288.77-6.76,4.72,5.41,11.57,24.22,12.24,31.37,2.82,30.13,9.43,100.7-1.47,135.92-.21.7-.41,1.39-.58,2.1-2.84,12-29.9,124.22-56.95,149.28,0,0-80.25,76.21-179.59,7.79a38.65,38.65,0,0,1-13.14-15.45C483.88,829.6,447.61,750.21,446.4,724.24Z" transform="translate(0 8.23)"/>
            <path id="Oeil_Gauche" data-name="Oeil Gauche" class="cls-6" d="M521.9,546.4l-30.37,54.67L554,584.14S548.08,552.2,521.9,546.4Z" transform="translate(0 8.23)"/>
            <path id="Oeil_Gauche-2" data-name="Oeil Gauche" class="cls-6" d="M664.15,544.29l33,53.15-63.2-13.9S638.28,551.34,664.15,544.29Z" transform="translate(0 8.23)"/>
        </g>
    </g>
</svg>