<svg id="CONTENT"
    xmlns="http://www.w3.org/2000/svg" viewBox="0 0 992.55 1515.9">
    <defs>
        <style>.cls-1,.cls-2{stroke:#000;stroke-miterlimit:10;stroke-width:5px;}.cls-2{fill:#fff;}</style>
    </defs>
    <g id="MIDDLE">
        <path class="cls-1" d="M399.5,734.5s-8.81-13.78-19.7-19.36c-.64-.33-1.3-.64-1.3-.64-16-7.79-21.26-1.52-42-6-26.26-5.67-47.58-21.49-51-35a12.06,12.06,0,0,0-1-3c-4.37-8.44-18.75-6.63-37-9-13.68-1.78-26-3.38-38-11-13.19-8.39-12-15.16-24-20-11.81-4.76-15.94.59-30-3-11-2.8-29-11.29-30-23-1.2-13.81,21.72-26.23,35-31,6.2-2.23,7.06-1.62,36-5s41.17-5.52,53-14c5-3.56,11.18-8.14,11-14-.28-9-15.61-17.19-29-18-7.14-.43-7.63,1.59-19,3-10.67,1.32-23.2,2.88-35-2-13.58-5.61-12-13.89-27-20-11.54-4.71-14.24-.52-23-5-14.29-7.32-24.58-27.44-19-42,2.66-6.94,8.14-10.58,15-15,14.17-9.13,28.95-12.41,45-14,30.31-3,32.22,3.31,56,0,16.65-2.32,39.51-5.49,46-20,5.61-12.54-5.66-23.15,2-38,4.41-8.55,12.07-12.64,16.5-15,22.15-11.82,46.61-1.82,51.17.14a20.75,20.75,0,0,0,9.32-1.45l39.61-16a21.1,21.1,0,0,1,6-1.44L431,332.68l20.33-2.35a15.89,15.89,0,0,0,11.59-7.23c8.4-13.23,15.49-30.56,3.3-32.73l-70.34-3a7.79,7.79,0,0,1-1-.09h0a27.72,27.72,0,0,1-17.39-6.14l-23.32-18.78a19.26,19.26,0,0,0-2.12-1.49,59.26,59.26,0,0,0-13.53-6c-.45-.14-.9-.25-1.36-.36l-57.32-13.09A20.78,20.78,0,0,1,265.32,226l-2.17-9.78a20.77,20.77,0,0,1,9.09-22l10.28-6.56A58.2,58.2,0,0,1,312,178.48s42,8,62.79,4c2.19-.42,8.73-2,10.74-3l7-4a29.37,29.37,0,0,0,8.68-7.45l25.09-31.34a20.74,20.74,0,0,1,18-6c13,2,35.22,3.78,48.77-3.67l58.5-36.5c10.07-2.5,24.46-4.44,40,0,17.89,5.11,23,14.57,36,22,29.73,16.94,48.21-6.69,90.61,0,45.11,7.12,43.27,36.88,86.39,40,31.47,2.28,39.13-13.1,72-6,19.92,4.3,25,11.66,50,18,20.5,5.2,33.38-2.92,53,5,15,6.05,19.46,8.92,21,13,3.17,8.42-2.35,19.56-10,25-11,7.81-24.48,2.58-37,1-32.48-4.1-41.11,18.46-86,33-50.59,16.39-60.35-5.56-104,14-31.15,14-29.22,26.49-55,31-20.1,3.52-39.29-.95-70,7-6.83,1.77-17,4.86-20,13a17.41,17.41,0,0,0,2,15c7,10.56,25.16,9.38,41,9,42.27-1,74.59-1.77,103,11,21.13,9.5,18.56,16.8,39,23,19.65,6,32.36,2.35,64,1,34.68-1.48,52-1.75,59,1,30.49,12,46.14,45.25,66,40,2.74-.73,5.37-2.13,10-2,9.89.28,21.44,7.36,25,18,4.54,13.57-5.36,28.57-16,35-13.15,7.95-23.28.3-44,5-16.43,3.73-14.92,11.19-33,17-15.11,4.86-28.26,4.39-39,4-25.67-.92-32.21-7.45-45-3-11.56,4-24.69,14-24,23,1,13.44,33.62,25.81,61,26,12.61.09,20-2.45,32,2,3.55,1.31,22.52,8.32,24,22,1.41,13-13.85,25-26,29-8.19,2.72-10,.24-23,2-3.89.53-34.48,4.94-36,16-1,7.31,11,15.5,20,19,10.8,4.19,18.78,2.2,29,2,5.55-.11,27,.91,46,11s19.31,20.83,39,27c5.59,1.75,10.39,2.17,20,3,30.59,2.65,37.46-3.74,53,1,11.79,3.59,28.58,13.58,29,26,.45,13.3-18,25.81-33,30-18,5-28.07-2.69-45,5-5.83,2.65-7.31,7-18,14-6.25,4.1-10.25,6.72-16,9-11.8,4.68-12.65,13-19.93,12.69a47.92,47.92,0,0,0-26.8,6.25l-43.36,48.82c-1.42,3.55-12.51,8.58-30.53,7C784.41,815.44,739.16,891,713.5,896.5c-8.41,1.8-17.93,4.55-30,4-27-1.24-46.89-15.36-56-22-18.1-13.2-14-17.12-31-31-5.28-4.32-49.45-39.58-82-26-11.73,4.89-15.28,13.34-25,12-11.37-1.56-19.63-14.91-23-25-7.54-22.58,8.07-32.86,1-46C456.51,742.1,411.59,753.42,399.5,734.5Z" transform="translate(-104.46 -85.35)"/>
        <path class="cls-2" d="M484.5,213.5c.48-9.19,34.34-19.72,66-18,12.2.66,16.42,2.5,25,0,16.38-4.78,16.47-17.85,31-28,23.9-16.7,57.66-6.52,66-4,20.66,6.23,17.91,16.32,36,20,22.36,4.56,39.19-6.48,47,3,2.74,3.33,3.9,8.62,2,11-2.65,3.32-9.64-1-19,1-6.48,1.39-10.35,5-15,9-14.07,12-23.9,20.45-33,24-14.46,5.63-16.43-5.17-50-6-24.65-.61-39.78,4.8-43,6-10.23,3.8-9.26,5.47-16,7-18.08,4.12-23.33-8.28-48-11-17-1.87-24.59,2.88-38-4C491.19,221.29,484.28,217.74,484.5,213.5Z" transform="translate(-104.46 -85.35)"/>
        <path class="cls-2" d="M396.5,403.5c-.08-6,19.84-12.32,37-14,18-1.76,22.65,2.56,37,2,23.94-.94,24.83-13.52,50-20,33.4-8.59,66.9,4.55,91,14,2.48,1,8.56,5.56,18,8,11.07,2.86,15.48-1.36,26,1,10,2.24,20.68,8.82,20,13-1.11,6.89-32.41,7-34,7-31,0-35.85-10.08-67-10-14.67,0-27.47.23-40,8-6.11,3.79-8.93,7.38-16,10-9.77,3.61-13.38-.37-31-1-19.28-.69-21.81,3.49-34,0-9.08-2.6-8.81-5.24-18-7-10.41-2-14.16.73-24-2C409.58,412,396.57,408.35,396.5,403.5Z" transform="translate(-104.46 -85.35)"/>
        <path class="cls-2" d="M771.5,433.5c.19-1.35,8.79.35,18-5a40.35,40.35,0,0,0,5.15-3.53c3.38-3.07,4.18-5.84,8.85-8.47,15.1-8.51,39.62,1,48,11a10.16,10.16,0,0,0,2,2c6.23,4.45,14.6-2.31,28-4,8.31-1.05,19.16-.23,20,3,.9,3.47-9.88,9.33-16,12-3.73,1.63-25.89,10.86-48,1-2.17-1-2.19-1.28-4-2-10.92-4.35-19.52.6-30,2C786.1,443.83,771.25,435.32,771.5,433.5Z" transform="translate(-104.46 -85.35)"/>
        <path class="cls-2" d="M180.5,481.5c14.71-9.33,28.22-13.1,40-14,10.09-.77,12.36,1.06,23,0,19.77-2,24.23-9.54,40-13,20.78-4.56,48.9.69,54,15,3,8.32-1.95,19.41-9,24-11.76,7.67-31.08-1.66-38-5-2.5-1.21-2.33-1.32-4-2-10.1-4.12-17.26-.42-32,2-18.45,3-33,1.49-37-4a6.44,6.44,0,0,0-2-2c-4.15-2.5-9.71,1.58-15,3C196.35,486.61,189.92,486.74,180.5,481.5Z" transform="translate(-104.46 -85.35)"/>
        <path class="cls-2" d="M271.5,622.5c13.82-7.78,25-9.24,33-9,11.1.33,17.34,4,25,0,7.88-4.14,5.68-10.38,14-16,8.77-5.93,22.35-6.52,31-1,6.14,3.92,5.35,8.08,11,10,7,2.38,10-3.48,21-4,.84,0,16.57-.58,24,9,3,3.83,2,5.87,5,8,5.64,4,11.59-1.41,19,1,7,2.27,13.11,10.78,12,17-1.81,10.12-23.42,17.78-41,14-14.71-3.16-15.59-12-32-15-12.52-2.31-12.73,2.67-29,1-15.76-1.62-18.41-6.58-34-7-10.2-.27-11.72,1.78-21,2C300.69,632.71,287.73,631.19,271.5,622.5Z" transform="translate(-104.46 -85.35)"/>
        <path class="cls-2" d="M901.5,716.5c.29-10.19-32.66-26-64-24-14.63.94-20.58,5.23-31,1-14.83-6-12.75-18.76-29-29-16.44-10.36-35.32-7.88-42-7a73.39,73.39,0,0,0-33,13c-15.87,11.45-12.8,19.45-25,26-15.8,8.48-26.59-1.92-47,3-19,4.57-18.84,22.91-36,25-11.59,1.41-19-4.68-22-1-3.42,4.23,1.78,18,12,25,13.92,9.6,24.5-1.9,51,5,14.69,3.82,14.88,8.26,29,10,13.56,1.67,17.33-1.92,30,1,14.19,3.27,14.6,9,24,9,13.35,0,14.85-11.42,30-15,17.31-4.09,22.93,9.08,40,5,12.93-3.09,12.21-11.25,29-19,13.08-6,18.27-3.28,37-7C858.31,736.74,901.17,728,901.5,716.5Z" transform="translate(-104.46 -85.35)"/>
    </g>
</svg>