<svg id="CONTENT"
    xmlns="http://www.w3.org/2000/svg" viewBox="0 0 1169.88 1515.9">
    <defs>
        <style>.cls-1,.cls-2,.cls-3{stroke:#fff;}.cls-1,.cls-2,.cls-3,.cls-4{stroke-miterlimit:10;}.cls-1,.cls-2{stroke-width:0.75px;}.cls-2,.cls-3,.cls-4{fill:#fff;}.cls-3,.cls-4{stroke-width:5px;}.cls-4{stroke:#000;}</style>
    </defs>
    <g id="LEFT">
        <path class="cls-1" d="M.5,767.5c24,0,65-100,107-92,31.69,6,42.54-45.26,84-46,38.42-.69,17-34.09,61-36,44.58-1.93,17.14-36.86,90-37,12.91,0,22.8-23,39-23,90.62-.15,102.71,9,119.56,20,4.64,3,14.53,5.65,17.15,13.81s-3,16.78-3.81,18c-11.57,17.52-35.86,8.54-70.78,20.77-29.16,10.2-22.94,20.21-51.69,29.55-32.57,10.59-41.24-2-67.88,10.73-22.43,10.76-22.14,22.52-42.72,26.46-13.84,2.65-20.51-1.4-40,3.43-9.52,2.37-23.78,5.92-24.86,13.27-1.33,9.11,18.37,18.43,21.22,19.77,16.1,7.62,21.27,1.3,42.06,5.55,26.32,5.39,47.81,21,51.37,34.45a12.1,12.1,0,0,0,1,3c4.47,8.4,18.83,6.43,37.1,8.6,13.7,1.63,26,3.1,38.12,10.59,13.28,8.25,12.13,15,24.21,19.75,11.86,4.63,15.93-.76,30,2.67,11,2.68,29.1,11,30.24,22.68,1.36,13.8-21.43,26.46-34.66,31.37-6.18,2.3-7,1.7-35.94,5.39s-41.11,6-52.85,14.57c-4.94,3.62-11.1,8.25-10.85,14.12.38,9,15.8,17,29.19,17.68,7.14.36,7.61-1.67,19-3.2,10.65-1.44,23.17-3.13,35,1.62,13.63,5.47,12.18,13.76,27.21,19.71,11.59,4.59,14.25.37,23,4.75,14.37,7.17,24.87,27.17,19.45,41.8-2.58,7-8,10.67-14.83,15.16-14.07,9.28-28.82,12.72-44.85,14.48-30.28,3.33-32.25-3-56,.6-16.62,2.5-39.44,5.92-45.78,20.5-5.48,12.6,5.91,23.09-1.59,38-4.32,8.59-11.94,12.76-16.34,15.17-22,12.06-46.59,2.32-51.17.41a20.71,20.71,0,0,0-9.3,1.56l-39.43,16.43a20.81,20.81,0,0,1-6,1.51l-35.82,3.43-20.3,2.57a15.89,15.89,0,0,0-11.51,7.36c-8.26,13.32-15.17,30.72-2.95,32.76l70.37,2.27a7.79,7.79,0,0,1,1,.09h0a47.1,47.1,0,0,1,22,9.55l18.94,14.92a19.29,19.29,0,0,0,2.13,1.48,59.41,59.41,0,0,0,13.59,5.83c.45.13.91.24,1.37.34l57.45,12.48a20.77,20.77,0,0,1,14.7,15.29l2.27,9.76a20.74,20.74,0,0,1-8.85,22.09l-10.2,6.68a58.3,58.3,0,0,1-29.36,9.45s-42.1-7.52-62.83-3.33c-2.18.45-8.7,2.11-10.7,3.1l-7,4.07a29.45,29.45,0,0,0-8.6,7.55l-24.75,31.6a20.78,20.78,0,0,1-17.9,6.24c-13-1.82-35.26-3.41-48.72,4.19l-58.11,37.13c-10,2.61-24.41,4.7-40,.43-18-4.92-17.94-21.07-30.94-21.07" transform="translate(-0.13 -527.29)"/>
        <path class="cls-2" d="M.5,839.5c19,1,48.16,17.9,66.09,22.25,22.18,5.38,39.41-5,46.86,4.73,2.62,3.43,3.58,8.76,1.59,11.07-2.76,3.22-9.59-1.37-19,.3-6.53,1.15-10.53,4.63-15.32,8.44-14.51,11.51-24.64,19.55-33.87,22.76C32.17,914.15,35.5,900.5.5,901.5Z" transform="translate(-0.13 -527.29)"/>
        <path class="cls-2" d="M.5,1260.5c14-1,28.48-24.15,44.81-29.1,8.55-2.59,12.79-.8,25-.27,31.68,1.38,65.43-9.51,65.81-18.71.17-4.24-6.78-7.71-11.11-9.88-13.48-6.73-21-1.9-38-3.59-24.7-2.46-30.08-14.79-48.12-10.48,1.79-.43-18.18,12.06-38.34,8Z" transform="translate(-0.13 -527.29)"/>
        <path class="cls-2" d="M44.06,1022.4c14.67-.19,27.47-.52,39.91-8.43,6.08-3.86,8.85-7.48,15.89-10.17,9.73-3.72,13.38.23,31,.67,19.29.48,21.77-3.72,34-.37,9.11,2.5,8.86,5.14,18.07,6.81,10.43,1.89,14.15-.88,24,1.74,1.93.51,15,4,15.1,8.84.15,6-19.7,12.53-36.85,14.4-18,1.95-22.67-2.33-37-1.61-23.93,1.2-24.68,13.79-49.78,20.54-33.31,9-54.91-6.32-53.91-32.32" transform="translate(-0.13 -527.29)"/>
        <path class="cls-2" d="M438.21,941.17c-14.61,9.49-28.07,13.4-39.85,14.43-10.08.88-12.37-.93-23,.25-19.74,2.18-24.12,9.8-39.85,13.43-20.73,4.78-48.9-.17-54.16-14.42-3.06-8.29,1.74-19.43,8.74-24.1,11.67-7.79,31.1,1.33,38.05,4.6,2.52,1.18,2.34,1.29,4,1.95,10.15,4,17.26.24,32-2.34,18.41-3.23,33-1.84,37,3.6a6.45,6.45,0,0,0,2,2c4.18,2.45,9.69-1.69,15-3.16C422.3,936.23,428.73,936,438.21,941.17Z" transform="translate(-0.13 -527.29)"/>
        <path class="cls-2" d="M345.7,801.16c-13.74,7.92-24.94,9.51-32.9,9.35-11.1-.21-17.39-3.84-25,.27C280,815,282.23,821.22,274,826.93c-8.71,6-22.28,6.76-31,1.33-6.19-3.85-5.44-8-11.11-9.88-7.06-2.31-9.93,3.59-21,4.23-.84,0-16.56.75-24.09-8.74-3-3.8-2.05-5.85-5.09-8-5.68-3.91-11.57,1.53-19-.79-7-2.2-13.22-10.65-12.18-16.87,1.7-10.14,23.23-18,40.85-14.44,14.74,3,15.71,11.79,32.16,14.65,12.54,2.18,12.69-2.81,29-1.31,15.78,1.45,18.49,6.38,34.08,6.63,10.2.17,11.7-1.91,21-2.22C316.4,791.27,329.38,792.65,345.7,801.16Z" transform="translate(-0.13 -527.29)"/>
    </g>
    <g id="RIGHT">
        <path d="M1170,686c-22,0-56-71-95-66-29.68,3.81-31.58-47.29-70-48-35.6-.66-51.21,11.88-92,10-41.31-1.9-12.48-25.92-80-26-12,0-29-34-48-28-80.08,25.29-66,15-83,15.12-5.26,0-13.47,5.66-15.91,13.83s2.74,16.77,3.52,18c10.71,17.51,33.22,8.51,65.57,20.71,27,10.19,21.25,20.2,47.88,29.52,30.18,10.56,38.22-2.08,62.9,10.67,20.78,10.74,20.5,22.5,39.57,26.43,12.82,2.64,19-1.42,37,3.4,8.83,2.36,22,5.89,23,13.25,1.23,9.1-17,18.44-19.67,19.79-14.94,7.63-19.72,1.31-39,5.58-24.39,5.4-44.32,21-47.63,34.49a12.87,12.87,0,0,1-1,3c-4.15,8.39-17.45,6.44-34.39,8.63-12.7,1.64-24.13,3.12-35.33,10.62-12.31,8.25-11.26,15-22.45,19.76-11,4.64-14.76-.75-27.83,2.7-10.2,2.69-27,11-28,22.7-1.26,13.8,19.84,26.45,32.1,31.35,5.72,2.28,6.52,1.68,33.31,5.35s38.09,5.94,49,14.53c4.57,3.61,10.27,8.25,10,14.11-.36,9-14.65,17-27.07,17.71-6.61.36-7.05-1.66-17.57-3.19-9.87-1.43-21.47-3.11-32.45,1.65-12.64,5.48-11.31,13.77-25.24,19.73-10.74,4.6-13.2.38-21.37,4.77-13.32,7.18-23.06,27.19-18.05,41.81,2.39,7,7.43,10.66,13.74,15.15,13,9.27,26.69,12.7,41.54,14.45,28.06,3.3,29.9-3,51.9.56,15.4,2.48,36.55,5.88,42.41,20.45,5.06,12.6-5.5,23.1,1.44,38,4,8.59,11.06,12.76,15.13,15.16,20.4,12,43.18,2.28,47.42.37a18,18,0,0,1,8.62,1.55l36.53,16.41a18.11,18.11,0,0,0,5.57,1.49l33.18,3.41,18.81,2.55a14.68,14.68,0,0,1,10.67,7.35c7.65,13.31,14,30.71,2.71,32.76l-65.21,2.33a6.86,6.86,0,0,0-.9.09h0a42.15,42.15,0,0,0-20.43,9.57l-17.56,14.94a18.78,18.78,0,0,1-2,1.47,53.16,53.16,0,0,1-12.6,5.84c-.42.13-.84.25-1.26.35l-53.26,12.52a20.18,20.18,0,0,0-13.63,15.3l-2.12,9.76a21.52,21.52,0,0,0,8.19,22.09l9.45,6.66a51.18,51.18,0,0,0,27.2,9.43s39-7.55,58.22-3.37c2,.44,8.07,2.1,9.92,3.08l6.45,4.07a27.87,27.87,0,0,1,8,7.54L983.92,1277a18.42,18.42,0,0,0,16.58,6.22c12-1.83,32.68-3.43,45.15,4.15l53.82,37.08c9.3,2.6,22.62,4.68,37.07.4,15.72-4.66,16-21.33,33-21.33" transform="translate(-0.13 -527.29)"/>
        <path class="cls-3" d="M1167.5,1021.5c-9.08,0-10.74,7.45-13,10-17,19.15-53.87,20.57-84.74,11.64-23.25-6.73-23.94-19.32-46.11-20.5-13.3-.7-17.64,3.58-34.31,1.63-15.89-1.85-34.28-8.33-34.14-14.36.12-4.86,12.22-8.34,14-8.85,9.15-2.64,12.59.13,22.26-1.76,8.54-1.68,8.31-4.32,16.76-6.82,11.33-3.37,13.63.83,31.5.33,16.34-.45,19.73-4.4,28.74-.69,6.52,2.69,9.09,6.31,14.72,10.16,11.9,8.15,4.34,8,37,8.4,28.87.39,18.63-8.46,47.34-8.18Z" transform="translate(-0.13 -527.29)"/>
        <path class="cls-4" d="M759.88,929.76c13.53,9.47,26,13.38,36.92,14.4,9.34.87,11.47-.94,21.31.23,18.3,2.17,22.35,9.77,36.93,13.39,19.21,4.77,45.32-.2,50.2-14.46,2.84-8.29-1.6-19.42-8.08-24.09-10.81-7.78-28.82,1.36-35.27,4.63-2.33,1.18-2.17,1.29-3.73,2-9.4,4-16,.25-29.63-2.32-17.06-3.22-30.58-1.82-34.33,3.63a6.34,6.34,0,0,1-1.87,2c-3.87,2.46-9-1.68-13.87-3.15C774.63,924.81,768.67,924.61,759.88,929.76Z" transform="translate(-0.13 -527.29)"/>
        <path class="cls-4" d="M845.72,789.67c12.73,7.92,23.11,9.49,30.49,9.33,10.29-.22,16.11-3.85,23.16.25,7.26,4.22,5.16,10.44,12.81,16.14,8.06,6,20.64,6.75,28.71,1.31,5.73-3.86,5.05-8,10.3-9.89,6.54-2.32,9.2,3.58,19.42,4.21.78.05,15.35.74,22.33-8.76,2.8-3.8,1.9-5.85,4.72-8,5.28-3.92,10.73,1.52,17.62-.81,6.51-2.21,12.27-10.66,11.3-16.88-1.56-10.14-21.51-18-37.84-14.41-13.66,3-14.57,11.81-29.81,14.68-11.63,2.19-11.77-2.8-26.87-1.29-14.62,1.46-17.13,6.4-31.58,6.66-9.45.17-10.84-1.9-19.43-2.21C872.88,779.76,860.85,781.15,845.72,789.67Z" transform="translate(-0.13 -527.29)"/>
    </g>
</svg>