<svg id="CONTENT"
    xmlns="http://www.w3.org/2000/svg" viewBox="0 0 1143.73 1770.45">
    <defs>
        <style>.cls-1{fill:none;}.cls-1,.cls-2,.cls-4{stroke:#000;stroke-miterlimit:10;stroke-width:5px;}.cls-3,.cls-4{fill:#fff;}</style>
    </defs>
    <g id="NEVER_CATCH" data-name="NEVER CATCH">
        <g id="Entity">
            <g id="Douche">
                <line class="cls-1" x1="510.84" y1="169.91" x2="386.84" y2="1127.91"/>
                <line class="cls-2" x1="536.56" y1="156.6" x2="444.84" y2="1107.91"/>
                <line class="cls-1" x1="602.84" y1="156.91" x2="658.84" y2="1096.91"/>
                <line class="cls-1" x1="643.84" y1="169.91" x2="784.84" y2="1139.91"/>
                <line class="cls-1" x1="620.84" y1="181.91" x2="719.84" y2="1114.91"/>
                <line class="cls-2" x1="551.84" y1="172.91" x2="502.84" y2="1093.91"/>
                <line class="cls-1" x1="576.34" y1="175.85" x2="577.4" y2="1087.91"/>
            </g>
            <path class="cls-2" d="M680.76,195.36a206.77,206.77,0,0,0-97-24c-18.29,0-52.57,2.8-94,23L496.43,207a81.7,81.7,0,0,0,17.69,22.62l5.63,4.3a60,60,0,0,0,14.1,8l6.76,2.7a62.44,62.44,0,0,0,11.62,3.4l6.14,1.17a95.44,95.44,0,0,0,17.93,1.69h23.59A88.78,88.78,0,0,0,622.36,248l2.28-.59a70.83,70.83,0,0,0,18.17-7.58h0a97,97,0,0,0,23.73-19.69h0a45.88,45.88,0,0,0,6.29-9.27Z" transform="translate(-8.66 -63.59)"/>
            <path class="cls-3" d="M615,173c.63,2.34,2.19,12.3-1,20-3.75,9-11.46,12.81-14,14-10.37,4.87-20.12,1.92-23,1-3.38-1.08-13-4.14-18-14-4.28-8.4-2.6-18.56-2-21l26-1a48.57,48.57,0,0,1,8,0Z" transform="translate(-8.66 -63.59)"/>
            <path class="cls-1" d="M681,195a206.77,206.77,0,0,0-97-24c-18.28.05-52.57,2.79-94,23l6.68,12.61a81.51,81.51,0,0,0,17.69,22.62l5.63,4.3a59.76,59.76,0,0,0,14.1,8l6.76,2.7a63.34,63.34,0,0,0,11.61,3.4l6.15,1.17a96.25,96.25,0,0,0,17.92,1.69h23.6a88.65,88.65,0,0,0,22.46-2.89l2.28-.6a70.66,70.66,0,0,0,18.18-7.57h0a97.37,97.37,0,0,0,23.72-19.69h0a45.67,45.67,0,0,0,6.29-9.28Z" transform="translate(-8.66 -63.59)"/>
        </g>
        <g id="Arbre_Gauche" data-name="Arbre Gauche">
            <path id="ArbreDroitBasInterieur" class="cls-1" d="M268.5,1276.5c2.59-15.5,19.17-177,64-178.66a3.71,3.71,0,0,0,2.57-1.19c7.05-7.21,43.64-45.74,47-72.24,0,0-37.78,45.58-58.14,46.18s-68.9,86.21-66.7,109.23c0,0,6.06-102.38,51.93-162.09s62.24-78.2,70.15-88.55c7.56-9.88,53-162.91,52-308s-64.07-234.45-77.42-241-85.19-79.83-97.53-139.28c0,0-9.5,37.85,38.39,123.52,0,0-86.18-25-107.29-157.07,0,0,2-98.39,68.22-56.89,0,0-27.29-50.09-68.65,9.21,0,0-14.22,18.12-8.21,56.47,0,0,16.55,95.41,69.22,156.75,0,0,38,32.39,81,45,0,0,70.65,62.74,60.28,176.63s-11.69,129.53-11.69,129.53-50.13-76.35-81-87c0,0-71.18-56.16-61-123.19,0,0,3.66-81.82-16.94-115.07,0,0,14.44,70.68,6.91,98.24s-2.86,74.41-2.86,74.41-20.91-58.73-55.53-69.34" transform="translate(-8.66 -63.59)"/>
        </g>
        <path id="ArbreGaucheBas" class="cls-1" d="M166.8,503.6c23.69,18.64,42.91,66.33,43.81,82.22s63,80.58,101,98.67S364.39,787,364.39,787c-11.18,33.43-76.92,56.67-78.68,57C107.42,877.38,101.54,1123.4,60.5,1269.5c-13.55,48.23-29.12,115.33-41,199" transform="translate(-8.66 -63.59)"/>
        <path id="ArbreGaucheBas-2" data-name="ArbreGaucheBas" class="cls-1" d="M1167.5,1768.5" transform="translate(-8.66 -63.59)"/>
        <path id="ArbreGaucheBas-3" data-name="ArbreGaucheBas" class="cls-1" d="M1167.5,1381.69" transform="translate(-8.66 -63.59)"/>
        <path id="ArbreGaucheBas-4" data-name="ArbreGaucheBas" class="cls-1" d="M855.72,1236.37c-.57-17.56,11.45-22.9,24-37.4s-5.73-47.32-1.72-71-61.43-97.69-61.43-97.69C838,1039,899,1106.62,899,1106.62c6.86-26.71-.77-71.74-28.24-94.64s-35.1-64.1-35.1-64.1c-.57-16-14.88-20.61-14.88-20.61-19.18-14.5-36.25-95.4-36.25-95.4C783.7,846,828.25,896,828.25,896c23.65,9.16,30.9,49.61,30.9,49.61,4,19.84,37.59,11.44,37.59,11.44s-11.32-83.12-51.55-113.44c-3.7-2.79-6.39-7.49-7.45-13-2.65-13.8-7.76-46.38-15.22-119.71C811.08,598.33,806.21,551.39,777.88,506c0,0-40.92-132.41-1.14-205.68,0,0,49.57-74.78,33-108.5-14.5-29.51-48.08,3-46.93,19.84,0,0-11.07-45.28,30.91-49.35,40-3.88,47.69,64.61,39.68,81.4s-33.58,67.17-33.58,67.17-33.39,94.38,5,168.41,30.34,71.36,36.06,92c0,0,4.86-77.85,23.46-104.18S856,345.33,851.71,345s5.73-55.34,16.31-67.55c0,0-2.57,91.21,16.6,109.52,0,0,32.34-75.94,34.92-100S925.83,121.71,951.3,76.3c0,0-23.56,172.36-7.25,197.92,0,0-24.23,132.93-42,153.53,0,0-25.76,107.62-26,126.7,0,0,26.61-45.42,26.9-55.34s36.63-60.29,36.63-60.29,30.9-41.59,31.76-61.82c0,0-22.61,100.74-35.2,118.68s-25.18,65.25-33.48,71c0,0,45.6-50.76,79.18-53,0,0-79.18,71.24-84.14,92.86s-20,123.13,33,196.91c0,0,33.26,121.23,97.55,173.56a49.55,49.55,0,0,1,15.31,21.36L1090,1124.92a41.71,41.71,0,0,1,2.13,8.38l19,128.9c.91,6.16,14.55,148.75,17.37,154.3" transform="translate(-8.66 -63.59)"/>
        <path id="Courbe_Sol" data-name="Courbe Sol" class="cls-1" d="M1141.5,1481.5l6-33-3-30-45-6c-9.52-10.3-27,3.74-36.38-5.91-592.26-607.68-956,61.54-962.62,69.91l-40-24.83-49,19.83,8,42,21,22-1,41-15,33,4,44,38,15,6,49,58,26,21,16,35-14,38.34,16.07,28.49-11.07,46,13.83,13.37-13.83,15.83,9h112l44-44,11.5,22.83,23.5,8,20-13.83,50,18,27.17-12.17,7.83-19.83,50,15,16.77-9.17L728.5,1753l21-9.5,18,17,26,1.17,11.17-11.17,11.83,5,25-10,15,14,15.72-9,50.61,8.5,20.67-25.5,62,21,20-28,36-5,21-18,27-2v-40l33-30,3.5-42-11.5-23,8-32-10-14,17-18Z" transform="translate(-8.66 -63.59)"/>
        <g id="Head_Down" data-name="Head Down">
            <path class="cls-2" d="M417.5,1741.5c7.41-5.86,18.28-11.67,23.17-22.91,14-32.2,30.49-55.06,34.29-72.14a27.29,27.29,0,0,1,1.49-4.67c3.89-9.08-.34-31.7-4.06-37.33-4-6-21.92-6.71-21.92-6.71l-8-10.06-13.28-13.41s-7.3-7.37-14.61-11.4S373.44,1530,373.44,1530l5.31-15.43s-39.85-16.76-98.29-54.31-102.93-6-102.93-6a312,312,0,0,0-76,54.26,305.42,305.42,0,0,0-23,25l-18,30,14,52,68,14,11,43,54,23-1,38h47l29,11,45-11,54,17Z" transform="translate(-8.66 -63.59)"/>
            <path class="cls-2" d="M760.5,1733.5c-7.42-6.43-53.71-65-66-91.5-5.37-7.38-3.36-31.52.67-37.55s22.13-6.71,22.13-6.71l8-10.06,13.41-13.41s7.38-7.37,14.76-11.4S795.11,1530,795.11,1530l-5.36-15.43S830,1497.83,889,1460.28s96.76-10.44,103.94-6c83.37,51.24,117.41,86.55,103.57,78.26l-5,65.5-64,37.5,2,41-58,33-37-7-37,35.83-56-3.83-23-15-25,15.5Z" transform="translate(-8.66 -63.59)"/>
            <path class="cls-4" d="M250.39,1500.51l44.93,32.19s-39.56,46.27-46.94,51S246.37,1504.54,250.39,1500.51Z" transform="translate(-8.66 -63.59)"/>
            <path class="cls-4" d="M917.15,1500.51l-44.93,32.19s39.57,46.27,46.94,51S921.18,1504.54,917.15,1500.51Z" transform="translate(-8.66 -63.59)"/>
        </g>
    </g>
</svg>