<svg id="CONTENT"
    xmlns="http://www.w3.org/2000/svg" viewBox="0 0 1169.86 1770.45">
    <defs>
        <style>.cls-1{fill:#ffb731;}.cls-2{fill:none;stroke:#000;stroke-miterlimit:10;stroke-width:4px;}</style>
    </defs>
    <g id="PORTAIL">
        <polygon class="cls-1" points="530.9 10.72 392.77 36.89 274.82 68.72 177.44 105.52 111.67 140.94 55.49 179.56 25.14 206.49 5.34 233.58 2 249 2.74 320.89 2.74 350.54 2.74 430 123 430 139.97 416.45 139 371 144.68 369.81 138.78 352 136.77 352 140.49 333.23 161.28 302.41 210 256 248.67 229.02 301.39 200 340.77 182.89 413.27 157.65 476.15 140.44 538.95 126.89 548 125 551 157 629.5 158.11 632 129 695.88 142.69 755.56 158.11 805.01 175.61 857.86 197.16 904.59 221.16 948.04 250.44 983.71 279.78 1014 311.26 1032 337 1033.01 352.87 1030.03 354.32 1025.67 373.32 1031.33 373.32 1029.81 420.32 1045.37 432.32 1167.08 432.32 1167.08 374.32 1167.81 354.32 1167.54 245.56 1154.44 220 1128.5 193.53 1107 178 1083 160 1033.05 128.3 992 109 963.16 94.92 908.37 74.43 844.7 54.55 785.28 38.84 724.47 25.05 667.5 14.06 643 10 643.78 2 534 2 534 10.28 530.9 10.72"/>
        <polygon class="cls-2" points="534 2 643.78 2 629.5 158.11 550 158 534 2"/>
        <path class="cls-2" d="M1167.08,346.66" transform="translate(0 -11)"/>
        <path class="cls-2" d="M643,21s254.91,37.81,399.33,123.67c131.53,78.19,125.48,112.65,125.48,117.65v181H1045.37l-15.56-12,1-47" transform="translate(0 -11)"/>
        <path class="cls-2" d="M524.81,22.32" transform="translate(0 -11)"/>
        <path class="cls-2" d="M633,126s201.14,34.09,315.59,120C1052.81,324.26,1048,358.72,1048,363.72" transform="translate(0 -11)"/>
        <path class="cls-2" d="M534.19,124.69" transform="translate(0 -11)"/>
        <path class="cls-2" d="M632,140s194.77,32.62,305.12,113.31C1037.62,326.8,1033,359.17,1033,363.87" transform="translate(0 -11)"/>
        <polygon class="cls-2" points="1167.81 354.32 1030.03 354.32 1024.81 373.32 1167.81 373.32 1167.81 354.32"/>
        <line class="cls-2" x1="1046.81" y1="374.32" x2="1046.37" y2="432.32"/>
        <path class="cls-2" d="M2.74,344.33" transform="translate(0 -11)"/>
        <path class="cls-2" d="M536,21S271.9,56.49,127.48,142.34C-4,220.53,3,250,2,260V441H124.44L140,429l-1-47" transform="translate(0 -11)"/>
        <path class="cls-2" d="M645,20" transform="translate(0 -11)"/>
        <path class="cls-2" d="M544.89,122.16s-209.22,35.6-323.66,121.53C117,321.94,121.77,356.4,121.77,361.4" transform="translate(0 -11)"/>
        <path class="cls-2" d="M635.62,122.36" transform="translate(0 -11)"/>
        <path class="cls-2" d="M544.78,136.86S343,170.29,232.69,251C132.2,324.48,136.8,356.85,136.8,361.54" transform="translate(0 -11)"/>
        <polygon class="cls-2" points="2 352 139.79 352 145 371 2 371 2 352"/>
        <line class="cls-2" x1="123" y1="372" x2="123.44" y2="430"/>
    </g>
</svg>