<svg id="CONTENT" xmlns="http://www.w3.org/2000/svg" viewBox="0 0 1025.39 2069.3"><defs><style>.cls-1{fill:#d88d6d;}.cls-11,.cls-2{fill:none;}.cls-10,.cls-2,.cls-4,.cls-5{stroke:#000;}.cls-10,.cls-11,.cls-12,.cls-2,.cls-4,.cls-5{stroke-miterlimit:10;stroke-width:5px;}.cls-3{fill:#b93837;}.cls-4{fill:#f8b837;}.cls-6{fill:#a12c35;}.cls-7{fill:#821624;}.cls-8{fill:#c22434;}.cls-9{fill:#b91814;}.cls-10{fill:#fff;}.cls-11,.cls-12{stroke:#fff;}</style></defs><g id="MEDIUM"><g id="FLOWERDUST_MEDIUM"><g id="FLOWERDUST_MEDIUM-2" data-name="FLOWERDUST_MEDIUM"><rect x="0.08" y="0.03" width="1025" height="2069.27"/><g id="Chute"><polygon id="Fond" class="cls-1" points="353.13 0.03 340.87 1261.57 697.48 1266.15 684.29 0.03 353.13 0.03"/><line class="cls-2" x1="406.14" y1="0.03" x2="394.75" y2="1543.84"/><line class="cls-2" x1="654.06" y1="0.03" x2="670.71" y2="1543.84"/><line class="cls-2" x1="473.59" y1="0.03" x2="468.34" y2="1544.71"/><line class="cls-2" x1="505.13" y1="0.03" x2="494.62" y2="1543.84"/><line class="cls-2" x1="624.28" y1="0.03" x2="643.55" y2="1549.8"/><line class="cls-2" x1="381.61" y1="0.03" x2="367.5" y2="1548.51"/><line class="cls-2" x1="441.18" y1="0.03" x2="429.79" y2="1547.46"/><line class="cls-2" x1="540.17" y1="0.03" x2="534.92" y2="1545.42"/><line class="cls-2" x1="683.85" y1="0.03" x2="700.49" y2="1547.17"/><line class="cls-2" x1="601.5" y1="0.03" x2="611.14" y2="1546.29"/><line class="cls-2" x1="574.34" y1="0.03" x2="563.83" y2="1543.66"/><line class="cls-2" x1="352.7" y1="0.03" x2="337.71" y2="1551.14"/></g><g id="Nuage_Haut" data-name="Nuage Haut"><polygon id="FOND-2" data-name="FOND" class="cls-3" points="0.08 1407.87 1025.08 1400.86 1025.08 792 1018.29 790.31 1011.5 790.68 1003.61 795.13 996.61 802.07 993.98 810.83 993.1 821.35 986.97 821.35 979.96 822.22 972.95 824.85 965.05 829.67 960.81 835.93 960.93 844.26 966.29 850.14 968.29 853.72 961.56 859.89 955.84 867.36 954.52 877.12 957.67 884.69 962.85 891.76 958.06 894.93 943.6 898.91 932.65 903.7 926.52 915.09 925.64 929.1 928.13 940.39 930.9 946.62 928.27 953.63 927.39 962.68 929.15 972.9 927.39 973.78 915.06 972.26 902.87 972.9 889.84 976.91 882.56 984.25 878.34 994.81 875.59 1008.24 879.15 1026.11 866.95 1031.6 859.94 1041.24 857.24 1059.64 852.35 1059.64 839.79 1063.14 834.4 1068.38 828.78 1080.37 832.09 1097.9 827.84 1101.25 816.6 1107.82 810 1114.03 803 1106.94 792.34 1099.31 781.38 1094.53 767.08 1097.31 760.07 1101.69 748.86 1114.59 746.05 1127.09 744.25 1137.68 732.91 1142.86 722.4 1153.38 718.89 1163.01 718.02 1172.65 708.06 1174.84 695.24 1185.35 687.35 1178.78 675.09 1177.9 663.11 1178.29 653.63 1185.74 646.55 1203.38 646.18 1224.58 646.18 1270.04 348.27 1270.04 342.18 1232.22 338.68 1193.53 334.74 1174.46 323.35 1162.14 320.29 1156.17 314.46 1148.73 305.39 1144.61 304.82 1132.19 301.88 1120.96 292.91 1111.2 285.34 1107.42 288.8 1096.5 287.06 1087.65 282.61 1080.66 274.73 1073.65 265.09 1070.15 256.33 1071.03 248.44 1075.4 243.19 1080.66 237.06 1075.4 230.48 1070.15 218.22 1069.22 200.26 1072.78 197.81 1061.4 188.78 1052.53 176.17 1047.81 169.6 1044.96 169.69 1035.11 166.17 1018.54 159.36 1008.91 154.82 1003.26 166.53 992.62 173.54 979.48 174.16 967.72 168.28 957.57 155.22 956.14 145.67 956.14 145.07 952.02 142.88 935.67 133.33 923.07 125.36 919.9 112.84 918.76 100.81 921.22 99.07 898 92.06 883.11 81.55 877.85 66.66 876.1 57.02 865.59 48.26 862.08 48.3 850.99 43.01 841.93 33.37 838.43 31.62 832.3 26.3 818.41 14.97 811.27 0.08 807.77 0.08 1407.87"/><path class="cls-2" d="M1079.54,1131.56c-10.52-6-15.79-18-13.14-28.91,3.1-12.75,14.89-19.27,28.91-19.27h2.19" transform="translate(-72.42 -292.7)"/><path class="cls-2" d="M74.69,1701" transform="translate(-72.42 -292.7)"/><path class="cls-2" d="M95.72,1137.69c3-2.53,7.76-7.56,7.88-14,.2-10.44-9.64-23.66-28-23.66H72.5" transform="translate(-72.42 -292.7)"/><path class="cls-2" d="M102.72,1129.81c1.76.08,9.37.57,13.15,4.38,4.9,5,6.63,15.26,2.62,22.78" transform="translate(-72.42 -292.7)"/><path class="cls-2" d="M112.36,1163.1c.84-1.79,3-5.62,7-7,6.18-2.13,15.71,3,20.15,12.27" transform="translate(-72.42 -292.7)"/><path class="cls-2" d="M125.5,1187.63c.3-1.31,3.54-14.46,14.9-18.4a23.87,23.87,0,0,1,17.52,1.76c13.53,7.07,18.63,31,13.14,59.57" transform="translate(-72.42 -292.7)"/><path class="cls-2" d="M174.56,1213.91c2.22-.78,18.58-6.3,29.79.88,12.74,8.16,17.63,28.64,7.88,47.31" transform="translate(-72.42 -292.7)"/><path class="cls-2" d="M217.49,1249c9.19-1.93,21.81-.72,26.28,5.25,7,9.3-.89,23.29-3.3,27.58a42.08,42.08,0,0,1-15.1,15.35" transform="translate(-72.42 -292.7)"/><path class="cls-2" d="M203.47,1291c3.39,0,20.28.58,30.66,13.14,12.1,14.62,10.76,40-6.13,58.69" transform="translate(-72.42 -292.7)"/><path class="cls-2" d="M242,1339.19c12.37.46,26.46,8,29.79,18.4,4.29,13.39-4,29.87-20.15,35" transform="translate(-72.42 -292.7)"/><path class="cls-2" d="M273.56,1366.35c1.8-.8,19.51-9.6,30.66-3.51,12,6.56,17.82,23.74,11.39,40.3" transform="translate(-72.42 -292.7)"/><path class="cls-2" d="M316.49,1374.23c1.56-1.65,7-13.14,19.27-12.26,11.72.84,22.45,9,24.53,20.15,1.36,7.26-1.34,14.17-2.63,16.64" transform="translate(-72.42 -292.7)"/><path class="cls-2" d="M344.52,1399.64a27.48,27.48,0,0,1,16.64,1.75c11,5.11,17.69,19.21,16.65,34.17" transform="translate(-72.42 -292.7)"/><path class="cls-2" d="M356.78,1447a20.35,20.35,0,0,1,37.68,7.88" transform="translate(-72.42 -292.7)"/><path class="cls-2" d="M383.94,1465.34c7-10.09,12.12-9.75,13.14-9.63,7.36.85,13.78,14.93,14,35.92" transform="translate(-72.42 -292.7)"/><path class="cls-2" d="M1065.52,1114.92c-17.52-6.14-34.08,10.17-33.29,18.39.58,6,7.31,11.49,15.77,14" transform="translate(-72.42 -292.7)"/><path class="cls-2" d="M1041.87,1145.58c-1.14.9-15.77,10.51-14.89,21a28.73,28.73,0,0,0,8.29,17.86,27.47,27.47,0,0,0,12.73,6.67" transform="translate(-72.42 -292.7)"/><path class="cls-2" d="M1034,1185.88c11.44-.15-27.16,1.75-34.17,19.27a35.44,35.44,0,0,0,4.38,34.17" transform="translate(-72.42 -292.7)"/><path class="cls-2" d="M1014.71,1230.56c-9,4.93-14.79,14-14.89,23.65-.13,12.47,9.24,24.07,22.78,27.16" transform="translate(-72.42 -292.7)"/><path class="cls-2" d="M1004.2,1268.23c-2.2-.8-27-8.07-41.18.87-14,8.83-18.51,30.69-12.26,49.06" transform="translate(-72.42 -292.7)"/><path class="cls-2" d="M977.92,1324.3c-1.24-.94-13.14-9.62-27.16-5.26-12.17,3.79-23.66,17.52-20.15,33.29" transform="translate(-72.42 -292.7)"/><path class="cls-2" d="M944.63,1362a25.33,25.33,0,0,0-14-8.76c-9.43-2-20.77,1.8-26.28,11.39-4.48,7.77-4.11,19.35.87,27.15" transform="translate(-72.42 -292.7)"/><path class="cls-2" d="M935.87,1402.27c-1.16-1.13-13.5-12.82-30.67-9.64A35.17,35.17,0,0,0,878,1418" transform="translate(-72.42 -292.7)"/><path class="cls-2" d="M882.43,1405.77c-1-1.22-18-20.4-35-18.4s-31.68,19.75-30.66,42.06" transform="translate(-72.42 -292.7)"/><path class="cls-2" d="M790.44,1463.59c-1.75-15.77,10.9-30.39,23.65-33.29,8.51-1.93,15.89,1,19.28,2.63" transform="translate(-72.42 -292.7)"/><path class="cls-2" d="M808,1465.34a36.76,36.76,0,0,0-19.27-.87c-18.58,4.32-26.29,22.38-27.16,24.53" transform="translate(-72.42 -292.7)"/><path class="cls-2" d="M767.66,1477.61c-7-7.89-23.88-10.51-33.29-6.13-13.6,6.32-15.66,26.26-15.77,27.15" transform="translate(-72.42 -292.7)"/><path class="cls-2" d="M212.29,1574.55S224.77,1551.68,243,1538c15.78-11.86,35.84-16.77,55.74,6.3a143.21,143.21,0,0,1-2.5-24.32c-.33-22.41,8.06-52.06,36.06-28.38" transform="translate(-72.42 -292.7)"/><path class="cls-2" d="M1003.45,1499.66s-89.47-95,27.92-108.52" transform="translate(-72.42 -292.7)"/><path class="cls-2" d="M966.5,1540.36c23.1-66.06,81.24-34.82,81.24-34.82" transform="translate(-72.42 -292.7)"/><path class="cls-2" d="M1042.83,1432.78s-32-68.22,11.44-73.72" transform="translate(-72.42 -292.7)"/><path class="cls-2" d="M987.3,1558.85s-24.55-44.1-44.78-5.4" transform="translate(-72.42 -292.7)"/><path class="cls-2" d="M102.77,1302.53s19.49,9.35,32.14,23.18c11,12,16.79,27.42.19,43a114.93,114.93,0,0,1,19.24-2.21c17.91-.52,41.74,14.1,25.41,36" transform="translate(-72.42 -292.7)"/><path class="cls-2" d="M173.18,1323.61s-27.83-18.57-38.27,2.1" transform="translate(-72.42 -292.7)"/><path class="cls-2" d="M139.11,1433.27s-4.79,65.46,32.09,39.18" transform="translate(-72.42 -292.7)"/></g><g id="TOMBE"><polygon class="cls-4" points="806.06 1689.1 805.77 1245.55 253.64 1245.4 252.82 1689.97 806.06 1689.1"/><path class="cls-5" d="M844.75,1538.06c-7.78-32.17-23.63-28.47-24.77-28.2l-.17,0-19.87,2.91a8.78,8.78,0,0,1-2.61,0l-25.48-4.1s-34.91-1.67-35.86-3.82-28-6.46-28-6.46l-35.62.48L579.92,1496s-23.85.54-31.38-3.41-55.6-2.33-68-1.61-25.1,14.17-29.95,15.15c-3.47.71-10.6-.57-14.34-1.35a3.07,3.07,0,0,1-2.43-2.55,39.24,39.24,0,0,0-1.08-4.57,2.48,2.48,0,0,0-1.93-1.76l-4.24-.8s-5.74-3.31-6.82-3c-.7.17-3.73.58-5.76.84a2.68,2.68,0,0,1-2.57-1.15c-1.28-1.91-3.86-4.27-5.84-3.64-1.7.55-8.87,1.79-8.87,1.79l-12.82.84c-4.13-.54-8.07,2.57-10.94,4.9a16,16,0,0,0-4,4.67c-10.58,12.91-2.52,37.74-2.52,37.74Z" transform="translate(-72.42 -292.7)"/><path class="cls-2" d="M428.39,1524.7s13.63-8.35,25.11-4.61a3.19,3.19,0,0,0,1.86,0c3.93-1.19,18.92-5.37,30.05-3.83,12.91,1.8,55.59,10,65.64,9.33s44.29,1.08,44.29,1.08,16.5-4,30.12,12.19" transform="translate(-72.42 -292.7)"/></g><g id="Nuage_Bas" data-name="Nuage Bas"><g id="Nuage_Bas_Droit" data-name="Nuage Bas Droit"><polygon class="cls-6" points="1025.08 1610.24 1025.08 1778.45 1000.55 1770.57 999.23 1778.01 994.68 1789.83 983.94 1800.89 971.71 1806.05 970.32 1822.69 961.58 1833.11 943.17 1840.21 928.57 1837.42 923.02 1834.08 913.38 1839.34 902.58 1841.96 895.86 1840.72 892.97 1849.98 885.54 1859.65 875.8 1865.78 861.75 1866.77 851.85 1862.09 841.95 1854.77 831.03 1843.72 813.51 1799.04 810.88 1742.09 859.06 1704.42 937.03 1651.86 998.45 1608.39 1025.08 1610.24"/><path class="cls-2" d="M913.09,2146.05c1.13,2,14.38,12.57,23.65,14,11.44,1.78,27.77-8.28,31.54-25.41" transform="translate(-72.42 -292.7)"/><path class="cls-2" d="M957.77,2123.27c1,1.59,6.23,9.85,15.77,11.39,10.66,1.73,22.44-5.63,27.15-18.4" transform="translate(-72.42 -292.7)"/><path class="cls-2" d="M996.31,2126.78c10.52,10.51,33.81,5.72,42.06-5.26,7.32-9.75,7.72-23.46.87-34.17" transform="translate(-72.42 -292.7)"/><path class="cls-2" d="M1045.37,2098.74c3.1-.79,12.78-4.82,18.4-11.39,10.17-11.89,6.56-27.24,6.13-28.91" transform="translate(-72.42 -292.7)"/><path class="cls-2" d="M1095.31,1883.23" transform="translate(-72.42 -292.7)"/></g><g id="Nuage_Bas_Gauche" data-name="Nuage Bas Gauche"><polygon class="cls-7" points="0.08 1595.35 0.08 1779.33 11.69 1789.52 18.91 1791.22 24.51 1802.66 40.13 1815.23 54.79 1818.67 63.59 1817.43 71.48 1823.57 80.24 1827.95 96.35 1828.9 103.02 1841.09 116.34 1851.64 133.14 1858.74 151.25 1857.89 175.73 1849.85 189.75 1836.71 179.23 1693.91 83.74 1592.29 0.08 1595.35"/><path class="cls-2" d="M261.29,2130.28c-14,17.52-44.48,25.92-64,18.4-16.34-6.32-25.41-20.15-28-27.16" transform="translate(-72.42 -292.7)"/><path class="cls-2" d="M136.89,2109.25c.88,2.63,15.29,13.37,27.16,12.27a26.61,26.61,0,0,0,21.9-16.65" transform="translate(-72.42 -292.7)"/><path class="cls-2" d="M146.53,2095.24c-1.78,4.43-5.66,11.8-13.14,14.89-12.48,5.16-35.92-6.13-42-25.41" transform="translate(-72.42 -292.7)"/><path class="cls-2" d="M74.69,1878.41" transform="translate(-72.42 -292.7)"/><path class="cls-2" d="M109.73,2076c-.67.79-7.93,8.95-19.27,7.89a17.82,17.82,0,0,1-15.77-12.27" transform="translate(-72.42 -292.7)"/></g><g id="Nuage_Bas_Middle" data-name="Nuage Bas Middle"><path class="cls-8" d="M195.88,2008.51l-2.92,6.13-2.63,10.51v9.64l3.51,12.26,6.57,12.16,10.07,8,.34,3.69-2.3,18.47,4.54,13.63,8.48,11,11.18,5.2,13.43-1.77,8.53-4.1,7.32,14.87,11.9,9.86,12,4.23,3.84,2.06-.48,15.72,4.43,20.2,11.39,17.55,16.78,12.55,16.21,3.22,16-2.09,10-3.73,8.72,8.85,7.28,4.37,11,4.09,14.69.67,10.75-2.77,6-2.42,11.39,12.27s15.91,7.18,15.84,7.09,18.47,1.68,18.47,1.68l13-4.46L493,2240l13.44-2,9.85-7.32,5.19-6.74s16.06,5.15,16.35,5.2,18.61-1.13,18.61-1.13l15.35-5.65,7.2,14.29,13.45,10.94,15.59-1,11.56-6.93,7-9.13,8.79,2.67,11.78-.19,10.32-4.88,4.08-4.24,9.64,1.73,13.28-2.31,13.84-7.61,7.81,4.69,8.15,2,8.49-4.46,7.2,2.45,6.35,2,8.54-2,3-3.94s7.41,1.61,7.48,1.46,14.08-4.14,14.08-4.14l7.35-8.11,2.3-4.54,7.32,2.9L794,2207l14.77-1.76,11.68-7.79,5-5,7.89,4.38,9.24,2.87,17.11-.9,13.22-7.44,5.1-5,2-12.81.69-13,10.17-2.51,11.63-5.25,9.13-7.46,7.77-9.51,7.67-15.79,11.39,1.46,11.32-6,7.08-10.66.45-14.28-4-8.49,10.5-8.77,6.14-10.51,2.63-14.89v-11l-3.26-7.76-74.71-15.39-322.39,3.51-235.23-18.4Z" transform="translate(-72.42 -292.7)"/><path class="cls-2" d="M194.71,2008.51c-9.64,15.77-3.91,44.52,9.64,54.31,8.78,6.35,18.81,6.46,23.65,6.14" transform="translate(-72.42 -292.7)"/><path class="cls-2" d="M212.23,2068.08c-11.39,20.15,3.14,45.14,15.77,49.93,11.24,4.27,24.67-3.3,26.28-4.38" transform="translate(-72.42 -292.7)"/><path class="cls-2" d="M253.41,2099.62c-.22,3.23-.86,17.79,9.63,29.78,10,11.46,26.3,16.14,42.06,12.27" transform="translate(-72.42 -292.7)"/><path class="cls-2" d="M289.33,2144.3c-3.46,23.9,10,55.44,29.78,64.83,22.75,10.79,45.1-1.38,47.31-2.63" transform="translate(-72.42 -292.7)"/><path class="cls-2" d="M357.66,2184.6c.07,1.8,1.28,23.29,20.15,35a43.27,43.27,0,0,0,43.8.87" transform="translate(-72.42 -292.7)"/><path class="cls-2" d="M413.73,2191.6c1,20.92,13,39.07,30.66,46.44,16.91,7,32.68,1.57,36.8,0" transform="translate(-72.42 -292.7)"/><path class="cls-2" d="M463.66,2213.51c2.17,12.6,11.23,22.66,22.78,25.4,14.25,3.38,28.24-.56,34.17-15.77" transform="translate(-72.42 -292.7)"/><path class="cls-2" d="M498.71,2202.12c1.74,2.91,13.56,22,37.67,26.28,27.76,5,47.31-14,49.06-15.77" transform="translate(-72.42 -292.7)"/><path class="cls-2" d="M572.3,2224c.18,1,6,17.67,19.27,22.78,11.81,4.53,27.36-2.41,35-14.9" transform="translate(-72.42 -292.7)"/><path class="cls-2" d="M617,2217a25.78,25.78,0,0,0,11.39,14c8.67,4.85,27.15,3.5,31.53-6.13" transform="translate(-72.42 -292.7)"/><path class="cls-2" d="M647.64,2210c5.39,9.52,11.75,12.79,14.89,14,16.1,6.31,39.74-4.81,55.19-29.79" transform="translate(-72.42 -292.7)"/><path class="cls-2" d="M969.16,2028.66c7.13,14.07,4.5,35.24-6.14,45.55-8.81,8.55-21.93,11.51-34.16,7.89" transform="translate(-72.42 -292.7)"/><path class="cls-2" d="M953.39,2082.1c9.63,12.26,2.14,31.24-7.89,36.79-8.51,4.71-20,2.73-27.16-5.26" transform="translate(-72.42 -292.7)"/><path class="cls-2" d="M927.1,2121.52c-1,2.7-11.49,28.34-34.16,35.92-17.31,5.78-32.13-.11-35.92-1.75" transform="translate(-72.42 -292.7)"/><path class="cls-2" d="M880.67,2161.82c.14,2.31.68,21.38-8.76,30.66-9.79,9.63-33.29,10.51-45.55.88" transform="translate(-72.42 -292.7)"/><path class="cls-2" d="M829.86,2179.34c-2.92,13.92-13,24.62-25.4,27.16-11.15,2.27-21.08-3.69-23.66-5.26" transform="translate(-72.42 -292.7)"/><path class="cls-2" d="M781.68,2186.35c.27,14.77-7.46,27.12-18.4,30.66-7,2.27-13.5.34-16.65-.88" transform="translate(-72.42 -292.7)"/><path class="cls-2" d="M749.26,2200.37c3.14,9.83-1.55,19.38-8.76,21.9s-15.36-4-15.77-4.38" transform="translate(-72.42 -292.7)"/><path class="cls-2" d="M726.49,2209.13A14.38,14.38,0,0,1,716,2222.27c-5,1.29-12.17-2.17-15.77-6.14" transform="translate(-72.42 -292.7)"/></g><g id="Nuage_Center" data-name="Nuage Center"><path class="cls-9" d="M72.5,1546.38l11.83,1.31s7.88,0,7.88.88,8.76,6.13,8.76,6.13l7,8.76,1.75,5.26,11-6,10-1,9.64,1.75,9,5.26.58,7-3.36,7.88,6.87.88,7.88,3.5,7.52,8,2.11,10.22v7.8l14-.65,13.92.65,9.74,2.85L221.87,1630l3,20.84,6.56,7.7,4.47,8.55,10.17-4.9,17.42-5.08,13.76,2.24,15.11,9.14,10.17,11.86,6.08,15.12,11.6,2.33,12.94,7,8.75,11.46,10.93-3.78,13.67,2.12,7.84,6.18,6.6,13.29.95,6.9,9.65-1.16,16.07,3.9,3.14-12.16,8.89-15.6,5.68-4.33,13.17-2.37,12.71,1.88,10.87,5.1,11.28,11.47,2.59,5.72,9.24-1.32,12.93,2.78,12.24,9.55,4.14,7,12.8-.78,12.6,3,3.51,1.31,2.87-10.9,6.06-6.39,10.16-4.2,8.62-.25L581,1737l7.41,7.84,1.48,2.91,8.06-3.84,12.65-3,7.21.92,8.8,6.48L631,1759.7l-.84,9-2.46,8.31,8.15,4.67,6.27,7,7-5.63,8-2.73,4.36,1.92,5.64-7.72,7.65-3.49,7.85-.2,6.43-9.61,6.27-9,7.6-5.29,8.1-2.44,6.54.14,1.78-14.49,6.26-7.2,7.93-5.58,11.29-1.5,7.56,2.36,6.41,5.31,6.86,10.16,2,1.51,5.77-2.69,9.76-2.37,9.86,3.28,8.55,5.15,6.36,4.52,7.94-8,10.49-4.29,9-.1L847.3,1733l4.47-12.27,8.75-12.7,13.14-7,3.17-1.16-4-12-2.73-19.68,3.6-8.36,5.61-6.7,7.31-1.43,8.11,2,9.1,3.94,9.31-14.44,11.38-7.9,8.76-2.63,9.3.87,9.59,5.08,6.23,6.08,6.42-15.53,7.94-9.86,8.95-6.94,11.36-2.3,11.2,3.89,3.47,2.94,5.37-4.45,7.77-4.31,5.84.65h3.07l3.4-8.64,6.09-6.9,11.83-1.66,5.54.86,2.29-7.49,5.31-8.79,5.26-1.76,6.13-4.38,11.39-1.75,10.51-1.75V1930.1h-4.38l-18.84-4.82-4.79,2.42-.46,9.84-4,6.11-7.77,5.32-10.16,2.59-2.63,1.75.62,12.61-9.23,14.29-13.42,8.13L999,1991.4l-.22,16.4-8.62,13.85-21,7-7.44-.62-1.45,10.13-7.69,8.69-13,2.84L928,2047.05l-6.13-4.13-13,12.92-22.18,7.22-15.09-.58,2.59,13.05-2.12,11-6.85,7.51-12.41,2-16.23-3.49-7.56-4.32-6.14,6.13-12.26,3.51-8.93-1.13-10.35,8.09-10.72,4.07-19.8,3.13-13.52-2.7-10.27-4.5-4.41,5.16-12.24,7.15-14.2.43-7.45-2-11.34,12.68L673,2135.44l-17,1.3-13.16-7.43-8.41-9.49-4-7.77-11.63,7.72-14,2.32-11.9-2.27-6.56,4.58-16.49.44-11.09-6.67-7.12,6.18L538,2133.19l-19.09.59L505.51,2123l-11.8-16.79-12.57,5.05-9.15-.45-9.2-3.3-5.65,6.18-9.54,5.8L433,2122.09l-15.22-5-12.51-9.74L396,2096.11,384.82,2104,362,2109.25l-19-4.18-21.28-11.58-8.06-10.41-3-5.36-12.94,4.07-12.64-1.55-10.75-7.88-6.93-13-.94-5.7-13.79-3L236.76,2040l-10.42-20.13-1.61-7.27-13.84-.32-17.54-7.15L182.29,1994l-6-13.31-1.58-12.5L157,1960.32l-4.38-4.38-10.51,5.26-17.52-1.75-13.14-9.64-6.14-13.14-1.75-13.14,1.75-14-13.58,9.2H72.5V1546.38Z" transform="translate(-72.42 -292.7)"/><path class="cls-2" d="M1055.89,1593.25c-1.65-.6-8.72-2.88-13.68-.82-6.44,2.68-12.53,9.86-11.73,18.34" transform="translate(-72.42 -292.7)"/><path class="cls-2" d="M1008.58,1615.15c7.67-6.83,17.07-8.22,21.95-3.86,3.19,2.84,3.68,7.19,3.76,9.17" transform="translate(-72.42 -292.7)"/><path class="cls-2" d="M1012.7,1638c.23-1.32,2.32-14.71-6.64-22.72a23.87,23.87,0,0,0-16.84-5.14c-15.22,1.31-29.17,21.46-35.11,49.89" transform="translate(-72.42 -292.7)"/><path class="cls-2" d="M957.77,1643.19c-1.75-1.58-14.9-14-28.29-10.53-14.63,3.81-27.31,19.62-25.52,40.6" transform="translate(-72.42 -292.7)"/><path class="cls-2" d="M904.33,1659c-6.14-7.89-20-8.93-26.43-5.14-10,5.9-8.16,21.83-7.59,26.71a42,42,0,0,0,8,20" transform="translate(-72.42 -292.7)"/><path class="cls-2" d="M900.89,1703.31c-3.14-1.27-18.93-7.29-33.36.3-16.8,8.82-25.34,32.71-17,56.51" transform="translate(-72.42 -292.7)"/><path class="cls-2" d="M846.51,1733.42c-11.39-6.13-27.29-3.32-34.35,5-9.13,10.69-7.81,29.11,5.07,40.1" transform="translate(-72.42 -292.7)"/><path class="cls-2" d="M808,1743.93c-1.35-1.43-15.09-14.53-27.73-13.21-13.6,1.42-25.6,15-26.06,32.79" transform="translate(-72.42 -292.7)"/><path class="cls-2" d="M766.78,1736.05c-.8-2.13-7.1-14.69-15.31-18.31-10.76-4.72-24.21-.31-30.41,9.13-4.06,6.18-3.57,13.41-3.34,16.19" transform="translate(-72.42 -292.7)"/><path class="cls-2" d="M728.85,1749.12a27.53,27.53,0,0,0-16-4.81c-12.12.47-23.57,10.83-28.39,25" transform="translate(-72.42 -292.7)"/><path class="cls-2" d="M699.28,1788a20.34,20.34,0,0,0-37.79-7.26" transform="translate(-72.42 -292.7)"/><path class="cls-2" d="M667.13,1794.53c-2.53-12-7.41-13.67-8.4-14-7.12-2-18.47,8.46-26.79,27.73" transform="translate(-72.42 -292.7)"/><path class="cls-2" d="M1059.45,1603.44c-3.53-7.88-2.49-13.62-1.87-16,3.23-12.24,17.58-20.5,37.73-20.5h2.19" transform="translate(-72.42 -292.7)"/><path class="cls-2" d="M106.25,1589.25a27.62,27.62,0,0,0-1.59-31.71c-7.25-9.25-16.83-11.6-29.09-11.6H72.5" transform="translate(-72.42 -292.7)"/><path class="cls-2" d="M110.61,1568.72c12.26-12.26,35.41-7.28,38.48.39,2.22,5.56-1.23,13.55-7.58,19.69" transform="translate(-72.42 -292.7)"/><path class="cls-2" d="M147.4,1583.61c1.43.28,16.65-.87,21.63,12.66a31.13,31.13,0,0,1,.82,19.67,27.58,27.58,0,0,1-8.25,11.78" transform="translate(-72.42 -292.7)"/><path class="cls-2" d="M170.18,1614.28c1.2-.49,26.95-5.66,40.67,3.78,10,6.9,15.53,21.52,13.65,33.89" transform="translate(-72.42 -292.7)"/><path class="cls-2" d="M209.27,1647.47c10.25.26,19.56,5.63,24.09,14.19,5.82,11,2.83,25.62-7.78,34.58" transform="translate(-72.42 -292.7)"/><path class="cls-2" d="M235.89,1668.59c1.59-1.71,20.15-14.89,37-10.58,16,4.09,32.84,19.43,35.72,38.62" transform="translate(-72.42 -292.7)"/><path class="cls-2" d="M285,1713.88c.67-1.4,7.26-14.57,21.72-17.13,12.55-2.22,29.94,6,35.2,20" transform="translate(-72.42 -292.7)"/><path class="cls-2" d="M331.83,1732.08a25.37,25.37,0,0,1,8.44-14.22c7.46-6.1,19.28-7.92,28.58-1.93,7.54,4.85,13.31,15.28,12.46,24.5" transform="translate(-72.42 -292.7)"/><path class="cls-2" d="M358.11,1763.87c.5-1.54,6.11-17.58,22.82-22.63a35.16,35.16,0,0,1,35.79,10.11" transform="translate(-72.42 -292.7)"/><path class="cls-2" d="M476.43,1733.34c-9.32-20.29-29.77-26.48-46.53-23.3-17,3.23-22,31.46-22.3,33" transform="translate(-72.42 -292.7)"/><path class="cls-2" d="M514.48,1750.94c-7.1-14.5-22.65-21.31-35.31-18-8.45,2.18-13.66,8.17-15.92,11.18" transform="translate(-72.42 -292.7)"/><path class="cls-2" d="M500.7,1761.23a36.73,36.73,0,0,1,16.72-9.62c18.49-4.68,33.62,7.83,35.39,9.34" transform="translate(-72.42 -292.7)"/><path class="cls-2" d="M543.39,1753.57c.87-14.89,14.93-21.19,25.51-20.65a24.46,24.46,0,0,1,22.67,20.65" transform="translate(-72.42 -292.7)"/><path class="cls-2" d="M591.57,1747.44c7.86-5.65,21.51-9,28.91-4.38,9.6,5.91,13.34,21.6,7,33.29" transform="translate(-72.42 -292.7)"/><path class="cls-2" d="M608.22,1782.48c8.69-6.91,19.31-7.58,25.4-2.63,3.62,2.94,8.32,7.21,8.76,9.64" transform="translate(-72.42 -292.7)"/><path class="cls-2" d="M231,1825.79s-13.64-22.21-32.48-34.92c-16.36-11-36.65-14.92-55.35,9.13a143,143,0,0,0,1.26-24.41c-.81-22.4-21.58-48.85-48.34-23.78" transform="translate(-72.42 -292.7)"/><path class="cls-2" d="M198.05,1742.8s26.18,30.57.44,48.07" transform="translate(-72.42 -292.7)"/><path class="cls-2" d="M351.05,1968.83s-82.46,19.67-81.28-43.81" transform="translate(-72.42 -292.7)"/><path class="cls-2" d="M275.28,1947.33S213,1971.54,219,1927" transform="translate(-72.42 -292.7)"/><path class="cls-2" d="M311.59,1915.77s-49.67,37-83.52-26.92" transform="translate(-72.42 -292.7)"/><path class="cls-2" d="M519.87,1870.71c-45.29,75.53-75.83,2.51-75.83,2.51s2.84,27.21-10.19,23.23" transform="translate(-72.42 -292.7)"/><path class="cls-2" d="M509.4,1842.19s5.8,58,34.2,19" transform="translate(-72.42 -292.7)"/><path class="cls-2" d="M651.14,1936.78c14.94-12.91,34.62-19.17,56.05,2.47a142.81,142.81,0,0,1-4.16-24.08c-1.86-22.34,15.61-51.07,45.17-29.36" transform="translate(-72.42 -292.7)"/><path class="cls-2" d="M623.05,1975.32s10.9-23.68,28.09-38.54" transform="translate(-72.42 -292.7)"/><path class="cls-2" d="M645.86,1889s-22.35,33.47,5.28,47.78" transform="translate(-72.42 -292.7)"/><path class="cls-2" d="M978.82,1919.77s-83.58-14.11-78.16,49.15" transform="translate(-72.42 -292.7)"/><path class="cls-2" d="M904.66,1946.29s-63.76-20-54.81,24.08" transform="translate(-72.42 -292.7)"/><path class="cls-2" d="M943,1975.35s-52-33.64-81.54,32.45" transform="translate(-72.42 -292.7)"/><path class="cls-2" d="M951.91,1780c25.9,83.87,72.8,20.44,72.8,20.44s-9.21,25.67,4.35,24.91" transform="translate(-72.42 -292.7)"/><path class="cls-2" d="M968.81,1754.85s-19.39,54.79-37.61,10.26" transform="translate(-72.42 -292.7)"/><path class="cls-2" d="M106.23,1909.51c-5.75,21.66,3.93,45.77,18.4,50.81,12,4.19,24.77-2.89,27.15-4.38" transform="translate(-72.42 -292.7)"/><path class="cls-2" d="M146.53,1937.54c.23,2.15,2.08,17.32,14.89,25.41a33.64,33.64,0,0,0,29.79,2.63" transform="translate(-72.42 -292.7)"/><path class="cls-2" d="M173.69,1968.21c.54,4.2,2.79,21.74,14,32.41,15.92,15.14,36.63,12.65,39.43,12.27" transform="translate(-72.42 -292.7)"/><path class="cls-2" d="M225.37,1998.87c-3,19.48,4.91,38.46,20.15,48.18,15.65,10,32.54,6.11,35.92,5.26" transform="translate(-72.42 -292.7)"/><path class="cls-2" d="M267.43,2054.94c.27,1.74,2.53,17.35,14,23.65,11,6,25.92,3.42,35.92-7" transform="translate(-72.42 -292.7)"/><path class="cls-2" d="M311.23,2078.59c12.26,26.28,52.24,37.29,73.59,25.41,15.58-8.68,24.73-27.34,23.65-47.31" transform="translate(-72.42 -292.7)"/><path class="cls-2" d="M397.08,2096.11c7.89,14,20.12,23.45,34.17,25.41a33.4,33.4,0,0,0,31.54-14" transform="translate(-72.42 -292.7)"/><path class="cls-2" d="M450.52,2091.73c3.59,10.42,12.43,17.93,22.78,19.28a24.31,24.31,0,0,0,20.15-6.14" transform="translate(-72.42 -292.7)"/><path class="cls-2" d="M485.57,2077.72c4,35.54,26.32,57.92,45.55,56.94,11.52-.59,22.22-11.23,27.16-17.52" transform="translate(-72.42 -292.7)"/><path class="cls-2" d="M554.78,2095.24c-.27,1-3.4,14.31,5.25,23.65,8,8.6,22.53,9.32,34.17,1.75" transform="translate(-72.42 -292.7)"/><path class="cls-2" d="M581.93,2112.76a34.28,34.28,0,0,0,16.65,8.76c14.67,2.85,30.75-5.15,41.17-20.15" transform="translate(-72.42 -292.7)"/><path class="cls-2" d="M629.24,2113.63c1.29,2.65,10.74,17.78,25.41,21.91,16,4.48,34.68-3.8,44.68-21" transform="translate(-72.42 -292.7)"/><path class="cls-2" d="M685.31,2100.49A29.17,29.17,0,0,0,709,2118c16,1.71,27.53-11.6,28-12.26" transform="translate(-72.42 -292.7)"/><path class="cls-2" d="M721.23,2085.6c2.78,5.62,8.52,14.92,19.27,21,17.77,10.09,41.75,5.47,61.33-8.76" transform="translate(-72.42 -292.7)"/><path class="cls-2" d="M791.31,2083.85c.49,1.39,4.16,11.37,13.15,14,10,2.94,23.14-4.19,28-18.4" transform="translate(-72.42 -292.7)"/><path class="cls-2" d="M829.86,2089.1c11.78,7.72,30.6,9.16,37.67,3.51,9.36-7.48,10.31-29.75-7-46.43" transform="translate(-72.42 -292.7)"/><path class="cls-2" d="M872.79,2062.82c1,.38,23.32,3.15,38.55-8.76a35.54,35.54,0,0,0,13.14-33.29" transform="translate(-72.42 -292.7)"/><path class="cls-2" d="M921.85,2043.55c7.15,7.85,26.57,8.23,34.16.88a19,19,0,0,0,0-27.16" transform="translate(-72.42 -292.7)"/><path class="cls-2" d="M963,2027.78c2.09.28,17.44,1.75,27.16-7s12.42-24.09,6.13-37.67" transform="translate(-72.42 -292.7)"/><path class="cls-2" d="M999.82,1991c18,2.51,37-6.66,42.93-20.15,4.67-10.72,1.22-21.26,0-24.53" transform="translate(-72.42 -292.7)"/><path class="cls-2" d="M1044.5,1951.56c10.18.58,21.72-5.87,24.53-14,2.59-7.51-1-14.38-1.75-15.76" transform="translate(-72.42 -292.7)"/></g></g><g id="TETE"><path class="cls-5" d="M463.57,927.21c-.09-2.07-1.1-4.21-1.55-6.25-4.18-18.68-21.9-109.16,2.24-144.46,0,0,113.13-166.33,253-5.92,4.13,4.74,10.14,21.21,10.72,27.48,2.48,26.4,8.26,88.22-1.28,119.08-.19.61-.36,1.21-.51,1.84-2.49,10.55-26.19,108.82-49.89,130.78,0,0-70.3,66.76-157.34,6.82a33.81,33.81,0,0,1-11.5-13.54C496.41,1019.52,464.64,950,463.57,927.21Z" transform="translate(-72.42 -292.7)"/><path id="Oeil_Gauche" data-name="Oeil Gauche" class="cls-10" d="M529.72,771.41l-26.61,47.9,54.72-14.83S552.66,776.49,529.72,771.41Z" transform="translate(-72.42 -292.7)"/><path id="Oeil_Gauche-2" data-name="Oeil Gauche" class="cls-10" d="M654.34,769.56l28.88,46.56-55.36-12.18S631.68,775.74,654.34,769.56Z" transform="translate(-72.42 -292.7)"/></g><g id="JONCTION_UNE" data-name="JONCTION UNE"><path class="cls-11" d="M781.1,1028.31" transform="translate(-72.42 -292.7)"/><path class="cls-12" d="M1095.31,1356.27" transform="translate(-72.42 -292.7)"/><path class="cls-12" d="M1095.31,983.07" transform="translate(-72.42 -292.7)"/></g><path class="cls-2" d="M1066.36,2052.14a23.64,23.64,0,0,0,8.16,10.62c9.12,6.93,20.46,7.2,22.32,7.22h.66" transform="translate(-72.42 -292.7)"/><path class="cls-2" d="M112.8,1902.06a36.9,36.9,0,0,1-7.59,9c-11.44,9.69-21.76,9.86-26.14,9.86H72.5" transform="translate(-72.42 -292.7)"/><path class="cls-2" d="M1061.58,1917c4.14,4,13.23,11.49,26.23,12.68a37.79,37.79,0,0,0,7.06,0l2.63-.13" transform="translate(-72.42 -292.7)"/></g></g></g></svg>