<?xml version="1.0" standalone="no"?>
<!DOCTYPE svg PUBLIC "-//W3C//DTD SVG 20010904//EN"
 "http://www.w3.org/TR/2001/REC-SVG-20010904/DTD/svg10.dtd">
<svg version="1.0" xmlns="http://www.w3.org/2000/svg"
 width="1655.000000pt" height="1655.000000pt" viewBox="0 0 1655.000000 1655.000000"
 preserveAspectRatio="xMidYMid meet">
<metadata>
Created by potrace 1.14, written by Peter Selinger 2001-2017
</metadata>
<g transform="translate(0.000000,1655.000000) scale(0.100000,-0.100000)"
fill="#000000" stroke="none">
<path d="M1150 9050 l0 -7500 28 0 c15 -1 633 -1 1375 -1 l1347 0 1 -52 c0
-29 1 -158 2 -287 l2 -235 4553 -1 4552 -1 0 201 c-1 111 -1 240 0 288 l0 87
1138 0 c625 0 1163 0 1195 1 l57 0 0 7500 0 7500 -7125 0 -7125 0 0 -7500z"/>
</g>
</svg>
