<svg id="CONTENT" xmlns="http://www.w3.org/2000/svg" viewBox="0 0 1171.03 951.58"><defs><style>.cls-1{fill:#c22434;}.cls-2{fill:none;stroke:#000;stroke-miterlimit:10;stroke-width:5px;}</style></defs><g id="JUNCTION_THREE"><g id="Nuage_Bas" data-name="Nuage Bas"><path id="FOND" class="cls-1" d="M0,1166.35,15,1169l14,12,8.5,9.67L44,1180l13-11,16.33-2.65L90,1170l7-16,14-13,15-6,11,3,5.33,6,8.67-7,10-3,11.67.77,8.83,4.73,5.5-9.5,7-10,13-2.62,6-11.38,9-7,7.83-3.62L243,1098l10,9,4,9h6l11-8,15.56-3.15L301,1108l12,9,5,13,2,9,12-3.14,10.51.64L353,1140l8,8,2.51,14.17,10.66,1.33L385,1167l7-14,13.17-12.57,11.5-4.57L435,1137l7.5,3.67L449,1130l12.5-8.56,11.33-2.08,15.74,5.14L503,1138l2.5,6,12.5-6,10-3,13,.86,16.16,7.16,14.08,15.48L580,1147l13-7,18,1,13,13,4,8,9-6h12l15,6,9.27,13.5,3.23,9,13.33-5.13,1.67-15.21L698,1154l13.83-5.17,3.17-4.33v-19l7.5-12,15.5-5.82h12.86L766,1113l11.5,8.67L790,1111l15.33-3.32,16.17,2,8,4.8L845,1106l16.17-2.5,10.33,2.09L876,1084l12-12,12.5-2.57L912,1073l7.5,2.5L931,1062l13.17-6,12.83,0,18,11.89,6,12.11,19-5,15,3,18,17,16.83-21.84,18.57-3.84,14.74,4.8L1097,1088l2,3,8.5-1.61L1121,1094l5.28,8,9.72-11,13-5,15-2h6v870h-13.2s-20.8-4-21.8-4-29-15-29-15l-15.5-15.5-10-19-3.21-26.24-11.79-.76-11-4-10.42-15.85-2.25-1.1-6.33,5-8,4-11.33-2-9.34-8.44-4.33-12.36-10-.21-12-4-6.83-9-10.17,6-9,5-12-2-4.08-1.92-8.92,9.92-20.17,10-13.83-1-19-7-10-13-7.66-18.84-10.34-2.16-6.39-11-.61-11,5-12-12-4-12.63-16.7-11.37,2.7-13-4-3.28,9.09-3.72,10.91-9,8-12.72,1.5-12.28-3.5-7-4-1,9-7.22,7.27h-9.39l-1.39,12.73-11,10-14.06,3.9-10.11-1.73,1.15,8.77-3,5.06-10-1-.72,7.77-4.28,8.23-9,6-13.5-5.06-6.5,6.06-8,7-11,3-13-3-11-8-6-13-10.06,5.58H580.22l-9.72-4.58-8-6-14,1.39-6,11.61-10,11-9,6-13.72,2.62-19.28-4.62-12,8-15,6-16,2-15-7-7-11.67-1.5-13.27-8.5-2.06-8-9-1.5-8.39,2-8.61H395.89l-12.39-5-9-9-9-12-9,5h-10l-5-6-2-7h-11l-9.92-3.75-7.08-14.25-9.42,2.12-8.58-4.12-7-13-.39-9.67-11.61,3.67h-7l-6,11-12,9-12.5.08-13.5-3.08-5-2-5,13-12,12-13,2-15-2-12-7-10-9-8-17-7,4-10.25.9-8.75-5.9-8.33-15.7-8.34-.92L89.5,1727.5l-3.5-3.7-6.5,3.7-10,5-14-1-11-7-9-11L30,1694.56l-.5-11.06-8,4-11.17,3L0,1690Z" transform="translate(0.03 -1052.79)"/><path class="cls-1" d="M325,1784a52.67,52.67,0,0,1-6,17c-2.48,4.39-4.57,8.09-9,11-4.93,3.24-9.94,3.66-14,4a41.07,41.07,0,0,1-13-1l-3.3,10.92-8.81,10.75-8.39,3.21-12.45-1.54-8.66-4.42-5.72,13.64-9.32,11-15.58,7.51-20.16,1-20.14-7.71-4.47-3.67-2.14,8.91-5.08,9.84-8.57,6.48-11.25.37-11.2-5.6L118,1888l-9.66,8.68-15.67,4.37L83,1902l8,8,3,20-1,14.23L84,1964l-12.43,15.6-18.15,12.08-20.88,7.5L0,2001.87V1670.74L322,1712Z" transform="translate(0.03 -1052.79)"/><g id="Tracé"><path class="cls-2" d="M258.5,1124.5c-.63-13.52-8.34-24.69-19-28a23.82,23.82,0,0,0-17,1c-12.69,6-14,21.34-14,22" transform="translate(0.03 -1052.79)"/><path class="cls-2" d="M258.5,1117.5c1.57-1.17,20-18,39-11,16.88,6.22,28,28.47,21,52" transform="translate(0.03 -1052.79)"/><path class="cls-2" d="M321.5,1138.5c10-6,26.76-3.81,34,3,8.2,7.71,8.05,20.26,8,22" transform="translate(0.03 -1052.79)"/><path class="cls-2" d="M346.5,1175.5c7.19-9.15,18.31-13.83,29-12,10.29,1.76,16.34,8.89,18,11" transform="translate(0.03 -1052.79)"/><path class="cls-2" d="M386.5,1165.5c1-2.27,8.63-22.94,25-28,13.89-4.29,29.4,0,40,11" transform="translate(0.03 -1052.79)"/><path class="cls-2" d="M442.5,1139.5c1.35-2,11.63-18.53,26-20,14.65-1.5,30.62,9.11,37,25" transform="translate(0.03 -1052.79)"/><path class="cls-2" d="M491.5,1166.5c6.65-17.49,21-30.33,37-32,23.11-2.41,48.53,18.56,51,50" transform="translate(0.03 -1052.79)"/><path class="cls-2" d="M572,1158.64c6-14.46,20.64-22.19,33.85-18.91,10.41,2.59,18.64,11.71,21.15,23.27" transform="translate(0.03 -1052.79)"/><path class="cls-2" d="M619.5,1179.5a26,26,0,0,1,17-23c13.16-4.76,24.7,4.2,27,6,8.63,6.72,12.25,18.86,13,22" transform="translate(0.03 -1052.79)"/><path class="cls-2" d="M660.5,1209.5c.2-1,4.54-21.06,24-28a37.44,37.44,0,0,1,38,8" transform="translate(0.03 -1052.79)"/><path class="cls-2" d="M721.5,1211.5c-1.93-18.16,6.54-34.37,20-40,1.26-.53,16.84-6.74,29,3,8.89,7.12,9.85,17.87,10,20" transform="translate(0.03 -1052.79)"/><path class="cls-2" d="M769.5,1198.5c10.91-8,25.34-8.76,36-2,12.84,8.15,18,25.78,11,41" transform="translate(0.03 -1052.79)"/><path class="cls-2" d="M819,1211.5c16.31-8.31,35.85-6.9,48.18,3s12.38,24.58,12.32,27" transform="translate(0.03 -1052.79)"/><path class="cls-2" d="M873,1219.5c4-2.36,19.56-11,38.89-8,23.66,3.66,44.7,22.32,43.6,43-.74,14.11-11.49,23.84-15.32,27" transform="translate(0.03 -1052.79)"/><path class="cls-2" d="M1034.5,1213.5" transform="translate(0.03 -1052.79)"/><path class="cls-2" d="M228.5,1124.5c-14.46-9.61-30.49-9-38-1-1.32,1.41-7,8-9,16" transform="translate(0.03 -1052.79)"/><path class="cls-2" d="M191.5,1157.5a27.44,27.44,0,0,0-19-23c-11.48-3.46-21-2-29,9" transform="translate(0.03 -1052.79)"/><path class="cls-2" d="M145.5,1175.5c8.24-17.55-.34-36-13-40-11.86-3.78-24.93,8.12-28,11-18,16.83-16.45,42.5-16,48" transform="translate(0.03 -1052.79)"/><path class="cls-2" d="M1097.5,1090.5a34.59,34.59,0,0,0-29-21c-14.3-1-29,10.38-35,24" transform="translate(0.03 -1052.79)"/><path class="cls-2" d="M1037.5,1106.5c-4.53-21.47-24-34.86-42-32-13.51,2.14-25,13.25-29,28" transform="translate(0.03 -1052.79)"/><path class="cls-2" d="M980.5,1080.5c-3.31-12.81-15.06-23.34-28-25-13.57-1.74-26.92,7.51-33,20" transform="translate(0.03 -1052.79)"/><path class="cls-2" d="M929.5,1085.5c-10.87-15.06-29.9-19.43-43-12-14,8-15,29.9-15,31" transform="translate(0.03 -1052.79)"/><path class="cls-2" d="M893.5,1122.5c-1-1.49-12.76-18.7-34-19-15.94-.22-30.8,9.17-38,24" transform="translate(0.03 -1052.79)"/><path class="cls-2" d="M829.5,1114.5c-6-6-22.69-10.22-34-6-19.89,7.42-23.84,30-24,31" transform="translate(0.03 -1052.79)"/><path class="cls-2" d="M777.5,1123.5c-9-18-41-19.61-53-10-9.08,7.27-12.22,22.68-10,35" transform="translate(0.03 -1052.79)"/><path class="cls-2" d="M725.5,1150.5c-12.13-3.4-23.57-1.72-30,6-5,6-4,19.9-4,23" transform="translate(0.03 -1052.79)"/><path class="cls-2" d="M304.5,1392.5c12-39.7,49.16-60.85,79-53,30.29,8,41.32,42.76,42,45" transform="translate(0.03 -1052.79)"/><path class="cls-2" d="M417,1363.5c12.26-7.56,28.3-8.3,40.1-2,14.61,7.8,20.39,25.18,11.79,40" transform="translate(0.03 -1052.79)"/><path class="cls-2" d="M318.5,1410.61c-4.13-16.06-19.65-24.46-32-20-9.81,3.51-16.74,14.79-16,27.44" transform="translate(0.03 -1052.79)"/><path class="cls-2" d="M473,1389.5c16.13-10.6,37.45-8.2,46.66,2,6.43,7.12,6.7,17.75,1.2,27" transform="translate(0.03 -1052.79)"/><path class="cls-2" d="M293.5,1429.5c-9.1-10.11-23.09-13.2-34-8-11.8,5.62-14.67,18.39-15,20" transform="translate(0.03 -1052.79)"/><path class="cls-2" d="M526,1406.5c15.85-6.31,33.34.73,38.37,13,4,9.77-.26,21.94-11,29" transform="translate(0.03 -1052.79)"/><path class="cls-2" d="M274,1397.5c-17.3-12.2-42.75-13.64-60.75-4-15.3,8.19-22.95,23.15-19.39,38" transform="translate(0.03 -1052.79)"/><path class="cls-2" d="M193.49,1419.5c-16.62,8.41-24.48,23.8-19.66,38,5.32,15.68,25,26.75,47.17,26" transform="translate(0.03 -1052.79)"/><path class="cls-2" d="M198,1481c-8.64,42.1,8.47,76.72,25.42,79.77,12.48,2.25,27.24-12.17,35.59-34.68" transform="translate(0.03 -1052.79)"/><path class="cls-2" d="M247.5,1547.5c5.34,11.55,16.95,18.7,29,18,14-.81,26.05-12.09,28-27" transform="translate(0.03 -1052.79)"/><path class="cls-2" d="M301,1554.09c24.09,12.66,49.08,5.31,54.65-6.35,4.21-8.81-1.69-22.15-14.38-31.74" transform="translate(0.03 -1052.79)"/><path class="cls-2" d="M354.5,1551.5c1,.88,16.88,14.1,37,8a39.35,39.35,0,0,0,27-30" transform="translate(0.03 -1052.79)"/><path class="cls-2" d="M411,1545.37c2.93,10.48,12.53,17.28,22.64,16.1,10.28-1.21,18.35-10.35,18.86-21.47" transform="translate(0.03 -1052.79)"/><path class="cls-2" d="M446.5,1519.5a18.92,18.92,0,0,0,35,14" transform="translate(0.03 -1052.79)"/><path class="cls-2" d="M540,1444c12.23.28,20.17,8.67,18.43,15.52-1.4,5.51-9.09,10.19-18.43,10" transform="translate(0.03 -1052.79)"/><path class="cls-2" d="M531.5,1459.5a13.6,13.6,0,0,1-8,26" transform="translate(0.03 -1052.79)"/><path class="cls-2" d="M509.5,1472.5c11.16,2.55,17.39,14.21,14,24-3.16,9.13-13.95,14.52-24,11" transform="translate(0.03 -1052.79)"/><path class="cls-2" d="M505.32,1508c2.81,9.13,3.33,19.24,0,24.78-4.8,8-18.45,7.89-29.32-7.75" transform="translate(0.03 -1052.79)"/><path class="cls-2" d="M89.5,1169.5c-17-11-44.93,2.31-51,19-5.27,14.47.33,31.6,14,41" transform="translate(0.03 -1052.79)"/><path class="cls-2" d="M37.5,1192.5C37,1190.73,28.34,1173.36,11,1168a37.12,37.12,0,0,0-10.45-1.62H0" transform="translate(0.03 -1052.79)"/><path class="cls-2" d="M232.5,1560.5c-.19,2-1.63,15-13,23-9.47,6.7-22.19,7.43-33,2" transform="translate(0.03 -1052.79)"/><path class="cls-2" d="M200,1588c-.27,1.53-4.17,21.94-20.54,29.73-16.86,8-31.11-4.86-32-5.66" transform="translate(0.03 -1052.79)"/><path class="cls-2" d="M148.5,1588.5c3,16.92-4.05,32.48-16,38-11,5.1-22.73,0-25-1-13-5.69-18-17.45-19-20" transform="translate(0.03 -1052.79)"/><path class="cls-2" d="M97,1620c-2.64,18.31-12.51,32.77-25.14,36.86C55.6,1662.13,43.19,1647.48,42,1646" transform="translate(0.03 -1052.79)"/><path class="cls-2" d="M48.8,1651c-.45,3.4-3.12,21-17.72,31.27-8.8,6.15-17.33,8.31-21.58,8.25H0" transform="translate(0.03 -1052.79)"/><path class="cls-2" d="M198,1409c-12.34-19.67-30.95-26.67-41.35-21-1.45.79-7.17,4.28-9.65,15.36" transform="translate(0.03 -1052.79)"/><path class="cls-2" d="M157.5,1386.5c-4-21-40-35.75-52.09-32-8.18,2.53-13.57,13.81-14.15,15a33.22,33.22,0,0,0-3.26,13" transform="translate(0.03 -1052.79)"/><path class="cls-2" d="M111.5,1409c-10.28-22.32-28.8-32.35-43-26.24-10,4.33-15.22,15.58-17,20" transform="translate(0.03 -1052.79)"/><path class="cls-2" d="M61.5,1418.5a18.43,18.43,0,0,0-20-16,18.46,18.46,0,0,0-16,21" transform="translate(0.03 -1052.79)"/><path class="cls-2" d="M29,1409c-3-4.49-10.19-14-21.52-16.58a26.85,26.85,0,0,0-5.57-.68l-1.91,0" transform="translate(0.03 -1052.79)"/><path class="cls-2" d="M30.4,1682c-3,26,10.94,47,27.8,50.41,13.3,2.69,25-6.3,27.8-8.61" transform="translate(0.03 -1052.79)"/><path class="cls-2" d="M84.5,1708.5a23.2,23.2,0,0,0,33,25" transform="translate(0.03 -1052.79)"/><path class="cls-2" d="M109.5,1737c.25,1.54,2.17,12.23,10.81,17.84,7,4.54,15.73,4,22.69-1.28" transform="translate(0.03 -1052.79)"/><path class="cls-2" d="M142.5,1740c-.07,2.42-.39,25.61,18.34,39,11.87,8.51,32.87,14.11,46.37,3.17C216.06,1775,217.63,1764,218,1760" transform="translate(0.03 -1052.79)"/><path class="cls-2" d="M201,1741.44a41.53,41.53,0,0,0,20.18,21.09c4.26,2,19.29,9.37,32.79,1.24,9.72-5.84,15-17.5,13.88-29.77" transform="translate(0.03 -1052.79)"/><path class="cls-2" d="M1097.75,1845.41c-.42,15-12.72,27.19-25.75,28.69-12.81,1.48-21.7-8.14-22.37-8.9-7.52-8.51-5.36-18.7-5-20.44" transform="translate(0.03 -1052.79)"/><path class="cls-2" d="M1044.5,1850.5c-7.37,10.4-20.41,13.82-30,9-10.62-5.34-11.93-18.23-12-19" transform="translate(0.03 -1052.79)"/><path class="cls-2" d="M1012.5,1832.68c-3.45,3-9.93,7.58-17.94,7.31-13.62-.46-27.15-14.71-29.56-35.49" transform="translate(0.03 -1052.79)"/><path class="cls-2" d="M980.5,1799.5" transform="translate(0.03 -1052.79)"/><path class="cls-2" d="M972,1824.5c-7,11.34-19,15.44-28.39,10.51-10.63-5.54-12.94-19.83-13.11-21" transform="translate(0.03 -1052.79)"/><path class="cls-2" d="M938.42,1833.14c-9.25,12.79-24.28,20.37-39.45,19.31-20.2-1.41-37.69-17.92-40.13-39.83" transform="translate(0.03 -1052.79)"/><path class="cls-2" d="M873.5,1812.38c-14.68,5.25-28.65-2.08-32-12.89-3.21-10.36,4.33-20.61,5-21.49" transform="translate(0.03 -1052.79)"/><path class="cls-2" d="M859.5,1776.5a30.77,30.77,0,0,1-30-8c-11.28-11.49-8.25-26.84-8-28" transform="translate(0.03 -1052.79)"/><path class="cls-2" d="M821.87,1755.8a20.46,20.46,0,0,1-23.26-.18c-9-6.18-13.18-18.64-11.21-28.84a24.7,24.7,0,0,1,5.45-11.32" transform="translate(0.03 -1052.79)"/><path class="cls-2" d="M801.5,1720.5a22.34,22.34,0,0,1-6-43" transform="translate(0.03 -1052.79)"/><path class="cls-2" d="M805.44,1688.5c-11.34-11.18-14.57-29-8.25-43,7.26-16.11,25.71-24,42.31-17" transform="translate(0.03 -1052.79)"/><path class="cls-2" d="M813.5,1628.5c-11.64-12.82-8.72-32.12,3-40,10.11-6.79,25.88-4.49,35,7" transform="translate(0.03 -1052.79)"/><path class="cls-2" d="M841,1587.18c9.33-11.93,24.07-18.15,38.55-16,17.29,2.51,31.45,16.45,34.75,34.62" transform="translate(0.03 -1052.79)"/><path class="cls-2" d="M899.55,1581c-1.6-11.25,1.47-22.5,9.22-28.06,11.76-8.43,34.77-4.09,47.23,15.72" transform="translate(0.03 -1052.79)"/><path class="cls-2" d="M954.5,1582.5c-1.91-18,6.68-31.87,17-34,6-1.24,11.64,1.69,15,4" transform="translate(0.03 -1052.79)"/><path class="cls-2" d="M981.5,1548.5c.63-8.9,6.64-21.48,15-24a21.4,21.4,0,0,1,24,9" transform="translate(0.03 -1052.79)"/><path class="cls-2" d="M1018,1529c1.48-13.68,9.55-25,20.61-28.78,14.22-4.86,31.29,3.44,38.85,20.41" transform="translate(0.03 -1052.79)"/><path class="cls-2" d="M1058.66,1501c-3-14.22,4.46-26.16,14-30.29,11.67-5,26.3,10.81,26.84,11.36" transform="translate(0.03 -1052.79)"/><path class="cls-2" d="M1095.5,1494.5c-1.41-12.39,6.5-22.21,15-23s14.63,7.5,15,8" transform="translate(0.03 -1052.79)"/><path class="cls-2" d="M1121.5,1474.5c-.06-1.56,4.91-27.72,22.29-39a36.1,36.1,0,0,1,19.3-5.61H1170" transform="translate(0.03 -1052.79)"/><path class="cls-2" d="M267.5,1745.5c19.37.57,31.91-12.68,31-23-.63-7.16-7.82-13.78-17-17" transform="translate(0.03 -1052.79)"/><path class="cls-2" d="M299.5,1722.5c37,5,61.3-22.61,62-41,.52-13.47-9.61-23.81-13-27" transform="translate(0.03 -1052.79)"/><path class="cls-2" d="M362.5,1674.5c25-7,25.27-32.8,19-41-4.84-6.33-15.85-8.58-26-4" transform="translate(0.03 -1052.79)"/><path class="cls-2" d="M381.5,1657.5c12.51,13.21,45.08,9.35,54-1,6.61-7.67,7.23-20.39,1-31" transform="translate(0.03 -1052.79)"/><path class="cls-2" d="M440.5,1631.5c21.89-5.09,40.05-24.29,39-42.49-.9-15.38-12.89-29.21-30.42-35" transform="translate(0.03 -1052.79)"/><path class="cls-2" d="M286.66,1741.54c-2.39,11.87,3.18,22.94,11,26.08,9.69,3.88,24.3-3.78,27.06-19.53" transform="translate(0.03 -1052.79)"/><path class="cls-2" d="M312,1767.5c.76,7.87,5.64,14.61,12.49,17,9.36,3.27,21.45-1.93,26-13" transform="translate(0.03 -1052.79)"/><path class="cls-2" d="M341.09,1782.5c-3.65,7.23,2.4,14.37,9.87,15.37,6.11.82,13.46-2.42,16-8.14" transform="translate(0.03 -1052.79)"/><path class="cls-2" d="M365.5,1775.5a38.82,38.82,0,0,0,4,23c5.62,10.58,17.44,20.14,32,20,12.81-.12,21.53-7.69,24-10" transform="translate(0.03 -1052.79)"/><path class="cls-2" d="M408,1818.5c-5.51,12.19.93,24.9,10.65,27.83,7,2.12,15.72-.9,21.32-7.59" transform="translate(0.03 -1052.79)"/><path class="cls-2" d="M424,1848c-.06,13.56,5,20,6.95,22.09,11.28,12.38,37.12,11.54,60.55-7.36" transform="translate(0.03 -1052.79)"/><path class="cls-2" d="M467.5,1826c1.17,20.28,15.47,37,34,40.48,20.09,3.73,40.53-9,47-30.1" transform="translate(0.03 -1052.79)"/><path class="cls-2" d="M535.5,1815.5c2.64,13.91,13.21,22.2,22,21,6.79-.92,11-7.29,12-9" transform="translate(0.03 -1052.79)"/><path class="cls-2" d="M563.5,1835.5c9.33,9.52,23,12.13,33,7,13-6.71,18.83-26.19,9-42" transform="translate(0.03 -1052.79)"/><path class="cls-2" d="M602,1839.5c2.14,10.92,9.85,19.74,19.89,22.55,12.91,3.61,27.73-3.27,34.11-16.91" transform="translate(0.03 -1052.79)"/><path class="cls-2" d="M648.12,1825c-1.45,15.77,10.18,27.26,20.29,26.5,7.65-.58,15.16-8.22,17.09-18.77" transform="translate(0.03 -1052.79)"/><path class="cls-2" d="M673.5,1827.5c8.55,5.06,17.56,5.65,21,2,4.06-4.31,2.28-16.58-9-26" transform="translate(0.03 -1052.79)"/><path class="cls-2" d="M695.5,1817.5c16.88,6.17,33.36-3.57,36-16,2-9.19-3.6-20.11-14-26" transform="translate(0.03 -1052.79)"/><path class="cls-2" d="M732,1792.5c9.15,1.65,17.65-4.34,18.49-12,.77-6.9-4.83-13.74-13-15" transform="translate(0.03 -1052.79)"/><path class="cls-2" d="M750.5,1776.3c16.47,11.82,33.56,9.4,41.06-3C793,1771,796.07,1765,796,1754" transform="translate(0.03 -1052.79)"/><path class="cls-2" d="M471,1570.4c13.9-10,33.56-10.89,47.36-2.6,11.34,6.82,17.21,18.92,15.28,31.2" transform="translate(0.03 -1052.79)"/><path class="cls-2" d="M529,1575.5c19.12-7.35,40.61,1.07,46.27,15,5.82,14.36-5.95,32.66-27.29,36" transform="translate(0.03 -1052.79)"/><path class="cls-2" d="M576,1593c1.14-12.8,9.31-23.37,20-26.33,13.11-3.62,27.91,4.75,33,20.06" transform="translate(0.03 -1052.79)"/><path class="cls-2" d="M617.5,1604.5c1.31-11.84,11-20.28,21-20,7.57.21,14.62,5.35,18,13" transform="translate(0.03 -1052.79)"/><path class="cls-2" d="M636.07,1640.56c-1.26-22.58,14.62-42.58,37.42-48.6,24.93-6.59,56.53,4,63.23,24.3,5.46,16.59-8.19,31.92-10.32,34.24" transform="translate(0.03 -1052.79)"/><path class="cls-2" d="M736,1635.23c8.09-4.83,17.89-4.49,23.21,0,7,5.92,7,19.7-4.1,27.77" transform="translate(0.03 -1052.79)"/><path class="cls-2" d="M764,1645.38c6.41-8.31,15.27-10.67,22.14-6.09,5.81,3.87,8.19,11.36,8.86,13.71" transform="translate(0.03 -1052.79)"/><path class="cls-2" d="M692.5,1438.5c9.32,9.28,13.58,22,10,32-5.24,14.69-27.51,24.24-49,14" transform="translate(0.03 -1052.79)"/><path class="cls-2" d="M703.5,1467.5c1.08.81,8.86,6.41,19,4,11.34-2.7,15.62-13,16-14" transform="translate(0.03 -1052.79)"/><path class="cls-2" d="M699.5,1410.5c2.61,14.11-4.75,27.88-17,33-10.22,4.27-22.4,1.91-31-6" transform="translate(0.03 -1052.79)"/><path class="cls-2" d="M847.5,1412.5c22.15,9.07,30.3,34.32,21,51-7.42,13.31-25.49,20.36-43,15" transform="translate(0.03 -1052.79)"/><path class="cls-2" d="M870.5,1437.5c10.61-9.21,25.25-7.15,31,1,4.09,5.79,3.69,14.68-1,22" transform="translate(0.03 -1052.79)"/><path class="cls-2" d="M527.5,1290.5c-2.1,13.38,5.13,25.94,16,30,13.34,5,30.55-3.44,35-20" transform="translate(0.03 -1052.79)"/><path class="cls-2" d="M572.5,1314.5c1.12.49,11.13,4.7,18,0,7.6-5.2,9.74-20.21,0-33" transform="translate(0.03 -1052.79)"/><path class="cls-2" d="M543.5,1277.5c-6.86,12.4-20.78,16-29,11-5.47-3.35-8.34-10.51-8-18" transform="translate(0.03 -1052.79)"/><path class="cls-2" d="M1123.31,1655.19c.41-2.78,4.67-29.06,24.87-37.13a32.63,32.63,0,0,1,11.83-2.29h10" transform="translate(0.03 -1052.79)"/><path class="cls-2" d="M1135.5,1670.5a22.67,22.67,0,0,0-18-17c-11.4-1.9-19.37,6.33-20,7" transform="translate(0.03 -1052.79)"/><path class="cls-2" d="M1137,1625.49c-3.42-13.14-14.53-21.47-25.23-20.58-9.83.82-15.71,9.13-16.66,10.51" transform="translate(0.03 -1052.79)"/><path class="cls-2" d="M1163.5,1790.5c-5.11-10.38-16.86-15.33-27-12-8.66,2.85-14.77,11.29-15,21" transform="translate(0.03 -1052.79)"/><path class="cls-2" d="M1141.29,1776.63c-5.62-7.23-4.62-17.08,2.14-24.09,7.94-8.24,19.88-8.45,20.94-8.45H1170" transform="translate(0.03 -1052.79)"/><path class="cls-2" d="M514,1732.86a20.72,20.72,0,0,1,25.36-3.19c7.85,4.81,10.83,14.32,6.91,22.33" transform="translate(0.03 -1052.79)"/><path class="cls-2" d="M543.5,1731.5a22.52,22.52,0,0,1,23-6c10.1,3.29,13.61,12.87,14,14" transform="translate(0.03 -1052.79)"/><path class="cls-2" d="M520.5,1748.5a24.45,24.45,0,0,0-47-7" transform="translate(0.03 -1052.79)"/><path class="cls-2" d="M180.5,1297.5a17,17,0,1,0,34-2" transform="translate(0.03 -1052.79)"/><path class="cls-2" d="M198.5,1272.5c1.29,12.5,10.33,22.64,22,25a28,28,0,0,0,27-10" transform="translate(0.03 -1052.79)"/><path class="cls-2" d="M237.5,1296.5c.43.83,6.87,12.81,20,14,10.88,1,21.64-5.88,26-17" transform="translate(0.03 -1052.79)"/><path class="cls-2" d="M597.5,1765.5c17.07,18.53,40.23,19.74,50,10,8.48-8.46,5.46-23.79,5-26" transform="translate(0.03 -1052.79)"/><path class="cls-2" d="M23.86,1560.42c8,9,10.23,20.38,5.69,27.78-5.27,8.59-22,9.3-26,9.3H0" transform="translate(0.03 -1052.79)"/><path class="cls-2" d="M6.3,1546.6c.9,1.56,7.67,12.91,20.83,14.81,12.38,1.78,25.26-5.54,31.26-18.31" transform="translate(0.03 -1052.79)"/><path class="cls-2" d="M14.75,1316.64a16,16,0,0,0,1.38-21.28c-5.22-6.67-14-7-14.71-7H0" transform="translate(0.03 -1052.79)"/><path class="cls-2" d="M21,1305a12.79,12.79,0,0,1,8.82,22.41" transform="translate(0.03 -1052.79)"/><path class="cls-2" d="M912.5,1273.5c15.55-1.64,29,5.85,33,17,2.75,7.69.24,15-1,18" transform="translate(0.03 -1052.79)"/><path class="cls-2" d="M947,1301.5c19-1.47,34.79,8.13,37.43,20,2.6,11.66-8.5,21-9.66,22" transform="translate(0.03 -1052.79)"/><path class="cls-2" d="M985,1327.49c8.2-6,20.7-5.93,28.48,0,7.32,5.57,8.7,15,3,22" transform="translate(0.03 -1052.79)"/><path class="cls-2" d="M1020.5,1339.09c8.5-7.8,20.26-8.56,28.62-2.2,10.31,7.84,9.91,22.28,9.87,23.11" transform="translate(0.03 -1052.79)"/><path class="cls-2" d="M1046.5,1360.5c10-2.89,20.24,1.72,24,10,2.88,6.33,1.66,14.11-3,20" transform="translate(0.03 -1052.79)"/><path class="cls-2" d="M1048.5,1385.53a21.58,21.58,0,0,1,25,19.64c.51,9.13-5.55,18.48-15,21.83" transform="translate(0.03 -1052.79)"/><path class="cls-2" d="M1025.5,1420.53c24.86-1.72,45.31,10.54,51,29.68a44.69,44.69,0,0,1,1,19.79" transform="translate(0.03 -1052.79)"/><path class="cls-2" d="M1149.06,1369.06a21.37,21.37,0,0,0,19.51,32l1.43,0" transform="translate(0.03 -1052.79)"/><path class="cls-2" d="M1151,1391.53c-3,7.33-9.21,12.37-16.1,13-8.88.76-17.62-6-20.4-16.49" transform="translate(0.03 -1052.79)"/><path class="cls-2" d="M1136.5,1224.5c-4.17-9.64-.79-20.56,6.44-28.62,9.35-10.42,22.94-10.6,24.81-10.61H1170" transform="translate(0.03 -1052.79)"/><path class="cls-2" d="M1142.5,1241.5c1.5-10.19-5.53-19.56-15-21-8.57-1.31-17.28,4.15-20,13" transform="translate(0.03 -1052.79)"/><path class="cls-2" d="M1110.5,1225.5c-7.54-9-20.14-13.38-30.87-9.85-12,4-20.07,16.09-19.12,29.35" transform="translate(0.03 -1052.79)"/><path class="cls-2" d="M717.5,1594.5a23.34,23.34,0,0,1,42-5" transform="translate(0.03 -1052.79)"/><path class="cls-2" d="M734.5,1578c-.27-1-6.46-21.73-21-24.41-11.67-2.14-19.82,9-21,10.68" transform="translate(0.03 -1052.79)"/><path class="cls-2" d="M1120.5,1120.5c1.52-15.09,10.29-27.88,23-33,10-4,19-4,25-4h1.5" transform="translate(0.03 -1052.79)"/><path class="cls-2" d="M1083.5,1097.5c14.06-9.1,28.88-10.69,37-4,1.63,1.35,4.56,5.49,6,9" transform="translate(0.03 -1052.79)"/><path class="cls-2" d="M1075.77,1874.82a76.35,76.35,0,0,0,21.38,52.37c24.77,25.81,58.92,27,64.58,27H1170" transform="translate(0.03 -1052.79)"/><path class="cls-2" d="M324.5,1784.5c-.89,16-11.4,29-25,32a33.76,33.76,0,0,1-27-7" transform="translate(0.03 -1052.79)"/><path class="cls-2" d="M284.5,1815.5c-.94,2.83-7.05,17.94-15,22-10.7,5.46-26,1.44-36-11" transform="translate(0.03 -1052.79)"/><path class="cls-2" d="M240.34,1835.18c-1.13,5.1-4.32,15.74-14,23.41-18.16,14.4-50.23,11.23-63.8-6.77-7-9.28-7.17-20-6.84-25.31" transform="translate(0.03 -1052.79)"/><path class="cls-2" d="M166,1855c-.49,3.87-2.13,13.68-8,20.42-8,9.19-20.63,8.9-31-1.46" transform="translate(0.03 -1052.79)"/><path class="cls-2" d="M131.5,1855.5c.6,16.62-7.42,32-21,40-14.72,8.62-29.85,4.86-33,4" transform="translate(0.03 -1052.79)"/><path class="cls-2" d="M83.64,1899.64c15.07,19.9,14.32,47-1.86,68.82-23,31.06-63.28,33-65.41,33.41H0" transform="translate(0.03 -1052.79)"/></g></g></g></svg>