<svg id="CONTENT" xmlns="http://www.w3.org/2000/svg" viewBox="0 0 1026.22 834.27"><defs><style>.cls-1{fill:#c22434;}.cls-2{fill:none;stroke:#000;stroke-miterlimit:10;stroke-width:5px;}</style></defs><g id="MEDIUM"><g id="CLOUDSFALL_MEDIUM"><g id="JUNCTION_CLOUDSFALL_MEDIUM"><g id="JUNCTION_CLOUDSFALL_BOTTOM_MEDIUM"><path id="FOND" class="cls-1" d="M72.5,1269.9l13.14,2.32,12.27,10.51,7.44,8.47,5.7-9.34,11.39-9.64,14.31-2.32,14.6,3.19,6.13-14,12.26-11.39,13.14-5.26,9.64,2.63,4.67,5.25,7.6-6.13,8.76-2.62,10.22.67,7.74,4.14,4.81-8.32,6.14-8.76,11.39-2.3,5.25-10,7.89-6.14,6.86-3.17,11.53,2.3,8.77,7.88,3.5,7.89h5.26l9.63-7,13.64-2.76,10,2.76,10.51,7.88,4.38,11.39,1.75,7.89,10.51-2.75,9.21.56,9.19,3.06,7,7,2.2,12.41,9.34,1.17,9.49,3.07,6.13-12.27,11.54-11,10.07-4,16.06,1,6.57,3.22,5.69-9.35,11-7.5,9.92-1.82,13.79,4.5,12.64,11.83,2.19,5.25,10.95-5.25,8.76-2.63,11.39.76,14.16,6.27L572.94,1263l7.68-10.07,11.39-6.14,15.77.88,11.39,11.39,3.5,7,7.89-5.26h10.51l13.14,5.26,8.12,11.82,2.83,7.89,11.68-4.5L678.3,1268l5.7-8.9,12.11-4.53,2.78-3.79v-16.65l6.57-10.51,13.58-5.1h11.27l13.26,4.66,10.07,7.59,11-9.34L778,1218.5l14.16,1.77,7,4.2,13.58-7.44,14.16-2.2,9,1.84,4-18.92,10.51-10.51L861.4,1185l10.07,3.13,6.57,2.19,10.08-11.83,11.53-5.29,11.25,0,15.77,10.42,5.25,10.61,16.65-4.38,13.14,2.63,15.77,14.89,14.75-19.14,16.26-3.36,12.92,4.21,12.14,12.16,1.75,2.63,7.45-1.41,11.82,4,4.63,7,8.51-9.63,11.39-4.38,13.14-1.76h5.26v762.18h-11.57s-18.22-3.5-19.09-3.5-25.41-13.14-25.41-13.14l-13.58-13.58-8.76-16.65-2.81-23-10.33-.66-9.64-3.51L987.18,1872l-2-1-5.55,4.34-7,3.51-9.93-1.75-8.18-7.39-3.79-10.83-8.76-.18-10.51-3.47-6-7.89-8.91,5.22-7.88,4.38-10.52-1.75-3.57-1.68-7.81,8.69-17.67,8.8-12.12-.91L840.37,1864l-8.76-11.39-6.71-16.51-9.06-1.88-5.59-9.64-.54-9.64,4.38-10.51-10.51-3.5-11.06-14.64-10,2.37-11.39-3.5-2.87,8-3.26,9.56-7.88,7L746,1811l-10.75-3.07-6.14-3.5-.87,7.88-6.33,6.38h-8.23l-1.21,11.15-9.64,8.76L690.52,1842l-8.86-1.52,1,7.69-2.62,4.42-8.76-.87-.63,6.8-3.75,7.22L659,1871l-11.83-4.43-5.69,5.31-7,6.13-9.64,2.63L613.47,1878l-9.63-7-5.26-11.39-8.81,4.89h-9l-8.51-4-7-5.26L553,1856.46l-5.25,10.17-8.76,9.64-7.89,5.25-12,2.3-16.89-4-10.51,7L478.56,1892l-14,1.75-13.14-6.13-6.13-10.23L444,1865.81l-7.44-1.81-7-7.88-1.32-7.35,1.78-7.54H419.33l-10.86-4.39-7.88-7.88-7.89-10.51-7.88,4.38h-8.76l-4.38-5.26-1.75-6.13h-9.64l-8.69-3.29-6.2-12.48-8.25,1.86-7.52-3.61-6.14-11.39-.34-8.47L313,1777.27h-6.13l-5.26,9.64-10.51,7.88-10.95.08-11.83-2.7-4.38-1.76-4.38,11.39L249,1812.31l-11.39,1.76-13.14-1.76L214,1806.18l-8.77-7.88-7-14.9-6.14,3.51-9,.79-7.66-5.17-7.3-13.76-7.31-.8-9.92-6.47-3.07-3.24-5.69,3.24-8.76,4.38-12.27-.87-9.63-6.14-7.89-9.63-4.82-16.6-.44-9.68-7,3.5-9.79,2.63-9-.44Z" transform="translate(-72.47 -1170.1)"/><path class="cls-1" d="M357.22,1811a46.18,46.18,0,0,1-5.25,14.89c-2.18,3.85-4,7.09-7.89,9.64-4.32,2.84-8.71,3.21-12.26,3.5a35.89,35.89,0,0,1-11.39-.87l-2.9,9.57-7.71,9.41-7.35,2.82-10.91-1.36-7.58-3.87-5,12-8.17,9.67-13.64,6.58-17.66.86L221.84,1877l-3.91-3.22-1.88,7.81-4.45,8.62-7.51,5.68-9.85.32-9.81-4.91-8.55,10.77-8.47,7.6-13.73,3.84-8.47.83,7,7,2.63,17.52-.83,12.47-7.93,17.31-10.89,13.67-15.9,10.58L101,1999.51l-28.51,2.36V1711.78l282.09,36.14Z" transform="translate(-72.47 -1170.1)"/><g id="Tracé"><path class="cls-2" d="M299,1233.23c-.55-11.84-7.3-21.62-16.64-24.53a21,21,0,0,0-14.89.88c-11.12,5.24-12.23,18.7-12.27,19.27" transform="translate(-72.47 -1170.1)"/><path class="cls-2" d="M299,1227.1c1.37-1,17.53-15.77,34.17-9.64,14.79,5.45,24.54,25,18.4,45.56" transform="translate(-72.47 -1170.1)"/><path class="cls-2" d="M354.16,1245.5c8.76-5.26,23.44-3.34,29.78,2.63,7.18,6.75,7.06,17.75,7,19.27" transform="translate(-72.47 -1170.1)"/><path class="cls-2" d="M376.06,1277.91c6.29-8,16-12.11,25.4-10.51a26.16,26.16,0,0,1,15.77,9.64" transform="translate(-72.47 -1170.1)"/><path class="cls-2" d="M411.1,1269.15c.86-2,7.56-20.1,21.9-24.53,12.17-3.75,25.76,0,35,9.64" transform="translate(-72.47 -1170.1)"/><path class="cls-2" d="M460.16,1246.37c1.19-1.71,10.19-16.23,22.78-17.52,12.84-1.31,26.82,8,32.41,21.91" transform="translate(-72.47 -1170.1)"/><path class="cls-2" d="M503.09,1270c5.82-15.32,18.37-26.57,32.41-28,20.25-2.1,42.51,16.26,44.68,43.81" transform="translate(-72.47 -1170.1)"/><path class="cls-2" d="M573.61,1263.14c5.23-12.66,18.08-19.44,29.65-16.56,9.12,2.27,16.34,10.26,18.53,20.38" transform="translate(-72.47 -1170.1)"/><path class="cls-2" d="M615.22,1281.42a22.75,22.75,0,0,1,14.9-20.15c11.52-4.17,21.63,3.68,23.65,5.25,7.56,5.9,10.73,16.53,11.39,19.28" transform="translate(-72.47 -1170.1)"/><path class="cls-2" d="M651.14,1307.7c.18-.87,4-18.45,21-24.53a32.78,32.78,0,0,1,33.29,7" transform="translate(-72.47 -1170.1)"/><path class="cls-2" d="M704.58,1309.45c-1.69-15.91,5.74-30.11,17.52-35,1.11-.46,14.75-5.91,25.41,2.63,7.79,6.23,8.63,15.66,8.76,17.52" transform="translate(-72.47 -1170.1)"/><path class="cls-2" d="M746.63,1298.06c9.57-7,22.21-7.68,31.54-1.75,11.25,7.14,15.78,22.59,9.64,35.92" transform="translate(-72.47 -1170.1)"/><path class="cls-2" d="M790,1309.45c14.29-7.28,31.41-6,42.2,2.63s10.85,21.53,10.8,23.65" transform="translate(-72.47 -1170.1)"/><path class="cls-2" d="M837.31,1316.46c3.49-2.06,17.14-9.62,34.07-7,20.72,3.2,39.16,19.55,38.2,37.67-.66,12.36-10.07,20.88-13.42,23.66" transform="translate(-72.47 -1170.1)"/><path class="cls-2" d="M978.79,1311.2" transform="translate(-72.47 -1170.1)"/><path class="cls-2" d="M272.68,1233.23c-12.66-8.41-26.71-7.93-33.29-.87-1.15,1.24-6.13,7-7.88,14" transform="translate(-72.47 -1170.1)"/><path class="cls-2" d="M240.27,1262.14A24.06,24.06,0,0,0,223.62,1242c-10.06-3-18.4-1.75-25.4,7.89" transform="translate(-72.47 -1170.1)"/><path class="cls-2" d="M200,1277.91c7.22-15.37-.3-31.51-11.39-35-10.39-3.31-21.84,7.12-24.53,9.64-15.74,14.74-14.41,37.23-14,42" transform="translate(-72.47 -1170.1)"/><path class="cls-2" d="M1034,1203.45a30.29,30.29,0,0,0-25.41-18.4c-12.53-.9-25.43,9.09-30.66,21" transform="translate(-72.47 -1170.1)"/><path class="cls-2" d="M981.42,1217.46c-4-18.81-21-30.53-36.79-28-11.84,1.88-21.88,11.61-25.41,24.53" transform="translate(-72.47 -1170.1)"/><path class="cls-2" d="M931.49,1194.69c-2.9-11.22-13.19-20.45-24.53-21.91-11.89-1.52-23.59,6.59-28.92,17.53" transform="translate(-72.47 -1170.1)"/><path class="cls-2" d="M886.81,1199.07c-9.53-13.2-26.2-17-37.68-10.52-12.3,7-13.1,26.2-13.14,27.16" transform="translate(-72.47 -1170.1)"/><path class="cls-2" d="M855.27,1231.48c-.86-1.3-11.18-16.38-29.79-16.64a36.75,36.75,0,0,0-33.29,21" transform="translate(-72.47 -1170.1)"/><path class="cls-2" d="M799.2,1224.47c-5.26-5.25-19.88-9-29.79-5.25-17.42,6.5-20.89,26.29-21,27.15" transform="translate(-72.47 -1170.1)"/><path class="cls-2" d="M753.64,1232.36c-7.88-15.77-35.91-17.18-46.43-8.76-8,6.37-10.7,19.87-8.76,30.66" transform="translate(-72.47 -1170.1)"/><path class="cls-2" d="M708.09,1256c-10.63-3-20.65-1.51-26.28,5.26-4.38,5.25-3.49,17.43-3.51,20.15" transform="translate(-72.47 -1170.1)"/><path class="cls-2" d="M339.26,1468c10.51-34.78,43.07-53.31,69.21-46.43,26.54,7,36.21,37.45,36.8,39.42" transform="translate(-72.47 -1170.1)"/><path class="cls-2" d="M437.82,1442.61c10.74-6.62,24.8-7.26,35.13-1.75,12.8,6.84,17.86,22.06,10.33,35" transform="translate(-72.47 -1170.1)"/><path class="cls-2" d="M351.53,1483.89c-3.62-14.07-17.22-21.43-28-17.57-8.59,3.07-14.67,13-14,24" transform="translate(-72.47 -1170.1)"/><path class="cls-2" d="M486.88,1465.39c14.13-9.28,32.81-7.18,40.88,1.75,5.63,6.24,5.87,15.56,1,23.66" transform="translate(-72.47 -1170.1)"/><path class="cls-2" d="M329.63,1500.43c-8-8.85-20.23-11.56-29.79-7-10.34,4.92-12.85,16.11-13.14,17.52" transform="translate(-72.47 -1170.1)"/><path class="cls-2" d="M533.31,1480.28c13.89-5.52,29.21.65,33.62,11.39,3.51,8.56-.23,19.23-9.61,25.41" transform="translate(-72.47 -1170.1)"/><path class="cls-2" d="M312.54,1472.4c-15.15-10.69-37.45-11.94-53.22-3.5-13.4,7.17-20.1,20.28-17,33.29" transform="translate(-72.47 -1170.1)"/><path class="cls-2" d="M242,1491.67c-14.56,7.37-21.44,20.85-17.22,33.29,4.66,13.74,21.93,23.44,41.32,22.78" transform="translate(-72.47 -1170.1)"/><path class="cls-2" d="M246,1545.55c-7.57,36.89,7.42,67.21,22.26,69.89,10.93,2,23.87-10.67,31.18-30.39" transform="translate(-72.47 -1170.1)"/><path class="cls-2" d="M289.33,1603.81c4.67,10.12,14.85,16.38,25.4,15.77,12.28-.71,22.82-10.59,24.53-23.65" transform="translate(-72.47 -1170.1)"/><path class="cls-2" d="M336.2,1609.59c21.1,11.08,43,4.65,47.88-5.57,3.69-7.71-1.48-19.4-12.6-27.81" transform="translate(-72.47 -1170.1)"/><path class="cls-2" d="M383.07,1607.31c.89.77,14.78,12.36,32.41,7A34.44,34.44,0,0,0,439.13,1588" transform="translate(-72.47 -1170.1)"/><path class="cls-2" d="M432.56,1601.94c2.57,9.19,11,15.14,19.84,14.11s16.07-9.07,16.52-18.81" transform="translate(-72.47 -1170.1)"/><path class="cls-2" d="M463.66,1579.28a16.58,16.58,0,0,0,30.67,12.27" transform="translate(-72.47 -1170.1)"/><path class="cls-2" d="M545.58,1513.14c10.71.24,17.67,7.59,16.14,13.6-1.22,4.82-8,8.92-16.14,8.74" transform="translate(-72.47 -1170.1)"/><path class="cls-2" d="M538.13,1526.72a11.91,11.91,0,0,1-7,22.77" transform="translate(-72.47 -1170.1)"/><path class="cls-2" d="M518.86,1538.11c9.77,2.23,15.23,12.45,12.26,21-2.77,8-12.22,12.72-21,9.64" transform="translate(-72.47 -1170.1)"/><path class="cls-2" d="M515.19,1569.21c2.46,8,2.93,16.85,0,21.7-4.2,7-16.16,6.92-25.68-6.78" transform="translate(-72.47 -1170.1)"/><path class="cls-2" d="M150.91,1272.66c-14.9-9.64-39.36,2-44.68,16.64-4.62,12.68.28,27.68,12.26,35.92" transform="translate(-72.47 -1170.1)"/><path class="cls-2" d="M105.35,1292.81c-.45-1.56-8-16.77-23.24-21.49A32.52,32.52,0,0,0,73,1269.9H72.5" transform="translate(-72.47 -1170.1)"/><path class="cls-2" d="M276.19,1615.2c-.17,1.75-1.43,13.1-11.39,20.15a28.18,28.18,0,0,1-28.91,1.75" transform="translate(-72.47 -1170.1)"/><path class="cls-2" d="M247.71,1639.29c-.23,1.34-3.65,19.22-18,26-14.77,7-27.25-4.26-28-5" transform="translate(-72.47 -1170.1)"/><path class="cls-2" d="M202.6,1639.73c2.6,14.82-3.55,28.45-14,33.29-9.67,4.47-19.91,0-21.9-.88-11.42-5-15.76-15.28-16.65-17.52" transform="translate(-72.47 -1170.1)"/><path class="cls-2" d="M157.48,1667.33c-2.31,16-11,28.71-22,32.29-14.24,4.61-25.11-8.22-26.16-9.5" transform="translate(-72.47 -1170.1)"/><path class="cls-2" d="M115.25,1694.46c-.4,3-2.73,18.45-15.53,27.4-7.7,5.39-15.17,7.28-18.9,7.23H72.5" transform="translate(-72.47 -1170.1)"/><path class="cls-2" d="M246,1482.48c-10.81-17.24-27.12-23.37-36.23-18.36-1.26.7-6.28,3.75-8.45,13.46" transform="translate(-72.47 -1170.1)"/><path class="cls-2" d="M210.48,1462.76c-3.5-18.39-35-31.32-45.63-28-7.17,2.22-11.89,12.1-12.4,13.14a29.11,29.11,0,0,0-2.86,11.39" transform="translate(-72.47 -1170.1)"/><path class="cls-2" d="M170.18,1482.48c-9-19.56-25.23-28.35-37.67-23-8.81,3.79-13.34,13.65-14.89,17.51" transform="translate(-72.47 -1170.1)"/><path class="cls-2" d="M126.38,1490.8a15.93,15.93,0,1,0-31.54,4.38" transform="translate(-72.47 -1170.1)"/><path class="cls-2" d="M97.91,1482.48c-2.61-3.94-8.93-12.23-18.85-14.53a23.5,23.5,0,0,0-4.89-.59l-1.67,0" transform="translate(-72.47 -1170.1)"/><path class="cls-2" d="M99.13,1721.64c-2.59,22.75,9.59,41.17,24.36,44.16,11.65,2.36,21.87-5.51,24.35-7.54" transform="translate(-72.47 -1170.1)"/><path class="cls-2" d="M146.53,1744.86a20.32,20.32,0,0,0,28.91,21.9" transform="translate(-72.47 -1170.1)"/><path class="cls-2" d="M168.43,1769.83c.22,1.35,1.9,10.71,9.47,15.62,6.12,4,13.78,3.53,19.88-1.11" transform="translate(-72.47 -1170.1)"/><path class="cls-2" d="M197.34,1772.45c-.06,2.12-.34,22.44,16.06,34.19,10.41,7.45,28.8,12.36,40.63,2.77,7.76-6.28,9.13-15.91,9.45-19.4" transform="translate(-72.47 -1170.1)"/><path class="cls-2" d="M248.59,1773.72a36.43,36.43,0,0,0,17.68,18.48c3.73,1.76,16.9,8.2,28.73,1.08,8.51-5.12,13.15-15.33,12.15-26.08" transform="translate(-72.47 -1170.1)"/><path class="cls-2" d="M1034.21,1864.8c-.37,13.19-11.15,23.82-22.56,25.14-11.23,1.29-19-7.14-19.6-7.8-6.59-7.45-4.7-16.38-4.35-17.91" transform="translate(-72.47 -1170.1)"/><path class="cls-2" d="M987.55,1869.26c-6.45,9.11-17.88,12.1-26.28,7.88-9.3-4.67-10.45-16-10.51-16.64" transform="translate(-72.47 -1170.1)"/><path class="cls-2" d="M959.52,1853.65c-3,2.64-8.7,6.64-15.72,6.4-11.93-.4-23.78-12.88-25.89-31.09" transform="translate(-72.47 -1170.1)"/><path class="cls-2" d="M931.49,1824.58" transform="translate(-72.47 -1170.1)"/><path class="cls-2" d="M924,1846.49c-6.12,9.93-16.6,13.52-24.88,9.2-9.31-4.86-11.33-17.37-11.48-18.41" transform="translate(-72.47 -1170.1)"/><path class="cls-2" d="M894.62,1854.05c-8.1,11.21-21.27,17.85-34.56,16.92-17.69-1.24-33-15.7-35.16-34.9" transform="translate(-72.47 -1170.1)"/><path class="cls-2" d="M837.75,1835.86c-12.87,4.61-25.1-1.82-28-11.29-2.81-9.07,3.8-18.06,4.38-18.83" transform="translate(-72.47 -1170.1)"/><path class="cls-2" d="M825.48,1804.43a26.94,26.94,0,0,1-26.28-7c-9.88-10.06-7.23-23.52-7-24.53" transform="translate(-72.47 -1170.1)"/><path class="cls-2" d="M792.52,1786.29a17.93,17.93,0,0,1-20.38-.15c-7.89-5.42-11.55-16.33-9.82-25.27a21.58,21.58,0,0,1,4.77-9.92" transform="translate(-72.47 -1170.1)"/><path class="cls-2" d="M774.67,1755.37a19.57,19.57,0,0,1-5.26-37.67" transform="translate(-72.47 -1170.1)"/><path class="cls-2" d="M778.12,1727.34c-9.93-9.8-12.76-25.37-7.23-37.63,6.36-14.11,22.53-21,37.07-14.86" transform="translate(-72.47 -1170.1)"/><path class="cls-2" d="M785.18,1674.77c-10.2-11.23-7.64-28.14,2.63-35,8.86-6,22.67-3.94,30.66,6.13" transform="translate(-72.47 -1170.1)"/><path class="cls-2" d="M809.3,1638.58c8.17-10.46,21.09-15.9,33.78-14.06,15.14,2.19,27.55,14.41,30.43,30.32" transform="translate(-72.47 -1170.1)"/><path class="cls-2" d="M860.57,1633.16c-1.41-9.86,1.29-19.71,8.07-24.58,10.3-7.39,30.46-3.59,41.38,13.76" transform="translate(-72.47 -1170.1)"/><path class="cls-2" d="M908.71,1634.47c-1.68-15.72,5.85-27.92,14.89-29.78,5.25-1.09,10.2,1.48,13.14,3.5" transform="translate(-72.47 -1170.1)"/><path class="cls-2" d="M932.36,1604.69c.55-7.8,5.82-18.83,13.14-21a18.75,18.75,0,0,1,21,7.89" transform="translate(-72.47 -1170.1)"/><path class="cls-2" d="M964.34,1587.6c1.29-12,8.36-21.9,18.06-25.21,12.45-4.26,27.4,3,34,17.88" transform="translate(-72.47 -1170.1)"/><path class="cls-2" d="M1000,1563.07c-2.6-12.46,3.9-22.92,12.27-26.54,10.22-4.42,23,9.48,23.51,10" transform="translate(-72.47 -1170.1)"/><path class="cls-2" d="M1032.23,1557.38c-1.23-10.86,5.7-19.45,13.14-20.15s12.83,6.57,13.14,7" transform="translate(-72.47 -1170.1)"/><path class="cls-2" d="M1055,1539.86c0-1.37,4.3-24.29,19.53-34.19a31.61,31.61,0,0,1,16.91-4.92h6" transform="translate(-72.47 -1170.1)"/><path class="cls-2" d="M306.85,1777.27c17,.5,27.95-11.11,27.16-20.15-.56-6.27-6.85-12.07-14.9-14.89" transform="translate(-72.47 -1170.1)"/><path class="cls-2" d="M334.88,1757.12c32.42,4.38,53.7-19.81,54.32-35.92.45-11.79-8.42-20.85-11.39-23.65" transform="translate(-72.47 -1170.1)"/><path class="cls-2" d="M390.07,1715.07c21.91-6.13,22.14-28.73,16.65-35.92-4.24-5.54-13.89-7.51-22.78-3.5" transform="translate(-72.47 -1170.1)"/><path class="cls-2" d="M406.72,1700.18c11,11.58,39.49,8.19,47.31-.88,5.79-6.72,6.33-17.86.87-27.16" transform="translate(-72.47 -1170.1)"/><path class="cls-2" d="M458.41,1677.4c19.18-4.46,35.08-21.28,34.15-37.22-.78-13.47-11.28-25.59-26.64-30.67" transform="translate(-72.47 -1170.1)"/><path class="cls-2" d="M323.64,1773.8c-2.1,10.4,2.78,20.1,9.65,22.85,8.49,3.4,21.29-3.31,23.7-17.11" transform="translate(-72.47 -1170.1)"/><path class="cls-2" d="M345.83,1796.55c.67,6.89,4.95,12.8,10.94,14.89,8.21,2.86,18.8-1.69,22.79-11.39" transform="translate(-72.47 -1170.1)"/><path class="cls-2" d="M371.32,1809.69c-3.2,6.33,2.1,12.59,8.65,13.47,5.35.71,11.79-2.13,14-7.14" transform="translate(-72.47 -1170.1)"/><path class="cls-2" d="M392.7,1803.55a33.93,33.93,0,0,0,3.51,20.15c4.92,9.27,15.28,17.64,28,17.53,11.23-.11,18.86-6.74,21-8.77" transform="translate(-72.47 -1170.1)"/><path class="cls-2" d="M430,1841.23c-4.83,10.67.82,21.81,9.34,24.38,6.16,1.85,13.77-.79,18.67-6.65" transform="translate(-72.47 -1170.1)"/><path class="cls-2" d="M444,1867.07c-.05,11.88,4.41,17.51,6.09,19.35,9.88,10.85,32.52,10.11,53-6.45" transform="translate(-72.47 -1170.1)"/><path class="cls-2" d="M482.06,1847.8c1,17.76,13.55,32.44,29.79,35.46,17.6,3.27,35.5-7.92,41.17-26.37" transform="translate(-72.47 -1170.1)"/><path class="cls-2" d="M541.63,1838.6c2.31,12.18,11.58,19.44,19.28,18.39,5.94-.81,9.6-6.38,10.51-7.88" transform="translate(-72.47 -1170.1)"/><path class="cls-2" d="M566.16,1856.12c8.18,8.33,20.18,10.62,28.91,6.13,11.44-5.87,16.5-22.94,7.89-36.79" transform="translate(-72.47 -1170.1)"/><path class="cls-2" d="M599.89,1859.62c1.88,9.57,8.63,17.3,17.43,19.76,11.31,3.16,24.29-2.87,29.88-14.82" transform="translate(-72.47 -1170.1)"/><path class="cls-2" d="M640.3,1846.92c-1.28,13.82,8.92,23.88,17.78,23.21,6.7-.5,13.27-7.19,15-16.44" transform="translate(-72.47 -1170.1)"/><path class="cls-2" d="M662.53,1849.11c7.49,4.43,15.39,5,18.4,1.75,3.56-3.77,2-14.52-7.89-22.78" transform="translate(-72.47 -1170.1)"/><path class="cls-2" d="M681.81,1840.35c14.78,5.4,29.22-3.13,31.53-14,1.72-8-3.15-17.62-12.26-22.78" transform="translate(-72.47 -1170.1)"/><path class="cls-2" d="M713.78,1818.45c8,1.44,15.46-3.8,16.2-10.52.67-6-4.23-12-11.43-13.14" transform="translate(-72.47 -1170.1)"/><path class="cls-2" d="M730,1804.25c14.43,10.36,29.4,8.24,36-2.6,1.24-2.05,3.95-7.33,3.89-16.93" transform="translate(-72.47 -1170.1)"/><path class="cls-2" d="M485.13,1623.87c12.17-8.77,29.4-9.54,41.49-2.28,9.94,6,15.08,16.58,13.38,27.34" transform="translate(-72.47 -1170.1)"/><path class="cls-2" d="M535.94,1628.34c16.75-6.44,35.58.94,40.53,13.14,5.11,12.58-5.2,28.61-23.9,31.54" transform="translate(-72.47 -1170.1)"/><path class="cls-2" d="M577.12,1643.67c1-11.21,8.15-20.47,17.54-23.07,11.48-3.17,24.45,4.16,28.89,17.58" transform="translate(-72.47 -1170.1)"/><path class="cls-2" d="M613.47,1653.75c1.15-10.38,9.6-17.77,18.4-17.52,6.63.18,12.81,4.69,15.77,11.38" transform="translate(-72.47 -1170.1)"/><path class="cls-2" d="M629.74,1685.34c-1.1-19.79,12.81-37.31,32.78-42.58,21.85-5.77,49.53,3.46,55.4,21.29,4.78,14.53-7.18,28-9,30" transform="translate(-72.47 -1170.1)"/><path class="cls-2" d="M717.29,1680.66c7.09-4.22,15.67-3.92,20.33,0,6.16,5.19,6.13,17.27-3.59,24.34" transform="translate(-72.47 -1170.1)"/><path class="cls-2" d="M741.82,1689.56c5.61-7.28,13.38-9.35,19.39-5.33,5.09,3.38,7.18,9.94,7.76,12" transform="translate(-72.47 -1170.1)"/><path class="cls-2" d="M679.18,1508.32c8.16,8.13,11.9,19.25,8.76,28-4.6,12.87-24.1,21.24-42.93,12.27" transform="translate(-72.47 -1170.1)"/><path class="cls-2" d="M688.81,1533.73a20.81,20.81,0,0,0,16.65,3.5c9.93-2.36,13.69-11.43,14-12.27" transform="translate(-72.47 -1170.1)"/><path class="cls-2" d="M685.31,1483.79c2.28,12.36-4.16,24.43-14.89,28.91-9,3.74-19.63,1.67-27.16-5.26" transform="translate(-72.47 -1170.1)"/><path class="cls-2" d="M815,1485.54c19.4,7.94,26.54,30.07,18.4,44.68-6.5,11.66-22.34,17.83-37.68,13.14" transform="translate(-72.47 -1170.1)"/><path class="cls-2" d="M835.12,1507.44c9.29-8.06,22.12-6.26,27.16.88,3.58,5.07,3.23,12.86-.88,19.27" transform="translate(-72.47 -1170.1)"/><path class="cls-2" d="M534.63,1378.66c-1.84,11.72,4.49,22.73,14,26.28,11.69,4.37,26.77-3,30.67-17.52" transform="translate(-72.47 -1170.1)"/><path class="cls-2" d="M574.05,1399.69c1,.43,9.75,4.11,15.77,0,6.66-4.56,8.53-17.71,0-28.91" transform="translate(-72.47 -1170.1)"/><path class="cls-2" d="M548.64,1367.27c-6,10.86-18.2,14-25.4,9.64-4.8-2.94-7.31-9.2-7-15.77" transform="translate(-72.47 -1170.1)"/><path class="cls-2" d="M1056.6,1698.15c.36-2.43,4.09-25.45,21.79-32.52a28.37,28.37,0,0,1,10.35-2h8.76" transform="translate(-72.47 -1170.1)"/><path class="cls-2" d="M1067.28,1711.57a19.88,19.88,0,0,0-15.77-14.9c-10-1.66-17,5.55-17.52,6.14" transform="translate(-72.47 -1170.1)"/><path class="cls-2" d="M1068.61,1672.14c-3-11.51-12.74-18.81-22.1-18-8.61.71-13.77,8-14.6,9.21" transform="translate(-72.47 -1170.1)"/><path class="cls-2" d="M1091.81,1816.7c-4.48-9.1-14.78-13.44-23.66-10.52a19.73,19.73,0,0,0-13.14,18.4" transform="translate(-72.47 -1170.1)"/><path class="cls-2" d="M1072.35,1804.54c-4.92-6.33-4-15,1.87-21.1,7-7.22,17.42-7.4,18.35-7.4h4.93" transform="translate(-72.47 -1170.1)"/><path class="cls-2" d="M522.8,1766.2a18.14,18.14,0,0,1,22.21-2.79,15.09,15.09,0,0,1,6.06,19.56" transform="translate(-72.47 -1170.1)"/><path class="cls-2" d="M548.64,1765a19.74,19.74,0,0,1,20.15-5.26c8.85,2.88,11.92,11.27,12.27,12.27" transform="translate(-72.47 -1170.1)"/><path class="cls-2" d="M528.49,1779.9a21.42,21.42,0,0,0-41.17-6.13" transform="translate(-72.47 -1170.1)"/><path class="cls-2" d="M230.63,1384.79a14.92,14.92,0,0,0,29.79-1.75" transform="translate(-72.47 -1170.1)"/><path class="cls-2" d="M246.4,1362.89c1.13,10.95,9,19.83,19.27,21.9a24.5,24.5,0,0,0,23.66-8.76" transform="translate(-72.47 -1170.1)"/><path class="cls-2" d="M280.57,1383.92c.37.73,6,11.22,17.52,12.26,9.53.86,19-5.15,22.78-14.89" transform="translate(-72.47 -1170.1)"/><path class="cls-2" d="M596,1794.79c15,16.23,35.25,17.3,43.8,8.76,7.43-7.41,4.79-20.84,4.38-22.77" transform="translate(-72.47 -1170.1)"/><path class="cls-2" d="M93.4,1615.13c7,7.91,9,17.85,5,24.34-4.61,7.52-19.31,8.14-22.81,8.14H72.5" transform="translate(-72.47 -1170.1)"/><path class="cls-2" d="M78,1603c.79,1.36,6.72,11.3,18.25,13,10.84,1.57,22.13-4.85,27.38-16" transform="translate(-72.47 -1170.1)"/><path class="cls-2" d="M85.42,1401.56a14,14,0,0,0,1.21-18.65c-4.58-5.83-12.22-6.14-12.89-6.16H72.5" transform="translate(-72.47 -1170.1)"/><path class="cls-2" d="M90.88,1391.37A11.2,11.2,0,0,1,98.61,1411" transform="translate(-72.47 -1170.1)"/><path class="cls-2" d="M871.91,1363.77c13.62-1.43,25.42,5.13,28.91,14.89,2.41,6.73.21,13.15-.87,15.77" transform="translate(-72.47 -1170.1)"/><path class="cls-2" d="M902.14,1388.3c16.62-1.29,30.47,7.12,32.79,17.52,2.28,10.21-7.45,18.44-8.46,19.27" transform="translate(-72.47 -1170.1)"/><path class="cls-2" d="M935.43,1411.06c7.18-5.28,18.13-5.19,25,0,6.41,4.89,7.62,13.1,2.63,19.29" transform="translate(-72.47 -1170.1)"/><path class="cls-2" d="M966.53,1421.23c7.44-6.83,17.75-7.5,25.07-1.93,9,6.87,8.68,19.52,8.65,20.25" transform="translate(-72.47 -1170.1)"/><path class="cls-2" d="M989.31,1440c8.77-2.54,17.72,1.51,21,8.76,2.53,5.54,1.46,12.36-2.63,17.52" transform="translate(-72.47 -1170.1)"/><path class="cls-2" d="M991.06,1461.91a18.91,18.91,0,0,1,21.9,17.21c.45,8-4.86,16.19-13.14,19.12" transform="translate(-72.47 -1170.1)"/><path class="cls-2" d="M970.91,1492.58c21.78-1.51,39.69,9.23,44.68,26a39.12,39.12,0,0,1,.87,17.34" transform="translate(-72.47 -1170.1)"/><path class="cls-2" d="M1079.15,1447.49a18.73,18.73,0,0,0,17.09,28h1.26" transform="translate(-72.47 -1170.1)"/><path class="cls-2" d="M1080.85,1467.17c-2.67,6.42-8.07,10.84-14.1,11.36-7.78.66-15.43-5.27-17.87-14.45" transform="translate(-72.47 -1170.1)"/><path class="cls-2" d="M1068.15,1320.84c-3.65-8.44-.69-18,5.64-25.07,8.19-9.13,20.1-9.29,21.74-9.3h2" transform="translate(-72.47 -1170.1)"/><path class="cls-2" d="M1073.41,1335.73c1.31-8.92-4.84-17.13-13.14-18.39a16.1,16.1,0,0,0-17.52,11.39" transform="translate(-72.47 -1170.1)"/><path class="cls-2" d="M1045.37,1321.72c-6.6-7.88-17.64-11.72-27-8.63-10.54,3.47-17.59,14.1-16.75,25.71" transform="translate(-72.47 -1170.1)"/><path class="cls-2" d="M701.08,1645a20.45,20.45,0,0,1,36.79-4.38" transform="translate(-72.47 -1170.1)"/><path class="cls-2" d="M716,1630.53c-.24-.84-5.66-19-18.4-21.38-10.22-1.88-17.36,7.89-18.39,9.35" transform="translate(-72.47 -1170.1)"/><path class="cls-2" d="M1054.13,1229.73c1.34-13.22,9-24.42,20.15-28.91,8.73-3.52,16.65-3.51,21.91-3.51h1.31" transform="translate(-72.47 -1170.1)"/><path class="cls-2" d="M1021.72,1209.58c12.32-8,25.31-9.37,32.41-3.5a25,25,0,0,1,5.26,7.88" transform="translate(-72.47 -1170.1)"/><path class="cls-2" d="M1015,1890.57a66.92,66.92,0,0,0,18.73,45.88c21.7,22.61,51.62,23.6,56.57,23.69h7.25" transform="translate(-72.47 -1170.1)"/><path class="cls-2" d="M356.78,1811.44c-.77,14-10,25.37-21.9,28a29.57,29.57,0,0,1-23.65-6.13" transform="translate(-72.47 -1170.1)"/><path class="cls-2" d="M321.74,1838.6c-.82,2.47-6.17,15.72-13.14,19.27-9.37,4.78-22.77,1.26-31.54-9.64" transform="translate(-72.47 -1170.1)"/><path class="cls-2" d="M283.05,1855.84c-1,4.46-3.78,13.79-12.26,20.51-15.9,12.61-44,9.83-55.88-5.94-6.13-8.12-6.29-17.5-6-22.17" transform="translate(-72.47 -1170.1)"/><path class="cls-2" d="M217.93,1873.2c-.43,3.39-1.87,12-7,17.89-7,8.05-18.07,7.79-27.16-1.28" transform="translate(-72.47 -1170.1)"/><path class="cls-2" d="M187.7,1873.64c.52,14.56-6.5,28.08-18.39,35-12.9,7.55-26.15,4.26-28.91,3.51" transform="translate(-72.47 -1170.1)"/><path class="cls-2" d="M145.78,1912.31c13.19,17.43,12.54,41.14-1.63,60.29-20.13,27.21-55.44,29-57.31,29.27H72.5" transform="translate(-72.47 -1170.1)"/></g></g></g></g></g></svg>