<svg id="CONTENT"
    xmlns="http://www.w3.org/2000/svg" viewBox="0 0 1025 834.7">
    <defs>
        <style>.cls-1{fill:#c22434;}.cls-2{fill:none;stroke:#000;stroke-miterlimit:10;stroke-width:5px;}</style>
    </defs>
    <g id="NEW_MEDIUM" data-name="NEW MEDIUM">
        <g id="CLOUDSFALL_MEDIUM">
            <g id="JUNCTION_CLOUDSFALL_MEDIUM">
                <g id="JUNCTION_CLOUDSFALL_BOTTOM_SMALL">
                    <path id="FOND" class="cls-1" d="M72.24,1417.26l13.14,2.32,12.28,10.52,7.45,8.47,5.69-9.35,11.4-9.64,14.31-2.32,14.61,3.2,6.14-14L169.53,1395l13.15-5.26,9.64,2.63,4.67,5.25,7.6-6.13,8.77-2.63,10.22.67,7.74,4.15,4.83-8.32,6.13-8.77,11.4-2.3,5.26-10,7.88-6.14,6.87-3.17,11.54,2.3,8.77,7.89,3.5,7.88h5.26l9.64-7,13.65-2.76,10,2.76,10.52,7.89,4.38,11.4,1.75,7.88,10.52-2.75,9.21.56,9.2,3.07,7,7,2.2,12.42,9.34,1.17,9.5,3.07,6.13-12.27,11.55-11,10.07-4,16.07,1,6.58,3.22,5.7-9.35,10.95-7.51,9.94-1.82,13.79,4.5,12.65,11.84,2.19,5.25,11-5.25,8.76-2.63,11.4.75,14.16,6.28,12.34,13.57,7.68-10.08,11.39-6.14,15.78.88,11.4,11.39,3.5,7,7.89-5.25H641.1l13.15,5.25,8.12,11.84,2.83,7.89,11.69-4.5,1.46-13.33,5.7-8.91,12.12-4.53,2.78-3.79v-16.66l6.57-10.52,13.59-5.1h11.28l13.26,4.66,10.08,7.6,11-9.35,13.44-2.91,14.17,1.77,7,4.21,13.59-7.45,14.17-2.2,9.06,1.84,3.94-18.92,10.52-10.52,11-2.25,10.08,3.12,6.57,2.2,10.08-11.84,11.54-5.29,11.25,0L926.85,1331l5.26,10.61,16.65-4.38,13.15,2.63,15.78,14.9,14.75-19.15,16.27-3.36,12.93,4.2,12.14,12.17,1.76,2.63,7.45-1.41,11.83,4,4.63,7,8.52-9.64,11.39-4.38,13.15-1.75h4.73v762.57h-11s-18.23-3.5-19.11-3.5-25.42-13.15-25.42-13.15l-13.58-13.59-8.77-16.65-2.81-23-10.34-.66-9.64-3.5-9.14-13.9-2-1-5.55,4.34-7,3.5-9.93-1.74-8.18-7.4L951,2006.6l-8.76-.19-10.52-3.47-6-7.89-8.91,5.23-7.89,4.38-10.52-1.75-3.57-1.68-7.83,8.69-17.67,8.81-12.13-.92-16.65-6.14-8.77-11.39L825,1983.76l-9.06-1.89-5.6-9.64-.54-9.64,4.38-10.52-10.51-3.51-11.07-14.64-10,2.37-11.4-3.51-2.87,8-3.26,9.56-7.89,7-11.15,1.31-10.76-3.07-6.14-3.5-.88,7.89-6.32,6.37h-8.24l-1.21,11.16-9.65,8.76-12.32,3.42-8.86-1.52,1,7.7-2.61,4.43-8.77-.88-.63,6.81-3.75,7.22-7.89,5.25-11.83-4.43-5.7,5.31-7,6.14-9.65,2.63-11.39-2.63-9.64-7-5.26-11.39-8.82,4.89h-9l-8.52-4-7-5.26L553,2004.12l-5.26,10.18-8.77,9.64-7.88,5.26-12,2.3-16.9-4-10.52,7-13.15,5.26-14,1.75-13.15-6.13-6.13-10.23-1.32-11.63-7.45-1.81-7-7.89-1.32-7.35,1.78-7.55H419.24l-10.86-4.38-7.89-7.89-7.88-10.52-7.89,4.39H376l-4.38-5.26-1.75-6.14h-9.65l-8.69-3.29-6.21-12.49-8.25,1.86-7.52-3.61-6.14-11.39-.35-8.48-10.17,3.22h-6.13l-5.26,9.64-10.52,7.89-11,.07-11.83-2.7-4.38-1.76-4.39,11.4L248.86,1960l-11.4,1.75L224.31,1960l-10.52-6.14-8.76-7.89-7-14.9-6.14,3.51-9,.79-7.67-5.17-7.31-13.77-7.31-.8-9.93-6.47-3.06-3.24-5.7,3.24-8.77,4.38-12.27-.88-9.64-6.13-7.89-9.64-4.82-16.61-.44-9.69-7,3.51-9.79,2.63-9.05-.44Z" transform="translate(-72.2 -1317.41)"/>
                    <path class="cls-1" d="M357.11,1958.64a46,46,0,0,1-5.26,14.9c-2.18,3.85-4,7.09-7.89,9.64-4.32,2.85-8.72,3.21-12.27,3.51a35.64,35.64,0,0,1-11.4-.88l-2.89,9.58-7.72,9.42-7.36,2.81-10.91-1.35-7.59-3.88-5,12-8.18,9.67L257,2030.6l-17.67.87-17.66-6.75-3.91-3.22-1.88,7.81-4.45,8.62-7.52,5.69-9.85.32-9.82-4.91-8.55,10.77-8.47,7.61-13.74,3.83-8.47.83,7,7,2.63,17.53-.83,12.48-7.94,17.33L135,2130.09l-15.91,10.59-18.3,6.57-28.52,2.36V1859.37l282.24,36.16Z" transform="translate(-72.2 -1317.41)"/>
                    <g id="Tracé">
                        <path class="cls-2" d="M298.82,1380.57c-.56-11.85-7.31-21.63-16.66-24.54a20.92,20.92,0,0,0-14.9.88c-11.12,5.24-12.23,18.71-12.27,19.28" transform="translate(-72.2 -1317.41)"/>
                        <path class="cls-2" d="M298.82,1374.44c1.37-1,17.53-15.78,34.18-9.64,14.8,5.45,24.55,25,18.41,45.58" transform="translate(-72.2 -1317.41)"/>
                        <path class="cls-2" d="M354,1392.85c8.76-5.26,23.46-3.34,29.8,2.63,7.19,6.75,7.06,17.76,7,19.28" transform="translate(-72.2 -1317.41)"/>
                        <path class="cls-2" d="M376,1425.28c6.3-8,16.05-12.12,25.42-10.52a26.23,26.23,0,0,1,15.78,9.64" transform="translate(-72.2 -1317.41)"/>
                        <path class="cls-2" d="M411,1416.51c.86-2,7.56-20.11,21.92-24.54,12.17-3.76,25.76,0,35.06,9.64" transform="translate(-72.2 -1317.41)"/>
                        <path class="cls-2" d="M460.1,1393.72c1.18-1.71,10.19-16.24,22.79-17.53,12.84-1.31,26.84,8,32.43,21.92" transform="translate(-72.2 -1317.41)"/>
                        <path class="cls-2" d="M503.05,1417.39c5.82-15.33,18.38-26.59,32.43-28.05,20.25-2.11,42.53,16.27,44.7,43.83" transform="translate(-72.2 -1317.41)"/>
                        <path class="cls-2" d="M573.61,1410.5c5.23-12.67,18.09-19.45,29.66-16.57,9.13,2.27,16.35,10.26,18.55,20.39" transform="translate(-72.2 -1317.41)"/>
                        <path class="cls-2" d="M615.24,1428.78a22.78,22.78,0,0,1,14.9-20.16c11.53-4.17,21.65,3.69,23.67,5.26,7.57,5.9,10.74,16.54,11.39,19.29" transform="translate(-72.2 -1317.41)"/>
                        <path class="cls-2" d="M651.18,1455.08c.17-.87,4-18.46,21-24.54a32.78,32.78,0,0,1,33.3,7" transform="translate(-72.2 -1317.41)"/>
                        <path class="cls-2" d="M704.65,1456.83c-1.69-15.91,5.73-30.12,17.53-35.06,1.1-.46,14.76-5.91,25.42,2.63,7.79,6.24,8.63,15.67,8.76,17.53" transform="translate(-72.2 -1317.41)"/>
                        <path class="cls-2" d="M746.72,1445.44c9.57-7,22.21-7.68,31.56-1.76,11.25,7.15,15.78,22.6,9.64,35.94" transform="translate(-72.2 -1317.41)"/>
                        <path class="cls-2" d="M790.11,1456.83c14.3-7.28,31.42-6,42.23,2.63s10.85,21.55,10.8,23.67" transform="translate(-72.2 -1317.41)"/>
                        <path class="cls-2" d="M837.44,1463.84c3.49-2.06,17.15-9.62,34.09-7,20.74,3.21,39.18,19.56,38.22,37.69-.65,12.37-10.08,20.9-13.43,23.67" transform="translate(-72.2 -1317.41)"/>
                        <path class="cls-2" d="M979,1458.59" transform="translate(-72.2 -1317.41)"/>
                        <path class="cls-2" d="M272.52,1380.57c-12.67-8.41-26.72-7.93-33.31-.87-1.15,1.24-6.13,7-7.89,14" transform="translate(-72.2 -1317.41)"/>
                        <path class="cls-2" d="M240.09,1409.5a24,24,0,0,0-16.65-20.16c-10.07-3-18.41-1.75-25.42,7.89" transform="translate(-72.2 -1317.41)"/>
                        <path class="cls-2" d="M199.77,1425.28c7.22-15.39-.3-31.53-11.39-35.06-10.4-3.32-21.85,7.12-24.55,9.64-15.75,14.75-14.41,37.25-14,42.07" transform="translate(-72.2 -1317.41)"/>
                        <path class="cls-2" d="M1034.22,1350.77a30.31,30.31,0,0,0-25.42-18.4c-12.53-.91-25.44,9.09-30.68,21" transform="translate(-72.2 -1317.41)"/>
                        <path class="cls-2" d="M981.63,1364.8c-4-18.82-21-30.55-36.81-28-11.84,1.88-21.89,11.61-25.42,24.54" transform="translate(-72.2 -1317.41)"/>
                        <path class="cls-2" d="M931.67,1342c-2.9-11.23-13.2-20.46-24.55-21.92-11.89-1.52-23.59,6.59-28.92,17.54" transform="translate(-72.2 -1317.41)"/>
                        <path class="cls-2" d="M887,1346.39c-9.53-13.2-26.2-17-37.69-10.52-12.31,7-13.11,26.21-13.14,27.17" transform="translate(-72.2 -1317.41)"/>
                        <path class="cls-2" d="M855.41,1378.82c-.86-1.31-11.18-16.39-29.8-16.65a36.77,36.77,0,0,0-33.31,21" transform="translate(-72.2 -1317.41)"/>
                        <path class="cls-2" d="M799.31,1371.81c-5.26-5.26-19.88-9-29.8-5.26-17.43,6.51-20.9,26.31-21,27.17" transform="translate(-72.2 -1317.41)"/>
                        <path class="cls-2" d="M753.73,1379.7c-7.89-15.78-35.93-17.19-46.45-8.77-8,6.38-10.71,19.88-8.77,30.68" transform="translate(-72.2 -1317.41)"/>
                        <path class="cls-2" d="M708.15,1403.36c-10.63-3-20.65-1.5-26.29,5.26-4.38,5.26-3.49,17.44-3.51,20.16" transform="translate(-72.2 -1317.41)"/>
                        <path class="cls-2" d="M339.14,1615.48c10.51-34.79,43.09-53.34,69.24-46.45,26.55,7,36.22,37.47,36.82,39.44" transform="translate(-72.2 -1317.41)"/>
                        <path class="cls-2" d="M437.75,1590.06c10.74-6.62,24.81-7.27,35.14-1.75,12.81,6.84,17.88,22.07,10.34,35.06" transform="translate(-72.2 -1317.41)"/>
                        <path class="cls-2" d="M351.41,1631.36c-3.63-14.08-17.23-21.44-28.05-17.58-8.6,3.08-14.68,13-14,24" transform="translate(-72.2 -1317.41)"/>
                        <path class="cls-2" d="M486.83,1612.85c14.14-9.29,32.83-7.19,40.9,1.76,5.64,6.24,5.88,15.56,1,23.66" transform="translate(-72.2 -1317.41)"/>
                        <path class="cls-2" d="M329.5,1647.91c-8-8.86-20.24-11.56-29.81-7-10.34,4.93-12.85,16.12-13.14,17.53" transform="translate(-72.2 -1317.41)"/>
                        <path class="cls-2" d="M533.29,1627.75c13.89-5.52,29.22.64,33.63,11.4,3.51,8.56-.23,19.23-9.61,25.42" transform="translate(-72.2 -1317.41)"/>
                        <path class="cls-2" d="M312.4,1619.87c-15.16-10.7-37.47-12-53.25-3.51-13.4,7.18-20.11,20.29-17,33.31" transform="translate(-72.2 -1317.41)"/>
                        <path class="cls-2" d="M241.83,1639.15c-14.56,7.37-21.45,20.86-17.23,33.31,4.67,13.74,21.94,23.44,41.35,22.79" transform="translate(-72.2 -1317.41)"/>
                        <path class="cls-2" d="M245.78,1693.06c-7.57,36.9,7.43,67.24,22.28,69.92,10.94,2,23.88-10.67,31.2-30.4" transform="translate(-72.2 -1317.41)"/>
                        <path class="cls-2" d="M289.18,1751.34c4.67,10.13,14.85,16.4,25.41,15.78,12.29-.71,22.84-10.6,24.55-23.66" transform="translate(-72.2 -1317.41)"/>
                        <path class="cls-2" d="M336.07,1757.12c21.11,11.09,43,4.65,47.9-5.56,3.7-7.72-1.48-19.42-12.6-27.83" transform="translate(-72.2 -1317.41)"/>
                        <path class="cls-2" d="M383,1754.85c.89.77,14.8,12.36,32.43,7a34.47,34.47,0,0,0,23.67-26.29" transform="translate(-72.2 -1317.41)"/>
                        <path class="cls-2" d="M432.49,1749.47c2.57,9.19,11,15.15,19.84,14.12,9-1.06,16.09-9.07,16.53-18.82" transform="translate(-72.2 -1317.41)"/>
                        <path class="cls-2" d="M463.6,1726.8a16.58,16.58,0,0,0,30.68,12.27" transform="translate(-72.2 -1317.41)"/>
                        <path class="cls-2" d="M545.56,1660.62c10.72.25,17.68,7.6,16.15,13.61-1.22,4.83-8,8.93-16.15,8.74" transform="translate(-72.2 -1317.41)"/>
                        <path class="cls-2" d="M538.11,1674.21a11.92,11.92,0,0,1-7,22.79" transform="translate(-72.2 -1317.41)"/>
                        <path class="cls-2" d="M518.82,1685.61c9.79,2.23,15.24,12.45,12.28,21-2.77,8-12.23,12.73-21,9.64" transform="translate(-72.2 -1317.41)"/>
                        <path class="cls-2" d="M515.16,1716.72c2.46,8,2.92,16.87,0,21.72-4.21,7-16.17,6.92-25.7-6.79" transform="translate(-72.2 -1317.41)"/>
                        <path class="cls-2" d="M150.68,1420c-14.9-9.64-39.37,2-44.7,16.65-4.61,12.68.29,27.7,12.27,35.94" transform="translate(-72.2 -1317.41)"/>
                        <path class="cls-2" d="M105.11,1440.18c-.46-1.56-8-16.78-23.25-21.5a32.66,32.66,0,0,0-9.17-1.42h-.45" transform="translate(-72.2 -1317.41)"/>
                        <path class="cls-2" d="M276,1762.74c-.17,1.75-1.43,13.1-11.4,20.16a28.17,28.17,0,0,1-28.92,1.75" transform="translate(-72.2 -1317.41)"/>
                        <path class="cls-2" d="M247.54,1786.84c-.24,1.35-3.66,19.24-18,26.06-14.77,7-27.26-4.26-28-5" transform="translate(-72.2 -1317.41)"/>
                        <path class="cls-2" d="M202.4,1787.28c2.6,14.83-3.55,28.47-14,33.31-9.68,4.47-19.93,0-21.92-.88-11.42-5-15.77-15.29-16.65-17.53" transform="translate(-72.2 -1317.41)"/>
                        <path class="cls-2" d="M157.26,1814.89c-2.31,16-11,28.73-22,32.31-14.25,4.62-25.12-8.22-26.17-9.5" transform="translate(-72.2 -1317.41)"/>
                        <path class="cls-2" d="M115,1842c-.4,3-2.73,18.46-15.54,27.41-7.71,5.4-15.18,7.29-18.91,7.24H72.24" transform="translate(-72.2 -1317.41)"/>
                        <path class="cls-2" d="M245.79,1630c-10.82-17.25-27.13-23.38-36.25-18.37-1.27.7-6.28,3.75-8.46,13.47" transform="translate(-72.2 -1317.41)"/>
                        <path class="cls-2" d="M210.29,1610.22c-3.51-18.4-35-31.33-45.66-28-7.17,2.22-11.9,12.1-12.4,13.14a29.11,29.11,0,0,0-2.86,11.4" transform="translate(-72.2 -1317.41)"/>
                        <path class="cls-2" d="M170,1630c-9-19.57-25.25-28.36-37.69-23-8.81,3.79-13.34,13.65-14.9,17.52" transform="translate(-72.2 -1317.41)"/>
                        <path class="cls-2" d="M126.14,1638.27a15.93,15.93,0,1,0-31.55,4.39" transform="translate(-72.2 -1317.41)"/>
                        <path class="cls-2" d="M97.66,1630c-2.62-3.94-8.93-12.24-18.86-14.53a22.89,22.89,0,0,0-4.89-.6l-1.67,0" transform="translate(-72.2 -1317.41)"/>
                        <path class="cls-2" d="M98.88,1869.24c-2.59,22.76,9.59,41.19,24.37,44.18,11.66,2.36,21.88-5.52,24.37-7.54" transform="translate(-72.2 -1317.41)"/>
                        <path class="cls-2" d="M146.3,1892.46a20.33,20.33,0,0,0,28.93,21.92" transform="translate(-72.2 -1317.41)"/>
                        <path class="cls-2" d="M168.22,1917.45c.22,1.35,1.9,10.72,9.47,15.63,6.13,4,13.79,3.53,19.89-1.12" transform="translate(-72.2 -1317.41)"/>
                        <path class="cls-2" d="M197.14,1920.08c-.06,2.12-.34,22.45,16.07,34.2,10.41,7.45,28.82,12.37,40.65,2.77,7.76-6.29,9.14-15.91,9.46-19.41" transform="translate(-72.2 -1317.41)"/>
                        <path class="cls-2" d="M248.42,1921.34a36.39,36.39,0,0,0,17.69,18.49c3.73,1.77,16.9,8.2,28.74,1.08,8.51-5.12,13.16-15.34,12.16-26.09" transform="translate(-72.2 -1317.41)"/>
                        <path class="cls-2" d="M1034.44,2012.47c-.37,13.19-11.15,23.83-22.57,25.15-11.23,1.3-19-7.14-19.61-7.8-6.59-7.46-4.7-16.39-4.34-17.92" transform="translate(-72.2 -1317.41)"/>
                        <path class="cls-2" d="M987.77,2016.93c-6.46,9.11-17.9,12.11-26.3,7.89-9.31-4.68-10.46-16-10.52-16.65" transform="translate(-72.2 -1317.41)"/>
                        <path class="cls-2" d="M959.72,2001.31c-3,2.64-8.71,6.64-15.73,6.41-11.93-.4-23.8-12.89-25.91-31.11" transform="translate(-72.2 -1317.41)"/>
                        <path class="cls-2" d="M931.67,1972.23" transform="translate(-72.2 -1317.41)"/>
                        <path class="cls-2" d="M924.22,1994.15c-6.13,9.93-16.61,13.52-24.89,9.2-9.31-4.86-11.34-17.38-11.49-18.41" transform="translate(-72.2 -1317.41)"/>
                        <path class="cls-2" d="M894.79,2001.71c-8.11,11.22-21.29,17.86-34.59,16.93-17.7-1.23-33-15.71-35.17-34.91" transform="translate(-72.2 -1317.41)"/>
                        <path class="cls-2" d="M837.88,1983.52c-12.87,4.6-25.11-1.83-28-11.3-2.81-9.08,3.8-18.07,4.38-18.84" transform="translate(-72.2 -1317.41)"/>
                        <path class="cls-2" d="M825.61,1952.07a27,27,0,0,1-26.3-7c-9.89-10.07-7.23-23.53-7-24.55" transform="translate(-72.2 -1317.41)"/>
                        <path class="cls-2" d="M792.63,1933.92a17.93,17.93,0,0,1-20.39-.15c-7.89-5.42-11.56-16.34-9.83-25.28a21.68,21.68,0,0,1,4.77-9.93" transform="translate(-72.2 -1317.41)"/>
                        <path class="cls-2" d="M774.77,1903a19.58,19.58,0,0,1-5.26-37.69" transform="translate(-72.2 -1317.41)"/>
                        <path class="cls-2" d="M778.22,1874.93c-9.93-9.8-12.76-25.38-7.23-37.64,6.36-14.12,22.54-21,37.09-14.87" transform="translate(-72.2 -1317.41)"/>
                        <path class="cls-2" d="M785.29,1822.34c-10.21-11.24-7.65-28.15,2.63-35.06,8.86-6,22.68-3.94,30.68,6.14" transform="translate(-72.2 -1317.41)"/>
                        <path class="cls-2" d="M809.42,1786.13c8.18-10.46,21.1-15.91,33.79-14.07,15.15,2.2,27.57,14.42,30.45,30.34" transform="translate(-72.2 -1317.41)"/>
                        <path class="cls-2" d="M860.72,1780.71c-1.41-9.86,1.28-19.72,8.07-24.59,10.31-7.39,30.48-3.59,41.4,13.77" transform="translate(-72.2 -1317.41)"/>
                        <path class="cls-2" d="M908.88,1782c-1.68-15.73,5.85-27.93,14.9-29.8,5.25-1.08,10.21,1.48,13.15,3.51" transform="translate(-72.2 -1317.41)"/>
                        <path class="cls-2" d="M932.54,1752.22c.55-7.8,5.83-18.83,13.15-21a18.79,18.79,0,0,1,21,7.89" transform="translate(-72.2 -1317.41)"/>
                        <path class="cls-2" d="M964.54,1735.13c1.3-12,8.37-21.92,18.07-25.23,12.45-4.26,27.42,3,34,17.89" transform="translate(-72.2 -1317.41)"/>
                        <path class="cls-2" d="M1000.18,1710.59c-2.6-12.47,3.9-22.94,12.27-26.56,10.23-4.42,23,9.48,23.52,10" transform="translate(-72.2 -1317.41)"/>
                        <path class="cls-2" d="M1032.47,1704.89c-1.24-10.86,5.69-19.46,13.15-20.16s12.82,6.57,13.14,7" transform="translate(-72.2 -1317.41)"/>
                        <path class="cls-2" d="M1055.26,1687.36c-.06-1.37,4.3-24.3,19.54-34.21a31.61,31.61,0,0,1,16.92-4.92h5.52" transform="translate(-72.2 -1317.41)"/>
                        <path class="cls-2" d="M306.71,1924.9c17,.5,28-11.12,27.17-20.16-.55-6.28-6.85-12.08-14.9-14.9" transform="translate(-72.2 -1317.41)"/>
                        <path class="cls-2" d="M334.75,1904.74c32.44,4.38,53.73-19.82,54.35-35.94.45-11.8-8.42-20.87-11.4-23.67" transform="translate(-72.2 -1317.41)"/>
                        <path class="cls-2" d="M390,1862.66c21.91-6.13,22.14-28.74,16.65-35.93-4.24-5.55-13.89-7.52-22.79-3.51" transform="translate(-72.2 -1317.41)"/>
                        <path class="cls-2" d="M406.63,1847.76c11,11.59,39.51,8.19,47.33-.87,5.8-6.73,6.34-17.87.88-27.18" transform="translate(-72.2 -1317.41)"/>
                        <path class="cls-2" d="M458.34,1825c19.19-4.46,35.11-21.29,34.18-37.24-.79-13.48-11.29-25.6-26.66-30.69" transform="translate(-72.2 -1317.41)"/>
                        <path class="cls-2" d="M323.5,1921.42c-2.09,10.41,2.79,20.11,9.66,22.87,8.49,3.4,21.3-3.32,23.72-17.12" transform="translate(-72.2 -1317.41)"/>
                        <path class="cls-2" d="M345.71,1944.18c.66,6.9,5,12.81,11,14.9,8.2,2.87,18.8-1.69,22.8-11.39" transform="translate(-72.2 -1317.41)"/>
                        <path class="cls-2" d="M371.21,1957.33c-3.2,6.34,2.11,12.59,8.65,13.47,5.36.72,11.8-2.12,14.06-7.13" transform="translate(-72.2 -1317.41)"/>
                        <path class="cls-2" d="M392.61,1951.19a34,34,0,0,0,3.5,20.16c4.93,9.27,15.29,17.65,28.05,17.53,11.23-.1,18.87-6.74,21-8.76" transform="translate(-72.2 -1317.41)"/>
                        <path class="cls-2" d="M429.88,1988.88c-4.83,10.69.82,21.83,9.34,24.4,6.17,1.85,13.78-.79,18.69-6.66" transform="translate(-72.2 -1317.41)"/>
                        <path class="cls-2" d="M443.88,2014.74c-.05,11.89,4.41,17.52,6.09,19.36,9.89,10.85,32.54,10.12,53.08-6.45" transform="translate(-72.2 -1317.41)"/>
                        <path class="cls-2" d="M482,1995.46c1,17.77,13.56,32.46,29.8,35.47,17.61,3.28,35.52-7.91,41.2-26.38" transform="translate(-72.2 -1317.41)"/>
                        <path class="cls-2" d="M541.61,1986.25c2.32,12.19,11.58,19.46,19.29,18.41,6-.81,9.6-6.39,10.52-7.89" transform="translate(-72.2 -1317.41)"/>
                        <path class="cls-2" d="M566.16,2003.78c8.18,8.34,20.18,10.63,28.92,6.14,11.44-5.88,16.51-23,7.89-36.82" transform="translate(-72.2 -1317.41)"/>
                        <path class="cls-2" d="M599.9,2007.29c1.88,9.57,8.64,17.31,17.44,19.77,11.31,3.16,24.3-2.87,29.9-14.83" transform="translate(-72.2 -1317.41)"/>
                        <path class="cls-2" d="M640.33,1994.58c-1.27,13.82,8.92,23.89,17.79,23.22,6.7-.5,13.28-7.2,15-16.45" transform="translate(-72.2 -1317.41)"/>
                        <path class="cls-2" d="M662.57,1996.77c7.5,4.43,15.4,5,18.41,1.75,3.56-3.77,2-14.53-7.89-22.79" transform="translate(-72.2 -1317.41)"/>
                        <path class="cls-2" d="M681.86,1988c14.79,5.4,29.24-3.13,31.55-14,1.72-8.06-3.15-17.63-12.27-22.79" transform="translate(-72.2 -1317.41)"/>
                        <path class="cls-2" d="M713.85,1966.09c8,1.45,15.47-3.8,16.21-10.52.67-6-4.23-12-11.44-13.14" transform="translate(-72.2 -1317.41)"/>
                        <path class="cls-2" d="M730.07,1951.89c14.43,10.37,29.41,8.25,36-2.6,1.24-2.06,4-7.34,3.89-16.94" transform="translate(-72.2 -1317.41)"/>
                        <path class="cls-2" d="M485.08,1771.42c12.18-8.78,29.41-9.55,41.51-2.28,9.94,6,15.09,16.58,13.39,27.35" transform="translate(-72.2 -1317.41)"/>
                        <path class="cls-2" d="M535.92,1775.89c16.76-6.45,35.6.94,40.55,13.14,5.11,12.59-5.21,28.63-23.92,31.56" transform="translate(-72.2 -1317.41)"/>
                        <path class="cls-2" d="M577.11,1791.23c1-11.22,8.16-20.49,17.55-23.08,11.5-3.18,24.47,4.16,28.91,17.58" transform="translate(-72.2 -1317.41)"/>
                        <path class="cls-2" d="M613.49,1801.31c1.14-10.38,9.6-17.78,18.41-17.53,6.63.18,12.81,4.69,15.77,11.39" transform="translate(-72.2 -1317.41)"/>
                        <path class="cls-2" d="M629.77,1832.91c-1.11-19.79,12.81-37.32,32.8-42.6,21.85-5.77,49.55,3.47,55.42,21.3,4.79,14.54-7.18,28-9,30" transform="translate(-72.2 -1317.41)"/>
                        <path class="cls-2" d="M717.36,1828.24c7.09-4.23,15.67-3.93,20.34,0,6.16,5.19,6.13,17.27-3.59,24.34" transform="translate(-72.2 -1317.41)"/>
                        <path class="cls-2" d="M741.9,1837.14c5.62-7.28,13.39-9.35,19.41-5.34,5.09,3.39,7.17,10,7.76,12" transform="translate(-72.2 -1317.41)"/>
                        <path class="cls-2" d="M679.23,1655.8c8.17,8.14,11.9,19.26,8.76,28-4.59,12.87-24.11,21.25-43,12.27" transform="translate(-72.2 -1317.41)"/>
                        <path class="cls-2" d="M688.87,1681.22a20.76,20.76,0,0,0,16.65,3.51c9.94-2.36,13.7-11.43,14-12.27" transform="translate(-72.2 -1317.41)"/>
                        <path class="cls-2" d="M685.36,1631.26c2.29,12.37-4.16,24.44-14.9,28.93-9,3.74-19.63,1.67-27.17-5.26" transform="translate(-72.2 -1317.41)"/>
                        <path class="cls-2" d="M815.09,1633c19.41,8,26.56,30.08,18.41,44.71-6.51,11.66-22.35,17.84-37.69,13.14" transform="translate(-72.2 -1317.41)"/>
                        <path class="cls-2" d="M835.25,1654.93c9.3-8.07,22.13-6.27,27.17.87,3.58,5.08,3.24,12.87-.87,19.29" transform="translate(-72.2 -1317.41)"/>
                        <path class="cls-2" d="M534.6,1526.08c-1.84,11.72,4.5,22.73,14,26.29,11.69,4.37,26.78-3,30.67-17.53" transform="translate(-72.2 -1317.41)"/>
                        <path class="cls-2" d="M574.05,1547.11c1,.43,9.75,4.12,15.77,0,6.67-4.55,8.54-17.71,0-28.92" transform="translate(-72.2 -1317.41)"/>
                        <path class="cls-2" d="M548.63,1514.68c-6,10.87-18.22,14.06-25.42,9.64-4.8-2.94-7.31-9.2-7-15.77" transform="translate(-72.2 -1317.41)"/>
                        <path class="cls-2" d="M1056.85,1845.73c.35-2.43,4.09-25.46,21.8-32.54a28.62,28.62,0,0,1,10.36-2h8.23" transform="translate(-72.2 -1317.41)"/>
                        <path class="cls-2" d="M1067.53,1859.16a19.87,19.87,0,0,0-15.78-14.9c-10-1.67-17,5.54-17.53,6.13" transform="translate(-72.2 -1317.41)"/>
                        <path class="cls-2" d="M1068.86,1819.71c-3-11.52-12.74-18.82-22.11-18-8.62.72-13.77,8-14.6,9.21" transform="translate(-72.2 -1317.41)"/>
                        <path class="cls-2" d="M1092.07,1964.34c-4.48-9.1-14.78-13.44-23.66-10.52a19.72,19.72,0,0,0-13.15,18.41" transform="translate(-72.2 -1317.41)"/>
                        <path class="cls-2" d="M1072.61,1952.18c-4.93-6.34-4.06-15,1.87-21.11,7-7.22,17.42-7.41,18.36-7.41h4.4" transform="translate(-72.2 -1317.41)"/>
                        <path class="cls-2" d="M522.77,1913.82A18.15,18.15,0,0,1,545,1911a15.1,15.1,0,0,1,6.06,19.57" transform="translate(-72.2 -1317.41)"/>
                        <path class="cls-2" d="M548.63,1912.62a19.73,19.73,0,0,1,20.16-5.25c8.85,2.88,11.92,11.27,12.27,12.27" transform="translate(-72.2 -1317.41)"/>
                        <path class="cls-2" d="M528.47,1927.53a21.44,21.44,0,0,0-41.2-6.14" transform="translate(-72.2 -1317.41)"/>
                        <path class="cls-2" d="M230.45,1532.21a14.93,14.93,0,1,0,29.8-1.75" transform="translate(-72.2 -1317.41)"/>
                        <path class="cls-2" d="M246.23,1510.3c1.13,11,9.05,19.84,19.28,21.91a24.53,24.53,0,0,0,23.67-8.76" transform="translate(-72.2 -1317.41)"/>
                        <path class="cls-2" d="M280.41,1531.34c.38.72,6,11.23,17.53,12.27,9.54.86,19-5.15,22.79-14.9" transform="translate(-72.2 -1317.41)"/>
                        <path class="cls-2" d="M596,1942.43c15,16.24,35.26,17.3,43.83,8.76,7.43-7.41,4.79-20.85,4.38-22.79" transform="translate(-72.2 -1317.41)"/>
                        <path class="cls-2" d="M93.15,1762.67c7,7.91,9,17.86,5,24.35-4.61,7.53-19.32,8.15-22.83,8.15H72.24" transform="translate(-72.2 -1317.41)"/>
                        <path class="cls-2" d="M77.76,1750.56c.79,1.37,6.72,11.31,18.26,13,10.85,1.57,22.14-4.85,27.39-16" transform="translate(-72.2 -1317.41)"/>
                        <path class="cls-2" d="M85.16,1549a14,14,0,0,0,1.21-18.66c-4.57-5.84-12.23-6.14-12.89-6.16H72.24" transform="translate(-72.2 -1317.41)"/>
                        <path class="cls-2" d="M90.63,1538.79a11.21,11.21,0,0,1,7.73,19.64" transform="translate(-72.2 -1317.41)"/>
                        <path class="cls-2" d="M872.06,1511.18c13.63-1.44,25.43,5.13,28.93,14.9,2.41,6.74.21,13.15-.88,15.78" transform="translate(-72.2 -1317.41)"/>
                        <path class="cls-2" d="M902.3,1535.72c16.63-1.29,30.5,7.12,32.81,17.53,2.28,10.22-7.45,18.45-8.46,19.28" transform="translate(-72.2 -1317.41)"/>
                        <path class="cls-2" d="M935.61,1558.5c7.19-5.29,18.15-5.2,25,0,6.41,4.88,7.62,13.1,2.62,19.29" transform="translate(-72.2 -1317.41)"/>
                        <path class="cls-2" d="M966.73,1568.67c7.45-6.84,17.76-7.5,25.08-1.93,9,6.87,8.69,19.53,8.66,20.26" transform="translate(-72.2 -1317.41)"/>
                        <path class="cls-2" d="M989.52,1587.43c8.78-2.53,17.73,1.52,21,8.77,2.53,5.55,1.46,12.37-2.62,17.53" transform="translate(-72.2 -1317.41)"/>
                        <path class="cls-2" d="M991.27,1609.37a18.92,18.92,0,0,1,21.91,17.22c.45,8-4.86,16.2-13.14,19.13" transform="translate(-72.2 -1317.41)"/>
                        <path class="cls-2" d="M971.11,1640.05c21.79-1.5,39.72,9.24,44.7,26a38.93,38.93,0,0,1,.88,17.34" transform="translate(-72.2 -1317.41)"/>
                        <path class="cls-2" d="M1079.41,1594.94a18.73,18.73,0,0,0,17.1,28l.73,0" transform="translate(-72.2 -1317.41)"/>
                        <path class="cls-2" d="M1081.11,1614.64c-2.67,6.42-8.07,10.84-14.11,11.35-7.78.67-15.44-5.26-17.88-14.45" transform="translate(-72.2 -1317.41)"/>
                        <path class="cls-2" d="M1068.41,1468.23c-3.66-8.45-.7-18,5.64-25.09,8.19-9.13,20.11-9.29,21.75-9.3h1.44" transform="translate(-72.2 -1317.41)"/>
                        <path class="cls-2" d="M1073.66,1483.13c1.32-8.94-4.84-17.14-13.14-18.41a16.13,16.13,0,0,0-17.53,11.4" transform="translate(-72.2 -1317.41)"/>
                        <path class="cls-2" d="M1045.62,1469.1c-6.61-7.88-17.66-11.72-27.06-8.63-10.55,3.47-17.6,14.11-16.76,25.73" transform="translate(-72.2 -1317.41)"/>
                        <path class="cls-2" d="M701.14,1792.54a20.47,20.47,0,0,1,36.82-4.38" transform="translate(-72.2 -1317.41)"/>
                        <path class="cls-2" d="M716,1778.08c-.24-.84-5.66-19-18.4-21.39-10.24-1.89-17.38,7.89-18.41,9.36" transform="translate(-72.2 -1317.41)"/>
                        <path class="cls-2" d="M1054.38,1377.07c1.34-13.23,9-24.44,20.16-28.93,8.73-3.52,16.65-3.5,21.91-3.5h.79" transform="translate(-72.2 -1317.41)"/>
                        <path class="cls-2" d="M1022,1356.91c12.32-8,25.32-9.38,32.43-3.51a25.08,25.08,0,0,1,5.26,7.89" transform="translate(-72.2 -1317.41)"/>
                        <path class="cls-2" d="M1015.18,2038.25a66.92,66.92,0,0,0,18.74,45.91c21.7,22.62,51.64,23.61,56.6,23.7h6.72" transform="translate(-72.2 -1317.41)"/>
                        <path class="cls-2" d="M356.67,1959.08c-.78,14-10,25.38-21.92,28.05a29.51,29.51,0,0,1-23.66-6.14" transform="translate(-72.2 -1317.41)"/>
                        <path class="cls-2" d="M321.61,1986.25c-.82,2.48-6.18,15.73-13.15,19.29-9.38,4.78-22.79,1.25-31.56-9.65" transform="translate(-72.2 -1317.41)"/>
                        <path class="cls-2" d="M282.9,2003.5c-1,4.47-3.79,13.8-12.27,20.52-15.91,12.62-44,9.84-55.91-5.93-6.13-8.13-6.29-17.52-6-22.19" transform="translate(-72.2 -1317.41)"/>
                        <path class="cls-2" d="M217.74,2020.88c-.43,3.39-1.87,12-7,17.89-7,8.06-18.08,7.8-27.18-1.27" transform="translate(-72.2 -1317.41)"/>
                        <path class="cls-2" d="M187.5,2021.31c.52,14.57-6.51,28.1-18.41,35.06-12.9,7.56-26.16,4.26-28.92,3.51" transform="translate(-72.2 -1317.41)"/>
                        <path class="cls-2" d="M145.55,2060c13.2,17.44,12.55,41.17-1.63,60.33-20.14,27.22-55.47,29-57.34,29.28H72.24" transform="translate(-72.2 -1317.41)"/>
                    </g>
                </g>
            </g>
        </g>
    </g>
</svg>