<svg id="CONTENT" xmlns="http://www.w3.org/2000/svg" viewBox="0 0 1169.56 1528.45"><defs><style>.cls-1,.cls-2{stroke:#fff;stroke-width:5px;}.cls-1,.cls-2,.cls-3{stroke-miterlimit:10;}.cls-2{fill:none;}.cls-3{stroke:#000;}</style></defs><g id="JUNCTION_ONE_NEW" data-name="JUNCTION ONE NEW"><g id="JONCTION_BASSE" data-name="JONCTION BASSE"><g id="Falasie_Droite_Bas" data-name="Falasie Droite Bas"><polygon points="1165.56 760.42 1166.56 1342.92 990.56 1294.92 760.56 755.92 1165.56 760.42"/><polyline class="cls-1" points="772.53 763.77 786.53 774.27 806.75 793.92 806.75 810.92 819.63 830.92 830.97 852.92 864.56 873.42 901.06 877.92 922.56 869.42 947.56 858.42 985.56 864.42 1003.56 871.42 1008.56 885.92 1027.56 891.42 1046.56 884.92 1056.56 873.42 1083.56 891.42 1105.06 905.73 1133.56 912.42 1156.06 905.73 1167.06 912.42 1167.06 606.42 886.17 597.42 689.56 624.42 604.56 713.42 600.06 741.42 640.56 790.42 682.56 804.42 700.06 847.92 732.56 874.42 750.56 890.42 770 901.92 781.06 940.92 804.06 960.92 841.06 991.92 847.06 1012.92 867.06 1042.92 899.67 1095.92 901.06 1131.25 931.06 1172.92 948.06 1221.92 960.06 1266.92 990.73 1294.81 990.73 1335.25 999.95 1365.92 1017.06 1386.92 1046.56 1400.58 1085.48 1417.92 1116.06 1456.45 1141.06 1472.92 1167.06 1482.42 1167.06 1328.42 1162.06 1327.56 1146.06 1329.72 1129.39 1329.72 1100.06 1317.25 1093.56 1305.42 1042.06 1297.61 1014.56 1300.42 990.73 1294.81"/><polyline class="cls-2" points="934.87 1183.89 962.56 1194.42 990.73 1194.42 1013.56 1213.42 1073.56 1217.42 1100.06 1208.58 1126.06 1217.42 1146.56 1233.42 1161.56 1255.42 1167.06 1257.42 1167.06 1124.42 1157.56 1124.42 1140.56 1118.42 1122.56 1109.42 1112.56 1093.42 1093.84 1080.71 1085.56 1051.42 1082.56 1033.42 1053.56 1018.42 1048.56 999.42 1013.39 985.42 973.56 985.42 926.56 966.42 920.56 944.42 889.08 927.25 838.56 914.42 825.06 896.42 808.4 898.14 773.06 873.42 750.06 878.42 746.06 883.42"/></g><g id="Falaise_Gauche_Bas" data-name="Falaise Gauche Bas"><polygon class="cls-1" points="2.56 646.42 2.56 1524.58 29.56 1512.42 45.56 1499.42 58.06 1473.92 64.06 1456.45 100 1448.58 110.06 1456.45 159.56 1430.42 182.73 1388.56 193.06 1348.72 200 1305.25 200 1278.82 187.42 1257.42 176.04 1237.66 170.12 1196.58 187.42 1144.58 205.56 1132.42 217.56 1111.7 228.04 1077.34 252.81 1063.25 280.04 1040.58 297.83 1011.25 306.56 987.42 315.04 957.92 356.51 941.25 376.56 928.42 392.73 912.42 400 892.58 407.56 880.42 426.56 874.42 442.37 866.58 465.16 855.92 476.56 838.42 470 817.92 484.56 798.42 491.56 786.42 487.56 766.42 496.56 757.42 513.56 754.42 517.56 735.42 532.73 723.42 545.56 705.42 407.56 451.42 2.56 646.42"/><path class="cls-1" d="M408,1695.5l-22-5-15.44,2.5-29.39-2.5-8.17-11-35.17,8-10.83,16-16.44,30.17L236,1739.5l-35.56,8.83-24-9.33L148,1751.67l-7,17.83s-32,9-35,9H77.83l-15.83,8L52.5,1803s-16.83-1.5-18.67,0S15,1797.5,15,1797.5l-12-7.83" transform="translate(-0.44 -815.08)"/><polyline class="cls-1" points="226.56 1078.42 183.56 1092.42 166.73 1084.88 136.56 1092.42 116.06 1096.75 90.73 1096.75 78.06 1087.04 55.56 1080.42 44.06 1087.04 34.73 1097.67 10.56 1114.42 2.56 1111.72"/><polyline class="cls-1" points="187.42 1144.58 170.12 1158.58 163.56 1172.42 160.56 1190.42 148.56 1204.42 132.56 1222.42 132.56 1245.25 126.56 1268.42 116.06 1277.94 103.56 1288.42 70.11 1296.58 56.56 1296.42 42.56 1316.42 42.56 1336.58 38.06 1353.56 26.73 1362.56 14.06 1362.56 2.56 1362.56"/></g><g id="Socle"><polyline class="cls-3" points="1161.56 484.42 1157.25 485.24 1141.06 492.42 1124.06 492.42 1115.06 495.42 1100.06 512.42 1091.06 539.42 1058.06 535.42 1037.06 542.42 1021.06 532.42 1041.06 521.42 1047.06 497.42 1009.06 471.42 994.06 464.42 966.06 456.42 916.06 456.42 867.93 435.18 816.93 397.18 800.06 394.42 763.06 409.42 737.06 403.42 706.06 367.42 665.06 340.42 641.06 341.42 583.06 373.42 557.06 399.42 532.06 385.42 479.06 404.42 418.06 437.42 360.06 414.42 330.06 423.42 291.06 401.42 214.06 453.42 143.06 479.42 96.06 462.42 64.06 472.42 3.06 459.42 3.06 699.42 277.06 813.42 535.06 721.42 568.06 755.42 582.06 753.42 603.06 742.42 721.06 699.42 826.06 765.42 1109.06 847.42 1163.56 652.27"/><polyline class="cls-1" points="680.56 694.42 714.56 693.42 740.56 704.42 757.56 710.42 776.56 730.42 803.73 720.92 821.06 730.42 845.56 749.42 860.73 749.42 878.56 731.42 891.56 728.42 908.56 714.42 915.56 711.42 927.56 716.42 942.56 729.42 952.56 738.42 962.56 738.42 978.56 729.42 984.73 720.92 995.56 716.42 1002.56 713.58 1022.56 727.42 1038.56 729.42 1058.56 717.42 1070.56 716.42 1084.48 713.92 1097.56 705.42 1111.56 700.42 1122.39 693.42 1129.56 681.42 1142.56 672.42 1151.73 672.42 1166.06 672.42 1166.56 678.42 1166.56 752.42 1161.06 751.92 1130.06 733.92 1101.06 720.92 1071.06 742.92 1045.56 748.92 1018.06 772.92 986.06 765.92 949.06 794.92 939.06 790.92 891.06 802.92 869.06 790.92 855.56 790.92 843.06 782.92 808.06 769.92 795.06 778.92 774.06 792.92 761.06 786.92 743.06 779.92 723.5 760.92 714.06 760.92 711.06 754.42 689.73 739.92 668.06 739.92 656.06 730.92 633.56 721.42"/><path class="cls-2" d="M1049,1312.5l-45-30c-37-24-74.18-3.91-91-14-25-15-29.08-11-44-18-35.69-16.75-37.06-39.36-61-42-22.91-2.53-31.09,17.14-54,15-19.2-1.79-31.44-20-41.16-35.46a28.52,28.52,0,0,0-7.2-7.77l-25.64-19a38.85,38.85,0,0,0-41.81-2.83l-60.19,33L563.8,1209a11.2,11.2,0,0,1-16,1.4l-8.25-7.18a13.27,13.27,0,0,0-13.44-2.37L481.39,1218l-57.85,32.6a13.14,13.14,0,0,1-12.26.34l-39.15-19.22a22.42,22.42,0,0,0-17.45-1l-20.84,7.51a10.79,10.79,0,0,1-10.09-1.47L299.66,1219a14.5,14.5,0,0,0-16.62-.42l-12.48,8.26" transform="translate(-0.44 -815.08)"/><path class="cls-1" d="M1026,1347.5s15,10,17,9c1.68-.84,16.94-5.22,21.73-6.59a7,7,0,0,1,2.91-.2l12.36,1.79,6,1.7a5.57,5.57,0,0,0,6.86-3.68l3.19-10,3.53-11.46a7.22,7.22,0,0,1,1.54-2.74l10.43-11.8,7.56-6a8.43,8.43,0,0,1,8.8-1l1.89.89a8.43,8.43,0,0,0,4.72.73l10.11-1.35a12,12,0,0,0,4.53-1.56l14.89-8.76,3.5-10v135l-2.5,8-9.17,12-11.83,15-21,10.15a7.38,7.38,0,0,0-4.18,6.65v4.22a8.37,8.37,0,0,1-3.08,6.49l-6.75,5.49-8.73,12.23a10,10,0,0,1-3.17,2.84l-12,6.78a7.38,7.38,0,0,1-4.39.9l-12.7-1.33a9.05,9.05,0,0,1-6.32-3.63l-7-9.57a9.81,9.81,0,0,0-4.17-3.26l-17-7L1019,1479a9.87,9.87,0,0,1-1.49-1.07l-11.24-9.65a4.76,4.76,0,0,0-4.94-.77l-14.29,6-25,3-22.17,11-10.63,9.89a8.45,8.45,0,0,1-2.72,1.69L912,1504.61a7.34,7.34,0,0,1-8.31-2.23L894,1490.5l-6.83-8-17.52-9.11a6.11,6.11,0,0,0-6.77.78l-8,6.89a6,6,0,0,1-3.88,1.44H839.47a10.08,10.08,0,0,1-6.2-2.13L795,1450.5" transform="translate(-0.44 -815.08)"/><path class="cls-1" d="M1168,1494" transform="translate(-0.44 -815.08)"/><polyline class="cls-1" points="270.56 615.42 235.56 631.42 204.56 655.42 174.28 636.92 143.56 648.42 125.11 638.92 119.56 630.42 93.56 614.42 70.56 618.42 66.56 630.42 44.56 647.42 30.56 653.42 16.17 650.3 2.56 631.42 2.56 664.92"/><polyline class="cls-1" points="505.56 715.42 476.06 728.92 465.16 737.67 449.06 744.92 424.06 741.92 406.73 754.42 383.06 756.92 360.06 768.92 339.06 780.92 334.06 791.92 314.06 795.92 295.06 805.92 280.73 805.92 263.06 775.92 251.06 772.92 239.39 761.42 226.06 757.92 215.06 761.42 207.06 763.92 197.06 757.92 180.06 734.92 156.06 716.92 139.06 707.92 126.06 710.92 117.06 717.92 108.06 722.92 97.06 721.92 86.45 713.58 73.06 698.92 66.06 696.92 42.06 680.92 33.06 684.92 21.06 686.92 12.06 691.92 3.06 699.42 2.56 664.42 13.06 669.92 28.06 667.92 44.06 661.92 56.06 661.92 65.06 659.92 83.06 644.92 95.06 638.92 113.06 644.92 126.06 653.92 137.06 670.92 150.06 676.92 174.06 674.92 189.06 668.92 196.78 677.71 207.06 679.92 221.06 705.92 253.06 697.92 274.06 694.92 290.06 700.92 306.06 700.92 324.06 689.92 354.06 686.92 362.06 680.92 380.06 685.92 401.06 709.92 412.06 706.92 424.06 706.92 454.56 690.42"/><path class="cls-1" d="M218,1399.5l-23,16-10,3-12-1s-14,6-14,7-12,3-12,3l-6-4-6.28-9-7.72-7-6-5-23-9-9-14-15-8H55.83L42,1347.5l-9-10-17-3-10-8-3-3v-49l27,4,41,8,32.1-10.72L131,1288.5l18,6" transform="translate(-0.44 -815.08)"/><path class="cls-1" d="M102,1321.5c-4-4-31.44-8-31.44-8L54,1302.5l-24-5-15-9-12-5.61" transform="translate(-0.44 -815.08)"/><line class="cls-1" x1="2.56" y1="508.92" x2="2.56" y2="631.42"/><path class="cls-2" d="M271,1226.5l-52.95,39a.24.24,0,0,1-.11.06l-58.9,23-.08,0-25,16,0,0L86.84,1330a.46.46,0,0,0,0,.82l4,1.6a.39.39,0,0,0,.21,0l50.8-5a.32.32,0,0,1,.17,0l36.85,11,.14,0,93.89-2H273l46.91,8h.1l29.89-2h.12l20.91,4H371l55.88,2,.18,0,25.8-9.93a.42.42,0,0,1,.22,0l36.78,5a.49.49,0,0,0,.21,0l10.78-3.92a.52.52,0,0,1,.25,0l31.81,7h.12l59.3-4a.45.45,0,0,1,.46.58L588.13,1359a.46.46,0,0,0,.33.57l29.44,6.87a.45.45,0,0,0,.2,0l28.83-7a.33.33,0,0,1,.14,0l25.84,2a.37.37,0,0,0,.18,0l39.34-13,.14,0H734l60-3,38.92-2,.15,0,21.68-8.94a.51.51,0,0,1,.17,0H893l54-5,59-5.91a13,13,0,0,0,1.87-.32l9.9-2.42,29.18-7.35-3.62,19a5.31,5.31,0,0,1-2,3.26l-21.75,16.53a5.3,5.3,0,0,1-3.65,1.06l-7.21-.6a6,6,0,0,0-4.71,1.72l-10,10-10.68,15.13a5.88,5.88,0,0,1-3.56,2.35l-9.38,2a6.59,6.59,0,0,0-3.85,2.44l-12.43,16.32a5.55,5.55,0,0,1-5.5,2.07L929.3,1401a6,6,0,0,0-4.31.75l-10.71,6.42a7.12,7.12,0,0,1-4.9.91l-17.44-3a6.12,6.12,0,0,0-5.15,1.48l-6,5.37a6.89,6.89,0,0,1-4.26,1.76l-15.44.77a6.37,6.37,0,0,0-3.75,1.47l-12.82,10.68a8,8,0,0,1-7.88,1.34l-8.55-3.21a5.18,5.18,0,0,0-5.48,1.19L810,1439.5l-6.47,6.47a6.59,6.59,0,0,1-3.67,1.85l-29.9,4.53a4.85,4.85,0,0,0-1.79.66L756,1460.5l-23,21-14.78,12.17a8,8,0,0,1-5.1,1.83H699.49a6.9,6.9,0,0,0-4.17,1.41L688,1502.5l-3.4,4.76a6.66,6.66,0,0,1-4.31,2.69l-6.24,1a7.46,7.46,0,0,0-4.84,3l-9,12.8a7.61,7.61,0,0,1-3,2.52l-5.85,2.65a7.53,7.53,0,0,1-6.52-.12l-2.09-1a3.12,3.12,0,0,0-4.13,1.27L635,1538.5l-7.41,6.58a6.42,6.42,0,0,1-3.71,1.6l-8.19.68a4.23,4.23,0,0,0-2.82,1.4L605,1557.5l-12.59,3.6a4.69,4.69,0,0,0-2.35,1.53l-2.77,3.33a5.24,5.24,0,0,1-3.28,1.82l-12,1.72h-3a6.79,6.79,0,0,1-4.88-2.06l-28.61-29.35a7,7,0,0,0-3.73-2l-18.55-3.37a6.4,6.4,0,0,1-2.35-.93l-18-11.68a4.18,4.18,0,0,0-2.08-.68l-15.15-.84a5.74,5.74,0,0,1-3.09-1.13L423,1480a7,7,0,0,0-4.57-1.4l-14,.74a9.21,9.21,0,0,1-4.61-1L376,1466.5l-18.5-11.45a9.45,9.45,0,0,1-3.68-4.25l-4.48-10.23a3.12,3.12,0,0,0-4.31-1.52l-22,11.45-3,2.53a7.73,7.73,0,0,1-6.71,1.6L304,1452.5l-23-19-23-9-9.86-9a6.35,6.35,0,0,0-2.63-1.44l-11.37-3a9.53,9.53,0,0,1-3.82-2L204.71,1387a7.77,7.77,0,0,0-4-1.79l-16.81-2.4a8.58,8.58,0,0,1-3.58-1.38l-21.1-14.24a5.32,5.32,0,0,0-2.17-.86l-11.1-1.8-25.24-13.59a5.63,5.63,0,0,0-1.61-.58L102.72,1347a7.85,7.85,0,0,1-4.5-2.67l-11.33-13.51" transform="translate(-0.44 -815.08)"/><path class="cls-1" d="M1045,1310.5" transform="translate(-0.44 -815.08)"/><path class="cls-1" d="M1015.75,1274.75" transform="translate(-0.44 -815.08)"/></g><g id="Socle_dessus" data-name="Socle dessus"><polygon class="cls-1" points="230.06 214.42 278.56 177.42 314.06 169.42 334.06 125.42 356.56 125.42 391.06 140.92 419.06 118.42 445.06 79.42 482.06 70.42 505.56 43.92 521.06 3.42 566.36 24.92 611.06 98.42 633.56 89.92 681.06 97.42 713.06 139.42 769.06 139.42 807.56 177.42 855.56 188.42 883.56 195.92 923.56 286.42 650.56 411.42 323.06 402.42 230.06 214.42"/><path class="cls-1" d="M795,1094.5l37.5-21,23.5-37.17,44.5-12L934,1046.5l47.25-12.83,18-8.37a50.82,50.82,0,0,1,34-3.11l35.6,9.16c.38.1.75.21,1.12.33l17.43,5.81a19.76,19.76,0,0,0,17-2.17l9.66-6.27a19.76,19.76,0,0,1,10.66-6l17.31-3.48a14,14,0,0,1,15.26,7.33l10.13,19.58v64.17l-46,39.83-111,25-116,2s-74.67-54.61-72.83-55.31S795,1094.5,795,1094.5Z" transform="translate(-0.44 -815.08)"/><path class="cls-1" d="M38.5,1036.5l18-28,45.5-5,24,10.17,25.5-16.17,27,24,20-11,20-2,27-16,45,26,26-1,39.5,29,35.5,81-99,46-175.17,26s-42.83-108-44.83-110S38.5,1036.5,38.5,1036.5Z" transform="translate(-0.44 -815.08)"/><polygon class="cls-1" points="182.06 276.42 144.06 249.42 110.06 251.92 104.06 242.42 86.17 227.03 75.06 203.42 52.06 213.69 28.06 201.42 9.06 188.42 3.56 198.58 5.56 298.56 5.56 361.69 60.06 384.42 125.56 381.69 176.06 354.42 186.06 303.42 182.06 276.42"/><polyline points="8.56 304.42 12.87 305.24 29.06 312.42 46.06 312.42 55.06 315.42 70.06 332.42 79.06 359.42 112.06 355.42 133.06 362.42 149.06 352.42 129.06 341.42 123.06 317.42 161.06 291.42 176.06 284.42 204.06 276.42 254.06 276.42 302.18 255.18 353.18 217.18 370.06 214.42 407.06 229.42 433.06 223.42 464.06 187.42 505.06 160.42 529.06 161.42 587.06 193.42 613.06 219.42 638.06 205.42 691.06 224.42 752.06 257.42 810.06 234.42 840.06 243.42 879.06 221.42 956.06 273.42 1027.06 299.42 1074.06 282.42 1106.06 292.42 1167.06 279.42 1167.06 519.42 1149.06 506.42 1128.06 501.42 1100.06 518.42 1074.06 541.42 1062.06 544.42 1039.06 529.42 1028.06 529.42 991.06 554.42 978.06 571.42 965.06 583.42 946.06 578.42 934.06 580.42 920.06 591.42 906.06 597.42 888.06 626.42 857.8 616.25 835.06 610.42 828.06 598.42 787.06 577.42 764.06 574.42 746.06 562.42 716.06 563.42 692.06 548.42 664.06 535.42 635.06 541.42 602.06 575.42 588.06 573.42 567.06 562.42 554.06 552.42 542.06 551.42 534.06 543.42 526.46 547.62 449.06 519.42 344.06 585.42 116.56 564.92 77.38 532.99 6.56 494.92 5.56 472.92"/><polyline class="cls-1" points="489.56 514.42 455.56 513.42 429.56 524.42 412.56 530.42 393.56 550.42 366.39 540.92 349.06 550.42 324.56 569.42 309.39 569.42 291.56 551.42 278.56 548.42 261.56 534.42 254.56 531.42 242.56 536.42 227.56 549.42 217.56 558.42 207.56 558.42 191.56 549.42 185.39 540.92 174.56 536.42 167.56 533.58 147.56 547.42 131.56 549.42 111.56 537.42 99.56 536.42 85.64 533.92 72.56 525.42 58.56 520.42 47.73 513.42 40.56 501.42 27.56 492.42 18.39 492.42 4.06 492.42 3.56 498.42 3.56 572.42 9.06 571.92 40.06 553.92 69.06 540.92 99.06 562.92 124.56 568.92 152.06 592.92 184.06 585.92 221.06 614.92 231.06 610.92 279.06 622.92 301.06 610.92 314.56 610.92 327.06 602.92 362.06 589.92 375.06 598.92 396.06 612.92 409.06 606.92 427.06 599.92 446.62 580.92 456.06 580.92 459.06 574.42 480.39 559.92 502.06 559.92 514.06 550.92 536.56 541.42"/><path class="cls-2" d="M122,1132.5l45-30c37-24,74.18-3.91,91-14,25-15,29.08-11,44-18,35.69-16.75,37.06-39.36,61-42,22.91-2.53,31.09,17.14,54,15,19.2-1.79,31.44-20,41.16-35.46a28.52,28.52,0,0,1,7.2-7.77l25.64-19a38.85,38.85,0,0,1,41.81-2.83l60.19,33,14.2,17.5a11.2,11.2,0,0,0,16,1.4l8.25-7.18a13.27,13.27,0,0,1,13.44-2.37L689.61,1038l57.85,32.6a13.14,13.14,0,0,0,12.26.34l39.15-19.22a22.42,22.42,0,0,1,17.45-1l20.84,7.51a10.79,10.79,0,0,0,10.09-1.47L871.34,1039a14.5,14.5,0,0,1,16.62-.42l12.48,8.26" transform="translate(-0.44 -815.08)"/><path class="cls-1" d="M145,1167.5s-15,10-17,9c-1.68-.84-16.94-5.22-21.73-6.59a7,7,0,0,0-2.91-.2L91,1171.5l-6,1.7a5.57,5.57,0,0,1-6.86-3.68l-3.19-10L71.47,1148a7.22,7.22,0,0,0-1.54-2.74L59.5,1133.5l-7.56-6a8.43,8.43,0,0,0-8.8-1l-1.89.89a8.43,8.43,0,0,1-4.72.73l-10.11-1.35a12,12,0,0,1-4.53-1.56L7,1116.5l-3.5-10v135l2.5,8,9.17,12,11.83,15,21,10.15a7.38,7.38,0,0,1,4.18,6.65v4.22a8.37,8.37,0,0,0,3.08,6.49L62,1309.5l8.73,12.23a10,10,0,0,0,3.17,2.84l12,6.78a7.38,7.38,0,0,0,4.39.9l12.7-1.33a9.05,9.05,0,0,0,6.32-3.63l7-9.57a9.81,9.81,0,0,1,4.17-3.26l17-7L152,1299a9.87,9.87,0,0,0,1.49-1.07l11.24-9.65a4.76,4.76,0,0,1,4.94-.77l14.29,6,25,3,22.17,11,10.63,9.89a8.45,8.45,0,0,0,2.72,1.69l14.52,5.53a7.34,7.34,0,0,0,8.31-2.23L277,1310.5l6.83-8,17.52-9.11a6.11,6.11,0,0,1,6.77.78l8,6.89a6,6,0,0,0,3.88,1.44h11.49a10.08,10.08,0,0,0,6.2-2.13L376,1270.5" transform="translate(-0.44 -815.08)"/><path class="cls-1" d="M3,1314" transform="translate(-0.44 -815.08)"/><polyline class="cls-1" points="899.56 435.42 934.56 451.42 965.56 475.42 995.84 456.92 1026.56 468.42 1045.01 458.92 1050.56 450.42 1076.56 434.42 1099.56 438.42 1103.56 450.42 1125.56 467.42 1139.56 473.42 1153.95 470.3 1167.06 451.42 1167.06 485.92"/><polyline class="cls-1" points="664.56 535.42 694.06 548.92 704.96 557.67 721.06 564.92 746.06 561.92 763.39 574.42 787.06 576.92 810.06 588.92 831.06 600.92 836.06 611.92 856.06 615.92 875.06 625.92 889.39 625.92 907.06 595.92 919.06 592.92 930.73 581.42 944.06 577.92 955.06 581.42 963.06 583.92 973.06 577.92 990.06 554.92 1014.06 536.92 1031.06 527.92 1044.06 530.92 1053.06 537.92 1062.06 542.92 1073.06 541.92 1083.67 533.58 1097.06 518.92 1104.06 516.92 1128.06 500.92 1137.06 504.92 1149.06 506.92 1158.06 511.92 1167.06 519.42 1167.06 484.42 1157.06 489.92 1142.06 487.92 1126.06 481.92 1114.06 481.92 1105.06 479.92 1087.06 464.92 1075.06 458.92 1057.06 464.92 1044.06 473.92 1033.06 490.92 1020.06 496.92 996.06 494.92 981.06 488.92 973.34 497.71 963.06 499.92 949.06 525.92 917.06 517.92 896.06 514.92 880.06 520.92 864.06 520.92 846.06 509.92 816.06 506.92 808.06 500.92 790.06 505.92 769.06 529.92 758.06 526.92 746.06 526.92 715.56 510.42"/><path class="cls-1" d="M951.5,1219.5l23,16,10,3,12-1s14,6,14,7,12,3,12,3l6-4,6.28-9,7.72-7,6-5,23-9,9-14,15-8h18.17l13.83-24,9-10,17-3,10-8,3-3v-49l-27,4-41,8-32.1-10.72-27.9,12.72-18,6" transform="translate(-0.44 -815.08)"/><path class="cls-1" d="M1069,1141.5c4-4,31.44-8,31.44-8l16.56-11,24-5,15-9,12-5.61" transform="translate(-0.44 -815.08)"/><line class="cls-1" x1="1166.56" y1="328.92" x2="1166.56" y2="451.42"/><path class="cls-2" d="M900,1046.5l53,39a.24.24,0,0,0,.11.06l58.9,23,.08,0,25,16,0,0,47.15,25.53a.46.46,0,0,1-.05.82l-4,1.6a.39.39,0,0,1-.21,0l-50.8-5a.32.32,0,0,0-.17,0l-36.85,11-.14,0-93.89-2H898l-46.91,8H851l-29.89-2h-.12l-20.91,4H800l-55.88,2-.18,0-25.8-9.93a.42.42,0,0,0-.22,0l-36.78,5a.49.49,0,0,1-.21,0l-10.78-3.92a.52.52,0,0,0-.25,0l-31.81,7h-.12l-59.3-4a.45.45,0,0,0-.46.58l4.69,15.92a.46.46,0,0,1-.33.57l-29.44,6.87a.45.45,0,0,1-.2,0l-28.83-7a.33.33,0,0,0-.14,0l-25.84,2a.37.37,0,0,1-.18,0l-39.34-13-.14,0H437l-60-3-38.92-2-.15,0-21.68-8.94a.51.51,0,0,0-.17,0H278l-54-5L165,1143.59a13,13,0,0,1-1.87-.32l-9.9-2.42L124,1133.5l3.62,19a5.31,5.31,0,0,0,2,3.26l21.75,16.53a5.3,5.3,0,0,0,3.65,1.06l7.21-.6a6,6,0,0,1,4.71,1.72l10.05,10,10.68,15.13a5.88,5.88,0,0,0,3.56,2.35l9.38,2a6.59,6.59,0,0,1,3.85,2.44l12.43,16.32a5.55,5.55,0,0,0,5.5,2.07l19.3-3.86a6,6,0,0,1,4.31.75l10.71,6.42a7.12,7.12,0,0,0,4.9.91l17.44-3a6.12,6.12,0,0,1,5.15,1.48l6,5.37a6.89,6.89,0,0,0,4.26,1.76l15.44.77a6.37,6.37,0,0,1,3.75,1.47l12.82,10.68a8,8,0,0,0,7.88,1.34l8.55-3.21a5.18,5.18,0,0,1,5.48,1.19L361,1259.5l6.47,6.47a6.59,6.59,0,0,0,3.67,1.85l29.9,4.53a4.85,4.85,0,0,1,1.79.66L415,1280.5l23,21,14.78,12.17a8,8,0,0,0,5.1,1.83h13.63a6.9,6.9,0,0,1,4.17,1.41l7.32,5.59,3.4,4.76a6.66,6.66,0,0,0,4.31,2.69l6.24,1a7.46,7.46,0,0,1,4.84,3l9,12.8a7.61,7.61,0,0,0,3,2.52l5.85,2.65a7.53,7.53,0,0,0,6.52-.12l2.09-1a3.12,3.12,0,0,1,4.13,1.27l3.55,6.39,7.41,6.58a6.42,6.42,0,0,0,3.71,1.6l8.19.68a4.23,4.23,0,0,1,2.82,1.4l7.87,8.74,12.59,3.6a4.69,4.69,0,0,1,2.35,1.53l2.77,3.33a5.24,5.24,0,0,0,3.28,1.82l12,1.72h3a6.79,6.79,0,0,0,4.88-2.06l28.61-29.35a7,7,0,0,1,3.73-2l18.55-3.37a6.4,6.4,0,0,0,2.35-.93l18-11.68a4.18,4.18,0,0,1,2.08-.68l15.15-.84a5.74,5.74,0,0,0,3.09-1.13L748,1300a7,7,0,0,1,4.57-1.4l14,.74a9.21,9.21,0,0,0,4.61-1L795,1286.5l18.5-11.45a9.45,9.45,0,0,0,3.68-4.25l4.48-10.23a3.12,3.12,0,0,1,4.31-1.52l22,11.45,3,2.53a7.73,7.73,0,0,0,6.71,1.6l9.25-2.13,23-19,23-9,9.86-9a6.35,6.35,0,0,1,2.63-1.44l11.37-3a9.53,9.53,0,0,0,3.82-2L966.29,1207a7.77,7.77,0,0,1,4-1.79l16.81-2.4a8.58,8.58,0,0,0,3.58-1.38l21.1-14.24a5.32,5.32,0,0,1,2.17-.86l11.1-1.8,25.24-13.59a5.63,5.63,0,0,1,1.61-.58l16.43-3.29a7.85,7.85,0,0,0,4.5-2.67l11.33-13.51" transform="translate(-0.44 -815.08)"/><path class="cls-1" d="M126,1130.5" transform="translate(-0.44 -815.08)"/><path class="cls-1" d="M155.25,1094.75" transform="translate(-0.44 -815.08)"/></g></g></g></svg>