<svg id="CONTENT"
    xmlns="http://www.w3.org/2000/svg" viewBox="0 0 1169 1516">
    <defs>
        <style>.cls-1,.cls-3{fill:red;}.cls-2{fill:none;}.cls-2,.cls-3{stroke:#000;stroke-miterlimit:10;stroke-width:5px;}</style>
    </defs>
    <g id="JONCTION_BASSE" data-name="JONCTION BASSE">
        <g id="Falaise_Gauche_Bas" data-name="Falaise Gauche Bas">
            <polygon class="cls-1" points="1166.56 424.32 1166.56 1000.32 996.56 976.82 770.56 432.32 1166.56 424.32"/>
            <polyline class="cls-2" points="934.87 847.8 962.56 858.32 990.73 858.32 1013.56 877.32 1073.56 881.32 1100.06 872.49 1126.06 881.32 1146.56 897.32 1161.56 919.32 1167.56 921.32 1167.56 788.32 1157.56 788.32 1140.56 782.32 1122.56 773.32 1112.56 757.32 1093.84 744.62 1085.56 715.32 1082.56 697.32 1053.56 682.32 1048.56 663.32 1013.39 649.32 973.56 649.32 926.56 630.32 920.56 608.32 889.08 591.16 838.56 578.32 825.84 566.68 794.56 568.05 770.56 566.32"/>
            <line class="cls-2" x1="1167.56" y1="787.82" x2="1167.56" y2="576.32"/>
            <path class="cls-2" d="M1168,1100.5v-71" transform="translate(-0.44 -107.18)"/>
            <polyline class="cls-3" points="775.06 427.82 786.06 437.82 806.75 457.82 806.75 474.82 819.63 494.82 830.97 516.82 864.56 537.32 901.06 541.82 922.56 533.32 947.56 522.32 985.56 528.32 1003.56 535.32 1008.56 549.82 1027.56 555.32 1046.56 548.82 1056.56 537.32 1083.56 555.32 1105.06 569.63 1133.56 576.32 1156.06 569.63 1167.56 576.32 1167.17 270.33 886.17 261.33 689.56 288.32 604.56 377.32 600.06 405.32 640.56 454.32 682.56 468.32 700.06 511.82 732.56 538.32 750.56 554.32 770 565.82 781.06 604.82 804.06 624.82 841.06 655.82 847.06 676.82 867.06 706.82 899.67 759.82 901.06 795.16 931.06 836.82 948.06 885.82 960.06 930.82 990.73 958.71 990.73 999.16 999.95 1029.82 1017.06 1050.82 1046.56 1064.49 1085.48 1081.82 1116.06 1120.36 1141.06 1136.82 1167.56 1145.82 1167.56 993.63 1162.06 991.46 1146.06 993.63 1129.39 993.63 1100.06 981.16 1093.56 969.32 1042.06 961.52 1014.56 964.32 990.73 958.71"/>
        </g>
        <g id="Falaise_Droite_Bas" data-name="Falaise Droite Bas">
            <polygon class="cls-3" points="2.56 310.32 2.56 1188.49 29.56 1176.32 45.56 1163.32 58.06 1137.82 64.06 1120.36 100 1112.49 110.06 1120.36 159.56 1094.32 182.73 1052.46 193.06 1012.63 200 969.15 200 942.73 187.42 921.32 176.04 901.57 170.12 860.49 187.42 808.49 205.56 796.32 217.56 775.61 228.04 741.25 252.81 727.16 280.04 704.49 297.83 675.16 306.56 651.32 315.04 621.82 356.51 605.16 376.56 592.32 392.73 576.32 400 556.49 407.56 544.32 426.56 538.32 442.37 530.49 465.16 519.82 476.56 502.32 470 481.82 484.56 462.32 491.56 450.32 487.56 430.32 496.56 421.32 513.56 418.32 517.56 399.32 532.73 387.32 545.56 369.32 407.56 115.32 2.56 310.32"/>
            <path class="cls-2" d="M408,651.5l-22-5L370.56,649l-29.39-2.5-8.17-11-35.17,8L287,659.5l-16.44,30.17L236,695.5l-35.56,8.83-24-9.33L148,707.67l-7,17.83s-32,9-35,9H77.83L62,742.5,52.5,759s-16.83-1.5-18.67,0S15,753.5,15,753.5L3,745.67" transform="translate(-0.44 -107.18)"/>
            <polyline class="cls-2" points="226.56 742.32 183.56 756.32 166.73 748.78 136.56 756.32 116.06 760.66 90.73 760.66 78.06 750.95 55.56 744.32 44.06 750.95 34.73 761.57 10.56 778.32 2.56 775.63"/>
            <polyline class="cls-2" points="187.42 808.49 170.12 822.49 163.56 836.32 160.56 854.32 148.56 868.32 132.56 886.32 132.56 909.16 126.56 932.32 116.06 941.85 103.56 952.32 70.11 960.49 56.56 960.32 42.56 980.32 42.56 1000.49 38.06 1017.46 26.73 1026.46 14.06 1026.46 2.56 1026.46"/>
        </g>
        <g id="Socle">
            <polyline class="cls-1" points="1167.06 136.82 1160.06 148.82 1134.06 158.82 1120.06 156.82 1098.06 177.82 1089.06 202.82 1064.06 199.82 1043.06 206.82 1027.06 196.82 1041.06 183.82 1047.06 160.82 1012.06 138.82 1000.06 128.82 972.06 120.82 922.06 120.82 863.06 97.82 814.06 58.82 794.06 57.82 756.06 73.82 739.06 68.82 708.06 31.82 671.06 4.82 646.06 3.82 585.06 33.82 554.06 62.82 531.06 48.82 482.06 65.82 416.06 101.82 363.06 77.82 328.06 87.82 289.06 64.82 217.06 114.82 149.06 143.82 102.06 126.82 70.06 136.82 3.06 124.82 2.06 363.82 283.06 477.82 531.56 383.82 570.06 419.82 727.06 363.82 832.06 429.82 1115.06 511.82 1169.56 316.67"/>
            <polyline class="cls-3" points="681.56 358.32 715.56 357.32 741.56 368.32 758.56 374.32 777.56 394.32 804.73 384.82 822.06 394.32 846.56 413.32 861.73 413.32 879.56 395.32 892.56 392.32 909.56 378.32 916.56 375.32 928.56 380.32 943.56 393.32 953.56 402.32 963.56 402.32 979.56 393.32 985.73 384.82 996.56 380.32 1003.56 377.49 1023.56 391.32 1039.56 393.32 1059.56 381.32 1071.56 380.32 1085.48 377.82 1098.56 369.32 1112.56 364.32 1123.39 357.32 1130.56 345.32 1143.56 336.32 1152.73 336.32 1165.06 336.32 1167.56 342.32 1167.56 416.32 1162.06 415.82 1131.06 397.82 1102.06 384.82 1072.06 406.82 1046.56 412.82 1019.06 436.82 987.06 429.82 950.06 458.82 940.06 454.82 892.06 466.82 870.06 454.82 856.56 454.82 844.06 446.82 809.06 433.82 796.06 442.82 775.06 456.82 762.06 450.82 744.06 443.82 724.5 424.82 715.06 424.82 712.06 418.32 690.73 403.82 669.06 403.82 657.06 394.82 634.56 385.32"/>
            <path class="cls-2" d="M1049,268.5l-45-30c-37-24-74.18-3.91-91-14-25-15-29.08-11-44-18-35.69-16.75-37.06-39.36-61-42-22.91-2.53-31.09,17.14-54,15-19.2-1.79-31.44-20-41.16-35.46a28.52,28.52,0,0,0-7.2-7.77L680,117.3a38.85,38.85,0,0,0-41.81-2.83L578,147.5,563.8,165a11.2,11.2,0,0,1-16,1.4l-8.25-7.18a13.27,13.27,0,0,0-13.44-2.37L481.39,174l-57.85,32.6a13.14,13.14,0,0,1-12.26.34l-39.15-19.22a22.42,22.42,0,0,0-17.45-1l-20.84,7.51a10.79,10.79,0,0,1-10.09-1.47L299.66,175A14.5,14.5,0,0,0,283,174.6l-12.48,8.26" transform="translate(-0.44 -107.18)"/>
            <path class="cls-2" d="M1026,303.5s15,10,17,9c1.68-.84,16.94-5.22,21.73-6.59a7,7,0,0,1,2.91-.2L1080,307.5l6,1.7a5.57,5.57,0,0,0,6.86-3.68l3.19-10,3.53-11.46a7.22,7.22,0,0,1,1.54-2.74l10.43-11.8,7.56-5.95a8.43,8.43,0,0,1,8.8-1l1.89.89a8.43,8.43,0,0,0,4.72.73l10.11-1.35a12,12,0,0,0,4.53-1.56L1164,252.5l4-10v135l-3,8-9.17,12-11.83,15-21,10.15a7.38,7.38,0,0,0-4.18,6.65v4.22a8.37,8.37,0,0,1-3.08,6.49L1109,445.5l-8.73,12.23a10,10,0,0,1-3.17,2.84l-12,6.78a7.38,7.38,0,0,1-4.39.9l-12.7-1.33a9.05,9.05,0,0,1-6.32-3.63l-7-9.57a9.81,9.81,0,0,0-4.17-3.26l-17-7L1019,435a9.87,9.87,0,0,1-1.49-1.07l-11.24-9.65a4.76,4.76,0,0,0-4.94-.77l-14.29,6-25,3-22.17,11-10.63,9.89a8.45,8.45,0,0,1-2.72,1.69L912,460.61a7.34,7.34,0,0,1-8.31-2.23L894,446.5l-6.83-8-17.52-9.11a6.11,6.11,0,0,0-6.77.78l-8,6.89A6,6,0,0,1,851,438.5H839.47a10.08,10.08,0,0,1-6.2-2.13L795,406.5" transform="translate(-0.44 -107.18)"/>
            <path class="cls-2" d="M1168,450" transform="translate(-0.44 -107.18)"/>
            <polyline class="cls-2" points="270.56 279.32 235.56 295.32 204.56 319.32 174.28 300.82 143.56 312.32 125.11 302.82 119.56 294.32 93.56 278.32 70.56 282.32 66.56 294.32 44.56 311.32 30.56 317.32 16.17 314.21 2.56 295.32 2.56 328.82"/>
            <polyline class="cls-2" points="505.56 379.32 476.06 392.82 465.16 401.57 449.06 408.82 424.06 405.82 406.73 418.32 383.06 420.82 360.06 432.82 339.06 444.82 334.06 455.82 314.06 459.82 295.06 469.82 280.73 469.82 263.06 439.82 251.06 436.82 239.39 425.32 226.06 421.82 215.06 425.32 207.06 427.82 197.06 421.82 180.06 398.82 156.06 380.82 139.06 371.82 126.06 374.82 117.06 381.82 108.06 386.82 97.06 385.82 86.45 377.49 73.06 362.82 66.06 360.82 42.06 344.82 33.06 348.82 21.06 350.82 12.06 355.82 3.06 363.32 2.56 328.32 13.06 333.82 28.06 331.82 44.06 325.82 56.06 325.82 65.06 323.82 83.06 308.82 95.06 302.82 113.06 308.82 126.06 317.82 137.06 334.82 150.06 340.82 174.06 338.82 189.06 332.82 196.78 341.62 207.06 343.82 221.06 369.82 253.06 361.82 274.06 358.82 290.06 364.82 306.06 364.82 324.06 353.82 354.06 350.82 362.06 344.82 380.06 349.82 401.06 373.82 412.06 370.82 424.06 370.82 454.56 354.32"/>
            <path class="cls-2" d="M218,355.5l-23,16-10,3-12-1s-14,6-14,7-12,3-12,3l-6-4-6.28-9-7.72-7-6-5-23-9-9-14-15-8H55.83L42,303.5l-9-10-17-3-10-8-3-3v-49l27,4,41,8,32.1-10.72L131,244.5l18,6" transform="translate(-0.44 -107.18)"/>
            <path class="cls-2" d="M102,277.5c-4-4-31.44-8-31.44-8L54,258.5l-24-5-15-9L3,238.89" transform="translate(-0.44 -107.18)"/>
            <line class="cls-2" x1="2.56" y1="172.82" x2="2.56" y2="295.32"/>
            <path class="cls-2" d="M271,182.5l-52.95,39a.24.24,0,0,1-.11.06l-58.9,23-.08,0-25,16,0,0L86.84,286a.46.46,0,0,0,0,.82l4,1.6a.39.39,0,0,0,.21,0l50.8-5a.32.32,0,0,1,.17,0l36.85,11,.14,0,93.89-2H273l46.91,8h.1l29.89-2h.12l20.91,4H371l55.88,2,.18,0,25.8-9.93a.42.42,0,0,1,.22,0l36.78,5a.49.49,0,0,0,.21,0l10.78-3.92a.52.52,0,0,1,.25,0l31.81,7h.12l59.3-4a.45.45,0,0,1,.46.58L588.13,315a.46.46,0,0,0,.33.57l29.44,6.87a.45.45,0,0,0,.2,0l28.83-7a.33.33,0,0,1,.14,0l25.84,2a.37.37,0,0,0,.18,0l39.34-13,.14,0H734l60-3,38.92-2,.15,0,21.68-8.94a.51.51,0,0,1,.17,0H893l54-5,59-5.91a13,13,0,0,0,1.87-.32l9.9-2.42L1047,269.5l-3.62,19a5.31,5.31,0,0,1-2,3.26l-21.75,16.53a5.3,5.3,0,0,1-3.65,1.06l-7.21-.6a6,6,0,0,0-4.71,1.72L994,320.5l-10.68,15.13a5.88,5.88,0,0,1-3.56,2.35l-9.38,2a6.59,6.59,0,0,0-3.85,2.44L954.1,358.75a5.55,5.55,0,0,1-5.5,2.07L929.3,357a6,6,0,0,0-4.31.75l-10.71,6.42a7.12,7.12,0,0,1-4.9.91l-17.44-3a6.12,6.12,0,0,0-5.15,1.48l-6,5.37a6.89,6.89,0,0,1-4.26,1.76l-15.44.77a6.37,6.37,0,0,0-3.75,1.47l-12.82,10.68a8,8,0,0,1-7.88,1.34l-8.55-3.21a5.18,5.18,0,0,0-5.48,1.19L810,395.5,803.53,402a6.59,6.59,0,0,1-3.67,1.85L770,408.35a4.85,4.85,0,0,0-1.79.66L756,416.5l-23,21-14.78,12.17a8,8,0,0,1-5.1,1.83H699.49a6.9,6.9,0,0,0-4.17,1.41L688,458.5l-3.4,4.76a6.66,6.66,0,0,1-4.31,2.69l-6.24,1a7.46,7.46,0,0,0-4.84,3l-9,12.8a7.61,7.61,0,0,1-3,2.52L651.29,488a7.53,7.53,0,0,1-6.52-.12l-2.09-1a3.12,3.12,0,0,0-4.13,1.27L635,494.5l-7.41,6.58a6.42,6.42,0,0,1-3.71,1.6l-8.19.68a4.23,4.23,0,0,0-2.82,1.4L605,513.5l-12.59,3.6a4.69,4.69,0,0,0-2.35,1.53L587.29,522a5.24,5.24,0,0,1-3.28,1.82l-12,1.72h-3a6.79,6.79,0,0,1-4.88-2.06l-28.61-29.35a7,7,0,0,0-3.73-2l-18.55-3.37a6.4,6.4,0,0,1-2.35-.93l-18-11.68a4.18,4.18,0,0,0-2.08-.68l-15.15-.84a5.74,5.74,0,0,1-3.09-1.13L423,436a7,7,0,0,0-4.57-1.4l-14,.74a9.21,9.21,0,0,1-4.61-1L376,422.5l-18.5-11.45a9.45,9.45,0,0,1-3.68-4.25l-4.48-10.23a3.12,3.12,0,0,0-4.31-1.52L323,406.5,320,409a7.73,7.73,0,0,1-6.71,1.6L304,408.5l-23-19-23-9-9.86-9a6.35,6.35,0,0,0-2.63-1.44l-11.37-3a9.53,9.53,0,0,1-3.82-2L204.71,343a7.77,7.77,0,0,0-4-1.79L184,338.78a8.58,8.58,0,0,1-3.58-1.38l-21.1-14.24a5.32,5.32,0,0,0-2.17-.86L146,320.5l-25.24-13.59a5.63,5.63,0,0,0-1.61-.58L102.72,303a7.85,7.85,0,0,1-4.5-2.67L86.89,286.86" transform="translate(-0.44 -107.18)"/>
            <path class="cls-2" d="M1045,266.5" transform="translate(-0.44 -107.18)"/>
            <path class="cls-2" d="M1015.75,230.75" transform="translate(-0.44 -107.18)"/>
        </g>
        <line class="cls-3" x1="1167.56" y1="270.32" x2="1167.56" y2="342.32"/>
        <polyline class="cls-2" points="770 565.82 794.56 571.27 818.06 563.32 838.56 578.32"/>
        <line class="cls-2" x1="934.87" y1="847.8" x2="962.56" y2="858.32"/>
    </g>
</svg>