<svg id="CONTENT" xmlns="http://www.w3.org/2000/svg" viewBox="0 0 1169.5 2015.9"><defs><style>.cls-1,.cls-2{stroke:#fff;stroke-miterlimit:10;}.cls-1{stroke-width:5px;}</style></defs><g id="JUNCTION_ONE_NEW" data-name="JUNCTION ONE NEW"><g id="I_JUNCTION_HAUT" data-name="I JUNCTION HAUT"><g id="Falaise_Droite_Haut" data-name="Falaise Droite Haut"><path class="cls-1" d="M1000.94,784.82V768.49s4.56-33.83,7.56-41.83-14.57-19.5-14.57-19.5V678.49l3.57-21.83-3.57-28.17-4.43-26.67,13.59-46.66-9.16-16-4.43-26v-18.5l2-24,17-21-7.56-17.84,2.15-52,6.41-45.16-8.56-31.5-4.44-22.5,6.59-68.5v-23l16.41-39.5,25-6,11-14,25-14,32-19L1128,59.13l39.5,28.37V638" transform="translate(-0.5 -55.26)"/><polyline class="cls-1" points="983 845.9 983.14 809.9 993.42 791.67 997 775.4 993.42 737.9 1009 719.4 1022 698.4 1035.83 698.4 1051 669.4 1057 664.56 1084.39 649.45 1089 630.4 1106 582.4 1119 552.4 1139 547.4 1159 551.4 1167 537.24 1167 700.74"/><polyline class="cls-1" points="942 959.4 947 909.4 956.5 893.9 961 863.4 977.5 841.08 1002.59 831.9 1017 807.4 1050 789.4 1084.39 740.76 1104 726.4 1139.17 716.86 1159 694.4 1167 683.24 1167 1007.74"/></g><g id="Falaise_Gauche_Haut" data-name="Falaise Gauche Haut"><path class="cls-1" d="M180.5,727.66l9.06-31a11.39,11.39,0,0,0,.17-6.1l-6.23-24.92-1.84-48.4,4.59-46.09a10.17,10.17,0,0,0-.71-4.85L167.8,523.38,153.43,502a5.61,5.61,0,0,1-1-3.05l-.92-46.87a10.42,10.42,0,0,1,1-4.69l17.34-36.21a12.26,12.26,0,0,0,1.2-5.29V356.76a5.6,5.6,0,0,0-.3-1.82l-5.76-16.78a16.86,16.86,0,0,1-.52-9.15l6.4-28.91-2.13-19.84A15.42,15.42,0,0,0,165,271.7l-9.33-10.56a19.68,19.68,0,0,1-3.44-5.55l-10.31-25.38a10.49,10.49,0,0,0-4.84-5.33L121,216.48a14.71,14.71,0,0,1-5.63-5.16l-11.3-17.76a13.85,13.85,0,0,0-8.69-6.1l-18.2-4a13.53,13.53,0,0,1-9.09-7L46.29,134a22.85,22.85,0,0,0-11.41-10.57L3.5,109.66v490.5" transform="translate(-0.5 -55.26)"/><polyline class="cls-1" points="179.56 716.86 167.77 712.56 147.5 707.9 122.5 691.9 103.83 674.07 87 661.9 51.5 650.9 31.83 674.07 3 687.9"/><path class="cls-1" d="M261.5,1015.66l-29-64-1.82-40.14a6.82,6.82,0,0,0-3.6-5.69l-2.87-1.53a7.25,7.25,0,0,1-3.73-7.67l2.69-15.15a8.2,8.2,0,0,0-.16-3.62l-5.51-20.2-8.57-41a10.91,10.91,0,0,0-1.59-3.77l-27.28-40.8a7.85,7.85,0,0,1-1.28-5l2.79-30.92a6.52,6.52,0,0,0-.12-2l-7.65-35.52a8.18,8.18,0,0,0-12.91-4.82L158.07,696a3.76,3.76,0,0,1-5.6-1.29L133.71,658a6.79,6.79,0,0,0-3.71-3.3l-29.46-10.94a7.64,7.64,0,0,0-6,.26L80.08,651a6.54,6.54,0,0,1-6.74-.68L41.56,626.21a8.3,8.3,0,0,1-2.87-4l-8.76-26.27a6.22,6.22,0,0,0-1.35-2.28l-23.08-25-2-2v470.5" transform="translate(-0.5 -55.26)"/><polyline class="cls-1" points="233.34 899.33 212.71 895.9 205 893.4 194 888.4 187 878.4 172 870.4 163 864.4 149 850.4 137.5 840.83 128.5 839.56 114 851.4 95.25 864.56 83 860.4 64 855.4 54 859.4 35 875.4 16 884.4 3 882.75"/></g><g id="Socle"><path class="cls-1" d="M87.5,1706.66c16.88-.36,36.13,0,44,3,19.44,7.37,23.42,16.66,39,17,10.77.22,13.21-4.12,28-4,13.19.1,16,3.59,24,4,29.5,1.48,42.18-43.61,68-41,13,1.31,14.75,13.22,26,12,18-2,18.23-33.08,37-38,14.78-3.89,21.14,13.71,56,26,17,6,26.34,4.69,41,1,31.35-7.91,36.43-39.07,59-40,12.66-.53,21-16,57,34,10.48,14.55,19.19,9,22,9,23-.13,19.67-22.74,50-22,14.5.35,17.67,10.74,33,11,15.64.26,21-18,34-16,9.45,1.46,8.87,11.45,25,26,12.76,11.51,25.87,16.75,34,20,12.64,5,20.37,8.14,31,8,23.67-.33,42.51-16.45,49-22,11.58-9.92,12.39-15.19,20-17,12.92-3.08,58.84,29.26,69,40" transform="translate(-0.5 -55.26)"/><path class="cls-1" d="M167.5,1781.66c37-24,74.18-3.91,91-14,25-15,29.08-11,44-18,35.69-16.76,37.06-39.36,61-42,22.91-2.53,31.09,17.13,54,15,21.12-2,33.81-23.79,44-40" transform="translate(-0.5 -55.26)"/><path class="cls-1" d="M593.5,1690.66l14.2,17.5a11.19,11.19,0,0,0,16,1.39l8.25-7.17a13.23,13.23,0,0,1,13.44-2.37l44.68,17.15L748,1749.75a13.16,13.16,0,0,0,12.26.35l39.15-19.23a22.38,22.38,0,0,1,17.45-1l20.84,7.51a10.84,10.84,0,0,0,10.09-1.47l24.09-17.77a14.5,14.5,0,0,1,16.62-.43l12.48,8.26" transform="translate(-0.5 -55.26)"/><path class="cls-1" d="M3.5,1923.16" transform="translate(-0.5 -55.26)"/><line class="cls-1" x1="1167" y1="1719.74" x2="1167" y2="1607.74"/><line class="cls-1" x1="3" y1="1639.4" x2="3" y2="1735.9"/><path class="cls-1" d="M124.5,1812.66l3.62,19a5.31,5.31,0,0,0,2,3.26l21.75,16.52a5.31,5.31,0,0,0,3.65,1.07l7.21-.61a6,6,0,0,1,4.71,1.73l10.05,10.05,10.68,15.12a5.85,5.85,0,0,0,3.56,2.36l9.38,2a6.49,6.49,0,0,1,3.85,2.44l12.43,16.31a5.56,5.56,0,0,0,5.5,2.08l19.3-3.86a6.07,6.07,0,0,1,4.31.74l10.71,6.43a7.18,7.18,0,0,0,4.9.91l17.44-3a6.08,6.08,0,0,1,5.15,1.48l6,5.37a6.89,6.89,0,0,0,4.26,1.76l15.44.77a6.36,6.36,0,0,1,3.75,1.46L327,1926.7a7.93,7.93,0,0,0,7.88,1.33l8.55-3.2a5.18,5.18,0,0,1,5.48,1.18l12.64,12.65,6.47,6.47a6.59,6.59,0,0,0,3.67,1.85l29.9,4.53a4.85,4.85,0,0,1,1.79.66l12.17,7.49,23,21,14.78,12.17a8,8,0,0,0,5.1,1.83H472a6.84,6.84,0,0,1,4.17,1.41l7.32,5.59,3.4,4.76a6.66,6.66,0,0,0,4.31,2.69l6.24,1a7.44,7.44,0,0,1,4.84,3l9,12.81a7.5,7.5,0,0,0,3,2.51l5.85,2.66a7.56,7.56,0,0,0,6.52-.12l2.09-1a3.13,3.13,0,0,1,4.13,1.28l3.55,6.39,7.41,6.58a6.35,6.35,0,0,0,3.71,1.59l8.19.68a4.28,4.28,0,0,1,2.82,1.4l7.87,8.75,12.59,3.59a4.76,4.76,0,0,1,2.35,1.53l2.77,3.33a5.2,5.2,0,0,0,3.28,1.83l12,1.72h3a6.83,6.83,0,0,0,4.88-2.06L636,2037.25a6.93,6.93,0,0,1,3.73-2l18.55-3.37a6.42,6.42,0,0,0,2.35-.94l18-11.68a4.28,4.28,0,0,1,2.08-.68l15.15-.84a5.66,5.66,0,0,0,3.09-1.13l49.6-37.43a7,7,0,0,1,4.57-1.4l14,.74a9.32,9.32,0,0,0,4.61-1l23.82-11.91,18.5-11.45a9.5,9.5,0,0,0,3.68-4.25l4.48-10.24a3.12,3.12,0,0,1,4.31-1.52l22,11.46,3,2.53a7.79,7.79,0,0,0,6.71,1.6l9.25-2.13,23-19,23-9,9.86-9a6.33,6.33,0,0,1,2.63-1.43l11.37-3a9.78,9.78,0,0,0,3.82-2l25.61-22.08a7.69,7.69,0,0,1,4-1.79l16.81-2.41a8.45,8.45,0,0,0,3.58-1.38l21.1-14.24a5.47,5.47,0,0,1,2.17-.86l11.1-1.79,25.24-13.6a5.61,5.61,0,0,1,1.61-.57l16.43-3.29a7.85,7.85,0,0,0,4.5-2.67l11.33-13.52" transform="translate(-0.5 -55.26)"/><path class="cls-1" d="M328.5,1625.66l-17.28-17.29a13.53,13.53,0,0,0-8.6-3.93,43.79,43.79,0,0,0-7.24.08,13.47,13.47,0,0,0-7.1,2.92l-27.45,22.11a50,50,0,0,1-7.5,5,13.33,13.33,0,0,1-12.14.22l-2.95-1.41a17,17,0,0,0-21.26,6.27c-2.66,4.33-5.39,9.17-19,14.84a4.7,4.7,0,0,1-.88.27c-13.68,3-19.81,7.82-37.55,18.91-.3.18-14.58,9.81-15,10s-4.56,2-6.3,2.71a4.61,4.61,0,0,1-1.37.35l-30,2.9a3.82,3.82,0,0,0-.69.12c-15.49,4-26.35,16.83-17.27,22.56a4.52,4.52,0,0,1,1.06.88l11.23,13.1a4.78,4.78,0,0,1,.57.84c1,1.87,3.46,7,4.51,7.72l15.07,15.57a11.9,11.9,0,0,0,5.37,3.21c4.48,1.27,12.11,3.34,12.39,3.63l16.66,16.66.1.07c34.4,18.44-4.06,30.29-31.11,35.19a1.9,1.9,0,0,0-.11,3.72l29.05,7.12,9.9,2.42a13,13,0,0,0,1.87.32l59.05,5.91,54,5h38.1a.51.51,0,0,1,.17,0l21.68,8.94.15,0,38.92,2,60,3h21.43a.34.34,0,0,1,.14,0l39.34,13a.55.55,0,0,0,.18,0l25.84-2h.14l28.83,7a.34.34,0,0,0,.2,0l29.44-6.87a.45.45,0,0,0,.33-.56l-4.69-15.93a.45.45,0,0,1,.46-.57l59.3,4h.12l31.81-7a.42.42,0,0,1,.25,0l10.78,3.92a.49.49,0,0,0,.21,0l36.78-5a.42.42,0,0,1,.22,0l25.8,9.92a.57.57,0,0,0,.18,0l55.88-2h.06l20.91-4h.12l29.89,2h.1l46.91-8h.08l93.89,2h.14l36.85-11a.47.47,0,0,1,.17,0l50.8,5a.39.39,0,0,0,.21,0l4-1.6a.45.45,0,0,0,.05-.81l-47.15-25.54h0l-25-16-.08,0-58.9-23-.11-.06-59-43.41a2.52,2.52,0,0,1,2-4.51l31,5.8a7.94,7.94,0,0,0,8.72-4.58h0a4.59,4.59,0,0,1,5-2.66l23.71,4.09a9.26,9.26,0,0,0,3.52-.08l39.5-8.78a8.75,8.75,0,0,1,6.9,1.36l4.29,3a8.17,8.17,0,0,0,8.71.4l22.25-12.69,14.37-8.2c.8-.46,3-4.28,3-4.28a.45.45,0,0,0-.23-.61l-30.44-13.19a7.21,7.21,0,0,0-2.39-.82l-29.11-4.55a11,11,0,0,1-3.1-1l-10.44-5a4.6,4.6,0,0,0-1.22-.4L965.44,1660a8.57,8.57,0,0,1-3.53-1.53l-20.43-15.1a8.72,8.72,0,0,0-2.12-1.15l-28-10.49a4.8,4.8,0,0,0-5.09,1.11l-18,18a7.24,7.24,0,0,1-4.45,2.08l-17.32,1.58a8.59,8.59,0,0,1-4-.61l-14.87-6.12-.4-.19-38-19.9a14.21,14.21,0,0,0-8.07-1.55L779,1628.4a11.42,11.42,0,0,1-4.82-.54l-33.92-11.55a16.08,16.08,0,0,0-17.77,5.23l-9.31,11.76a12.71,12.71,0,0,1-6.79,4.43l-13.52,3.53a17.4,17.4,0,0,1-10.51-.54l-10.55-4a4.82,4.82,0,0,0-1.5-.3l-18.08-.69a17.79,17.79,0,0,0-13.38,5.32l-11.49,11.72a4.82,4.82,0,0,1-2,1.21l-22.71,7.35a20.74,20.74,0,0,1-18.73-3.08l-23.18-17.22a17.81,17.81,0,0,0-7.17-3.17l-.1,0-25-11.79a10.89,10.89,0,0,0-6.34-.9L508,1628.66a3.55,3.55,0,0,1-3.4-1c-5.83-6.18-14.77-13.44-26.08-14-20.46-1-30,20.77-46,17-15.21-3.6-21.09-26.79-30.75-24.17a8,8,0,0,0-4.25,3.17,112.65,112.65,0,0,1-21.4,22.1c-2.64,2-7.37,10.32-13.1,9.4-9.25-1.5-11.2-8.16-18.92-12.43-5.22-2.89-15.58-11.07-38.58,5.93" transform="translate(-0.5 -55.26)"/></g><g id="Socle-2" data-name="Socle"><polyline class="cls-2" points="1 1004.9 87.5 979.9 252.5 961.9 337.5 986.9 417.5 975.9 547.5 1004.9 646.5 991.9 755.5 1041.75 963.5 1020.25 1076.5 1013.55 1168.5 1013.9 1167.5 1391.74 1153.5 1407.74 1139.5 1412.74 1124.5 1405.74 1104.5 1390.74 1098.5 1376.74 1076.5 1373.74 1045.5 1396.74 1027.5 1407.74 995.5 1396.74 964.5 1413.74 934.5 1390.74 916.5 1381.74 897.5 1374.74 864.5 1396.74 855.5 1399.74 825.5 1382.74 821.5 1383.74 815.5 1397.74 768.5 1424.74 749.5 1422.74 696.5 1462.74 679.5 1463.74 660.5 1475.74 637.5 1480.74 620.5 1497.74 603.73 1512.74 597.5 1511.74 584.5 1509.74 573.5 1503.74 563.5 1498.74 555.5 1490.74 543.5 1489.74 538.5 1483.74 529.89 1474.16 520.5 1475.74 511.5 1470.74 504.5 1458.74 487.5 1450.74 473.5 1440.74 456.5 1439.74 428.5 1416.74 403.5 1395.74 375.5 1394.74 350.5 1415.74 333.5 1427.74 316.5 1424.74 303.5 1416.74 283.5 1426.74 264.5 1447.74 248.5 1444.74 232.5 1430.74 199.5 1418.74 167.5 1412.74 144.02 1426.78 118.5 1437.74 106.5 1452.74 92.5 1455.74 82.5 1452.74 55.5 1428.74 52.5 1412.74 30.5 1401.74 3.5 1365.74"/><path class="cls-1" d="M87.5,1206.66c16.88-.36,36.13,0,44,3,19.44,7.37,23.42,16.66,39,17,10.77.22,13.21-4.12,28-4,13.19.1,16,3.59,24,4,29.5,1.48,42.18-43.61,68-41,13,1.31,14.75,13.22,26,12,18-2,18.23-33.08,37-38,14.78-3.89,21.14,13.71,56,26,17,6,26.34,4.69,41,1,31.35-7.91,36.43-39.07,59-40,12.66-.53,21-16,57,34,10.48,14.55,19.19,9,22,9,23-.13,19.67-22.74,50-22,14.5.35,17.67,10.74,33,11,15.64.26,21-18,34-16,9.45,1.46,8.87,11.45,25,26,12.76,11.51,25.87,16.75,34,20,12.64,5,20.37,8.14,31,8,23.67-.33,42.51-16.45,49-22,11.58-9.92,12.39-15.19,20-17,12.92-3.08,58.84,29.26,69,40" transform="translate(-0.5 -55.26)"/><path class="cls-1" d="M167.5,1281.66c37-24,74.18-3.91,91-14,25-15,29.08-11,44-18,35.69-16.76,37.06-39.36,61-42,22.91-2.53,31.09,17.13,54,15,21.12-2,33.81-23.79,44-40" transform="translate(-0.5 -55.26)"/><path class="cls-1" d="M593.5,1190.66l14.2,17.5a11.19,11.19,0,0,0,16,1.39l8.25-7.17a13.23,13.23,0,0,1,13.44-2.37l44.68,17.15L748,1249.75a13.16,13.16,0,0,0,12.26.35l39.15-19.23a22.38,22.38,0,0,1,17.45-1l20.84,7.51a10.84,10.84,0,0,0,10.09-1.47l24.09-17.77a14.5,14.5,0,0,1,16.62-.43l12.48,8.26" transform="translate(-0.5 -55.26)"/><path class="cls-1" d="M93.21,1217,77,1216.16l-28-9-22.81-12.78a8.26,8.26,0,0,0-4.69-1l-18,1.31v-110.5" transform="translate(-0.5 -55.26)"/><path class="cls-1" d="M787.5,1060.66l40.82-26.91a6.22,6.22,0,0,1,6.49-.22l15.62,8.82a5.68,5.68,0,0,0,5.24.2l35.83-16.89,29.23-32.9a6.5,6.5,0,0,1,7.4-1.67l34.37,14.57,40.59,20.83,23.87,4.67a10.25,10.25,0,0,0,5-.28l26.36-8.27,23-8.08a9.58,9.58,0,0,1,11.85,5l6.11,13.09a8.71,8.71,0,0,0,5.43,4.66l21.79,6.4L1144,1056l23.5,6.54v10l-13.5,10.57a10.13,10.13,0,0,1-5.45,1.59h-30.21a10.87,10.87,0,0,1-6.1-1.88l-19.42-13.19a7.92,7.92,0,0,0-8.72-.12l-31.31,20.08a16.89,16.89,0,0,1-7.17,2.55l-42,4.75a11.06,11.06,0,0,1-5.25-.68l-32-12.38a8.88,8.88,0,0,0-5.91-.2l-42.33,13.2a13.06,13.06,0,0,1-2.41.5L855.12,1104a9.53,9.53,0,0,1-5.84-1.22L828.89,1091a8.89,8.89,0,0,0-5.14-1.16l-23.25,1.79" transform="translate(-0.5 -55.26)"/><path class="cls-1" d="M1023.5,1294.66l7.59-20.89a5.85,5.85,0,0,1,1.22-2l11.18-12a7.91,7.91,0,0,0,1.55-2.48l8.63-22.29,14.13-26a4.94,4.94,0,0,0,.59-2.74l-1.33-16.73" transform="translate(-0.5 -55.26)"/><path class="cls-1" d="M1167.5,1073.16v89.34l-11.77,7a4,4,0,0,1-.47.22l-17.76,6.91-12.89,3.43a7.26,7.26,0,0,0-3.56,2.2L1100,1206.12a6.3,6.3,0,0,1-1,1l-18.13,13.38a5.47,5.47,0,0,1-1.76.87l-21.54,6.33" transform="translate(-0.5 -55.26)"/><path class="cls-1" d="M145.5,1346.66s-15,10-17,9c-1.68-.85-16.94-5.23-21.73-6.6a7,7,0,0,0-2.91-.19l-12.36,1.79-6,1.7a5.59,5.59,0,0,1-6.86-3.68l-3.19-10L72,1327.19a7.3,7.3,0,0,0-1.54-2.74L60,1312.66l-7.56-6a8.43,8.43,0,0,0-8.8-1l-1.89.9a8.52,8.52,0,0,1-4.72.73L26.92,1306a12.16,12.16,0,0,1-4.53-1.56L7.5,1295.66l-4-10v135l3,8,9.17,12,11.83,15,21,10.14a7.39,7.39,0,0,1,4.18,6.66v4.22a8.35,8.35,0,0,0,3.08,6.48l6.75,5.5,8.73,12.22a9.8,9.8,0,0,0,3.17,2.84l12,6.78a7.38,7.38,0,0,0,4.39.91l12.7-1.34a9,9,0,0,0,6.32-3.63l7-9.57a9.81,9.81,0,0,1,4.17-3.26l17-6.95,14.54-8.54a10.56,10.56,0,0,0,1.49-1.06l11.24-9.66a4.76,4.76,0,0,1,4.94-.77l14.29,6,25,3,22.17,11,10.63,9.88a8.48,8.48,0,0,0,2.72,1.7l14.52,5.52a7.34,7.34,0,0,0,8.31-2.23l9.65-11.87,6.83-8,17.52-9.11a6.09,6.09,0,0,1,6.77.78l8,6.89a6,6,0,0,0,3.88,1.44H332a10.09,10.09,0,0,0,6.2-2.14l37.27-32" transform="translate(-0.5 -55.26)"/><path class="cls-1" d="M3.5,1423.16" transform="translate(-0.5 -55.26)"/><path class="cls-1" d="M1069.5,1320.66c4-4,31.44-8,31.44-8l16.56-11,24-5,15-9,12-5.62" transform="translate(-0.5 -55.26)"/><polyline class="cls-1" points="1167 1267.9 1167 1392.74 1165 1395.24 1154.39 1409.29 1140 1412.4 1126 1406.4 1104 1389.4 1100 1377.4 1077 1373.4 1051 1389.4 1045.45 1397.9 1027 1407.4 996.28 1395.9 966 1414.4 935 1390.4 900 1374.4"/><line class="cls-1" x1="1167" y1="1219.74" x2="1167" y2="1107.74"/><line class="cls-1" x1="3" y1="1139.4" x2="3" y2="1235.9"/><path class="cls-1" d="M953.5,1398.66l23,16,10,3,12-1s14,6,14,7,12,3,12,3l6-4,6.28-9,7.72-7,6-5,23-9,9-14,15-8h18.17l13.83-24,9-10,17-3,10-8,2-3.16v-49l-26,4.16-41,8-32.1-10.73-27.9,12.73-15,1" transform="translate(-0.5 -55.26)"/><path class="cls-1" d="M736.5,1115.66l-51.46-33a17,17,0,0,0-3.26-1.61l-66.52-24.14a14.31,14.31,0,0,0-14.17.62L581,1070.16,542.73,1088a18.35,18.35,0,0,1-13.75.71l-22-7.57-39-18-14-15.8a17.26,17.26,0,0,0-21-3.79l-10.84,5.78a15.35,15.35,0,0,1-14.31.06l-16.89-8.81a14.69,14.69,0,0,0-13.28-.15L356,1051.16l-25,12-13.78-1.2a13.45,13.45,0,0,1-11.76-9.7l-1.46-5.1-20-22-26.23-3.86a13.53,13.53,0,0,0-12.62,5l-6.15,7.83-31,17-5.85,9.57a13.93,13.93,0,0,1-14.8,6.36L155,1060.16l-26-10-23.13-11.94a11.78,11.78,0,0,0-14,2.37L80,1053.16l-15.59,14.17a12.17,12.17,0,0,1-14,1.68l-7.69-4.2a12.21,12.21,0,0,0-12.93.79L15,1076.16l-11.5,8.5v-80l15.72-13.18a3.71,3.71,0,0,1,4.59,0L41.36,1005a5.63,5.63,0,0,0,4.77,1l24.56-5.93a5.2,5.2,0,0,1,3.49.38l28.82,14a6.76,6.76,0,0,0,5.13.32L122,1010a5.56,5.56,0,0,1,4.69.49l25.81,15.4a5.77,5.77,0,0,0,5.92,0l32-19.22L219.55,993a7.24,7.24,0,0,1,5.94-.1l18.44,7.9a8.47,8.47,0,0,0,3.72.66l6-.32,8.49-.45a7.14,7.14,0,0,1,2.67.37L306,1015.16a8,8,0,0,1,2.63,1.49l23,19.59a7.06,7.06,0,0,0,6.44,1.43l27.23-7.42a8.5,8.5,0,0,0,3.76-2.18l14.26-14.26a8.41,8.41,0,0,1,5.18-2.43l8-.72,37.92,6.47a8.81,8.81,0,0,0,5.8-1l12-6.76a7.39,7.39,0,0,0,2.15-1.82l12.06-14.89a9.11,9.11,0,0,1,10.1-2.87l41.12,14.41a9.66,9.66,0,0,0,2.72.54l33.77,1.8a10.58,10.58,0,0,1,4.39,1.22l44.62,23.78a4.31,4.31,0,0,0,2.9.43l19.44-3.91a5.9,5.9,0,0,0,3.31-1.92l17-19.53a3.65,3.65,0,0,1,4.09-1l15.6,6.07,32.18,18.53a6.49,6.49,0,0,0,1.74.68l28,6.52a5.81,5.81,0,0,1,2.07.94l13.06,9.33,11.61,4h17.58a8.9,8.9,0,0,1,5.11,1.61l17.7,12.39,8.44,3a5.86,5.86,0,0,1,3.54,7.53l-4.9,13.49a10.42,10.42,0,0,1-3.63,4.83l-38.45,28.14" transform="translate(-0.5 -55.26)"/><path class="cls-1" d="M124.5,1312.66l3.62,19a5.31,5.31,0,0,0,2,3.26l21.75,16.52a5.31,5.31,0,0,0,3.65,1.07l7.21-.61a6,6,0,0,1,4.71,1.73l10.05,10.05,10.68,15.12a5.85,5.85,0,0,0,3.56,2.36l9.38,2a6.49,6.49,0,0,1,3.85,2.44l12.43,16.31a5.56,5.56,0,0,0,5.5,2.08l19.3-3.86a6.07,6.07,0,0,1,4.31.74l10.71,6.43a7.18,7.18,0,0,0,4.9.91l17.44-3a6.08,6.08,0,0,1,5.15,1.48l6,5.37a6.89,6.89,0,0,0,4.26,1.76l15.44.77a6.36,6.36,0,0,1,3.75,1.46L327,1426.7a7.93,7.93,0,0,0,7.88,1.33l8.55-3.2a5.18,5.18,0,0,1,5.48,1.18l12.64,12.65,6.47,6.47a6.59,6.59,0,0,0,3.67,1.85l29.9,4.53a4.85,4.85,0,0,1,1.79.66l12.17,7.49,23,21,14.78,12.17a8,8,0,0,0,5.1,1.83H472a6.84,6.84,0,0,1,4.17,1.41l7.32,5.59,3.4,4.76a6.66,6.66,0,0,0,4.31,2.69l6.24,1a7.44,7.44,0,0,1,4.84,3l9,12.81a7.5,7.5,0,0,0,3,2.51l5.85,2.66a7.56,7.56,0,0,0,6.52-.12l2.09-1a3.13,3.13,0,0,1,4.13,1.28l3.55,6.39,7.41,6.58a6.35,6.35,0,0,0,3.71,1.59l8.19.68a4.28,4.28,0,0,1,2.82,1.4l7.87,8.75,12.59,3.59a4.76,4.76,0,0,1,2.35,1.53l2.77,3.33a5.2,5.2,0,0,0,3.28,1.83l12,1.72h3a6.83,6.83,0,0,0,4.88-2.06L636,1537.25a6.93,6.93,0,0,1,3.73-2l18.55-3.37a6.42,6.42,0,0,0,2.35-.94l18-11.68a4.28,4.28,0,0,1,2.08-.68l15.15-.84a5.66,5.66,0,0,0,3.09-1.13l49.6-37.43a7,7,0,0,1,4.57-1.4l14,.74a9.32,9.32,0,0,0,4.61-1l23.82-11.91,18.5-11.45a9.5,9.5,0,0,0,3.68-4.25l4.48-10.24a3.12,3.12,0,0,1,4.31-1.52l22,11.46,3,2.53a7.79,7.79,0,0,0,6.71,1.6l9.25-2.13,23-19,23-9,9.86-9a6.33,6.33,0,0,1,2.63-1.43l11.37-3a9.78,9.78,0,0,0,3.82-2l25.61-22.08a7.69,7.69,0,0,1,4-1.79l16.81-2.41a8.45,8.45,0,0,0,3.58-1.38l21.1-14.24a5.47,5.47,0,0,1,2.17-.86l11.1-1.79,25.24-13.6a5.61,5.61,0,0,1,1.61-.57l16.43-3.29a7.85,7.85,0,0,0,4.5-2.67l11.33-13.52" transform="translate(-0.5 -55.26)"/><path class="cls-1" d="M328.5,1125.66l-17.28-17.29a13.53,13.53,0,0,0-8.6-3.93,43.79,43.79,0,0,0-7.24.08,13.47,13.47,0,0,0-7.1,2.92l-27.45,22.11a50,50,0,0,1-7.5,5,13.33,13.33,0,0,1-12.14.22l-2.95-1.41a17,17,0,0,0-21.26,6.27c-2.66,4.33-5.39,9.17-19,14.84a4.7,4.7,0,0,1-.88.27c-13.68,3-19.81,7.82-37.55,18.91-.3.18-14.58,9.81-15,10s-4.56,2-6.3,2.71a4.61,4.61,0,0,1-1.37.35l-30,2.9a3.82,3.82,0,0,0-.69.12c-15.49,4-26.35,16.83-17.27,22.56a4.52,4.52,0,0,1,1.06.88l11.23,13.1a4.78,4.78,0,0,1,.57.84c1,1.87,3.46,7,4.51,7.72l15.07,15.57a11.9,11.9,0,0,0,5.37,3.21c4.48,1.27,12.11,3.34,12.39,3.63l16.66,16.66.1.07c34.4,18.44-4.06,30.29-31.11,35.19a1.9,1.9,0,0,0-.11,3.72l29.05,7.12,9.9,2.42a13,13,0,0,0,1.87.32l59.05,5.91,54,5h38.1a.51.51,0,0,1,.17,0l21.68,8.94.15,0,38.92,2,60,3h21.43a.34.34,0,0,1,.14,0l39.34,13a.55.55,0,0,0,.18,0l25.84-2h.14l28.83,7a.34.34,0,0,0,.2,0l29.44-6.87a.45.45,0,0,0,.33-.56l-4.69-15.93a.45.45,0,0,1,.46-.57l59.3,4h.12l31.81-7a.42.42,0,0,1,.25,0l10.78,3.92a.49.49,0,0,0,.21,0l36.78-5a.42.42,0,0,1,.22,0l25.8,9.92a.57.57,0,0,0,.18,0l55.88-2h.06l20.91-4h.12l29.89,2h.1l46.91-8h.08l93.89,2h.14l36.85-11a.47.47,0,0,1,.17,0l50.8,5a.39.39,0,0,0,.21,0l4-1.6a.45.45,0,0,0,.05-.81l-47.15-25.54h0l-25-16-.08,0-58.9-23-.11-.06-59-43.41a2.52,2.52,0,0,1,2-4.51l31,5.8a7.94,7.94,0,0,0,8.72-4.58h0a4.59,4.59,0,0,1,5-2.66l23.71,4.09a9.26,9.26,0,0,0,3.52-.08l39.5-8.78a8.75,8.75,0,0,1,6.9,1.36l4.29,3a8.17,8.17,0,0,0,8.71.4l22.25-12.69,14.37-8.2c.8-.46,3-4.28,3-4.28a.45.45,0,0,0-.23-.61l-30.44-13.19a7.21,7.21,0,0,0-2.39-.82l-29.11-4.55a11,11,0,0,1-3.1-1l-10.44-5a4.6,4.6,0,0,0-1.22-.4L965.44,1160a8.57,8.57,0,0,1-3.53-1.53l-20.43-15.1a8.72,8.72,0,0,0-2.12-1.15l-28-10.49a4.8,4.8,0,0,0-5.09,1.11l-18,18a7.24,7.24,0,0,1-4.45,2.08l-17.32,1.58a8.59,8.59,0,0,1-4-.61l-14.87-6.12-.4-.19-38-19.9a14.21,14.21,0,0,0-8.07-1.55L779,1128.4a11.42,11.42,0,0,1-4.82-.54l-33.92-11.55a16.08,16.08,0,0,0-17.77,5.23l-9.31,11.76a12.71,12.71,0,0,1-6.79,4.43l-13.52,3.53a17.4,17.4,0,0,1-10.51-.54l-10.55-4a4.82,4.82,0,0,0-1.5-.3l-18.08-.69a17.79,17.79,0,0,0-13.38,5.32l-11.49,11.72a4.82,4.82,0,0,1-2,1.21l-22.71,7.35a20.74,20.74,0,0,1-18.73-3.08l-23.18-17.22a17.81,17.81,0,0,0-7.17-3.17l-.1,0-25-11.79a10.89,10.89,0,0,0-6.34-.9L508,1128.66a3.55,3.55,0,0,1-3.4-1c-5.83-6.18-14.77-13.44-26.08-14-20.46-1-30,20.77-46,17-15.21-3.6-21.09-26.79-30.75-24.17a8,8,0,0,0-4.25,3.17,112.65,112.65,0,0,1-21.4,22.1c-2.64,2-7.37,10.32-13.1,9.4-9.25-1.5-11.2-8.16-18.92-12.43-5.22-2.89-15.58-11.07-38.58,5.93" transform="translate(-0.5 -55.26)"/></g><g id="Socle-3" data-name="Socle"><polyline class="cls-2" points="1168.5 1752.51 1082 1777.51 917 1795.51 832 1770.51 752 1781.51 622 1752.51 523 1765.51 414 1715.66 206 1737.16 93 1743.85 1 1743.51 2 1365.66 16 1349.66 30 1344.66 45 1351.66 65 1366.66 71 1380.66 93 1383.66 124 1360.66 142 1349.66 174 1360.66 205 1343.66 235 1366.66 253 1375.66 272 1382.66 305 1360.66 314 1357.66 344 1374.66 348 1373.66 354 1359.66 401 1332.66 420 1334.66 473 1294.66 490 1293.66 509 1281.66 532 1276.66 549 1259.66 565.77 1244.66 572 1245.66 585 1247.66 596 1253.66 606 1258.66 614 1266.66 626 1267.66 631 1273.66 639.61 1283.24 649 1281.66 658 1286.66 665 1298.66 682 1306.66 696 1316.66 713 1317.66 741 1340.66 766 1361.66 794 1362.66 819 1341.66 836 1329.66 853 1332.66 866 1340.66 886 1330.66 905 1309.66 921 1312.66 937 1326.66 970 1338.66 1002 1344.66 1025.48 1330.62 1051 1319.66 1063 1304.66 1077 1301.66 1087 1304.66 1114 1328.66 1117 1344.66 1139 1355.66 1166 1391.66"/><path class="cls-1" d="M1083,1661.27c-16.88.35-36.13,0-44-3-19.44-7.38-23.42-16.67-39-17-10.77-.23-13.21,4.11-28,4-13.19-.11-16-3.6-24-4-29.5-1.49-42.18,43.6-68,41-13-1.32-14.75-13.23-26-12-18,2-18.23,33.07-37,38-14.78,3.88-21.14-13.72-56-26-17-6-26.34-4.7-41-1-31.35,7.9-36.43,39.06-59,40-12.66.52-21,16-57-34-10.48-14.56-19.19-9-22-9-23,.12-19.67,22.73-50,22-14.5-.36-17.67-10.75-33-11-15.64-.27-21,18-34,16-9.45-1.47-8.87-11.46-25-26-12.76-11.52-25.87-16.76-34-20-12.64-5.06-20.37-8.15-31-8-23.67.32-42.51,16.44-49,22-11.58,9.91-12.39,15.18-20,17-12.92,3.08-58.84-29.27-69-40" transform="translate(-0.5 -55.26)"/><path class="cls-1" d="M1003,1586.27c-37,24-74.18,3.9-91,14-25,15-29.08,11-44,18-35.69,16.75-37.06,39.35-61,42-22.91,2.52-31.09-17.14-54-15-21.12,2-33.81,23.78-44,40" transform="translate(-0.5 -55.26)"/><path class="cls-1" d="M577,1677.27l-14.2-17.51a11.19,11.19,0,0,0-16-1.39l-8.25,7.17a13.23,13.23,0,0,1-13.44,2.37l-44.68-17.14-57.85-32.6a13.16,13.16,0,0,0-12.26-.35l-39.15,19.23a22.38,22.38,0,0,1-17.45,1l-20.84-7.51a10.84,10.84,0,0,0-10.09,1.47l-24.09,17.77a14.5,14.5,0,0,1-16.62.43l-12.48-8.26" transform="translate(-0.5 -55.26)"/><path class="cls-1" d="M1077.29,1650.94l16.21.83,28,9,22.81,12.77a8.26,8.26,0,0,0,4.69,1l18-1.3v110.5" transform="translate(-0.5 -55.26)"/><path class="cls-1" d="M383,1807.27l-40.82,26.9a6.22,6.22,0,0,1-6.49.22l-15.62-8.82a5.71,5.71,0,0,0-5.24-.2L279,1842.27l-29.23,32.89a6.5,6.5,0,0,1-7.4,1.67L208,1862.27l-40.59-20.84-23.87-4.67a10.25,10.25,0,0,0-5,.28l-26.36,8.27-23,8.08a9.58,9.58,0,0,1-11.85-5l-6.11-13.09a8.71,8.71,0,0,0-5.43-4.66L44,1824.27,26.5,1812,3,1805.42v-10l13.5-10.57a10.12,10.12,0,0,1,5.45-1.58H52.16a10.86,10.86,0,0,1,6.1,1.87l19.42,13.19a7.92,7.92,0,0,0,8.72.12l31.31-20.08a16.74,16.74,0,0,1,7.17-2.54l42-4.76a11.06,11.06,0,0,1,5.25.68l32,12.38a8.88,8.88,0,0,0,5.91.2l42.33-13.2a13.06,13.06,0,0,1,2.41-.5l60.65-6.69a9.53,9.53,0,0,1,5.84,1.22l20.39,11.73a8.89,8.89,0,0,0,5.14,1.16l23.25-1.78" transform="translate(-0.5 -55.26)"/><path class="cls-1" d="M147,1573.27l-7.59,20.88a5.85,5.85,0,0,1-1.22,2l-11.18,12a7.91,7.91,0,0,0-1.55,2.48l-8.63,22.29-14.13,26a4.94,4.94,0,0,0-.59,2.74l1.33,16.73" transform="translate(-0.5 -55.26)"/><path class="cls-1" d="M3,1794.77v-89.35l11.77-7a4,4,0,0,1,.47-.22l17.76-6.9,12.89-3.44a7.26,7.26,0,0,0,3.56-2.2l21.08-23.83a6.3,6.3,0,0,1,1-1l18.13-13.38a5.47,5.47,0,0,1,1.76-.87l21.54-6.32" transform="translate(-0.5 -55.26)"/><path class="cls-1" d="M1025,1521.27s15-10,17-9c1.68.84,16.94,5.22,21.73,6.59a7,7,0,0,0,2.91.19l12.36-1.78,6-1.71a5.59,5.59,0,0,1,6.86,3.68l3.19,10,3.53,11.46a7.3,7.3,0,0,0,1.54,2.74l10.43,11.8,7.56,5.94a8.43,8.43,0,0,0,8.8,1l1.89-.9a8.52,8.52,0,0,1,4.72-.73l10.11,1.35a12.34,12.34,0,0,1,4.53,1.56l14.89,8.77,4,10v-135l-3-8-9.17-12-11.83-15-21-10.15a7.39,7.39,0,0,1-4.18-6.66v-4.22a8.35,8.35,0,0,0-3.08-6.48l-6.75-5.49-8.73-12.23a9.8,9.8,0,0,0-3.17-2.84l-12-6.78a7.38,7.38,0,0,0-4.39-.91l-12.7,1.34a9,9,0,0,0-6.32,3.63l-7,9.57a9.81,9.81,0,0,1-4.17,3.26l-17,7L1018,1389.8a10.56,10.56,0,0,0-1.49,1.06l-11.24,9.66a4.76,4.76,0,0,1-4.94.77l-14.29-6-25-3-22.17-11-10.63-9.89a8.48,8.48,0,0,0-2.72-1.7L911,1364.16a7.34,7.34,0,0,0-8.31,2.23L893,1378.27l-6.83,8-17.52,9.1a6.07,6.07,0,0,1-6.77-.78l-8-6.89a5.94,5.94,0,0,0-3.88-1.43H838.47a10.08,10.08,0,0,0-6.2,2.13l-37.27,32" transform="translate(-0.5 -55.26)"/><path class="cls-1" d="M1167,1444.77" transform="translate(-0.5 -55.26)"/><path class="cls-1" d="M101,1547.27c-4,4-31.44,8-31.44,8l-16.56,11-24,5-15,9-12,5.61" transform="translate(-0.5 -55.26)"/><polyline class="cls-1" points="2.5 1489.51 2.5 1364.66 4.5 1362.16 15.11 1348.12 29.5 1345.01 43.5 1351.01 65.5 1368.01 69.5 1380.01 92.5 1384.01 118.5 1368.01 124.05 1359.51 142.5 1350.01 173.22 1361.51 203.5 1343.01 234.5 1367.01 269.5 1383.01"/><line class="cls-1" x1="2.5" y1="1537.66" x2="2.5" y2="1649.66"/><line class="cls-1" x1="1166.5" y1="1618.01" x2="1166.5" y2="1521.51"/><path class="cls-1" d="M217,1469.27l-23-16-10-3-12,1s-14-6-14-7-12-3-12-3l-6,4-6.28,9-7.72,7-6,5-23,9-9,14-15,8H54.83l-13.83,24-9,10-17,3-10,8-2,3.15v49l26-4.15,41-8L102.1,1593l27.9-12.72,15-1" transform="translate(-0.5 -55.26)"/><path class="cls-1" d="M434,1752.27l51.46,33a17,17,0,0,0,3.26,1.61L555.24,1811a14.31,14.31,0,0,0,14.17-.62l20.09-12.64,38.27-17.86a18.3,18.3,0,0,1,13.75-.72l22,7.58,39,18,14,15.79a17.26,17.26,0,0,0,21,3.79l10.84-5.78a15.35,15.35,0,0,1,14.31-.06l16.89,8.81a14.66,14.66,0,0,0,13.28.15l21.66-10.7,25-12,13.78,1.19a13.45,13.45,0,0,1,11.76,9.7l1.46,5.11,20,22,26.23,3.85a13.53,13.53,0,0,0,12.62-5l6.15-7.82,31-17,5.85-9.58a13.93,13.93,0,0,1,14.8-6.36l32.35,6.94,26,10,23.13,11.93a11.78,11.78,0,0,0,14-2.37l11.91-12.56,15.59-14.18a12.17,12.17,0,0,1,14-1.68l7.69,4.2a12.21,12.21,0,0,0,12.93-.79l14.78-10.55,11.5-8.5v80l-15.72,13.17a3.71,3.71,0,0,1-4.59,0l-17.55-13.56a5.63,5.63,0,0,0-4.77-1l-24.56,5.93a5.2,5.2,0,0,1-3.49-.38l-28.82-14a6.76,6.76,0,0,0-5.13-.32l-13.91,4.76a5.56,5.56,0,0,1-4.69-.49L1018,1842a5.77,5.77,0,0,0-5.92,0l-32,19.23-29,13.61a7.24,7.24,0,0,1-5.94.1l-18.44-7.9a8.47,8.47,0,0,0-3.72-.66l-6,.32-8.49.45a6.94,6.94,0,0,1-2.67-.37l-41.24-14.06a8,8,0,0,1-2.63-1.49l-23-19.59a7.06,7.06,0,0,0-6.44-1.43l-27.23,7.42a8.5,8.5,0,0,0-3.76,2.18l-14.26,14.26a8.41,8.41,0,0,1-5.18,2.43l-8,.73-37.92-6.48a8.81,8.81,0,0,0-5.8,1l-12,6.76a7.39,7.39,0,0,0-2.15,1.82L704,1875.28a9.11,9.11,0,0,1-10.1,2.86l-41.12-14.41a9.66,9.66,0,0,0-2.72-.54l-33.77-1.8a10.58,10.58,0,0,1-4.39-1.22l-44.62-23.78a4.31,4.31,0,0,0-2.9-.43L545,1839.87a6,6,0,0,0-3.31,1.92l-17,19.53a3.65,3.65,0,0,1-4.09,1l-15.6-6.06-32.18-18.53a6.2,6.2,0,0,0-1.74-.69l-27.95-6.52a5.81,5.81,0,0,1-2.07-.94L428,1820.27l-11.61-4H398.81a8.91,8.91,0,0,1-5.11-1.62L376,1802.27l-8.44-3a5.86,5.86,0,0,1-3.54-7.53l4.9-13.49a10.42,10.42,0,0,1,3.63-4.83L411,1745.27" transform="translate(-0.5 -55.26)"/><path class="cls-1" d="M1046,1555.27l-3.62-19a5.31,5.31,0,0,0-2-3.26l-21.75-16.52a5.31,5.31,0,0,0-3.65-1.07l-7.21.61a6,6,0,0,1-4.71-1.73l-10-10-10.68-15.13a5.85,5.85,0,0,0-3.56-2.36l-9.38-2a6.49,6.49,0,0,1-3.85-2.44L953.1,1466a5.56,5.56,0,0,0-5.5-2.08l-19.3,3.86a6.07,6.07,0,0,1-4.31-.74l-10.71-6.43a7.18,7.18,0,0,0-4.9-.91l-17.44,3a6.08,6.08,0,0,1-5.15-1.48l-6-5.37a6.89,6.89,0,0,0-4.26-1.76l-15.44-.77a6.36,6.36,0,0,1-3.75-1.46l-12.82-10.69a8,8,0,0,0-7.88-1.33l-8.55,3.21a5.2,5.2,0,0,1-5.48-1.19L809,1429.27l-6.47-6.47a6.54,6.54,0,0,0-3.67-1.86l-29.9-4.53a5,5,0,0,1-1.79-.65L755,1408.27l-23-21-14.78-12.18a8,8,0,0,0-5.1-1.82H698.49a6.9,6.9,0,0,1-4.17-1.41l-7.32-5.59-3.4-4.77a6.66,6.66,0,0,0-4.31-2.69l-6.24-1a7.44,7.44,0,0,1-4.84-3l-9-12.81a7.5,7.5,0,0,0-3-2.51l-5.85-2.66a7.56,7.56,0,0,0-6.52.12l-2.09,1a3.13,3.13,0,0,1-4.13-1.28l-3.55-6.38-7.41-6.59a6.35,6.35,0,0,0-3.71-1.59l-8.19-.68a4.28,4.28,0,0,1-2.82-1.4l-7.87-8.74-12.59-3.6a4.76,4.76,0,0,1-2.35-1.53l-2.77-3.33A5.25,5.25,0,0,0,583,1301l-12-1.71h-3a6.82,6.82,0,0,0-4.88,2l-28.61,29.36a7,7,0,0,1-3.73,2L512.27,1336a6.23,6.23,0,0,0-2.35.93l-18,11.68a4.28,4.28,0,0,1-2.08.68l-15.15.84a5.66,5.66,0,0,0-3.09,1.13L422,1388.73a7,7,0,0,1-4.57,1.4l-14-.74a9.32,9.32,0,0,0-4.61,1L375,1402.27l-18.5,11.45a9.42,9.42,0,0,0-3.68,4.24l-4.48,10.24a3.12,3.12,0,0,1-4.31,1.52l-22-11.45-3-2.54a7.79,7.79,0,0,0-6.71-1.6l-9.25,2.14-23,19-23,9-9.86,9a6.33,6.33,0,0,1-2.63,1.43l-11.37,3a9.78,9.78,0,0,0-3.82,2l-25.61,22.08a7.69,7.69,0,0,1-4,1.79L183,1486a8.45,8.45,0,0,0-3.58,1.38l-21.1,14.24a5.47,5.47,0,0,1-2.17.86l-11.1,1.8-25.24,13.59a5.61,5.61,0,0,1-1.61.57l-16.43,3.29a7.9,7.9,0,0,0-4.5,2.67l-11.33,13.52" transform="translate(-0.5 -55.26)"/><path class="cls-1" d="M842,1742.27l17.28,17.28a13.53,13.53,0,0,0,8.6,3.93,43.79,43.79,0,0,0,7.24-.08,13.47,13.47,0,0,0,7.1-2.92l27.45-22.11a50,50,0,0,1,7.5-5,13.33,13.33,0,0,1,12.14-.22l3,1.41a17,17,0,0,0,21.26-6.27c2.66-4.33,5.39-9.17,19.05-14.84a4.7,4.7,0,0,1,.88-.27c13.68-3,19.81-7.82,37.55-18.9.3-.19,14.58-9.82,15-10s4.56-2,6.3-2.72a4.61,4.61,0,0,1,1.37-.35l30-2.9a3.82,3.82,0,0,0,.69-.12c15.49-4,26.35-16.83,17.27-22.56a4.52,4.52,0,0,1-1.06-.88l-11.23-13.1a4.78,4.78,0,0,1-.57-.84c-1-1.87-3.46-7-4.51-7.72l-15.07-15.57a11.9,11.9,0,0,0-5.37-3.21c-4.48-1.27-12.11-3.34-12.39-3.62L1014.75,1594a.35.35,0,0,0-.1-.08c-34.4-18.44,4.06-30.29,31.11-35.19a1.9,1.9,0,0,0,.11-3.72l-29-7.12-9.9-2.42a13,13,0,0,0-1.87-.32l-59-5.9-54-5h-38.1a.53.53,0,0,1-.17,0l-21.68-8.94-.15,0-38.92-2-60-3H711.57a.35.35,0,0,1-.14,0l-39.34-13a.55.55,0,0,0-.18,0l-25.84,2h-.14l-28.83-7a.34.34,0,0,0-.2,0l-29.44,6.87a.45.45,0,0,0-.33.56l4.69,15.93a.45.45,0,0,1-.46.57l-59.3-4h-.12l-31.81,7a.42.42,0,0,1-.25,0l-10.78-3.92a.49.49,0,0,0-.21,0l-36.78,5a.42.42,0,0,1-.22,0l-25.8-9.92-.18,0-55.88,2H370l-20.91,4h-.12l-29.89-2H319l-46.91,8H272l-93.89-2a.34.34,0,0,0-.14,0l-36.85,11a.47.47,0,0,1-.17,0l-50.8-5a.39.39,0,0,0-.21,0l-4,1.6a.45.45,0,0,0,0,.81L133,1564.26h0l25,16,.08,0,58.9,23,.11.06,59,43.41a2.52,2.52,0,0,1-2,4.51l-31-5.8a7.94,7.94,0,0,0-8.72,4.58h0a4.58,4.58,0,0,1-5,2.66l-23.71-4.09a9.06,9.06,0,0,0-3.52.09l-39.5,8.77a8.75,8.75,0,0,1-6.9-1.36l-4.29-3a8.17,8.17,0,0,0-8.71-.4l-22.25,12.69-14.37,8.2c-.8.46-3,4.28-3,4.28a.45.45,0,0,0,.23.61l30.44,13.19a7.21,7.21,0,0,0,2.39.82l29.11,4.55a11.29,11.29,0,0,1,3.1,1l10.44,5a4.6,4.6,0,0,0,1.22.4l24.92,4.53a8.57,8.57,0,0,1,3.53,1.53l20.43,15.1a8.72,8.72,0,0,0,2.12,1.15l28,10.49a4.8,4.8,0,0,0,5.09-1.11l18-18a7.24,7.24,0,0,1,4.45-2.08l17.32-1.58a8.59,8.59,0,0,1,4,.61l14.87,6.12.4.19,38,19.9a14.21,14.21,0,0,0,8.07,1.55l22.26-2.3a11.27,11.27,0,0,1,4.82.55l33.92,11.54a16.06,16.06,0,0,0,17.77-5.23l9.31-11.76a12.71,12.71,0,0,1,6.79-4.43l13.52-3.53a17.4,17.4,0,0,1,10.51.54l10.55,4a4.82,4.82,0,0,0,1.5.3l18.08.69a17.79,17.79,0,0,0,13.38-5.32l11.49-11.72a4.93,4.93,0,0,1,2-1.21l22.71-7.35a20.74,20.74,0,0,1,18.73,3.08l23.18,17.22a17.81,17.81,0,0,0,7.17,3.17l.1,0,25,11.79a10.89,10.89,0,0,0,6.34.9l14.21-3.48a3.55,3.55,0,0,1,3.4,1c5.83,6.18,14.77,13.44,26.08,14,20.46,1,30-20.78,46-17,15.21,3.59,21.09,26.78,30.75,24.16a8,8,0,0,0,4.25-3.16,112.76,112.76,0,0,1,21.4-22.11c2.64-2,7.37-10.32,13.1-9.39,9.25,1.49,11.2,8.15,18.92,12.42,5.22,2.89,15.58,11.08,38.58-5.92" transform="translate(-0.5 -55.26)"/></g></g></g></svg>