<svg id="CONTENT"
    xmlns="http://www.w3.org/2000/svg" viewBox="0 0 1170 1515.9">
    <g id="JONCTION_UNE" data-name="JONCTION UNE">
        <g id="I_JUNCTION_HAUT" data-name="I JUNCTION HAUT">
            <g id="Falaise_Droite_Haut" data-name="Falaise Droite Haut">
                <path d="M1000.94,834.82V818.49s4.56-33.83,7.56-41.83-14.57-19.5-14.57-19.5V728.49l3.57-21.83-3.57-28.17-4.43-26.67,13.59-46.66-9.16-16-4.43-26v-18.5l2-24,17-21-7.56-17.84,2.15-52,6.41-45.16-8.56-31.5-4.44-22.5,6.59-68.5v-23l16.41-39.5,25-6,11-14,25-14,32-19,15.5-37.53,39.5,28.37V688" transform="translate(-1 -105.26)" style="stroke:#fff;stroke-miterlimit:10;stroke-width:5px"/>
                <polyline points="982.5 845.9 982.64 809.9 992.92 791.67 996.5 775.4 992.92 737.9 1008.5 719.4 1021.5 698.4 1035.33 698.4 1050.5 669.4 1056.5 664.56 1083.89 649.45 1088.5 630.4 1105.5 582.4 1118.5 552.4 1138.5 547.4 1158.5 551.4 1166.5 537.24 1166.5 700.74" style="stroke:#fff;stroke-miterlimit:10;stroke-width:5px"/>
                <polyline points="941.5 959.4 946.5 909.4 956 893.9 960.5 863.4 977 841.08 1002.09 831.9 1016.5 807.4 1049.5 789.4 1083.89 740.76 1103.5 726.4 1138.67 716.86 1158.5 694.4 1166.5 683.24 1166.5 1007.74" style="stroke:#fff;stroke-miterlimit:10;stroke-width:5px"/>
            </g>
            <g id="Falaise_Gauche_Haut" data-name="Falaise Gauche Haut">
                <path d="M180.5,777.66l9.06-31a11.39,11.39,0,0,0,.17-6.1l-6.23-24.92-1.84-48.4,4.59-46.09a10.17,10.17,0,0,0-.71-4.85L167.8,573.38,153.43,552a5.61,5.61,0,0,1-1-3l-.92-46.87a10.42,10.42,0,0,1,1-4.69l17.34-36.21a12.26,12.26,0,0,0,1.2-5.29V406.76a5.6,5.6,0,0,0-.3-1.82l-5.76-16.78a16.86,16.86,0,0,1-.52-9.15l6.4-28.91-2.13-19.84A15.42,15.42,0,0,0,165,321.7l-9.33-10.56a19.68,19.68,0,0,1-3.44-5.55l-10.31-25.38a10.49,10.49,0,0,0-4.84-5.33L121,266.48a14.71,14.71,0,0,1-5.63-5.16l-11.3-17.76a13.85,13.85,0,0,0-8.69-6.1l-18.2-4a13.53,13.53,0,0,1-9.09-7L46.29,184a22.85,22.85,0,0,0-11.41-10.57L3.5,159.66v490.5" transform="translate(-1 -105.26)" style="stroke:#fff;stroke-miterlimit:10;stroke-width:5px"/>
                <polyline points="179.06 716.86 167.27 712.56 147 707.9 122 691.9 103.33 674.07 86.5 661.9 51 650.9 31.33 674.07 2.5 687.9" style="stroke:#fff;stroke-miterlimit:10;stroke-width:5px"/>
                <path d="M261.5,1065.66l-29-64-1.82-40.14a6.82,6.82,0,0,0-3.6-5.69l-2.87-1.53a7.25,7.25,0,0,1-3.73-7.67l2.69-15.15a8.2,8.2,0,0,0-.16-3.62l-5.51-20.2-8.57-41a10.91,10.91,0,0,0-1.59-3.77l-27.28-40.8a7.85,7.85,0,0,1-1.28-5l2.79-30.92a6.52,6.52,0,0,0-.12-2l-7.65-35.52a8.18,8.18,0,0,0-12.91-4.82L158.07,746a3.76,3.76,0,0,1-5.6-1.29L133.71,708a6.79,6.79,0,0,0-3.71-3.3l-29.46-10.94a7.64,7.64,0,0,0-6,.26L80.08,701a6.54,6.54,0,0,1-6.74-.68L41.56,676.21a8.3,8.3,0,0,1-2.87-4l-8.76-26.27a6.22,6.22,0,0,0-1.35-2.28l-23.08-25-2-2v470.5" transform="translate(-1 -105.26)" style="stroke:#fff;stroke-miterlimit:10;stroke-width:5px"/>
                <polyline points="232.84 899.33 212.21 895.9 204.5 893.4 193.5 888.4 186.5 878.4 171.5 870.4 162.5 864.4 148.5 850.4 137 840.83 128 839.56 113.5 851.4 94.75 864.56 82.5 860.4 63.5 855.4 53.5 859.4 34.5 875.4 15.5 884.4 2.5 882.75" style="stroke:#fff;stroke-miterlimit:10;stroke-width:5px"/>
            </g>
            <g id="Socle">
                <polyline points="0.5 1004.9 87 979.9 252 961.9 337 986.9 417 975.9 547 1004.9 646 991.9 755 1041.75 963 1020.25 1076 1013.55 1168 1013.9 1167 1391.74 1153 1407.74 1139 1412.74 1124 1405.74 1104 1390.74 1098 1376.74 1076 1373.74 1045 1396.74 1027 1407.74 995 1396.74 964 1413.74 934 1390.74 916 1381.74 897 1374.74 864 1396.74 855 1399.74 825 1382.74 821 1383.74 815 1397.74 768 1424.74 749 1422.74 696 1462.74 679 1463.74 660 1475.74 637 1480.74 620 1497.74 603.23 1512.74 597 1511.74 584 1509.74 573 1503.74 563 1498.74 555 1490.74 543 1489.74 538 1483.74 529.39 1474.16 520 1475.74 511 1470.74 504 1458.74 487 1450.74 473 1440.74 456 1439.74 428 1416.74 403 1395.74 375 1394.74 350 1415.74 333 1427.74 316 1424.74 303 1416.74 283 1426.74 264 1447.74 248 1444.74 232 1430.74 199 1418.74 167 1412.74 143.52 1426.78 118 1437.74 106 1452.74 92 1455.74 82 1452.74 55 1428.74 52 1412.74 30 1401.74 3 1365.74" style="stroke:#fff;stroke-miterlimit:10"/>
                <path d="M87.5,1256.66c16.88-.36,36.13,0,44,3,19.44,7.37,23.42,16.66,39,17,10.77.22,13.21-4.12,28-4,13.19.1,16,3.59,24,4,29.5,1.48,42.18-43.61,68-41,13,1.31,14.75,13.22,26,12,18-2,18.23-33.08,37-38,14.78-3.89,21.14,13.71,56,26,17,6,26.34,4.69,41,1,31.35-7.91,36.43-39.07,59-40,12.66-.53,21-16,57,34,10.48,14.55,19.19,9,22,9,23-.13,19.67-22.74,50-22,14.5.35,17.67,10.74,33,11,15.64.26,21-18,34-16,9.45,1.46,8.87,11.45,25,26,12.76,11.51,25.87,16.75,34,20,12.64,5,20.37,8.14,31,8,23.67-.33,42.51-16.45,49-22,11.58-9.92,12.39-15.19,20-17,12.92-3.08,58.84,29.26,69,40" transform="translate(-1 -105.26)" style="stroke:#fff;stroke-miterlimit:10;stroke-width:5px"/>
                <path d="M167.5,1331.66c37-24,74.18-3.91,91-14,25-15,29.08-11,44-18,35.69-16.76,37.06-39.36,61-42,22.91-2.53,31.09,17.13,54,15,21.12-2,33.81-23.79,44-40" transform="translate(-1 -105.26)" style="stroke:#fff;stroke-miterlimit:10;stroke-width:5px"/>
                <path d="M593.5,1240.66l14.2,17.5a11.19,11.19,0,0,0,16,1.39l8.25-7.17a13.23,13.23,0,0,1,13.44-2.37l44.68,17.15L748,1299.75a13.16,13.16,0,0,0,12.26.35l39.15-19.23a22.38,22.38,0,0,1,17.45-1l20.84,7.51a10.84,10.84,0,0,0,10.09-1.47l24.09-17.77a14.5,14.5,0,0,1,16.62-.43l12.48,8.26" transform="translate(-1 -105.26)" style="stroke:#fff;stroke-miterlimit:10;stroke-width:5px"/>
                <path d="M93.21,1267,77,1266.16l-28-9-22.81-12.78a8.26,8.26,0,0,0-4.69-1l-18,1.31v-110.5" transform="translate(-1 -105.26)" style="stroke:#fff;stroke-miterlimit:10;stroke-width:5px"/>
                <path d="M787.5,1110.66l40.82-26.91a6.22,6.22,0,0,1,6.49-.22l15.62,8.82a5.68,5.68,0,0,0,5.24.2l35.83-16.89,29.23-32.9a6.5,6.5,0,0,1,7.4-1.67l34.37,14.57,40.59,20.83,23.87,4.67a10.25,10.25,0,0,0,5-.28l26.36-8.27,23-8.08a9.58,9.58,0,0,1,11.85,5l6.11,13.09a8.71,8.71,0,0,0,5.43,4.66l21.79,6.4L1144,1106l23.5,6.54v10l-13.5,10.57a10.13,10.13,0,0,1-5.45,1.59h-30.21a10.87,10.87,0,0,1-6.1-1.88l-19.42-13.19a7.92,7.92,0,0,0-8.72-.12l-31.31,20.08a16.89,16.89,0,0,1-7.17,2.55l-42,4.75a11.06,11.06,0,0,1-5.25-.68l-32-12.38a8.88,8.88,0,0,0-5.91-.2l-42.33,13.2a13.06,13.06,0,0,1-2.41.5L855.12,1154a9.53,9.53,0,0,1-5.84-1.22L828.89,1141a8.89,8.89,0,0,0-5.14-1.16l-23.25,1.79" transform="translate(-1 -105.26)" style="stroke:#fff;stroke-miterlimit:10;stroke-width:5px"/>
                <path d="M1023.5,1344.66l7.59-20.89a5.85,5.85,0,0,1,1.22-2l11.18-12a7.91,7.91,0,0,0,1.55-2.48l8.63-22.29,14.13-26a4.94,4.94,0,0,0,.59-2.74l-1.33-16.73" transform="translate(-1 -105.26)" style="stroke:#fff;stroke-miterlimit:10;stroke-width:5px"/>
                <path d="M1167.5,1123.16v89.34l-11.77,7a4,4,0,0,1-.47.22l-17.76,6.91-12.89,3.43a7.26,7.26,0,0,0-3.56,2.2L1100,1256.12a6.3,6.3,0,0,1-1,1l-18.13,13.38a5.47,5.47,0,0,1-1.76.87l-21.54,6.33" transform="translate(-1 -105.26)" style="stroke:#fff;stroke-miterlimit:10;stroke-width:5px"/>
                <path d="M145.5,1396.66s-15,10-17,9c-1.68-.85-16.94-5.23-21.73-6.6a7,7,0,0,0-2.91-.19l-12.36,1.79-6,1.7a5.59,5.59,0,0,1-6.86-3.68l-3.19-10L72,1377.19a7.3,7.3,0,0,0-1.54-2.74L60,1362.66l-7.56-6a8.43,8.43,0,0,0-8.8-1l-1.89.9a8.52,8.52,0,0,1-4.72.73L26.92,1356a12.16,12.16,0,0,1-4.53-1.56L7.5,1345.66l-4-10v135l3,8,9.17,12,11.83,15,21,10.14a7.39,7.39,0,0,1,4.18,6.66v4.22a8.35,8.35,0,0,0,3.08,6.48l6.75,5.5,8.73,12.22a9.8,9.8,0,0,0,3.17,2.84l12,6.78a7.38,7.38,0,0,0,4.39.91l12.7-1.34a9,9,0,0,0,6.32-3.63l7-9.57a9.81,9.81,0,0,1,4.17-3.26l17-6.95,14.54-8.54a10.56,10.56,0,0,0,1.49-1.06l11.24-9.66a4.76,4.76,0,0,1,4.94-.77l14.29,6,25,3,22.17,11,10.63,9.88a8.48,8.48,0,0,0,2.72,1.7l14.52,5.52a7.34,7.34,0,0,0,8.31-2.23l9.65-11.87,6.83-8,17.52-9.11a6.09,6.09,0,0,1,6.77.78l8,6.89a6,6,0,0,0,3.88,1.44H332a10.09,10.09,0,0,0,6.2-2.14l37.27-32" transform="translate(-1 -105.26)" style="stroke:#fff;stroke-miterlimit:10;stroke-width:5px"/>
                <path d="M3.5,1473.16" transform="translate(-1 -105.26)" style="stroke:#fff;stroke-miterlimit:10;stroke-width:5px"/>
                <path d="M1069.5,1370.66c4-4,31.44-8,31.44-8l16.56-11,24-5,15-9,12-5.62" transform="translate(-1 -105.26)" style="stroke:#fff;stroke-miterlimit:10;stroke-width:5px"/>
                <polyline points="1166.5 1267.9 1166.5 1392.74 1164.5 1395.24 1153.89 1409.29 1139.5 1412.4 1125.5 1406.4 1103.5 1389.4 1099.5 1377.4 1076.5 1373.4 1050.5 1389.4 1044.95 1397.9 1026.5 1407.4 995.78 1395.9 965.5 1414.4 934.5 1390.4 899.5 1374.4" style="stroke:#fff;stroke-miterlimit:10;stroke-width:5px"/>
                <line x1="1166.5" y1="1219.74" x2="1166.5" y2="1107.74" style="stroke:#fff;stroke-miterlimit:10;stroke-width:5px"/>
                <line x1="2.5" y1="1139.4" x2="2.5" y2="1235.9" style="stroke:#fff;stroke-miterlimit:10;stroke-width:5px"/>
                <path d="M953.5,1448.66l23,16,10,3,12-1s14,6,14,7,12,3,12,3l6-4,6.28-9,7.72-7,6-5,23-9,9-14,15-8h18.17l13.83-24,9-10,17-3,10-8,2-3.16v-49l-26,4.16-41,8-32.1-10.73-27.9,12.73-15,1" transform="translate(-1 -105.26)" style="stroke:#fff;stroke-miterlimit:10;stroke-width:5px"/>
                <path d="M736.5,1165.66l-51.46-33a17,17,0,0,0-3.26-1.61l-66.52-24.14a14.31,14.31,0,0,0-14.17.62L581,1120.16,542.73,1138a18.35,18.35,0,0,1-13.75.71l-22-7.57-39-18-14-15.8a17.26,17.26,0,0,0-21-3.79l-10.84,5.78a15.35,15.35,0,0,1-14.31.06l-16.89-8.81a14.69,14.69,0,0,0-13.28-.15L356,1101.16l-25,12-13.78-1.2a13.45,13.45,0,0,1-11.76-9.7l-1.46-5.1-20-22-26.23-3.86a13.53,13.53,0,0,0-12.62,5l-6.15,7.83-31,17-5.85,9.57a13.93,13.93,0,0,1-14.8,6.36L155,1110.16l-26-10-23.13-11.94a11.78,11.78,0,0,0-14,2.37L80,1103.16l-15.59,14.17a12.17,12.17,0,0,1-14,1.68l-7.69-4.2a12.21,12.21,0,0,0-12.93.79L15,1126.16l-11.5,8.5v-80l15.72-13.18a3.71,3.71,0,0,1,4.59,0L41.36,1055a5.63,5.63,0,0,0,4.77,1l24.56-5.93a5.2,5.2,0,0,1,3.49.38l28.82,14a6.76,6.76,0,0,0,5.13.32L122,1060a5.56,5.56,0,0,1,4.69.49l25.81,15.4a5.77,5.77,0,0,0,5.92,0l32-19.22L219.55,1043a7.24,7.24,0,0,1,5.94-.1l18.44,7.9a8.47,8.47,0,0,0,3.72.66l6-.32,8.49-.45a7.14,7.14,0,0,1,2.67.37L306,1065.16a8,8,0,0,1,2.63,1.49l23,19.59a7.06,7.06,0,0,0,6.44,1.43l27.23-7.42a8.5,8.5,0,0,0,3.76-2.18l14.26-14.26a8.41,8.41,0,0,1,5.18-2.43l8-.72,37.92,6.47a8.81,8.81,0,0,0,5.8-1l12-6.76a7.39,7.39,0,0,0,2.15-1.82l12.06-14.89a9.11,9.11,0,0,1,10.1-2.87l41.12,14.41a9.66,9.66,0,0,0,2.72.54l33.77,1.8a10.58,10.58,0,0,1,4.39,1.22l44.62,23.78a4.31,4.31,0,0,0,2.9.43l19.44-3.91a5.9,5.9,0,0,0,3.31-1.92l17-19.53a3.65,3.65,0,0,1,4.09-1l15.6,6.07,32.18,18.53a6.49,6.49,0,0,0,1.74.68l28,6.52a5.81,5.81,0,0,1,2.07.94l13.06,9.33,11.61,4h17.58a8.9,8.9,0,0,1,5.11,1.61l17.7,12.39,8.44,3a5.86,5.86,0,0,1,3.54,7.53l-4.9,13.49a10.42,10.42,0,0,1-3.63,4.83l-38.45,28.14" transform="translate(-1 -105.26)" style="stroke:#fff;stroke-miterlimit:10;stroke-width:5px"/>
                <path d="M124.5,1362.66l3.62,19a5.31,5.31,0,0,0,2,3.26l21.75,16.52a5.31,5.31,0,0,0,3.65,1.07l7.21-.61a6,6,0,0,1,4.71,1.73l10.05,10.05,10.68,15.12a5.85,5.85,0,0,0,3.56,2.36l9.38,2a6.49,6.49,0,0,1,3.85,2.44l12.43,16.31a5.56,5.56,0,0,0,5.5,2.08l19.3-3.86a6.07,6.07,0,0,1,4.31.74l10.71,6.43a7.18,7.18,0,0,0,4.9.91l17.44-3a6.08,6.08,0,0,1,5.15,1.48l6,5.37a6.89,6.89,0,0,0,4.26,1.76l15.44.77a6.36,6.36,0,0,1,3.75,1.46L327,1476.7a7.93,7.93,0,0,0,7.88,1.33l8.55-3.2a5.18,5.18,0,0,1,5.48,1.18l12.64,12.65,6.47,6.47a6.59,6.59,0,0,0,3.67,1.85l29.9,4.53a4.85,4.85,0,0,1,1.79.66l12.17,7.49,23,21,14.78,12.17a8,8,0,0,0,5.1,1.83H472a6.84,6.84,0,0,1,4.17,1.41l7.32,5.59,3.4,4.76a6.66,6.66,0,0,0,4.31,2.69l6.24,1a7.44,7.44,0,0,1,4.84,3l9,12.81a7.5,7.5,0,0,0,3,2.51l5.85,2.66a7.56,7.56,0,0,0,6.52-.12l2.09-1a3.13,3.13,0,0,1,4.13,1.28l3.55,6.39,7.41,6.58a6.35,6.35,0,0,0,3.71,1.59l8.19.68a4.28,4.28,0,0,1,2.82,1.4l7.87,8.75,12.59,3.59a4.76,4.76,0,0,1,2.35,1.53l2.77,3.33a5.2,5.2,0,0,0,3.28,1.83l12,1.72h3a6.83,6.83,0,0,0,4.88-2.06L636,1587.25a6.93,6.93,0,0,1,3.73-2l18.55-3.37a6.42,6.42,0,0,0,2.35-.94l18-11.68a4.28,4.28,0,0,1,2.08-.68l15.15-.84a5.66,5.66,0,0,0,3.09-1.13l49.6-37.43a7,7,0,0,1,4.57-1.4l14,.74a9.32,9.32,0,0,0,4.61-1l23.82-11.91,18.5-11.45a9.5,9.5,0,0,0,3.68-4.25l4.48-10.24a3.12,3.12,0,0,1,4.31-1.52l22,11.46,3,2.53a7.79,7.79,0,0,0,6.71,1.6l9.25-2.13,23-19,23-9,9.86-9a6.33,6.33,0,0,1,2.63-1.43l11.37-3a9.78,9.78,0,0,0,3.82-2l25.61-22.08a7.69,7.69,0,0,1,4-1.79l16.81-2.41a8.45,8.45,0,0,0,3.58-1.38l21.1-14.24a5.47,5.47,0,0,1,2.17-.86l11.1-1.79,25.24-13.6a5.61,5.61,0,0,1,1.61-.57l16.43-3.29a7.85,7.85,0,0,0,4.5-2.67l11.33-13.52" transform="translate(-1 -105.26)" style="stroke:#fff;stroke-miterlimit:10;stroke-width:5px"/>
                <path d="M328.5,1175.66l-17.28-17.29a13.53,13.53,0,0,0-8.6-3.93,43.79,43.79,0,0,0-7.24.08,13.47,13.47,0,0,0-7.1,2.92l-27.45,22.11a50,50,0,0,1-7.5,5,13.33,13.33,0,0,1-12.14.22l-2.95-1.41a17,17,0,0,0-21.26,6.27c-2.66,4.33-5.39,9.17-19,14.84a4.7,4.7,0,0,1-.88.27c-13.68,3-19.81,7.82-37.55,18.91-.3.18-14.58,9.81-15,10s-4.56,2-6.3,2.71a4.61,4.61,0,0,1-1.37.35l-30,2.9a3.82,3.82,0,0,0-.69.12c-15.49,4-26.35,16.83-17.27,22.56a4.52,4.52,0,0,1,1.06.88l11.23,13.1a4.78,4.78,0,0,1,.57.84c1,1.87,3.46,7,4.51,7.72l15.07,15.57a11.9,11.9,0,0,0,5.37,3.21c4.48,1.27,12.11,3.34,12.39,3.63l16.66,16.66.1.07c34.4,18.44-4.06,30.29-31.11,35.19a1.9,1.9,0,0,0-.11,3.72l29.05,7.12,9.9,2.42a13,13,0,0,0,1.87.32l59.05,5.91,54,5h38.1a.51.51,0,0,1,.17,0l21.68,8.94.15,0,38.92,2,60,3h21.43a.34.34,0,0,1,.14,0l39.34,13a.55.55,0,0,0,.18,0l25.84-2h.14l28.83,7a.34.34,0,0,0,.2,0l29.44-6.87a.45.45,0,0,0,.33-.56l-4.69-15.93a.45.45,0,0,1,.46-.57l59.3,4h.12l31.81-7a.42.42,0,0,1,.25,0l10.78,3.92a.49.49,0,0,0,.21,0l36.78-5a.42.42,0,0,1,.22,0l25.8,9.92a.57.57,0,0,0,.18,0l55.88-2h.06l20.91-4h.12l29.89,2h.1l46.91-8h.08l93.89,2h.14l36.85-11a.47.47,0,0,1,.17,0l50.8,5a.39.39,0,0,0,.21,0l4-1.6a.45.45,0,0,0,.05-.81l-47.15-25.54h0l-25-16-.08,0-58.9-23-.11-.06-59-43.41a2.52,2.52,0,0,1,2-4.51l31,5.8a7.94,7.94,0,0,0,8.72-4.58h0a4.59,4.59,0,0,1,5-2.66l23.71,4.09a9.26,9.26,0,0,0,3.52-.08l39.5-8.78a8.75,8.75,0,0,1,6.9,1.36l4.29,3a8.17,8.17,0,0,0,8.71.4l22.25-12.69,14.37-8.2c.8-.46,3-4.28,3-4.28a.45.45,0,0,0-.23-.61l-30.44-13.19a7.21,7.21,0,0,0-2.39-.82l-29.11-4.55a11,11,0,0,1-3.1-1l-10.44-5a4.6,4.6,0,0,0-1.22-.4L965.44,1210a8.57,8.57,0,0,1-3.53-1.53l-20.43-15.1a8.72,8.72,0,0,0-2.12-1.15l-28-10.49a4.8,4.8,0,0,0-5.09,1.11l-18,18a7.24,7.24,0,0,1-4.45,2.08l-17.32,1.58a8.59,8.59,0,0,1-4-.61l-14.87-6.12-.4-.19-38-19.9a14.21,14.21,0,0,0-8.07-1.55L779,1178.4a11.42,11.42,0,0,1-4.82-.54l-33.92-11.55a16.08,16.08,0,0,0-17.77,5.23l-9.31,11.76a12.71,12.71,0,0,1-6.79,4.43l-13.52,3.53a17.4,17.4,0,0,1-10.51-.54l-10.55-4a4.82,4.82,0,0,0-1.5-.3l-18.08-.69a17.79,17.79,0,0,0-13.38,5.32l-11.49,11.72a4.82,4.82,0,0,1-2,1.21l-22.71,7.35a20.74,20.74,0,0,1-18.73-3.08l-23.18-17.22a17.81,17.81,0,0,0-7.17-3.17l-.1,0-25-11.79a10.89,10.89,0,0,0-6.34-.9L508,1178.66a3.55,3.55,0,0,1-3.4-1c-5.83-6.18-14.77-13.44-26.08-14-20.46-1-30,20.77-46,17-15.21-3.6-21.09-26.79-30.75-24.17a8,8,0,0,0-4.25,3.17,112.65,112.65,0,0,1-21.4,22.1c-2.64,2-7.37,10.32-13.1,9.4-9.25-1.5-11.2-8.16-18.92-12.43-5.22-2.89-15.58-11.07-38.58,5.93" transform="translate(-1 -105.26)" style="stroke:#fff;stroke-miterlimit:10;stroke-width:5px"/>
            </g>
        </g>
    </g>
    <path d="M808.84,839.64" transform="translate(-1 -105.26)" style="fill:none;stroke:#fff;stroke-miterlimit:10;stroke-width:5px"/>
    <line x1="1166.5" y1="682.74" x2="1166.5" y2="1108.74" style="stroke:#fff;stroke-miterlimit:10;stroke-width:5px"/>
</svg>