<svg id="CONTENT"
    xmlns="http://www.w3.org/2000/svg" viewBox="0 0 483.94 394.15">
    <defs>
        <style>.cls-1{fill:#c22434;}.cls-2{fill:none;stroke:#000;stroke-miterlimit:10;stroke-width:5px;}</style>
    </defs>
    <g id="SMALL">
        <g id="CLOUDSFALL_SMALL">
            <g id="JUNCTION_CLOUDSFALL_SMALL">
                <g id="JUNCTION_CLOUDSFALL_BOTTOM_SMALL">
                    <path id="FOND" class="cls-1" d="M344.5,1658.38l6.17,1.09,5.75,4.93,3.5,4,2.67-4.38,5.34-4.52,6.72-1.09,6.85,1.5,2.88-6.58,5.75-5.34,6.17-2.47,4.52,1.23,2.19,2.46,3.57-2.87,4.11-1.23,4.8.31,3.63,1.95,2.26-3.91,2.88-4.11,5.34-1.08,2.47-4.67,3.7-2.88,3.22-1.49,5.41,1.08,4.11,3.7,1.65,3.7h2.46l4.52-3.29,6.4-1.29,4.7,1.29,4.94,3.7,2.05,5.34.83,3.7,4.93-1.29,4.32.27,4.31,1.43,3.29,3.29,1,5.83,4.38.55,4.46,1.43,2.88-5.75,5.41-5.17,4.73-1.88,7.53.47,3.09,1.51,2.67-4.39,5.14-3.52,4.66-.85,6.46,2.11,5.94,5.55,1,2.46,5.14-2.46,4.11-1.23,5.34.35,6.64,3,5.79,6.36,3.6-4.73,5.35-2.88,7.4.42,5.34,5.34,1.65,3.29,3.7-2.47h4.93l6.17,2.47,3.81,5.55,1.33,3.7,5.48-2.11.68-6.25,2.68-4.18,5.68-2.13,1.3-1.78v-7.81l3.09-4.93,6.37-2.39h5.29l6.22,2.18,4.73,3.57,5.14-4.39,6.3-1.36,6.65.83,3.29,2,6.37-3.49,6.65-1,4.24.86,1.85-8.88,4.94-4.93,5.14-1.06,4.72,1.47,3.09,1,4.72-5.55,5.42-2.49,5.27,0,7.4,4.89,2.47,5,7.81-2.06,6.17,1.24,7.4,7,6.92-9,7.63-1.57,6.06,2,5.7,5.71.82,1.23,3.5-.66,5.55,1.89,2.17,3.29,4-4.52,5.35-2.06,6.16-.82h2.47v357.67h-5.43s-8.55-1.65-9-1.65-11.92-6.16-11.92-6.16l-6.37-6.37-4.11-7.82-1.32-10.78-4.85-.32-4.52-1.64-4.29-6.52-.92-.45-2.6,2-3.29,1.64-4.66-.82-3.84-3.47-1.78-5.08-4.11-.08-4.94-1.63-2.8-3.71-4.18,2.46-3.7,2.05-4.94-.82-1.67-.79-3.67,4.08-8.29,4.13-5.69-.43-7.81-2.88-4.11-5.34-3.15-7.75-4.25-.89-2.63-4.52-.25-4.52,2.06-4.93-4.94-1.65-5.19-6.86-4.67,1.11-5.35-1.65-1.35,3.74-1.53,4.48-3.7,3.29-5.23.62-5-1.44-2.88-1.64-.41,3.7-3,3h-3.86l-.57,5.23-4.53,4.11-5.77,1.61-4.16-.72.47,3.61-1.22,2.08-4.12-.41-.29,3.19-1.76,3.38-3.7,2.47-5.55-2.08-2.67,2.49-3.29,2.88-4.52,1.23-5.35-1.23-4.52-3.29-2.47-5.34-4.13,2.29H583l-4-1.88-3.29-2.47-5.76.57-2.46,4.78-4.11,4.52-3.7,2.46-5.64,1.08-7.93-1.9-4.93,3.29-6.17,2.47-6.58.82-6.16-2.88-2.88-4.8-.62-5.45-3.49-.85-3.29-3.7-.62-3.45.83-3.54h-5l-5.09-2-3.7-3.7-3.7-4.94-3.7,2.06H487l-2.06-2.47-.82-2.87h-4.52l-4.08-1.55-2.91-5.85-3.87.87-3.53-1.7-2.88-5.34-.16-4-4.77,1.5h-2.88L452,1901l-4.94,3.7-5.14,0-5.55-1.27-2.05-.82-2.06,5.34-4.93,4.94-5.35.82-6.16-.82-4.94-2.88-4.11-3.7-3.29-7-2.87,1.64-4.22.38-3.59-2.43-3.43-6.46-3.43-.37-4.66-3-1.43-1.52-2.68,1.52-4.11,2.06-5.75-.41-4.53-2.88-3.7-4.52-2.26-7.79-.2-4.55-3.29,1.65-4.59,1.23-4.25-.2Z" transform="translate(-343.44 -1610.22)"/>
                    <path class="cls-1" d="M478.11,1912.3a21.31,21.31,0,0,1-2.47,7,9.92,9.92,0,0,1-9.45,6.17,16.8,16.8,0,0,1-5.35-.42l-1.35,4.5-3.63,4.41-3.44,1.32-5.12-.63-3.56-1.82-2.35,5.61-3.84,4.54-6.4,3.08-8.29.41-8.28-3.17-1.84-1.51-.88,3.67-2.08,4-3.53,2.67-4.62.15L397,1950l-4,5.06-4,3.56-6.44,1.8-4,.39,3.29,3.29,1.23,8.22-.38,5.85L379,1986.3l-5.11,6.41-7.46,5-8.58,3.08-13.38,1.11V1865.74l132.38,17Z" transform="translate(-343.44 -1610.22)"/>
                    <g id="Tracé">
                        <path class="cls-2" d="M450.77,1641.17c-.26-5.56-3.43-10.15-7.81-11.51a9.87,9.87,0,0,0-7,.41c-5.22,2.46-5.74,8.78-5.75,9" transform="translate(-343.44 -1610.22)"/>
                        <path class="cls-2" d="M450.77,1638.29c.65-.48,8.22-7.4,16-4.52,6.93,2.56,11.51,11.71,8.63,21.38" transform="translate(-343.44 -1610.22)"/>
                        <path class="cls-2" d="M476.67,1646.93c4.11-2.47,11-1.57,14,1.23,3.37,3.17,3.31,8.33,3.29,9" transform="translate(-343.44 -1610.22)"/>
                        <path class="cls-2" d="M487,1662.14a12.61,12.61,0,0,1,11.92-4.93,12.26,12.26,0,0,1,7.4,4.52" transform="translate(-343.44 -1610.22)"/>
                        <path class="cls-2" d="M503.39,1658c.41-.94,3.55-9.43,10.28-11.51a16.3,16.3,0,0,1,16.45,4.52" transform="translate(-343.44 -1610.22)"/>
                        <path class="cls-2" d="M526.42,1647.34c.55-.81,4.78-7.62,10.69-8.22s12.58,3.74,15.21,10.27" transform="translate(-343.44 -1610.22)"/>
                        <path class="cls-2" d="M546.56,1658.44c2.73-7.19,8.62-12.47,15.21-13.16,9.5-1,20,7.63,21,20.56" transform="translate(-343.44 -1610.22)"/>
                        <path class="cls-2" d="M579.66,1655.21c2.45-6,8.48-9.12,13.91-7.77a12.3,12.3,0,0,1,8.7,9.56" transform="translate(-343.44 -1610.22)"/>
                        <path class="cls-2" d="M599.18,1663.78a10.68,10.68,0,0,1,7-9.45c5.41-2,10.15,1.73,11.1,2.46,3.55,2.77,5,7.76,5.35,9" transform="translate(-343.44 -1610.22)"/>
                        <path class="cls-2" d="M616,1676.12c.08-.41,1.87-8.66,9.87-11.51a15.39,15.39,0,0,1,15.62,3.28" transform="translate(-343.44 -1610.22)"/>
                        <path class="cls-2" d="M641.12,1676.94c-.8-7.47,2.69-14.13,8.22-16.45.52-.21,6.92-2.77,11.92,1.24a11.81,11.81,0,0,1,4.11,8.22" transform="translate(-343.44 -1610.22)"/>
                        <path class="cls-2" d="M660.85,1671.59a13.21,13.21,0,0,1,14.8-.82c5.28,3.35,7.4,10.6,4.52,16.86" transform="translate(-343.44 -1610.22)"/>
                        <path class="cls-2" d="M681.2,1676.94c6.71-3.42,14.74-2.84,19.81,1.23a14,14,0,0,1,5.06,11.1" transform="translate(-343.44 -1610.22)"/>
                        <path class="cls-2" d="M703.4,1680.23a24.86,24.86,0,0,1,16-3.29c9.72,1.5,18.37,9.17,17.92,17.68-.3,5.8-4.72,9.8-6.29,11.1" transform="translate(-343.44 -1610.22)"/>
                        <path class="cls-2" d="M769.79,1677.76" transform="translate(-343.44 -1610.22)"/>
                        <path class="cls-2" d="M438.44,1641.17c-5.94-4-12.53-3.72-15.62-.41a16.54,16.54,0,0,0-3.7,6.58" transform="translate(-343.44 -1610.22)"/>
                        <path class="cls-2" d="M423.23,1654.74a11.28,11.28,0,0,0-7.81-9.46c-4.72-1.42-8.64-.82-11.93,3.7" transform="translate(-343.44 -1610.22)"/>
                        <path class="cls-2" d="M404.32,1662.14c3.38-7.22-.14-14.79-5.35-16.45-4.87-1.55-10.25,3.34-11.51,4.53-7.39,6.92-6.76,17.47-6.58,19.73" transform="translate(-343.44 -1610.22)"/>
                        <path class="cls-2" d="M795.69,1627.19a14.21,14.21,0,0,0-11.92-8.63c-5.88-.42-11.93,4.27-14.39,9.87" transform="translate(-343.44 -1610.22)"/>
                        <path class="cls-2" d="M771,1633.77c-1.86-8.82-9.87-14.33-17.27-13.15-5.55.88-10.26,5.45-11.92,11.51" transform="translate(-343.44 -1610.22)"/>
                        <path class="cls-2" d="M747.59,1623.08a14.24,14.24,0,0,0-11.51-10.27c-5.58-.72-11.07,3.09-13.56,8.22" transform="translate(-343.44 -1610.22)"/>
                        <path class="cls-2" d="M726.63,1625.14c-4.47-6.19-12.29-8-17.68-4.93-5.77,3.27-6.15,12.29-6.17,12.74" transform="translate(-343.44 -1610.22)"/>
                        <path class="cls-2" d="M711.83,1640.35c-.41-.61-5.25-7.69-14-7.81a17.25,17.25,0,0,0-15.62,9.87" transform="translate(-343.44 -1610.22)"/>
                        <path class="cls-2" d="M685.52,1637.06c-2.47-2.47-9.33-4.2-14-2.47-8.18,3.06-9.8,12.35-9.87,12.75" transform="translate(-343.44 -1610.22)"/>
                        <path class="cls-2" d="M664.14,1640.76c-3.7-7.4-16.86-8.06-21.79-4.11-3.73,3-5,9.33-4.11,14.39" transform="translate(-343.44 -1610.22)"/>
                        <path class="cls-2" d="M642.76,1651.86c-5-1.4-9.69-.71-12.33,2.47-2.06,2.46-1.64,8.18-1.65,9.45" transform="translate(-343.44 -1610.22)"/>
                        <path class="cls-2" d="M469.68,1751.35c4.94-16.32,20.21-25,32.48-21.79,12.45,3.28,17,17.58,17.27,18.5" transform="translate(-343.44 -1610.22)"/>
                        <path class="cls-2" d="M515.93,1739.43a17,17,0,0,1,16.49-.82,11.69,11.69,0,0,1,4.85,16.44" transform="translate(-343.44 -1610.22)"/>
                        <path class="cls-2" d="M475.44,1758.8c-1.7-6.61-8.08-10.06-13.16-8.25-4,1.44-6.88,6.08-6.57,11.28" transform="translate(-343.44 -1610.22)"/>
                        <path class="cls-2" d="M539,1750.12c6.63-4.36,15.39-3.38,19.18.82,2.64,2.93,2.75,7.3.49,11.1" transform="translate(-343.44 -1610.22)"/>
                        <path class="cls-2" d="M465.16,1766.56c-3.74-4.15-9.49-5.42-14-3.29-4.85,2.31-6,7.56-6.16,8.22" transform="translate(-343.44 -1610.22)"/>
                        <path class="cls-2" d="M560.74,1757.11c6.52-2.6,13.71.3,15.78,5.34,1.65,4-.11,9-4.51,11.92" transform="translate(-343.44 -1610.22)"/>
                        <path class="cls-2" d="M457.14,1753.41c-7.11-5-17.57-5.61-25-1.65-6.29,3.37-9.43,9.52-8,15.62" transform="translate(-343.44 -1610.22)"/>
                        <path class="cls-2" d="M424,1762.45c-6.83,3.46-10.06,9.78-8.08,15.62,2.19,6.45,10.29,11,19.4,10.69" transform="translate(-343.44 -1610.22)"/>
                        <path class="cls-2" d="M425.9,1787.73c-3.55,17.31,3.48,31.54,10.45,32.8,5.13.92,11.19-5,14.63-14.26" transform="translate(-343.44 -1610.22)"/>
                        <path class="cls-2" d="M446.25,1815.07a12.23,12.23,0,0,0,23.43-3.7" transform="translate(-343.44 -1610.22)"/>
                        <path class="cls-2" d="M468.24,1817.78c9.91,5.2,20.18,2.18,22.47-2.61,1.73-3.62-.69-9.1-5.91-13.05" transform="translate(-343.44 -1610.22)"/>
                        <path class="cls-2" d="M490.24,1816.72c.42.36,6.94,5.79,15.21,3.29a16.18,16.18,0,0,0,11.1-12.34" transform="translate(-343.44 -1610.22)"/>
                        <path class="cls-2" d="M513.47,1814.2a8.77,8.77,0,0,0,9.3,6.61,9.12,9.12,0,0,0,7.76-8.82" transform="translate(-343.44 -1610.22)"/>
                        <path class="cls-2" d="M528.06,1803.56a7.78,7.78,0,0,0,14.39,5.76" transform="translate(-343.44 -1610.22)"/>
                        <path class="cls-2" d="M566.5,1772.52c5,.12,8.29,3.57,7.58,6.38-.58,2.27-3.74,4.19-7.58,4.11" transform="translate(-343.44 -1610.22)"/>
                        <path class="cls-2" d="M563,1778.89a5.59,5.59,0,0,1-3.29,10.69" transform="translate(-343.44 -1610.22)"/>
                        <path class="cls-2" d="M554,1784.24a7.52,7.52,0,1,1-4.11,14.39" transform="translate(-343.44 -1610.22)"/>
                        <path class="cls-2" d="M552.24,1798.83c1.16,3.76,1.37,7.91,0,10.19-2,3.27-7.58,3.25-12-3.18" transform="translate(-343.44 -1610.22)"/>
                        <path class="cls-2" d="M381.29,1659.67c-7-4.52-18.46.95-21,7.81a14.65,14.65,0,0,0,5.75,16.86" transform="translate(-343.44 -1610.22)"/>
                        <path class="cls-2" d="M359.92,1669.13c-.22-.73-3.77-7.87-10.91-10.08a15.25,15.25,0,0,0-4.3-.67h-.21" transform="translate(-343.44 -1610.22)"/>
                        <path class="cls-2" d="M440.08,1820.42a13.39,13.39,0,0,1-5.34,9.45,13.2,13.2,0,0,1-13.57.82" transform="translate(-343.44 -1610.22)"/>
                        <path class="cls-2" d="M426.72,1831.72c-.11.63-1.71,9-8.44,12.23-6.93,3.29-12.79-2-13.14-2.33" transform="translate(-343.44 -1610.22)"/>
                        <path class="cls-2" d="M405.55,1831.93c1.22,7-1.67,13.35-6.58,15.62-4.54,2.1-9.34,0-10.28-.41a15.27,15.27,0,0,1-7.81-8.22" transform="translate(-343.44 -1610.22)"/>
                        <path class="cls-2" d="M384.38,1844.88c-1.09,7.52-5.15,13.47-10.34,15.15-6.68,2.17-11.78-3.86-12.27-4.45" transform="translate(-343.44 -1610.22)"/>
                        <path class="cls-2" d="M364.56,1857.61c-.18,1.4-1.28,8.66-7.28,12.86-3.62,2.53-7.13,3.42-8.87,3.39H344.5" transform="translate(-343.44 -1610.22)"/>
                        <path class="cls-2" d="M425.9,1758.13c-5.07-8.08-12.73-11-17-8.61-.59.33-2.95,1.76-4,6.32" transform="translate(-343.44 -1610.22)"/>
                        <path class="cls-2" d="M409.25,1748.88c-1.64-8.63-16.44-14.69-21.41-13.15-3.37,1-5.58,5.68-5.82,6.16a13.53,13.53,0,0,0-1.34,5.35" transform="translate(-343.44 -1610.22)"/>
                        <path class="cls-2" d="M390.34,1758.13c-4.23-9.17-11.84-13.3-17.68-10.78-4.13,1.78-6.26,6.4-7,8.22" transform="translate(-343.44 -1610.22)"/>
                        <path class="cls-2" d="M369.78,1762a7.47,7.47,0,1,0-14.8,2" transform="translate(-343.44 -1610.22)"/>
                        <path class="cls-2" d="M356.42,1758.13c-1.22-1.84-4.19-5.73-8.84-6.81a10.67,10.67,0,0,0-2.29-.28h-.79" transform="translate(-343.44 -1610.22)"/>
                        <path class="cls-2" d="M357,1870.37c-1.22,10.67,4.5,19.32,11.43,20.72,5.47,1.11,10.26-2.59,11.43-3.54" transform="translate(-343.44 -1610.22)"/>
                        <path class="cls-2" d="M379.24,1881.26a9.54,9.54,0,0,0,13.57,10.28" transform="translate(-343.44 -1610.22)"/>
                        <path class="cls-2" d="M389.52,1893c.1.63.89,5,4.44,7.33a8,8,0,0,0,9.33-.52" transform="translate(-343.44 -1610.22)"/>
                        <path class="cls-2" d="M403.08,1894.21c0,1-.16,10.53,7.54,16,4.88,3.5,13.52,5.81,19.07,1.3,3.64-2.94,4.28-7.46,4.43-9.1" transform="translate(-343.44 -1610.22)"/>
                        <path class="cls-2" d="M427.13,1894.8a17.06,17.06,0,0,0,8.3,8.68c1.75.83,7.93,3.84,13.48.51a12.76,12.76,0,0,0,5.7-12.25" transform="translate(-343.44 -1610.22)"/>
                        <path class="cls-2" d="M795.8,1937.55a12.47,12.47,0,0,1-10.59,11.79c-5.27.61-8.92-3.35-9.19-3.66a9.54,9.54,0,0,1-2-8.4" transform="translate(-343.44 -1610.22)"/>
                        <path class="cls-2" d="M773.91,1939.64c-3,4.27-8.4,5.68-12.34,3.7-4.36-2.19-4.9-7.5-4.93-7.81" transform="translate(-343.44 -1610.22)"/>
                        <path class="cls-2" d="M760.75,1932.31a11,11,0,0,1-7.38,3c-5.59-.19-11.16-6-12.15-14.59" transform="translate(-343.44 -1610.22)"/>
                        <path class="cls-2" d="M747.59,1918.67" transform="translate(-343.44 -1610.22)"/>
                        <path class="cls-2" d="M744.1,1929c-2.87,4.66-7.79,6.35-11.67,4.32-4.37-2.28-5.32-8.15-5.39-8.64" transform="translate(-343.44 -1610.22)"/>
                        <path class="cls-2" d="M730.3,1932.5a18.74,18.74,0,0,1-16.22,7.94,18.26,18.26,0,0,1-16.5-16.37" transform="translate(-343.44 -1610.22)"/>
                        <path class="cls-2" d="M703.61,1924c-6,2.16-11.78-.86-13.16-5.3-1.32-4.26,1.78-8.48,2.06-8.84" transform="translate(-343.44 -1610.22)"/>
                        <path class="cls-2" d="M697.85,1909.22a12.65,12.65,0,0,1-12.33-3.29c-4.64-4.72-3.39-11-3.29-11.51" transform="translate(-343.44 -1610.22)"/>
                        <path class="cls-2" d="M682.38,1900.71a8.42,8.42,0,0,1-9.56-.08,12.12,12.12,0,0,1-4.61-11.85,10.2,10.2,0,0,1,2.24-4.66" transform="translate(-343.44 -1610.22)"/>
                        <path class="cls-2" d="M674,1886.19a9.18,9.18,0,0,1-2.47-17.67" transform="translate(-343.44 -1610.22)"/>
                        <path class="cls-2" d="M675.63,1873a16.05,16.05,0,0,1-3.4-17.66,13.34,13.34,0,0,1,17.4-7" transform="translate(-343.44 -1610.22)"/>
                        <path class="cls-2" d="M678.94,1848.37c-4.79-5.27-3.59-13.2,1.23-16.44,4.16-2.79,10.64-1.85,14.39,2.88" transform="translate(-343.44 -1610.22)"/>
                        <path class="cls-2" d="M690.26,1831.39a17.14,17.14,0,0,1,15.85-6.6A17.33,17.33,0,0,1,720.39,1839" transform="translate(-343.44 -1610.22)"/>
                        <path class="cls-2" d="M714.32,1828.84c-.66-4.62.6-9.25,3.79-11.53,4.83-3.47,14.29-1.68,19.41,6.46" transform="translate(-343.44 -1610.22)"/>
                        <path class="cls-2" d="M736.91,1829.46c-.79-7.38,2.74-13.1,7-14a8.35,8.35,0,0,1,6.17,1.65" transform="translate(-343.44 -1610.22)"/>
                        <path class="cls-2" d="M748,1815.48c.25-3.65,2.73-8.83,6.16-9.86a8.79,8.79,0,0,1,9.87,3.7" transform="translate(-343.44 -1610.22)"/>
                        <path class="cls-2" d="M763,1807.47c.61-5.63,3.93-10.28,8.48-11.84,5.84-2,12.86,1.42,16,8.4" transform="translate(-343.44 -1610.22)"/>
                        <path class="cls-2" d="M779.73,1796c-1.22-5.85,1.83-10.76,5.75-12.46,4.8-2.07,10.81,4.45,11,4.67" transform="translate(-343.44 -1610.22)"/>
                        <path class="cls-2" d="M794.87,1793.28c-.58-5.09,2.67-9.13,6.17-9.45s6,3.08,6.17,3.29" transform="translate(-343.44 -1610.22)"/>
                        <path class="cls-2" d="M805.56,1785.06c0-.64,2-11.39,9.17-16a14.85,14.85,0,0,1,7.93-2.31h2.84" transform="translate(-343.44 -1610.22)"/>
                        <path class="cls-2" d="M454.47,1896.47c8,.24,13.12-5.21,12.75-9.45-.26-3-3.22-5.67-7-7" transform="translate(-343.44 -1610.22)"/>
                        <path class="cls-2" d="M467.63,1887c15.21,2,25.2-9.3,25.49-16.86.21-5.53-3.95-9.79-5.35-11.1" transform="translate(-343.44 -1610.22)"/>
                        <path class="cls-2" d="M493.53,1867.28c10.28-2.87,10.39-13.48,7.81-16.85-2-2.6-6.52-3.53-10.69-1.65" transform="translate(-343.44 -1610.22)"/>
                        <path class="cls-2" d="M501.34,1860.29c5.14,5.44,18.53,3.85,22.2-.41,2.72-3.15,3-8.38.41-12.74" transform="translate(-343.44 -1610.22)"/>
                        <path class="cls-2" d="M525.59,1849.61c9-2.1,16.47-10,16-17.47-.36-6.32-5.29-12-12.5-14.4" transform="translate(-343.44 -1610.22)"/>
                        <path class="cls-2" d="M462.35,1894.84c-1,4.88,1.31,9.44,4.53,10.73,4,1.59,10-1.56,11.12-8" transform="translate(-343.44 -1610.22)"/>
                        <path class="cls-2" d="M472.77,1905.52a8.12,8.12,0,0,0,5.13,7c3.85,1.34,8.82-.8,10.69-5.35" transform="translate(-343.44 -1610.22)"/>
                        <path class="cls-2" d="M484.73,1911.68c-1.5,3,1,5.91,4,6.32a6.53,6.53,0,0,0,6.6-3.34" transform="translate(-343.44 -1610.22)"/>
                        <path class="cls-2" d="M494.76,1908.81a16,16,0,0,0,1.65,9.45c2.31,4.35,7.17,8.28,13.15,8.22a15,15,0,0,0,9.87-4.11" transform="translate(-343.44 -1610.22)"/>
                        <path class="cls-2" d="M512.24,1926.48c-2.26,5,.39,10.24,4.39,11.45,2.89.87,6.46-.37,8.76-3.13" transform="translate(-343.44 -1610.22)"/>
                        <path class="cls-2" d="M518.81,1938.61c0,5.58,2.07,8.22,2.86,9.08,4.63,5.09,15.26,4.75,24.89-3" transform="translate(-343.44 -1610.22)"/>
                        <path class="cls-2" d="M536.69,1929.57c.49,8.33,6.36,15.22,14,16.64,8.26,1.53,16.66-3.72,19.32-12.38" transform="translate(-343.44 -1610.22)"/>
                        <path class="cls-2" d="M564.65,1925.25c1.08,5.72,5.43,9.13,9,8.63,2.79-.38,4.51-3,4.94-3.7" transform="translate(-343.44 -1610.22)"/>
                        <path class="cls-2" d="M576.16,1933.47c3.84,3.91,9.47,5,13.57,2.88,5.36-2.76,7.74-10.77,3.7-17.27" transform="translate(-343.44 -1610.22)"/>
                        <path class="cls-2" d="M592,1935.12a11.85,11.85,0,0,0,8.18,9.27c5.3,1.48,11.39-1.35,14-7" transform="translate(-343.44 -1610.22)"/>
                        <path class="cls-2" d="M611,1929.16c-.6,6.48,4.19,11.2,8.34,10.89,3.15-.24,6.23-3.38,7-7.72" transform="translate(-343.44 -1610.22)"/>
                        <path class="cls-2" d="M621.38,1930.18c3.52,2.08,7.22,2.33,8.64.83,1.67-1.78.94-6.82-3.7-10.69" transform="translate(-343.44 -1610.22)"/>
                        <path class="cls-2" d="M630.43,1926.07c6.94,2.54,13.71-1.47,14.8-6.58.8-3.77-1.48-8.26-5.76-10.68" transform="translate(-343.44 -1610.22)"/>
                        <path class="cls-2" d="M645.43,1915.79c3.77.68,7.26-1.78,7.61-4.93.31-2.83-2-5.65-5.37-6.17" transform="translate(-343.44 -1610.22)"/>
                        <path class="cls-2" d="M653,1909.13c6.77,4.87,13.79,3.87,16.88-1.22a14.79,14.79,0,0,0,1.82-7.94" transform="translate(-343.44 -1610.22)"/>
                        <path class="cls-2" d="M538.13,1824.49a18.27,18.27,0,0,1,19.47-1.07,12.62,12.62,0,0,1,6.28,12.82" transform="translate(-343.44 -1610.22)"/>
                        <path class="cls-2" d="M562,1826.58c7.86-3,16.69.44,19,6.17,2.39,5.9-2.45,13.43-11.22,14.8" transform="translate(-343.44 -1610.22)"/>
                        <path class="cls-2" d="M581.3,1833.78c.47-5.26,3.83-9.61,8.23-10.83,5.39-1.49,11.48,2,13.56,8.25" transform="translate(-343.44 -1610.22)"/>
                        <path class="cls-2" d="M598.36,1838.51c.54-4.87,4.51-8.34,8.63-8.23a8.59,8.59,0,0,1,7.4,5.35" transform="translate(-343.44 -1610.22)"/>
                        <path class="cls-2" d="M606,1853.33c-.52-9.28,6-17.5,15.38-20,10.25-2.71,23.24,1.62,26,10,2.25,6.82-3.37,13.12-4.24,14.08" transform="translate(-343.44 -1610.22)"/>
                        <path class="cls-2" d="M647.08,1851.14c3.32-2,7.35-1.85,9.54,0,2.89,2.43,2.87,8.1-1.69,11.42" transform="translate(-343.44 -1610.22)"/>
                        <path class="cls-2" d="M658.59,1855.31c2.64-3.41,6.28-4.38,9.1-2.5,2.39,1.59,3.37,4.67,3.64,5.63" transform="translate(-343.44 -1610.22)"/>
                        <path class="cls-2" d="M629.19,1770.26c3.84,3.82,5.59,9,4.12,13.16-2.16,6-11.31,10-20.15,5.75" transform="translate(-343.44 -1610.22)"/>
                        <path class="cls-2" d="M633.72,1782.18a9.73,9.73,0,0,0,7.81,1.65,9.91,9.91,0,0,0,6.58-5.76" transform="translate(-343.44 -1610.22)"/>
                        <path class="cls-2" d="M632.07,1758.75a12.24,12.24,0,0,1-7,13.57,12.09,12.09,0,0,1-12.74-2.47" transform="translate(-343.44 -1610.22)"/>
                        <path class="cls-2" d="M692.92,1759.57c9.1,3.73,12.45,14.11,8.63,21-3,5.47-10.48,8.37-17.68,6.17" transform="translate(-343.44 -1610.22)"/>
                        <path class="cls-2" d="M702.37,1769.85c4.37-3.79,10.38-2.94,12.75.41,1.68,2.38,1.51,6-.41,9" transform="translate(-343.44 -1610.22)"/>
                        <path class="cls-2" d="M561.36,1709.42c-.86,5.5,2.11,10.66,6.58,12.33,5.48,2,12.56-1.41,14.39-8.22" transform="translate(-343.44 -1610.22)"/>
                        <path class="cls-2" d="M579.86,1719.28c.46.2,4.58,1.93,7.4,0,3.13-2.13,4-8.3,0-13.56" transform="translate(-343.44 -1610.22)"/>
                        <path class="cls-2" d="M567.94,1704.07c-2.82,5.1-8.54,6.6-11.92,4.52-2.25-1.37-3.43-4.31-3.29-7.4" transform="translate(-343.44 -1610.22)"/>
                        <path class="cls-2" d="M806.31,1859.34c.16-1.14,1.92-11.94,10.22-15.26a13.32,13.32,0,0,1,4.86-.94h4.11" transform="translate(-343.44 -1610.22)"/>
                        <path class="cls-2" d="M811.32,1865.64a9.33,9.33,0,0,0-7.4-7,9.74,9.74,0,0,0-8.23,2.88" transform="translate(-343.44 -1610.22)"/>
                        <path class="cls-2" d="M811.94,1847.14c-1.41-5.41-6-8.83-10.37-8.46-4,.33-6.46,3.75-6.85,4.32" transform="translate(-343.44 -1610.22)"/>
                        <path class="cls-2" d="M822.83,1915a9.34,9.34,0,0,0-11.1-4.93,9.24,9.24,0,0,0-6.17,8.63" transform="translate(-343.44 -1610.22)"/>
                        <path class="cls-2" d="M813.7,1909.27c-2.31-3-1.9-7,.88-9.9,3.26-3.39,8.17-3.48,8.61-3.48h2.31" transform="translate(-343.44 -1610.22)"/>
                        <path class="cls-2" d="M555.81,1891.28a8.51,8.51,0,0,1,10.43-1.31,7.08,7.08,0,0,1,2.84,9.17" transform="translate(-343.44 -1610.22)"/>
                        <path class="cls-2" d="M567.94,1890.72a9.25,9.25,0,0,1,9.45-2.47,9.52,9.52,0,0,1,5.76,5.76" transform="translate(-343.44 -1610.22)"/>
                        <path class="cls-2" d="M558.48,1897.71a10.05,10.05,0,0,0-19.32-2.88" transform="translate(-343.44 -1610.22)"/>
                        <path class="cls-2" d="M418.71,1712.29a7,7,0,1,0,14-.82" transform="translate(-343.44 -1610.22)"/>
                        <path class="cls-2" d="M426.11,1702a11.28,11.28,0,0,0,20.14,6.16" transform="translate(-343.44 -1610.22)"/>
                        <path class="cls-2" d="M442.14,1711.88c.18.34,2.82,5.27,8.22,5.76a10.71,10.71,0,0,0,10.69-7" transform="translate(-343.44 -1610.22)"/>
                        <path class="cls-2" d="M590.14,1904.69c7,7.62,16.54,8.12,20.55,4.12,3.49-3.48,2.25-9.78,2.06-10.69" transform="translate(-343.44 -1610.22)"/>
                        <path class="cls-2" d="M354.31,1820.38c3.3,3.72,4.2,8.38,2.34,11.43-2.17,3.53-9.07,3.82-10.71,3.82H344.5" transform="translate(-343.44 -1610.22)"/>
                        <path class="cls-2" d="M347.09,1814.7c.37.64,3.15,5.31,8.56,6.09,5.09.73,10.39-2.28,12.85-7.53" transform="translate(-343.44 -1610.22)"/>
                        <path class="cls-2" d="M350.56,1720.16a6.56,6.56,0,0,0,.57-8.75,8.45,8.45,0,0,0-6.05-2.89h-.58" transform="translate(-343.44 -1610.22)"/>
                        <path class="cls-2" d="M353.13,1715.38a5.26,5.26,0,0,1,3.62,9.21" transform="translate(-343.44 -1610.22)"/>
                        <path class="cls-2" d="M719.64,1702.43c6.39-.67,11.93,2.4,13.57,7a10.47,10.47,0,0,1-.42,7.4" transform="translate(-343.44 -1610.22)"/>
                        <path class="cls-2" d="M733.82,1713.94c7.8-.61,14.3,3.34,15.39,8.22s-3.49,8.65-4,9" transform="translate(-343.44 -1610.22)"/>
                        <path class="cls-2" d="M749.44,1724.62a10.23,10.23,0,0,1,11.71,0,6.18,6.18,0,0,1,1.24,9.05" transform="translate(-343.44 -1610.22)"/>
                        <path class="cls-2" d="M764,1729.39c3.49-3.2,8.33-3.52,11.76-.9,4.24,3.22,4.08,9.16,4.06,9.5" transform="translate(-343.44 -1610.22)"/>
                        <path class="cls-2" d="M774.73,1738.19a8.24,8.24,0,0,1,9.86,4.12,8,8,0,0,1-1.23,8.22" transform="translate(-343.44 -1610.22)"/>
                        <path class="cls-2" d="M775.55,1748.48a8.88,8.88,0,0,1,10.28,8.08,9.24,9.24,0,0,1-6.17,9" transform="translate(-343.44 -1610.22)"/>
                        <path class="cls-2" d="M766.09,1762.87c10.22-.7,18.63,4.34,21,12.21a18.23,18.23,0,0,1,.41,8.13" transform="translate(-343.44 -1610.22)"/>
                        <path class="cls-2" d="M816.89,1741.71a8.78,8.78,0,0,0,8,13.16h.59" transform="translate(-343.44 -1610.22)"/>
                        <path class="cls-2" d="M817.69,1751a8.22,8.22,0,0,1-6.62,5.33c-3.65.31-7.24-2.47-8.39-6.78" transform="translate(-343.44 -1610.22)"/>
                        <path class="cls-2" d="M811.73,1682.28c-1.71-4-.33-8.45,2.64-11.76a14.23,14.23,0,0,1,10.21-4.36h.92" transform="translate(-343.44 -1610.22)"/>
                        <path class="cls-2" d="M814.19,1689.27a7.38,7.38,0,0,0-14.38-3.29" transform="translate(-343.44 -1610.22)"/>
                        <path class="cls-2" d="M801,1682.69c-3.1-3.69-8.28-5.5-12.69-4a11.75,11.75,0,0,0-7.86,12.06" transform="translate(-343.44 -1610.22)"/>
                        <path class="cls-2" d="M639.47,1834.39a9.6,9.6,0,0,1,17.27-2.05" transform="translate(-343.44 -1610.22)"/>
                        <path class="cls-2" d="M646.46,1827.61c-.11-.39-2.65-8.93-8.63-10-4.8-.89-8.15,3.7-8.64,4.39" transform="translate(-343.44 -1610.22)"/>
                        <path class="cls-2" d="M805.15,1639.53c.63-6.21,4.23-11.46,9.46-13.57a26.06,26.06,0,0,1,10.27-1.64h.62" transform="translate(-343.44 -1610.22)"/>
                        <path class="cls-2" d="M789.94,1630.07c5.78-3.74,11.87-4.39,15.21-1.64a11.88,11.88,0,0,1,2.47,3.7" transform="translate(-343.44 -1610.22)"/>
                        <path class="cls-2" d="M786.76,1949.64a31.45,31.45,0,0,0,8.79,21.53c10.18,10.61,24.22,11.08,26.55,11.12h3.4" transform="translate(-343.44 -1610.22)"/>
                        <path class="cls-2" d="M477.91,1912.51c-.37,6.55-4.69,11.9-10.28,13.15a13.84,13.84,0,0,1-11.1-2.88" transform="translate(-343.44 -1610.22)"/>
                        <path class="cls-2" d="M461.46,1925.25c-.38,1.16-2.9,7.38-6.17,9-4.39,2.25-10.68.59-14.8-4.52" transform="translate(-343.44 -1610.22)"/>
                        <path class="cls-2" d="M443.3,1933.34a16.85,16.85,0,0,1-5.75,9.63c-7.46,5.91-20.64,4.61-26.22-2.79a15.59,15.59,0,0,1-2.81-10.4" transform="translate(-343.44 -1610.22)"/>
                        <path class="cls-2" d="M412.74,1941.49c-.2,1.59-.87,5.62-3.28,8.39-3.3,3.78-8.48,3.66-12.75-.6" transform="translate(-343.44 -1610.22)"/>
                        <path class="cls-2" d="M398.56,1941.69a17.39,17.39,0,0,1-22.2,18.09" transform="translate(-343.44 -1610.22)"/>
                        <path class="cls-2" d="M378.89,1959.84c6.19,8.18,5.88,19.31-.77,28.3-9.44,12.76-26,13.58-26.89,13.73H344.5" transform="translate(-343.44 -1610.22)"/>
                    </g>
                </g>
            </g>
        </g>
    </g>
</svg>