<svg id="CONTENT"
    xmlns="http://www.w3.org/2000/svg" viewBox="0 0 484.76 834.28">
    <defs>
        <style>.cls-1,.cls-2{stroke:#fff;stroke-miterlimit:10;}.cls-1{stroke-width:5px;}</style>
    </defs>
    <g id="SMALL">
        <g id="NEVERCATCH_SMALL">
            <g id="JUNCTION_NEVERCATCH_SMALL">
                <g id="I_JUNCTION_HAUT" data-name="I JUNCTION HAUT">
                    <g id="Falaise_Droite_Haut" data-name="Falaise Droite Haut">
                        <path class="cls-1" d="M412.51,517.08v-6.73s1.88-13.93,3.12-17.23-6-8-6-8V473.28l1.47-9-1.47-11.6-1.82-11,5.6-19.23-3.78-6.59-1.82-10.71v-7.62l.82-9.89,7-8.65-3.12-7.35.89-21.42L416,331.62l-3.53-13-1.83-9.27,2.72-28.22v-9.48l6.76-16.27,10.3-2.47,4.53-5.77,10.3-5.77,13.18-7.82,6.39-15.47,16.27,11.69v226.8" transform="translate(1.13 -214.23)"/>
                        <polyline class="cls-1" points="406.46 350.78 406.51 335.95 410.75 328.44 412.23 321.73 410.75 306.28 417.17 298.66 422.52 290.01 428.22 290.01 434.47 278.06 436.94 276.07 448.23 269.85 450.13 262 457.13 242.22 462.49 229.86 470.73 227.8 478.97 229.45 482.26 223.62 482.26 290.98"/>
                        <polyline class="cls-1" points="389.57 397.54 391.63 376.94 395.54 370.56 397.39 357.99 404.19 348.79 414.53 345.01 420.46 334.92 434.06 327.5 448.23 307.46 456.31 301.55 470.8 297.62 478.97 288.36 482.26 283.77 482.26 417.46"/>
                    </g>
                    <g id="Falaise_Gauche_Haut" data-name="Falaise Gauche Haut">
                        <path class="cls-1" d="M74.5,493.53l3.73-12.76a4.65,4.65,0,0,0,.07-2.51L75.73,468,75,448.05l1.9-19a4.27,4.27,0,0,0-.3-2l-7.31-17.69-5.92-8.79a2.34,2.34,0,0,1-.39-1.26L62.57,380a4.32,4.32,0,0,1,.42-1.94l7.14-14.92a5,5,0,0,0,.5-2.17V340.72a2.1,2.1,0,0,0-.13-.74l-2.37-6.92a6.91,6.91,0,0,1-.21-3.77l2.63-11.91-.88-8.17a6.37,6.37,0,0,0-1.55-3.53l-3.84-4.35A8,8,0,0,1,62.86,299l-4.25-10.45a4.25,4.25,0,0,0-2-2.2L50,282.93a6,6,0,0,1-2.32-2.12L43,273.49A5.7,5.7,0,0,0,39.43,271l-7.5-1.67a5.59,5.59,0,0,1-3.74-2.89L19.2,249a9.41,9.41,0,0,0-4.7-4.36L1.57,238.92V441" transform="translate(1.13 -214.23)"/>
                        <polyline class="cls-1" points="75.45 297.62 70.59 295.85 62.24 293.93 51.94 287.33 44.25 279.99 37.31 274.97 22.69 270.44 14.59 279.99 2.71 285.69"/>
                        <path class="cls-1" d="M107.87,612.19l-12-26.37-.75-16.54a2.81,2.81,0,0,0-1.48-2.34l-1.19-.63A3,3,0,0,1,91,563.15l1.11-6.24a3.4,3.4,0,0,0-.07-1.49l-2.27-8.33-3.53-16.88a4.61,4.61,0,0,0-.65-1.55L74.32,511.85a3.2,3.2,0,0,1-.53-2.08L74.94,497a3.16,3.16,0,0,0,0-.81l-3.15-14.64a3.37,3.37,0,0,0-5.32-2l-1.16.88A1.55,1.55,0,0,1,63,480l-7.73-15.11a2.82,2.82,0,0,0-1.53-1.35L41.56,459a3.16,3.16,0,0,0-2.47.11l-6,2.84a2.69,2.69,0,0,1-2.77-.28l-13.1-9.91a3.44,3.44,0,0,1-1.18-1.65l-3.61-10.82a2.48,2.48,0,0,0-.55-.94L2.4,428l-.83-.83V621" transform="translate(1.13 -214.23)"/>
                        <polyline class="cls-1" points="97.61 372.79 89.1 371.38 85.93 370.35 81.4 368.29 78.51 364.17 72.33 360.87 68.63 358.4 62.86 352.63 58.12 348.69 54.41 348.17 48.44 353.05 40.71 358.47 35.66 356.75 27.84 354.69 23.72 356.34 15.89 362.93 8.06 366.64 2.71 365.96"/>
                    </g>
                    <g id="Socle">
                        <path class="cls-1" d="M36.18,896.87c7-.14,14.89,0,18.13,1.24,8,3,9.65,6.86,16.07,7,4.43.1,5.44-1.7,11.53-1.65,5.44,0,6.6,1.49,9.89,1.65,12.15.61,17.38-18,28-16.89,5.35.54,6.07,5.45,10.71,4.94,7.43-.8,7.51-13.62,15.24-15.65,6.09-1.6,8.71,5.65,23.07,10.71,7,2.47,10.86,1.93,16.89.41,12.92-3.26,15-16.09,24.31-16.48,5.22-.21,8.65-6.59,23.49,14,4.31,6,7.9,3.71,9.06,3.71,9.47,0,8.1-9.37,20.6-9.07,6,.15,7.28,4.43,13.59,4.54s8.65-7.43,14-6.6c3.89.61,3.66,4.72,10.3,10.72a44.17,44.17,0,0,0,14,8.24c5.21,2.08,8.39,3.35,12.77,3.29,9.75-.13,17.51-6.77,20.19-9.06,4.77-4.09,5.1-6.26,8.24-7,5.32-1.27,24.24,12.06,28.43,16.48" transform="translate(1.13 -214.23)"/>
                        <path class="cls-1" d="M69.14,927.77c15.24-9.89,30.56-1.61,37.49-5.77,10.3-6.18,12-4.53,18.13-7.41,14.7-6.9,15.27-16.22,25.13-17.31,9.44-1,12.81,7.06,22.25,6.18,8.7-.81,13.93-9.8,18.13-16.48" transform="translate(1.13 -214.23)"/>
                        <path class="cls-1" d="M244.65,890.28l5.85,7.21a4.6,4.6,0,0,0,6.61.57l3.4-2.95a5.46,5.46,0,0,1,5.53-1l18.41,7.07,23.84,13.43a5.43,5.43,0,0,0,5,.14l16.13-7.92a9.19,9.19,0,0,1,7.18-.4l8.59,3.1a4.49,4.49,0,0,0,4.16-.61l9.92-7.32a6,6,0,0,1,6.85-.18l5.14,3.41" transform="translate(1.13 -214.23)"/>
                        <path class="cls-1" d="M1.57,986.07" transform="translate(1.13 -214.23)"/>
                        <line class="cls-1" x1="482.26" y1="710.8" x2="482.26" y2="664.65"/>
                        <line class="cls-1" x1="2.71" y1="677.69" x2="2.71" y2="717.45"/>
                        <path class="cls-1" d="M51.42,940.54l1.49,7.82a2.23,2.23,0,0,0,.84,1.35l9,6.8a2.16,2.16,0,0,0,1.51.44l3-.25a2.43,2.43,0,0,1,1.94.72l4.14,4.13,4.4,6.24a2.44,2.44,0,0,0,1.47,1l3.86.82a2.76,2.76,0,0,1,1.59,1l5.12,6.72a2.28,2.28,0,0,0,2.26.86l8-1.59a2.44,2.44,0,0,1,1.77.3l4.42,2.65a3,3,0,0,0,2,.38l7.19-1.25a2.49,2.49,0,0,1,2.12.61l2.46,2.21a2.8,2.8,0,0,0,1.76.72l6.36.32a2.58,2.58,0,0,1,1.54.61l5.28,4.4a3.3,3.3,0,0,0,3.25.55l3.52-1.32a2.13,2.13,0,0,1,2.26.48l5.21,5.21,2.66,2.67a2.67,2.67,0,0,0,1.51.76l12.32,1.87a2,2,0,0,1,.74.27l5,3.09,9.48,8.65,6.09,5a3.27,3.27,0,0,0,2.1.75h5.62a2.79,2.79,0,0,1,1.71.59l3,2.3,1.4,2a2.74,2.74,0,0,0,1.78,1.11l2.57.43a3,3,0,0,1,2,1.25l3.72,5.27a3.15,3.15,0,0,0,1.25,1l2.41,1.09a3.1,3.1,0,0,0,2.69,0l.86-.43a1.3,1.3,0,0,1,1.7.53l1.47,2.63,3.05,2.71a2.62,2.62,0,0,0,1.53.66l3.37.28a1.73,1.73,0,0,1,1.16.58l3.25,3.6,5.18,1.48a2,2,0,0,1,1,.63l1.14,1.37a2.2,2.2,0,0,0,1.35.76l5,.7h1.22a2.77,2.77,0,0,0,2-.85l11.79-12.09a2.9,2.9,0,0,1,1.54-.82l7.64-1.39a2.58,2.58,0,0,0,1-.38l7.41-4.81a1.65,1.65,0,0,1,.85-.28l6.25-.35a2.35,2.35,0,0,0,1.27-.47l20.44-15.42a2.82,2.82,0,0,1,1.88-.57l5.78.3a3.81,3.81,0,0,0,1.9-.4l9.81-4.9,7.62-4.72a4,4,0,0,0,1.52-1.75l1.84-4.22a1.29,1.29,0,0,1,1.78-.62l9.08,4.72,1.25,1a3.21,3.21,0,0,0,2.76.66l3.81-.88L367,990l9.48-3.71,4.06-3.69a2.66,2.66,0,0,1,1.08-.59l4.69-1.25a4,4,0,0,0,1.57-.83l10.55-9.1a3.29,3.29,0,0,1,1.63-.74l6.93-1a3.57,3.57,0,0,0,1.47-.56l8.69-5.87a2.43,2.43,0,0,1,.9-.36l4.57-.74L433,956a2.25,2.25,0,0,1,.66-.23l6.77-1.36a3.22,3.22,0,0,0,1.86-1.1l4.66-5.57" transform="translate(1.13 -214.23)"/>
                        <path class="cls-1" d="M135.47,863.5l-7.12-7.12a5.53,5.53,0,0,0-3.54-1.62,17.45,17.45,0,0,0-3,0A5.53,5.53,0,0,0,118.9,856l-11.31,9.11a20.51,20.51,0,0,1-3.09,2.06,5.51,5.51,0,0,1-5,.09l-1.21-.58a7,7,0,0,0-8.77,2.58c-1.09,1.78-2.21,3.78-7.84,6.12l-.36.11c-5.64,1.24-8.17,3.22-15.48,7.79-.12.07-6,4-6.18,4.12l-2.59,1.12a2.16,2.16,0,0,1-.57.14l-12.35,1.19-.28,0c-6.38,1.66-10.86,6.94-7.11,9.3a1.87,1.87,0,0,1,.43.36l4.63,5.4a1.85,1.85,0,0,1,.23.34,16.49,16.49,0,0,0,1.86,3.18l6.21,6.42a5,5,0,0,0,2.21,1.32c1.85.53,5,1.38,5.11,1.49l6.86,6.87,0,0c14.17,7.6-1.67,12.48-12.82,14.5a.78.78,0,0,0,0,1.53l12,2.93,4.07,1a5.16,5.16,0,0,0,.77.13l24.33,2.43,22.24,2.06h15.7l.07,0,8.93,3.68h.06l16,.83L180.38,955h8.88l16.21,5.34h.08l10.64-.82h.06l11.88,2.87h.08l12.13-2.83a.19.19,0,0,0,.13-.23l-1.93-6.57a.19.19,0,0,1,.19-.23l24.43,1.63h0l13.11-2.86h.1l4.44,1.62H281l15.15-2a.14.14,0,0,1,.09,0L306.82,955h.08l23-.82h0l8.61-1.65h.05l12.31.82h0L370.29,950h0l38.68.82h.06l15.18-4.51h.07l20.93,2.06.09,0,1.65-.66a.18.18,0,0,0,0-.33l-19.42-10.52h0l-10.28-6.58h0L393,920.78l0,0-24.32-17.88a1,1,0,0,1,.8-1.86l12.75,2.39a3.28,3.28,0,0,0,3.6-1.89h0a1.87,1.87,0,0,1,2-1.09l9.77,1.68a3.93,3.93,0,0,0,1.45,0l16.28-3.62a3.62,3.62,0,0,1,2.84.56l1.77,1.24a3.37,3.37,0,0,0,3.59.16l9.16-5.23,5.92-3.38a9.33,9.33,0,0,0,1.25-1.76.19.19,0,0,0-.1-.25l-12.54-5.43a2.86,2.86,0,0,0-1-.34l-12-1.88a4.85,4.85,0,0,1-1.28-.39l-4.29-2.07a2.16,2.16,0,0,0-.51-.16l-10.26-1.87a3.41,3.41,0,0,1-1.46-.63L388,870.8a3.4,3.4,0,0,0-.88-.47L375.62,866a2,2,0,0,0-2.1.45l-7.4,7.4a3,3,0,0,1-1.83.86l-7.13.65a3.49,3.49,0,0,1-1.66-.25l-6.12-2.52-.17-.08-15.65-8.2a5.91,5.91,0,0,0-3.33-.64l-9.17,1a4.73,4.73,0,0,1-2-.22l-14-4.76a6.62,6.62,0,0,0-7.32,2.16L294,866.65a5.29,5.29,0,0,1-2.8,1.83l-5.57,1.45a7.19,7.19,0,0,1-4.33-.22l-4.35-1.63a1.91,1.91,0,0,0-.62-.13l-7.45-.28a7.31,7.31,0,0,0-5.51,2.19l-4.73,4.83a2,2,0,0,1-.81.5l-9.36,3a8.51,8.51,0,0,1-7.71-1.27l-9.56-7.09a7.13,7.13,0,0,0-3-1.3l0,0-10.28-4.85a4.43,4.43,0,0,0-2.61-.38l-5.86,1.44a1.44,1.44,0,0,1-1.39-.41c-2.41-2.54-6.09-5.54-10.75-5.77-8.43-.43-12.36,8.55-19,7-6.27-1.48-8.69-11-12.67-10a3.36,3.36,0,0,0-1.75,1.31,46.36,46.36,0,0,1-8.82,9.1c-1.08.84-3,4.26-5.4,3.88-3.81-.62-4.61-3.36-7.79-5.12-2.15-1.19-6.42-4.57-15.89,2.44" transform="translate(1.13 -214.23)"/>
                    </g>
                    <g id="Socle-2" data-name="Socle">
                        <polyline class="cls-2" points="1.88 416.29 37.52 405.99 105.5 398.57 140.52 408.87 173.48 404.34 227.03 416.29 267.82 410.93 312.73 431.47 398.42 422.61 444.98 419.85 482.88 419.99 482.47 575.66 476.7 582.25 470.93 584.32 464.75 581.43 456.51 575.25 454.04 569.48 444.98 568.25 432.21 577.72 424.79 582.25 411.61 577.72 398.84 584.73 386.48 575.25 379.06 571.54 371.23 568.66 357.64 577.72 353.93 578.96 341.57 571.96 339.92 572.37 337.45 578.13 318.08 589.26 310.26 588.43 288.42 604.91 281.42 605.33 273.59 610.27 264.12 612.33 257.11 619.33 250.2 625.51 247.63 625.1 242.28 624.28 237.75 621.81 233.63 619.75 230.33 616.45 225.39 616.04 223.33 613.57 219.78 609.62 215.91 610.27 212.2 608.21 209.32 603.27 202.32 599.97 196.55 595.85 189.54 595.44 178.01 585.96 167.71 577.31 156.17 576.9 145.87 585.55 138.87 590.49 131.87 589.26 126.51 585.96 118.27 590.08 110.44 598.73 103.85 597.5 97.26 591.73 83.66 586.79 70.48 584.32 60.8 590.1 50.29 594.61 45.35 600.79 39.58 602.03 35.46 600.79 24.34 590.91 23.1 584.32 14.04 579.78 2.91 564.95"/>
                        <path class="cls-1" d="M36.18,690.88c7-.15,14.89,0,18.13,1.23,8,3,9.65,6.87,16.07,7,4.43.09,5.44-1.7,11.53-1.65,5.44,0,6.6,1.48,9.89,1.65,12.15.61,17.38-18,28-16.9,5.35.54,6.07,5.45,10.71,4.95,7.43-.81,7.51-13.63,15.24-15.66,6.09-1.6,8.71,5.65,23.07,10.71,7,2.47,10.86,1.94,16.89.42,12.92-3.26,15-16.1,24.31-16.48,5.22-.22,8.65-6.6,23.49,14,4.31,6,7.9,3.72,9.06,3.71,9.47,0,8.1-9.37,20.6-9.06,6,.14,7.28,4.42,13.59,4.53s8.65-7.42,14-6.59c3.89.6,3.66,4.72,10.3,10.71a44.17,44.17,0,0,0,14,8.24c5.21,2.08,8.39,3.36,12.77,3.3,9.75-.14,17.51-6.78,20.19-9.07,4.77-4.08,5.1-6.26,8.24-7,5.32-1.27,24.24,12.06,28.43,16.48" transform="translate(1.13 -214.23)"/>
                        <path class="cls-1" d="M69.14,721.78c15.24-9.89,30.56-1.62,37.49-5.77,10.3-6.18,12-4.53,18.13-7.42,14.7-6.9,15.27-16.21,25.13-17.3,9.44-1,12.81,7.06,22.25,6.18,8.7-.81,13.93-9.8,18.13-16.48" transform="translate(1.13 -214.23)"/>
                        <path class="cls-1" d="M244.65,684.28l5.85,7.21a4.61,4.61,0,0,0,6.61.58l3.4-3a5.44,5.44,0,0,1,5.53-1l18.41,7.06,23.84,13.43a5.4,5.4,0,0,0,5,.14l16.13-7.92a9.19,9.19,0,0,1,7.18-.39l8.59,3.09a4.46,4.46,0,0,0,4.16-.61l9.92-7.32a6,6,0,0,1,6.85-.17l5.14,3.4" transform="translate(1.13 -214.23)"/>
                        <path class="cls-1" d="M38.53,695.13l-6.67-.34-11.54-3.71-9.4-5.26A3.43,3.43,0,0,0,9,685.39l-7.42.54V640.41" transform="translate(1.13 -214.23)"/>
                        <path class="cls-1" d="M324.58,630.72l16.81-11.08a2.56,2.56,0,0,1,2.68-.09l6.43,3.63a2.33,2.33,0,0,0,2.16.08l14.76-7,12.05-13.56a2.69,2.69,0,0,1,3-.69l14.15,6,16.73,8.58,9.83,1.92a4.15,4.15,0,0,0,2.07-.11l10.86-3.41,9.47-3.33a4,4,0,0,1,4.88,2l2.52,5.39a3.56,3.56,0,0,0,2.23,1.93l9,2.63,7.21,5.07,9.68,2.69v4.12L475.57,640a4.15,4.15,0,0,1-2.25.65H460.88a4.53,4.53,0,0,1-2.52-.77l-8-5.43a3.23,3.23,0,0,0-3.59,0l-12.9,8.27a6.93,6.93,0,0,1-2.95,1l-17.29,2a4.67,4.67,0,0,1-2.16-.28l-13.18-5.1a3.65,3.65,0,0,0-2.44-.09l-17.44,5.44a5.44,5.44,0,0,1-1,.21l-25,2.76a4,4,0,0,1-2.41-.51l-8.4-4.83a3.65,3.65,0,0,0-2.12-.48l-9.58.74" transform="translate(1.13 -214.23)"/>
                        <path class="cls-1" d="M421.81,727.13l3.12-8.6a2.38,2.38,0,0,1,.5-.82l4.61-5a3.2,3.2,0,0,0,.64-1l3.55-9.18,5.83-10.73a2,2,0,0,0,.24-1.13l-.55-6.9" transform="translate(1.13 -214.23)"/>
                        <path class="cls-1" d="M481.13,635.87v36.81l-4.85,2.9-.19.09-7.32,2.85-5.31,1.41a3,3,0,0,0-1.46.91l-8.69,9.82a3.22,3.22,0,0,1-.43.39l-7.47,5.51a2.21,2.21,0,0,1-.72.36l-8.88,2.61" transform="translate(1.13 -214.23)"/>
                        <path class="cls-1" d="M60.08,748.55s-6.18,4.12-7,3.71-7-2.15-9-2.71a2.86,2.86,0,0,0-1.2-.08l-5.09.73-2.45.7a2.29,2.29,0,0,1-2.83-1.51l-1.31-4.13-1.46-4.72a2.87,2.87,0,0,0-.63-1.13l-4.3-4.86-3.11-2.45a3.46,3.46,0,0,0-3.63-.42l-.78.37a3.41,3.41,0,0,1-1.94.3l-4.17-.55a5,5,0,0,1-1.86-.65l-6.14-3.61-1.65-4.12V779l1.24,3.3,3.78,4.94,4.87,6.18,8.65,4.18a3.06,3.06,0,0,1,1.72,2.74v1.74a3.48,3.48,0,0,0,1.27,2.68l2.78,2.26,3.6,5a4,4,0,0,0,1.3,1.18l5,2.79a3,3,0,0,0,1.81.37l5.23-.55a3.71,3.71,0,0,0,2.6-1.49l2.89-3.95A4.12,4.12,0,0,1,50,809.1l7-2.87,6-3.51a5.24,5.24,0,0,0,.61-.44l4.63-4a2,2,0,0,1,2-.32l5.88,2.49,10.3,1.23,9.14,4.53,4.38,4.08a3.33,3.33,0,0,0,1.12.69l6,2.28a3,3,0,0,0,3.42-.92l4-4.89,2.81-3.3,7.22-3.75a2.52,2.52,0,0,1,2.79.32l3.31,2.84a2.49,2.49,0,0,0,1.6.59h4.74a4.15,4.15,0,0,0,2.55-.88l15.35-13.19" transform="translate(1.13 -214.23)"/>
                        <path class="cls-1" d="M1.57,780.07" transform="translate(1.13 -214.23)"/>
                        <path class="cls-1" d="M440.76,737.84c1.64-1.65,12.95-3.29,12.95-3.29l6.82-4.54,9.89-2.06,6.18-3.7,4.94-2.31" transform="translate(1.13 -214.23)"/>
                        <polyline class="cls-1" points="482.26 524.64 482.26 576.08 481.44 577.11 477.07 582.89 471.14 584.17 465.37 581.7 456.31 574.7 454.66 569.75 445.19 568.11 434.47 574.7 432.19 578.2 424.58 582.11 411.93 577.38 399.45 585 386.68 575.11 372.26 568.52"/>
                        <line class="cls-1" x1="482.26" y1="504.8" x2="482.26" y2="458.66"/>
                        <line class="cls-1" x1="2.71" y1="471.7" x2="2.71" y2="511.46"/>
                        <path class="cls-1" d="M393,770l9.47,6.59,4.12,1.24,4.95-.42s5.76,2.48,5.76,2.89,5,1.23,5,1.23l2.47-1.64,2.59-3.71,3.18-2.89,2.47-2.06,9.47-3.7,3.71-5.77,6.18-3.3h7.49l5.7-9.89,3.7-4.12,7-1.23,4.12-3.3.82-1.3V718.42l-10.71,1.71-16.89,3.29L440.3,719l-11.49,5.24-6.18.41" transform="translate(1.13 -214.23)"/>
                        <path class="cls-1" d="M303.56,653.38l-21.2-13.6a6.67,6.67,0,0,0-1.34-.66l-27.4-10a5.91,5.91,0,0,0-5.84.26l-8.28,5.21L223.73,642a7.55,7.55,0,0,1-5.66.29L209,639.17l-16.07-7.42-5.75-6.5a7.12,7.12,0,0,0-8.67-1.57l-4.47,2.39a6.32,6.32,0,0,1-5.9,0l-7-3.63a6.06,6.06,0,0,0-5.47-.06l-8.92,4.41-10.3,4.94-5.68-.49a5.54,5.54,0,0,1-4.84-4l-.6-2.11-8.24-9.06-10.81-1.59a5.59,5.59,0,0,0-5.2,2.07l-2.53,3.23-12.77,7-2.41,4a5.73,5.73,0,0,1-6.1,2.61L64,630.52,53.28,626.4l-9.53-4.92a4.85,4.85,0,0,0-5.75,1l-4.91,5.17-6.42,5.84a5,5,0,0,1-5.77.7l-3.17-1.73a5,5,0,0,0-5.33.32l-6.09,4.35-4.74,3.5v-33l6.48-5.43a1.53,1.53,0,0,1,1.89,0l7.23,5.59a2.35,2.35,0,0,0,2,.42l10.12-2.45a2.14,2.14,0,0,1,1.43.16l11.88,5.76a2.76,2.76,0,0,0,2.11.12l5.73-2a2.3,2.3,0,0,1,1.93.21L63,616.4a2.37,2.37,0,0,0,2.44,0l13.2-7.92,12-5.61a2.93,2.93,0,0,1,2.44,0l7.6,3.25a3.35,3.35,0,0,0,1.53.27l2.47-.13,3.5-.18a3,3,0,0,1,1.1.15l17,5.79a3.24,3.24,0,0,1,1.08.62l9.47,8.07a2.93,2.93,0,0,0,2.65.59l11.23-3.06a3.49,3.49,0,0,0,1.54-.9l5.88-5.88a3.51,3.51,0,0,1,2.13-1l3.29-.29,15.62,2.66a3.62,3.62,0,0,0,2.39-.41l4.95-2.79a2.81,2.81,0,0,0,.89-.75l5-6.13a3.75,3.75,0,0,1,4.16-1.19l16.94,5.94a3.91,3.91,0,0,0,1.12.22l13.91.75a4.23,4.23,0,0,1,1.81.5l18.39,9.8a1.82,1.82,0,0,0,1.19.17l8-1.61a2.37,2.37,0,0,0,1.36-.79l7-8a1.5,1.5,0,0,1,1.69-.42l6.42,2.5,13.26,7.63a2.63,2.63,0,0,0,.72.28l11.51,2.69a2.31,2.31,0,0,1,.86.39l5.38,3.84,4.78,1.65h7.24a3.69,3.69,0,0,1,2.11.66l7.29,5.1,3.48,1.25a2.42,2.42,0,0,1,1.46,3.1l-2,5.56a4.28,4.28,0,0,1-1.5,2L313,656.27" transform="translate(1.13 -214.23)"/>
                        <path class="cls-1" d="M51.42,734.55l1.49,7.82a2.23,2.23,0,0,0,.84,1.34l9,6.81a2.21,2.21,0,0,0,1.51.44l3-.25a2.46,2.46,0,0,1,1.94.71l4.14,4.14,4.4,6.23a2.4,2.4,0,0,0,1.47,1l3.86.83a2.7,2.7,0,0,1,1.59,1l5.12,6.73a2.29,2.29,0,0,0,2.26.85l8-1.59a2.49,2.49,0,0,1,1.77.31l4.42,2.64a2.89,2.89,0,0,0,2,.38l7.19-1.25a2.52,2.52,0,0,1,2.12.61l2.46,2.21a2.81,2.81,0,0,0,1.76.73l6.36.32a2.57,2.57,0,0,1,1.54.6l5.28,4.4a3.3,3.3,0,0,0,3.25.55l3.52-1.32a2.15,2.15,0,0,1,2.26.49l5.21,5.21,2.66,2.66a2.74,2.74,0,0,0,1.51.77l12.32,1.86a2.2,2.2,0,0,1,.74.27l5,3.09,9.48,8.65,6.09,5a3.33,3.33,0,0,0,2.1.75h5.62a2.78,2.78,0,0,1,1.71.58l3,2.3,1.4,2a2.7,2.7,0,0,0,1.78,1.11l2.57.43a3.1,3.1,0,0,1,2,1.25l3.72,5.28a3,3,0,0,0,1.25,1l2.41,1.1a3.13,3.13,0,0,0,2.69-.05l.86-.43a1.28,1.28,0,0,1,1.7.52l1.47,2.63,3.05,2.72a2.55,2.55,0,0,0,1.53.65l3.37.28a1.78,1.78,0,0,1,1.16.58l3.25,3.6,5.18,1.48a1.93,1.93,0,0,1,1,.64l1.14,1.37a2.19,2.19,0,0,0,1.35.75l5,.71h1.22a2.81,2.81,0,0,0,2-.85l11.79-12.09a2.77,2.77,0,0,1,1.54-.82l7.64-1.39a2.6,2.6,0,0,0,1-.39l7.41-4.81a1.75,1.75,0,0,1,.85-.28l6.25-.35a2.26,2.26,0,0,0,1.27-.46l20.44-15.42a2.83,2.83,0,0,1,1.88-.58l5.78.3a3.8,3.8,0,0,0,1.9-.39l9.81-4.91,7.62-4.72a3.87,3.87,0,0,0,1.52-1.75l1.84-4.21a1.29,1.29,0,0,1,1.78-.63l9.08,4.72,1.25,1a3.17,3.17,0,0,0,2.76.66l3.81-.88L367,784l9.48-3.71,4.06-3.7a2.66,2.66,0,0,1,1.08-.59l4.69-1.24a4,4,0,0,0,1.57-.84l10.55-9.09a3.12,3.12,0,0,1,1.63-.74l6.93-1a3.58,3.58,0,0,0,1.47-.57l8.69-5.87a2.26,2.26,0,0,1,.9-.35l4.57-.74L433,750a2.61,2.61,0,0,1,.66-.24l6.77-1.35a3.33,3.33,0,0,0,1.86-1.1L447,741.7" transform="translate(1.13 -214.23)"/>
                        <path class="cls-1" d="M135.47,657.5l-7.12-7.12a5.63,5.63,0,0,0-3.54-1.62,18.54,18.54,0,0,0-3,0,5.52,5.52,0,0,0-2.93,1.2l-11.31,9.11a20.51,20.51,0,0,1-3.09,2.06,5.48,5.48,0,0,1-5,.09l-1.21-.58a7,7,0,0,0-8.77,2.59c-1.09,1.78-2.21,3.78-7.84,6.11a1.65,1.65,0,0,1-.36.11c-5.64,1.24-8.17,3.22-15.48,7.79-.12.08-6,4-6.18,4.12l-2.59,1.12a1.83,1.83,0,0,1-.57.14l-12.35,1.2a1.37,1.37,0,0,0-.28,0c-6.38,1.65-10.86,6.93-7.11,9.29a1.69,1.69,0,0,1,.43.37L41.82,699a1.63,1.63,0,0,1,.23.35,16.81,16.81,0,0,0,1.86,3.18l6.21,6.41a5,5,0,0,0,2.21,1.33c1.85.52,5,1.37,5.11,1.49l6.86,6.86,0,0c14.17,7.6-1.67,12.48-12.82,14.5a.78.78,0,0,0,0,1.53l12,2.94,4.07,1a5.19,5.19,0,0,0,.77.14l24.33,2.43,22.24,2.06h15.77l8.93,3.68.06,0,16,.82L180.38,749h8.88l16.21,5.33h.08l10.64-.82h.06l11.88,2.86h.08l12.13-2.83a.18.18,0,0,0,.13-.23l-1.93-6.56a.19.19,0,0,1,.19-.24l24.43,1.63h0l13.11-2.87a.12.12,0,0,1,.1,0l4.44,1.61H281l15.15-2h.09L306.82,749l.08,0,23-.83h0l8.61-1.64h.05l12.31.82h0L370.29,744h0l38.68.83h.06l15.18-4.52h.07l20.93,2h.09l1.65-.66a.19.19,0,0,0,0-.34l-19.42-10.52h0l-10.28-6.58,0,0L393,714.78l0,0-24.32-17.89a1,1,0,0,1,.8-1.86l12.75,2.39a3.29,3.29,0,0,0,3.6-1.88h0a1.88,1.88,0,0,1,2-1.1l9.77,1.69a3.72,3.72,0,0,0,1.45,0l16.28-3.62a3.63,3.63,0,0,1,2.84.57l1.77,1.23a3.35,3.35,0,0,0,3.59.17l9.16-5.23,5.92-3.38a9.66,9.66,0,0,0,1.25-1.76.2.2,0,0,0-.1-.26l-12.54-5.43a3.09,3.09,0,0,0-1-.34l-12-1.87a4.53,4.53,0,0,1-1.28-.4l-4.29-2.06a2.18,2.18,0,0,0-.51-.17l-10.26-1.86a3.53,3.53,0,0,1-1.46-.63L388,664.81a3.76,3.76,0,0,0-.88-.48L375.62,660a2,2,0,0,0-2.1.46l-7.4,7.4a3,3,0,0,1-1.83.86l-7.13.64a3.37,3.37,0,0,1-1.66-.25l-6.12-2.52-.17-.07-15.65-8.2a5.82,5.82,0,0,0-3.33-.64l-9.17.95a4.74,4.74,0,0,1-2-.23l-14-4.76a6.63,6.63,0,0,0-7.32,2.16L294,660.65a5.29,5.29,0,0,1-2.8,1.83l-5.57,1.45a7.12,7.12,0,0,1-4.33-.22l-4.35-1.63a1.9,1.9,0,0,0-.62-.12l-7.45-.29a7.35,7.35,0,0,0-5.51,2.19l-4.73,4.83a2,2,0,0,1-.81.5l-9.36,3a8.54,8.54,0,0,1-7.71-1.27l-9.56-7.1a7.26,7.26,0,0,0-3-1.3h0l-10.28-4.86a4.5,4.5,0,0,0-2.61-.37l-5.86,1.43a1.42,1.42,0,0,1-1.39-.41c-2.41-2.54-6.09-5.53-10.75-5.77-8.43-.43-12.36,8.56-19,7-6.27-1.47-8.69-11-12.67-9.95a3.28,3.28,0,0,0-1.75,1.3,46.47,46.47,0,0,1-8.82,9.11c-1.08.83-3,4.25-5.4,3.87-3.81-.61-4.61-3.36-7.79-5.12-2.15-1.19-6.42-4.56-15.89,2.44" transform="translate(1.13 -214.23)"/>
                    </g>
                    <g id="Socle-3" data-name="Socle">
                        <polyline class="cls-2" points="482.88 724.29 447.25 734.6 379.27 742.01 344.25 731.71 311.29 736.24 257.73 724.29 216.94 729.65 172.03 709.11 86.34 717.97 39.78 720.73 1.88 720.59 2.29 564.92 8.06 558.33 13.83 556.27 20.01 559.15 28.25 565.33 30.72 571.1 39.78 572.33 52.56 562.86 59.97 558.33 73.16 562.86 85.93 555.85 98.29 565.33 105.7 569.04 113.53 571.92 127.13 562.86 130.84 561.62 143.19 568.63 144.84 568.21 147.31 562.45 166.68 551.32 174.51 552.15 196.34 535.67 203.35 535.25 211.17 530.31 220.65 528.25 227.65 521.25 234.56 515.07 237.13 515.48 242.49 516.3 247.02 518.77 251.14 520.84 254.43 524.13 259.38 524.54 261.44 527.01 264.98 530.96 268.85 530.31 272.56 532.37 275.44 537.32 282.45 540.61 288.22 544.73 295.22 545.14 306.76 554.62 317.06 563.27 328.59 563.68 338.89 555.03 345.89 550.09 352.9 551.32 358.25 554.62 366.49 550.5 374.32 541.85 380.91 543.08 387.51 548.85 401.1 553.79 414.29 556.27 423.96 550.48 434.47 545.97 439.42 539.79 445.19 538.55 449.31 539.79 460.43 549.67 461.66 556.27 470.73 560.8 481.85 575.63"/>
                        <path class="cls-1" d="M446.32,878.17c-6.95.15-14.89,0-18.13-1.23-8-3-9.65-6.87-16.07-7-4.43-.09-5.44,1.7-11.53,1.65-5.44,0-6.6-1.48-9.89-1.65-12.15-.61-17.38,18-28,16.89-5.35-.54-6.07-5.44-10.71-4.94-7.43.81-7.51,13.62-15.24,15.65-6.09,1.6-8.71-5.64-23.07-10.71-7-2.47-10.86-1.93-16.89-.41-12.92,3.26-15,16.09-24.31,16.48-5.22.22-8.65,6.59-23.49-14-4.31-6-7.9-3.71-9.06-3.71-9.47.06-8.1,9.37-20.6,9.07-6-.15-7.28-4.43-13.59-4.53s-8.65,7.42-14,6.59c-3.89-.61-3.66-4.72-10.3-10.71a44,44,0,0,0-14-8.24c-5.21-2.09-8.39-3.36-12.77-3.3-9.75.13-17.51,6.78-20.19,9.07-4.77,4.08-5.1,6.25-8.24,7-5.32,1.27-24.24-12.06-28.43-16.48" transform="translate(1.13 -214.23)"/>
                        <path class="cls-1" d="M413.36,847.27c-15.24,9.89-30.56,1.61-37.49,5.77-10.3,6.18-12,4.53-18.13,7.42-14.7,6.9-15.27,16.21-25.13,17.3-9.44,1-12.81-7.06-22.25-6.18-8.7.81-13.93,9.8-18.13,16.48" transform="translate(1.13 -214.23)"/>
                        <path class="cls-1" d="M237.85,884.76,232,877.55a4.62,4.62,0,0,0-6.61-.57l-3.4,2.95a5.44,5.44,0,0,1-5.53,1l-18.41-7.06-23.84-13.43a5.4,5.4,0,0,0-5.05-.15L153,868.19a9.19,9.19,0,0,1-7.18.4l-8.59-3.09a4.46,4.46,0,0,0-4.16.6l-9.92,7.32a6,6,0,0,1-6.85.18l-5.14-3.4" transform="translate(1.13 -214.23)"/>
                        <path class="cls-1" d="M444,873.92l6.67.34L462.18,878l9.4,5.26a3.34,3.34,0,0,0,1.93.42l7.42-.53v45.52" transform="translate(1.13 -214.23)"/>
                        <path class="cls-1" d="M157.92,938.32l-16.81,11.09a2.58,2.58,0,0,1-2.68.09L132,945.86a2.39,2.39,0,0,0-2.16-.08l-14.76,7L103,966.3a2.67,2.67,0,0,1-3,.68l-14.15-6L69.1,952.4l-9.83-1.93a4.27,4.27,0,0,0-2.07.12L46.34,954l-9.47,3.33A4,4,0,0,1,32,955.27l-2.52-5.39A3.58,3.58,0,0,0,27.24,948l-9-2.63-7.21-5.07-9.68-2.7v-4.12l5.56-4.35a4.16,4.16,0,0,1,2.25-.66H21.62a4.46,4.46,0,0,1,2.52.78l8,5.43a3.27,3.27,0,0,0,3.59.05l12.9-8.27a6.93,6.93,0,0,1,2.95-1l17.29-2a4.54,4.54,0,0,1,2.16.28l13.18,5.1a3.71,3.71,0,0,0,2.44.08l17.44-5.43a4.71,4.71,0,0,1,1-.21l25-2.76a4,4,0,0,1,2.41.5l8.4,4.84a3.73,3.73,0,0,0,2.12.48l9.58-.74" transform="translate(1.13 -214.23)"/>
                        <path class="cls-1" d="M60.69,841.92l-3.12,8.6a2.48,2.48,0,0,1-.5.82l-4.61,5a3.09,3.09,0,0,0-.64,1l-3.55,9.18-5.83,10.73a2,2,0,0,0-.24,1.13l.55,6.89" transform="translate(1.13 -214.23)"/>
                        <path class="cls-1" d="M1.37,933.17V896.36l4.85-2.89a.82.82,0,0,1,.19-.09l7.32-2.85L19,889.12a3,3,0,0,0,1.46-.91l8.69-9.82a2.27,2.27,0,0,1,.43-.39l7.47-5.52a2.43,2.43,0,0,1,.72-.36l8.88-2.6" transform="translate(1.13 -214.23)"/>
                        <path class="cls-1" d="M422.42,820.49s6.18-4.12,7-3.71,7,2.16,8.95,2.72a2.86,2.86,0,0,0,1.2.08l5.09-.74,2.45-.7a2.31,2.31,0,0,1,2.83,1.52l1.31,4.13,1.46,4.72a2.94,2.94,0,0,0,.63,1.13l4.3,4.86,3.11,2.45a3.48,3.48,0,0,0,3.63.41l.78-.36a3.41,3.41,0,0,1,1.94-.3l4.17.55a5.15,5.15,0,0,1,1.86.64l6.14,3.61,1.65,4.12V790l-1.24-3.29-3.78-4.94L471,775.59l-8.65-4.19a3,3,0,0,1-1.72-2.74v-1.74a3.47,3.47,0,0,0-1.27-2.67L456.62,762l-3.6-5a4,4,0,0,0-1.3-1.17l-5-2.79a3,3,0,0,0-1.81-.37l-5.23.55a3.71,3.71,0,0,0-2.6,1.49l-2.89,3.94A4.06,4.06,0,0,1,432.5,760l-7,2.86-6,3.52a4.28,4.28,0,0,0-.61.44l-4.63,4a2,2,0,0,1-2,.32l-5.88-2.48-10.3-1.23-9.14-4.54-4.38-4.07a3.53,3.53,0,0,0-1.12-.7l-6-2.28a3,3,0,0,0-3.42.92l-4,4.9-2.81,3.29L358,768.62a2.49,2.49,0,0,1-2.79-.32l-3.31-2.83a2.45,2.45,0,0,0-1.6-.6h-4.74a4.15,4.15,0,0,0-2.55.88L327.67,779" transform="translate(1.13 -214.23)"/>
                        <path class="cls-1" d="M480.93,789" transform="translate(1.13 -214.23)"/>
                        <path class="cls-1" d="M41.74,831.2c-1.64,1.65-13,3.3-13,3.3L22,839l-9.89,2.06L5.9,844.8,1,847.11" transform="translate(1.13 -214.23)"/>
                        <polyline class="cls-1" points="2.5 615.94 2.5 564.51 3.32 563.48 7.69 557.69 13.62 556.41 19.39 558.88 28.45 565.88 30.1 570.83 39.58 572.48 50.29 565.88 52.58 562.38 60.18 558.47 72.84 563.21 85.31 555.58 98.08 565.47 112.5 572.06"/>
                        <line class="cls-1" x1="2.5" y1="635.78" x2="2.5" y2="681.92"/>
                        <line class="cls-1" x1="482.06" y1="668.88" x2="482.06" y2="629.12"/>
                        <path class="cls-1" d="M89.53,799.07l-9.47-6.59-4.12-1.24-5,.41s-5.76-2.47-5.76-2.88-5-1.24-5-1.24l-2.47,1.65-2.59,3.71L52,795.77l-2.47,2.06-9.47,3.71-3.71,5.77-6.18,3.29H22.72L17,820.49l-3.7,4.12-7,1.24-4.12,3.29-.82,1.3v20.19l10.71-1.71L29,845.62,42.2,850l11.49-5.24,6.18-.41" transform="translate(1.13 -214.23)"/>
                        <path class="cls-1" d="M178.94,915.66l21.2,13.6a6.71,6.71,0,0,0,1.34.67l27.4,9.94a5.88,5.88,0,0,0,5.84-.25l8.28-5.21,15.77-7.36a7.55,7.55,0,0,1,5.66-.3l9.06,3.13,16.07,7.41,5.75,6.51a7.11,7.11,0,0,0,8.67,1.56l4.47-2.38a6.34,6.34,0,0,1,5.9,0l7,3.63a6,6,0,0,0,5.47.06l8.92-4.4,10.3-5,5.68.5a5.52,5.52,0,0,1,4.84,4l.6,2.1,8.24,9.07,10.81,1.59a5.58,5.58,0,0,0,5.2-2.08l2.53-3.22,12.77-7,2.41-4a5.75,5.75,0,0,1,6.1-2.62l13.33,2.86,10.71,4.12,9.53,4.92a4.85,4.85,0,0,0,5.75-1l4.91-5.18,6.42-5.84a5,5,0,0,1,5.77-.69l3.17,1.73a5,5,0,0,0,5.33-.32l6.09-4.35,4.74-3.51v33l-6.48,5.43a1.53,1.53,0,0,1-1.89,0l-7.23-5.59a2.35,2.35,0,0,0-2-.42l-10.12,2.44a2.14,2.14,0,0,1-1.43-.15l-11.88-5.76a2.76,2.76,0,0,0-2.11-.13l-5.73,2a2.3,2.3,0,0,1-1.93-.2l-10.64-6.34a2.37,2.37,0,0,0-2.44,0l-13.2,7.92-12,5.61a3,3,0,0,1-2.44,0l-7.6-3.25a3.5,3.5,0,0,0-1.53-.28l-2.47.14-3.5.18a3,3,0,0,1-1.1-.15l-17-5.79a3.42,3.42,0,0,1-1.08-.62l-9.47-8.07a2.93,2.93,0,0,0-2.65-.59l-11.23,3.06a3.49,3.49,0,0,0-1.54.9l-5.88,5.87a3.4,3.4,0,0,1-2.13,1l-3.29.3-15.62-2.67a3.63,3.63,0,0,0-2.39.42l-4.95,2.79a2.91,2.91,0,0,0-.89.74l-5,6.14a3.75,3.75,0,0,1-4.16,1.18l-16.94-5.94a4.28,4.28,0,0,0-1.12-.22l-13.91-.74a4.37,4.37,0,0,1-1.81-.5l-18.39-9.8a1.76,1.76,0,0,0-1.19-.18l-8,1.61a2.44,2.44,0,0,0-1.36.8l-7,8a1.52,1.52,0,0,1-1.69.42l-6.42-2.5-13.26-7.63a2.65,2.65,0,0,0-.72-.29l-11.51-2.68a2.68,2.68,0,0,1-.86-.39l-5.38-3.84L171.68,942h-7.24a3.69,3.69,0,0,1-2.11-.66L155,936.26,151.56,935a2.42,2.42,0,0,1-1.46-3.1l2-5.56a4.23,4.23,0,0,1,1.5-2l15.84-11.59" transform="translate(1.13 -214.23)"/>
                        <path class="cls-1" d="M431.08,834.5l-1.49-7.82a2.2,2.2,0,0,0-.84-1.34l-8.95-6.81a2.21,2.21,0,0,0-1.51-.44l-3,.25a2.46,2.46,0,0,1-1.94-.71l-4.14-4.14-4.4-6.23a2.36,2.36,0,0,0-1.47-1l-3.86-.83a2.72,2.72,0,0,1-1.59-1l-5.12-6.72a2.29,2.29,0,0,0-2.26-.85l-8,1.59a2.49,2.49,0,0,1-1.77-.31l-4.42-2.65a2.94,2.94,0,0,0-2-.37l-7.19,1.25a2.56,2.56,0,0,1-2.12-.61l-2.46-2.22a2.85,2.85,0,0,0-1.76-.72l-6.36-.32a2.63,2.63,0,0,1-1.54-.6l-5.28-4.4a3.25,3.25,0,0,0-3.25-.55l-3.52,1.32a2.15,2.15,0,0,1-2.26-.49l-5.21-5.21-2.66-2.67a2.73,2.73,0,0,0-1.51-.76l-12.32-1.87a2,2,0,0,1-.74-.27l-5-3.08-9.48-8.65-6.09-5a3.27,3.27,0,0,0-2.1-.75H287.9a2.84,2.84,0,0,1-1.71-.58l-3-2.31-1.4-2a2.74,2.74,0,0,0-1.78-1.11l-2.57-.42a3.08,3.08,0,0,1-2-1.26l-3.72-5.27a3.15,3.15,0,0,0-1.25-1l-2.41-1.09a3.13,3.13,0,0,0-2.69,0l-.86.43a1.29,1.29,0,0,1-1.7-.53l-1.47-2.63-3.05-2.71a2.62,2.62,0,0,0-1.53-.66l-3.37-.28a1.77,1.77,0,0,1-1.16-.57L249,734l-5.18-1.48a2,2,0,0,1-1-.63l-1.14-1.37a2.14,2.14,0,0,0-1.35-.75l-5-.71h-1.22a2.81,2.81,0,0,0-2,.85L220.36,742a2.83,2.83,0,0,1-1.54.82l-7.64,1.39a2.58,2.58,0,0,0-1,.38l-7.41,4.82a1.86,1.86,0,0,1-.85.28l-6.25.34a2.35,2.35,0,0,0-1.27.47L174,765.89a2.88,2.88,0,0,1-1.88.58l-5.78-.31a3.81,3.81,0,0,0-1.9.4l-9.81,4.91L147,776.18a4,4,0,0,0-1.52,1.75l-1.84,4.22a1.3,1.3,0,0,1-1.78.63l-9.08-4.72-1.25-1a3.21,3.21,0,0,0-2.76-.66l-3.81.88-9.48,7.83L106,788.77,102,792.46a2.66,2.66,0,0,1-1.08.59l-4.69,1.25a4.1,4.1,0,0,0-1.57.83l-10.55,9.1a3.2,3.2,0,0,1-1.63.74l-6.93,1a3.45,3.45,0,0,0-1.47.57l-8.69,5.86a2.14,2.14,0,0,1-.9.36l-4.57.74-10.4,5.6a2.61,2.61,0,0,1-.66.24L42,820.68a3.28,3.28,0,0,0-1.86,1.1l-4.66,5.57" transform="translate(1.13 -214.23)"/>
                        <path class="cls-1" d="M347,911.54l7.12,7.12a5.53,5.53,0,0,0,3.54,1.62,17.45,17.45,0,0,0,3,0A5.53,5.53,0,0,0,363.6,919l11.31-9.1a21.35,21.35,0,0,1,3.09-2.07,5.51,5.51,0,0,1,5-.09l1.21.59a7,7,0,0,0,8.77-2.59c1.09-1.78,2.21-3.78,7.84-6.11l.36-.12c5.64-1.23,8.17-3.22,15.48-7.78.12-.08,6-4,6.18-4.12s1.88-.83,2.59-1.12a1.85,1.85,0,0,1,.57-.15l12.35-1.19.28-.05c6.38-1.66,10.86-6.94,7.11-9.29a1.91,1.91,0,0,1-.43-.37l-4.63-5.4a1.56,1.56,0,0,1-.23-.34,16.81,16.81,0,0,0-1.86-3.18l-6.21-6.42a5,5,0,0,0-2.21-1.32c-1.85-.52-5-1.38-5.11-1.49l-6.86-6.87,0,0C404,842.84,419.83,838,431,835.94a.79.79,0,0,0,0-1.54l-12-2.93-4.07-1a6.88,6.88,0,0,0-.77-.13l-24.33-2.43-22.24-2.06h-15.7l-.07,0-8.93-3.68h-.06l-16-.82-24.72-1.24h-8.88L277,814.74H277l-10.64.82h-.06l-11.88-2.87h-.08l-12.13,2.83a.19.19,0,0,0-.13.24L244,822.3a.19.19,0,0,1-.19.23l-24.43-1.62h-.05l-13.11,2.87h-.1l-4.44-1.61a.14.14,0,0,0-.09,0l-15.15,2a.14.14,0,0,1-.09,0l-10.63-4.09h-.08l-23,.82h0l-8.61,1.64h-.05l-12.31-.82h0L112.21,825h0L73.5,824.2h-.06l-15.18,4.51h-.07l-20.93-2.05a.14.14,0,0,0-.09,0l-1.65.66a.18.18,0,0,0,0,.33L54.92,838.2h0l10.28,6.58,0,0,24.27,9.46,0,0,24.32,17.88a1,1,0,0,1-.8,1.86l-12.75-2.39a3.29,3.29,0,0,0-3.6,1.89h0a1.89,1.89,0,0,1-2,1.1l-9.77-1.69a3.72,3.72,0,0,0-1.45,0l-16.28,3.61a3.58,3.58,0,0,1-2.84-.56l-1.77-1.24a3.37,3.37,0,0,0-3.59-.16l-9.16,5.23-5.92,3.38A9.66,9.66,0,0,0,42.65,885a.19.19,0,0,0,.1.25l12.54,5.43a2.66,2.66,0,0,0,1,.34l12,1.88a4.53,4.53,0,0,1,1.28.4l4.29,2.06a1.78,1.78,0,0,0,.51.16l10.26,1.87a3.41,3.41,0,0,1,1.46.63l8.41,6.22a3.76,3.76,0,0,0,.88.48L106.88,909a2,2,0,0,0,2.1-.45l7.4-7.4a3,3,0,0,1,1.83-.86l7.13-.65a3.62,3.62,0,0,1,1.66.25l6.12,2.52.17.08,15.65,8.2a5.82,5.82,0,0,0,3.33.64l9.17-1a4.58,4.58,0,0,1,2,.23l14,4.75a6.61,6.61,0,0,0,7.32-2.15l3.83-4.85a5.27,5.27,0,0,1,2.8-1.82l5.57-1.46a7.19,7.19,0,0,1,4.33.23L205.6,907a2.2,2.2,0,0,0,.62.12l7.45.29a7.36,7.36,0,0,0,5.51-2.2l4.73-4.83a2.1,2.1,0,0,1,.81-.49l9.36-3a8.51,8.51,0,0,1,7.71,1.27l9.56,7.09a7.28,7.28,0,0,0,3,1.31h0l10.28,4.86a4.5,4.5,0,0,0,2.61.37l5.86-1.44a1.46,1.46,0,0,1,1.39.41c2.41,2.55,6.09,5.54,10.75,5.78,8.43.42,12.36-8.56,18.95-7,6.27,1.48,8.69,11,12.67,10a3.26,3.26,0,0,0,1.75-1.31,46.65,46.65,0,0,1,8.82-9.1c1.08-.84,3-4.25,5.4-3.87,3.81.61,4.61,3.35,7.79,5.12,2.15,1.18,6.42,4.56,15.89-2.45" transform="translate(1.13 -214.23)"/>
                    </g>
                </g>
            </g>
        </g>
    </g>
</svg>