<svg id="CONTENT" xmlns="http://www.w3.org/2000/svg" viewBox="0 0 480.77 830.52"><defs><style>.cls-1,.cls-3{fill:none;}.cls-1,.cls-2{stroke:#fff;}.cls-1,.cls-2,.cls-3{stroke-miterlimit:10;stroke-width:2px;}.cls-3{stroke:#000;}</style></defs><g id="SMALL"><g id="NEVERCATCH_SMALL"><g id="JUNCTION_NEVERCATCH_SMALL"><g id="I_JUNCTION_HAUT" data-name="I JUNCTION HAUT"><g id="Falaise_Droite_Haut" data-name="Falaise Droite Haut"><path id="hautfond" d="M463.24,517.08v-6.73s1.88-13.93,3.11-17.23-6-8-6-8V473.28l1.48-9-1.48-11.6-1.82-11,5.6-19.23-3.78-6.59-1.82-10.71v-7.62l.83-9.89,7-8.65-3.11-7.35.89-21.42,2.63-18.61-3.52-13-1.83-9.27,2.72-28.22v-9.48l6.75-16.27,10.28-2.47,4.53-5.77L496,241.39l13.16-7.82,6.38-15.47L524,226l8.4.1V456.59" transform="translate(-52 -216.49)"/><path id="hautbord" class="cls-1" d="M462.84,517.08v-6.73s1.88-13.93,3.11-17.23-6-8-6-8V473.28l1.48-9L460,452.68l-1.82-11,5.6-19.23L460,415.87l-1.82-10.71v-7.62l.83-9.89,7-8.65-3.11-7.35.89-21.42,2.63-18.61-3.52-13L461,309.37l2.72-28.22v-9.48l6.75-16.27,10.28-2.47,4.53-5.77,10.29-5.77,13.16-7.82,6.38-15.47L525,226h7.4" transform="translate(-52 -216.49)"/><polyline id="middlefond" points="403.67 348.52 403.72 333.69 407.96 326.18 409.43 319.48 407.96 304.02 414.37 296.4 419.71 287.75 425.41 287.75 431.65 275.8 434.12 273.81 445.39 267.59 447.28 259.74 454.28 239.96 459.63 227.6 467.86 225.54 476.08 227.19 480.4 221.36 480.4 288.72"/><polyline id="middlebord" class="cls-1" points="403.67 348.52 403.72 333.69 407.96 326.18 409.43 319.48 407.96 304.02 414.37 296.4 419.71 287.75 425.41 287.75 431.65 275.8 434.12 273.81 445.39 267.59 447.28 259.74 454.28 239.96 459.63 227.6 467.86 225.54 473 221.36 480.4 221.36"/><polyline id="bas" points="386.8 395.28 388.85 374.68 392.76 368.3 394.61 355.73 401.4 346.54 411.73 342.75 417.66 332.66 431.24 325.24 445.39 305.21 453.45 299.29 467.92 295.36 477 289.51 480.4 281.51 480.4 415.2"/><polyline id="bas-2" data-name="bas" class="cls-1" points="386.8 395.28 388.85 374.68 392.76 368.3 394.61 355.73 401.4 346.54 411.73 342.75 417.66 332.66 431.24 325.24 445.39 305.21 453.45 299.29 467.92 295.36 477 281.51 480.4 281.51"/></g><g id="Falaise_Gauche_Haut" data-name="Falaise Gauche Haut"><path d="M125.26,493.53,129,480.77a4.65,4.65,0,0,0,.07-2.51L126.49,468l-.75-19.94,1.89-19a4.27,4.27,0,0,0-.3-2L120,409.37l-5.91-8.79a2.26,2.26,0,0,1-.39-1.26l-.38-19.3a4.19,4.19,0,0,1,.42-1.94l7.13-14.92a5,5,0,0,0,.5-2.17V340.72a2.1,2.1,0,0,0-.13-.74l-2.37-6.92a7,7,0,0,1-.21-3.77l2.63-11.91-.88-8.17a6.37,6.37,0,0,0-1.55-3.53l-3.84-4.35a8.18,8.18,0,0,1-1.41-2.29l-4.24-10.45a4.3,4.3,0,0,0-2-2.2l-6.62-3.46a6.14,6.14,0,0,1-2.32-2.12l-4.64-7.32A5.7,5.7,0,0,0,90.24,271l-7.49-1.67A5.59,5.59,0,0,1,79,266.42L70,249a9.41,9.41,0,0,0-4.7-4.36L57,240l-4.77-1.08V441" transform="translate(-52 -216.49)"/><path class="cls-1" d="M125.26,493.53,129,480.77a4.65,4.65,0,0,0,.07-2.51L126.49,468l-.75-19.94,1.89-19a4.27,4.27,0,0,0-.3-2L120,409.37l-5.91-8.79a2.26,2.26,0,0,1-.39-1.26l-.38-19.3a4.19,4.19,0,0,1,.42-1.94l7.13-14.92a5,5,0,0,0,.5-2.17V340.72a2.1,2.1,0,0,0-.13-.74l-2.37-6.92a7,7,0,0,1-.21-3.77l2.63-11.91-.88-8.17a6.37,6.37,0,0,0-1.55-3.53l-3.84-4.35a8.18,8.18,0,0,1-1.41-2.29l-4.24-10.45a4.3,4.3,0,0,0-2-2.2l-6.62-3.46a6.14,6.14,0,0,1-2.32-2.12l-4.64-7.32A5.7,5.7,0,0,0,90.24,271l-7.49-1.67A5.59,5.59,0,0,1,79,266.42L70,249a9.53,9.53,0,0,0-4.64-4.36L56,239H52.23" transform="translate(-52 -216.49)"/><polyline class="cls-2" points="73.08 295.36 68.23 293.59 59.89 291.67 49.6 285.07 41.92 277.73 35 272.71 20.39 268.18 12.3 277.73 0.43 283.43"/><path d="M158.59,612.19l-11.93-26.37-.75-16.54a2.81,2.81,0,0,0-1.48-2.34l-1.18-.63a3,3,0,0,1-1.54-3.16l1.11-6.24a3.4,3.4,0,0,0-.07-1.49l-2.27-8.33L137,530.21a4.61,4.61,0,0,0-.65-1.55l-11.23-16.81a3.2,3.2,0,0,1-.53-2.08L125.7,497a2.76,2.76,0,0,0,0-.81l-3.15-14.64a3.36,3.36,0,0,0-5.31-2l-1.16.88a1.55,1.55,0,0,1-2.31-.53L106,464.84a2.82,2.82,0,0,0-1.53-1.35L92.36,459a3.14,3.14,0,0,0-2.46.11l-6,2.84a2.69,2.69,0,0,1-2.77-.28l-13.08-9.91a3.44,3.44,0,0,1-1.18-1.65l-3.6-10.82a2.64,2.64,0,0,0-.56-.94L52.23,427.2V618.1" transform="translate(-52 -216.49)"/><path class="cls-1" d="M158.59,612.19l-11.93-26.37-.75-16.54a2.81,2.81,0,0,0-1.48-2.34l-1.18-.63a3,3,0,0,1-1.54-3.16l1.11-6.24a3.4,3.4,0,0,0-.07-1.49l-2.27-8.33L137,530.21a4.61,4.61,0,0,0-.65-1.55l-11.23-16.81a3.2,3.2,0,0,1-.53-2.08L125.7,497a2.76,2.76,0,0,0,0-.81l-3.15-14.64a3.36,3.36,0,0,0-5.31-2l-1.16.88a1.55,1.55,0,0,1-2.31-.53L106,464.84a2.82,2.82,0,0,0-1.53-1.35L92.36,459a3.14,3.14,0,0,0-2.46.11l-6,2.84a2.69,2.69,0,0,1-2.77-.28l-13.08-9.91a3.44,3.44,0,0,1-1.18-1.65l-3.6-10.82c-.12-.35-2.06-4-2.31-4.27l-4-7.8H52.23" transform="translate(-52 -216.49)"/><polyline class="cls-2" points="95.21 370.53 86.72 369.12 83.55 368.09 79.02 366.03 76.14 361.91 69.97 358.61 66.27 356.14 60.51 350.37 55.77 346.43 52.07 345.91 46.1 350.79 38.39 356.21 33.35 354.49 25.53 352.43 21.42 354.08 13.6 360.67 5.78 363.7 0.23 363.7"/></g><g id="Socle"><path class="cls-2" d="M87,896.87c7-.14,14.87,0,18.11,1.24,8,3,9.63,6.86,16.05,7,4.43.1,5.43-1.7,11.52-1.65,5.42,0,6.59,1.49,9.87,1.65,12.14.61,17.36-18,28-16.89,5.35.54,6.07,5.45,10.7,4.94,7.42-.8,7.5-13.62,15.22-15.65,6.09-1.6,8.7,5.65,23.05,10.71,7,2.47,10.83,1.93,16.87.41,12.9-3.26,15-16.09,24.27-16.48,5.21-.21,8.64-6.59,23.46,14,4.31,6,7.89,3.71,9.05,3.71,9.45,0,8.09-9.37,20.57-9.07,6,.15,7.27,4.43,13.58,4.54s8.63-7.43,14-6.6c3.89.61,3.65,4.72,10.28,10.72a44.23,44.23,0,0,0,14,8.24c5.21,2.08,8.39,3.35,12.76,3.29,9.74-.13,17.49-6.77,20.16-9.06,4.77-4.09,5.1-6.26,8.23-7,5.32-1.27,24.21,12.06,28.39,16.48" transform="translate(-52 -216.49)"/><path class="cls-2" d="M119.91,927.77c15.23-9.89,30.52-1.61,37.44-5.77,10.29-6.18,12-4.53,18.11-7.41,14.68-6.9,15.25-16.22,25.1-17.31,9.43-1,12.79,7.06,22.22,6.18,8.69-.81,13.91-9.8,18.1-16.48" transform="translate(-52 -216.49)"/><path class="cls-2" d="M295.19,890.28l5.85,7.21a4.59,4.59,0,0,0,6.6.57l3.39-2.95a5.46,5.46,0,0,1,5.53-1L335,901.2l23.8,13.43a5.41,5.41,0,0,0,5,.14l16.11-7.92a9.19,9.19,0,0,1,7.18-.4l8.58,3.1a4.47,4.47,0,0,0,4.15-.61l9.91-7.32a6,6,0,0,1,6.84-.18l5.14,3.41" transform="translate(-52 -216.49)"/><path class="cls-2" d="M52.43,986.07" transform="translate(-52 -216.49)"/><line class="cls-2" x1="479.38" y1="708.54" x2="479.38" y2="662.39"/><path class="cls-2" d="M52.43,931.68" transform="translate(-52 -216.49)"/><path class="cls-2" d="M52.43,891.93" transform="translate(-52 -216.49)"/><path class="cls-2" d="M102.22,940.54l1.49,7.82a2.17,2.17,0,0,0,.83,1.35l8.94,6.8A2.16,2.16,0,0,0,115,957l3-.25a2.43,2.43,0,0,1,1.94.72l4.14,4.13,4.39,6.24a2.44,2.44,0,0,0,1.47,1l3.86.82a2.74,2.74,0,0,1,1.58,1l5.11,6.72a2.28,2.28,0,0,0,2.26.86l8-1.59a2.44,2.44,0,0,1,1.77.3l4.41,2.65a3,3,0,0,0,2,.38l7.18-1.25a2.49,2.49,0,0,1,2.12.61l2.46,2.21a2.77,2.77,0,0,0,1.75.72l6.35.32a2.56,2.56,0,0,1,1.54.61l5.28,4.4a3.28,3.28,0,0,0,3.24.55l3.52-1.32a2.11,2.11,0,0,1,2.25.48l5.21,5.21,2.66,2.67a2.67,2.67,0,0,0,1.51.76l12.3,1.87a2,2,0,0,1,.74.27l5,3.09,9.47,8.65,6.08,5a3.27,3.27,0,0,0,2.1.75h5.61a2.79,2.79,0,0,1,1.71.59l3,2.3,1.4,2a2.74,2.74,0,0,0,1.78,1.11l2.56.43a3,3,0,0,1,2,1.25l3.72,5.27a3.15,3.15,0,0,0,1.25,1l2.41,1.09a3.07,3.07,0,0,0,2.68,0l.86-.43a1.3,1.3,0,0,1,1.7.53l1.46,2.63,3.05,2.71a2.62,2.62,0,0,0,1.53.66l3.37.28a1.76,1.76,0,0,1,1.16.58l3.24,3.6,5.17,1.48a2,2,0,0,1,1,.63l1.14,1.37a2.17,2.17,0,0,0,1.35.76l4.94.7h1.22a2.77,2.77,0,0,0,2-.85l11.77-12.09a2.94,2.94,0,0,1,1.54-.82l7.63-1.39a2.69,2.69,0,0,0,1-.38l7.39-4.81a1.65,1.65,0,0,1,.85-.28l6.24-.35a2.35,2.35,0,0,0,1.27-.47L359,1009.15a2.82,2.82,0,0,1,1.88-.57l5.77.3a3.79,3.79,0,0,0,1.9-.4l9.8-4.9,7.61-4.72a4,4,0,0,0,1.52-1.75l1.84-4.22a1.28,1.28,0,0,1,1.77-.62l9.07,4.72,1.25,1a3.21,3.21,0,0,0,2.76.66l3.81-.88L417.4,990l9.46-3.71,4.06-3.69A2.66,2.66,0,0,1,432,982l4.68-1.25a3.9,3.9,0,0,0,1.57-.83l10.54-9.1a3.26,3.26,0,0,1,1.62-.74l6.92-1a3.52,3.52,0,0,0,1.47-.56l8.69-5.87a2.39,2.39,0,0,1,.89-.36l4.57-.74,10.38-5.6a2.25,2.25,0,0,1,.66-.23l6.76-1.36a3.22,3.22,0,0,0,1.86-1.1l4.66-5.57" transform="translate(-52 -216.49)"/><path class="cls-2" d="M186.16,863.5l-7.11-7.12a5.55,5.55,0,0,0-3.54-1.62,17.45,17.45,0,0,0-3,0,5.53,5.53,0,0,0-2.92,1.21l-11.3,9.11a20.41,20.41,0,0,1-3.08,2.06,5.51,5.51,0,0,1-5,.09l-1.21-.58a7,7,0,0,0-8.75,2.58c-1.09,1.78-2.22,3.78-7.84,6.12l-.36.11c-5.63,1.24-8.15,3.22-15.45,7.79-.12.07-6,4-6.17,4.12l-2.59,1.12a2.16,2.16,0,0,1-.57.14L95,889.85l-.28,0c-6.37,1.66-10.84,6.94-7.1,9.3a1.87,1.87,0,0,1,.43.36l4.62,5.4a1.91,1.91,0,0,1,.24.34,16,16,0,0,0,1.85,3.18l6.2,6.42a5,5,0,0,0,2.21,1.32c1.85.53,5,1.38,5.1,1.49l6.86,6.87,0,0c14.15,7.6-1.67,12.48-12.8,14.5a.78.78,0,0,0,0,1.53l12,2.93,4.07,1a5,5,0,0,0,.77.13l24.29,2.43,22.22,2.06h15.67l.07,0,8.92,3.68h.06l16,.83L231,955h8.87l16.19,5.34h.07l10.63-.82h.06l11.86,2.87h.09l12.11-2.83a.19.19,0,0,0,.13-.23l-1.92-6.57a.18.18,0,0,1,.19-.23l24.39,1.63h.06l13.08-2.86h.11l4.43,1.62h.09l15.13-2a.14.14,0,0,1,.09,0L357.29,955h.07l23-.82h0l8.6-1.65h0l12.3.82h0l19.3-3.29h0l38.63.82h.06l15.16-4.51h.07l20.9,2.06.09,0,1.65-.66a.18.18,0,0,0,0-.33l-19.4-10.52h0l-10.27-6.58h0l-24.24-9.46,0,0L419,902.87a1,1,0,0,1,.81-1.86l12.73,2.39a3.26,3.26,0,0,0,3.59-1.89h0a1.88,1.88,0,0,1,2.05-1.09l9.75,1.68a3.93,3.93,0,0,0,1.45,0l16.25-3.62a3.61,3.61,0,0,1,2.84.56l1.77,1.24a3.36,3.36,0,0,0,3.58.16l9.16-5.23,5.91-3.38a9.21,9.21,0,0,0,1.24-1.76.18.18,0,0,0-.09-.25l-12.53-5.43a2.86,2.86,0,0,0-1-.34l-12-1.88a4.85,4.85,0,0,1-1.28-.39L459,879.68a2.24,2.24,0,0,0-.5-.16l-10.25-1.87a3.41,3.41,0,0,1-1.46-.63l-8.4-6.22a3.4,3.4,0,0,0-.88-.47L426,866a2,2,0,0,0-2.1.45l-7.39,7.4a3,3,0,0,1-1.83.86l-7.12.65a3.45,3.45,0,0,1-1.65-.25l-6.12-2.52-.16-.08L384,864.32a5.89,5.89,0,0,0-3.32-.64l-9.16,1a4.73,4.73,0,0,1-2-.22l-14-4.76a6.6,6.6,0,0,0-7.31,2.16l-3.83,4.84a5.25,5.25,0,0,1-2.8,1.83l-5.56,1.45a7.16,7.16,0,0,1-4.32-.22l-4.34-1.63a1.91,1.91,0,0,0-.62-.13l-7.44-.28a7.31,7.31,0,0,0-5.51,2.19l-4.73,4.83a2,2,0,0,1-.8.5l-9.35,3a8.49,8.49,0,0,1-7.7-1.27l-9.54-7.09a7.18,7.18,0,0,0-3-1.3l0,0-10.27-4.85a4.43,4.43,0,0,0-2.61-.38L260,864.74a1.46,1.46,0,0,1-1.4-.41c-2.4-2.54-6.08-5.54-10.73-5.77-8.42-.43-12.35,8.55-18.93,7-6.26-1.48-8.68-11-12.65-10a3.36,3.36,0,0,0-1.75,1.31,46.37,46.37,0,0,1-8.81,9.1c-1.08.84-3,4.26-5.39,3.88-3.8-.62-4.61-3.36-7.78-5.12-2.15-1.19-6.41-4.57-15.88,2.44" transform="translate(-52 -216.49)"/></g><g id="Socle-2" data-name="Socle"><polyline points="0.24 401.52 35.21 399.42 103.1 396.23 138.08 406.53 170.99 402 224.48 413.94 265.22 408.59 310.07 429.12 395.65 420.27 442.15 417.51 480.4 417.65 480.4 575.51 473.83 579.91 468.07 581.97 461.9 579.09 453.67 572.91 451.2 567.14 442.15 565.9 429.39 575.38 421.99 579.91 408.82 575.38 396.06 582.38 383.72 572.91 376.31 569.2 368.5 566.32 354.92 575.38 351.21 576.62 338.87 569.61 337.22 570.02 334.75 575.79 315.42 586.91 307.6 586.09 285.79 602.57 278.8 602.98 270.98 607.93 261.51 609.99 254.52 616.99 247.62 623.17 245.06 622.76 239.71 621.93 235.18 619.46 231.07 617.4 227.78 614.11 222.84 613.69 220.78 611.22 217.24 607.28 213.37 607.93 209.67 605.87 206.79 600.92 199.79 597.63 194.03 593.51 187.04 593.1 175.52 583.62 165.23 574.97 153.71 574.55 143.43 583.21 136.43 588.15 129.44 586.91 124.09 583.62 115.86 587.74 108.04 596.39 101.46 595.15 94.87 589.39 81.29 584.44 68.13 581.97 58.47 587.76 47.97 592.27 43.03 598.45 37.27 599.69 33.15 598.45 22.04 588.56 20.81 581.97 11.76 577.44 0.23 562.61"/><path class="cls-2" d="M87,690.88c7-.15,14.87,0,18.11,1.23,8,3,9.63,6.87,16.05,7,4.43.09,5.43-1.7,11.52-1.65,5.42,0,6.59,1.48,9.87,1.65,12.14.61,17.36-18,28-16.9,5.35.54,6.07,5.45,10.7,4.95,7.42-.81,7.5-13.63,15.22-15.66,6.09-1.6,8.7,5.65,23.05,10.71,7,2.47,10.83,1.94,16.87.42,12.9-3.26,15-16.1,24.27-16.48,5.21-.22,8.64-6.6,23.46,14,4.31,6,7.89,3.72,9.05,3.71,9.45,0,8.09-9.37,20.57-9.06,6,.14,7.27,4.42,13.58,4.53s8.63-7.42,14-6.59c3.89.6,3.65,4.72,10.28,10.71a44.23,44.23,0,0,0,14,8.24c5.21,2.08,8.39,3.36,12.76,3.3,9.74-.14,17.49-6.78,20.16-9.07,4.77-4.08,5.1-6.26,8.23-7,5.32-1.27,24.21,12.06,28.39,16.48" transform="translate(-52 -216.49)"/><path class="cls-2" d="M119.91,721.78c15.23-9.89,30.52-1.62,37.44-5.77,10.29-6.18,12-4.53,18.11-7.42,14.68-6.9,15.25-16.21,25.1-17.3,9.43-1,12.79,7.06,22.22,6.18,8.69-.81,13.91-9.8,18.1-16.48" transform="translate(-52 -216.49)"/><path class="cls-2" d="M295.19,684.28l5.85,7.21a4.6,4.6,0,0,0,6.6.58l3.39-3a5.44,5.44,0,0,1,5.53-1L335,695.2l23.8,13.43a5.39,5.39,0,0,0,5,.14l16.11-7.92a9.19,9.19,0,0,1,7.18-.39l8.58,3.09a4.44,4.44,0,0,0,4.15-.61l9.91-7.32a6,6,0,0,1,6.84-.17l5.14,3.4" transform="translate(-52 -216.49)"/><path class="cls-2" d="M52.43,640.41" transform="translate(-52 -216.49)"/><path class="cls-2" d="M89.34,695.13l-6.67-.34-11.52-3.71L62,687c-.59-.33-1.33-1.12-2-1.07H52.23" transform="translate(-52 -216.49)"/><path d="M375,630.72l16.8-11.08a2.54,2.54,0,0,1,2.67-.09l6.42,3.63a2.32,2.32,0,0,0,2.16.08l14.74-7,12-13.56a2.68,2.68,0,0,1,3-.69l14.14,6,16.71,8.58,9.82,1.92a4.12,4.12,0,0,0,2.06-.11l10.85-3.41,9.46-3.33a3.94,3.94,0,0,1,4.87,2l2.52,5.39a3.54,3.54,0,0,0,2.23,1.93l9,2.63,7.2,5.07,10.7,2.69v4.12L525.82,640a4.15,4.15,0,0,1-2.24.65H511.15a4.48,4.48,0,0,1-2.51-.77l-8-5.43a3.23,3.23,0,0,0-3.59,0l-12.88,8.27a7,7,0,0,1-3,1l-17.26,2a4.67,4.67,0,0,1-2.16-.28l-13.16-5.1a3.65,3.65,0,0,0-2.44-.09l-17.41,5.44a5.63,5.63,0,0,1-1,.21l-25,2.76a4,4,0,0,1-2.4-.51l-8.39-4.83a3.65,3.65,0,0,0-2.12-.48l-9.56.74" transform="translate(-52 -216.49)"/><path class="cls-1" d="M380.37,643.5l9.56-.74a3.65,3.65,0,0,1,2.12.48l8.39,4.83a4,4,0,0,0,2.4.51l25-2.76a5.63,5.63,0,0,0,1-.21l17.41-5.44a3.65,3.65,0,0,1,2.44.09l13.16,5.1a4.67,4.67,0,0,0,2.16.28l17.26-2a7,7,0,0,0,3-1l12.88-8.27a3.23,3.23,0,0,1,3.59,0l8,5.43a4.48,4.48,0,0,0,2.51.77H532.4" transform="translate(-52 -216.49)"/><path class="cls-1" d="M532.4,640.61" transform="translate(-52 -216.49)"/><path class="cls-1" d="M375,630.72l16.8-11.08a2.54,2.54,0,0,1,2.67-.09l6.42,3.63a2.32,2.32,0,0,0,2.16.08l14.74-7,12-13.56a2.68,2.68,0,0,1,3-.69l14.14,6,16.71,8.58,9.82,1.92a4.12,4.12,0,0,0,2.06-.11l10.85-3.41,9.46-3.33a3.94,3.94,0,0,1,4.87,2l2.52,5.39a3.54,3.54,0,0,0,2.23,1.93l9,2.63,10,5.07h7.85" transform="translate(-52 -216.49)"/><path class="cls-2" d="M472.12,727.13l3.13-8.6a2.38,2.38,0,0,1,.5-.82l4.6-5a3.38,3.38,0,0,0,.64-1l3.55-9.18,5.81-10.73a2,2,0,0,0,.24-1.13l-.54-6.9" transform="translate(-52 -216.49)"/><path class="cls-2" d="M532.4,675.62h-5.94l-7.43,2.9-5.3,1.41a3,3,0,0,0-1.47.91l-8.67,9.82a3.22,3.22,0,0,1-.43.39l-7.46,5.51a2.21,2.21,0,0,1-.72.36l-8.87,2.61" transform="translate(-52 -216.49)"/><path class="cls-2" d="M531.37,635.87" transform="translate(-52 -216.49)"/><path class="cls-2" d="M110.86,748.55s-6.17,4.12-7,3.71-7-2.15-8.94-2.71a2.85,2.85,0,0,0-1.2-.08l-5.08.73-2.45.7a2.29,2.29,0,0,1-2.82-1.51l-1.31-4.13-1.45-4.72a3,3,0,0,0-.64-1.13l-4.29-4.86-3.11-2.45a3.45,3.45,0,0,0-3.62-.42l-.78.37a3.41,3.41,0,0,1-1.94.3l-4.16-.55c-.66-.09-1.5-3.92-2.07-4.26H52.23" transform="translate(-52 -216.49)"/><path class="cls-2" d="M52.43,780.07" transform="translate(-52 -216.49)"/><path class="cls-2" d="M491.05,737.84c1.65-1.65,12.94-3.29,12.94-3.29L510.8,730l9.88-2.06,6.17-3.7h5.55" transform="translate(-52 -216.49)"/><path class="cls-2" d="M531.37,672.89" transform="translate(-52 -216.49)"/><path class="cls-2" d="M531.37,719" transform="translate(-52 -216.49)"/><path class="cls-2" d="M52.43,725.69" transform="translate(-52 -216.49)"/><path class="cls-2" d="M52.23,685.93" transform="translate(-52 -216.49)"/><polyline class="cls-2" points="480.4 501.92 468.68 501.92 451.81 506.93 438.6 502.51 427.12 507.75 420.95 508.17"/><path class="cls-2" d="M443.32,770l9.46,6.59,4.12,1.24,4.94-.42s5.76,2.48,5.76,2.89,4.94,1.23,4.94,1.23l2.46-1.64,2.59-3.71,3.17-2.89,2.47-2.06,9.47-3.7,3.7-5.77,6.17-3.3h7.48l5.69-9.89,3.7-4.12,7-4.53h6" transform="translate(-52 -216.49)"/><path class="cls-2" d="M52.23,602.22H58.9c1.1.78,1.54,1.35,2.1,1.78l7,3.8a2.34,2.34,0,0,0,2,.42l10.11-2.45a2.14,2.14,0,0,1,1.43.16l11.86,5.76a2.76,2.76,0,0,0,2.11.12l5.73-2a2.3,2.3,0,0,1,1.93.21l10.61,6.34a2.37,2.37,0,0,0,2.44,0l13.18-7.92,12-5.61a2.93,2.93,0,0,1,2.44,0l7.59,3.25a3.35,3.35,0,0,0,1.53.27l2.47-.13,3.49-.18a3,3,0,0,1,1.1.15l17,5.79a3.34,3.34,0,0,1,1.08.62l9.46,8.07a2.92,2.92,0,0,0,2.65.59l11.2-3.06a3.47,3.47,0,0,0,1.55-.9l5.86-5.88a3.54,3.54,0,0,1,2.14-1l3.28-.29,15.6,2.66a3.62,3.62,0,0,0,2.39-.41l5-2.79a2.88,2.88,0,0,0,.88-.75l5-6.13a3.75,3.75,0,0,1,4.16-1.19L264,607.46a3.84,3.84,0,0,0,1.12.22l13.89.75a4.27,4.27,0,0,1,1.81.5l18.36,9.8a1.82,1.82,0,0,0,1.19.17l8-1.61a2.37,2.37,0,0,0,1.36-.79l7-8a1.49,1.49,0,0,1,1.68-.42l6.42,2.5,13.24,7.63a2.76,2.76,0,0,0,.72.28l11.5,2.69a2.34,2.34,0,0,1,.85.39l5.37,3.84,4.78,1.65h7.23a3.69,3.69,0,0,1,2.11.66l7.28,5.1,3.47,1.25a2.42,2.42,0,0,1,1.46,3.1l-2,5.56a4.33,4.33,0,0,1-1.49,2L363.5,656.27" transform="translate(-52 -216.49)"/><path class="cls-2" d="M354,653.38l-21.17-13.6a6.67,6.67,0,0,0-1.34-.66l-27.37-10a5.89,5.89,0,0,0-5.83.26l-8.27,5.21L274.3,642a7.52,7.52,0,0,1-5.65.29l-9-3.12-16-7.42-5.75-6.5a7.1,7.1,0,0,0-8.66-1.57l-4.46,2.39a6.3,6.3,0,0,1-5.89,0l-7-3.63a6.06,6.06,0,0,0-5.47-.06l-8.91,4.41-10.28,4.94-5.68-.49a5.53,5.53,0,0,1-4.83-4l-.6-2.11-8.23-9.06-10.8-1.59a5.58,5.58,0,0,0-5.19,2.07l-2.53,3.23-12.75,7-2.41,4a5.71,5.71,0,0,1-6.09,2.61l-13.31-2.85-10.7-4.12-9.52-4.92a4.84,4.84,0,0,0-5.74,1l-4.9,5.17-6.42,5.84a5,5,0,0,1-5.76.7l-3.17-1.73a5,5,0,0,0-5.31.32l-6.09,4.35H52.23" transform="translate(-52 -216.49)"/><path class="cls-2" d="M102.22,734.55l1.49,7.82a2.17,2.17,0,0,0,.83,1.34l8.94,6.81A2.21,2.21,0,0,0,115,751l3-.25a2.46,2.46,0,0,1,1.94.71l4.14,4.14,4.39,6.23a2.4,2.4,0,0,0,1.47,1l3.86.83a2.68,2.68,0,0,1,1.58,1l5.11,6.73a2.29,2.29,0,0,0,2.26.85l8-1.59a2.49,2.49,0,0,1,1.77.31l4.41,2.64a2.89,2.89,0,0,0,2,.38l7.18-1.25a2.52,2.52,0,0,1,2.12.61l2.46,2.21a2.78,2.78,0,0,0,1.75.73l6.35.32a2.55,2.55,0,0,1,1.54.6l5.28,4.4a3.28,3.28,0,0,0,3.24.55l3.52-1.32a2.13,2.13,0,0,1,2.25.49l5.21,5.21,2.66,2.66a2.74,2.74,0,0,0,1.51.77l12.3,1.86a2.2,2.2,0,0,1,.74.27l5,3.09,9.47,8.65,6.08,5a3.33,3.33,0,0,0,2.1.75h5.61a2.78,2.78,0,0,1,1.71.58l3,2.3,1.4,2a2.7,2.7,0,0,0,1.78,1.11l2.56.43a3.08,3.08,0,0,1,2,1.25l3.72,5.28a3,3,0,0,0,1.25,1l2.41,1.1a3.11,3.11,0,0,0,2.68-.05l.86-.43a1.28,1.28,0,0,1,1.7.52l1.46,2.63,3.05,2.72a2.55,2.55,0,0,0,1.53.65l3.37.28a1.8,1.8,0,0,1,1.16.58l3.24,3.6,5.17,1.48a1.93,1.93,0,0,1,1,.64l1.14,1.37a2.16,2.16,0,0,0,1.35.75l4.94.71h1.22a2.81,2.81,0,0,0,2-.85l11.77-12.09a2.8,2.8,0,0,1,1.54-.82l7.63-1.39a2.71,2.71,0,0,0,1-.39l7.39-4.81a1.75,1.75,0,0,1,.85-.28l6.24-.35a2.26,2.26,0,0,0,1.27-.46L359,803.16a2.83,2.83,0,0,1,1.88-.58l5.77.3a3.78,3.78,0,0,0,1.9-.39l9.8-4.91,7.61-4.72a3.87,3.87,0,0,0,1.52-1.75l1.84-4.21a1.28,1.28,0,0,1,1.77-.63l9.07,4.72,1.25,1a3.17,3.17,0,0,0,2.76.66l3.81-.88L417.4,784l9.46-3.71,4.06-3.7A2.66,2.66,0,0,1,432,776l4.68-1.24a3.92,3.92,0,0,0,1.57-.84l10.54-9.09a3.09,3.09,0,0,1,1.62-.74l6.92-1a3.53,3.53,0,0,0,1.47-.57l8.69-5.87a2.21,2.21,0,0,1,.89-.35l4.57-.74,10.38-5.6a2.61,2.61,0,0,1,.66-.24l6.76-1.35a3.33,3.33,0,0,0,1.86-1.1l4.66-5.57" transform="translate(-52 -216.49)"/><path class="cls-2" d="M186.16,657.5l-7.11-7.12a5.65,5.65,0,0,0-3.54-1.62,18.54,18.54,0,0,0-3,0,5.52,5.52,0,0,0-2.92,1.2l-11.3,9.11a20.41,20.41,0,0,1-3.08,2.06,5.48,5.48,0,0,1-5,.09l-1.21-.58a7,7,0,0,0-8.75,2.59c-1.09,1.78-2.22,3.78-7.84,6.11a1.5,1.5,0,0,1-.36.11c-5.63,1.24-8.15,3.22-15.45,7.79-.12.08-6,4-6.17,4.12l-2.59,1.12a1.83,1.83,0,0,1-.57.14L95,683.86a1.37,1.37,0,0,0-.28,0c-6.37,1.65-10.84,6.93-7.1,9.29a1.69,1.69,0,0,1,.43.37c.81.93,3.94,4.6,4.62,5.39a1.67,1.67,0,0,1,.24.35,16.3,16.3,0,0,0,1.85,3.18l6.2,6.41a5,5,0,0,0,2.21,1.33c1.85.52,5,1.37,5.1,1.49l6.86,6.86s0,0,0,0c14.15,7.6-1.67,12.48-12.8,14.5a.78.78,0,0,0,0,1.53l12,2.94,4.07,1a5,5,0,0,0,.77.14l24.29,2.43,22.22,2.06h15.74l8.92,3.68.06,0,16,.82L231,749h8.87l16.19,5.33h.07l10.63-.82h.06l11.86,2.86h.09l12.11-2.83a.18.18,0,0,0,.13-.23l-1.92-6.56a.19.19,0,0,1,.19-.24l24.39,1.63h.06l13.08-2.87a.14.14,0,0,1,.11,0l4.43,1.61h.09l15.13-2h.09L357.29,749l.07,0,23-.83h0l8.6-1.64h0l12.3.82h0l19.3-3.28h0l38.63.83h.06l15.16-4.52h.07l20.9,2h.09l1.65-.66a.19.19,0,0,0,0-.34l-19.4-10.52h0l-10.27-6.58,0,0-24.24-9.46,0,0L419,696.87a1,1,0,0,1,.81-1.86l12.73,2.39a3.27,3.27,0,0,0,3.59-1.88h0a1.89,1.89,0,0,1,2.05-1.1l9.75,1.69a3.72,3.72,0,0,0,1.45,0l16.25-3.62a3.61,3.61,0,0,1,2.84.57l1.77,1.23a3.34,3.34,0,0,0,3.58.17l9.16-5.23,5.91-3.38a9.53,9.53,0,0,0,1.24-1.76.19.19,0,0,0-.09-.26l-12.53-5.43a3.09,3.09,0,0,0-1-.34l-12-1.87a4.53,4.53,0,0,1-1.28-.4L459,673.69a2.27,2.27,0,0,0-.5-.17l-10.25-1.86a3.53,3.53,0,0,1-1.46-.63l-8.4-6.22a3.76,3.76,0,0,0-.88-.48L426,660a2,2,0,0,0-2.1.46l-7.39,7.4a3,3,0,0,1-1.83.86l-7.12.64a3.34,3.34,0,0,1-1.65-.25l-6.12-2.52-.16-.07L384,658.33a5.81,5.81,0,0,0-3.32-.64l-9.16.95a4.74,4.74,0,0,1-2-.23l-14-4.76a6.61,6.61,0,0,0-7.31,2.16l-3.83,4.84a5.25,5.25,0,0,1-2.8,1.83l-5.56,1.45a7.09,7.09,0,0,1-4.32-.22l-4.34-1.63a1.9,1.9,0,0,0-.62-.12l-7.44-.29a7.35,7.35,0,0,0-5.51,2.19l-4.73,4.83a2,2,0,0,1-.8.5l-9.35,3a8.52,8.52,0,0,1-7.7-1.27l-9.54-7.1a7.32,7.32,0,0,0-3-1.3h0l-10.27-4.86a4.5,4.5,0,0,0-2.61-.37L260,658.74a1.43,1.43,0,0,1-1.4-.41c-2.4-2.54-6.08-5.53-10.73-5.77-8.42-.43-12.35,8.56-18.93,7-6.26-1.47-8.68-11-12.65-9.95a3.28,3.28,0,0,0-1.75,1.3,46.48,46.48,0,0,1-8.81,9.11c-1.08.83-3,4.25-5.39,3.87-3.8-.61-4.61-3.36-7.78-5.12-2.15-1.19-6.41-4.56-15.88,2.44" transform="translate(-52 -216.49)"/></g><g id="Socle-3" data-name="Socle"><polyline points="480.4 722.04 445.95 732.34 378.06 739.75 343.08 729.45 310.17 733.98 256.68 722.04 215.94 727.39 171.09 706.85 85.51 715.71 39.01 718.47 0.23 717.71 0 513.51 6.78 514.51 23.55 546.51 34.55 552.51 27.49 563.07 29.96 568.84 39.01 570.08 51.77 560.6 59.17 556.07 72.34 560.6 85.1 553.6 97.44 563.07 104.85 566.78 112.67 569.66 126.24 560.6 129.95 559.36 142.29 566.37 143.94 565.96 146.41 560.19 165.74 549.06 173.56 549.89 195.37 533.41 202.36 533 210.18 528.05 219.65 525.99 226.64 518.99 233.54 512.81 236.1 513.22 241.45 514.04 245.98 516.52 250.09 518.58 253.38 521.87 258.32 522.28 260.38 524.76 263.92 528.7 267.79 528.05 271.49 530.11 274.37 535.06 281.37 538.35 287.13 542.47 294.12 542.88 305.64 552.36 315.93 561.01 327.45 561.42 337.74 552.77 344.73 547.83 351.73 549.06 357.07 552.36 365.3 548.24 373.12 539.59 379.7 540.82 386.29 546.59 399.87 551.53 413.03 554.01 422.69 548.22 433.19 543.71 438.13 537.53 443.89 536.29 448.01 537.53 459.12 547.41 460.35 554.01 469.4 558.54 471 576.51 480.4 573.37"/><path class="cls-2" d="M496.61,878.17c-6.95.15-14.87,0-18.11-1.23-8-3-9.63-6.87-16.05-7-4.43-.09-5.43,1.7-11.52,1.65-5.42,0-6.59-1.48-9.87-1.65-12.14-.61-17.36,18-28,16.89-5.35-.54-6.07-5.44-10.7-4.94-7.42.81-7.5,13.62-15.22,15.65-6.09,1.6-8.7-5.64-23.05-10.71-7-2.47-10.83-1.93-16.87-.41-12.9,3.26-15,16.09-24.27,16.48-5.21.22-8.64,6.59-23.46-14-4.31-6-7.89-3.71-9.05-3.71-9.45.06-8.09,9.37-20.57,9.07-6-.15-7.27-4.43-13.58-4.53s-8.63,7.42-14,6.59c-3.89-.61-3.65-4.72-10.28-10.71a44,44,0,0,0-14-8.24c-5.21-2.09-8.39-3.36-12.76-3.3-9.74.13-17.49,6.78-20.16,9.07-4.77,4.08-5.1,6.25-8.23,7-5.32,1.27-24.21-12.06-28.39-16.48" transform="translate(-52 -216.49)"/><path class="cls-2" d="M463.69,847.27c-15.23,9.89-30.52,1.61-37.44,5.77-10.29,6.18-12,4.53-18.11,7.42-14.68,6.9-15.25,16.21-25.1,17.3-9.43,1-12.79-7.06-22.22-6.18-8.69.81-13.91,9.8-18.1,16.48" transform="translate(-52 -216.49)"/><path class="cls-2" d="M288.41,884.76l-5.85-7.21A4.61,4.61,0,0,0,276,877l-3.39,2.95a5.44,5.44,0,0,1-5.53,1l-18.39-7.06-23.8-13.43a5.39,5.39,0,0,0-5-.15l-16.11,7.92a9.19,9.19,0,0,1-7.18.4l-8.58-3.09a4.44,4.44,0,0,0-4.15.6l-9.91,7.32a6,6,0,0,1-6.84.18l-5.14-3.4" transform="translate(-52 -216.49)"/><path class="cls-2" d="M494.26,873.92l6.67.34L512.45,878l9.38,5.26a3.34,3.34,0,0,0,1.93.42h8.64" transform="translate(-52 -216.49)"/><path d="M208.58,938.32l-16.8,11.09a2.56,2.56,0,0,1-2.67.09l-6.42-3.64a2.38,2.38,0,0,0-2.16-.08l-14.74,7-12,13.56a2.66,2.66,0,0,1-3,.68l-14.14-6-16.71-8.58-9.82-1.93a4.24,4.24,0,0,0-2.06.12L97.14,954l-9.46,3.33a3.94,3.94,0,0,1-4.87-2.06l-2.52-5.39A3.55,3.55,0,0,0,78.06,948l-9-2.63L63,938l-10.77-.44v-4.12l5.55-4.35a4.16,4.16,0,0,1,2.24-.66H72.45a4.41,4.41,0,0,1,2.51.78l8,5.43a3.27,3.27,0,0,0,3.59.05l12.88-8.27a7,7,0,0,1,3-1l17.26-2a4.54,4.54,0,0,1,2.16.28l13.16,5.1a3.71,3.71,0,0,0,2.44.08l17.41-5.43a4.85,4.85,0,0,1,1-.21l25-2.76a4,4,0,0,1,2.4.5l8.39,4.84a3.73,3.73,0,0,0,2.12.48l9.56-.74" transform="translate(-52 -216.49)"/><path class="cls-1" d="M52.23,929H72.45A4.87,4.87,0,0,1,75,930l8,4.64a3.27,3.27,0,0,0,3.59.05l12.88-8.27a7,7,0,0,1,3-1l17.26-2a4.54,4.54,0,0,1,2.16.28l13.16,5.1a3.71,3.71,0,0,0,2.44.08l17.41-5.43a4.85,4.85,0,0,1,1-.21l25-2.76a4,4,0,0,1,2.4.5l8.39,4.84a3.73,3.73,0,0,0,2.12.48l9.56-.74" transform="translate(-52 -216.49)"/><path class="cls-1" d="M208.58,938.32l-16.8,11.09a2.56,2.56,0,0,1-2.67.09l-6.42-3.64a2.38,2.38,0,0,0-2.16-.08l-14.74,7-12,13.56a2.66,2.66,0,0,1-3,.68l-14.14-6-16.71-8.58-9.82-1.93a4.24,4.24,0,0,0-2.06.12L97.14,954l-9.46,3.33a3.94,3.94,0,0,1-4.87-2.06l-2.52-5.39A3.55,3.55,0,0,0,78.06,948l-9-2.63-7.2-7.77H52.23" transform="translate(-52 -216.49)"/><path class="cls-2" d="M111.48,841.92l-3.13,8.6a2.48,2.48,0,0,1-.5.82l-4.6,5a3.26,3.26,0,0,0-.64,1l-3.55,9.18-5.81,10.73a2,2,0,0,0-.24,1.13l.54,6.89" transform="translate(-52 -216.49)"/><path class="cls-2" d="M52.23,896H58c.06,0,2.93-3,3-3l3.57-2.47,5.3-1.41a3.06,3.06,0,0,0,1.47-.91L80,878.39a2.27,2.27,0,0,1,.43-.39l7.46-5.52a2.43,2.43,0,0,1,.72-.36l8.87-2.6" transform="translate(-52 -216.49)"/><path class="cls-2" d="M52.23,933.17" transform="translate(-52 -216.49)"/><path class="cls-2" d="M532.4,790H529l-2.84-8.23-4.87-6.18-8.63-4.19a3,3,0,0,1-1.72-2.74v-1.74a3.47,3.47,0,0,0-1.27-2.67L506.89,762l-3.59-5a4,4,0,0,0-1.3-1.17L497,753a3,3,0,0,0-1.81-.37l-5.22.55a3.69,3.69,0,0,0-2.6,1.49l-2.89,3.94A4,4,0,0,1,482.8,760l-7,2.86-6,3.52a4.28,4.28,0,0,0-.61.44l-4.62,4a2,2,0,0,1-2,.32l-5.88-2.48-10.28-1.23-9.12-4.54-4.38-4.07a3.64,3.64,0,0,0-1.12-.7l-6-2.28a3,3,0,0,0-3.42.92l-4,4.9-2.81,3.29-7.21,3.75a2.49,2.49,0,0,1-2.79-.32l-3.3-2.83a2.45,2.45,0,0,0-1.6-.6H396a4.15,4.15,0,0,0-2.55.88L378.1,779" transform="translate(-52 -216.49)"/><path class="cls-2" d="M472.74,820.49s6.17-4.12,7-3.71,7,2.16,8.94,2.72a2.85,2.85,0,0,0,1.2.08l5.08-.74,2.45-.7a2.3,2.3,0,0,1,2.82,1.52l1.31,4.13,1.45,4.72a3.1,3.1,0,0,0,.64,1.13l4.29,4.86L511,837a3.47,3.47,0,0,0,3.62.41l.78-.36a3.41,3.41,0,0,1,1.94-.3l4.16.55a5.08,5.08,0,0,1,1.86.64l9,3.61" transform="translate(-52 -216.49)"/><path class="cls-2" d="M531.17,789" transform="translate(-52 -216.49)"/><polyline class="cls-2" points="0.23 561.22 5.41 561.22 11.34 554.15 17.1 556.62 26.15 563.63 27.8 568.57 37.26 570.22 47.96 563.63 50.24 560.12 57.83 556.21 70.47 560.95 82.93 553.33 95.69 563.21 110.09 569.8"/><path class="cls-2" d="M52.23,830.17" transform="translate(-52 -216.49)"/><path class="cls-2" d="M531.17,843.36" transform="translate(-52 -216.49)"/><polyline class="cls-2" points="0.23 632.51 10.93 632.43 27.8 629.13 41 633.55 52.48 628.31 58.66 627.9"/><path class="cls-2" d="M140.28,799.07l-9.46-6.59-4.12-1.24-4.94.41s-5.76-2.47-5.76-2.88-4.94-1.24-4.94-1.24l-2.46,1.65L106,792.89l-3.17,2.88-2.47,2.06-9.47,3.71-3.7,5.77L81,810.6H73.55l-5.69,9.89-3.7,4.12-7,4.53H52.23" transform="translate(-52 -216.49)"/><path d="M229.57,915.66l21.17,13.6a6.71,6.71,0,0,0,1.34.67l27.37,9.94a5.87,5.87,0,0,0,5.83-.25l8.27-5.21,15.75-7.36a7.52,7.52,0,0,1,5.65-.3l9.05,3.13,16,7.41,5.75,6.51a7.1,7.1,0,0,0,8.66,1.56l4.46-2.38a6.32,6.32,0,0,1,5.89,0l6.95,3.63a6,6,0,0,0,5.47.06l8.91-4.4,10.28-5,5.68.5a5.51,5.51,0,0,1,4.83,4l.6,2.1,8.23,9.07,10.8,1.59a5.57,5.57,0,0,0,5.19-2.08l2.53-3.22,12.75-7,2.41-4a5.73,5.73,0,0,1,6.09-2.62l13.31,2.86,10.7,4.12,9.52,4.92a4.84,4.84,0,0,0,5.74-1l4.9-5.18,6.42-5.84a5,5,0,0,1,5.76-.69l3.17,1.73a5,5,0,0,0,5.31-.32l6.09-4.35,6-3.51V963.7l-7.7,3.12a1.53,1.53,0,0,1-1.89,0l-7.22-5.59a2.34,2.34,0,0,0-2-.42l-10.11,2.44a2.14,2.14,0,0,1-1.43-.15l-11.86-5.76a2.76,2.76,0,0,0-2.11-.13l-5.73,2a2.3,2.3,0,0,1-1.93-.2l-10.61-6.34a2.37,2.37,0,0,0-2.44,0l-13.18,7.92-12,5.61a3,3,0,0,1-2.44,0L432.24,963a3.5,3.5,0,0,0-1.53-.28l-2.47.14-3.49.18a3,3,0,0,1-1.1-.15l-17-5.79a3.53,3.53,0,0,1-1.08-.62l-9.46-8.07a2.92,2.92,0,0,0-2.65-.59l-11.2,3.06a3.47,3.47,0,0,0-1.55.9l-5.86,5.87a3.43,3.43,0,0,1-2.14,1l-3.28.3-15.6-2.67a3.63,3.63,0,0,0-2.39.42l-5,2.79a3,3,0,0,0-.88.74l-5,6.14a3.75,3.75,0,0,1-4.16,1.18l-16.92-5.94a4.2,4.2,0,0,0-1.12-.22l-13.89-.74a4.42,4.42,0,0,1-1.81-.5l-18.36-9.8a1.76,1.76,0,0,0-1.19-.18l-8,1.61a2.44,2.44,0,0,0-1.36.8l-7,8a1.5,1.5,0,0,1-1.68.42l-6.42-2.5-13.24-7.63a2.79,2.79,0,0,0-.72-.29l-11.5-2.68a2.73,2.73,0,0,1-.85-.39l-5.37-3.84L222.32,942h-7.23a3.69,3.69,0,0,1-2.11-.66l-7.28-5.11L202.23,935a2.42,2.42,0,0,1-1.46-3.1l2-5.56a4.28,4.28,0,0,1,1.49-2l15.82-11.59" transform="translate(-52 -216.49)"/><path class="cls-1" d="M532.4,964H529l-4.28,2.82a1.53,1.53,0,0,1-1.89,0l-7.22-5.59a2.34,2.34,0,0,0-2-.42l-10.11,2.44a2.14,2.14,0,0,1-1.43-.15l-11.86-5.76a2.76,2.76,0,0,0-2.11-.13l-5.73,2a2.3,2.3,0,0,1-1.93-.2l-10.61-6.34a2.37,2.37,0,0,0-2.44,0l-13.18,7.92-12,5.61a3,3,0,0,1-2.44,0L432.24,963a3.5,3.5,0,0,0-1.53-.28l-2.47.14-3.49.18a3,3,0,0,1-1.1-.15l-17-5.79a3.53,3.53,0,0,1-1.08-.62l-9.46-8.07a2.92,2.92,0,0,0-2.65-.59l-11.2,3.06a3.47,3.47,0,0,0-1.55.9l-5.86,5.87a3.43,3.43,0,0,1-2.14,1l-3.28.3-15.6-2.67a3.63,3.63,0,0,0-2.39.42l-5,2.79a3,3,0,0,0-.88.74l-5,6.14a3.75,3.75,0,0,1-4.16,1.18l-16.92-5.94a4.2,4.2,0,0,0-1.12-.22l-13.89-.74a4.42,4.42,0,0,1-1.81-.5l-18.36-9.8a1.76,1.76,0,0,0-1.19-.18l-8,1.61a2.44,2.44,0,0,0-1.36.8l-7,8a1.5,1.5,0,0,1-1.68.42l-6.42-2.5-13.24-7.63a2.79,2.79,0,0,0-.72-.29l-11.5-2.68a2.73,2.73,0,0,1-.85-.39l-5.37-3.84L222.32,942h-7.23a3.69,3.69,0,0,1-2.11-.66l-7.28-5.11L202.23,935a2.42,2.42,0,0,1-1.46-3.1l2-5.56a4.28,4.28,0,0,1,1.49-2l15.82-11.59" transform="translate(-52 -216.49)"/><path class="cls-1" d="M229.57,915.66l21.17,13.6a6.71,6.71,0,0,0,1.34.67l27.37,9.94a5.87,5.87,0,0,0,5.83-.25l8.27-5.21,15.75-7.36a7.52,7.52,0,0,1,5.65-.3l9.05,3.13,16,7.41,5.75,6.51a7.1,7.1,0,0,0,8.66,1.56l4.46-2.38a6.32,6.32,0,0,1,5.89,0l6.95,3.63a6,6,0,0,0,5.47.06l8.91-4.4,10.28-5,5.68.5a5.51,5.51,0,0,1,4.83,4l.6,2.1,8.23,9.07,10.8,1.59a5.57,5.57,0,0,0,5.19-2.08l2.53-3.22,12.75-7,2.41-4a5.73,5.73,0,0,1,6.09-2.62l13.31,2.86,10.7,4.12,9.52,4.92a4.84,4.84,0,0,0,5.74-1l4.9-5.18,6.42-5.84a5,5,0,0,1,5.76-.69l3.17,1.73a5,5,0,0,0,5.31-.32l6.09-4.35,6,.06" transform="translate(-52 -216.49)"/><path class="cls-2" d="M481.38,834.5l-1.49-7.82a2.15,2.15,0,0,0-.83-1.34l-8.94-6.81a2.21,2.21,0,0,0-1.51-.44l-3,.25a2.46,2.46,0,0,1-1.94-.71l-4.14-4.14-4.39-6.23a2.36,2.36,0,0,0-1.47-1l-3.86-.83a2.69,2.69,0,0,1-1.58-1l-5.11-6.72a2.29,2.29,0,0,0-2.26-.85L433,798.47a2.49,2.49,0,0,1-1.77-.31l-4.41-2.65a2.94,2.94,0,0,0-2-.37l-7.18,1.25a2.56,2.56,0,0,1-2.12-.61L413,793.56a2.83,2.83,0,0,0-1.75-.72l-6.35-.32a2.61,2.61,0,0,1-1.54-.6l-5.28-4.4a3.23,3.23,0,0,0-3.24-.55l-3.52,1.32a2.13,2.13,0,0,1-2.25-.49l-5.21-5.21-2.66-2.67a2.73,2.73,0,0,0-1.51-.76l-12.3-1.87a2,2,0,0,1-.74-.27l-5-3.08-9.47-8.65-6.08-5a3.27,3.27,0,0,0-2.1-.75h-5.61a2.84,2.84,0,0,1-1.71-.58l-3-2.31-1.4-2a2.74,2.74,0,0,0-1.78-1.11l-2.56-.42a3.05,3.05,0,0,1-2-1.26l-3.72-5.27a3.15,3.15,0,0,0-1.25-1l-2.41-1.09a3.11,3.11,0,0,0-2.68,0L315,745a1.29,1.29,0,0,1-1.7-.53l-1.46-2.63-3.05-2.71a2.62,2.62,0,0,0-1.53-.66l-3.37-.28a1.79,1.79,0,0,1-1.16-.57L299.51,734l-5.17-1.48a2,2,0,0,1-1-.63l-1.14-1.37a2.11,2.11,0,0,0-1.35-.75l-4.94-.71h-1.22a2.81,2.81,0,0,0-2,.85L270.94,742a2.87,2.87,0,0,1-1.54.82l-7.63,1.39a2.69,2.69,0,0,0-1,.38l-7.39,4.82a1.86,1.86,0,0,1-.85.28l-6.24.34a2.35,2.35,0,0,0-1.27.47l-20.41,15.42a2.88,2.88,0,0,1-1.88.58l-5.77-.31a3.79,3.79,0,0,0-1.9.4l-9.8,4.91-7.61,4.71a4,4,0,0,0-1.52,1.75l-1.84,4.22a1.29,1.29,0,0,1-1.77.63l-9.07-4.72-1.25-1a3.21,3.21,0,0,0-2.76-.66l-3.81.88-9.46,7.83-9.46,3.71-4.06,3.69a2.66,2.66,0,0,1-1.08.59l-4.68,1.25a4,4,0,0,0-1.57.83l-10.54,9.1a3.17,3.17,0,0,1-1.62.74l-6.92,1a3.4,3.4,0,0,0-1.47.57l-8.69,5.86a2.1,2.1,0,0,1-.89.36l-4.57.74-10.38,5.6a2.61,2.61,0,0,1-.66.24l-6.76,1.35a3.28,3.28,0,0,0-1.86,1.1l-4.66,5.57" transform="translate(-52 -216.49)"/><path class="cls-2" d="M397.44,911.54l7.11,7.12a5.55,5.55,0,0,0,3.54,1.62,17.45,17.45,0,0,0,3,0A5.53,5.53,0,0,0,414,919l11.3-9.1a21.26,21.26,0,0,1,3.08-2.07,5.51,5.51,0,0,1,5-.09l1.21.59a7,7,0,0,0,8.75-2.59c1.09-1.78,2.22-3.78,7.84-6.11a2.17,2.17,0,0,1,.36-.12c5.63-1.23,8.15-3.22,15.45-7.78.12-.08,6-4,6.17-4.12s1.88-.83,2.59-1.12a1.85,1.85,0,0,1,.57-.15l12.34-1.19.28-.05c6.37-1.66,10.84-6.94,7.1-9.29a1.91,1.91,0,0,1-.43-.37l-4.62-5.4a1.61,1.61,0,0,1-.24-.34,16.3,16.3,0,0,0-1.85-3.18l-6.2-6.42a5,5,0,0,0-2.21-1.32c-1.85-.52-5-1.38-5.1-1.49l-6.86-6.87,0,0c-14.15-7.59,1.67-12.48,12.8-14.49a.79.79,0,0,0,.05-1.54l-12-2.93-4.07-1a6.51,6.51,0,0,0-.77-.13l-24.29-2.43L418,825.85H402.35l-.07,0-8.92-3.68h-.06l-16-.82-24.69-1.24h-8.87l-16.19-5.33h-.07l-10.63.82h-.06l-11.86-2.87h-.09l-12.11,2.83a.19.19,0,0,0-.13.24l1.92,6.56a.18.18,0,0,1-.19.23l-24.39-1.62h-.06l-13.08,2.87h-.11l-4.43-1.61a.14.14,0,0,0-.09,0l-15.13,2a.14.14,0,0,1-.09,0l-10.62-4.09h-.07l-23,.82h0l-8.6,1.64h-.05l-12.3-.82h0L162.93,825h0l-38.63-.82h-.06L109,828.72H109l-20.9-2.05a.14.14,0,0,0-.09,0l-1.65.66a.18.18,0,0,0,0,.33l19.4,10.52h0L116,844.79l0,0,24.24,9.46,0,0,24.29,17.88a1,1,0,0,1-.81,1.86l-12.73-2.39a3.27,3.27,0,0,0-3.59,1.89h0a1.9,1.9,0,0,1-2.05,1.1l-9.75-1.69a3.72,3.72,0,0,0-1.45,0L118,876.59a3.57,3.57,0,0,1-2.84-.56l-1.77-1.24a3.36,3.36,0,0,0-3.58-.16l-9.16,5.23-5.91,3.38A9.53,9.53,0,0,0,93.46,885a.18.18,0,0,0,.09.25l12.53,5.43a2.66,2.66,0,0,0,1,.34l12,1.88a4.53,4.53,0,0,1,1.28.4l4.29,2.06a1.82,1.82,0,0,0,.5.16l10.25,1.87a3.41,3.41,0,0,1,1.46.63l8.4,6.22a3.76,3.76,0,0,0,.88.48L157.6,909a2,2,0,0,0,2.1-.45l7.39-7.4a3,3,0,0,1,1.83-.86l7.12-.65a3.58,3.58,0,0,1,1.65.25l6.12,2.52.16.08,15.64,8.2a5.81,5.81,0,0,0,3.32.64l9.16-1a4.58,4.58,0,0,1,2,.23l14,4.75a6.59,6.59,0,0,0,7.31-2.15l3.83-4.85a5.23,5.23,0,0,1,2.8-1.82l5.56-1.46a7.17,7.17,0,0,1,4.32.23l4.34,1.63a2.2,2.2,0,0,0,.62.12l7.44.29a7.36,7.36,0,0,0,5.51-2.2l4.73-4.83a2.06,2.06,0,0,1,.8-.49l9.35-3a8.49,8.49,0,0,1,7.7,1.27l9.54,7.09a7.34,7.34,0,0,0,2.95,1.31h0l10.27,4.86a4.5,4.5,0,0,0,2.61.37l5.84-1.44a1.48,1.48,0,0,1,1.4.41c2.4,2.55,6.08,5.54,10.73,5.78,8.42.42,12.35-8.56,18.93-7,6.26,1.48,8.68,11,12.65,10a3.26,3.26,0,0,0,1.75-1.31,46.66,46.66,0,0,1,8.81-9.1c1.08-.84,3-4.25,5.39-3.87,3.8.61,4.61,3.35,7.78,5.12,2.15,1.18,6.41,4.56,15.88-2.45" transform="translate(-52 -216.49)"/></g></g></g></g></g><path class="cls-3" d="M52.7,612.37" transform="translate(-52 -216.49)"/></svg>