<svg id="CONTENT"
    xmlns="http://www.w3.org/2000/svg" viewBox="0 0 484.92 463.04">
    <defs>
        <style>.cls-1,.cls-2,.cls-3{stroke:#fff;}.cls-1,.cls-2,.cls-3,.cls-4,.cls-5{stroke-miterlimit:10;}.cls-1,.cls-2{stroke-width:5px;}.cls-2,.cls-3{fill:#fff;}.cls-3{stroke-width:0.75px;}.cls-4,.cls-5{fill:none;stroke:#000;}.cls-4{stroke-width:8px;}.cls-5{stroke-width:6px;}</style>
    </defs>
    <g id="SMALL">
        <g id="FIRE_SMALL">
            <g id="JUNCTION_FIRE_SMALL">
                <g id="BOTTOM">
                    <path id="TOP" class="cls-1" d="M824.22,2283.31V1977.16c-8.94-23.33-18.93-31.09-27.12-33.7-10-3.17-14.63,1.47-22.19-3.7-10.69-7.3-15-26.17-22.19-26.3-6.75-.12-4.56-3.33-8.63-5.75-2-1.2-4-4-7.81-9.45-2.62-3.74-3.41-5.37-5.75-6.58-2.65-1.36-4.23-.61-7-1.23-3.57-.8-5.67-3.11-10.27-8.63-10.63-12.74-10.7-13.88-13.56-15.61-4.34-2.63-6.42-1.35-15.62-2.47-5.77-.7-25.23-3.29-39.86-16.44-4.47-4-3.63-4.66-6.57-7-8.39-6.64-23.77-8.21-52.6,4.11-20.65,20.44-31,22.58-36.58,20.13-2.69-1.17-5-3.69-9.45-4.11-5.63-.52-12.58,2.13-16,7.4-2.65,4.05-1.26,6.63-3.7,9-3.43,3.39-8.89.91-16,.41-9.83-.68-6.3,8.89-11.62,13.83a11.74,11.74,0,0,1-6.05,2.61c-13.05,3.08-17.09,24.52-32.46,32.87-10.87,5.91-13.6-2.21-28.77,3.7-15.9,6.2-15,16-28.76,19.32-11.29,2.76-15.42-2.92-30-.41a52.16,52.16,0,0,0-19.32,7v329.57l23.84-20.13c7.34-2.67,16.83-4.69,23.42,0,2.27,1.61,2.84,3.05,4.93,4.93,3.91,3.49,12.65.85,26.71-1.24,4.46,0,18.14,5,30.41-6.57a44.15,44.15,0,0,0,9.87-14c2.38-18,8.62-25,14-27.95s9.55-1.73,23.83-5.75a140.07,140.07,0,0,0,16.44-5.75c14.71-6.74,14.88-17.81,28.76-29.59,8-6.75,15.42-9.85,21.37-12.33,28-11.65,70.61-11.94,87.94,8.22,3.28,3.81,6.33,9.15,14,14,9.34,5.9,12.8,3,22.2,8.22,10.79,6,17.33,16,21.36,22.19,5.52,8.45,4.77,10.63,9,14,6.52,5.11,13.79,4.35,24.65,4.52,3.25.06,24.58.4,37,4.11,9,2.7,21.13,9.53,32.87,28.36l5.14,12.53" transform="translate(-342.1 -1832.73)"/>
                    <path class="cls-2" d="M621.85,1935.42a25.65,25.65,0,0,0,13.56,3.69c4.56-.13,7.13-1.65,10.27,0s2.34,4.27,5.76,6.58c3.6,2.44,9.18,2.68,12.74.41,2.52-1.61,2.2-3.32,4.52-4.11,2.89-1,4.09,1.43,8.63,1.65.34,0,6.81.23,9.86-3.7,1.22-1.58.81-2.42,2-3.29,2.32-1.63,4.77.58,7.81-.41,2.88-.94,5.39-4.43,4.93-7-.74-4.16-9.62-7.3-16.85-5.75-6,1.3-6.4,4.92-13.15,6.16-5.14.95-5.23-1.09-11.91-.41-6.48.67-7.57,2.71-14,2.88-4.2.11-4.82-.73-8.63-.82C633.84,1931.22,628.52,1931.85,621.85,1935.42Z" transform="translate(-342.1 -1832.73)"/>
                    <path class="cls-2" d="M648.56,1990.07c.12,4.19-13.42,10.69-26.3,9.86-6-.38-8.46-2.14-12.74-.41-6.09,2.47-5.24,7.71-11.92,11.92s-14.51,3.24-17.25,2.88a30.34,30.34,0,0,1-13.57-5.35c-6.52-4.7-5.26-8-10.27-10.68-6.49-3.49-10.93.79-19.31-1.23-7.79-1.88-7.75-9.42-14.8-10.28-4.76-.58-7.81,1.93-9,.41-1.4-1.73.73-7.37,4.93-10.27,5.73-4,10.07.78,21-2.05,6-1.58,6.12-3.4,11.92-4.11,5.57-.69,7.12.79,12.33-.41,5.83-1.35,6-3.69,9.86-3.7,5.49,0,6.1,4.69,12.33,6.16,7.11,1.68,9.42-3.73,16.44-2,5.31,1.27,5,4.62,11.91,7.8,5.38,2.49,7.51,1.35,15.21,2.88C630.81,1981.75,648.43,1985.34,648.56,1990.07Z" transform="translate(-342.1 -1832.73)"/>
                    <path class="cls-3" d="M825,2091c-7.8.41-19.79,7.35-27.16,9.14-9.11,2.21-16.19-2.06-19.25,1.95-1.08,1.41-1.47,3.59-.66,4.54,1.14,1.33,3.95-.56,7.82.13,2.68.47,4.33,1.9,6.3,3.46,6,4.74,10.12,8,13.91,9.36,6,2.09,4.66-3.51,19-3.1Z" transform="translate(-342.1 -1832.73)"/>
                    <path class="cls-3" d="M345.48,2132.9c7.81.41,19.79,7.36,27.16,9.15,9.12,2.21,16.2-2.07,19.26,1.94,1.07,1.41,1.47,3.6.65,4.55-1.14,1.32-3.94-.56-7.82.12-2.68.47-4.32,1.9-6.29,3.47-6,4.73-10.13,8-13.92,9.35-6,2.1-4.66-3.51-19-3.1Z" transform="translate(-342.1 -1832.73)"/>
                    <path class="cls-3" d="M345.48,2012.91c5.75-.41,11.71-9.92,18.41-12,3.52-1.06,5.26-.33,10.28-.11,13,.57,26.88-3.91,27-7.69.07-1.74-2.79-3.17-4.57-4.06-5.54-2.76-8.65-.78-15.63-1.47-10.15-1-12.36-6.08-19.77-4.31.73-.18-7.47,5-15.76,3.3Z" transform="translate(-342.1 -1832.73)"/>
                    <path class="cls-3" d="M811.25,2010c-6-.08-11.29-.21-16.4-3.46-2.49-1.59-3.63-3.07-6.53-4.18-4-1.53-5.5.09-12.74.27-7.93.2-9-1.52-14-.15-3.75,1-3.64,2.12-7.43,2.8-4.29.78-5.81-.36-9.87.72-.79.21-6.16,1.63-6.2,3.63-.06,2.48,8.09,5.15,15.14,5.91,7.39.81,9.31-1,15.21-.65,9.83.49,10.14,5.66,20.46,8.44,13.69,3.67,22.56-2.6,22.15-13.29" transform="translate(-342.1 -1832.73)"/>
                    <path class="cls-3" d="M437.71,2049.44c-6-.08-11.29-.21-16.4-3.46-2.49-1.59-3.64-3.07-6.53-4.18-4-1.53-5.5.09-12.74.27-7.93.2-9-1.53-14-.15-3.75,1-3.64,2.12-7.43,2.8-4.29.78-5.82-.36-9.87.72-.79.21-6.16,1.63-6.2,3.63-.06,2.48,8.09,5.15,15.14,5.91,7.39.81,9.31-.95,15.21-.65,9.83.49,10.14,5.66,20.46,8.44,13.69,3.67,22.56-2.6,22.15-13.29" transform="translate(-342.1 -1832.73)"/>
                    <path class="cls-3" d="M445.52,2085.19c6-.08,11.29-.21,16.4-3.46,2.5-1.58,3.64-3.07,6.53-4.18,4-1.53,5.5.1,12.74.28,7.93.19,8.95-1.53,14-.16,3.75,1,3.65,2.12,7.43,2.8,4.29.78,5.82-.36,9.87.72.79.21,6.16,1.64,6.21,3.63.06,2.48-8.1,5.15-15.15,5.92-7.39.8-9.31-1-15.21-.66-9.83.49-10.14,5.66-20.46,8.44-13.68,3.68-22.56-2.6-22.15-13.29" transform="translate(-342.1 -1832.73)"/>
                    <path class="cls-3" d="M486.14,2048.94a35.48,35.48,0,0,0,16.38,5.93c4.14.36,5.08-.38,9.45.1,8.11.9,9.91,4,16.38,5.52,8.51,2,20.09-.07,22.25-5.93,1.26-3.4-.72-8-3.59-9.9-4.8-3.2-12.78.55-15.64,1.89-1,.48-1,.53-1.65.8-4.17,1.65-7.09.1-13.14-1-7.57-1.33-13.56-.76-15.22,1.48a2.63,2.63,0,0,1-.83.81c-1.72,1-4-.69-6.15-1.3C492.68,2046.91,490,2046.82,486.14,2048.94Z" transform="translate(-342.1 -1832.73)"/>
                    <path class="cls-3" d="M634.29,2030.44a25.52,25.52,0,0,0,13.52,3.84c4.56-.08,7.14-1.57,10.27.11s2.29,4.29,5.68,6.64c3.58,2.48,9.16,2.78,12.74.55,2.54-1.58,2.23-3.3,4.56-4.06,2.9-1,4.08,1.47,8.61,1.73.35,0,6.81.31,9.9-3.59,1.24-1.56.84-2.4,2.09-3.26,2.34-1.61,4.76.63,7.82-.33,2.88-.9,5.43-4.37,5-6.93-.7-4.17-9.54-7.41-16.78-5.94-6.06,1.24-6.46,4.85-13.22,6-5.15.89-5.22-1.16-11.91-.54-6.49.59-7.6,2.62-14,2.72-4.2.07-4.81-.78-8.62-.91A31,31,0,0,0,634.29,2030.44Z" transform="translate(-342.1 -1832.73)"/>
                    <path class="cls-3" d="M724.39,2192.53a25.56,25.56,0,0,0,11.88,7.51c4.4,1.21,7.3.51,9.82,3s1,4.77,3.57,8c2.74,3.38,8,5.25,12.06,4.12,2.89-.8,3.08-2.53,5.53-2.6,3-.09,3.5,2.57,7.77,4.1.32.12,6.44,2.22,10.51-.64,1.63-1.15,1.49-2.07,2.93-2.54,2.7-.89,4.38,2,7.58,1.89,3-.05,6.45-2.66,6.77-5.23.51-4.2-7.06-9.81-14.42-10.44-6.16-.53-7.57,2.82-14.38,2-5.2-.6-4.68-2.58-11.28-3.89-6.38-1.26-8,.37-14.2-1.34-4-1.13-4.39-2.12-8-3.32C737.08,2192,731.81,2191.07,724.39,2192.53Z" transform="translate(-342.1 -1832.73)"/>
                    <path class="cls-3" d="M674.26,2118a25.55,25.55,0,0,1-13.52,3.84c-4.57-.08-7.15-1.57-10.28.11s-2.29,4.29-5.68,6.64c-3.58,2.48-9.15,2.78-12.73.55-2.54-1.59-2.24-3.3-4.57-4.06-2.9-1-4.08,1.47-8.61,1.73-.34,0-6.8.31-9.9-3.59-1.24-1.56-.84-2.4-2.09-3.26-2.34-1.61-4.75.63-7.81-.33-2.89-.9-5.44-4.37-5-6.93.7-4.17,9.55-7.41,16.79-5.94,6.06,1.24,6.46,4.85,13.21,6,5.16.89,5.22-1.16,11.92-.54,6.48.59,7.59,2.62,14,2.72,4.19.07,4.81-.78,8.62-.91C662.22,2113.9,667.55,2114.47,674.26,2118Z" transform="translate(-342.1 -1832.73)"/>
                    <path class="cls-2" d="M346.71,2212.62c3.74,0,4.42,3.07,5.35,4.11,7,7.87,22.14,8.46,34.82,4.79,9.55-2.77,9.84-7.94,18.95-8.43,5.46-.29,7.25,1.47,14.1.68,6.53-.77,14.08-3.43,14-5.91,0-2-5-3.43-5.75-3.64-3.76-1.08-5.17.06-9.14-.72-3.51-.69-3.42-1.77-6.89-2.8-4.66-1.38-5.6.34-12.95.14-6.71-.19-8.1-1.81-11.81-.29-2.68,1.11-3.73,2.59-6,4.18-4.9,3.35-1.79,3.27-15.2,3.45-11.86.16-7.66-3.48-19.46-3.36Z" transform="translate(-342.1 -1832.73)"/>
                    <path class="cls-2" d="M824.22,2154.27c-3.73,0-4.41,3.06-5.34,4.11-7,7.87-22.14,8.45-34.82,4.78-9.56-2.76-9.84-7.93-18.95-8.42-5.47-.29-7.25,1.47-14.1.67-6.53-.76-14.09-3.42-14-5.9,0-2,5-3.43,5.75-3.64,3.76-1.08,5.18.06,9.15-.72,3.51-.69,3.42-1.77,6.89-2.81,4.65-1.38,5.6.35,12.94.14,6.72-.18,8.11-1.8,11.81-.28,2.68,1.1,3.74,2.59,6.05,4.17,4.89,3.35,1.78,3.27,15.2,3.46,11.86.16,7.66-3.48,19.45-3.37Z" transform="translate(-342.1 -1832.73)"/>
                    <path class="cls-2" d="M490.38,2011.37a31.19,31.19,0,0,1-15.17,5.92c-3.84.36-4.71-.39-8.75.09-7.52.9-9.19,4-15.18,5.51-7.89,2-18.62-.08-20.63-5.94-1.17-3.41.66-8,3.32-9.9,4.45-3.2,11.85.55,14.5,1.9.95.48.89.53,1.53.8,3.86,1.65,6.57.11,12.17-1,7-1.32,12.57-.75,14.11,1.49a2.61,2.61,0,0,0,.77.82c1.59,1,3.69-.69,5.7-1.3C484.32,2009.34,486.77,2009.26,490.38,2011.37Z" transform="translate(-342.1 -1832.73)"/>
                    <path class="cls-2" d="M664.7,2091.61c5.23-3.25,9.5-3.9,12.53-3.83,4.23.09,6.62,1.58,9.52-.1s2.12-4.29,5.26-6.63c3.31-2.48,8.48-2.78,11.8-.54,2.35,1.58,2.07,3.3,4.23,4.06,2.69.95,3.78-1.47,8-1.73.32,0,6.31-.3,9.18,3.6,1.15,1.56.78,2.41,1.94,3.27,2.16,1.61,4.4-.63,7.24.33,2.67.91,5,4.38,4.64,6.94-.64,4.16-8.84,7.4-15.55,5.92-5.61-1.24-6-4.85-12.25-6-4.78-.9-4.83,1.15-11,.53-6-.6-7-2.63-13-2.74-3.88-.07-4.45.78-8,.91C675.86,2095.69,670.92,2095.12,664.7,2091.61Z" transform="translate(-342.1 -1832.73)"/>
                    <path class="cls-2" d="M481.42,2127.36c5.23-3.25,9.5-3.89,12.53-3.83,4.23.09,6.62,1.58,9.52-.1s2.12-4.29,5.26-6.63c3.31-2.48,8.48-2.78,11.8-.54,2.36,1.58,2.07,3.3,4.23,4.06,2.69.95,3.79-1.47,8-1.73.32,0,6.31-.3,9.18,3.6,1.15,1.56.78,2.41,1.94,3.27,2.17,1.61,4.41-.63,7.24.33,2.68.91,5,4.38,4.64,6.94-.64,4.17-8.83,7.4-15.55,5.92-5.61-1.24-6-4.85-12.25-6-4.77-.9-4.83,1.15-11,.53-6-.6-7-2.63-13-2.74-3.89-.07-4.46.78-8,.91C492.58,2131.44,487.64,2130.87,481.42,2127.36Z" transform="translate(-342.1 -1832.73)"/>
                    <path class="cls-2" d="M674.44,1978.52c.88,5.06,13.7,6.4,19.31,7,6.84.72,12.07,1.19,15.2-2,2.25-2.32,2-5.06,4.94-6.58,1.92-1,3-.32,7-.41,2.89-.06,7.52-.16,11.51-2.46,1.17-.68,6.22-3.59,6.16-7.81-.06-4-4.72-7.67-9-8.22-4.77-.61-6,3-14.38,5.75a35.51,35.51,0,0,1-14.8,2.06c-6.47-.6-8.05-2.88-12.32-1.65-3.26.95-5.35,3.15-8.22,6.17C676.05,1974.22,674.05,1976.32,674.44,1978.52Z" transform="translate(-342.1 -1832.73)"/>
                    <path class="cls-2" d="M585.26,1904.55c.89,5.06,13.71,6.4,19.32,7,6.84.72,12.06,1.19,15.2-2,2.25-2.32,2-5,4.93-6.58,1.93-1,3-.32,7-.41,2.88-.06,7.51-.16,11.5-2.46,1.18-.68,6.23-3.59,6.17-7.81-.06-4-4.72-7.67-9-8.22-4.78-.61-6,3-14.38,5.75a35.51,35.51,0,0,1-14.8,2.06c-6.47-.6-8.06-2.88-12.33-1.64-3.25.94-5.34,3.14-8.22,6.16C586.88,1900.25,584.88,1902.35,585.26,1904.55Z" transform="translate(-342.1 -1832.73)"/>
                    <path class="cls-2" d="M568.83,2078.79c.56,1.57,3.29.57,8.62,3.28,3.62,1.84,3.79,3,7,4.11,1.47.5,4.71,1.59,7.81.41s3-3.6,5.75-5.75c2.33-1.85,4.32-1.56,17.67-1.23,7,.17,10.22.18,14.38-.82a21.75,21.75,0,0,0,7.4-3.29c1.9-1.33,5-4,4.52-4.93-.64-1.22-6.16,2.7-13.56,2-6.4-.56-7.92-4-14.38-5.75-5.78-1.58-6.39,1-17.26,1.23-9.32.21-10.3-1.35-15.21,0C574,2070.18,567.91,2076.21,568.83,2078.79Z" transform="translate(-342.1 -1832.73)"/>
                    <path class="cls-2" d="M438.15,2168.78c.56,1.58,3.3.57,8.63,3.29,3.61,1.84,3.78,3,7,4.11,1.47.49,4.71,1.58,7.81.41s3.05-3.61,5.75-5.76c2.33-1.84,4.32-1.56,17.67-1.23,7,.18,10.23.19,14.39-.82a21.52,21.52,0,0,0,7.39-3.29c1.9-1.33,5-4,4.52-4.93-.64-1.22-6.16,2.7-13.56,2.06-6.4-.57-7.92-4-14.38-5.76-5.78-1.57-6.38,1-17.26,1.24-9.32.21-10.3-1.35-15.2,0C443.33,2160.17,437.23,2166.2,438.15,2168.78Z" transform="translate(-342.1 -1832.73)"/>
                    <path class="cls-2" d="M557.76,1941.09c-3,1.77-6,1.92-8.79,2.06a33.43,33.43,0,0,1-12.27-2c-8.86-3-9.81-6.3-13.8-5.47-4.18.87-4.88,4.9-9.22,4.93-3.17,0-4.13-2.1-6.42-1.51-4.07,1.05-4.41,8.71-5.61,8.6-1.51-.13-5-12.61,1-19,5.39-5.69,15.7-3.75,20.2-2.9,8.3,1.57,9.72,4.84,15.06,4.13,6.43-.84,7.29-5.4,14.39-6.37,4-.55,10.67,0,12.58,3.81C567,1931.6,562.61,1938.26,557.76,1941.09Z" transform="translate(-342.1 -1832.73)"/>
                    <path class="cls-2" d="M739.36,2059.47c1.09,4.16,8.58,5.28,9,5.34a15,15,0,0,0,9-1.64c4.29-2.38,3.84-5.19,7.4-6.16,2.66-.73,3.25.73,7.81,0,3.46-.57,4.91-1.7,5.34-2.06,1.56-1.3,1.26-2.08,2.47-2.88,2.92-1.92,7.07,1.07,7.8,0,.61-.87-1.3-4.22-4.52-5.75-1.87-.89-3.63-.89-11.5.41s-7.5,1.52-9.86,1.65c-6.61.34-7.51-1.57-11.51-.83C744.55,2048.73,738.22,2055.09,739.36,2059.47Z" transform="translate(-342.1 -1832.73)"/>
                    <path class="cls-2" d="M669.56,2151.63c1.19-4.13,8.7-5.06,9.17-5.11a15,15,0,0,1,9,1.88c4.22,2.48,3.69,5.28,7.23,6.35,2.64.8,3.27-.65,7.81.2,3.44.65,4.87,1.83,5.29,2.2,1.52,1.34,1.19,2.11,2.39,2.94,2.87,2,7.09-.88,7.8.2.58.89-1.42,4.19-4.67,5.63-1.9.84-3.65.8-11.49-.71s-7.45-1.71-9.82-1.9c-6.59-.51-7.54,1.37-11.52.53C674.47,2162.5,668.3,2156,669.56,2151.63Z" transform="translate(-342.1 -1832.73)"/>
                    <path class="cls-2" d="M425.09,2112.62c.88-4.21-5.33-8.54-5.72-8.81a14.93,14.93,0,0,0-8.83-2.55c-4.89.22-5.73,2.93-9.36,2.22-2.71-.53-2.58-2.11-7-3.47-3.35-1-5.16-.67-5.7-.54-2,.47-2.05,1.3-3.49,1.47-3.47.42-5.86-4.1-7-3.47-.93.51-.71,4.37,1.48,7.16,1.29,1.64,2.86,2.42,10.49,4.76s7.39,2,9.56,2.92c6.07,2.63,6,4.74,9.94,5.86C415.66,2119.93,424.16,2117.05,425.09,2112.62Z" transform="translate(-342.1 -1832.73)"/>
                    <path class="cls-2" d="M425.09,2112.62c.88-4.21-5.33-8.54-5.72-8.81a14.93,14.93,0,0,0-8.83-2.55c-4.89.22-5.73,2.93-9.36,2.22-2.71-.53-2.58-2.11-7-3.47-3.35-1-5.16-.67-5.7-.54-2,.47-2.05,1.3-3.49,1.47-3.47.42-5.86-4.1-7-3.47-.93.51-.71,4.37,1.48,7.16,1.29,1.64,2.86,2.42,10.49,4.76s7.39,2,9.56,2.92c6.07,2.63,6,4.74,9.94,5.86C415.66,2119.93,424.16,2117.05,425.09,2112.62Z" transform="translate(-342.1 -1832.73)"/>
                    <polyline class="cls-4" points="11.81 122.86 4 126.14 4 450.37 12.63 442.15"/>
                    <path class="cls-5" d="M824,2283.51" transform="translate(-342.1 -1832.73)"/>
                    <polyline class="cls-5" points="478.63 141.76 481.92 148.33 481.92 445.85 478.22 435.58"/>
                </g>
            </g>
        </g>
    </g>
</svg>