<svg id="CONTENT" xmlns="http://www.w3.org/2000/svg" viewBox="0 0 481.14 437.79"><defs><style>.cls-1{fill:none;stroke-width:2px;}.cls-1,.cls-2,.cls-3{stroke:#fff;stroke-miterlimit:10;}.cls-2,.cls-3{fill:#fff;}.cls-2{stroke-width:5px;}.cls-3{stroke-width:0.75px;}</style></defs><g id="SMALL"><g id="FIRE_SMALL"><g id="JUNCTION_FIRE_SMALL"><g id="BOTTOM"><g id="FOND"><path id="FOND-2" data-name="FOND" d="M825.47,2025.5c-31.91,0-21.52-19.86-29.69-22.46-9.95-3.17-18.38-3.82-25.92-9-10.66-7.28-9.61-31.81-16.73-31.94-6.73-.12-4.55-3.32-8.61-5.74-2-1.2-3.94-3.94-7.78-9.42-2.62-3.73-3.4-5.35-5.74-6.56-2.64-1.36-4.22-.61-7-1.23-3.56-.79-5.65-3.1-10.24-8.6-10.6-12.7-10.67-13.85-13.52-15.57-4.33-2.62-6.4-1.35-15.57-2.46-5.76-.7-25.17-3.28-39.75-16.39-4.46-4-3.62-4.65-6.56-7-8.36-6.62-23.7-8.19-52.45,4.1-20.58,20.39-30.87,22.52-36.46,20.08-2.69-1.17-5-3.68-9.43-4.1-5.61-.52-12.54,2.12-16,7.38-2.64,4-1.25,6.61-3.69,9-3.42,3.38-8.86.91-16,.41-9.8-.68-6.28,8.86-11.59,13.79a11.71,11.71,0,0,1-6,2.6c-13,3.08-17,24.45-32.37,32.78-10.83,5.89-13.56-2.21-28.68,3.69-15.85,6.18-14.94,15.9-28.68,19.26-11.26,2.75-16.24-6-29.92-.41-8.09,3.27-6.71,3.27-22.66,3.27v20c-.5,104.51.6,190.51,0,295.15h23.67a20.63,20.63,0,0,0,7.61-1.45c6.51-2.56,13.76-5.31,19.25-1.41,2.26,1.61,2.83,3,4.91,4.92,3.9,3.48,12.62.85,26.64-1.23,4.45,0,18.08,5,30.32-6.56a43.73,43.73,0,0,0,9.83-13.93c2.38-18,8.6-24.88,13.94-27.86s9.52-1.73,23.76-5.74a137.67,137.67,0,0,0,16.39-5.73c14.67-6.72,14.85-17.76,28.69-29.51,7.93-6.73,15.37-9.82,21.3-12.29,27.94-11.62,70.41-11.91,87.69,8.2,3.27,3.8,6.31,9.12,13.93,13.93,9.31,5.87,12.76,3,22.13,8.19,10.77,6,17.28,16,21.31,22.13,5.5,8.42,4.75,10.6,9,13.93,6.51,5.09,13.76,4.33,24.59,4.51,3.24.05,24.51.4,36.88,4.1,8.9,2.66,13.45,21.81,32.4,21.81h6.75" transform="translate(-344.34 -1883.11)"/><path id="CONTOUR_BAS" data-name="CONTOUR BAS" class="cls-1" d="M344.47,2316.14h23.67a20.63,20.63,0,0,0,7.61-1.45c6.51-2.56,13.76-5.31,19.25-1.41,2.26,1.61,2.83,3,4.91,4.92,3.9,3.48,12.62.85,26.64-1.23,4.45,0,18.08,5,30.32-6.56a43.73,43.73,0,0,0,9.83-13.93c2.38-18,8.6-24.88,13.94-27.86s9.52-1.73,23.76-5.74a137.67,137.67,0,0,0,16.39-5.73c14.67-6.72,14.85-17.76,28.69-29.51,7.93-6.73,15.37-9.82,21.3-12.29,27.94-11.62,70.41-11.91,87.69,8.2,3.27,3.8,6.31,9.12,13.93,13.93,9.31,5.87,12.76,3,22.13,8.19,10.77,6,17.28,16,21.31,22.13,5.5,8.42,4.75,10.6,9,13.93,6.51,5.09,13.76,4.33,24.59,4.51,3.24.05,24.51.4,36.88,4.1,8.9,2.66,13.45,21.81,32.4,21.81h6.76" transform="translate(-344.34 -1883.11)"/><path id="CONTOUR_HAUT" data-name="CONTOUR HAUT" class="cls-1" d="M825.48,2025.5c-31.91,0-21.53-19.86-29.7-22.46-9.95-3.17-18.38-3.82-25.92-9-10.66-7.28-9.61-31.81-16.73-31.94-6.73-.12-4.55-3.32-8.61-5.74-2-1.2-3.94-3.94-7.78-9.42-2.62-3.73-3.4-5.35-5.74-6.56-2.64-1.36-4.22-.61-7-1.23-3.56-.79-5.65-3.1-10.24-8.6-10.6-12.7-10.67-13.85-13.52-15.57-4.33-2.62-6.4-1.35-15.57-2.46-5.76-.7-25.17-3.28-39.75-16.39-4.46-4-3.62-4.65-6.56-7-8.36-6.62-23.7-8.19-52.45,4.1-20.58,20.39-30.87,22.52-36.46,20.08-2.69-1.17-5-3.68-9.43-4.1-5.61-.52-12.54,2.12-16,7.38-2.64,4-1.25,6.61-3.69,9-3.42,3.38-8.86.91-16,.41-9.8-.68-6.28,8.86-11.59,13.79a11.71,11.71,0,0,1-6,2.6c-13,3.08-17,24.45-32.37,32.78-10.83,5.89-13.56-2.21-28.68,3.69-15.85,6.18-14.94,15.9-28.68,19.26-11.26,2.75-16.24-6-29.92-.41-8.09,3.27-6.71,3.27-22.66,3.27" transform="translate(-344.34 -1883.11)"/></g><g id="WHITE_MARK"><path class="cls-2" d="M622.63,1984a25.51,25.51,0,0,0,13.52,3.69c4.55-.14,7.11-1.65,10.25,0s2.33,4.25,5.73,6.55c3.6,2.43,9.16,2.68,12.71.41,2.51-1.6,2.19-3.31,4.5-4.09,2.88-1,4.09,1.42,8.61,1.63.34,0,6.79.24,9.83-3.68,1.22-1.57.81-2.41,2.05-3.28,2.31-1.63,4.75.58,7.79-.41,2.86-.93,5.37-4.42,4.91-7-.74-4.14-9.59-7.28-16.8-5.73-6,1.29-6.38,4.9-13.11,6.14-5.13,1-5.21-1.09-11.88-.41-6.46.67-7.55,2.7-13.93,2.87-4.18.11-4.8-.73-8.61-.82C634.59,1979.83,629.28,1980.45,622.63,1984Z" transform="translate(-344.34 -1883.11)"/><path class="cls-2" d="M649.27,2038.51c.11,4.17-13.39,10.66-26.23,9.83-6-.38-8.43-2.14-12.7-.41-6.08,2.47-5.22,7.69-11.88,11.89s-14.48,3.22-17.21,2.86a30.09,30.09,0,0,1-13.53-5.32c-6.5-4.69-5.24-8-10.24-10.66-6.47-3.47-10.9.79-19.26-1.23-7.76-1.87-7.72-9.38-14.75-10.24-4.75-.58-7.79,1.92-9,.41-1.4-1.73.72-7.35,4.91-10.24,5.71-3.94,10,.77,20.9-2.05,6-1.57,6.1-3.39,11.88-4.1,5.56-.69,7.1.79,12.3-.41,5.81-1.34,6-3.68,9.83-3.69,5.47,0,6.08,4.68,12.29,6.15,7.09,1.67,9.4-3.72,16.39-2,5.3,1.26,5,4.61,11.89,7.78,5.36,2.48,7.48,1.35,15.16,2.87C631.57,2030.21,649.13,2033.79,649.27,2038.51Z" transform="translate(-344.34 -1883.11)"/><path class="cls-3" d="M804,2140.68a10.31,10.31,0,0,0-16.67-4c-3.73,3.45-7.34,7-10.36,9-7.77,5.21-15.87,3.65-17.35,8.46-.52,1.69-.13,3.87,1,4.48,1.52.85,3.49-1.88,7.36-2.58,2.67-.48,4.7.29,7.08,1.07,7.21,2.37,12.25,4,16.25,4,4.77-.09,4.15-2.8,9.28-6.08a10.29,10.29,0,0,0,4.2-12.24Z" transform="translate(-344.34 -1883.11)"/><path class="cls-3" d="M365.06,2213.69a14.52,14.52,0,0,1,20-13.43,54.21,54.21,0,0,0,7.15,2.49c9.09,2.2,16.15-2.06,19.2,1.94,1.07,1.4,1.47,3.59.65,4.53-1.13,1.32-3.93-.56-7.79.12-2.68.48-4.32,1.9-6.28,3.46-5.95,4.72-10.1,8-13.88,9.33-6,2.09-4.68-3.5-19-3.09Z" transform="translate(-344.34 -1883.11)"/><path class="cls-3" d="M373.69,2041.8a11.47,11.47,0,0,0,19.22,6.5c3.33-3.16,6.25-6.65,8.64-8.08,3.14-1.88,5-1.59,9.91-2.59,12.73-2.6,25.06-10.29,24.3-14-.36-1.71-3.46-2.4-5.4-2.83-6-1.33-8.56,1.34-15.48,2.36-9.6,1.41-13.1-2.5-19.25.18a4.59,4.59,0,0,0-1.3.94c-1.66,1.51-18.47-1.08-21.75,10.63Z" transform="translate(-344.34 -1883.11)"/><path class="cls-3" d="M811.49,2058.37c-6-.08-11.25-.21-16.35-3.45-2.49-1.58-3.63-3.07-6.51-4.17-4-1.52-5.49.1-12.71.27-7.9.2-8.92-1.52-13.93-.14-3.73,1-3.63,2.1-7.41,2.78-4.27.78-5.8-.36-9.84.72-.79.21-6.14,1.63-6.19,3.62-.06,2.47,8.08,5.13,15.1,5.9,7.38.8,9.29-1,15.17-.66,9.81.49,10.12,5.65,20.4,8.42,13.65,3.66,22.5-2.59,22.09-13.25" transform="translate(-344.34 -1883.11)"/><path class="cls-3" d="M439,2097.71c-6-.08-11.25-.22-16.35-3.45-2.49-1.58-3.63-3.07-6.51-4.17-4-1.53-5.49.09-12.71.27-7.9.2-8.92-1.52-13.93-.15-3.73,1-3.63,2.11-7.41,2.79-4.27.77-5.8-.36-9.84.71-.79.21-6.14,1.64-6.19,3.63-.06,2.47,8.08,5.13,15.1,5.9,7.38.8,9.29-1,15.17-.66,9.81.49,10.12,5.65,20.4,8.41,13.65,3.67,22.5-2.59,22.09-13.24" transform="translate(-344.34 -1883.11)"/><path class="cls-3" d="M446.81,2133.36c6-.08,11.25-.22,16.35-3.45,2.49-1.59,3.63-3.07,6.51-4.17,4-1.53,5.48.09,12.71.27,7.9.2,8.92-1.52,13.93-.15,3.73,1,3.63,2.11,7.41,2.79,4.27.77,5.79-.36,9.84.71.79.21,6.13,1.64,6.18,3.62.06,2.48-8.07,5.14-15.1,5.9-7.37.81-9.29-1-15.16-.65-9.81.49-10.12,5.65-20.4,8.41-13.65,3.67-22.5-2.59-22.09-13.24" transform="translate(-344.34 -1883.11)"/><path class="cls-3" d="M487.31,2097.21a35.41,35.41,0,0,0,16.33,5.91c4.13.36,5.07-.38,9.42.1,8.09.9,9.89,4,16.34,5.5,8.49,2,20-.07,22.19-5.91,1.25-3.39-.72-8-3.59-9.87-4.78-3.19-12.74.54-15.59,1.88-1,.49-1,.53-1.64.8-4.16,1.65-7.08.1-13.11-1-7.54-1.32-13.52-.75-15.18,1.48a2.57,2.57,0,0,1-.82.81c-1.71,1-4-.69-6.14-1.29C493.83,2095.18,491.2,2095.1,487.31,2097.21Z" transform="translate(-344.34 -1883.11)"/><path class="cls-3" d="M635,2078.76a25.47,25.47,0,0,0,13.48,3.83c4.55-.08,7.13-1.57,10.25.11s2.28,4.28,5.66,6.62c3.57,2.47,9.13,2.77,12.7.55,2.53-1.58,2.23-3.29,4.55-4,2.89-1,4.07,1.47,8.59,1.73.34,0,6.79.31,9.87-3.58,1.24-1.56.84-2.4,2.09-3.26,2.33-1.6,4.74.63,7.79-.32,2.87-.9,5.42-4.36,5-6.92-.7-4.15-9.52-7.38-16.74-5.91-6,1.23-6.44,4.83-13.18,6-5.14.9-5.2-1.15-11.88-.54-6.46.6-7.57,2.62-14,2.72-4.18.07-4.79-.78-8.59-.91C647,2074.71,641.72,2075.27,635,2078.76Z" transform="translate(-344.34 -1883.11)"/><path class="cls-3" d="M724.88,2240.39a25.62,25.62,0,0,0,11.84,7.49c4.39,1.2,7.28.5,9.8,3s1,4.75,3.56,7.95c2.72,3.38,8,5.24,12,4.12,2.88-.8,3.07-2.53,5.51-2.6,3-.09,3.49,2.56,7.75,4.09.32.12,6.42,2.21,10.48-.64,1.63-1.15,1.48-2.07,2.92-2.54,2.69-.88,4.37,1.95,7.57,1.89,3-.05,6.43-2.65,6.74-5.22.51-4.18-7-9.77-14.38-10.4-6.14-.53-7.54,2.81-14.34,2-5.18-.6-4.66-2.58-11.24-3.88-6.37-1.26-8,.37-14.16-1.34-4-1.12-4.38-2.11-8-3.31A31,31,0,0,0,724.88,2240.39Z" transform="translate(-344.34 -1883.11)"/><path class="cls-3" d="M674.89,2166a25.47,25.47,0,0,1-13.48,3.83c-4.55-.09-7.13-1.57-10.25.11s-2.28,4.28-5.66,6.62c-3.57,2.47-9.13,2.77-12.7.55-2.53-1.58-2.23-3.29-4.55-4.05-2.89-.95-4.07,1.47-8.59,1.73-.34,0-6.78.31-9.87-3.58-1.23-1.56-.84-2.4-2.08-3.26-2.33-1.6-4.75.63-7.79-.32-2.88-.91-5.42-4.37-5-6.92.7-4.15,9.52-7.39,16.74-5.91,6,1.23,6.44,4.83,13.18,6,5.14.89,5.2-1.15,11.88-.54,6.46.6,7.57,2.62,14,2.72,4.18.07,4.79-.78,8.59-.91C662.88,2162,668.2,2162.55,674.89,2166Z" transform="translate(-344.34 -1883.11)"/><path class="cls-2" d="M358.46,2276.42c3.72,0,4.42,3,5.35,4.1,7,7.84,22.07,8.42,34.72,4.77,9.53-2.76,9.81-7.92,18.9-8.4,5.45-.29,7.22,1.46,14.06.66,6.5-.75,14-3.41,14-5.88,0-2-5-3.42-5.73-3.63-3.75-1.08-5.16.06-9.12-.72-3.5-.69-3.41-1.77-6.87-2.79-4.64-1.38-5.59.34-12.91.13-6.69-.18-8.08-1.8-11.77-.28-2.68,1.1-3.73,2.58-6,4.16-4.87,3.34-1.77,3.26-15.15,3.44-7.22.1-8.47-1.21-11-2.22a6.13,6.13,0,0,0-8.39,5.7Z" transform="translate(-344.34 -1883.11)"/><path class="cls-2" d="M815,2209.74a4.28,4.28,0,0,1-3.16,3.17c-2,.44-3,2.15-3.85,2.74-8.69,5.87-23.48,2.69-34.82-4-8.55-5-7.54-10.1-16.23-12.82-5.2-1.63-7.36-.37-13.78-2.83-6.12-2.35-12.76-6.8-12.09-9.17.53-1.92,5.69-2.07,6.45-2.1,3.9-.11,5,1.34,9,1.57,3.56.2,3.73-.87,7.34-1,4.84-.18,5.33,1.71,12.47,3.33,6.53,1.48,8.28.26,11.48,2.65,2.32,1.73,3,3.42,4.81,5.53,3.9,4.44.92,3.59,13.83,7.08,9.46,2.56,8.91-.12,14.91.6a4.24,4.24,0,0,1,3.62,5.25Z" transform="translate(-344.34 -1883.11)"/><path class="cls-2" d="M491.54,2059.75a31.19,31.19,0,0,1-15.12,5.9c-3.83.36-4.7-.39-8.74.09-7.49.89-9.16,4-15.13,5.49-7.87,2-18.57-.08-20.57-5.92-1.16-3.4.66-8,3.31-9.87,4.43-3.19,11.81.55,14.45,1.89,1,.48.89.53,1.53.8,3.86,1.65,6.56.11,12.14-1,7-1.31,12.54-.74,14.07,1.49a2.5,2.5,0,0,0,.77.81c1.59,1,3.68-.69,5.68-1.29C485.5,2057.72,487.94,2057.64,491.54,2059.75Z" transform="translate(-344.34 -1883.11)"/><path class="cls-2" d="M665.36,2139.76c5.21-3.24,9.47-3.89,12.49-3.82,4.22.09,6.6,1.58,9.49-.11s2.12-4.27,5.25-6.61c3.3-2.46,8.46-2.76,11.76-.53,2.35,1.58,2.07,3.29,4.23,4,2.68,1,3.77-1.47,7.95-1.73.32,0,6.29-.3,9.15,3.59,1.15,1.56.78,2.4,1.94,3.26,2.16,1.61,4.39-.62,7.22.33,2.66.91,5,4.37,4.63,6.92-.64,4.15-8.82,7.38-15.51,5.9-5.6-1.23-6-4.84-12.21-6-4.77-.9-4.83,1.14-11,.53-6-.6-7-2.63-12.94-2.73-3.88-.07-4.44.77-8,.9C676.49,2143.82,671.56,2143.25,665.36,2139.76Z" transform="translate(-344.34 -1883.11)"/><path class="cls-2" d="M482.61,2175.41c5.21-3.24,9.46-3.89,12.49-3.82,4.21.09,6.6,1.57,9.49-.11s2.11-4.27,5.25-6.61c3.3-2.47,8.45-2.76,11.76-.54,2.35,1.59,2.07,3.29,4.22,4.06,2.68.94,3.77-1.47,8-1.73.32,0,6.29-.3,9.15,3.59,1.15,1.56.78,2.4,1.94,3.26,2.16,1.61,4.39-.63,7.21.33,2.67.9,5,4.37,4.64,6.92-.65,4.15-8.82,7.38-15.51,5.9-5.6-1.23-6-4.84-12.22-6-4.76-.9-4.82,1.14-11,.52-6-.59-7-2.62-12.94-2.73-3.88-.07-4.45.78-8,.91C493.74,2179.47,488.81,2178.9,482.61,2175.41Z" transform="translate(-344.34 -1883.11)"/><path class="cls-2" d="M675.07,2027c.88,5,13.66,6.38,19.26,7,6.82.71,12,1.18,15.16-2,2.24-2.31,2-5,4.91-6.55,1.92-1,3-.33,7-.41,2.88-.07,7.49-.17,11.47-2.46,1.17-.68,6.21-3.58,6.15-7.79-.06-4-4.71-7.64-9-8.19-4.76-.61-6,3-14.34,5.74a35.51,35.51,0,0,1-14.75,2c-6.45-.59-8-2.87-12.29-1.63-3.24.93-5.33,3.13-8.2,6.14C676.68,2022.7,674.68,2024.8,675.07,2027Z" transform="translate(-344.34 -1883.11)"/><path class="cls-2" d="M586.15,1953.23c.88,5,13.66,6.38,19.26,7,6.82.71,12,1.18,15.16-2,2.24-2.32,2-5,4.92-6.56,1.92-1,3-.32,7-.41,2.88-.06,7.5-.16,11.47-2.46,1.18-.67,6.21-3.58,6.15-7.78-.06-4-4.71-7.65-9-8.2-4.77-.6-6,3-14.34,5.74a35.7,35.7,0,0,1-14.76,2c-6.45-.6-8-2.87-12.29-1.64-3.24.94-5.33,3.13-8.19,6.15C587.76,1948.94,585.77,1951,586.15,1953.23Z" transform="translate(-344.34 -1883.11)"/><path class="cls-2" d="M569.76,2127c.56,1.57,3.29.57,8.6,3.28,3.61,1.83,3.78,3,7,4.09,1.46.5,4.69,1.58,7.78.41s3-3.59,5.74-5.73c2.32-1.85,4.31-1.56,17.62-1.23,7,.17,10.19.18,14.34-.82a21.62,21.62,0,0,0,7.38-3.28c1.89-1.33,5-4,4.51-4.92-.65-1.21-6.15,2.7-13.53,2.05-6.38-.56-7.89-4-14.34-5.74-5.76-1.56-6.36,1-17.21,1.23-9.29.22-10.27-1.34-15.16,0C574.92,2118.38,568.84,2124.4,569.76,2127Z" transform="translate(-344.34 -1883.11)"/><path class="cls-2" d="M439.46,2216.7c.56,1.58,3.28.57,8.6,3.28,3.6,1.84,3.78,3,7,4.1,1.46.49,4.69,1.58,7.78.41s3-3.6,5.74-5.74c2.32-1.84,4.31-1.55,17.62-1.23,7,.18,10.19.19,14.34-.82a21.62,21.62,0,0,0,7.38-3.27c1.89-1.33,5-4,4.5-4.92-.64-1.21-6.15,2.69-13.52,2-6.38-.56-7.9-4-14.34-5.74-5.76-1.57-6.37,1-17.21,1.23-9.29.21-10.28-1.34-15.16,0C444.62,2208.12,438.54,2214.13,439.46,2216.7Z" transform="translate(-344.34 -1883.11)"/><path class="cls-2" d="M558.72,1989.67c-3,1.76-6,1.91-8.76,2a33.41,33.41,0,0,1-12.24-2c-8.83-3-9.77-6.29-13.76-5.46-4.17.87-4.87,4.88-9.19,4.92-3.16,0-4.12-2.1-6.4-1.51-4.06,1-4.39,8.69-5.59,8.58-1.51-.13-5-12.58,1-19,5.38-5.67,15.66-3.74,20.14-2.89,8.28,1.56,9.7,4.82,15,4.12,6.42-.84,7.27-5.38,14.35-6.35,4-.55,10.64,0,12.54,3.8C568,1980.21,563.56,1986.84,558.72,1989.67Z" transform="translate(-344.34 -1883.11)"/><path class="cls-2" d="M739.81,2107.71c1.08,4.14,8.55,5.26,9,5.33a15,15,0,0,0,9-1.64c4.27-2.37,3.82-5.17,7.37-6.15,2.65-.73,3.24.74,7.79,0,3.45-.56,4.9-1.69,5.33-2.05,1.55-1.3,1.25-2.07,2.45-2.87,2.92-1.91,7.06,1.06,7.79,0,.6-.87-1.3-4.21-4.51-5.73-1.87-.89-3.62-.89-11.47.41s-7.47,1.51-9.84,1.64c-6.58.34-7.48-1.56-11.47-.82C745,2097,738.67,2103.34,739.81,2107.71Z" transform="translate(-344.34 -1883.11)"/><path class="cls-2" d="M670.2,2199.6c1.19-4.11,8.68-5,9.15-5.09a14.86,14.86,0,0,1,9,1.87c4.21,2.48,3.69,5.27,7.21,6.34,2.64.79,3.26-.66,7.79.2,3.43.65,4.85,1.82,5.27,2.18,1.52,1.34,1.2,2.11,2.38,2.94,2.87,2,7.08-.88,7.79.2.58.89-1.42,4.18-4.66,5.61-1.89.84-3.64.8-11.46-.7s-7.43-1.71-9.79-1.9c-6.57-.51-7.52,1.37-11.49.53C675.1,2210.45,669,2203.94,670.2,2199.6Z" transform="translate(-344.34 -1883.11)"/><path class="cls-2" d="M426.43,2160.7c.88-4.19-5.31-8.51-5.7-8.78a14.91,14.91,0,0,0-8.8-2.55c-4.88.22-5.72,2.93-9.34,2.22-2.7-.52-2.57-2.1-7-3.46-3.34-1-5.14-.67-5.68-.54-2,.47-2.05,1.3-3.48,1.47-3.46.42-5.84-4.08-7-3.46-.93.51-.71,4.35,1.48,7.14,1.28,1.63,2.85,2.41,10.46,4.74s7.36,2,9.53,2.91c6.05,2.63,6,4.73,9.91,5.85C417,2168,425.51,2165.13,426.43,2160.7Z" transform="translate(-344.34 -1883.11)"/></g></g></g></g></g></svg>