<svg id="CONTENT" xmlns="http://www.w3.org/2000/svg" viewBox="0 0 1027.37 1770.62"><defs><style>.cls-1,.cls-2{stroke:#fff;stroke-miterlimit:10;}.cls-1{stroke-width:5px;}</style></defs><g id="MEDIUM"><g id="NEVERCATCH_MEDIUM"><g id="JUNCTION_NEVERCATCH_MEDIUM"><g id="I_JUNCTION_HAUT" data-name="I JUNCTION HAUT"><g id="Falaise_Droite_Haut" data-name="Falaise Droite Haut"><path class="cls-1" d="M943.21,353.6V339.26s4-29.7,6.63-36.73S937,285.41,937,285.41V260.24l3.14-19.16L937,216.35l-3.88-23.41,11.93-41-8.05-14-3.88-22.83V98.85l1.75-21.07,14.93-18.44-6.63-15.65L945.09-2l5.63-39.65-7.51-27.66L939.3-89l5.79-60.14v-20.19L959.5-204l22-5.27,9.65-12.29,21.95-12.29,28.1-16.68,13.6-32.95,34.68,24.91V224.7" transform="translate(-64.57 287.39)"/><polyline class="cls-1" points="863.32 743.12 863.44 711.52 872.48 695.52 875.62 681.23 872.48 648.31 886.15 632.06 897.56 613.63 909.71 613.63 923.02 588.17 928.29 583.92 952.34 570.66 956.39 553.93 971.31 511.79 982.73 485.45 1000.28 481.06 1017.84 484.57 1024.87 472.14 1024.87 615.68"/><polyline class="cls-1" points="827.33 842.77 831.72 798.87 840.06 785.26 844.01 758.49 858.5 738.89 880.52 730.83 893.17 709.32 922.15 693.52 952.34 650.82 969.56 638.21 1000.43 629.84 1017.84 610.12 1024.87 600.32 1024.87 885.21"/></g><g id="Falaise_Gauche_Haut" data-name="Falaise Gauche Haut"><path class="cls-1" d="M222.9,303.41l8-27.2a9.92,9.92,0,0,0,.15-5.35L225.54,249l-1.62-42.49L228,166a8.82,8.82,0,0,0-.63-4.25l-15.57-37.7-12.61-18.74a4.92,4.92,0,0,1-.85-2.68l-.81-41.14a9.14,9.14,0,0,1,.9-4.12l15.23-31.8a10.74,10.74,0,0,0,1-4.63V-22.22a4.79,4.79,0,0,0-.27-1.59l-5.06-14.74a14.92,14.92,0,0,1-.45-8L214.5-72l-1.87-17.42a13.5,13.5,0,0,0-3.32-7.51l-8.19-9.28a17.27,17.27,0,0,1-3-4.87l-9-22.28A9.2,9.2,0,0,0,184.8-138l-14.13-7.37a12.92,12.92,0,0,1-4.94-4.54l-9.92-15.59a12.19,12.19,0,0,0-7.63-5.35l-16-3.55a11.85,11.85,0,0,1-8-6.16l-19.15-37.22a20,20,0,0,0-10-9.28l-27.54-12.1V191.47" transform="translate(-64.57 287.39)"/><polyline class="cls-1" points="157.95 629.84 147.6 626.06 129.8 621.97 107.85 607.92 91.47 592.27 76.69 581.58 45.52 571.92 28.25 592.27 2.94 604.41"/><path class="cls-1" d="M294,556.26l-25.46-56.19L267,464.84a6,6,0,0,0-3.15-5l-2.52-1.34a6.38,6.38,0,0,1-3.28-6.74l2.37-13.3a7.13,7.13,0,0,0-.15-3.18l-4.83-17.74-7.53-36a9.57,9.57,0,0,0-1.39-3.31l-23.95-35.82a6.9,6.9,0,0,1-1.13-4.44l2.45-27.15a5.55,5.55,0,0,0-.11-1.72L217,278a7.17,7.17,0,0,0-11.33-4.22l-2.48,1.86a3.3,3.3,0,0,1-4.92-1.13l-16.46-32.18a6.06,6.06,0,0,0-3.26-2.9l-25.87-9.6a6.72,6.72,0,0,0-5.24.23l-12.73,6.06a5.71,5.71,0,0,1-5.91-.6l-27.9-21.12a7.26,7.26,0,0,1-2.52-3.51l-7.69-23.07a5.63,5.63,0,0,0-1.18-2l-20.27-22-1.75-1.76V575.13" transform="translate(-64.57 287.39)"/><polyline class="cls-1" points="205.17 790.03 187.05 787.02 180.28 784.83 170.63 780.44 164.48 771.66 151.31 764.63 143.41 759.37 131.12 747.07 121.02 738.67 113.12 737.56 100.39 747.95 83.93 759.51 73.17 755.85 56.49 751.46 47.71 754.98 31.03 769.02 14.35 776.92 2.94 775.48"/></g><g id="Socle"><path class="cls-1" d="M141.25,1162.92c14.82-.31,31.73,0,38.63,2.63,17.07,6.47,20.56,14.63,34.24,14.93,9.46.2,11.6-3.62,24.59-3.52,11.57.1,14,3.16,21.07,3.52,25.9,1.3,37-38.29,59.7-36,11.4,1.15,12.94,11.61,22.82,10.54,15.84-1.72,16-29,32.49-33.37,13-3.4,18.55,12,49.16,22.83,14.94,5.27,23.13,4.12,36,.88,27.52-6.94,32-34.3,51.8-35.12,11.11-.46,18.43-14,50,29.85,9.2,12.78,16.85,7.92,19.31,7.9,20.18-.11,17.27-20,43.9-19.31,12.73.31,15.51,9.43,29,9.66,13.74.23,18.43-15.82,29.85-14,8.3,1.29,7.79,10.06,21.95,22.82,11.21,10.11,22.72,14.71,29.85,17.56,11.1,4.44,17.89,7.15,27.22,7,20.78-.29,37.32-14.44,43-19.32,10.16-8.7,10.88-13.33,17.56-14.92,11.34-2.71,51.65,25.69,60.57,35.12" transform="translate(-64.57 287.39)"/><path class="cls-1" d="M211.49,1228.76c32.48-21.07,65.13-3.43,79.89-12.29,21.95-13.17,25.53-9.65,38.63-15.8,31.34-14.71,32.54-34.56,53.56-36.87,20.11-2.22,27.29,15,47.4,13.16,18.54-1.72,29.69-20.88,38.63-35.11" transform="translate(-64.57 287.39)"/><path class="cls-1" d="M585.49,1148.87,598,1164.24a9.82,9.82,0,0,0,14.08,1.22l7.25-6.3a11.63,11.63,0,0,1,11.8-2.08l39.22,15.06,50.79,28.61a11.56,11.56,0,0,0,10.77.31l34.37-16.88a19.64,19.64,0,0,1,15.31-.85l18.31,6.6a9.5,9.5,0,0,0,8.85-1.29L829.86,1173a12.75,12.75,0,0,1,14.59-.37l11,7.25" transform="translate(-64.57 287.39)"/><path class="cls-1" d="M67.51,1353" transform="translate(-64.57 287.39)"/><line class="cls-1" x1="1024.87" y1="1510.31" x2="1024.87" y2="1411.98"/><line class="cls-1" x1="2.94" y1="1439.77" x2="2.94" y2="1524.49"/><path class="cls-1" d="M173.74,1256l3.17,16.67a4.72,4.72,0,0,0,1.77,2.86L197.77,1290a4.73,4.73,0,0,0,3.21.93l6.33-.53a5.23,5.23,0,0,1,4.14,1.52l8.82,8.82,9.37,13.28a5.2,5.2,0,0,0,3.13,2.06l8.24,1.77a5.83,5.83,0,0,1,3.38,2.14l10.91,14.32a4.85,4.85,0,0,0,4.82,1.82l16.95-3.38a5.35,5.35,0,0,1,3.79.65l9.4,5.64a6.23,6.23,0,0,0,4.3.8l15.32-2.66a5.41,5.41,0,0,1,4.52,1.3l5.24,4.72a6,6,0,0,0,3.74,1.54l13.55.68a5.59,5.59,0,0,1,3.29,1.28l11.26,9.38a6.93,6.93,0,0,0,6.91,1.17l7.51-2.81a4.54,4.54,0,0,1,4.81,1l11.1,11.1,5.68,5.68a5.82,5.82,0,0,0,3.22,1.63l26.25,4a4.18,4.18,0,0,1,1.57.57l10.69,6.58,20.19,18.43,13,10.69a7,7,0,0,0,4.47,1.61h12a6,6,0,0,1,3.66,1.23l6.43,4.91,3,4.18a5.83,5.83,0,0,0,3.79,2.36l5.47.92a6.47,6.47,0,0,1,4.25,2.66l7.94,11.24a6.58,6.58,0,0,0,2.66,2.21l5.14,2.33a6.62,6.62,0,0,0,5.73-.1l1.83-.92a2.75,2.75,0,0,1,3.63,1.12l3.11,5.61,6.5,5.78a5.68,5.68,0,0,0,3.27,1.4l7.18.6a3.69,3.69,0,0,1,2.48,1.22l6.91,7.68,11.05,3.16a4.22,4.22,0,0,1,2.07,1.34l2.43,2.92a4.61,4.61,0,0,0,2.88,1.61l10.54,1.5h2.6a6,6,0,0,0,4.28-1.8l25.12-25.77a6.13,6.13,0,0,1,3.28-1.75l16.29-3a5.46,5.46,0,0,0,2-.82l15.78-10.25a3.75,3.75,0,0,1,1.83-.6l13.3-.74a4.9,4.9,0,0,0,2.71-1l43.55-32.86a6.09,6.09,0,0,1,4-1.23l12.32.65a8.07,8.07,0,0,0,4-.85l20.92-10.45,16.24-10.06a8.2,8.2,0,0,0,3.23-3.73l3.93-9a2.76,2.76,0,0,1,3.79-1.34l19.34,10.06,2.67,2.22a6.79,6.79,0,0,0,5.89,1.41l8.12-1.88,20.19-16.68,20.2-7.9,8.65-7.87a5.57,5.57,0,0,1,2.31-1.26l10-2.66a8.44,8.44,0,0,0,3.36-1.77l22.48-19.38a6.71,6.71,0,0,1,3.46-1.58l14.77-2.11a7.46,7.46,0,0,0,3.14-1.21l18.53-12.5a4.7,4.7,0,0,1,1.9-.76l9.74-1.57,22.17-11.94a4.69,4.69,0,0,1,1.4-.5l14.43-2.89a7,7,0,0,0,4-2.35l9.94-11.86" transform="translate(-64.57 287.39)"/><path class="cls-1" d="M352.84,1091.8l-15.18-15.17a11.86,11.86,0,0,0-7.55-3.45,38.5,38.5,0,0,0-6.35.07,11.81,11.81,0,0,0-6.23,2.57l-24.1,19.41a43.9,43.9,0,0,1-6.59,4.39,11.72,11.72,0,0,1-10.66.2l-2.58-1.25a14.9,14.9,0,0,0-18.67,5.51c-2.33,3.8-4.73,8.06-16.73,13a4.92,4.92,0,0,1-.77.24c-12,2.64-17.39,6.86-33,16.6-.27.16-12.81,8.61-13.17,8.78s-4,1.75-5.53,2.38a4.23,4.23,0,0,1-1.21.31L158.24,1148a4.1,4.1,0,0,0-.61.11c-13.59,3.53-23.13,14.78-15.15,19.8a4.33,4.33,0,0,1,.93.78c1.71,2,8.4,9.81,9.86,11.5a4.13,4.13,0,0,1,.49.74c.84,1.64,3,6.15,4,6.78L171,1201.34a10.58,10.58,0,0,0,4.71,2.81c3.94,1.12,10.64,2.94,10.89,3.18L201.17,1222l.09.07c30.2,16.18-3.57,26.59-27.32,30.89a1.67,1.67,0,0,0-.09,3.27l25.51,6.24,8.68,2.13a11.37,11.37,0,0,0,1.65.28l51.84,5.19,47.39,4.39h33.45l.15,0,19,7.84.13,0,34.18,1.75,52.67,2.64h18.82a.25.25,0,0,1,.12,0L502,1298.1l.16,0,22.68-1.75H525l25.3,6.11h.19l25.84-6a.4.4,0,0,0,.29-.49l-4.12-14a.39.39,0,0,1,.41-.5l52.05,3.47h.12l27.92-6.11a.33.33,0,0,1,.22,0l9.46,3.44a.62.62,0,0,0,.19,0l32.29-4.37a.41.41,0,0,1,.19,0l22.66,8.72.15,0L767.2,1285h.06l18.35-3.5h.1l26.25,1.75h.09l41.18-7h.07l82.43,1.76.12,0,32.35-9.62a.38.38,0,0,1,.15,0l44.61,4.37a.37.37,0,0,0,.18,0l3.52-1.41a.4.4,0,0,0,0-.72l-41.39-22.41,0,0-21.91-14-.06,0-51.72-20.16-.09,0-51.83-38.11a2.22,2.22,0,0,1,1.73-4l27.17,5.1a7,7,0,0,0,7.65-4h0a4,4,0,0,1,4.37-2.34l20.81,3.59a8.08,8.08,0,0,0,3.1-.07l34.67-7.71a7.7,7.7,0,0,1,6.06,1.2l3.77,2.63a7.14,7.14,0,0,0,7.64.35l19.53-11.14,12.62-7.2c.71-.4,2.65-3.75,2.65-3.75a.4.4,0,0,0-.19-.54l-26.73-11.58a6.23,6.23,0,0,0-2.1-.72l-25.55-4a9.61,9.61,0,0,1-2.73-.84l-9.16-4.4a4.47,4.47,0,0,0-1.07-.35L912,1122a7.41,7.41,0,0,1-3.1-1.34L891,1107.37a7.38,7.38,0,0,0-1.87-1l-24.54-9.2a4.23,4.23,0,0,0-4.47,1l-15.77,15.77a6.42,6.42,0,0,1-3.9,1.83l-15.21,1.38a7.55,7.55,0,0,1-3.52-.53l-13.05-5.38-.35-.16L775,1093.55a12.55,12.55,0,0,0-7.09-1.36l-19.55,2a10,10,0,0,1-4.23-.47l-29.77-10.14a14.12,14.12,0,0,0-15.61,4.6l-8.17,10.32a11.22,11.22,0,0,1-6,3.89l-11.87,3.1a15.33,15.33,0,0,1-9.23-.48l-9.26-3.47a4.25,4.25,0,0,0-1.32-.27l-15.87-.61a15.63,15.63,0,0,0-11.75,4.68l-10.09,10.28a4.2,4.2,0,0,1-1.71,1.07l-19.94,6.45a18.19,18.19,0,0,1-16.45-2.71l-20.35-15.12a15.59,15.59,0,0,0-6.3-2.77l-.08,0-21.9-10.35a9.57,9.57,0,0,0-5.58-.79l-12.47,3a3.09,3.09,0,0,1-3-.87c-5.13-5.42-13-11.8-22.9-12.3-18-.91-26.35,18.24-40.39,14.92-13.35-3.15-18.51-23.51-27-21.21a7,7,0,0,0-3.73,2.78,99.39,99.39,0,0,1-18.79,19.4c-2.32,1.78-6.47,9.06-11.5,8.25-8.13-1.31-9.84-7.15-16.62-10.91-4.57-2.53-13.67-9.72-33.86,5.21" transform="translate(-64.57 287.39)"/></g><g id="Socle-2" data-name="Socle"><polyline class="cls-2" points="1.18 882.72 77.13 860.77 221.99 844.97 296.61 866.91 366.85 857.26 480.98 882.72 567.9 871.3 663.59 915.07 846.2 896.19 945.41 890.32 1026.18 890.62 1025.31 1222.35 1013.01 1236.39 1000.72 1240.78 987.55 1234.64 970 1221.47 964.73 1209.18 945.41 1206.54 918.2 1226.73 902.39 1236.39 874.3 1226.73 847.08 1241.66 820.74 1221.47 804.94 1213.57 788.26 1207.42 759.29 1226.73 751.39 1229.37 725.05 1214.44 721.54 1215.32 716.27 1227.61 675 1251.32 658.32 1249.56 611.79 1284.68 596.87 1285.56 580.19 1296.09 560 1300.48 545.07 1315.41 530.34 1328.58 524.88 1327.7 513.46 1325.94 503.81 1320.67 495.03 1316.29 488 1309.26 477.47 1308.38 473.08 1303.12 465.52 1294.71 457.27 1296.09 449.37 1291.7 443.23 1281.17 428.3 1274.14 416.01 1265.36 401.09 1264.49 376.5 1244.29 354.56 1225.86 329.97 1224.98 308.02 1243.42 293.1 1253.95 278.18 1251.32 266.76 1244.29 249.2 1253.07 232.52 1271.51 218.47 1268.88 204.43 1256.59 175.46 1246.05 147.36 1240.78 126.75 1253.11 104.34 1262.73 93.81 1275.9 81.52 1278.53 72.74 1275.9 49.03 1254.83 46.4 1240.78 27.08 1231.12 3.38 1199.52"/><path class="cls-1" d="M141.25,724c14.82-.32,31.73,0,38.63,2.63,17.07,6.47,20.56,14.63,34.24,14.92,9.46.21,11.6-3.61,24.59-3.51,11.57.09,14,3.16,21.07,3.51,25.9,1.31,37-38.28,59.7-36,11.4,1.15,12.94,11.61,22.82,10.53,15.84-1.71,16-29,32.49-33.36,13-3.41,18.55,12,49.16,22.83,14.94,5.26,23.13,4.12,36,.88,27.52-6.94,32-34.3,51.8-35.12,11.11-.46,18.43-14,50,29.85C571,713.9,578.64,709,581.1,709c20.18-.11,17.27-20,43.9-19.31,12.73.3,15.51,9.43,29,9.65,13.74.23,18.43-15.82,29.85-14,8.3,1.28,7.79,10,21.95,22.82,11.21,10.11,22.72,14.71,29.85,17.56,11.1,4.44,17.89,7.15,27.22,7,20.78-.29,37.32-14.44,43-19.32,10.16-8.7,10.88-13.33,17.56-14.92,11.34-2.71,51.65,25.69,60.57,35.11" transform="translate(-64.57 287.39)"/><path class="cls-1" d="M211.49,789.79c32.48-21.07,65.13-3.43,79.89-12.29,21.95-13.17,25.53-9.65,38.63-15.8,31.34-14.71,32.54-34.56,53.56-36.88,20.11-2.22,27.29,15,47.4,13.17,18.54-1.73,29.69-20.88,38.63-35.11" transform="translate(-64.57 287.39)"/><path class="cls-1" d="M585.49,709.9,598,725.26A9.82,9.82,0,0,0,612,726.49l7.25-6.3a11.63,11.63,0,0,1,11.8-2.08l39.22,15,50.79,28.62a11.56,11.56,0,0,0,10.77.31l34.37-16.88a19.64,19.64,0,0,1,15.31-.85l18.31,6.6a9.51,9.51,0,0,0,8.85-1.3l21.15-15.6a12.75,12.75,0,0,1,14.59-.37l11,7.25" transform="translate(-64.57 287.39)"/><path class="cls-1" d="M146.26,733,132,732.29l-24.58-7.91-20-11.21a7.34,7.34,0,0,0-4.13-.91l-15.79,1.15v-97" transform="translate(-64.57 287.39)"/><path class="cls-1" d="M755.81,595.77l35.85-23.63a5.47,5.47,0,0,1,5.69-.19l13.71,7.75a5,5,0,0,0,4.61.17L847.12,565l25.66-28.89a5.71,5.71,0,0,1,6.5-1.46l30.17,12.79,35.64,18.29,20.95,4.1a8.91,8.91,0,0,0,4.41-.25l23.14-7.25,20.19-7.1a8.39,8.39,0,0,1,10.39,4.37l5.37,11.49a7.66,7.66,0,0,0,4.77,4.1l19.13,5.61,15.36,10.8,20.63,5.75v8.77l-11.85,9.29a8.91,8.91,0,0,1-4.79,1.39h-26.52a9.54,9.54,0,0,1-5.35-1.65l-17.05-11.58a7,7,0,0,0-7.66-.1l-27.48,17.62a14.87,14.87,0,0,1-6.3,2.24l-36.84,4.17A9.82,9.82,0,0,1,941,627L912.9,616.07a7.9,7.9,0,0,0-5.19-.17l-37.17,11.59a11.46,11.46,0,0,1-2.11.44l-53.25,5.87a8.36,8.36,0,0,1-5.13-1.07l-17.9-10.3a7.89,7.89,0,0,0-4.51-1L767.23,623" transform="translate(-64.57 287.39)"/><path class="cls-1" d="M963,801.2l6.67-18.33a4.94,4.94,0,0,1,1.06-1.74l9.82-10.57a7.07,7.07,0,0,0,1.36-2.18l7.57-19.56L1001.9,726a4.36,4.36,0,0,0,.52-2.4l-1.16-14.69" transform="translate(-64.57 287.39)"/><path class="cls-1" d="M1089.43,606.74v78.44l-10.33,6.17a2,2,0,0,1-.42.19l-15.59,6.07-11.31,3a6.42,6.42,0,0,0-3.13,1.94l-18.5,20.92a6.65,6.65,0,0,1-.92.84l-15.91,11.74a4.79,4.79,0,0,1-1.55.77l-18.91,5.55" transform="translate(-64.57 287.39)"/><path class="cls-1" d="M192.17,846.86s-13.17,8.78-14.92,7.9c-1.48-.74-14.87-4.59-19.08-5.79a6.14,6.14,0,0,0-2.56-.17l-10.85,1.57-5.21,1.5a4.9,4.9,0,0,1-6-3.24l-2.8-8.8-3.1-10.06a6.46,6.46,0,0,0-1.35-2.41L117.11,817l-6.64-5.22a7.36,7.36,0,0,0-7.72-.88l-1.66.78a7.38,7.38,0,0,1-4.14.64l-8.88-1.18a10.67,10.67,0,0,1-4-1.38L71,802.08l-3.51-8.78V911.83l2.63,7,8,10.53,10.39,13.17L107,951.46a6.5,6.5,0,0,1,3.66,5.84V961a7.37,7.37,0,0,0,2.71,5.7l5.92,4.82L127,982.26a8.4,8.4,0,0,0,2.78,2.49l10.58,6a6.49,6.49,0,0,0,3.86.8l11.14-1.17a7.89,7.89,0,0,0,5.55-3.19l6.16-8.4a8.64,8.64,0,0,1,3.66-2.86l14.89-6.11,12.77-7.49a8.6,8.6,0,0,0,1.3-.94l9.87-8.47a4.19,4.19,0,0,1,4.34-.68l12.54,5.29,22,2.63,19.46,9.66,9.34,8.68a7.45,7.45,0,0,0,2.39,1.49l12.74,4.85a6.45,6.45,0,0,0,7.3-2l8.47-10.43,6-7,15.38-8a5.33,5.33,0,0,1,5.94.68l7.06,6a5.26,5.26,0,0,0,3.41,1.26h10.09a8.85,8.85,0,0,0,5.44-1.87l32.72-28.12" transform="translate(-64.57 287.39)"/><path class="cls-1" d="M67.51,914" transform="translate(-64.57 287.39)"/><path class="cls-1" d="M1003.39,824c3.52-3.51,27.61-7,27.61-7l14.54-9.66,21.07-4.39,13.17-7.9,10.53-4.93" transform="translate(-64.57 287.39)"/><polyline class="cls-1" points="1024.87 1113.62 1024.87 1223.22 1023.11 1225.42 1013.8 1237.75 1001.16 1240.48 988.87 1235.21 969.56 1220.29 966.04 1209.75 945.85 1206.24 923.02 1220.29 918.15 1227.75 901.95 1236.09 874.98 1225.99 848.4 1242.23 821.18 1221.16 790.46 1207.12"/><line class="cls-1" x1="1024.87" y1="1071.34" x2="1024.87" y2="973.01"/><line class="cls-1" x1="2.94" y1="1000.8" x2="2.94" y2="1085.52"/><path class="cls-1" d="M901.55,892.51l20.2,14,8.78,2.63,10.53-.88s12.29,5.27,12.29,6.15,10.54,2.63,10.54,2.63l5.26-3.51,5.52-7.9,6.78-6.15,5.26-4.39,20.2-7.9,7.9-12.29,13.17-7h16l12.14-21.07,7.9-8.78,14.93-2.64,8.78-7,1.75-2.77v-43l-22.82,3.65-36,7-28.18-9.41-24.5,11.17-13.17.88" transform="translate(-64.57 287.39)"/><path class="cls-1" d="M711,644.05l-45.18-29a14.66,14.66,0,0,0-2.86-1.42l-58.4-21.19a12.56,12.56,0,0,0-12.44.54l-17.64,11.11-33.6,15.68a16.17,16.17,0,0,1-12.07.63l-19.3-6.66L475.31,598,463,584.09a15.16,15.16,0,0,0-18.48-3.33l-9.51,5.08a13.5,13.5,0,0,1-12.57.06l-14.83-7.74A12.88,12.88,0,0,0,396,578l-19,9.4L355,598l-12.1-1.05a11.8,11.8,0,0,1-10.32-8.52l-1.28-4.48L313.77,564.6l-23-3.39a11.89,11.89,0,0,0-11.08,4.42l-5.4,6.87-27.21,14.93-5.14,8.4a12.23,12.23,0,0,1-13,5.58l-28.4-6.08-22.82-8.78-20.31-10.48a10.33,10.33,0,0,0-12.26,2.08l-10.45,11L121,601.63a10.68,10.68,0,0,1-12.3,1.47l-6.75-3.68a10.71,10.71,0,0,0-11.35.68l-13,9.27-10.09,7.47V546.6L81.31,535a3.26,3.26,0,0,1,4,0l15.41,11.91a5,5,0,0,0,4.18.89l21.56-5.21a4.65,4.65,0,0,1,3.07.33l25.3,12.27a5.91,5.91,0,0,0,4.5.28l12.22-4.18a4.91,4.91,0,0,1,4.11.43l22.66,13.52a5.05,5.05,0,0,0,5.2,0l28.13-16.87,25.51-12a6.39,6.39,0,0,1,5.21-.09l16.19,6.94a7.31,7.31,0,0,0,3.26.58l5.27-.28,7.45-.4a6.21,6.21,0,0,1,2.34.33l36.21,12.34a7.08,7.08,0,0,1,2.31,1.32l20.18,17.19a6.19,6.19,0,0,0,5.65,1.26l23.92-6.52a7.45,7.45,0,0,0,3.29-1.91L401,554.64a7.41,7.41,0,0,1,4.55-2.14l7-.63,33.29,5.68a7.71,7.71,0,0,0,5.09-.88l10.56-5.94a6.47,6.47,0,0,0,1.89-1.6L474,536.06a8,8,0,0,1,8.86-2.52l36.11,12.65a8.83,8.83,0,0,0,2.38.48L551,548.25a9.29,9.29,0,0,1,3.86,1.07L594,570.2a3.82,3.82,0,0,0,2.55.37l17.06-3.43a5.19,5.19,0,0,0,2.91-1.69l14.91-17.14a3.21,3.21,0,0,1,3.59-.89l13.7,5.33L677,569a5.69,5.69,0,0,0,1.52.61L703,575.34a4.86,4.86,0,0,1,1.82.83l11.47,8.18,10.19,3.51h15.43a7.82,7.82,0,0,1,4.49,1.42L762,600.16l7.41,2.64a5.16,5.16,0,0,1,3.11,6.62l-4.31,11.83A9.08,9.08,0,0,1,765,625.5l-33.76,24.7" transform="translate(-64.57 287.39)"/><path class="cls-1" d="M173.74,817l3.17,16.66a4.77,4.77,0,0,0,1.77,2.87L197.77,851A4.69,4.69,0,0,0,201,852l6.33-.53a5.26,5.26,0,0,1,4.14,1.51l8.82,8.82,9.37,13.28a5.17,5.17,0,0,0,3.13,2.07l8.24,1.76a5.8,5.8,0,0,1,3.38,2.15l10.91,14.32a4.85,4.85,0,0,0,4.82,1.82l16.95-3.39a5.35,5.35,0,0,1,3.79.66l9.4,5.64a6.28,6.28,0,0,0,4.3.8l15.32-2.66a5.35,5.35,0,0,1,4.52,1.3l5.24,4.71a6,6,0,0,0,3.74,1.55l13.55.67a5.66,5.66,0,0,1,3.29,1.29l11.26,9.38a7,7,0,0,0,6.91,1.17l7.51-2.81a4.54,4.54,0,0,1,4.81,1l11.1,11.1,5.68,5.68a5.82,5.82,0,0,0,3.22,1.63l26.25,4a4.2,4.2,0,0,1,1.57.58l10.69,6.58,20.19,18.43,13,10.69a7,7,0,0,0,4.47,1.6h12a6.05,6.05,0,0,1,3.66,1.24l6.43,4.91,3,4.18a5.83,5.83,0,0,0,3.79,2.36l5.47.91a6.52,6.52,0,0,1,4.25,2.67l7.94,11.24a6.58,6.58,0,0,0,2.66,2.21l5.14,2.33a6.69,6.69,0,0,0,5.73-.1l1.83-.92a2.75,2.75,0,0,1,3.63,1.12l3.11,5.61,6.5,5.78a5.67,5.67,0,0,0,3.27,1.39l7.18.6a3.75,3.75,0,0,1,2.48,1.23l6.91,7.68,11.05,3.15a4.17,4.17,0,0,1,2.07,1.35l2.43,2.92a4.65,4.65,0,0,0,2.88,1.61l10.54,1.5h2.6a6,6,0,0,0,4.28-1.8l25.12-25.77a6.13,6.13,0,0,1,3.28-1.75l16.29-3a5.46,5.46,0,0,0,2-.82l15.78-10.26a3.84,3.84,0,0,1,1.83-.59l13.3-.74a4.9,4.9,0,0,0,2.71-1l43.55-32.87a6.08,6.08,0,0,1,4-1.22l12.32.64a8,8,0,0,0,4-.84l20.92-10.46,16.24-10.05a8.3,8.3,0,0,0,3.23-3.73l3.93-9a2.76,2.76,0,0,1,3.79-1.34l19.34,10.06,2.67,2.22a6.86,6.86,0,0,0,5.89,1.41l8.12-1.88,20.19-16.68,20.2-7.9,8.65-7.87a5.57,5.57,0,0,1,2.31-1.26l10-2.66a8.57,8.57,0,0,0,3.36-1.77l22.48-19.39a6.77,6.77,0,0,1,3.46-1.57l14.77-2.11a7.46,7.46,0,0,0,3.14-1.21l18.53-12.51a4.83,4.83,0,0,1,1.9-.75l9.74-1.58,22.17-11.93a5,5,0,0,1,1.4-.51l14.43-2.88a7,7,0,0,0,4-2.35l9.94-11.87" transform="translate(-64.57 287.39)"/><path class="cls-1" d="M352.84,652.83l-15.18-15.17a11.86,11.86,0,0,0-7.55-3.45,38.49,38.49,0,0,0-6.35.06,11.89,11.89,0,0,0-6.23,2.57l-24.1,19.41a43.21,43.21,0,0,1-6.59,4.4,11.69,11.69,0,0,1-10.66.19l-2.58-1.24a14.89,14.89,0,0,0-18.67,5.51c-2.33,3.8-4.73,8-16.73,13a4.92,4.92,0,0,1-.77.24c-12,2.64-17.39,6.86-33,16.59-.27.17-12.81,8.62-13.17,8.78s-4,1.76-5.53,2.39a4.21,4.21,0,0,1-1.21.3L158.24,709a4.1,4.1,0,0,0-.61.11c-13.59,3.53-23.13,14.77-15.15,19.8a4.33,4.33,0,0,1,.93.78c1.71,2,8.4,9.81,9.86,11.5a4.13,4.13,0,0,1,.49.74c.84,1.64,3,6.15,4,6.77L171,762.36a10.6,10.6,0,0,0,4.71,2.82c3.94,1.12,10.64,2.93,10.89,3.18L201.17,783l.09.06c30.2,16.19-3.57,26.6-27.32,30.9a1.67,1.67,0,0,0-.09,3.26l25.51,6.25,8.68,2.13a12.92,12.92,0,0,0,1.65.28l51.84,5.18,47.39,4.39h33.45l.15,0,19,7.85.13,0,34.18,1.75,52.67,2.64h18.82a.25.25,0,0,1,.12,0L502,859.12a.3.3,0,0,0,.16,0l22.68-1.74a.29.29,0,0,1,.13,0l25.3,6.11h.19l25.84-6a.4.4,0,0,0,.29-.5l-4.12-14a.39.39,0,0,1,.41-.5L624.94,846h.12L653,839.86a.41.41,0,0,1,.22,0l9.46,3.44a.41.41,0,0,0,.19,0L695.14,839a.41.41,0,0,1,.19,0L718,847.71a.39.39,0,0,0,.15,0L767.2,846h.06l18.35-3.49h.1L812,844.22h.09l41.18-7h.07L935.73,839l.12,0,32.35-9.62a.38.38,0,0,1,.15,0l44.61,4.37a.29.29,0,0,0,.18,0l3.52-1.41a.39.39,0,0,0,0-.71l-41.39-22.42h0l-21.91-14-.06,0L901.6,774.89l-.09,0-51.83-38.11a2.22,2.22,0,0,1,1.73-4l27.17,5.1a7,7,0,0,0,7.65-4h0a4,4,0,0,1,4.37-2.34l20.81,3.59a8.08,8.08,0,0,0,3.1-.07l34.67-7.71a7.66,7.66,0,0,1,6.06,1.2l3.77,2.63a7.16,7.16,0,0,0,7.64.35l19.53-11.14,12.62-7.2c.71-.4,2.65-3.76,2.65-3.76a.39.39,0,0,0-.19-.53l-26.73-11.58a6.23,6.23,0,0,0-2.1-.72l-25.55-4a9.63,9.63,0,0,1-2.73-.85L935,687.32a4.07,4.07,0,0,0-1.07-.35L912,683a7.41,7.41,0,0,1-3.1-1.34L891,668.4a7.38,7.38,0,0,0-1.87-1l-24.54-9.2a4.21,4.21,0,0,0-4.47,1l-15.77,15.76a6.31,6.31,0,0,1-3.9,1.83l-15.21,1.39a7.43,7.43,0,0,1-3.52-.54l-13.05-5.37-.35-.16L775,654.58a12.55,12.55,0,0,0-7.09-1.36l-19.55,2a9.82,9.82,0,0,1-4.23-.48l-29.77-10.13a14.1,14.1,0,0,0-15.61,4.59l-8.17,10.33a11.22,11.22,0,0,1-6,3.89l-11.87,3.09a15.32,15.32,0,0,1-9.23-.47l-9.26-3.48a4,4,0,0,0-1.32-.26L637,661.71a15.62,15.62,0,0,0-11.75,4.67l-10.09,10.29a4.18,4.18,0,0,1-1.71,1.06l-19.94,6.46a18.19,18.19,0,0,1-16.45-2.71l-20.35-15.12a15.74,15.74,0,0,0-6.3-2.78l-.08,0-21.9-10.35a9.49,9.49,0,0,0-5.58-.79l-12.47,3.05a3.09,3.09,0,0,1-3-.87c-5.13-5.42-13-11.8-22.9-12.3-18-.92-26.35,18.24-40.39,14.92-13.35-3.15-18.51-23.51-27-21.21a7,7,0,0,0-3.73,2.78,99.39,99.39,0,0,1-18.79,19.4c-2.32,1.78-6.47,9.06-11.5,8.25-8.13-1.31-9.84-7.16-16.62-10.91-4.57-2.53-13.67-9.72-33.86,5.2" transform="translate(-64.57 287.39)"/></g><g id="Socle-3" data-name="Socle"><polyline class="cls-2" points="1026.18 1539.08 950.24 1561.03 805.38 1576.83 730.75 1554.88 660.52 1564.54 546.39 1539.08 459.47 1550.49 363.77 1506.72 181.16 1525.6 81.95 1531.48 1.18 1531.17 2.06 1199.45 14.35 1185.4 26.64 1181.01 39.81 1187.16 57.37 1200.33 62.64 1212.62 81.95 1215.25 109.17 1195.06 124.97 1185.4 153.07 1195.06 180.28 1180.13 206.62 1200.33 222.43 1208.23 239.11 1214.37 268.08 1195.06 275.98 1192.42 302.32 1207.35 305.83 1206.47 311.1 1194.18 352.36 1170.48 369.04 1172.23 415.57 1137.12 430.5 1136.24 447.18 1125.7 467.37 1121.31 482.3 1106.39 497.02 1093.22 502.49 1094.1 513.9 1095.85 523.56 1101.12 532.34 1105.51 539.36 1112.53 549.9 1113.41 554.29 1118.68 561.85 1127.09 570.09 1125.7 577.99 1130.09 584.14 1140.63 599.06 1147.65 611.35 1156.43 626.28 1157.31 650.86 1177.5 672.81 1195.94 697.39 1196.82 719.34 1178.38 734.27 1167.84 749.19 1170.48 760.61 1177.5 778.16 1168.72 794.85 1150.28 808.89 1152.92 822.94 1165.21 851.91 1175.74 880 1181.01 900.62 1168.68 923.02 1159.06 933.56 1145.89 945.85 1143.26 954.63 1145.89 978.34 1166.96 980.97 1181.01 1000.28 1190.67 1023.99 1222.28"/><path class="cls-1" d="M1015.25,1123.07c-14.82.31-31.73,0-38.63-2.64-17.07-6.47-20.56-14.63-34.24-14.92-9.46-.2-11.6,3.61-24.59,3.51-11.57-.09-14-3.16-21.07-3.51-25.9-1.3-37,38.28-59.7,36-11.4-1.15-12.94-11.6-22.82-10.53-15.84,1.72-16,29-32.49,33.36-13,3.41-18.55-12-49.16-22.83-14.94-5.26-23.13-4.12-36-.87-27.52,6.94-32,34.29-51.8,35.11-11.11.47-18.43,14-50-29.85-9.2-12.77-16.85-7.91-19.31-7.9-20.18.11-17.27,20-43.9,19.32-12.73-.31-15.51-9.43-29-9.66-13.74-.23-18.43,15.82-29.85,14-8.3-1.29-7.79-10.06-21.95-22.83-11.21-10.1-22.72-14.71-29.85-17.56-11.1-4.44-17.89-7.15-27.22-7-20.78.28-37.32,14.44-43,19.31-10.16,8.71-10.88,13.34-17.56,14.93-11.34,2.7-51.65-25.7-60.57-35.12" transform="translate(-64.57 287.39)"/><path class="cls-1" d="M945,1057.22c-32.48,21.07-65.13,3.43-79.89,12.29-22,13.17-25.53,9.66-38.63,15.81-31.34,14.7-32.54,34.55-53.56,36.87-20.11,2.22-27.29-15-47.4-13.17-18.54,1.73-29.69,20.88-38.63,35.12" transform="translate(-64.57 287.39)"/><path class="cls-1" d="M571,1137.12l-12.47-15.37a9.83,9.83,0,0,0-14.08-1.23l-7.25,6.3a11.61,11.61,0,0,1-11.8,2.08l-39.22-15.05-50.79-28.62a11.56,11.56,0,0,0-10.77-.3l-34.37,16.88a19.63,19.63,0,0,1-15.31.84l-18.31-6.59a9.47,9.47,0,0,0-8.85,1.29L326.64,1113a12.73,12.73,0,0,1-14.59.38l-11-7.26" transform="translate(-64.57 287.39)"/><path class="cls-1" d="M1010.24,1114l14.23.73,24.58,7.9,20,11.21a7.26,7.26,0,0,0,4.13.91l15.79-1.15v97" transform="translate(-64.57 287.39)"/><path class="cls-1" d="M400.69,1251.25l-35.85,23.62a5.45,5.45,0,0,1-5.69.19l-13.71-7.74a5,5,0,0,0-4.61-.17L309.38,1282l-25.66,28.88a5.71,5.71,0,0,1-6.5,1.46l-30.17-12.79-35.64-18.29-20.95-4.1a9,9,0,0,0-4.41.25l-23.14,7.26-20.19,7.09a8.38,8.38,0,0,1-10.39-4.37L127,1275.88a7.64,7.64,0,0,0-4.77-4.09l-19.13-5.62-15.36-10.8-20.63-5.74v-8.78l11.85-9.28a8.91,8.91,0,0,1,4.79-1.39h26.52a9.53,9.53,0,0,1,5.35,1.64l17,11.58a7,7,0,0,0,7.66.11l27.48-17.63a14.86,14.86,0,0,1,6.3-2.23l36.84-4.18a9.83,9.83,0,0,1,4.62.6l28.07,10.87a7.9,7.9,0,0,0,5.19.17L286,1219.53a10.71,10.71,0,0,1,2.11-.45l53.25-5.87a8.43,8.43,0,0,1,5.13,1.07l17.9,10.3a7.81,7.81,0,0,0,4.51,1l20.41-1.57" transform="translate(-64.57 287.39)"/><path class="cls-1" d="M193.49,1045.81l-6.67,18.33a5.07,5.07,0,0,1-1.06,1.75l-9.82,10.57a6.91,6.91,0,0,0-1.36,2.17L167,1098.2l-12.41,22.86a4.39,4.39,0,0,0-.52,2.41l1.16,14.69" transform="translate(-64.57 287.39)"/><path class="cls-1" d="M67.07,1240.27v-78.44l10.33-6.17a2.68,2.68,0,0,1,.42-.19l15.59-6.06,11.31-3a6.41,6.41,0,0,0,3.13-1.93l18.5-20.93a6,6,0,0,1,.92-.83L143.18,1111a5.23,5.23,0,0,1,1.55-.77l18.91-5.55" transform="translate(-64.57 287.39)"/><path class="cls-1" d="M964.33,1000.16s13.17-8.78,14.92-7.91c1.48.74,14.87,4.59,19.08,5.79a6,6,0,0,0,2.56.17l10.85-1.57,5.21-1.49a4.9,4.9,0,0,1,6,3.23l2.8,8.8,3.1,10.06a6.46,6.46,0,0,0,1.35,2.41l9.16,10.36,6.64,5.22a7.4,7.4,0,0,0,7.72.88l1.66-.78a7.48,7.48,0,0,1,4.14-.65l8.88,1.19a10.66,10.66,0,0,1,4,1.37l13.07,7.69,3.51,8.78V935.19l-2.63-7-8-10.53-10.39-13.17-18.43-8.91a6.48,6.48,0,0,1-3.66-5.84V886a7.34,7.34,0,0,0-2.71-5.69l-5.92-4.82-7.67-10.74a8.62,8.62,0,0,0-2.78-2.49l-10.58-6a6.49,6.49,0,0,0-3.86-.8l-11.14,1.17a7.92,7.92,0,0,0-5.55,3.19l-6.16,8.4a8.58,8.58,0,0,1-3.66,2.87l-14.89,6.1-12.77,7.5a8.54,8.54,0,0,0-1.3.93L947,894.14a4.14,4.14,0,0,1-4.34.68l-12.54-5.29-22-2.63-19.46-9.66-9.34-8.68a7.42,7.42,0,0,0-2.39-1.48l-12.74-4.86a6.45,6.45,0,0,0-7.3,2l-8.47,10.43-6,7-15.38,8a5.35,5.35,0,0,1-5.94-.69l-7.06-6.05a5.26,5.26,0,0,0-3.41-1.26H800.56a8.8,8.8,0,0,0-5.44,1.88L762.4,911.62" transform="translate(-64.57 287.39)"/><path class="cls-1" d="M1089,933" transform="translate(-64.57 287.39)"/><path class="cls-1" d="M153.11,1023c-3.52,3.51-27.61,7-27.61,7L111,1039.66l-21.07,4.39L76.72,1052l-10.53,4.93" transform="translate(-64.57 287.39)"/><polyline class="cls-1" points="2.5 1308.18 2.5 1198.57 4.26 1196.38 13.57 1184.05 26.2 1181.32 38.5 1186.58 57.81 1201.51 61.32 1212.04 81.52 1215.55 104.34 1201.51 109.21 1194.05 125.41 1185.7 152.38 1195.8 178.97 1179.56 206.18 1200.63 236.91 1214.68"/><line class="cls-1" x1="2.5" y1="1350.46" x2="2.5" y2="1448.78"/><line class="cls-1" x1="1024.43" y1="1420.99" x2="1024.43" y2="1336.27"/><path class="cls-1" d="M255,954.5l-20.2-14L226,937.82l-10.53.88s-12.29-5.27-12.29-6.15-10.54-2.63-10.54-2.63l-5.26,3.51-5.52,7.9-6.78,6.15-5.26,4.39-20.2,7.9-7.9,12.29-13.17,7h-16l-12.14,21.07-7.9,8.78-14.93,2.63-8.78,7-1.75,2.77v43l22.82-3.65,36-7,28.18,9.41,24.5-11.17,13.17-.87" transform="translate(-64.57 287.39)"/><path class="cls-1" d="M445.46,1203l45.18,29a14.66,14.66,0,0,0,2.86,1.42l58.4,21.19a12.54,12.54,0,0,0,12.44-.54l17.64-11.1,33.6-15.68a16.08,16.08,0,0,1,12.07-.63l19.3,6.65,34.24,15.8,12.27,13.87a15.16,15.16,0,0,0,18.48,3.33l9.51-5.08a13.47,13.47,0,0,1,12.57-.05l14.83,7.73a12.85,12.85,0,0,0,11.66.13l19-9.39,22-10.54,12.1,1.06a11.79,11.79,0,0,1,10.32,8.51l1.28,4.48,17.56,19.31,23,3.39a11.87,11.87,0,0,0,11.08-4.42l5.4-6.87,27.21-14.92,5.14-8.41a12.23,12.23,0,0,1,13-5.58l28.4,6.09,22.82,8.78L999.12,1271a10.36,10.36,0,0,0,12.26-2.08l10.45-11,13.69-12.44a10.69,10.69,0,0,1,12.3-1.48l6.75,3.69a10.73,10.73,0,0,0,11.35-.69l13-9.27,10.09-7.46v70.23l-13.8,11.57a3.27,3.27,0,0,1-4,0l-15.41-11.91a4.93,4.93,0,0,0-4.18-.9l-21.56,5.21a4.59,4.59,0,0,1-3.07-.33l-25.3-12.27a5.91,5.91,0,0,0-4.5-.27l-12.22,4.17a4.91,4.91,0,0,1-4.11-.43l-22.66-13.52a5.08,5.08,0,0,0-5.2,0l-28.13,16.88-25.51,11.95a6.35,6.35,0,0,1-5.21.09l-16.19-6.93a7.18,7.18,0,0,0-3.26-.58l-5.27.28-7.45.39a6.41,6.41,0,0,1-2.34-.32l-36.21-12.35a7.06,7.06,0,0,1-2.31-1.31l-20.18-17.19a6.2,6.2,0,0,0-5.65-1.27L771.32,1278a7.35,7.35,0,0,0-3.29,1.91l-12.52,12.52a7.4,7.4,0,0,1-4.55,2.13l-7,.64-33.29-5.69a7.71,7.71,0,0,0-5.09.88L695,1296.28a6.47,6.47,0,0,0-1.89,1.6L682.54,1311a8,8,0,0,1-8.86,2.51l-36.11-12.65a8.45,8.45,0,0,0-2.38-.47l-29.65-1.58a9.3,9.3,0,0,1-3.86-1.08l-39.17-20.87a3.82,3.82,0,0,0-2.55-.38l-17.06,3.43a5.24,5.24,0,0,0-2.91,1.69l-14.91,17.14a3.21,3.21,0,0,1-3.59.89l-13.7-5.32L479.54,1278a5.67,5.67,0,0,0-1.52-.6l-24.54-5.73a5,5,0,0,1-1.82-.82l-11.47-8.19L430,1259.15H414.57a7.81,7.81,0,0,1-4.49-1.41l-15.54-10.88-7.41-2.65a5.15,5.15,0,0,1-3.11-6.61l4.31-11.84a9,9,0,0,1,3.18-4.24l33.76-24.7" transform="translate(-64.57 287.39)"/><path class="cls-1" d="M982.76,1030l-3.17-16.67a4.72,4.72,0,0,0-1.77-2.86L958.73,996a4.63,4.63,0,0,0-3.21-.93l-6.33.52a5.22,5.22,0,0,1-4.14-1.51l-8.82-8.82L926.86,972a5.21,5.21,0,0,0-3.13-2.07l-8.24-1.76a5.8,5.8,0,0,1-3.38-2.15L901.2,951.65a4.87,4.87,0,0,0-4.82-1.82l-17,3.39a5.3,5.3,0,0,1-3.79-.66l-9.4-5.64a6.34,6.34,0,0,0-4.3-.8l-15.32,2.67a5.41,5.41,0,0,1-4.52-1.3l-5.24-4.72a6,6,0,0,0-3.74-1.54l-13.55-.68a5.53,5.53,0,0,1-3.29-1.29L805,929.88a7,7,0,0,0-6.91-1.17l-7.51,2.82a4.56,4.56,0,0,1-4.81-1l-11.1-11.11L769,913.7a5.74,5.74,0,0,0-3.22-1.62l-26.25-4a4,4,0,0,1-1.57-.58L727.28,901l-20.19-18.44-13-10.68a7,7,0,0,0-4.47-1.61h-12A6,6,0,0,1,674,869l-6.43-4.91-3-4.18a5.91,5.91,0,0,0-3.79-2.36l-5.47-.91a6.52,6.52,0,0,1-4.25-2.67l-7.94-11.24a6.47,6.47,0,0,0-2.66-2.2l-5.14-2.34a6.65,6.65,0,0,0-5.73.11l-1.83.92a2.75,2.75,0,0,1-3.63-1.13l-3.11-5.6-6.5-5.78a5.62,5.62,0,0,0-3.27-1.4l-7.18-.6a3.75,3.75,0,0,1-2.48-1.23l-6.91-7.67-11.05-3.16a4.17,4.17,0,0,1-2.07-1.35l-2.43-2.92a4.59,4.59,0,0,0-2.88-1.6l-10.54-1.51h-2.6a6,6,0,0,0-4.28,1.81l-25.12,25.77a6.05,6.05,0,0,1-3.28,1.74l-16.29,3a5.81,5.81,0,0,0-2,.82l-15.78,10.26a3.74,3.74,0,0,1-1.83.59l-13.3.74a4.91,4.91,0,0,0-2.71,1L435,883.8a6.15,6.15,0,0,1-4,1.23l-12.32-.65a8.17,8.17,0,0,0-4,.84l-20.92,10.46-16.24,10.05a8.3,8.3,0,0,0-3.23,3.73l-3.93,9a2.75,2.75,0,0,1-3.79,1.33l-19.34-10-2.67-2.23a6.82,6.82,0,0,0-5.89-1.4L330.45,908l-20.19,16.68-20.2,7.9-8.65,7.87a5.57,5.57,0,0,1-2.31,1.26l-10,2.66a8.46,8.46,0,0,0-3.36,1.78L243.28,965.5a6.77,6.77,0,0,1-3.46,1.57l-14.77,2.11a7.59,7.59,0,0,0-3.14,1.21L203.38,982.9a4.68,4.68,0,0,1-1.9.75l-9.74,1.58-22.17,11.93a5,5,0,0,1-1.4.51l-14.43,2.89a7,7,0,0,0-4,2.34l-9.94,11.87" transform="translate(-64.57 287.39)"/><path class="cls-1" d="M803.66,1194.18l15.18,15.17a11.87,11.87,0,0,0,7.55,3.46,38.5,38.5,0,0,0,6.35-.07,11.81,11.81,0,0,0,6.23-2.57l24.1-19.41a44.74,44.74,0,0,1,6.59-4.4,11.72,11.72,0,0,1,10.66-.19l2.58,1.24a14.88,14.88,0,0,0,18.67-5.51c2.33-3.79,4.73-8.05,16.73-13a4,4,0,0,1,.77-.23c12-2.64,17.39-6.87,33-16.6.27-.17,12.81-8.62,13.17-8.78s4-1.75,5.53-2.39a4.21,4.21,0,0,1,1.21-.3l26.32-2.55a4.09,4.09,0,0,0,.61-.1c13.59-3.53,23.13-14.78,15.15-19.81a4.29,4.29,0,0,1-.93-.77l-9.86-11.51a4.05,4.05,0,0,1-.49-.73c-.84-1.64-3-6.16-4-6.78l-13.23-13.67a10.6,10.6,0,0,0-4.71-2.82c-3.94-1.11-10.64-2.93-10.89-3.18L955.33,1064l-.09-.07c-30.2-16.19,3.57-26.59,27.32-30.9a1.67,1.67,0,0,0,.09-3.26l-25.51-6.25-8.68-2.12a11.39,11.39,0,0,0-1.65-.29L895,1016l-47.39-4.39H814.13l-.15,0-19-7.85-.13,0-34.18-1.75L708,999.28H689.15l-.12,0-34.54-11.37a.44.44,0,0,0-.16,0l-22.68,1.75h-.13l-25.3-6.11a.31.31,0,0,0-.19,0l-25.84,6a.39.39,0,0,0-.29.49l4.12,14a.4.4,0,0,1-.41.51L531.56,1001h-.12l-27.92,6.1a.33.33,0,0,1-.22,0l-9.46-3.44a.41.41,0,0,0-.19,0L461.36,1008a.41.41,0,0,1-.19,0l-22.66-8.71-.15,0L389.3,1001h-.06l-18.35,3.5h-.1l-26.25-1.75h-.09l-41.18,7h-.07l-82.43-1.75h-.12l-32.35,9.62a.39.39,0,0,1-.15,0l-44.61-4.38-.18,0-3.52,1.41a.39.39,0,0,0,0,.71l41.39,22.42,0,0,21.91,14,.06,0,51.72,20.16.09,0,51.83,38.11a2.22,2.22,0,0,1-1.73,4l-27.17-5.09a7,7,0,0,0-7.65,4h0a4,4,0,0,1-4.37,2.33l-20.81-3.59a8.09,8.09,0,0,0-3.1.08l-34.67,7.7a7.66,7.66,0,0,1-6.06-1.2l-3.77-2.63a7.16,7.16,0,0,0-7.64-.35l-19.53,11.15-12.62,7.2c-.71.4-2.65,3.75-2.65,3.75a.4.4,0,0,0,.19.54L182,1149.73a6.25,6.25,0,0,0,2.1.73l25.55,4a9.63,9.63,0,0,1,2.73.85l9.16,4.4a4,4,0,0,0,1.07.34l21.88,4a7.54,7.54,0,0,1,3.1,1.34l17.94,13.26a7.68,7.68,0,0,0,1.87,1l24.54,9.21a4.23,4.23,0,0,0,4.47-1l15.77-15.77a6.31,6.31,0,0,1,3.9-1.83l15.21-1.38a7.43,7.43,0,0,1,3.52.53l13.05,5.37.35.17,33.36,17.47a12.47,12.47,0,0,0,7.09,1.36l19.55-2a10,10,0,0,1,4.23.48l29.77,10.14a14.12,14.12,0,0,0,15.61-4.6l8.17-10.32a11.16,11.16,0,0,1,6-3.89l11.87-3.1a15.25,15.25,0,0,1,9.23.48l9.26,3.47a4.25,4.25,0,0,0,1.32.27l15.87.6a15.62,15.62,0,0,0,11.75-4.67l10.09-10.29a4.18,4.18,0,0,1,1.71-1.06l19.94-6.45a18.19,18.19,0,0,1,16.45,2.7l20.35,15.12a15.47,15.47,0,0,0,6.3,2.78l.08,0,21.9,10.35a9.65,9.65,0,0,0,5.58.79l12.47-3.06a3.09,3.09,0,0,1,3,.88c5.13,5.42,13,11.79,22.9,12.3,18,.91,26.35-18.24,40.39-14.93,13.35,3.15,18.51,23.52,27,21.22a7,7,0,0,0,3.73-2.78,98.81,98.81,0,0,1,18.79-19.4c2.32-1.78,6.47-9.07,11.5-8.26,8.13,1.31,9.84,7.16,16.62,10.91,4.57,2.54,13.67,9.73,33.86-5.2" transform="translate(-64.57 287.39)"/></g></g></g></g></g></svg>