<svg id="CONTENT" xmlns="http://www.w3.org/2000/svg" viewBox="0 0 1027.43 1342.79"><defs><style>.cls-1,.cls-2{stroke:#fff;stroke-width:5px;}.cls-1,.cls-2,.cls-3{stroke-miterlimit:10;}.cls-2{fill:none;}.cls-3{stroke:#000;}</style></defs><g id="MEDIUM"><g id="NEVERCATCH_MEDIUM"><g id="JUNCTION_NEVERCATCH_MEDIUM"><g id="JONCTION_BASSE" data-name="JONCTION BASSE"><g id="Falasie_Droite_Bas" data-name="Falasie Droite Bas"><polygon points="1023.61 668.02 1024.49 1179.42 869.97 1137.28 668.04 664.07 1023.61 668.02"/><polyline class="cls-1" points="678.55 670.97 690.84 680.18 708.59 697.43 708.59 712.36 719.9 729.92 729.86 749.23 759.35 767.23 791.39 771.18 810.27 763.72 832.22 754.06 865.58 759.33 881.38 765.47 885.77 778.2 902.45 783.03 919.13 777.33 927.91 767.23 951.62 783.03 970.49 795.59 995.51 801.47 1015.27 795.59 1024.93 801.47 1024.93 532.82 778.32 524.92 605.71 548.62 531.08 626.76 527.13 651.34 562.69 694.36 599.56 706.65 614.93 744.84 643.46 768.11 659.26 782.15 676.33 792.25 686.04 826.49 706.23 844.05 738.72 871.26 743.98 889.7 761.54 916.04 790.17 962.57 791.39 993.59 817.73 1030.17 832.66 1073.19 843.19 1112.7 870.12 1137.18 870.12 1172.69 878.21 1199.62 893.23 1218.05 919.13 1230.05 953.3 1245.27 980.15 1279.1 1002.1 1293.56 1024.93 1301.9 1024.93 1166.69 1020.54 1165.94 1006.49 1167.84 991.86 1167.84 966.1 1156.89 960.4 1146.5 915.18 1139.65 891.04 1142.11 870.12 1137.18"/><polyline class="cls-2" points="821.08 1039.81 845.39 1049.05 870.12 1049.05 890.16 1065.73 942.84 1069.24 966.1 1061.49 988.93 1069.24 1006.93 1083.29 1020.1 1102.6 1024.93 1104.36 1024.93 987.59 1016.59 987.59 1001.66 982.33 985.86 974.42 977.08 960.38 960.64 949.22 953.37 923.5 950.74 907.7 925.28 894.53 920.89 877.85 890.01 865.56 855.04 865.56 813.78 848.88 808.51 829.56 780.88 814.49 736.52 803.22 724.67 787.42 710.04 788.93 679.02 767.23 658.82 771.62 655.31 776.01"/></g><g id="Falaise_Gauche_Bas" data-name="Falaise Gauche Bas"><polygon class="cls-1" points="2.56 567.93 2.56 1338.92 26.26 1328.23 40.31 1316.82 51.29 1294.43 56.55 1279.1 88.11 1272.19 96.94 1279.1 140.4 1256.24 160.74 1219.49 169.81 1184.52 175.91 1146.35 175.91 1123.15 164.86 1104.36 154.87 1087.01 149.66 1050.95 164.86 1005.3 180.78 994.62 191.32 976.43 200.52 946.26 222.26 933.89 246.17 913.99 261.8 888.24 269.45 867.31 276.9 841.41 313.31 826.78 330.91 815.51 345.1 801.47 351.49 784.06 358.13 773.37 374.81 768.11 388.68 761.23 408.7 751.87 418.7 736.5 412.95 718.5 425.73 701.38 431.88 690.85 428.36 673.29 436.26 665.39 451.19 662.75 454.7 646.07 468.02 635.54 479.28 619.73 358.13 396.74 2.56 567.93"/><path class="cls-1" d="M422.63,1153.12l-19.31-4.39-13.56,2.2-25.8-2.2-7.17-9.65-30.88,7-9.51,14.05L302,1186.63l-30.34,5.12-31.22,7.76-21-8.2-25,11.13-6.15,15.65s-28.09,7.9-30.72,7.9H132.77l-13.9,7-8.34,14.48s-14.78-1.31-16.39,0-16.54-4.83-16.54-4.83l-10.53-6.87" transform="translate(-64.51 -379.75)"/><polyline class="cls-1" points="199.22 947.21 161.47 959.5 146.69 952.88 120.2 959.5 102.21 963.3 79.97 963.3 68.84 954.78 49.09 948.96 38.99 954.78 30.8 964.11 9.58 978.81 2.56 976.45"/><polyline class="cls-1" points="164.86 1005.3 149.66 1017.59 143.91 1029.73 141.28 1045.54 130.74 1057.83 116.69 1073.63 116.69 1093.68 111.42 1114.02 102.21 1122.38 91.23 1131.58 61.87 1138.74 49.97 1138.6 37.68 1156.16 37.68 1173.86 33.73 1188.76 23.78 1196.66 12.66 1196.66 2.56 1196.66"/></g><g id="Socle"><polyline class="cls-3" points="1020.1 425.71 1016.32 426.43 1002.1 432.73 987.17 432.73 979.27 435.37 966.1 450.29 958.2 474 929.23 470.48 910.79 476.63 896.75 467.85 914.3 458.19 919.57 437.12 886.21 414.3 873.04 408.15 848.46 401.13 804.56 401.13 762.31 382.48 717.54 349.12 702.72 346.69 670.24 359.86 647.41 354.6 620.19 322.99 584.2 299.28 563.13 300.16 512.21 328.26 489.38 351.08 467.43 338.79 420.9 355.47 367.35 384.44 316.43 364.25 290.09 372.15 255.85 352.84 188.25 398.49 125.91 421.32 84.65 406.39 56.55 415.17 3 403.76 3 614.47 243.56 714.55 470.06 633.78 499.04 663.63 511.33 661.88 529.76 652.22 633.36 614.47 725.55 672.41 974 744.4 1021.85 573.07"/><polyline class="cls-1" points="597.81 610.08 627.66 609.2 650.48 618.86 665.41 624.12 682.09 641.68 705.94 633.34 721.16 641.68 742.67 658.36 755.98 658.36 771.64 642.56 783.05 639.93 797.98 627.63 804.12 625 814.66 629.39 827.83 640.8 836.61 648.71 845.39 648.71 859.43 640.8 864.85 633.34 874.36 629.39 880.5 626.9 898.06 639.05 912.11 640.8 929.67 630.27 940.2 629.39 952.42 627.2 963.91 619.73 976.2 615.34 985.71 609.2 992 598.66 1003.42 590.76 1011.46 590.76 1024.05 590.76 1024.49 596.03 1024.49 661 1019.66 660.56 992.44 644.75 966.98 633.34 940.64 652.66 918.26 657.92 894.11 679 866.02 672.85 833.53 698.31 824.75 694.8 782.61 705.33 763.3 694.8 751.45 694.8 740.47 687.77 709.74 676.36 698.33 684.26 679.89 696.55 668.48 691.29 652.68 685.14 635.51 668.46 627.22 668.46 624.58 662.75 605.85 650.02 586.83 650.02 576.3 642.12 556.54 633.78"/><path class="cls-2" d="M985.4,816.87l-39.51-26.34c-32.48-21.07-65.13-3.43-79.89-12.29-22-13.17-25.53-9.65-38.63-15.8-31.34-14.71-32.54-34.56-53.56-36.87-20.12-2.22-27.29,15-47.41,13.16-16.85-1.57-27.6-17.54-36.13-31.13a25.09,25.09,0,0,0-6.33-6.82l-22.51-16.66a34.13,34.13,0,0,0-36.7-2.48l-52.85,29L559.42,726a9.84,9.84,0,0,1-14.09,1.22l-7.24-6.3a11.64,11.64,0,0,0-11.8-2.08l-39.22,15.06-50.79,28.61a11.56,11.56,0,0,1-10.77.31L391.14,746a19.64,19.64,0,0,0-15.31-.85l-18.31,6.6a9.5,9.5,0,0,1-8.85-1.29L327.52,734.8a12.75,12.75,0,0,0-14.59-.37l-11,7.25" transform="translate(-64.51 -379.75)"/><path class="cls-1" d="M965.2,847.6s13.17,8.78,14.93,7.9c1.48-.74,14.87-4.59,19.08-5.79a6.28,6.28,0,0,1,2.55-.17l10.85,1.57,5.22,1.5a4.9,4.9,0,0,0,6-3.23l2.8-8.8,3.1-10.07a6.35,6.35,0,0,1,1.35-2.4l9.16-10.36,6.63-5.22a7.39,7.39,0,0,1,7.73-.88l1.66.78a7.38,7.38,0,0,0,4.14.64l8.88-1.18a10.79,10.79,0,0,0,4-1.37l13.08-7.7,3.07-8.78V912.57l-2.19,7-8,10.54L1068.8,943.3l-18.43,8.91a6.48,6.48,0,0,0-3.66,5.84v3.7a7.37,7.37,0,0,1-2.71,5.7l-5.93,4.82L1030.41,983a8.75,8.75,0,0,1-2.78,2.5l-10.58,6a6.48,6.48,0,0,1-3.86.79L1002,991.07a7.89,7.89,0,0,1-5.54-3.19l-6.16-8.4a8.64,8.64,0,0,0-3.66-2.86l-14.89-6.11L959,963a9.22,9.22,0,0,1-1.31-.94l-9.86-8.47a4.19,4.19,0,0,0-4.34-.68L931,958.22,909,960.85l-19.47,9.66-9.34,8.68a7.3,7.3,0,0,1-2.38,1.49l-12.74,4.85a6.45,6.45,0,0,1-7.3-2l-8.47-10.42-6-7-15.39-8a5.33,5.33,0,0,0-5.94.68l-7,6.05a5.26,5.26,0,0,1-3.41,1.26H801.44a8.9,8.9,0,0,1-5.45-1.87L762.4,938" transform="translate(-64.51 -379.75)"/><path class="cls-1" d="M1089.87,976.22" transform="translate(-64.51 -379.75)"/><polyline class="cls-1" points="237.85 540.72 207.12 554.77 179.9 575.84 153.32 559.6 126.35 569.69 110.15 561.35 105.28 553.89 82.45 539.84 62.26 543.35 58.75 553.89 39.43 568.81 27.14 574.08 14.51 571.35 2.56 554.77 2.56 584.18"/><polyline class="cls-1" points="444.17 628.51 418.27 640.37 408.7 648.05 394.56 654.41 372.61 651.78 357.4 662.75 336.62 664.95 316.43 675.48 297.99 686.02 293.6 695.68 276.04 699.19 259.36 707.97 246.78 707.97 231.26 681.63 220.73 679 210.49 668.9 198.78 665.83 189.12 668.9 182.1 671.09 173.32 665.83 158.4 645.63 137.32 629.83 122.4 621.93 110.99 624.56 103.08 630.71 95.18 635.1 85.53 634.22 76.21 626.9 64.45 614.03 58.31 612.27 37.24 598.22 29.34 601.74 18.8 603.49 10.9 607.88 3 614.47 2.56 583.74 11.78 588.57 24.95 586.81 38.99 581.54 49.53 581.54 57.43 579.79 73.23 566.62 83.77 561.35 99.57 566.62 110.99 574.52 120.64 589.45 132.06 594.71 153.13 592.96 166.3 587.69 173.07 595.41 182.1 597.35 194.39 620.17 222.49 613.15 240.92 610.51 254.97 615.78 269.02 615.78 284.82 606.13 311.16 603.49 318.18 598.22 333.98 602.61 352.42 623.68 362.08 621.05 372.61 621.05 399.39 606.57"/><path class="cls-1" d="M255.82,893.25l-20.19,14-8.78,2.63-10.53-.87S204,914.32,204,915.2s-10.54,2.64-10.54,2.64l-5.27-3.52-5.51-7.9-6.78-6.14-5.27-4.39L150.47,888l-7.9-12.3-13.17-7h-16L101.31,847.6l-7.9-8.78-14.93-2.63-8.78-7-2.63-2.63v-43L90.77,787l36,7L155,784.63l24.49,11.17,15.81,5.27" transform="translate(-64.51 -379.75)"/><path class="cls-1" d="M154,824.77c-3.51-3.51-27.6-7-27.6-7l-14.54-9.66L90.77,803.7,77.6,795.8l-10.53-4.93" transform="translate(-64.51 -379.75)"/><line class="cls-1" x1="2.56" y1="447.22" x2="2.56" y2="554.77"/><path class="cls-2" d="M302.36,741.37l-46.49,34.21-.09,0-51.72,20.16-.07,0-21.9,14h0l-41.38,22.42a.4.4,0,0,0,0,.72l3.52,1.4a.29.29,0,0,0,.18,0l44.6-4.37a.42.42,0,0,1,.16,0l32.35,9.62.12,0,82.42-1.76h.08l41.18,7h.09l26.24-1.75h.1l18.36,3.5h.06l49.05,1.75a.29.29,0,0,0,.16,0l22.66-8.72a.41.41,0,0,1,.19,0l32.29,4.36a.31.31,0,0,0,.19,0l9.46-3.43a.31.31,0,0,1,.21,0l27.93,6.11h.11l52.06-3.47a.39.39,0,0,1,.4.5l-4.11,14a.4.4,0,0,0,.29.5l25.84,6h.18l25.31-6.11h.13l22.68,1.74a.37.37,0,0,0,.15,0l34.55-11.37a.25.25,0,0,1,.12,0h18.81l52.68-2.64,34.17-1.75a.28.28,0,0,0,.13,0l19-7.84a.37.37,0,0,1,.15,0h33.45l47.39-4.38,51.84-5.19a11.24,11.24,0,0,0,1.64-.28L958,824.2l25.62-6.45-3.17,16.67a4.71,4.71,0,0,1-1.78,2.86L959.6,851.79a4.69,4.69,0,0,1-3.2.93l-6.34-.53a5.22,5.22,0,0,0-4.13,1.52l-8.82,8.81-9.37,13.28a5.17,5.17,0,0,1-3.13,2.07l-8.24,1.77a5.72,5.72,0,0,0-3.38,2.14L902.08,896.1a4.86,4.86,0,0,1-4.83,1.82l-16.94-3.39a5.35,5.35,0,0,0-3.79.66l-9.4,5.64a6.23,6.23,0,0,1-4.3.8L847.5,899a5.41,5.41,0,0,0-4.52,1.3L837.74,905a6.08,6.08,0,0,1-3.74,1.54l-13.55.68a5.61,5.61,0,0,0-3.3,1.28l-11.25,9.38A7,7,0,0,1,799,919l-7.5-2.81a4.54,4.54,0,0,0-4.81,1l-11.1,11.1-5.68,5.68a5.82,5.82,0,0,1-3.22,1.63l-26.25,4a4.23,4.23,0,0,0-1.58.57l-10.68,6.58L708,965.24l-13,10.69a7,7,0,0,1-4.48,1.61h-12a6,6,0,0,0-3.66,1.23l-6.43,4.91-3,4.18a5.81,5.81,0,0,1-3.78,2.36l-5.48.92A6.47,6.47,0,0,0,652,993.8L644,1005a6.64,6.64,0,0,1-2.66,2.21l-5.14,2.33a6.65,6.65,0,0,1-5.73-.1l-1.83-.92a2.75,2.75,0,0,0-3.63,1.12l-3.11,5.61-6.51,5.78a5.62,5.62,0,0,1-3.26,1.4l-7.19.59a3.72,3.72,0,0,0-2.47,1.23l-6.91,7.68-11.05,3.16a4.15,4.15,0,0,0-2.07,1.34l-2.43,2.92a4.61,4.61,0,0,1-2.88,1.61l-10.54,1.5H564a6,6,0,0,1-4.28-1.8l-25.12-25.77a6.13,6.13,0,0,0-3.28-1.75l-16.29-3a5.57,5.57,0,0,1-2.06-.82l-15.78-10.25a3.68,3.68,0,0,0-1.82-.6l-13.31-.74a5,5,0,0,1-2.71-1L435.83,964a6.09,6.09,0,0,0-4-1.23l-12.32.65a8.13,8.13,0,0,1-4.05-.85l-20.91-10.46L378.3,942a8.2,8.2,0,0,1-3.23-3.73l-3.93-9a2.76,2.76,0,0,0-3.79-1.34L348,938l-2.67,2.22a6.79,6.79,0,0,1-5.89,1.41l-8.12-1.88L311.14,923.1l-20.2-7.9-8.65-7.87a5.57,5.57,0,0,0-2.31-1.26l-10-2.66a8.44,8.44,0,0,1-3.36-1.77l-22.48-19.38a6.74,6.74,0,0,0-3.47-1.58l-14.76-2.11a7.41,7.41,0,0,1-3.14-1.21l-18.53-12.5a4.7,4.7,0,0,0-1.9-.76l-9.75-1.58-22.16-11.93a4.65,4.65,0,0,0-1.41-.5l-14.42-2.89a7,7,0,0,1-4-2.35L140.72,833" transform="translate(-64.51 -379.75)"/><path class="cls-1" d="M981.88,815.12" transform="translate(-64.51 -379.75)"/><path class="cls-1" d="M956.2,783.73" transform="translate(-64.51 -379.75)"/></g><g id="Socle_dessus" data-name="Socle dessus"><polygon class="cls-1" points="202.29 188.66 244.87 156.18 276.04 149.16 293.6 110.53 313.35 110.53 343.64 124.13 368.22 104.38 391.05 70.14 423.53 62.24 444.17 38.97 457.77 3.42 497.55 22.29 536.79 86.82 556.54 79.36 598.25 85.94 626.34 122.82 675.5 122.82 709.3 156.18 751.45 165.84 776.03 172.42 811.15 251.88 571.47 361.62 283.94 353.72 202.29 188.66"/><path class="cls-1" d="M762.4,625.48,795.32,607,816,574.41,855,563.88l29.41,19.46,41.49-11.27,15.83-7.34A44.58,44.58,0,0,1,971.64,562l31.26,8c.33.09.66.18,1,.29l15.3,5.1a17.3,17.3,0,0,0,14.92-1.91l8.48-5.5a17.44,17.44,0,0,1,9.36-5.25l15.2-3.06a12.36,12.36,0,0,1,13.4,6.43l8.89,17.2v56.33l-40.38,35-97.45,22-101.85,1.76s-65.55-48-63.94-48.56S762.4,625.48,762.4,625.48Z" transform="translate(-64.51 -379.75)"/><path class="cls-1" d="M98.23,574.56,114,550,154,545.59l21.07,8.92,22.39-14.19,23.71,21.07,17.56-9.66L256.26,550,280,535.93l39.51,22.83,22.82-.88L377,583.34l31.17,71.11-86.92,40.39L167.45,717.66s-37.61-94.81-39.37-96.57S98.23,574.56,98.23,574.56Z" transform="translate(-64.51 -379.75)"/><polygon class="cls-1" points="160.15 243.1 126.79 219.39 96.94 221.59 91.67 213.25 75.96 199.74 66.21 179.01 46.02 188.03 24.95 177.25 8.27 165.84 3.44 174.76 5.19 262.54 5.19 317.96 53.04 337.91 110.55 335.52 154.88 311.57 163.66 266.8 160.15 243.1"/><polyline points="7.83 267.68 11.61 268.4 25.82 274.7 40.75 274.7 48.65 277.34 61.82 292.26 69.72 315.96 98.69 312.45 117.13 318.6 131.18 309.82 113.62 300.16 108.35 279.09 141.71 256.26 154.88 250.12 179.47 243.1 223.36 243.1 265.61 224.45 310.39 191.09 325.2 188.66 357.69 201.83 380.51 196.56 407.73 164.96 443.73 141.25 464.8 142.13 515.72 170.23 538.54 193.05 560.49 180.76 607.02 197.44 660.58 226.41 711.5 206.22 737.84 214.12 772.08 194.81 839.68 240.46 902.01 263.29 943.28 248.36 971.37 257.14 1024.93 245.73 1024.93 456.44 1009.12 445.02 990.69 440.63 966.1 455.56 943.28 475.75 932.74 478.38 912.55 465.22 902.89 465.22 870.41 487.16 858.99 502.09 847.58 512.63 830.9 508.24 820.37 509.99 808.07 519.65 795.78 524.92 779.98 550.38 753.41 541.45 733.45 536.33 727.3 525.79 691.31 507.36 671.11 504.72 655.31 494.19 628.97 495.07 607.9 481.9 583.32 470.48 557.86 475.75 528.89 505.6 516.6 503.85 498.16 494.19 486.75 485.41 476.21 484.53 469.19 477.51 462.52 481.2 394.56 456.44 302.38 514.38 102.64 496.38 68.25 468.35 6.07 434.93 5.19 415.61"/><polyline class="cls-1" points="430.12 452.05 400.27 451.17 377.44 460.83 362.52 466.09 345.84 483.65 321.99 475.31 306.77 483.65 285.26 500.33 271.94 500.33 256.29 484.53 244.87 481.9 229.95 469.61 223.8 466.97 213.27 471.36 200.1 482.77 191.32 490.68 182.54 490.68 168.49 482.77 163.08 475.31 153.57 471.36 147.42 468.87 129.86 481.02 115.81 482.77 98.26 472.24 87.72 471.36 75.5 469.17 64.02 461.7 51.73 457.31 42.21 451.17 35.92 440.63 24.51 432.73 16.46 432.73 3.88 432.73 3.44 438 3.44 502.97 8.27 502.53 35.48 486.73 60.94 475.31 87.28 494.63 109.67 499.89 133.81 520.97 161.91 514.82 194.39 540.28 203.17 536.77 245.31 547.3 264.63 536.77 276.48 536.77 287.45 529.75 318.18 518.33 329.59 526.23 348.03 538.52 359.44 533.26 375.25 527.11 392.42 510.43 400.71 510.43 403.34 504.72 422.07 491.99 441.09 491.99 451.63 484.09 471.38 475.75"/><path class="cls-2" d="M171.54,658.84l39.51-26.34c32.48-21.07,65.13-3.43,79.89-12.29,21.95-13.17,25.53-9.65,38.63-15.8,31.34-14.71,32.54-34.56,53.56-36.87,20.11-2.22,27.29,15,47.41,13.16,16.85-1.57,27.6-17.54,36.13-31.13a24.93,24.93,0,0,1,6.33-6.82l22.51-16.66a34.13,34.13,0,0,1,36.7-2.48l52.84,29L597.52,568a9.84,9.84,0,0,0,14.09,1.22l7.24-6.3a11.63,11.63,0,0,1,11.8-2.08l39.22,15.06,50.79,28.61a11.56,11.56,0,0,0,10.77.31l34.37-16.88a19.64,19.64,0,0,1,15.31-.85l18.31,6.6a9.5,9.5,0,0,0,8.85-1.29l21.15-15.61A12.75,12.75,0,0,1,844,576.4l11,7.25" transform="translate(-64.51 -379.75)"/><path class="cls-1" d="M191.74,689.57s-13.17,8.78-14.93,7.9c-1.48-.74-14.87-4.59-19.08-5.79a6.31,6.31,0,0,0-2.56-.17l-10.84,1.57-5.22,1.5a4.9,4.9,0,0,1-6-3.23l-2.8-8.8-3.1-10.07a6.35,6.35,0,0,0-1.35-2.4l-9.16-10.36L110,654.5a7.39,7.39,0,0,0-7.73-.88l-1.66.78a7.38,7.38,0,0,1-4.14.64l-8.88-1.18a10.84,10.84,0,0,1-4-1.37l-13.07-7.7L67.51,636V754.54l2.19,7,8,10.54,10.39,13.17,18.43,8.91a6.48,6.48,0,0,1,3.66,5.84v3.7a7.37,7.37,0,0,0,2.71,5.7l5.93,4.82L126.53,825a8.64,8.64,0,0,0,2.78,2.5l10.58,5.95a6.48,6.48,0,0,0,3.86.79L154.9,833a7.89,7.89,0,0,0,5.54-3.19l6.16-8.4a8.64,8.64,0,0,1,3.66-2.86l14.89-6.11L197.92,805a8.6,8.6,0,0,0,1.3-.94l9.87-8.47a4.19,4.19,0,0,1,4.34-.68L226,800.19l21.95,2.63,19.46,9.66,9.34,8.68a7.45,7.45,0,0,0,2.39,1.49l12.74,4.85a6.45,6.45,0,0,0,7.3-2l8.47-10.42,6-7,15.39-8a5.33,5.33,0,0,1,5.94.68l7.05,6.05a5.26,5.26,0,0,0,3.41,1.26H355.5a8.9,8.9,0,0,0,5.45-1.87L394.54,780" transform="translate(-64.51 -379.75)"/><path class="cls-1" d="M67.07,818.19" transform="translate(-64.51 -379.75)"/><polyline class="cls-1" points="790.08 382.69 820.8 396.74 848.02 417.81 874.6 401.56 901.58 411.66 917.77 403.32 922.64 395.86 945.47 381.81 965.66 385.32 969.18 395.86 988.49 410.78 1000.78 416.05 1013.42 413.32 1024.93 396.74 1024.93 427.02"/><polyline class="cls-1" points="583.76 470.48 609.66 482.34 619.23 490.02 633.36 496.38 655.31 493.75 670.53 504.72 691.31 506.92 711.5 517.45 729.94 527.99 734.33 537.65 751.88 541.16 768.57 549.94 781.15 549.94 796.66 523.6 807.2 520.97 817.44 510.87 829.14 507.8 838.8 510.87 845.83 513.06 854.61 507.8 869.53 487.6 890.6 471.8 905.52 463.9 916.94 466.53 924.84 472.68 932.74 477.07 942.4 476.19 951.72 468.87 963.47 456 969.62 454.24 990.69 440.19 998.59 443.71 1009.12 445.46 1017.02 449.85 1024.93 456.44 1024.93 425.71 1016.15 430.54 1002.98 428.78 988.93 423.51 978.39 423.51 970.49 421.76 954.69 408.59 944.15 403.32 928.35 408.59 916.94 416.49 907.28 431.42 895.87 436.68 874.8 434.93 861.63 429.66 854.85 437.38 845.83 439.32 833.53 462.14 805.44 455.12 787 452.49 772.96 457.75 758.91 457.75 743.11 448.1 716.77 445.46 709.74 440.19 693.94 444.58 675.5 465.65 665.85 463.02 655.31 463.02 628.53 448.54"/><path class="cls-1" d="M899.8,735.22l20.19,14,8.78,2.63L939.3,751s12.3,5.26,12.3,6.14,10.53,2.64,10.53,2.64l5.27-3.52,5.51-7.9,6.78-6.14,5.27-4.39,20.19-7.9,7.9-12.3,13.17-7h16l12.15-21.07,7.9-8.78,14.92-2.63,8.78-7,2.64-2.63v-43L1064.85,629l-36,7-28.18-9.41-24.49,11.17L960.38,643" transform="translate(-64.51 -379.75)"/><path class="cls-1" d="M1003,666.74c3.51-3.51,27.6-7,27.6-7l14.54-9.66,21.07-4.39,13.17-7.9,10.53-4.93" transform="translate(-64.51 -379.75)"/><line class="cls-1" x1="1024.49" y1="289.19" x2="1024.49" y2="396.74"/><path class="cls-2" d="M854.58,583.34l46.49,34.21.09.05,51.72,20.16.07,0,21.9,14h0l41.39,22.42a.4.4,0,0,1,0,.72l-3.52,1.4a.29.29,0,0,1-.18,0L967.91,672a.38.38,0,0,0-.15,0l-32.35,9.62-.12,0-82.43-1.76h-.07l-41.18,7h-.09l-26.24-1.75h-.1l-18.36,3.5h-.06l-49.06,1.75a.26.26,0,0,1-.15,0l-22.66-8.72a.41.41,0,0,0-.19,0L662.41,686a.31.31,0,0,1-.19,0l-9.46-3.43a.33.33,0,0,0-.22,0l-27.92,6.11h-.11l-52.06-3.47a.4.4,0,0,0-.41.5l4.12,14a.4.4,0,0,1-.29.5l-25.84,6h-.18l-25.31-6.11h-.13l-22.68,1.74a.43.43,0,0,1-.16,0L467,690.47a.25.25,0,0,0-.12,0H448.09l-52.67-2.64-34.17-1.75a.28.28,0,0,1-.13,0l-19-7.84a.4.4,0,0,0-.15,0H308.48l-47.39-4.38-51.84-5.19a11.37,11.37,0,0,1-1.65-.28l-8.68-2.13-25.62-6.45,3.17,16.67a4.74,4.74,0,0,0,1.77,2.86l19.1,14.51a4.69,4.69,0,0,0,3.2.93l6.34-.53a5.22,5.22,0,0,1,4.13,1.52l8.82,8.81,9.37,13.28a5.17,5.17,0,0,0,3.13,2.07l8.24,1.77a5.75,5.75,0,0,1,3.38,2.14l10.91,14.32a4.85,4.85,0,0,0,4.82,1.82l16.95-3.39a5.35,5.35,0,0,1,3.79.66l9.4,5.64a6.23,6.23,0,0,0,4.3.8l15.32-2.66a5.41,5.41,0,0,1,4.52,1.3L319.2,747a6.08,6.08,0,0,0,3.74,1.54l13.55.68a5.59,5.59,0,0,1,3.29,1.28L351,759.84A7,7,0,0,0,358,761l7.51-2.81a4.54,4.54,0,0,1,4.81,1l11.1,11.1,5.68,5.68a5.82,5.82,0,0,0,3.22,1.63l26.25,4a4.18,4.18,0,0,1,1.57.57l10.69,6.58L449,807.21l13,10.69a7,7,0,0,0,4.47,1.61h12a6,6,0,0,1,3.66,1.23l6.43,4.91,3,4.18a5.78,5.78,0,0,0,3.78,2.36l5.47.92a6.47,6.47,0,0,1,4.25,2.66L512.91,847a6.58,6.58,0,0,0,2.66,2.21l5.14,2.33a6.65,6.65,0,0,0,5.73-.1l1.83-.92a2.75,2.75,0,0,1,3.63,1.12l3.11,5.61,6.5,5.78a5.68,5.68,0,0,0,3.27,1.4L552,865a3.75,3.75,0,0,1,2.47,1.23l6.91,7.68,11,3.16a4.15,4.15,0,0,1,2.07,1.34l2.43,2.92a4.61,4.61,0,0,0,2.88,1.61l10.54,1.5h2.6a6,6,0,0,0,4.28-1.8l25.12-25.77a6.13,6.13,0,0,1,3.28-1.75l16.29-3a5.57,5.57,0,0,0,2.06-.82l15.78-10.25a3.68,3.68,0,0,1,1.82-.6l13.3-.74a4.9,4.9,0,0,0,2.71-1l43.55-32.86a6.09,6.09,0,0,1,4-1.23l12.32.65a8.13,8.13,0,0,0,4-.85L762.4,794l16.24-10a8.2,8.2,0,0,0,3.23-3.73l3.93-9a2.76,2.76,0,0,1,3.79-1.34L808.93,780l2.67,2.22a6.79,6.79,0,0,0,5.89,1.41l8.12-1.88,20.19-16.68,20.2-7.9,8.65-7.87A5.57,5.57,0,0,1,877,748l10-2.66a8.44,8.44,0,0,0,3.36-1.77l22.48-19.38a6.7,6.7,0,0,1,3.47-1.58L931,720.54a7.41,7.41,0,0,0,3.14-1.21l18.53-12.5a4.7,4.7,0,0,1,1.9-.76l9.75-1.58,22.16-11.93a4.69,4.69,0,0,1,1.4-.5l14.43-2.89a7,7,0,0,0,4-2.35l9.94-11.86" transform="translate(-64.51 -379.75)"/><path class="cls-1" d="M175.05,657.09" transform="translate(-64.51 -379.75)"/><path class="cls-1" d="M200.73,625.7" transform="translate(-64.51 -379.75)"/></g></g></g></g></g></svg>