<svg id="CONTENT"
    xmlns="http://www.w3.org/2000/svg" viewBox="0 0 1025 1772.99">
    <defs>
        <style>.cls-1{fill:none;}.cls-1,.cls-2{stroke:#fff;stroke-miterlimit:10;stroke-width:5px;}</style>
    </defs>
    <g id="NEW_MEDIUM" data-name="NEW MEDIUM">
        <g id="NEVERCATCH_MEDIUM">
            <g id="JUNCTION_NEVERCATCH_SMALL">
                <g id="I_JUNCTION_HAUT" data-name="I JUNCTION HAUT">
                    <g id="Falaise_Droite_Haut" data-name="Falaise Droite Haut">
                        <path id="hautfond" d="M925.76,1117.36V1103s4-29.74,6.64-36.77-12.8-17.14-12.8-17.14v-25.2l3.14-19.19-3.14-24.76-3.88-23.45,11.93-41-8-14.06-3.88-22.86V862.29l1.75-21.1,14.93-18.46-6.64-15.67,1.89-45.71,5.62-39.71L925.76,694l-3.9-19.77L927.65,614V593.74L942.05,559l22-5.27,9.66-12.31,22-12.31,28.09-16.7,13.61-33,18.09,16.84,17.92.21V988.3" transform="translate(-48.16 -475.41)"/>
                        <path id="hautbord" class="cls-1" d="M924.91,1117.36V1103s4-29.74,6.63-36.77-12.79-17.14-12.79-17.14v-25.2l3.14-19.19-3.14-24.76-3.89-23.45,11.93-41-8-14.06-3.89-22.86V862.29l1.76-21.1,14.92-18.46-6.63-15.67,1.88-45.71,5.63-39.71L924.91,694,921,674.18,926.79,614V593.74L941.2,559l21.95-5.27,9.65-12.31,22-12.31,28.1-16.7,13.6-33,21.08,16.84h15.79" transform="translate(-48.16 -475.41)"/>
                        <polyline id="middlefond" points="861.44 744.21 861.56 712.56 870.59 696.54 873.73 682.24 870.59 649.27 884.26 633.01 895.68 614.55 907.82 614.55 921.13 589.06 926.4 584.81 950.45 571.52 954.5 554.77 969.42 512.58 980.83 486.21 998.39 481.81 1015.95 485.33 1025.16 472.89 1025.16 616.61"/>
                        <polyline id="middlebord" class="cls-1" points="861.44 744.21 861.56 712.56 870.59 696.54 873.73 682.24 870.59 649.27 884.26 633.01 895.68 614.55 907.82 614.55 921.13 589.06 926.4 584.81 950.45 571.52 954.5 554.77 969.42 512.58 980.83 486.21 998.39 481.81 1009.37 472.89 1025.16 472.89"/>
                        <polyline id="bas" points="825.44 843.98 829.83 800.03 838.17 786.4 842.12 759.59 856.61 739.97 878.64 731.9 891.29 710.36 920.26 694.54 950.45 651.79 967.66 639.16 998.54 630.78 1017.91 618.3 1025.16 601.23 1025.16 886.48"/>
                        <polyline id="bas-2" data-name="bas" class="cls-1" points="825.44 843.98 829.83 800.03 838.17 786.4 842.12 759.59 856.61 739.97 878.64 731.9 891.29 710.36 920.26 694.54 950.45 651.79 967.66 639.16 998.54 630.78 1017.91 601.23 1025.16 601.23"/>
                    </g>
                    <g id="Falaise_Gauche_Haut" data-name="Falaise Gauche Haut">
                        <path d="M204.63,1067.11l8-27.23a10,10,0,0,0,.16-5.36l-5.48-21.91-1.61-42.55,4-40.51a8.87,8.87,0,0,0-.63-4.26l-15.57-37.75-12.61-18.76a4.92,4.92,0,0,1-.85-2.68l-.81-41.2a9.17,9.17,0,0,1,.9-4.12l15.22-31.84a10.65,10.65,0,0,0,1.06-4.64V741.07a4.89,4.89,0,0,0-.27-1.6l-5.06-14.75a15,15,0,0,1-.45-8l5.62-25.41-1.87-17.45A13.56,13.56,0,0,0,191,666.3L182.85,657a17.32,17.32,0,0,1-3-4.88l-9.05-22.31a9.16,9.16,0,0,0-4.25-4.68l-14.13-7.38a13,13,0,0,1-4.94-4.54l-9.92-15.62a12.16,12.16,0,0,0-7.63-5.35l-16-3.56a11.87,11.87,0,0,1-8-6.16L86.8,545.27a20,20,0,0,0-10-9.29L59,526.16l-10.19-2.3V955" transform="translate(-48.16 -475.41)"/>
                        <path class="cls-1" d="M204.63,1067.11l8-27.23a10,10,0,0,0,.16-5.36l-5.48-21.91-1.61-42.55,4-40.51a8.87,8.87,0,0,0-.63-4.26l-15.57-37.75-12.61-18.76a4.92,4.92,0,0,1-.85-2.68l-.81-41.2a9.17,9.17,0,0,1,.9-4.12l15.22-31.84a10.65,10.65,0,0,0,1.06-4.64V741.07a4.89,4.89,0,0,0-.27-1.6l-5.06-14.75a15,15,0,0,1-.45-8l5.62-25.41-1.87-17.45A13.56,13.56,0,0,0,191,666.3L182.85,657a17.32,17.32,0,0,1-3-4.88l-9.05-22.31a9.16,9.16,0,0,0-4.25-4.68l-14.13-7.38a13,13,0,0,1-4.94-4.54l-9.92-15.62a12.16,12.16,0,0,0-7.63-5.35l-16-3.56a11.87,11.87,0,0,1-8-6.16L86.8,545.27A20.25,20.25,0,0,0,76.92,536L56.85,524H48.8" transform="translate(-48.16 -475.41)"/>
                        <polyline class="cls-2" points="156.09 630.78 145.74 627 127.94 622.9 105.99 608.84 89.61 593.16 74.83 582.46 43.66 572.79 26.39 593.16 1.08 605.32"/>
                        <path d="M275.74,1320.27,250.28,1264l-1.6-35.27a6,6,0,0,0-3.15-5l-2.53-1.34a6.38,6.38,0,0,1-3.27-6.75l2.36-13.31a7.26,7.26,0,0,0-.14-3.18l-4.84-17.77-7.52-36a9.57,9.57,0,0,0-1.39-3.31l-23.95-35.87a6.83,6.83,0,0,1-1.13-4.44l2.45-27.18a5.82,5.82,0,0,0-.11-1.72l-6.71-31.23a7.17,7.17,0,0,0-11.33-4.23l-2.48,1.86a3.29,3.29,0,0,1-4.92-1.13l-16.46-32.22a6.06,6.06,0,0,0-3.26-2.9l-25.86-9.62a6.74,6.74,0,0,0-5.25.24l-12.72,6.06a5.71,5.71,0,0,1-5.91-.6L82.65,977.93a7.28,7.28,0,0,1-2.52-3.51l-7.69-23.1a5.63,5.63,0,0,0-1.18-2L48.8,925.58v407.31" transform="translate(-48.16 -475.41)"/>
                        <path class="cls-1" d="M275.74,1320.27,250.28,1264l-1.6-35.27a6,6,0,0,0-3.15-5l-2.53-1.34a6.38,6.38,0,0,1-3.27-6.75l2.36-13.31a7.26,7.26,0,0,0-.14-3.18l-4.84-17.77-7.52-36a9.57,9.57,0,0,0-1.39-3.31l-23.95-35.87a6.83,6.83,0,0,1-1.13-4.44l2.45-27.18a5.82,5.82,0,0,0-.11-1.72l-6.71-31.23a7.17,7.17,0,0,0-11.33-4.23l-2.48,1.86a3.29,3.29,0,0,1-4.92-1.13l-16.46-32.22a6.06,6.06,0,0,0-3.26-2.9l-25.86-9.62a6.74,6.74,0,0,0-5.25.24l-12.72,6.06a5.71,5.71,0,0,1-5.91-.6L82.65,977.93a7.28,7.28,0,0,1-2.52-3.51l-7.69-23.1c-.25-.74-4.39-8.52-4.92-9.1L59,925.58H48.8" transform="translate(-48.16 -475.41)"/>
                        <polyline class="cls-2" points="203.3 791.18 185.19 788.16 178.42 785.96 168.76 781.57 162.62 772.78 149.45 765.74 141.55 760.47 129.26 748.16 119.16 739.75 111.26 738.64 98.53 749.04 82.07 760.62 71.31 756.95 54.63 752.56 45.86 756.07 29.18 770.14 12.49 776.6 0.64 776.6"/>
                    </g>
                    <g id="Socle">
                        <path class="cls-2" d="M123,1927.69c14.82-.31,31.73,0,38.63,2.64,17.07,6.48,20.56,14.65,34.24,14.94,9.46.2,11.6-3.62,24.58-3.52,11.58.09,14.06,3.17,21.07,3.52,25.9,1.3,37-38.33,59.7-36,11.4,1.15,12.95,11.62,22.83,10.55,15.83-1.72,16-29.07,32.48-33.41,13-3.41,18.56,12.06,49.16,22.86,14.94,5.27,23.13,4.13,36,.88,27.52-6.95,32-34.34,51.79-35.16,11.12-.47,18.44-14.07,50.05,29.88,9.19,12.8,16.84,7.93,19.31,7.91,20.17-.11,17.27-20,43.89-19.33,12.74.31,15.52,9.44,29,9.67,13.73.23,18.42-15.84,29.85-14.07,8.29,1.29,7.78,10.07,21.94,22.86,11.21,10.11,22.72,14.72,29.85,17.58,11.1,4.44,17.89,7.16,27.22,7,20.78-.29,37.32-14.46,43-19.34,10.16-8.71,10.87-13.35,17.55-14.94,11.35-2.71,51.66,25.73,60.58,35.16" transform="translate(-48.16 -475.41)"/>
                        <path class="cls-2" d="M193.22,1993.62c32.48-21.1,65.12-3.44,79.89-12.31,21.95-13.19,25.53-9.67,38.63-15.82,31.33-14.73,32.53-34.6,53.55-36.92,20.12-2.22,27.29,15.06,47.41,13.18,18.53-1.73,29.68-20.91,38.62-35.16" transform="translate(-48.16 -475.41)"/>
                        <path class="cls-2" d="M567.21,1913.62,579.68,1929a9.82,9.82,0,0,0,14.08,1.23l7.24-6.31a11.62,11.62,0,0,1,11.8-2.09L652,1936.92l50.78,28.65a11.56,11.56,0,0,0,10.77.31L748,1949a19.59,19.59,0,0,1,15.31-.85l18.3,6.6a9.49,9.49,0,0,0,8.86-1.29l21.15-15.62a12.73,12.73,0,0,1,14.59-.38l11,7.26" transform="translate(-48.16 -475.41)"/>
                        <path class="cls-2" d="M49.24,2118" transform="translate(-48.16 -475.41)"/>
                        <path class="cls-2" d="M49.24,2002" transform="translate(-48.16 -475.41)"/>
                        <path class="cls-2" d="M49.24,1917.14" transform="translate(-48.16 -475.41)"/>
                        <path class="cls-2" d="M155.47,2020.87l3.17,16.68a4.71,4.71,0,0,0,1.77,2.87L179.5,2055a4.68,4.68,0,0,0,3.21.93l6.33-.53a5.23,5.23,0,0,1,4.14,1.52l8.82,8.83,9.37,13.29a5.14,5.14,0,0,0,3.13,2.07l8.24,1.77a5.8,5.8,0,0,1,3.38,2.15L237,2099.32a4.84,4.84,0,0,0,4.82,1.82l17-3.39a5.31,5.31,0,0,1,3.78.65l9.41,5.65a6.2,6.2,0,0,0,4.29.8l15.32-2.66a5.34,5.34,0,0,1,4.52,1.3l5.24,4.72a6,6,0,0,0,3.74,1.55l13.55.68a5.61,5.61,0,0,1,3.3,1.28l11.25,9.39a7,7,0,0,0,6.92,1.18l7.5-2.82a4.54,4.54,0,0,1,4.81,1l11.1,11.12,5.68,5.68a5.73,5.73,0,0,0,3.22,1.63l26.25,4a4.29,4.29,0,0,1,1.58.57l10.68,6.59,20.19,18.46,13,10.69a7,7,0,0,0,4.47,1.61h12a6.05,6.05,0,0,1,3.66,1.24l6.43,4.92,3,4.18a5.88,5.88,0,0,0,3.79,2.37l5.47.91a6.52,6.52,0,0,1,4.25,2.67l7.93,11.25a6.59,6.59,0,0,0,2.67,2.21l5.14,2.34a6.63,6.63,0,0,0,5.72-.11l1.84-.91a2.73,2.73,0,0,1,3.62,1.12l3.12,5.61,6.5,5.79a5.59,5.59,0,0,0,3.26,1.4l7.19.6a3.77,3.77,0,0,1,2.48,1.23l6.91,7.68,11,3.16a4.26,4.26,0,0,1,2.06,1.35l2.44,2.93a4.57,4.57,0,0,0,2.87,1.6l10.55,1.51h2.6a6,6,0,0,0,4.28-1.81l25.12-25.8a6.1,6.1,0,0,1,3.27-1.75l16.29-3a5.57,5.57,0,0,0,2.06-.82l15.78-10.27a3.78,3.78,0,0,1,1.82-.6l13.31-.74a5,5,0,0,0,2.71-1l43.54-32.91a6.14,6.14,0,0,1,4-1.22l12.32.64a8,8,0,0,0,4-.84l20.92-10.47,16.24-10.07a8.26,8.26,0,0,0,3.23-3.73l3.93-9a2.75,2.75,0,0,1,3.79-1.34l19.34,10.07,2.67,2.22a6.78,6.78,0,0,0,5.89,1.41l8.12-1.88,20.19-16.7,20.19-7.91,8.66-7.88a5.53,5.53,0,0,1,2.3-1.26l10-2.66a8.49,8.49,0,0,0,3.35-1.78l22.48-19.41a6.84,6.84,0,0,1,3.47-1.57l14.76-2.11a7.56,7.56,0,0,0,3.14-1.22L934.82,2068a4.83,4.83,0,0,1,1.9-.75l9.75-1.58,22.16-11.95a5,5,0,0,1,1.41-.51l14.42-2.89a7,7,0,0,0,4-2.34l9.94-11.89" transform="translate(-48.16 -475.41)"/>
                        <path class="cls-2" d="M334.56,1856.49l-15.17-15.2a11.86,11.86,0,0,0-7.55-3.45,38.48,38.48,0,0,0-6.35.06,11.93,11.93,0,0,0-6.24,2.58l-24.09,19.43a44.54,44.54,0,0,1-6.59,4.41,11.75,11.75,0,0,1-10.66.19l-2.59-1.25a14.88,14.88,0,0,0-18.67,5.52c-2.32,3.8-4.72,8.06-16.72,13a3.61,3.61,0,0,1-.77.24c-12,2.65-17.39,6.88-33,16.62-.26.17-12.8,8.63-13.16,8.79s-4,1.75-5.53,2.39a4.21,4.21,0,0,1-1.21.3L140,1912.72a4.09,4.09,0,0,0-.61.1c-13.59,3.54-23.12,14.8-15.15,19.83a4.33,4.33,0,0,1,.93.78c1.71,2,8.4,9.82,9.86,11.51a4.13,4.13,0,0,1,.49.74c.84,1.65,3,6.17,4,6.79l13.23,13.68a10.62,10.62,0,0,0,4.71,2.83c3.94,1.11,10.64,2.93,10.89,3.18l14.62,14.64.09.07c30.2,16.21-3.57,26.63-27.32,30.93a1.67,1.67,0,0,0-.09,3.27l25.51,6.26,8.68,2.13a12.92,12.92,0,0,0,1.65.28l51.84,5.19,47.39,4.39H324.1l.15,0,19,7.85a.28.28,0,0,0,.13,0l34.17,1.76,52.67,2.63h18.82l.12,0L483.73,2063a.42.42,0,0,0,.16,0l22.68-1.74a.25.25,0,0,1,.12,0l25.31,6.11a.28.28,0,0,0,.18,0l25.84-6a.39.39,0,0,0,.29-.5l-4.11-14a.39.39,0,0,1,.4-.5l52.06,3.47h.11l27.93-6.11a.41.41,0,0,1,.22,0l9.45,3.44a.31.31,0,0,0,.19,0l32.29-4.36a.41.41,0,0,1,.19,0l22.66,8.72a.4.4,0,0,0,.15,0l49.06-1.75H749l18.35-3.5h.1l26.24,1.75h.1l41.18-7H835l82.42,1.75h.13l32.35-9.63a.36.36,0,0,1,.15,0l44.6,4.38a.29.29,0,0,0,.18,0l3.52-1.41a.39.39,0,0,0,0-.71L957,2013h0l-21.9-14-.07,0-51.71-20.19a.19.19,0,0,1-.09,0l-51.83-38.15a2.22,2.22,0,0,1,1.72-4l27.17,5.11a7,7,0,0,0,7.66-4h0a4,4,0,0,1,4.36-2.34l20.82,3.6a8,8,0,0,0,3.09-.08l34.68-7.71a7.65,7.65,0,0,1,6.05,1.2l3.77,2.63a7.15,7.15,0,0,0,7.65.35l19.53-11.15,12.61-7.21c.71-.4,2.65-3.76,2.65-3.76a.39.39,0,0,0-.19-.54L956.23,1901a6.48,6.48,0,0,0-2.1-.73l-25.55-4a10,10,0,0,1-2.73-.85l-9.16-4.4a3.73,3.73,0,0,0-1.07-.35l-21.88-4a7.41,7.41,0,0,1-3.1-1.34l-17.93-13.27a7.38,7.38,0,0,0-1.87-1l-24.54-9.21a4.21,4.21,0,0,0-4.47,1l-15.77,15.79a6.36,6.36,0,0,1-3.91,1.83l-15.2,1.38a7.43,7.43,0,0,1-3.52-.53l-13-5.38-.35-.17-33.36-17.49a12.56,12.56,0,0,0-7.09-1.37l-19.55,2a10,10,0,0,1-4.23-.48L696,1848.27a14.09,14.09,0,0,0-15.6,4.6l-8.17,10.34a11.22,11.22,0,0,1-6,3.89l-11.87,3.11a15.37,15.37,0,0,1-9.22-.48l-9.26-3.48a4.31,4.31,0,0,0-1.33-.27l-15.87-.6a15.57,15.57,0,0,0-11.74,4.68l-10.09,10.3a4.32,4.32,0,0,1-1.72,1.06l-19.94,6.46a18.2,18.2,0,0,1-16.45-2.71L538.45,1870a15.64,15.64,0,0,0-6.29-2.78s-.06,0-.08,0l-21.9-10.36a9.57,9.57,0,0,0-5.58-.79l-12.47,3.06a3.09,3.09,0,0,1-3-.88c-5.13-5.42-13-11.81-22.9-12.31-18-.92-26.35,18.26-40.39,14.94-13.35-3.16-18.51-23.54-27-21.24a7.07,7.07,0,0,0-3.73,2.78,99.14,99.14,0,0,1-18.79,19.43c-2.31,1.78-6.47,9.07-11.5,8.26-8.12-1.31-9.83-7.16-16.61-10.92-4.58-2.54-13.68-9.74-33.87,5.21" transform="translate(-48.16 -475.41)"/>
                    </g>
                    <g id="Socle-2" data-name="Socle">
                        <polyline points="0.66 857.3 75.28 852.82 220.14 846 294.76 867.97 365 858.3 479.12 883.79 566.04 872.37 661.73 916.19 844.34 897.29 943.54 891.4 1025.16 891.71 1025.16 1228.52 1011.14 1237.91 998.85 1242.31 985.68 1236.15 968.12 1222.97 962.85 1210.66 943.54 1208.02 916.33 1228.24 900.52 1237.91 872.43 1228.24 845.21 1243.19 818.88 1222.97 803.07 1215.06 786.39 1208.9 757.42 1228.24 749.52 1230.88 723.18 1215.94 719.67 1216.82 714.4 1229.12 673.14 1252.86 656.46 1251.1 609.93 1286.26 595.01 1287.14 578.33 1297.69 558.14 1302.08 543.21 1317.03 528.49 1330.21 523.02 1329.33 511.61 1327.57 501.95 1322.3 493.17 1317.9 486.15 1310.87 475.61 1309.99 471.22 1304.72 463.67 1296.3 455.42 1297.69 447.52 1293.29 441.37 1282.74 426.45 1275.71 414.16 1266.92 399.23 1266.04 374.65 1245.82 352.7 1227.36 328.12 1226.48 306.18 1244.94 291.25 1255.49 276.33 1252.86 264.91 1245.82 247.35 1254.61 230.68 1273.07 216.63 1270.44 202.58 1258.13 173.61 1247.58 145.52 1242.31 124.91 1254.65 102.5 1264.28 91.96 1277.47 79.67 1280.11 70.89 1277.47 47.19 1256.37 44.56 1242.31 25.24 1232.64 0.64 1200.99"/>
                        <path class="cls-2" d="M123,1488.17c14.82-.31,31.73,0,38.63,2.64,17.07,6.48,20.56,14.65,34.24,14.94,9.46.2,11.6-3.62,24.58-3.52,11.58.09,14.06,3.17,21.07,3.52,25.9,1.3,37-38.33,59.7-36,11.4,1.15,12.95,11.62,22.83,10.55,15.83-1.72,16-29.07,32.48-33.41,13-3.41,18.56,12.06,49.16,22.86,14.94,5.27,23.13,4.13,36,.88,27.52-6.95,32-34.34,51.79-35.16,11.12-.47,18.44-14.07,50.05,29.88,9.19,12.8,16.84,7.93,19.31,7.91,20.17-.11,17.27-20,43.89-19.33,12.74.3,15.52,9.44,29,9.66,13.73.24,18.42-15.83,29.85-14.06,8.29,1.29,7.78,10.07,21.94,22.86,11.21,10.11,22.72,14.72,29.85,17.58,11.1,4.44,17.89,7.16,27.22,7,20.78-.29,37.32-14.46,43-19.34,10.16-8.71,10.87-13.35,17.55-14.94,11.35-2.71,51.66,25.72,60.58,35.16" transform="translate(-48.16 -475.41)"/>
                        <path class="cls-2" d="M193.22,1554.1c32.48-21.1,65.12-3.44,79.89-12.31,21.95-13.19,25.53-9.67,38.63-15.82,31.33-14.73,32.53-34.6,53.55-36.92,20.12-2.23,27.29,15.06,47.41,13.18,18.53-1.73,29.68-20.91,38.62-35.16" transform="translate(-48.16 -475.41)"/>
                        <path class="cls-2" d="M567.21,1474.1l12.47,15.39a9.81,9.81,0,0,0,14.08,1.22l7.24-6.3a11.62,11.62,0,0,1,11.8-2.09L652,1497.4l50.78,28.65a11.56,11.56,0,0,0,10.77.31l34.37-16.9a19.59,19.59,0,0,1,15.31-.85l18.3,6.6a9.49,9.49,0,0,0,8.86-1.29l21.15-15.62a12.73,12.73,0,0,1,14.59-.38l11,7.26" transform="translate(-48.16 -475.41)"/>
                        <path class="cls-2" d="M49.24,1380.49" transform="translate(-48.16 -475.41)"/>
                        <path class="cls-2" d="M128,1497.24l-14.22-.72-24.58-7.91-19.53-8.71c-1.26-.7-2.84-2.39-4.27-2.28H48.8" transform="translate(-48.16 -475.41)"/>
                        <path d="M737.52,1359.83l35.84-23.65a5.47,5.47,0,0,1,5.7-.2l13.71,7.76a5,5,0,0,0,4.61.17l31.45-14.85,25.66-28.92a5.71,5.71,0,0,1,6.5-1.46l30.17,12.8,35.63,18.31,21,4.11a8.88,8.88,0,0,0,4.4-.25l23.14-7.26,20.19-7.11a8.39,8.39,0,0,1,10.39,4.38l5.37,11.5a7.63,7.63,0,0,0,4.77,4.1l19.13,5.62,15.36,10.82,22.82,5.75v8.79l-14,9.29a9,9,0,0,1-4.79,1.39H1028a9.53,9.53,0,0,1-5.35-1.64l-17-11.6a7,7,0,0,0-7.65-.1l-27.49,17.64a14.69,14.69,0,0,1-6.3,2.24l-36.84,4.18a9.66,9.66,0,0,1-4.61-.59l-28.08-10.89a7.9,7.9,0,0,0-5.19-.17l-37.16,11.6a11.74,11.74,0,0,1-2.12.44l-53.24,5.88a8.43,8.43,0,0,1-5.13-1.07l-17.9-10.31a7.75,7.75,0,0,0-4.51-1l-20.41,1.57" transform="translate(-48.16 -475.41)"/>
                        <path class="cls-1" d="M748.94,1387.08l20.41-1.57a7.75,7.75,0,0,1,4.51,1l17.9,10.31a8.43,8.43,0,0,0,5.13,1.07l53.24-5.88a11.74,11.74,0,0,0,2.12-.44l37.16-11.6a7.9,7.9,0,0,1,5.19.17l28.08,10.89a9.66,9.66,0,0,0,4.61.59l36.84-4.18a14.69,14.69,0,0,0,6.3-2.24l27.49-17.64a7,7,0,0,1,7.65.1l17,11.6a9.53,9.53,0,0,0,5.35,1.64h45.35" transform="translate(-48.16 -475.41)"/>
                        <path class="cls-1" d="M1073.32,1380.92" transform="translate(-48.16 -475.41)"/>
                        <path class="cls-1" d="M737.52,1359.83l35.84-23.65a5.47,5.47,0,0,1,5.7-.2l13.71,7.76a5,5,0,0,0,4.61.17l31.45-14.85,25.66-28.92a5.71,5.71,0,0,1,6.5-1.46l30.17,12.8,35.63,18.31,21,4.11a8.88,8.88,0,0,0,4.4-.25l23.14-7.26,20.19-7.11a8.39,8.39,0,0,1,10.39,4.38l5.37,11.5a7.63,7.63,0,0,0,4.77,4.1l19.13,5.62,21.44,10.82h16.74" transform="translate(-48.16 -475.41)"/>
                        <path class="cls-2" d="M944.71,1565.52l6.67-18.35a5.14,5.14,0,0,1,1.06-1.75l9.82-10.58a6.89,6.89,0,0,0,1.36-2.18l7.58-19.59,12.41-22.89a4.4,4.4,0,0,0,.51-2.41L983,1473.06" transform="translate(-48.16 -475.41)"/>
                        <path class="cls-2" d="M1073.32,1455.62h-12.67l-15.86,6.18-11.31,3a6.33,6.33,0,0,0-3.13,1.93l-18.5,21a6.12,6.12,0,0,1-.92.84L995,1500.3a4.79,4.79,0,0,1-1.55.77l-18.91,5.56" transform="translate(-48.16 -475.41)"/>
                        <path class="cls-2" d="M1071.13,1370.82" transform="translate(-48.16 -475.41)"/>
                        <path class="cls-2" d="M173.9,1611.23s-13.17,8.79-14.92,7.91c-1.48-.73-14.87-4.59-19.08-5.79a6.14,6.14,0,0,0-2.56-.17l-10.84,1.57-5.22,1.5a4.9,4.9,0,0,1-6-3.24l-2.8-8.81-3.1-10.07a6.43,6.43,0,0,0-1.35-2.42l-9.16-10.36-6.63-5.23a7.37,7.37,0,0,0-7.73-.88l-1.66.78a7.38,7.38,0,0,1-4.14.64l-8.88-1.18c-1.4-.19-3.19-8.36-4.41-9.08H48.8" transform="translate(-48.16 -475.41)"/>
                        <path class="cls-2" d="M49.24,1678.48" transform="translate(-48.16 -475.41)"/>
                        <path class="cls-2" d="M985.1,1588.38c3.51-3.52,27.6-7,27.6-7l14.54-9.67,21.07-4.4,13.16-7.91h11.85" transform="translate(-48.16 -475.41)"/>
                        <path class="cls-2" d="M1071.13,1449.79" transform="translate(-48.16 -475.41)"/>
                        <path class="cls-2" d="M1071.13,1548.25" transform="translate(-48.16 -475.41)"/>
                        <path class="cls-2" d="M49.24,1562.45" transform="translate(-48.16 -475.41)"/>
                        <path class="cls-2" d="M48.8,1477.62" transform="translate(-48.16 -475.41)"/>
                        <polyline class="cls-2" points="1025.16 1071.51 1000.15 1071.51 964.15 1082.2 935.97 1072.77 911.48 1083.96 898.31 1084.84"/>
                        <path class="cls-2" d="M883.26,1656.94,903.45,1671l8.78,2.64,10.53-.88s12.29,5.27,12.29,6.15,10.54,2.64,10.54,2.64l5.27-3.52,5.51-7.91,6.78-6.15,5.27-4.4,20.19-7.91,7.9-12.31,13.17-7h16l12.14-21.1,7.9-8.79,14.93-9.67h12.72" transform="translate(-48.16 -475.41)"/>
                        <path class="cls-2" d="M48.8,1299H63a58.06,58.06,0,0,1,4.48,3.79l15,8.1a4.94,4.94,0,0,0,4.18.89l21.57-5.21a4.56,4.56,0,0,1,3.06.33l25.3,12.29a5.93,5.93,0,0,0,4.51.27l12.21-4.18a4.93,4.93,0,0,1,4.12.43l22.65,13.53a5.05,5.05,0,0,0,5.2,0l28.13-16.9,25.51-12a6.35,6.35,0,0,1,5.21-.09l16.19,7a7.43,7.43,0,0,0,3.26.58l5.26-.28,7.45-.4a6.46,6.46,0,0,1,2.35.32l36.21,12.36a7.29,7.29,0,0,1,2.31,1.32l20.18,17.21a6.19,6.19,0,0,0,5.65,1.27l23.91-6.53a7.37,7.37,0,0,0,3.29-1.92l12.52-12.53a7.44,7.44,0,0,1,4.56-2.14l7-.63,33.29,5.69a7.71,7.71,0,0,0,5.09-.89l10.56-5.94a6.47,6.47,0,0,0,1.89-1.6l10.59-13.1a8,8,0,0,1,8.86-2.52l36.1,12.67a8.9,8.9,0,0,0,2.39.48l29.65,1.58a9.25,9.25,0,0,1,3.85,1.07l39.18,20.91a3.76,3.76,0,0,0,2.55.37l17.06-3.43a5.19,5.19,0,0,0,2.9-1.69l14.91-17.17a3.24,3.24,0,0,1,3.6-.89l13.69,5.33L658.67,1333a5.36,5.36,0,0,0,1.52.6l24.54,5.74a5.13,5.13,0,0,1,1.83.82l11.46,8.2,10.19,3.52h15.44a7.8,7.8,0,0,1,4.48,1.41l15.54,10.89,7.41,2.65a5.16,5.16,0,0,1,3.11,6.62l-4.31,11.86a9.08,9.08,0,0,1-3.18,4.25l-33.76,24.73" transform="translate(-48.16 -475.41)"/>
                        <path class="cls-2" d="M692.75,1408.18l-45.18-29a14.12,14.12,0,0,0-2.86-1.42l-58.39-21.22a12.55,12.55,0,0,0-12.45.54l-17.64,11.12-33.59,15.7a16.08,16.08,0,0,1-12.07.63l-19.3-6.66L457,1362l-12.27-13.89a15.13,15.13,0,0,0-18.48-3.33l-9.51,5.08a13.5,13.5,0,0,1-12.57.06l-14.82-7.75a12.88,12.88,0,0,0-11.66-.13l-19,9.41L336.76,1362l-12.1-1.06a11.8,11.8,0,0,1-10.33-8.52l-1.28-4.49-17.56-19.34-23-3.39a11.88,11.88,0,0,0-11.08,4.43l-5.4,6.87-27.22,15-5.13,8.42a12.23,12.23,0,0,1-13,5.58l-28.4-6.09-22.82-8.79-20.3-10.49a10.34,10.34,0,0,0-12.27,2.08l-10.45,11-13.69,12.46a10.68,10.68,0,0,1-12.3,1.47l-6.75-3.69a10.71,10.71,0,0,0-11.35.69l-13,9.28H48.8" transform="translate(-48.16 -475.41)"/>
                        <path class="cls-2" d="M155.47,1581.35l3.17,16.68a4.74,4.74,0,0,0,1.77,2.87l19.09,14.52a4.69,4.69,0,0,0,3.21.94l6.33-.53a5.23,5.23,0,0,1,4.14,1.52l8.82,8.83,9.37,13.29a5.14,5.14,0,0,0,3.13,2.07l8.24,1.77a5.8,5.8,0,0,1,3.38,2.15L237,1659.8a4.84,4.84,0,0,0,4.82,1.82l17-3.39a5.31,5.31,0,0,1,3.78.65l9.41,5.65a6.2,6.2,0,0,0,4.29.8l15.32-2.66a5.34,5.34,0,0,1,4.52,1.3l5.24,4.72a6,6,0,0,0,3.74,1.55l13.55.68a5.61,5.61,0,0,1,3.3,1.28l11.25,9.39a7,7,0,0,0,6.92,1.18l7.5-2.82a4.54,4.54,0,0,1,4.81,1l11.1,11.12,5.68,5.68a5.73,5.73,0,0,0,3.22,1.63l26.25,4a4.5,4.5,0,0,1,1.58.58l10.68,6.59L431.13,1729l13,10.69a7,7,0,0,0,4.47,1.61h12a6.05,6.05,0,0,1,3.66,1.24l6.43,4.91,3,4.19a5.88,5.88,0,0,0,3.79,2.37l5.47.91a6.52,6.52,0,0,1,4.25,2.67l7.93,11.25a6.59,6.59,0,0,0,2.67,2.21l5.14,2.34a6.63,6.63,0,0,0,5.72-.11l1.84-.91a2.73,2.73,0,0,1,3.62,1.12l3.12,5.61,6.5,5.79a5.59,5.59,0,0,0,3.26,1.4l7.19.6a3.77,3.77,0,0,1,2.48,1.23l6.91,7.68,11,3.16a4.19,4.19,0,0,1,2.06,1.35l2.44,2.93a4.57,4.57,0,0,0,2.87,1.6l10.55,1.51h2.6a6,6,0,0,0,4.28-1.81l25.12-25.8a6.1,6.1,0,0,1,3.27-1.75l16.29-3a5.75,5.75,0,0,0,2.06-.82L641.88,1763a3.78,3.78,0,0,1,1.82-.6l13.31-.74a5,5,0,0,0,2.71-1l43.54-32.91a6.08,6.08,0,0,1,4-1.22l12.32.64a8,8,0,0,0,4-.84l20.92-10.47,16.24-10.07A8.31,8.31,0,0,0,764,1702l3.93-9a2.75,2.75,0,0,1,3.79-1.33l19.34,10.06,2.67,2.23a6.78,6.78,0,0,0,5.89,1.41l8.12-1.88,20.19-16.7,20.19-7.91,8.66-7.88a5.53,5.53,0,0,1,2.3-1.26l10-2.66a8.62,8.62,0,0,0,3.35-1.78l22.48-19.41a6.84,6.84,0,0,1,3.47-1.57l14.76-2.12a7.41,7.41,0,0,0,3.14-1.21l18.53-12.52a4.83,4.83,0,0,1,1.9-.75l9.75-1.58,22.16-12a5,5,0,0,1,1.41-.51l14.42-2.89a7,7,0,0,0,4-2.34l9.94-11.89" transform="translate(-48.16 -475.41)"/>
                        <path class="cls-2" d="M334.56,1417l-15.17-15.2a11.86,11.86,0,0,0-7.55-3.45,38.48,38.48,0,0,0-6.35.06,11.93,11.93,0,0,0-6.24,2.58l-24.09,19.43a44.54,44.54,0,0,1-6.59,4.41,11.75,11.75,0,0,1-10.66.19l-2.59-1.25a14.88,14.88,0,0,0-18.67,5.52c-2.32,3.8-4.72,8.06-16.72,13a3.61,3.61,0,0,1-.77.24c-12,2.65-17.39,6.87-33,16.62-.26.17-12.8,8.63-13.16,8.79s-4,1.75-5.53,2.39a4.21,4.21,0,0,1-1.21.3L140,1473.19a4.1,4.1,0,0,0-.61.11c-13.59,3.53-23.12,14.8-15.15,19.83a4.33,4.33,0,0,1,.93.78c1.71,2,8.4,9.82,9.86,11.51a4.13,4.13,0,0,1,.49.74c.84,1.65,3,6.16,4,6.79l13.23,13.68a10.62,10.62,0,0,0,4.71,2.83c3.94,1.11,10.64,2.93,10.89,3.18l14.62,14.64.09.07c30.2,16.21-3.57,26.62-27.32,30.93a1.67,1.67,0,0,0-.09,3.27l25.51,6.26,8.68,2.13a12.92,12.92,0,0,0,1.65.28l51.84,5.19,47.39,4.39H324.1l.15,0,19,7.85a.28.28,0,0,0,.13,0l34.17,1.76,52.67,2.63h18.82l.12,0,34.54,11.39a.42.42,0,0,0,.16,0l22.68-1.74a.25.25,0,0,1,.12,0l25.31,6.11a.28.28,0,0,0,.18,0l25.84-6a.39.39,0,0,0,.29-.5l-4.11-14a.39.39,0,0,1,.4-.5l52.06,3.47h.11l27.93-6.11a.33.33,0,0,1,.22,0l9.45,3.44a.31.31,0,0,0,.19,0l32.29-4.36a.31.31,0,0,1,.19,0l22.66,8.72.15,0,49.06-1.75H749l18.35-3.5h.1l26.24,1.75h.1l41.18-7H835l82.42,1.76a.27.27,0,0,0,.13,0l32.35-9.63h.15l44.6,4.38a.38.38,0,0,0,.18,0l3.52-1.41a.39.39,0,0,0,0-.71L957,1573.44h0l-21.9-14-.07,0-51.71-20.19a.19.19,0,0,1-.09-.05L831.39,1501a2.22,2.22,0,0,1,1.72-4l27.17,5.1a7,7,0,0,0,7.66-4h0a4,4,0,0,1,4.36-2.34l20.82,3.6a8,8,0,0,0,3.09-.08l34.68-7.71a7.65,7.65,0,0,1,6.05,1.2l3.77,2.63a7.15,7.15,0,0,0,7.65.35l19.53-11.16,12.61-7.2c.71-.41,2.65-3.76,2.65-3.76a.39.39,0,0,0-.19-.54l-26.73-11.59a6.25,6.25,0,0,0-2.1-.73l-25.55-4a10,10,0,0,1-2.73-.85l-9.16-4.41a4,4,0,0,0-1.07-.34l-21.88-4a7.41,7.41,0,0,1-3.1-1.34l-17.93-13.27a7.38,7.38,0,0,0-1.87-1l-24.54-9.21a4.19,4.19,0,0,0-4.47,1l-15.77,15.78a6.37,6.37,0,0,1-3.91,1.84l-15.2,1.38a7.43,7.43,0,0,1-3.52-.53l-13-5.38-.35-.17-33.36-17.49a12.47,12.47,0,0,0-7.09-1.37l-19.55,2a10,10,0,0,1-4.23-.48L696,1408.75a14.09,14.09,0,0,0-15.6,4.6l-8.17,10.34a11.22,11.22,0,0,1-6,3.89l-11.87,3.11a15.37,15.37,0,0,1-9.22-.48l-9.26-3.48a4.31,4.31,0,0,0-1.33-.27l-15.87-.6a15.6,15.6,0,0,0-11.74,4.67l-10.09,10.31a4.32,4.32,0,0,1-1.72,1.06l-19.94,6.46a18.2,18.2,0,0,1-16.45-2.71l-20.35-15.14a15.64,15.64,0,0,0-6.29-2.78s-.06,0-.08,0l-21.9-10.36a9.57,9.57,0,0,0-5.58-.79l-12.47,3.06a3.09,3.09,0,0,1-3-.88c-5.13-5.42-13-11.81-22.9-12.31-18-.92-26.35,18.26-40.39,14.94-13.35-3.16-18.51-23.54-27-21.24a7.07,7.07,0,0,0-3.73,2.78,99.14,99.14,0,0,1-18.79,19.43c-2.31,1.78-6.47,9.07-11.5,8.26-8.12-1.31-9.83-7.16-16.61-10.92-4.58-2.54-13.68-9.74-33.87,5.21" transform="translate(-48.16 -475.41)"/>
                    </g>
                    <g id="Socle-3" data-name="Socle">
                        <polyline points="1025.16 1541.15 951.65 1563.13 806.8 1578.95 732.18 1556.98 661.94 1566.65 547.82 1541.15 460.9 1552.58 365.21 1508.76 182.6 1527.66 83.4 1533.55 0.64 1531.92 0.16 1096.23 14.62 1098.37 50.41 1166.64 73.88 1179.44 58.82 1201.98 64.08 1214.29 83.4 1216.92 110.61 1196.71 126.42 1187.04 154.51 1196.71 181.72 1181.76 208.06 1201.98 223.87 1209.89 240.54 1216.05 269.52 1196.71 277.42 1194.07 303.75 1209.01 307.27 1208.13 312.53 1195.83 353.8 1172.09 370.48 1173.85 417.01 1138.69 431.93 1137.81 448.61 1127.26 468.8 1122.87 483.73 1107.92 498.45 1094.74 503.92 1095.62 515.33 1097.38 524.99 1102.65 533.77 1107.05 540.79 1114.08 551.33 1114.96 555.72 1120.23 563.27 1128.65 571.52 1127.26 579.42 1131.66 585.57 1142.21 600.49 1149.24 612.78 1158.03 627.71 1158.91 652.29 1179.13 674.23 1197.59 698.82 1198.46 720.76 1180.01 735.69 1169.46 750.61 1172.09 762.03 1179.13 779.58 1170.34 796.26 1151.88 810.31 1154.51 824.36 1166.82 853.33 1177.37 881.42 1182.64 902.03 1170.3 924.44 1160.67 934.97 1147.48 947.26 1144.84 956.04 1147.48 979.75 1168.58 982.38 1182.64 1001.7 1192.31 1005.11 1230.65 1025.16 1223.96"/>
                        <path class="cls-2" d="M997,1887.79c-14.82.31-31.73,0-38.63-2.64-17.07-6.48-20.56-14.65-34.24-14.94-9.45-.2-11.6,3.62-24.58,3.51-11.58-.09-14.06-3.16-21.07-3.51-25.9-1.31-37,38.33-59.7,36-11.4-1.15-13-11.62-22.82-10.55-15.84,1.72-16,29.07-32.49,33.4-13,3.42-18.55-12-49.16-22.85-14.94-5.27-23.13-4.13-36-.88-27.52,7-32,34.34-51.79,35.16-11.12.46-18.44,14.07-50-29.89-9.2-12.79-16.85-7.92-19.32-7.91-20.17.11-17.26,20-43.89,19.34-12.74-.31-15.52-9.44-29-9.67-13.74-.23-18.43,15.84-29.85,14.07-8.3-1.29-7.79-10.07-21.95-22.86-11.21-10.12-22.71-14.72-29.85-17.58-11.1-4.44-17.89-7.16-27.22-7-20.78.28-37.31,14.45-43,19.34-10.17,8.71-10.88,13.35-17.56,14.94-11.35,2.71-51.66-25.73-60.58-35.16" transform="translate(-48.16 -475.41)"/>
                        <path class="cls-2" d="M926.71,1821.86c-32.48,21.1-65.12,3.44-79.89,12.31-21.94,13.18-25.52,9.66-38.62,15.82-31.34,14.73-32.54,34.6-53.56,36.92-20.11,2.22-27.29-15.06-47.4-13.19-18.54,1.74-29.69,20.91-38.63,35.17" transform="translate(-48.16 -475.41)"/>
                        <path class="cls-2" d="M552.72,1901.85l-12.46-15.38a9.83,9.83,0,0,0-14.09-1.23l-7.24,6.31a11.62,11.62,0,0,1-11.8,2.08l-39.22-15.07-50.79-28.66a11.54,11.54,0,0,0-10.76-.3L372,1866.5a19.62,19.62,0,0,1-15.32.85l-18.3-6.6a9.47,9.47,0,0,0-8.85,1.29l-21.15,15.62a12.71,12.71,0,0,1-14.59.37l-11-7.26" transform="translate(-48.16 -475.41)"/>
                        <path class="cls-2" d="M991.94,1878.71l14.23.73,24.58,7.91,20,11.23a7.33,7.33,0,0,0,4.12.91h18.43" transform="translate(-48.16 -475.41)"/>
                        <path d="M382.41,2016.13l-35.84,23.65a5.46,5.46,0,0,1-5.7.2l-13.71-7.76a5,5,0,0,0-4.6-.17l-31.45,14.85-25.67,28.91a5.7,5.7,0,0,1-6.5,1.47l-30.17-12.8-35.63-18.32-21-4.1a9,9,0,0,0-4.4.24l-23.14,7.27-20.18,7.1a8.39,8.39,0,0,1-10.4-4.37l-5.37-11.51a7.63,7.63,0,0,0-4.77-4.1l-19.12-5.62-13-15.63-23-.93v-8.79l11.86-9.3a8.91,8.91,0,0,1,4.78-1.39H92a9.57,9.57,0,0,1,5.36,1.65l17,11.59a7,7,0,0,0,7.66.11l27.49-17.65a14.78,14.78,0,0,1,6.29-2.24l36.84-4.18a9.77,9.77,0,0,1,4.61.6l28.08,10.88a7.84,7.84,0,0,0,5.19.18l37.16-11.6a11,11,0,0,1,2.12-.45L323,1978a8.43,8.43,0,0,1,5.13,1.08l17.9,10.31a7.82,7.82,0,0,0,4.51,1l20.42-1.57" transform="translate(-48.16 -475.41)"/>
                        <path class="cls-1" d="M48.8,1996.24H92a10.36,10.36,0,0,1,5.43,2.13l17,9.9a7,7,0,0,0,7.66.11l27.49-17.65a14.78,14.78,0,0,1,6.29-2.24l36.84-4.18a9.77,9.77,0,0,1,4.61.6l28.08,10.88a7.84,7.84,0,0,0,5.19.18l37.16-11.6a11,11,0,0,1,2.12-.45L323,1978a8.43,8.43,0,0,1,5.13,1.08l17.9,10.31a7.82,7.82,0,0,0,4.51,1l20.42-1.57" transform="translate(-48.16 -475.41)"/>
                        <path class="cls-1" d="M382.41,2016.13l-35.84,23.65a5.46,5.46,0,0,1-5.7.2l-13.71-7.76a5,5,0,0,0-4.6-.17l-31.45,14.85-25.67,28.91a5.7,5.7,0,0,1-6.5,1.47l-30.17-12.8-35.63-18.32-21-4.1a9,9,0,0,0-4.4.24l-23.14,7.27-20.18,7.1a8.39,8.39,0,0,1-10.4-4.37l-5.37-11.51a7.63,7.63,0,0,0-4.77-4.1l-19.12-5.62-15.37-16.56H48.8" transform="translate(-48.16 -475.41)"/>
                        <path class="cls-2" d="M175.22,1810.43l-6.67,18.36a5.07,5.07,0,0,1-1.06,1.75l-9.82,10.58a6.85,6.85,0,0,0-1.36,2.18l-7.57,19.59-12.41,22.89a4.3,4.3,0,0,0-.51,2.41L137,1902.9" transform="translate(-48.16 -475.41)"/>
                        <path class="cls-2" d="M48.8,1925.83H61.12c.14-.07,6.26-6.35,6.4-6.4l7.62-5.27,11.31-3a6.35,6.35,0,0,0,3.13-1.94l18.51-20.94a5.57,5.57,0,0,1,.91-.84l15.91-11.77a5,5,0,0,1,1.55-.76l18.91-5.56" transform="translate(-48.16 -475.41)"/>
                        <path class="cls-2" d="M48.8,2005.14" transform="translate(-48.16 -475.41)"/>
                        <path class="cls-2" d="M1073.32,1699.66h-7.25l-6.06-17.57-10.39-13.18-18.43-8.92a6.5,6.5,0,0,1-3.66-5.85v-3.71a7.36,7.36,0,0,0-2.71-5.7l-5.92-4.83-7.67-10.75a8.54,8.54,0,0,0-2.78-2.5l-10.58-6a6.49,6.49,0,0,0-3.86-.8l-11.14,1.17a7.92,7.92,0,0,0-5.55,3.19l-6.16,8.42a8.58,8.58,0,0,1-3.66,2.86l-14.89,6.12-12.76,7.5a8.63,8.63,0,0,0-1.31.93l-9.87,8.49a4.19,4.19,0,0,1-4.34.68l-12.54-5.3-21.95-2.63-19.46-9.67L861,1633a7.21,7.21,0,0,0-2.39-1.48l-12.74-4.86a6.43,6.43,0,0,0-7.29,2L830.14,1639l-6,7-15.38,8a5.35,5.35,0,0,1-5.94-.69l-7.05-6a5.22,5.22,0,0,0-3.41-1.27H782.27a8.85,8.85,0,0,0-5.45,1.88l-32.71,28.15" transform="translate(-48.16 -475.41)"/>
                        <path class="cls-2" d="M946,1764.72s13.17-8.79,14.92-7.91c1.48.74,14.87,4.59,19.08,5.8a6.31,6.31,0,0,0,2.56.17l10.85-1.57,5.21-1.5a4.9,4.9,0,0,1,6,3.23l2.8,8.82,3.1,10.07a6.46,6.46,0,0,0,1.35,2.41l9.16,10.37,6.63,5.23a7.42,7.42,0,0,0,7.73.88l1.66-.78a7.48,7.48,0,0,1,4.14-.65l8.88,1.19a10.72,10.72,0,0,1,4,1.37l19.21,7.7" transform="translate(-48.16 -475.41)"/>
                        <path class="cls-2" d="M1070.69,1697.48" transform="translate(-48.16 -475.41)"/>
                        <polyline class="cls-2" points="0.64 1198.03 11.71 1198.03 24.35 1182.94 36.64 1188.22 55.95 1203.16 59.46 1213.71 79.66 1217.23 102.48 1203.16 107.35 1195.69 123.55 1187.34 150.52 1197.45 177.1 1181.19 204.32 1202.28 235.05 1216.35"/>
                        <path class="cls-2" d="M48.8,1785.38" transform="translate(-48.16 -475.41)"/>
                        <path class="cls-2" d="M1070.69,1813.51" transform="translate(-48.16 -475.41)"/>
                        <polyline class="cls-2" points="0.64 1350.13 23.47 1349.96 59.46 1342.93 87.64 1352.36 112.14 1341.17 125.31 1340.29"/>
                        <path class="cls-2" d="M236.67,1719,216.48,1705l-8.78-2.64-10.53.88s-12.29-5.27-12.29-6.15-10.54-2.64-10.54-2.64l-5.26,3.52-5.52,7.91-6.78,6.15-5.26,4.4-20.2,7.91-7.9,12.3-13.17,7H94.31l-12.15,21.09-7.9,8.79-14.92,9.67H48.8" transform="translate(-48.16 -475.41)"/>
                        <path d="M427.18,1967.78l45.18,29a14.66,14.66,0,0,0,2.86,1.42l58.4,21.22a12.56,12.56,0,0,0,12.44-.54l17.64-11.12,33.6-15.7a16.07,16.07,0,0,1,12.07-.63l19.29,6.66,34.24,15.82,12.27,13.89a15.14,15.14,0,0,0,18.48,3.33l9.51-5.08a13.44,13.44,0,0,1,12.57-.06l14.83,7.75a12.88,12.88,0,0,0,11.66.13l19-9.41,21.95-10.55,12.1,1a11.81,11.81,0,0,1,10.32,8.53l1.28,4.49,17.56,19.33,23,3.4a11.9,11.9,0,0,0,11.09-4.43l5.39-6.88,27.22-14.94,5.14-8.42a12.21,12.21,0,0,1,13-5.58l28.4,6.09,22.82,8.79,20.31,10.49a10.33,10.33,0,0,0,12.26-2.08l10.45-11,13.69-12.46a10.66,10.66,0,0,1,12.3-1.47l6.75,3.68a10.71,10.71,0,0,0,11.35-.68l13-9.29,12.72-7.47v75.25l-16.43,6.66a3.26,3.26,0,0,1-4,0l-15.41-11.92a4.93,4.93,0,0,0-4.18-.9l-21.56,5.22a4.65,4.65,0,0,1-3.07-.33l-25.3-12.29a5.91,5.91,0,0,0-4.5-.27l-12.22,4.18a4.91,4.91,0,0,1-4.11-.43l-22.66-13.54a5.05,5.05,0,0,0-5.2,0l-28.13,16.9-25.5,12a6.42,6.42,0,0,1-5.22.09l-16.19-6.95a7.29,7.29,0,0,0-3.26-.58l-5.26.28-7.45.4a6.26,6.26,0,0,1-2.35-.33l-36.2-12.36a7.06,7.06,0,0,1-2.31-1.31l-20.19-17.22a6.17,6.17,0,0,0-5.64-1.26L753,2042.86a7.45,7.45,0,0,0-3.29,1.91l-12.52,12.54a7.34,7.34,0,0,1-4.55,2.13l-7,.64-33.29-5.69a7.71,7.71,0,0,0-5.09.88l-10.56,5.95a6.47,6.47,0,0,0-1.89,1.6l-10.59,13.09a8,8,0,0,1-8.86,2.52l-36.1-12.67a8.52,8.52,0,0,0-2.39-.47l-29.65-1.58a9.26,9.26,0,0,1-3.85-1.08l-39.18-20.9a3.8,3.8,0,0,0-2.54-.38l-17.06,3.44a5.15,5.15,0,0,0-2.91,1.69l-14.91,17.16a3.2,3.2,0,0,1-3.6.89l-13.69-5.33-28.25-16.29a6,6,0,0,0-1.52-.6l-24.54-5.73a4.86,4.86,0,0,1-1.82-.83l-11.47-8.19L411.72,2024H396.29a7.77,7.77,0,0,1-4.49-1.42l-15.54-10.89-7.41-2.65a5.16,5.16,0,0,1-3.11-6.62l4.31-11.85a9.14,9.14,0,0,1,3.18-4.25L407,1961.63" transform="translate(-48.16 -475.41)"/>
                        <path class="cls-1" d="M1073.32,2070.92H1066l-9.13,6a3.26,3.26,0,0,1-4,0l-15.41-11.92a4.93,4.93,0,0,0-4.18-.9l-21.56,5.22a4.65,4.65,0,0,1-3.07-.33l-25.3-12.29a5.91,5.91,0,0,0-4.5-.27l-12.22,4.18a4.91,4.91,0,0,1-4.11-.43l-22.66-13.54a5.05,5.05,0,0,0-5.2,0l-28.13,16.9-25.5,12a6.42,6.42,0,0,1-5.22.09l-16.19-6.95a7.29,7.29,0,0,0-3.26-.58l-5.26.28-7.45.4a6.26,6.26,0,0,1-2.35-.33l-36.2-12.36a7.06,7.06,0,0,1-2.31-1.31l-20.19-17.22a6.17,6.17,0,0,0-5.64-1.26L753,2042.86a7.45,7.45,0,0,0-3.29,1.91l-12.52,12.54a7.34,7.34,0,0,1-4.55,2.13l-7,.64-33.29-5.69a7.71,7.71,0,0,0-5.09.88l-10.56,5.95a6.47,6.47,0,0,0-1.89,1.6l-10.59,13.09a8,8,0,0,1-8.86,2.52l-36.1-12.67a8.52,8.52,0,0,0-2.39-.47l-29.65-1.58a9.26,9.26,0,0,1-3.85-1.08l-39.18-20.9a3.8,3.8,0,0,0-2.54-.38l-17.06,3.44a5.15,5.15,0,0,0-2.91,1.69l-14.91,17.16a3.2,3.2,0,0,1-3.6.89l-13.69-5.33-28.25-16.29a6,6,0,0,0-1.52-.6l-24.54-5.73a4.86,4.86,0,0,1-1.82-.83l-11.47-8.19L411.72,2024H396.29a7.77,7.77,0,0,1-4.49-1.42l-15.54-10.89-7.41-2.65a5.16,5.16,0,0,1-3.11-6.62l4.31-11.85a9.14,9.14,0,0,1,3.18-4.25L407,1961.63" transform="translate(-48.16 -475.41)"/>
                        <path class="cls-1" d="M427.18,1967.78l45.18,29a14.66,14.66,0,0,0,2.86,1.42l58.4,21.22a12.56,12.56,0,0,0,12.44-.54l17.64-11.12,33.6-15.7a16.07,16.07,0,0,1,12.07-.63l19.29,6.66,34.24,15.82,12.27,13.89a15.14,15.14,0,0,0,18.48,3.33l9.51-5.08a13.44,13.44,0,0,1,12.57-.06l14.83,7.75a12.88,12.88,0,0,0,11.66.13l19-9.41,21.95-10.55,12.1,1a11.81,11.81,0,0,1,10.32,8.53l1.28,4.49,17.56,19.33,23,3.4a11.9,11.9,0,0,0,11.09-4.43l5.39-6.88,27.22-14.94,5.14-8.42a12.21,12.21,0,0,1,13-5.58l28.4,6.09,22.82,8.79,20.31,10.49a10.33,10.33,0,0,0,12.26-2.08l10.45-11,13.69-12.46a10.66,10.66,0,0,1,12.3-1.47l6.75,3.68a10.71,10.71,0,0,0,11.35-.68l13-9.29,12.72.14" transform="translate(-48.16 -475.41)"/>
                        <path class="cls-2" d="M964.46,1794.61l-3.17-16.69a4.72,4.72,0,0,0-1.77-2.86l-19.09-14.53a4.63,4.63,0,0,0-3.21-.93l-6.33.53a5.26,5.26,0,0,1-4.14-1.52l-8.81-8.83-9.38-13.3a5.14,5.14,0,0,0-3.13-2.07l-8.23-1.76a5.74,5.74,0,0,1-3.38-2.15l-10.91-14.34a4.86,4.86,0,0,0-4.83-1.82l-16.94,3.39a5.3,5.3,0,0,1-3.79-.66l-9.4-5.65a6.28,6.28,0,0,0-4.3-.8l-15.32,2.67a5.4,5.4,0,0,1-4.52-1.3l-5.24-4.73a6,6,0,0,0-3.74-1.54l-13.55-.68a5.56,5.56,0,0,1-3.3-1.29l-11.25-9.39a7,7,0,0,0-6.92-1.17l-7.5,2.82a4.56,4.56,0,0,1-4.81-1l-11.1-11.12-5.68-5.69a5.82,5.82,0,0,0-3.22-1.63l-26.25-4a4.18,4.18,0,0,1-1.57-.57L709,1665.39l-20.19-18.46-13-10.7a7.07,7.07,0,0,0-4.48-1.61h-12a6,6,0,0,1-3.66-1.23l-6.43-4.92-3-4.18a5.86,5.86,0,0,0-3.79-2.37l-5.47-.91a6.52,6.52,0,0,1-4.25-2.67l-7.93-11.26a6.67,6.67,0,0,0-2.67-2.21l-5.13-2.33a6.62,6.62,0,0,0-5.73.1l-1.84.92a2.74,2.74,0,0,1-3.62-1.12l-3.12-5.61-6.5-5.79a5.59,5.59,0,0,0-3.26-1.4l-7.19-.6a3.77,3.77,0,0,1-2.48-1.23l-6.9-7.69-11-3.16a4.22,4.22,0,0,1-2.07-1.34l-2.43-2.93a4.68,4.68,0,0,0-2.88-1.61l-10.54-1.5h-2.6a6,6,0,0,0-4.29,1.8l-25.11,25.81a6.09,6.09,0,0,1-3.28,1.74l-16.29,3a5.57,5.57,0,0,0-2.06.82L478.05,1613a3.67,3.67,0,0,1-1.82.59l-13.3.74a4.91,4.91,0,0,0-2.71,1l-43.55,32.9a6.09,6.09,0,0,1-4,1.23l-12.31-.65a8.11,8.11,0,0,0-4.05.85l-20.92,10.47-16.23,10.06a8.36,8.36,0,0,0-3.24,3.74l-3.93,9a2.75,2.75,0,0,1-3.79,1.34l-19.33-10.07-2.67-2.23a6.83,6.83,0,0,0-5.9-1.4l-8.11,1.87L292,1689.13,271.79,1697l-8.66,7.88a5.58,5.58,0,0,1-2.3,1.26l-10,2.66a8.49,8.49,0,0,0-3.35,1.78L225,1730a6.74,6.74,0,0,1-3.47,1.58l-14.76,2.11a7.54,7.54,0,0,0-3.14,1.21l-18.53,12.52a4.7,4.7,0,0,1-1.9.76l-9.75,1.58-22.15,12a5.16,5.16,0,0,1-1.41.5l-14.43,2.89a6.91,6.91,0,0,0-3.95,2.35l-10,11.88" transform="translate(-48.16 -475.41)"/>
                        <path class="cls-2" d="M785.37,1959l15.17,15.19a11.82,11.82,0,0,0,7.55,3.46,38.62,38.62,0,0,0,6.36-.07,11.84,11.84,0,0,0,6.23-2.57l24.1-19.44a44.65,44.65,0,0,1,6.58-4.4A11.72,11.72,0,0,1,862,1951l2.59,1.24a14.88,14.88,0,0,0,18.67-5.51c2.33-3.81,4.73-8.07,16.72-13a5.28,5.28,0,0,1,.77-.24c12-2.64,17.4-6.87,33-16.61.26-.17,12.8-8.63,13.17-8.79s4-1.76,5.52-2.39a3.92,3.92,0,0,1,1.21-.31l26.32-2.55a4.09,4.09,0,0,0,.61-.1c13.6-3.54,23.13-14.8,15.15-19.83a4.33,4.33,0,0,1-.93-.78l-9.85-11.52a3.63,3.63,0,0,1-.5-.73c-.84-1.65-3-6.17-4-6.79l-13.23-13.69a10.6,10.6,0,0,0-4.71-2.82c-3.94-1.11-10.64-2.93-10.88-3.18L937,1828.67l-.09-.06c-30.2-16.21,3.57-26.63,27.32-30.94a1.67,1.67,0,0,0,.09-3.27l-25.51-6.25-8.68-2.13a11.47,11.47,0,0,0-1.64-.28l-51.85-5.19-47.39-4.4H795.84a.37.37,0,0,1-.15,0l-19-7.86-.13,0-34.17-1.76-52.67-2.64H670.87a.27.27,0,0,1-.13,0l-34.54-11.38a.39.39,0,0,0-.15,0l-22.69,1.75h-.12L587.93,1748h-.18l-25.84,6a.4.4,0,0,0-.29.5l4.11,14a.39.39,0,0,1-.4.5l-52.06-3.47h-.11l-27.92,6.12a.41.41,0,0,1-.22,0l-9.46-3.45a.41.41,0,0,0-.19,0l-32.29,4.37a.41.41,0,0,1-.19,0l-22.66-8.73a.26.26,0,0,0-.15,0L371,1765.6H371l-18.36,3.5h-.1l-26.24-1.75h-.09l-41.18,7h-.08l-82.42-1.75a.25.25,0,0,0-.12,0L170,1782.28a.39.39,0,0,1-.15,0l-44.6-4.38a.4.4,0,0,0-.19,0l-3.52,1.41a.4.4,0,0,0,0,.72l41.39,22.44,0,0,21.9,14,.07,0,51.72,20.19a.2.2,0,0,1,.09,0L288.54,1875a2.22,2.22,0,0,1-1.72,4l-27.17-5.1a7,7,0,0,0-7.66,4h0a4,4,0,0,1-4.36,2.33l-20.81-3.59a8.08,8.08,0,0,0-3.1.07l-34.67,7.72a7.66,7.66,0,0,1-6.06-1.2l-3.77-2.64a7.14,7.14,0,0,0-7.64-.34l-19.53,11.15-12.62,7.21c-.71.4-2.65,3.76-2.65,3.76a.4.4,0,0,0,.19.54l26.73,11.59a6.23,6.23,0,0,0,2.1.72l25.55,4a9.63,9.63,0,0,1,2.73.85l9.16,4.4a4.07,4.07,0,0,0,1.07.35l21.88,4a7.56,7.56,0,0,1,3.1,1.35l17.93,13.27a8.06,8.06,0,0,0,1.87,1l24.54,9.22a4.23,4.23,0,0,0,4.47-1l15.77-15.79a6.31,6.31,0,0,1,3.91-1.83l15.2-1.38a7.49,7.49,0,0,1,3.53.53l13,5.38.36.16,33.36,17.5a12.44,12.44,0,0,0,7.09,1.36l19.54-2a9.8,9.8,0,0,1,4.23.48l29.77,10.15a14.11,14.11,0,0,0,15.61-4.61l8.17-10.33a11.24,11.24,0,0,1,6-3.9l11.87-3.1a15.21,15.21,0,0,1,9.22.48l9.27,3.48a4,4,0,0,0,1.32.26l15.87.61a15.61,15.61,0,0,0,11.75-4.68l10.08-10.3a4.22,4.22,0,0,1,1.72-1.06l19.94-6.46a18.16,18.16,0,0,1,16.45,2.71l20.35,15.13a15.52,15.52,0,0,0,6.29,2.79l.08,0,21.91,10.37a9.61,9.61,0,0,0,5.57.79l12.47-3.06a3.11,3.11,0,0,1,3,.87c5.12,5.43,13,11.81,22.89,12.32,18,.91,26.35-18.26,40.39-14.94,13.35,3.15,18.51,23.54,27,21.24a7,7,0,0,0,3.73-2.78,99.14,99.14,0,0,1,18.79-19.43c2.32-1.78,6.47-9.08,11.5-8.26,8.12,1.31,9.83,7.16,16.62,10.92,4.57,2.54,13.67,9.73,33.86-5.21" transform="translate(-48.16 -475.41)"/>
                    </g>
                </g>
            </g>
        </g>
    </g>
</svg>