<svg id="CONTENT"
    xmlns="http://www.w3.org/2000/svg" viewBox="0 0 1025 1343.71">
    <defs>
        <style>.cls-1,.cls-2{stroke:#fff;stroke-miterlimit:10;stroke-width:5px;}.cls-2{fill:none;}</style>
    </defs>
    <g id="NEW_MEDIUM" data-name="NEW MEDIUM">
        <g id="NEVERCATCH_MEDIUM">
            <g id="JUNCTION_NEVERCATCH_SMALL">
                <g id="JONCTION_BASSE" data-name="JONCTION BASSE">
                    <g id="Falasie_Droite_Bas" data-name="Falasie Droite Bas">
                        <polygon points="1022.02 535.03 1022.02 1303.5 867.8 1139.23 642.05 558.51 1022.02 535.03"/>
                        <polyline class="cls-1" points="1013.48 797.59 993.4 802.84 968.36 796.96 949.48 784.37 925.76 768.54 916.98 778.66 900.29 784.37 883.61 779.54 879.21 766.78 863.4 760.63 830.03 755.35 808.07 765.03 789.18 772.5 757.13 768.54 727.63 750.51 717.67 731.17 706.35 713.58 706.35 698.63 688.59 681.35"/>
                        <polyline class="cls-1" points="1025.01 1304.13 1012.49 1304.13 999.98 1295.78 978.02 1281.3 951.16 1247.41 916.98 1232.16 891.07 1220.14 876.04 1201.67 867.95 1174.7 867.95 1139.14 841.01 1114.61 830.47 1075.03 815.53 1031.94 789.18 995.3 787.97 964.22 759.32 917.61 741.76 891.23 736.49 872.76 703.99 845.5 683.79 827.91 674.08 793.61 657 783.49 641.19 769.42 612.64 746.12 597.27 707.86 560.38 695.55 524.81 652.46 528.76 627.83 603.42 549.56 776.11 525.82 1008.32 533.37 1025.01 533.37"/>
                        <polyline class="cls-1" points="1025.01 1167.94 1018.43 1167.94 1004.38 1169.84 989.74 1169.84 963.97 1158.88 958.26 1148.47 913.03 1141.6 888.88 1144.07 867.95 1139.14"/>
                        <polyline class="cls-2" points="1025.01 989.29 1014.48 989.29 999.54 984.01 983.74 976.1 974.95 962.02 958.51 950.85 951.24 925.09 948.6 909.26 923.13 896.07 918.74 879.36 887.85 867.04 852.86 867.04 811.58 850.33 806.31 830.99 778.66 815.89 734.29 804.6 722.43 788.77 707.8 790.29 676.76 768.54 656.56 772.94 653.04 777.34"/>
                        <polyline class="cls-2" points="818.88 1041.6 843.2 1050.85 867.95 1050.85 888 1067.56 940.7 1071.08 963.97 1063.31 986.81 1071.08 1004.81 1085.15 1017.75 1090.04 1025.01 1090.04"/>
                        <path class="cls-2" d="M1071.37,1946" transform="translate(-48.55 -1143.12)"/>
                    </g>
                    <g id="Falaise_Gauche_Bas" data-name="Falaise Gauche Bas">
                        <polyline class="cls-1" points="0.01 1341.21 5.93 1341.21 23.72 1330.52 37.78 1319.08 48.76 1296.66 54.03 1281.3 85.6 1274.38 94.43 1281.3 137.91 1258.4 158.25 1221.59 167.33 1186.55 173.43 1148.32 173.43 1125.08 162.38 1106.25 152.39 1088.88 147.18 1052.75 162.38 1007.02 178.31 996.32 188.85 978.11 198.06 947.88 219.81 935.49 243.72 915.56 259.36 889.76 267.02 868.8 274.47 842.86 310.89 828.2 328.5 816.91 342.7 802.84 349.1 785.4 355.73 774.7 372.42 769.42 386.3 762.53 406.32 753.15 416.34 737.76 410.58 719.73 423.36 702.59 429.51 692.03 426 674.44 433.9 666.53 448.83 663.89 452.35 647.18 465.67 636.63 476.94 620.79 355.73 397.41 3.8 569.19 0.01 569.19"/>
                        <path class="cls-1" d="M404.28,1917.82,385,1913.43l-13.57,2.2-25.81-2.2-7.17-9.68-30.89,7L298,1924.86l-14.44,26.53-30.35,5.13L222,1964.29l-21-8.21-25,11.14-6.15,15.68s-28.11,7.92-30.74,7.92H114.29l-13.91,7L92,2012.37s-14.79-1.32-16.4,0-16.54-4.84-16.54-4.84l-6.75-4.91H48.56" transform="translate(-48.55 -1143.12)"/>
                        <polyline class="cls-1" points="196.75 948.83 158.99 961.14 144.2 954.51 117.7 961.14 99.7 964.96 77.45 964.96 66.32 956.42 46.56 950.59 36.46 956.42 28.26 965.76 7.04 980.49 0.01 980.49"/>
                        <polyline class="cls-1" points="162.38 1007.02 147.18 1019.34 141.42 1031.5 138.78 1047.33 128.25 1059.64 114.19 1075.47 114.19 1095.55 108.92 1115.93 99.7 1124.31 88.72 1133.52 59.34 1140.7 47.44 1140.55 35.14 1158.14 35.14 1175.88 31.19 1190.8 21.24 1198.72 10.11 1198.72 0.01 1198.72"/>
                    </g>
                    <g id="Socle">
                        <polyline points="1025.01 436.84 999.98 436.84 985.05 435.61 977.15 438.25 963.97 453.19 943.04 453.92 927.08 473.42 923.83 458.19 923.83 451.78 912.15 461.11 917.42 440 884.04 417.14 870.87 410.98 846.28 403.95 802.36 403.95 760.09 385.27 715.3 351.85 700.47 349.42 667.98 362.61 645.14 357.33 617.91 325.68 581.9 301.93 560.82 302.81 509.88 330.95 487.04 353.82 465.08 341.5 418.53 358.21 364.95 387.24 314.01 367.01 287.66 374.92 253.41 355.58 185.78 401.31 123.41 424.17 82.13 409.22 54.03 418.02 0.01 406.95 0.01 617.65 241.11 717.91 467.72 637 496.9 665.25 509.71 663.11 526.78 652.44 631.09 617.65 723.31 675.7 971.88 747.81 1025.01 757.03"/>
                        <polyline class="cls-1" points="1025.01 662.13 1017.55 662.13 990.32 645.86 964.85 634.43 938.5 653.77 916.1 659.05 891.95 680.16 863.84 674 831.35 699.51 822.56 695.99 780.4 706.54 761.08 695.99 749.22 695.99 738.24 688.95 707.5 677.52 696.08 685.43 677.64 697.75 666.22 692.47 650.41 686.32 633.23 669.61 624.94 669.61 622.3 663.89 603.57 651.14 584.53 651.14 574 643.22 554.23 634.87"/>
                        <polyline class="cls-1" points="595.51 611.12 625.38 610.24 648.21 619.92 663.15 625.19 679.83 642.78 703.7 634.43 718.92 642.78 740.44 659.49 753.76 659.49 769.42 643.66 780.84 641.02 795.77 628.71 801.92 626.07 812.46 630.47 825.64 641.9 834.42 649.82 843.2 649.82 857.26 641.9 862.67 634.43 872.19 630.47 878.34 627.98 895.9 640.14 909.96 641.9 927.52 631.35 938.06 630.47 950.29 628.27 961.78 620.79 974.07 616.4 983.59 610.24 989.88 599.69 1001.3 591.77 1009.35 591.77 1025.01 591.77"/>
                        <path class="cls-2" d="M967.29,1581l-39.53-26.38c-32.49-21.11-65.15-3.44-79.92-12.31-22-13.19-25.54-9.67-38.65-15.83-31.35-14.74-32.55-34.62-53.58-36.94-20.12-2.22-27.3,15.07-47.43,13.19-16.86-1.57-27.61-17.58-36.15-31.19a25.12,25.12,0,0,0-6.33-6.83L643.18,1448a34.07,34.07,0,0,0-36.71-2.49l-52.87,29L541.13,1490a9.84,9.84,0,0,1-14.1,1.23l-7.24-6.31A11.64,11.64,0,0,0,508,1482.8l-39.24,15.08-50.81,28.67a11.53,11.53,0,0,1-10.77.31L372.78,1510a19.64,19.64,0,0,0-15.33-.85l-18.31,6.61a9.48,9.48,0,0,1-8.85-1.3l-21.16-15.63a12.73,12.73,0,0,0-14.6-.37l-11,7.26" transform="translate(-48.55 -1143.12)"/>
                        <path class="cls-1" d="M1073.56,1683.89H1064l-10.46,7.07-2.76,16.67-18.44,8.93a6.5,6.5,0,0,0-3.66,5.85v3.71a7.38,7.38,0,0,1-2.71,5.71l-5.93,4.83-7.67,10.75a8.54,8.54,0,0,1-2.78,2.5l-10.58,6a6.53,6.53,0,0,1-3.87.8l-11.15-1.18a7.87,7.87,0,0,1-5.54-3.19l-6.17-8.42a8.58,8.58,0,0,0-3.66-2.86l-14.89-6.12-12.78-7.51a8.54,8.54,0,0,1-1.3-.93l-9.88-8.49a4.16,4.16,0,0,0-4.34-.68l-12.55,5.3-22,2.63-19.46,9.68-9.35,8.69a7.08,7.08,0,0,1-2.39,1.49l-12.74,4.86a6.41,6.41,0,0,1-7.3-2l-8.48-10.44-6-7-15.39-8a5.35,5.35,0,0,0-5.94.69l-7.06,6.06a5.27,5.27,0,0,1-3.42,1.26H783.25a8.85,8.85,0,0,1-5.45-1.88l-33.61-26.26" transform="translate(-48.55 -1143.12)"/>
                        <path class="cls-1" d="M968.11,1594.91c1.48-.74,8.79,20.18,13,19a6.11,6.11,0,0,1,2.55-.17l-.61-6,2.14-8.54c2.55.74,7.73.41,8.53-2.13l10.68-4.27,7.27,1.89a6.39,6.39,0,0,1,1.35-2.41l9.16-10.38,6.64-5.23a7.42,7.42,0,0,1,7.73-.88l1.66.78a7.41,7.41,0,0,0,4.15.65l8.88-1.19a10.72,10.72,0,0,0,4-1.37l13.08-7.71,3.07-8.79" transform="translate(-48.55 -1143.12)"/>
                        <path class="cls-1" d="M1071.81,1740.61" transform="translate(-48.55 -1143.12)"/>
                        <polyline class="cls-1" points="235.4 541.64 204.66 555.72 177.43 576.82 150.84 560.55 123.85 570.67 107.65 562.31 102.77 554.84 79.94 540.76 59.74 544.28 56.22 554.84 36.9 569.79 24.6 575.06 11.96 571.32 0.01 571.32"/>
                        <polyline class="cls-1" points="0.01 587.82 22.41 587.82 36.46 582.54 47 582.54 54.91 580.78 70.72 567.59 81.25 562.31 97.06 567.59 108.48 575.5 118.14 590.45 129.56 595.73 150.64 593.97 163.82 588.7 170.6 596.43 179.63 598.37 193.78 614.01 220.03 614.2 238.47 611.56 252.53 616.84 266.58 616.84 282.39 607.16 308.74 604.53 315.77 599.25 331.58 603.65 350.02 624.75 359.68 622.12 370.22 622.12 397.01 607.6"/>
                        <polyline class="cls-1" points="441.81 629.59 415.9 641.46 406.32 649.16 392.18 655.53 370.22 652.9 355 663.89 334.21 666.09 314.01 676.64 295.57 687.19 291.18 696.87 273.61 700.39 256.92 709.18 244.33 709.18 228.81 682.8 218.27 680.16 208.03 670.04 196.31 666.97 186.65 670.04 179.63 672.24 170.84 666.97 155.91 646.74 134.83 630.91 119.9 622.99 108.48 625.63 100.58 631.79 92.67 636.19 83.01 635.31 73.69 627.98 61.93 615.08 55.78 613.32 34.7 599.25 26.8 602.77 16.26 604.53 8.35 608.92 0.01 608.92"/>
                        <path class="cls-2" d="M862.15,1658.79a5.27,5.27,0,0,0-3.78.66L849,1665.1a6.28,6.28,0,0,1-4.3.8l-15.32-2.67a5.4,5.4,0,0,0-4.53,1.31l-5.24,4.72a6,6,0,0,1-3.74,1.55l-13.56.67a5.63,5.63,0,0,0-3.3,1.29l-11.25,9.4a7,7,0,0,1-6.92,1.17l-7.51-2.82a4.55,4.55,0,0,0-4.82,1l-11.1,11.12-5.68,5.69a5.75,5.75,0,0,1-3.23,1.63l-26.26,4a4.09,4.09,0,0,0-1.57.58l-10.69,6.58-20.2,18.47-13,10.7a7.05,7.05,0,0,1-4.48,1.61h-12a6.06,6.06,0,0,0-3.67,1.24l-6.43,4.92-3,4.19a5.83,5.83,0,0,1-3.79,2.36l-5.48.92a6.53,6.53,0,0,0-4.25,2.67l-7.93,11.26a6.67,6.67,0,0,1-2.67,2.21L618,1774a6.65,6.65,0,0,1-5.73-.11l-1.84-.92a2.74,2.74,0,0,0-3.62,1.12l-3.12,5.62-6.5,5.79a5.62,5.62,0,0,1-3.27,1.4l-7.19.6a3.77,3.77,0,0,0-2.48,1.23l-6.91,7.69-11,3.16a4.17,4.17,0,0,0-2.07,1.35l-2.44,2.93a4.57,4.57,0,0,1-2.87,1.6L548.33,1807h-2.6a6,6,0,0,1-4.29-1.81l-25.13-25.81a6.1,6.1,0,0,0-3.28-1.75l-16.29-3a5.94,5.94,0,0,1-2.06-.82l-15.79-10.28a3.67,3.67,0,0,0-1.82-.59l-13.31-.75a4.93,4.93,0,0,1-2.71-1l-43.57-32.92a6.09,6.09,0,0,0-4-1.23l-12.32.65a8.11,8.11,0,0,1-4-.85l-20.92-10.47-16.25-10.07a8.36,8.36,0,0,1-3.24-3.74l-3.93-9a2.76,2.76,0,0,0-3.79-1.34l-19.35,10.08-2.67,2.23a6.81,6.81,0,0,1-5.89,1.4l-8.12-1.87-20.21-16.71-20.2-7.92-8.66-7.88a5.51,5.51,0,0,0-2.31-1.26l-10-2.67a8.57,8.57,0,0,1-3.36-1.77l-22.49-19.42a6.82,6.82,0,0,0-3.47-1.58l-14.77-2.11a7.59,7.59,0,0,1-3.14-1.21l-18.54-12.53a4.84,4.84,0,0,0-1.9-.76l-9.75-1.58-22.17-12a5.07,5.07,0,0,0-1.41-.51l-14.43-2.89a6.91,6.91,0,0,1-4-2.35l-10-11.88" transform="translate(-48.55 -1143.12)"/>
                        <path class="cls-2" d="M626.57,1603.44l45.1,9.23.13,0h18.82l52.7-2.63,34.18-1.76a.28.28,0,0,0,.13,0l19-7.86a.33.33,0,0,1,.15,0h33.46l47.41-4.4,51.87-5.19a11.47,11.47,0,0,0,1.64-.28l8.69-2.13,25.63-6.47-3.17,16.7a4.69,4.69,0,0,1-1.78,2.86L941.49,1616a4.68,4.68,0,0,1-3.21.93l-6.34-.53a5.28,5.28,0,0,0-4.14,1.52l-8.82,8.83L909.6,1640a5.11,5.11,0,0,1-3.13,2.07l-8.24,1.77a5.83,5.83,0,0,0-3.38,2.14l-10.92,14.35" transform="translate(-48.55 -1143.12)"/>
                        <path class="cls-2" d="M614.26,1622.33" transform="translate(-48.55 -1143.12)"/>
                        <path class="cls-1" d="M963.78,1579.23" transform="translate(-48.55 -1143.12)"/>
                        <path class="cls-1" d="M938.08,1547.79" transform="translate(-48.55 -1143.12)"/>
                    </g>
                    <g id="Socle_dessus" data-name="Socle dessus">
                        <polygon class="cls-1" points="199.83 188.98 242.43 156.44 273.61 149.41 291.18 110.71 310.94 110.71 341.24 124.34 365.83 104.56 388.67 70.26 421.17 62.34 441.81 39.04 455.42 3.42 495.21 22.33 534.47 86.97 554.23 79.49 595.95 86.09 624.06 123.02 673.25 123.02 707.06 156.44 749.22 166.12 773.82 172.71 808.95 252.3 569.16 362.24 281.51 354.32 199.83 188.98"/>
                        <path class="cls-1" d="M1073.56,1438.52H1031l-97.5,22-101.88,1.76s-65.58-48-64-48.64-23.43-24.36-23.43-24.36l32.94-18.47,20.64-32.68,39.09-10.56,29.42,19.5,41.5-11.29,15.84-7.35a44.55,44.55,0,0,1,29.9-2.74l31.28,8.06c.33.08.66.18,1,.29l15.3,5.11a17.35,17.35,0,0,0,14.94-1.91l8.48-5.52a17.45,17.45,0,0,1,9.37-5.26l15.2-3.06h24.49" transform="translate(-48.55 -1143.12)"/>
                        <path class="cls-1" d="M79.74,1338.26l15.81-24.62,40-4.4,21.08,8.94L179,1304l23.72,21.1,17.56-9.67,17.57-1.76,23.71-14.07,39.53,22.86,22.84-.88,34.69,25.51,31.18,71.23-87,40.46L149,1481.62s-37.62-95-39.38-96.74S79.74,1338.26,79.74,1338.26Z" transform="translate(-48.55 -1143.12)"/>
                        <polyline class="cls-1" points="0.01 336.51 108.04 336.1 152.4 312.11 161.18 267.25 157.67 243.51 124.29 219.76 94.43 221.96 89.16 213.61 73.44 200.07 63.69 179.31 43.49 188.35 22.41 177.55 10.2 175.06 0.01 175.06"/>
                        <polyline points="0.89 266.07 23.29 275.17 38.22 275.17 46.12 277.81 59.3 292.76 67.2 316.5 96.19 312.99 114.63 319.14 128.68 310.35 111.12 300.67 105.85 279.57 139.22 256.7 152.4 250.54 176.99 243.51 220.91 243.51 263.18 224.83 307.97 191.41 322.79 188.98 355.29 202.18 378.13 196.9 405.36 165.24 441.37 141.49 462.45 142.37 513.39 170.51 536.23 193.38 558.19 181.07 604.74 197.78 658.32 226.8 709.26 206.57 735.61 214.49 769.86 195.14 837.49 240.87 899.85 263.74 941.14 248.79 969.24 257.58 1022.82 246.15 1024.16 451.78 1007.01 445.78 988.57 441.39 963.97 456.34 941.14 476.56 930.6 479.2 910.39 466.01 900.73 466.01 868.24 488 856.82 502.95 845.4 513.5 828.71 509.11 818.17 510.86 805.87 520.54 793.58 525.81 777.77 551.32 751.19 542.38 731.22 537.25 725.07 526.69 689.06 508.23 668.86 505.59 653.04 495.03 626.7 495.91 605.62 482.72 581.02 471.29 555.55 476.56 526.57 506.47 514.27 504.71 495.82 495.03 484.41 486.24 473.87 485.36 466.84 478.32 460.17 482.02 392.18 457.22 299.96 515.26 100.14 497.23 65.73 469.15 0.89 434.7"/>
                        <polyline points="0.01 266.07 23.27 275.17 38.2 275.17 46.11 277.81 59.28 292.76 67.19 316.5 96.17 312.99 114.62 319.14 128.67 310.35 111.11 300.67 105.84 279.57 139.21 256.7 152.39 250.54 176.98 243.51 220.9 243.51 263.17 224.83 307.96 191.41 322.78 188.98 355.28 202.18 378.12 196.9 405.35 165.24 441.36 141.49 462.44 142.37 513.38 170.51 536.22 193.38 558.17 181.07 604.73 197.78 658.3 226.8 709.25 206.57 735.6 214.49 769.85 195.14 837.48 240.87 899.84 263.74 941.12 248.79 969.23 257.58 1025.01 246.15 1025.01 445.38 1007 445.78 988.55 441.39 963.96 456.34 941.12 476.56 930.58 479.2 910.38 466.01 900.72 466.01 868.22 488 856.8 502.95 845.39 513.5 828.7 509.11 818.16 510.86 805.86 520.54 793.57 525.81 777.75 551.32 751.18 542.38 731.2 537.25 725.05 526.69 689.04 508.23 668.84 505.59 653.03 495.03 626.68 495.91 605.6 482.72 581.01 471.29 555.54 476.56 526.55 506.47 514.26 504.71 495.81 495.03 484.39 486.24 473.85 485.36 466.83 478.32 460.16 482.02 392.17 457.22 299.95 515.26 100.13 497.23 65.72 469.15 0.01 434.7"/>
                        <polyline points="427.75 452.82 397.89 451.94 375.06 461.61 360.12 466.89 343.44 484.48 319.57 476.13 304.35 484.48 282.83 501.19 269.51 501.19 253.85 485.36 242.43 482.72 227.5 470.41 221.35 467.77 210.81 472.17 197.63 483.6 188.85 491.52 180.07 491.52 166.01 483.6 160.6 476.13 151.08 472.17 144.93 469.68 127.37 481.84 113.31 483.6 95.75 473.05 85.21 472.17 72.98 469.97 61.49 462.49 49.2 458.1 39.68 451.94 33.39 441.39 18.74 438.97 12.34 434.7 7.21 433.47 0.01 433.47 0.89 463.4 0.01 503.83 5.72 503.83 32.95 487.56 58.42 476.13 84.77 495.47 107.17 500.75 131.32 521.86 159.43 515.7 191.92 541.21 200.71 537.69 242.87 548.24 262.19 537.69 274.05 537.69 285.03 530.65 315.77 519.22 327.19 527.13 345.63 539.45 357.05 534.17 372.86 528.01 390.04 511.3 398.33 511.3 400.96 505.59 419.7 492.83 438.73 492.83 449.27 484.92 469.04 476.56"/>
                        <polyline class="cls-2" points="0.01 503.83 5.72 503.83 32.95 487.56 58.42 476.13 84.77 495.47 107.17 500.75 131.32 521.86 159.43 515.7 191.92 541.21 200.71 537.69 242.87 548.24 262.19 537.69 274.05 537.69 285.03 530.65 315.77 519.22 327.19 527.13 345.63 539.45 357.05 534.17 372.86 528.01 390.04 511.3 398.33 511.3 400.96 505.59 419.7 492.83 438.73 492.83 449.27 484.92 469.04 476.56"/>
                        <polyline class="cls-2" points="427.75 452.82 397.89 451.94 375.06 461.61 360.12 466.89 343.44 484.48 319.57 476.13 304.35 484.48 282.83 501.19 269.51 501.19 253.85 485.36 242.43 482.72 227.5 470.41 221.35 467.77 210.81 472.17 197.63 483.6 188.85 491.52 180.07 491.52 166.01 483.6 160.6 476.13 151.08 472.17 144.93 469.68 127.37 481.84 113.31 483.6 95.75 473.05 85.21 472.17 72.98 469.97 61.49 462.49 49.2 458.1 39.68 451.94 33.39 441.39 18.74 438.97 12.34 434.7 7.21 433.47 0.01 433.47"/>
                        <path class="cls-2" d="M153.08,1422.69l39.53-26.38c32.49-21.11,65.15-3.44,79.92-12.31,22-13.2,25.54-9.68,38.65-15.83,31.35-14.74,32.55-34.62,53.58-36.94,20.12-2.22,27.3,15.07,47.43,13.19,16.86-1.57,27.61-17.58,36.15-31.19a25.12,25.12,0,0,1,6.33-6.83l22.52-16.68a34.05,34.05,0,0,1,36.71-2.49l52.87,29,12.47,15.39a9.84,9.84,0,0,0,14.1,1.23l7.24-6.31a11.64,11.64,0,0,1,11.81-2.09l39.24,15.08,50.81,28.67a11.56,11.56,0,0,0,10.77.31l34.38-16.91a19.64,19.64,0,0,1,15.33-.85l18.31,6.6a9.45,9.45,0,0,0,8.85-1.29l21.16-15.63a12.73,12.73,0,0,1,14.6-.37l11,7.26" transform="translate(-48.55 -1143.12)"/>
                        <path class="cls-1" d="M48.56,1525.59h8.06l6.4,5.28,6.62,18.46,18.44,8.93a6.49,6.49,0,0,1,3.66,5.85v3.71a7.39,7.39,0,0,0,2.71,5.71l5.93,4.82,7.67,10.76a8.64,8.64,0,0,0,2.78,2.5l10.58,6a6.53,6.53,0,0,0,3.87.8l11.15-1.18A7.87,7.87,0,0,0,142,1594l6.17-8.42a8.6,8.6,0,0,1,3.66-2.87l14.9-6.11,12.77-7.51a8.6,8.6,0,0,0,1.3-.94l9.88-8.48A4.14,4.14,0,0,1,195,1559l12.55,5.29,22,2.64L249,1576.6l9.35,8.69a7.24,7.24,0,0,0,2.39,1.49l12.74,4.86a6.43,6.43,0,0,0,7.3-2l8.48-10.45,6-7,15.39-8a5.33,5.33,0,0,1,5.94.69l7.06,6.06a5.27,5.27,0,0,0,3.42,1.26h10.09a8.85,8.85,0,0,0,5.45-1.88l33.61-26.26" transform="translate(-48.55 -1143.12)"/>
                        <path class="cls-1" d="M173.28,1453.47s-13.17,8.8-14.93,7.92c-1.48-.74-14.88-4.6-19.09-5.8a6.11,6.11,0,0,0-2.55-.17L125.85,1457l-5.22,1.5a4.91,4.91,0,0,1-6-3.24l-2.8-8.81-3.1-10.08a6.43,6.43,0,0,0-1.35-2.42l-9.16-10.37-6.64-5.23a7.4,7.4,0,0,0-7.73-.88l-1.66.78a7.4,7.4,0,0,1-4.15.64l-8.88-1.18a10.9,10.9,0,0,1-4-1.37l-13.08-7.71H48.56" transform="translate(-48.55 -1143.12)"/>
                        <path class="cls-1" d="M48.56,1582.31" transform="translate(-48.55 -1143.12)"/>
                        <polyline class="cls-1" points="787.87 383.34 818.61 397.41 845.84 418.52 872.43 402.25 899.41 412.37 915.62 404.01 920.5 396.54 943.33 382.46 963.53 385.98 967.05 396.54 986.37 411.49 998.67 416.76 1011.31 414.02 1025.01 414.02"/>
                        <polyline id="T" points="581.46 471.29 607.37 483.16 616.95 490.86 631.09 497.23 653.04 494.59 668.27 505.59 689.06 507.79 709.26 518.34 727.7 528.89 732.09 538.57 749.66 542.08 766.35 550.88 778.94 550.88 794.46 524.5 805 521.86 815.24 511.74 826.95 508.67 836.62 511.74 843.64 513.94 852.42 508.67 867.36 488.44 888.44 472.61 903.37 464.69 914.79 467.33 922.69 473.49 930.6 477.88 940.26 477 949.58 469.68 961.34 456.78 967.49 455.02 988.57 440.95 996.47 444.46 1007.01 446.22 1014.91 450.62 1025.01 450.62 1025.01 426.44 1014.04 431.27 1000.86 429.51 986.81 424.24 976.27 424.24 968.36 422.48 952.55 409.29 942.01 404.01 926.2 409.29 914.79 417.2 905.12 432.15 893.71 437.43 872.63 435.67 859.45 430.39 852.67 438.13 843.64 440.07 831.35 462.93 803.24 455.9 784.79 453.26 770.74 458.54 756.69 458.54 740.88 448.86 714.53 446.22 707.5 440.95 691.69 445.34 673.25 466.45 663.59 463.81 653.04 463.81 626.26 449.3"/>
                        <polyline id="T-2" data-name="T" class="cls-2" points="1025.01 431.27 1014.04 431.27 1000.86 429.51 986.81 424.24 976.27 424.24 968.36 422.48 952.55 409.29 942.01 404.01 926.2 409.29 914.79 417.2 905.12 432.15 893.71 437.43 872.63 435.67 859.45 430.39 852.67 438.13 843.64 440.07 831.35 462.93 803.24 455.9 784.79 453.26 770.74 458.54 756.69 458.54 740.88 448.86 714.53 446.22 707.5 440.95 691.69 445.34 673.25 466.45 663.59 463.81 653.04 463.81 626.26 449.3"/>
                        <polyline id="T-3" data-name="T" class="cls-2" points="581.46 471.29 607.37 483.16 616.95 490.86 631.09 497.23 653.04 494.59 668.27 505.59 689.06 507.79 709.26 518.34 727.7 528.89 732.09 538.57 749.66 542.08 766.35 550.88 778.94 550.88 794.46 524.5 805 521.86 815.24 511.74 826.95 508.67 836.62 511.74 843.64 513.94 852.42 508.67 867.36 488.44 888.44 472.61 903.37 464.69 914.79 467.33 922.69 473.49 930.6 477.88 940.26 477 949.58 469.68 961.34 456.78 967.49 455.02 988.57 440.95 996.47 444.46 1007.01 446.22 1014.91 450.62 1025.01 450.62"/>
                        <polyline class="cls-1" points="1025.01 246.15 1009.21 246.15 998.23 249.67 962.22 256.7 934.02 247.27 909.52 258.46 893.71 263.74"/>
                        <path class="cls-1" d="M881.65,1499.2l20.2,14.08,8.79,2.63,10.54-.88s12.29,5.28,12.29,6.16,10.54,2.64,10.54,2.64l5.27-3.52,5.52-7.91,6.78-6.16,5.27-4.4,20.2-7.91,7.91-12.31,13.17-7h16l12.15-21.11,7.9-8.79,14.93-2.64,8.79-5.1h5.7" transform="translate(-48.55 -1143.12)"/>
                        <path class="cls-1" d="M984.86,1430.61c3.51-3.52,27.61-7,27.61-7l14.55-9.67,21.08-4.4,13.17-7.92h12.29" transform="translate(-48.55 -1143.12)"/>
                        <path class="cls-1" d="M1070.93,1540.54" transform="translate(-48.55 -1143.12)"/>
                        <path class="cls-1" d="M1070.93,1432.81" transform="translate(-48.55 -1143.12)"/>
                        <path class="cls-2" d="M836.42,1347.06l46.51,34.27.09.05,51.73,20.19.07,0,21.92,14h0l41.41,22.46a.39.39,0,0,1,0,.71l-3.52,1.41a.32.32,0,0,1-.19,0l-44.62-4.38a.39.39,0,0,0-.15,0l-32.37,9.63-.12,0-82.46-1.76h-.08l-41.19,7h-.1l-26.25-1.75H767l-18.36,3.51h-.06l-49.08,1.76a.45.45,0,0,1-.16,0l-22.66-8.73a.44.44,0,0,0-.2,0l-32.3,4.37a.41.41,0,0,1-.19,0l-9.46-3.44a.42.42,0,0,0-.22,0l-27.94,6.12h-.11l-52.08-3.48a.39.39,0,0,0-.4.51l4.11,14a.39.39,0,0,1-.29.49l-25.85,6h-.18L506.23,1464h-.12l-22.7,1.75a.39.39,0,0,1-.15,0l-34.56-11.39-.13,0H429.75l-52.7-2.64L342.87,1450a.28.28,0,0,1-.13,0l-19.05-7.86a.33.33,0,0,0-.15,0H290.08l-47.41-4.4-51.87-5.19a13.07,13.07,0,0,1-1.64-.28l-8.69-2.13-25.63-6.47,3.17,16.7a4.69,4.69,0,0,0,1.78,2.86l19.1,14.54a4.64,4.64,0,0,0,3.2.93l6.34-.53a5.24,5.24,0,0,1,4.14,1.52l8.82,8.83,9.38,13.31a5.15,5.15,0,0,0,3.13,2.07l8.24,1.76a5.85,5.85,0,0,1,3.38,2.15l10.92,14.35a4.84,4.84,0,0,0,4.82,1.82l17-3.39a5.27,5.27,0,0,1,3.78.66l9.41,5.65a6.28,6.28,0,0,0,4.3.8l15.32-2.67a5.42,5.42,0,0,1,4.53,1.3l5.24,4.73a6,6,0,0,0,3.74,1.54l13.56.68a5.63,5.63,0,0,1,3.3,1.29l11.25,9.39a7,7,0,0,0,6.92,1.18l7.51-2.82a4.55,4.55,0,0,1,4.82,1l11.1,11.12,5.68,5.69a5.75,5.75,0,0,0,3.23,1.63l26.26,4a4.24,4.24,0,0,1,1.57.57l10.69,6.59,20.2,18.47,13,10.7a7.05,7.05,0,0,0,4.48,1.61h12a6.06,6.06,0,0,1,3.67,1.24l6.43,4.92,3,4.18a5.8,5.8,0,0,0,3.79,2.37l5.48.92a6.49,6.49,0,0,1,4.25,2.67l7.93,11.26a6.67,6.67,0,0,0,2.67,2.21l5.14,2.34a6.65,6.65,0,0,0,5.73-.11l1.84-.92a2.74,2.74,0,0,1,3.62,1.12l3.12,5.62,6.5,5.79a5.62,5.62,0,0,0,3.27,1.4l7.19.6a3.77,3.77,0,0,1,2.48,1.23l6.91,7.69,11.05,3.16a4.17,4.17,0,0,1,2.07,1.35l2.44,2.92a4.54,4.54,0,0,0,2.87,1.61l10.55,1.51h2.6a6,6,0,0,0,4.29-1.81l25.13-25.81a6.1,6.1,0,0,1,3.28-1.75l16.29-3a5.57,5.57,0,0,0,2.06-.82l15.79-10.27a3.78,3.78,0,0,1,1.82-.6l13.31-.74a4.93,4.93,0,0,0,2.71-1L702.89,1570a6.09,6.09,0,0,1,4-1.23l12.32.65a8.11,8.11,0,0,0,4-.85l20.92-10.47,16.25-10.07a8.36,8.36,0,0,0,3.24-3.74l3.93-9a2.76,2.76,0,0,1,3.79-1.34l19.35,10.08,2.67,2.23a6.81,6.81,0,0,0,5.89,1.4l8.12-1.87,20.21-16.71,20.2-7.92,8.66-7.88a5.57,5.57,0,0,1,2.31-1.26l10-2.67a8.57,8.57,0,0,0,3.36-1.77l22.49-19.42a6.74,6.74,0,0,1,3.47-1.58l14.77-2.11a7.59,7.59,0,0,0,3.14-1.21l18.54-12.53a4.7,4.7,0,0,1,1.9-.76l9.75-1.58,22.17-12a5.07,5.07,0,0,1,1.41-.51l14.43-2.89a7,7,0,0,0,4-2.35l10-11.89" transform="translate(-48.55 -1143.12)"/>
                        <path class="cls-1" d="M156.59,1420.93" transform="translate(-48.55 -1143.12)"/>
                        <path class="cls-1" d="M182.29,1389.49" transform="translate(-48.55 -1143.12)"/>
                    </g>
                </g>
            </g>
        </g>
    </g>
</svg>