<svg id="CONTENT"
    xmlns="http://www.w3.org/2000/svg" viewBox="0 0 1020.33 1770">
    <defs>
        <style>.cls-1,.cls-3{fill:none;}.cls-1,.cls-2,.cls-3{stroke:#000;stroke-miterlimit:10;}.cls-1,.cls-2{stroke-width:5px;}.cls-2{fill:#fff;}.cls-3{stroke-width:2px;}</style>
    </defs>
    <g id="FIRE">
        <g id="Chute">
            <line class="cls-1" x1="388.13" y1="2.42" x2="375.13" y2="1770.42"/>
            <line class="cls-1" x1="621.13" y1="2.42" x2="640.13" y2="1770.42"/>
            <line class="cls-1" x1="429.13" y1="1.42" x2="423.13" y2="1770.42"/>
            <line class="cls-1" x1="501.13" y1="2.42" x2="489.13" y2="1770.42"/>
            <line class="cls-1" x1="587.23" y1="0.03" x2="569.13" y2="1770.42"/>
        </g>
        <g id="Montagne">
            <polygon class="cls-2" points="503.06 673.96 270.06 1041.7 311.2 1148.87 322 1133.74 349.23 1198.13 353.12 1188.62 372.13 1221.9 395.03 1183.87 413.62 1230.54 433.49 1201.59 460.29 1248.69 474.11 1209.37 511.27 1293.63 539.36 1241.34 553.62 1264.24 576.53 1192.94 584.74 1221.03 599.43 1147.57 642.64 1272.67 665.98 1200.72 676.35 1220.82 702.92 1153.4 713.29 1193.59 736.95 1044.51 503.06 673.96"/>
            <polygon class="cls-1" points="445.22 1278.04 433.56 1303.11 445.22 1345.1 453.97 1311.57 445.22 1278.04"/>
            <polygon class="cls-1" points="542.69 1295.06 534.98 1334.33 550.52 1349.04 554.22 1322.96 542.69 1295.06"/>
            <polygon class="cls-3" points="387.04 1236.63 386.18 1241.61 388.62 1243.77 390.07 1239.01 388.12 1235.34 387.04 1236.63"/>
            <polygon class="cls-3" points="602.96 1247.67 608.47 1262.11 603.78 1267.56 599.76 1259.62 602.96 1247.67"/>
            <polygon class="cls-3" points="298.63 1175.44 297.76 1180.41 300.2 1182.57 301.65 1177.82 299.7 1174.15 298.63 1175.44"/>
            <polygon class="cls-3" points="390.04 1291.37 387.95 1300.01 390.04 1305.63 392.39 1298.5 390.04 1291.37"/>
            <polygon class="cls-3" points="482.89 1299.46 480.08 1305.3 482.57 1309.94 485.22 1305.62 482.89 1299.46"/>
            <polygon class="cls-3" points="504.66 1321.9 499.14 1336.35 503.83 1341.79 507.85 1333.86 504.66 1321.9"/>
            <polygon class="cls-3" points="583.58 1328.47 581.49 1337.12 583.58 1342.73 585.92 1335.6 583.58 1328.47"/>
            <polygon class="cls-3" points="589.87 1285.66 594.54 1294.85 589.87 1301.97 585.52 1294.85 589.87 1285.66"/>
            <polygon class="cls-1" points="697.86 1236.8 688.04 1276.25 695.64 1284.88 708.73 1268.09 697.86 1236.8"/>
            <polygon class="cls-3" points="417.97 1275.28 415.88 1283.92 417.97 1289.54 420.31 1282.4 417.97 1275.28"/>
            <polygon class="cls-1" points="317.95 1193.94 308.13 1233.39 315.73 1242.02 328.82 1225.23 317.95 1193.94"/>
            <polygon class="cls-3" points="621.39 1284.14 626.9 1298.59 622.21 1304.03 618.2 1296.1 621.39 1284.14"/>
        </g>
        <g id="Tete_Gauche" data-name="Tete Gauche">
            <path class="cls-1" d="M281,452.32c.94,1.46,3.17,4.48,3.36,4.71,9.61,12,18.2,11,18.2,11L425.93,306.94c56.5-70.77-21.26-173.89-27.43-182.44-8.81-12.22-75-77-75-77" transform="translate(-80.37 -1.58)"/>
            <path class="cls-1" d="M283.32,456.74l-27.1,29.31s-17.26,13.58-26.56,8.38c0,0-12.51,23.18-50.33,44.63S82.5,464.5,82.5,464.5" transform="translate(-80.37 -1.58)"/>
            <path class="cls-1" d="M318.31,268.8l41.55,44.26s-5.59,19.63-40.34,17.58Z" transform="translate(-80.37 -1.58)"/>
        </g>
        <g id="Tete_Droite" data-name="Tete Droite">
            <path class="cls-1" d="M892.36,452.32c-.93,1.46-3.17,4.48-3.36,4.71-9.61,12-18.2,11-18.2,11L747.41,306.94c-48.23-59.23,5-148.6,22.54-174.72A93,93,0,0,1,780,119.73L849.33,47.5" transform="translate(-80.37 -1.58)"/>
            <path class="cls-1" d="M890,456.74l27.1,29.31s17.26,13.58,26.56,8.38c0,0,12.85,31.18,50.34,44.63S1098.5,428.5,1098.5,428.5" transform="translate(-80.37 -1.58)"/>
            <path class="cls-1" d="M855,269l-41.47,44.17s5.58,19.59,40.26,17.54Z" transform="translate(-80.37 -1.58)"/>
        </g>
    </g>
</svg>