<svg id="CONTENT" xmlns="http://www.w3.org/2000/svg" viewBox="0 0 1170.51 1640.43"><defs><style>.cls-1,.cls-4,.cls-6,.cls-7{fill:#fff;}.cls-2,.cls-3{fill:none;}.cls-2,.cls-5,.cls-6,.cls-7{stroke:#000;}.cls-2,.cls-3,.cls-4,.cls-5,.cls-6,.cls-7{stroke-miterlimit:10;}.cls-2,.cls-3,.cls-4,.cls-5,.cls-6{stroke-width:5px;}.cls-3{stroke:#1d1d1b;}.cls-4{stroke:#fff;}</style></defs><g id="CLOUDS_FALL" data-name="CLOUDS FALL"><g id="Nuage_Haut" data-name="Nuage Haut"><polyline class="cls-1" points="4.5 518.2 17.5 521.49 30.43 530.45 36.5 547.85 38.5 555.54 49.5 559.93 55.54 571.28 55.5 585.19 65.5 589.58 76.5 602.76 93.5 604.96 105.5 611.55 113.5 630.22 115.48 659.32 129.22 656.24 143.5 657.67 152.6 661.64 163.5 677.44 166 697.94 166.69 703.1 177.59 703.1 192.5 704.89 199.21 717.62 198.5 732.35 190.5 748.82 177.13 762.16 182.32 769.25 190.09 781.32 194.11 802.09 194 814.44 201.5 818.01 215.9 823.93 226.2 835.05 229 849.31 249.5 844.86 263.5 846.01 271 852.6 278 859.19 284 852.6 293 847.11 303 846.01 314 850.41 323 859.19 328.08 867.95 330.06 879.05 326.12 892.74 334.75 897.48 345 909.71 348.35 923.79 349 939.36 359.36 944.53 366.01 953.85 369.5 961.33 382.51 976.78 387 1000.68 391 1049.18 397.95 1096.59 738 1096.59 738 1039.61 738.43 1013.03 746.51 990.92 757.33 981.58 771 981.1 785 982.19 794 990.43 808.63 977.25 820 974.51 821 962.43 825 950.35 837 937.17 849.95 930.67 852 917.4 855.21 901.73 868 885.55 876 880.06 892.34 876.58 904.84 882.57 917 892.14 925 901.02 932.53 893.24 945.36 885 950.22 880.8 946.44 858.83 952.85 843.79 959 837.23 973.34 832.84 978.92 832.84 982 809.77 990 797.69 1003.93 790.8 999.87 768.4 1003 751.57 1007.82 738.34 1016.13 729.13 1031 724.11 1044.92 723.31 1059 725.21 1061 724.11 1059 711.3 1060 699.95 1063 691.17 1059.84 683.36 1057 669.2 1058 651.63 1065 637.35 1077.5 631.35 1094 626.37 1099.47 622.39 1093.56 613.52 1089.96 604.04 1091.47 591.8 1098 582.44 1105.68 574.71 1103.39 570.22 1097.28 562.84 1097.14 552.4 1101.98 544.55 1111 538.51 1119 535.22 1127 534.12 1134 534.12 1135 520.94 1138 509.96 1145.99 501.26 1155 495.68 1162.75 495.21 1168 496.78 1168 1260.96 4.5 1269.01"/><path class="cls-2" d="M3,1400l1165-5.49V625.76c-16.24-3-29.47,8.18-33,24.16a34.66,34.66,0,0,0,15,36.24" transform="translate(0 -130.07)"/><path class="cls-2" d="M27,693.85c3.37-3.18,8.86-9.49,9-17.57.22-13.09-11.66-27.59-33-29.66v565.59" transform="translate(0 -130.07)"/><path class="cls-2" d="M35,684c2,.11,10.69.72,15,5.5,5.6,6.21,7.58,19.13,3,28.55" transform="translate(0 -130.07)"/><path class="cls-2" d="M46,725.7c1-2.25,3.39-7,8-8.79,7.06-2.67,17.93,3.76,23,15.38" transform="translate(0 -130.07)"/><path class="cls-2" d="M61,756.45c.34-1.64,4-18.13,17-23.07a25,25,0,0,1,20,2.2c15.45,8.88,21.27,38.94,15,74.68" transform="translate(0 -130.07)"/><path class="cls-2" d="M117,789.39c2.53-1,21.21-7.9,34,1.1,14.54,10.23,20.13,35.9,9,59.3" transform="translate(0 -130.07)"/><path class="cls-2" d="M166,833.32c10.5-2.41,24.9-.9,30,6.59,7.94,11.66-1,29.2-3.76,34.57A50.56,50.56,0,0,1,175,893.72" transform="translate(0 -130.07)"/><path class="cls-2" d="M150,886c3.86.05,23.14.72,35,16.47,13.8,18.33,12.28,50.09-7,73.58" transform="translate(0 -130.07)"/><path class="cls-2" d="M194,946.44c14.12.57,30.21,10.07,34,23.06,4.9,16.78-4.6,37.45-23,43.93" transform="translate(0 -130.07)"/><path class="cls-2" d="M230,980.48c2.06-1,22.27-12,35-4.39,13.69,8.21,20.34,29.75,13,50.52" transform="translate(0 -130.07)"/><path class="cls-2" d="M279,990.37c1.79-2.08,8-16.48,22-15.38,13.38,1,25.62,11.34,28,25.26,1.55,9.11-1.53,17.77-3,20.87" transform="translate(0 -130.07)"/><path class="cls-2" d="M311,1022.21a28.84,28.84,0,0,1,19,2.2c12.56,6.4,20.18,24.08,19,42.83" transform="translate(0 -130.07)"/><path class="cls-2" d="M325,1081.52c5-9.1,14.61-13.91,24-12.08,9.9,1.92,17.64,10.83,19,22" transform="translate(0 -130.07)"/><path class="cls-2" d="M356,1104.58c7.95-12.65,13.83-12.23,15-12.08,8.4,1.07,15.72,18.72,16,45" transform="translate(0 -130.07)"/><path class="cls-2" d="M1134,665.29c-20-7.68-38.9,12.76-38,23.07.65,7.48,8.35,14.39,18,17.57" transform="translate(0 -130.07)"/><path class="cls-2" d="M1107,703.73c-1.3,1.13-18,13.18-17,26.36a37.31,37.31,0,0,0,9.47,22.38,30.5,30.5,0,0,0,14.53,8.37" transform="translate(0 -130.07)"/><path class="cls-2" d="M1098,754.25c13.06-.18-31,2.2-39,24.16a48.06,48.06,0,0,0,5,42.83" transform="translate(0 -130.07)"/><path class="cls-2" d="M1076,810.26a35.3,35.3,0,0,0-17,29.65c-.14,15.62,10.54,30.18,26,34.05" transform="translate(0 -130.07)"/><path class="cls-2" d="M1064,857.48c-2.51-1-30.85-10.11-47,1.1-15.94,11.06-21.13,38.47-14,61.5" transform="translate(0 -130.07)"/><path class="cls-2" d="M1034,927.77c-1.41-1.17-15-12.06-31-6.59-13.89,4.75-27,22-23,41.73" transform="translate(0 -130.07)"/><path class="cls-2" d="M996,975c-1.84-2.46-7.18-8.93-16-11a27.23,27.23,0,0,0-30,14.28c-5.11,9.75-4.69,24.26,1,34" transform="translate(0 -130.07)"/><path class="cls-2" d="M986,1025.51c-1.32-1.42-15.4-16.06-35-12.08-14.78,3-26.85,15.42-31,31.85" transform="translate(0 -130.07)"/><path class="cls-2" d="M925,1029.9c-1.15-1.54-20.51-25.57-40-23.06s-36.16,24.76-35,52.71" transform="translate(0 -130.07)"/><path class="cls-2" d="M820,1102.38c-2-19.76,12.45-38.1,27-41.73,9.71-2.42,18.14,1.24,22,3.3" transform="translate(0 -130.07)"/><path class="cls-2" d="M840,1104.58a38.37,38.37,0,0,0-22-1.1c-21.21,5.42-30,28.06-31,30.75" transform="translate(0 -130.07)"/><path class="cls-2" d="M794,1120c-8-9.89-27.26-13.17-38-7.69-15.52,7.92-17.87,32.92-18,34" transform="translate(0 -130.07)"/><path class="cls-3" d="M160.06,1241.47s14.26-28.66,35-45.78c18-14.86,40.92-21,63.63,7.9a196.18,196.18,0,0,1-2.86-30.48c-.37-28.09,9.21-65.27,41.17-35.58" transform="translate(0 -130.07)"/><path class="cls-3" d="M1059.5,1145.5s-98.48-117,35.52-134" transform="translate(0 -130.07)"/><path class="cls-3" d="M1044.71,1221.79s-28-55.27-51.11-6.76" transform="translate(0 -130.07)"/><path class="cls-3" d="M35.06,900.48S57.3,912.2,71.73,929.55c12.54,15.06,19.17,34.36.23,53.91a119.07,119.07,0,0,1,22-2.77c20.45-.66,47.65,17.67,29,45.06" transform="translate(0 -130.07)"/><path class="cls-3" d="M115.42,926.9s-31.77-23.27-43.69,2.65" transform="translate(0 -130.07)"/><path class="cls-3" d="M76.54,1064.37s-5.47,82.06,36.63,49.11" transform="translate(0 -130.07)"/></g><g id="Nuage_Bas" data-name="Nuage Bas"><polygon id="Fond" class="cls-1" points="3.54 1047.92 14.89 1043.61 29 1049.16 41.68 1064.29 45.5 1066.93 56 1062.21 72 1062.21 80.84 1063.33 87.59 1069.64 86.41 1081.06 86.12 1085.85 95 1087.31 109.75 1099.22 112.5 1118.83 130.44 1118.83 150.3 1121.55 167.9 1136.34 173.92 1156.8 173.92 1165.94 183.61 1175.23 187.5 1181.17 210.5 1173.14 221.5 1171.13 235.5 1175.15 243.5 1179.16 259.5 1194.22 266.5 1209.28 271.5 1216.31 281.99 1216.46 289.09 1220.43 300.29 1227.23 305.5 1237.39 316.56 1234.14 334.42 1235.36 347.5 1245.42 350.51 1252.94 352.5 1265.49 362.22 1264.79 375.5 1266.5 381.16 1269.12 384.64 1259.76 389.92 1249.35 397.45 1238.39 406.5 1232.37 421.79 1231.36 432.22 1233.21 444.5 1239.39 456.22 1248.6 460 1258.32 471.5 1257.46 482.5 1259.47 496.24 1265.49 504.5 1279.32 513.11 1278.57 524.34 1278.57 536.02 1281.35 539.5 1275.53 545.09 1266.05 557.5 1259.47 568.5 1258.47 581.4 1262.23 590.24 1273.11 598.5 1271.52 612.5 1267.5 623.59 1268.7 632.67 1277.54 637.08 1289.87 634.63 1304.3 638.58 1310.02 648.64 1318.41 653.34 1320.04 662.5 1312.68 671.67 1311.2 678.75 1306.65 688.56 1300 696.5 1299.63 707.11 1284.27 716.5 1275.53 728.5 1271.52 737.5 1270.51 737.5 1261.98 740.5 1251.44 747.5 1244.41 757.5 1238.39 767.5 1238.39 780.87 1243.51 787.34 1252.91 791.5 1260.47 801.5 1256.46 814.21 1254.68 825.9 1259.19 837.57 1267.67 843.5 1265.49 850.21 1258.24 866.22 1254.26 885.1 1257.55 891.22 1239.57 903.48 1225.77 916.68 1219.95 915.8 1213.34 910.09 1199.74 910.09 1188.53 911.35 1177.64 915.99 1168.94 923.45 1164.91 938.22 1163.82 946.86 1169.42 951.02 1169.64 960.89 1152.54 978.5 1143.02 990.67 1141.3 1001.5 1149.05 1011.48 1154.95 1024.13 1130.78 1033.5 1121.94 1045 1116.92 1054.22 1116.92 1065.63 1122.11 1069.5 1122.95 1074.68 1117.58 1086.67 1114.66 1093.42 1115.53 1095.5 1107.89 1101.5 1099.86 1109.5 1095.84 1118.47 1095.68 1124.5 1095.84 1127.16 1085.71 1134.5 1080.79 1144.5 1077.77 1153.01 1076.25 1162.5 1077.77 1167.5 1080.06 1167.5 1635.75 2.5 1637.93 3.54 1047.92"/><path class="cls-2" d="M1010.5,1284.14c-2-1.81-17-16.06-32.28-12.07-16.71,4.37-31.18,22.49-29.14,46.53" transform="translate(0 -130.07)"/><path class="cls-2" d="M949.5,1302.21c-7-9-22.82-10.23-30.16-5.89-11.42,6.76-9.32,25-8.67,30.62a48.4,48.4,0,0,0,9.14,22.9" transform="translate(0 -130.07)"/><path class="cls-2" d="M945.58,1353c-3.59-1.46-21.61-8.35-38.08.33-19.17,10.12-28.93,37.49-19.39,64.77" transform="translate(0 -130.07)"/><path class="cls-2" d="M883.5,1387.54c-13-7-31.14-3.81-39.21,5.68-10.41,12.25-8.91,33.36,5.79,46" transform="translate(0 -130.07)"/><path class="cls-2" d="M839.5,1399.58c-1.54-1.64-17.23-16.65-31.66-15.14-15.51,1.63-29.22,17.21-29.74,37.57" transform="translate(0 -130.07)"/><path class="cls-2" d="M792.5,1390.55c-.92-2.44-8.11-16.84-17.48-21-12.28-5.42-27.63-.36-34.71,10.45-4.63,7.08-4.08,15.37-3.81,18.55" transform="translate(0 -130.07)"/><path class="cls-2" d="M749.2,1405.53a31.27,31.27,0,0,0-18.3-5.51c-13.83.54-26.91,12.41-32.4,28.68" transform="translate(0 -130.07)"/><path class="cls-2" d="M715.45,1450.12a23.19,23.19,0,0,0-43.14-8.32" transform="translate(0 -130.07)"/><path class="cls-2" d="M678.75,1457.56c-2.89-13.75-8.46-15.67-9.6-16-8.12-2.35-21.07,9.7-30.57,31.78" transform="translate(0 -130.07)"/><path class="cls-2" d="M38.52,1222.34c7.51-11.66,6.59-26.63-1.81-36.34-9.82-11.36-21-17.14-34.21-7.26V1768h1165V1208" transform="translate(0 -130.07)"/><path class="cls-2" d="M43.5,1198.81c14-14,40.42-8.34,43.92.44,2.54,6.38-1.4,15.54-8.65,22.57" transform="translate(0 -130.07)"/><path class="cls-2" d="M85.5,1215.88c1.63.31,19-1,24.69,14.51,3.84,10.48,2,19.65.93,22.53a31.48,31.48,0,0,1-9.41,13.49" transform="translate(0 -130.07)"/><path class="cls-2" d="M111.5,1251c1.37-.55,30.76-6.47,46.42,4.35,11.44,7.9,17.72,24.65,15.58,38.82" transform="translate(0 -130.07)"/><path class="cls-2" d="M156.12,1289.05c11.7.29,22.32,6.46,27.49,16.26,6.65,12.62,3.24,29.36-8.88,39.62" transform="translate(0 -130.07)"/><path class="cls-2" d="M186.5,1313.25c1.81-2,23-17.06,42.23-12.13,18.26,4.69,37.49,22.27,40.77,44.26" transform="translate(0 -130.07)"/><path class="cls-2" d="M242.53,1365.15c.76-1.6,8.28-16.7,24.79-19.63,14.33-2.54,34.18,6.88,40.18,22.94" transform="translate(0 -130.07)"/><path class="cls-2" d="M296,1386a29,29,0,0,1,9.63-16.29c8.52-7,22-9.08,32.62-2.22,8.61,5.57,15.2,17.52,14.23,28.08" transform="translate(0 -130.07)"/><path class="cls-2" d="M326,1422.43c.58-1.76,7-20.14,26.05-25.94,14.39-4.36,30.3.16,40.85,11.59" transform="translate(0 -130.07)"/><path class="cls-2" d="M382.5,1398.58c.38-1.78,6-34.13,25.45-37.83,19.14-3.65,42.48,3.45,53.13,26.69" transform="translate(0 -130.07)"/><path class="cls-2" d="M504.5,1407.62c-8.1-16.62-25.85-24.42-40.3-20.67-9.64,2.51-15.6,9.36-18.17,12.81" transform="translate(0 -130.07)"/><path class="cls-2" d="M488.77,1419.41a41.84,41.84,0,0,1,19.09-11c21.11-5.36,38.38,9,40.39,10.7" transform="translate(0 -130.07)"/><path class="cls-2" d="M537.5,1410.63c1-17.07,17-24.29,29.12-23.67a28,28,0,0,1,25.88,23.67" transform="translate(0 -130.07)"/><path class="cls-2" d="M592.5,1403.6c9-6.47,24.55-10.25,33-5,11,6.78,15.23,24.75,8,38.15" transform="translate(0 -130.07)"/><path class="cls-2" d="M611.5,1443.75c9.92-7.92,22-8.68,29-3,4.13,3.37,9.5,8.26,10,11" transform="translate(0 -130.07)"/><path class="cls-3" d="M187.88,1711.38s-15.56-25.45-37.07-40c-18.67-12.65-41.84-17.1-63.18,10.45a164,164,0,0,0,1.44-28c-.92-25.66-24.63-56-55.18-27.24" transform="translate(0 -130.07)"/><path class="cls-3" d="M143.31,1398.28s29.88,35,.5,55.09" transform="translate(0 -130.07)"/><path class="cls-3" d="M318,1657.29s-94.11,22.54-92.77-50.21" transform="translate(0 -130.07)"/><path class="cls-3" d="M231.47,1632.65s-71.09,27.74-64.27-23.33" transform="translate(0 -130.07)"/><path class="cls-3" d="M272.92,1596.49s-56.7,42.44-95.34-30.85" transform="translate(0 -130.07)"/><path class="cls-3" d="M510.66,1544.85c-51.7,86.55-86.56,2.88-86.56,2.88s3.24,31.18-11.64,26.62" transform="translate(0 -130.07)"/><path class="cls-3" d="M498.71,1512.17s6.61,66.49,39,21.76" transform="translate(0 -130.07)"/><path class="cls-3" d="M660.5,1620.56c17-14.79,39.51-22,64,2.84a164.23,164.23,0,0,1-4.74-27.6c-2.13-25.6,17.82-58.52,51.56-33.65" transform="translate(0 -130.07)"/><path class="cls-3" d="M628.44,1664.72s12.43-27.13,32.06-44.16" transform="translate(0 -130.07)"/><path class="cls-3" d="M654.47,1565.81s-25.52,38.35,6,54.75" transform="translate(0 -130.07)"/><path class="cls-3" d="M964.45,1616.84" transform="translate(0 -130.07)"/><path class="cls-3" d="M889.73,1691.33" transform="translate(0 -130.07)"/><path class="cls-3" d="M998.34,1563.57" transform="translate(0 -130.07)"/><path class="cls-3" d="M915.67,1620.24" transform="translate(0 -130.07)"/><path class="cls-3" d="M1003.81,1440.87c29.57,96.12,83.1,23.43,83.1,23.43s-10.51,29.41,5,28.54" transform="translate(0 -130.07)"/><path class="cls-3" d="M1023.11,1412.09s-22.14,62.78-42.94,11.76" transform="translate(0 -130.07)"/></g><g id="CHUTE"><rect class="cls-4" x="164.5" y="298.43" width="807" height="792"/><line class="cls-2" x1="455.07" y1="336.2" x2="454.8" y2="588.91"/><line class="cls-2" x1="500.51" y1="377.81" x2="500.37" y2="435.69"/><line class="cls-2" x1="542.92" y1="299.14" x2="544.26" y2="432.3"/><line class="cls-2" x1="588.14" y1="322.79" x2="588.53" y2="374.76"/><line class="cls-2" x1="632.5" y1="301.54" x2="632.28" y2="340.23"/><line class="cls-2" x1="723.58" y1="329.84" x2="723.58" y2="678.5"/><line class="cls-2" x1="677.83" y1="372.33" x2="677.99" y2="402.14"/><line class="cls-2" x1="632.5" y1="391.83" x2="632.5" y2="541.62"/><line class="cls-2" x1="677.3" y1="485.84" x2="677.91" y2="594.48"/><line class="cls-2" x1="587.34" y1="532.17" x2="588.65" y2="694.85"/><line class="cls-2" x1="541.78" y1="496.71" x2="542.9" y2="713.71"/><line class="cls-2" x1="499.23" y1="530.21" x2="499.23" y2="637.44"/><line class="cls-2" x1="405.47" y1="486.23" x2="405.2" y2="738.93"/><line class="cls-2" x1="455.15" y1="651.95" x2="455.06" y2="789.35"/><line class="cls-2" x1="500.24" y1="682.68" x2="501.55" y2="845.35"/><line class="cls-2" x1="353.84" y1="574.36" x2="355.15" y2="737.03"/><line class="cls-2" x1="543.28" y1="748.95" x2="543.08" y2="806.84"/><line class="cls-2" x1="404.89" y1="331.82" x2="405.5" y2="440.46"/><line class="cls-2" x1="354.3" y1="298.43" x2="354.69" y2="384.66"/><line class="cls-2" x1="632.64" y1="610.68" x2="632.36" y2="823.37"/><line class="cls-2" x1="588" y1="764.01" x2="589.3" y2="926.68"/><line class="cls-2" x1="543.28" y1="866.65" x2="543.89" y2="952"/><line class="cls-2" x1="500.9" y1="890.26" x2="501.14" y2="920.28"/><line class="cls-2" x1="677.44" y1="668.72" x2="677.17" y2="874.83"/><line class="cls-2" x1="722.08" y1="747.27" x2="722.1" y2="909.95"/><line class="cls-2" x1="768.79" y1="323.49" x2="769.4" y2="432.13"/><line class="cls-2" x1="766.69" y1="488.79" x2="766.41" y2="741.49"/><line class="cls-2" x1="809.72" y1="570.16" x2="809.64" y2="637.44"/><line class="cls-2" x1="809.88" y1="365.74" x2="809.54" y2="410.07"/><line class="cls-2" x1="809.52" y1="685.12" x2="809.76" y2="715.13"/><line class="cls-2" x1="310.17" y1="296.95" x2="853.96" y2="296.95"/></g><g id="TETE_GAUCHE" data-name="TETE GAUCHE"><path class="cls-5" d="M311,667.33a32.53,32.53,0,0,0,5.73,1.18,36.25,36.25,0,0,0,21.07-4.34l-19-204.42c-5.75-91.16-145.72-116.24-145.72-116.24h0S88.54,315.07,28,345.82c-13.33,6.77-19.79,16-25.5,21.68L3,646.62l12.5,1.88,6,2.67,6.94,7,6.06,5.31L36,672l-1,10,6.83,2,9.67,4.54,4,10.83,2,6.17,22-3" transform="translate(0 -130.07)"/><path class="cls-5" d="M98,596.8l40.5-13.3,102,6L315.81,669v40.39s-3.49,21.94-14,24.47c0,0,11.53,14.39-6.73,67.73l15.07,92.5-92.84,25.33L98,850.72,76.67,742.65,84.5,702.5l18-22L80,626.78l18-30" transform="translate(0 -130.07)"/><path class="cls-6" d="M223.89,513l45.34-10.53s10,16.38-5.89,45.65Z" transform="translate(0 -130.07)"/></g><g id="TETE_DROITE" data-name="TETE DROITE"><path class="cls-5" d="M849.72,667.33c-1.7.44-5.43,1.14-5.72,1.18-15.39,2.32-21.07-4.34-21.07-4.34l19-204.42c5.74-91.16,145.72-116.24,145.72-116.24l12.65-2.62s94.21-19.39,137.21-2.39l30,15,.5,272.26-7.5-1.26-7.83.79-8.17,6.21-10,9-2,11,.42,12.1h-15.25l-10.28,6.31-7.89,3.59" transform="translate(0 -130.07)"/><path class="cls-5" d="M1079.5,612.5l-21-3-74.17,4H925.5L846,669v40.39s3.49,21.94,14,24.47c0,0-11.52,14.39,6.73,67.73l2.85,96.91,138-24,84-111,9.61-87.53L1061.5,639.5l18-27" transform="translate(0 -130.07)"/><path class="cls-6" d="M937.87,513l-45.34-10.53s-10,16.38,5.89,45.65Z" transform="translate(0 -130.07)"/></g><circle class="cls-6" cx="581.56" cy="36.93" r="34.43"/><g id="NUAGE_CHUTE" data-name="NUAGE CHUTE"><path id="Fond-2" data-name="Fond" class="cls-7" d="M64.31,705.86l19.47-2,23.06,4.72,16.21,13.32L134,720l10.08,1,13.67,7.65L169.5,743.5,173.12,759l17.71.71,11.5,2.93,7.26,8.84,1,12-1.86,7.35,9.4-1.8,8,.5,5.43,3.33L238,788l14.7-3.66L265,792l.84,4.93,12.34-1,13.95,3.59,7.57,8.28,2.13,14.54L307,826l7,3,10.48,5.4,7,12.78L330,863h8.56l11.66,6,6.82,9.37L358,892l-.39,15.79,7.19-5,8.19.12,6,6.22L382.6,917v4l11.91-1.57L402,921l24.41,14.7,14,22.37V979.9l-7.6,18.38,9,6.66,8.7,14.48,3.79,23.54,13.13,4.07,12.29,13.53,6.62,13.11L500,1071l18.25,4.43,15.73,9.7,8.19,5.31,8-11.28,18.74-16.63,16.14-5.77,14,5.41,22.27-13.24L642,1043l17.81,3.68,13.77,12.16,4,6.07,22.62-12.31,21.89-7.36,8.69-19.19,14.61-15.83-4-26.24,4-25.31L755.48,946l11.2-8,18.71-3.92L793.67,919,806.5,905.5l18.66-4.15,10.17.5-9.55-15.12-2.31-17.38,4.81-15.29,8.26-12.23,13.87-11.26,11.09-7.07-1.25-9.77,6.4-12.14,8.3-4.37L889.42,796l6.5.93,5.4-9.11,9.47-4.38,11.4,1.78,8.76,5.91,8.79-2.45L954.32,794,952.5,781.5l.51-11.87,6.36-6.56,15.69-4.3,13.58.22,6.48-21.93,9.82-14.92,11.06-4.52,8.89,2.48,10.19,7.82,9.82,11.57,1.6,4,3-14,8-16,7.67-14.36,8.25-10.3,11.08-8.34,12-4h8.7l13.33,5.17,11.34,10.26,6.52,13.7.11,24.87-5,15-11.92,15.84,3.23,9,2.13,15.84-8.2,15.22-1.24,6.1,2.72,7.67-1.52,11.47-9.78,13.86,7.69,4.87,10.17,11,4.89,10.55,1.83,13.6-2,17-6,11L1111.65,919l-5.54,3.48,2.49,11.61L1103,953.28,1084.11,975l9.39,10.47,2.48,24.61-6.11,26.54-14.13,22.57-19.22,13.68-.08,10.1,1.06,4.5-2,12,10,8,2,17-3,10.06-7.33,10.94,5.11,8.81,1.38,16.43,4.64,19-1.69,21.12-8.7,18.32-11.46,16.45,12,9.83,4,16-3,14-10.59,8.48-15.41,6,4,10.5,7,17-4.13,23-8.87,25-14.41,17.25-33.78,21.57-3.21,4,7.4,16.16,6,21-11.75,29.77L966.5,1499.5l-18.35,4.64-15.28.61-8.45,17.54-12.92,11.15,2.85,10.45-2.85,25.61-14,17,1.36,15.42-8.36,25.58-16,11-22,2,.21,14-12.21,18-19,4-15.07-4.26L794.5,1663l-36.3,15.81-24.64-1-31.06-12.12-5.17,1L679,1702.19,654.5,1726.5l-18.32,3.6-19.52-6.5-14.1-11.16-11.36-12.71-14.32-20.31-12,5.52h-16l-14.56-11.75-12.62,15.22L498.83,1707l-27.33,7.47-23.09-1.39-28.38-18L389,1656l-11.52,4.52-13,11-20.09,1.26-19.63-12.34-10.51-17.3L307.52,1632l-6-5.47-10-16-2.68-33.25L260.64,1566l-22.14-34.5-6.59-27.08-16-6.92-3-12.52-31.83-.35-23.5-5.38-15-12.75-5.87-9.88,4.87-20.12,5-14,6.32-6.87L152,1409l-8,2-29.77,5.19-15.63-5.54-1.27-4.48-12.07-2.69-10.43-8.39-5.22-13.19.89-19.4-9.9-3.87-9.1-9.13-5.39-12.67,1.39-16.33,6-8L59,1306l-4-6-14-8-10-19,1-18,6-9,8-8-.58-6.44L37,1222l-7-12-2-15,3-12,5-13,4-8-5-7-7.87-10.46s-2.64-10.76-2.89-10.65S28,1121,28,1121l6-11-3-6-7-6-5.22-6.82L20,1078l4.24-6.91L21,1063l-2.22-9.89L20,1041l3-9,5-5,5-5-5-14-1-11,3-7,4-7-4-6L20,963l-5-19,3-15,4-8,11-5-1-10-8-11-5-13V865l6-19,3-10L14.58,822.76,9,805l4.05-19.93,4.15-7.83-3-15.14L21,748l6-12,8-14,12.19-10Z" transform="translate(0 -130.07)"/><path class="cls-2" d="M753.42,1415.91s-21.21,56.94-52.36,21.94" transform="translate(0 -130.07)"/><path class="cls-2" d="M750.51,1420.09s91.9,40.08-2.38,90.58" transform="translate(0 -130.07)"/><path class="cls-2" d="M469.82,1457.44s-71.84,3.7-63.12-74.88" transform="translate(0 -130.07)"/><path class="cls-2" d="M376.82,1482.5" transform="translate(0 -130.07)"/><path class="cls-2" d="M409.75,1420s-36.87-4.42-64.48,8.46c-18.65,8.71-33.08,25.31-29,56.51" transform="translate(0 -130.07)"/><path class="cls-2" d="M301.61,1401s49.59-8.09,43.66,27.43" transform="translate(0 -130.07)"/><path class="cls-2" d="M508.11,1547.94c1.75-3.93-63.34-39.35-17-63" transform="translate(0 -130.07)"/><path class="cls-2" d="M702.5,1652S657,1808,576.88,1679.17" transform="translate(0 -130.07)"/><path class="cls-2" d="M612.88,1643.12s-50.54,74.72-80.67,27.33" transform="translate(0 -130.07)"/><path class="cls-2" d="M387.5,1653.5c81.66,135.26,153,10.22,153,10.22" transform="translate(0 -130.07)"/><path class="cls-2" d="M402.5,1638.5c-3.45,2.43-61.87,80.67-92.54-6.13" transform="translate(0 -130.07)"/><path class="cls-2" d="M233.85,1504.42s7.36,95.36,84.23,68.93" transform="translate(0 -130.07)"/><path class="cls-2" d="M289,1576.73s-5.91,77.41,46.35,51.86" transform="translate(0 -130.07)"/><path class="cls-2" d="M313.81,1524.11s-26.42,69.35,64.75,78.34" transform="translate(0 -130.07)"/><path class="cls-2" d="M359.09,1256.44s71.84,3.7,63.12-74.88" transform="translate(0 -130.07)"/><path class="cls-2" d="M745.39,1010.24s-52.69,40.1,0,80.2" transform="translate(0 -130.07)"/><path class="cls-2" d="M722.09,1045.26s-58.09,11.79-58.39,52c-.39,51.44,37.58,32.71,42.3,40.18" transform="translate(0 -130.07)"/><path class="cls-2" d="M666.39,1117.67s-77.13,1-69.26,74.5" transform="translate(0 -130.07)"/><path class="cls-2" d="M419.16,1219s36.87-4.42,64.48,8.46c18.66,8.7,33.08,25.31,29.05,56.51" transform="translate(0 -130.07)"/><path class="cls-2" d="M527.3,1200s-49.59-8.1-43.66,27.43" transform="translate(0 -130.07)"/><path class="cls-2" d="M988.64,938.36s-30.49-2.7-56.95,6.87c-23,8.3-42.94,25.85-37.25,62.43a144.57,144.57,0,0,0-20.24-19.31C854,972.61,814,974,814,1019.42" transform="translate(0 -130.07)"/><path class="cls-2" d="M889.42,910.16s48-3.75,42.27,35.07" transform="translate(0 -130.07)"/><path class="cls-2" d="M988.64,1139.56s-63.59-73.84-108.82-5" transform="translate(0 -130.07)"/><path class="cls-2" d="M901.32,1114.12s-41.2-65.8-68.09-14.21" transform="translate(0 -130.07)"/><path class="cls-2" d="M912.61,1171.18s-19.92-71.49-98.62-24.6" transform="translate(0 -130.07)"/><path class="cls-2" d="M780.76,1289.26s6.36-162.41-110.12-65.24" transform="translate(0 -130.07)"/><path class="cls-2" d="M846,1289.26c-72.54-34.07-100.56,45.88-100.56,45.88" transform="translate(0 -130.07)"/><path class="cls-2" d="M692.89,1269.55s-24.52-86.81-68-51.27" transform="translate(0 -130.07)"/><path class="cls-2" d="M320.8,1346.94c-1.75-3.93,63.34-39.35,17-63" transform="translate(0 -130.07)"/><path class="cls-2" d="M841.65,1324s-12.35-59.68,36.18-45.91" transform="translate(0 -130.07)"/><path class="cls-2" d="M556.53,1417.94c103.82,4.68,60.77-77.3,60.77-77.3s22.63,21.65,29.06,5.33" transform="translate(0 -130.07)"/><path class="cls-2" d="M538.59,1387.45s48.46,45.89-9.05,48.69" transform="translate(0 -130.07)"/><path class="cls-2" d="M239.56,805.3c-12.14-29.63-32.46-10.66-32.46-10.66a39.71,39.71,0,0,0,2.71-7.51c2.92-11.46,2.73-31.63-36.69-28.14,0,0-8.49-51.34-52.78-36.26" transform="translate(0 -130.07)"/><path class="cls-2" d="M230.07,826.71s9.05-57.84,45.27,9.1" transform="translate(0 -130.07)"/><path class="cls-2" d="M230.07,791.62s27.85-19.81,35.77,5.31c0,0,40.15-9.5,35.77,27.7,0,0,39.74,4.83,27.94,37,0,0,41.32-1.31,26.23,48.54" transform="translate(0 -130.07)"/><path class="cls-2" d="M841.65,885.78" transform="translate(0 -130.07)"/><path class="cls-2" d="M922.19,805.3c12.15-29.63,32.46-10.66,32.46-10.66a40.15,40.15,0,0,1-2.7-7.51C949,775.67,949.21,755.5,988.64,759c0,0,13.05-79.37,57.18-18.24,0,0,18-62.41,51.42-64.72,12.21-.84,25.18,5.85,32.76,16.07,13.28,17.91,10,47.87-11.5,70.4" transform="translate(0 -130.07)"/><path class="cls-2" d="M931.69,826.71s-9.06-57.84-45.27,9.1" transform="translate(0 -130.07)"/><path class="cls-2" d="M931.69,791.62s-27.85-19.81-35.77,5.31c0,0-40.15-9.5-35.77,27.7,0,0-21.06,10.35-31.34,28.46a39.31,39.31,0,0,0-5.36,23.38c.72,7.76,3.89,16.25,10.66,25.38,0,0-33.23-7.68-49,32.88,0,0-75.64-.63-28,108.72" transform="translate(0 -130.07)"/><path class="cls-2" d="M260,934.73c42.22-43.61-22.37-47.46-22.37-47.46,11-43.22-61.21-42.17-61.21-42.17" transform="translate(0 -130.07)"/><path class="cls-2" d="M337.83,938.36s31-69.2,46.15-17.06" transform="translate(0 -130.07)"/><path class="cls-2" d="M368.9,934.73s4.37-19.11,32.13-14.63c0,0,62.31,21.54,32.8,76.63" transform="translate(0 -130.07)"/><path class="cls-2" d="M178.07,1021.65s67.74-29.73,74.63,34.1" transform="translate(0 -130.07)"/><path class="cls-2" d="M251.63,1092.47s59.84-15.36,53.82,18.37" transform="translate(0 -130.07)"/><path class="cls-2" d="M332.15,1094.23s-91.91,40.08,2.37,90.57" transform="translate(0 -130.07)"/><path class="cls-2" d="M390.27,996.73s64.54-21.65,63.89,48.53" transform="translate(0 -130.07)"/><path class="cls-2" d="M422.21,1075.43s32.6-70.18,64.08-2.63" transform="translate(0 -130.07)"/><path class="cls-2" d="M350.54,1314.15s82-11.8,54.79-72.14" transform="translate(0 -130.07)"/><path class="cls-2" d="M295.1,1150.9s-41.42-13.82-42.4,28.59" transform="translate(0 -130.07)"/><path class="cls-2" d="M257.78,1159.77s-32-64-78.49-34.17" transform="translate(0 -130.07)"/><path class="cls-2" d="M242.33,1027.75s46.12-62.94,78.47-20.09" transform="translate(0 -130.07)"/><path class="cls-2" d="M458.09,1124.61s9.62-94.87,82.64-34.17c0,0,38.91-53.27,59.24-27,0,0,49.41-47,77.61,1.53" transform="translate(0 -130.07)"/><path class="cls-2" d="M130.34,743.59C125.26,690.94,60,701.32,43.5,714.5s-22,32-22,32" transform="translate(0 -130.07)"/><path class="cls-2" d="M96.11,993.08c-29-99.81,60.84-77.26,60.84-77.26" transform="translate(0 -130.07)"/><path class="cls-2" d="M130,1003.34s-56-36.3-45.2,20.25" transform="translate(0 -130.07)"/><path class="cls-2" d="M126,1228.17s94.18-86.63,91.61,28.13" transform="translate(0 -130.07)"/><path class="cls-2" d="M94.88,1191.77c55,23.08,20.54,79.62,20.54,79.62" transform="translate(0 -130.07)"/><path class="cls-2" d="M179.74,1267.16s63.66-30.71,63.15,11.75" transform="translate(0 -130.07)"/><path class="cls-2" d="M215.86,1485.3c-130.43,6.64-61.36-75.8-61.36-75.8s-53,17-58-3" transform="translate(0 -130.07)"/><path class="cls-2" d="M238.91,1448s-61.63,56.28,10.52,59.15" transform="translate(0 -130.07)"/><path class="cls-2" d="M59.5,749.5c-10.34-11.92-28.07-12.51-38-3-8.37,8-10,22-3,33" transform="translate(0 -130.07)"/><path class="cls-2" d="M28.5,770.5c-2.82,1.53-15.2,8.63-19,23-4.17,15.78,3.72,33.88,20,44" transform="translate(0 -130.07)"/><path class="cls-2" d="M69.5,850.36c-3-11.58-10.1-21.08-19.17-23-14.5-3.14-28.1,17.74-31.95,32.91-7,27.86,15,51.66,17,53.77" transform="translate(0 -130.07)"/><path class="cls-2" d="M42.55,910.72" transform="translate(0 -130.07)"/><path class="cls-2" d="M35.5,941.5" transform="translate(0 -130.07)"/><path class="cls-2" d="M42.5,909.5c-5.77,2.12-19.16,7.44-24,16-8.82,15.58-2.8,39.69,17,57" transform="translate(0 -130.07)"/><path class="cls-2" d="M59.5,984.5c-7.93-5-17.43-6-24-2-9.71,6-13.25,23.12-3,37" transform="translate(0 -130.07)"/><path class="cls-2" d="M67.5,1034.5c-9.17-12-23-17.55-33-14-13.52,4.81-22.8,27.46-11,49" transform="translate(0 -130.07)"/><path class="cls-2" d="M60.5,1098.5c-14.1,10.32-30.86,8.77-38,0-5.24-6.45-7.21-19.14,0-26,5.87-5.59,14.62-4.23,16-4" transform="translate(0 -130.07)"/><path class="cls-2" d="M34.5,1105.5c-1.79,5.23-12,19.29-10,30,4.65,25,25,30.58,28,32" transform="translate(0 -130.07)"/><path class="cls-2" d="M38.5,1163.5c-.92,1.13-17.87,22.59-9,47,6.33,17.42,21.69,25,25,26.51a49.53,49.53,0,0,0,23,4.49" transform="translate(0 -130.07)"/><path class="cls-2" d="M46.5,1235.5c-2.53,1.84-16.16,12.08-17,28-1.11,20.86,19,33.58,22.75,35.78a47.76,47.76,0,0,0,18.25,6.22" transform="translate(0 -130.07)"/><path class="cls-2" d="M1088.5,758.5c11.58-5.07,25-1.53,32,8,7.92,10.74,6,26.78-5,36" transform="translate(0 -130.07)"/><path class="cls-2" d="M1084.5,795.5c11.54-4,24,0,30,9,7.35,11,4,27.76-9,36" transform="translate(0 -130.07)"/><path class="cls-2" d="M1069.5,851.5c1.23-1.21,15.68-15,34-11,18,3.94,26.19,22,28,34,2.77,18.26-7.12,37.3-25,48" transform="translate(0 -130.07)"/><path class="cls-2" d="M1081.5,915.5c4.2-.19,18-.32,24,8,7.67,10.69,1.45,34-22,51" transform="translate(0 -130.07)"/><path class="cls-2" d="M1058.5,966.5c5.33-.06,16.15.63,25,8,16.76,14,12.22,40,11,47-5.53,31.76-33.23,48.65-39,52" transform="translate(0 -130.07)"/><path class="cls-2" d="M1036.5,1066.5c10.72.43,19.6,7.08,22,16,2.26,8.39-2.08,15.55-3,17" transform="translate(0 -130.07)"/><path class="cls-2" d="M1034.5,1103.5c.88-.69,9.2-7,19-4,10.47,3.17,13.49,14.13,14,16,2.83,10.28-1.56,21.94-11,30" transform="translate(0 -130.07)"/><path class="cls-2" d="M1039.5,1144.5c1.62-.44,9.2-2.29,16,2,7.47,4.72,11,14.93,8,25" transform="translate(0 -130.07)"/><path class="cls-2" d="M1047.5,1161.5c9.23,3.07,13.73,7.79,16,11,11.14,15.75,7.16,46.21-17,72" transform="translate(0 -130.07)"/><path class="cls-2" d="M1041.5,1244.5c12.3,3.5,20.8,14.29,21,26,.24,14-13.4,27.84-29,29" transform="translate(0 -130.07)"/><path class="cls-2" d="M1000.5,1281.5c6.28,1.19,22.1,5.12,33,19,21.61,27.51.35,68.58-2,73-17.62,33.1-58.69,51.66-105,50" transform="translate(0 -130.07)"/><path class="cls-2" d="M979.5,1417.5c.82,1,19.35,27.82,10,54-7.6,21.28-30.26,35.34-55,33" transform="translate(0 -130.07)"/><path class="cls-2" d="M928.5,1478.5a39.74,39.74,0,0,1,4,28c-4.13,17.38-18.91,25-21,26" transform="translate(0 -130.07)"/><path class="cls-2" d="M893.5,1519.5c5.22,2.35,12.58,6.84,17,15,8.26,15.25,3.07,37.48-14,54" transform="translate(0 -130.07)"/><path class="cls-2" d="M885.5,1570.5a42.36,42.36,0,0,1,13,24c.23,1.44,3.07,21.25-11,35-17.65,17.24-44.4,7.86-47.31,6.78a49,49,0,0,1-13.69-7.78" transform="translate(0 -130.07)"/><path class="cls-2" d="M854.5,1640.5c1.71,13.79-8.19,30-21,35-12.47,4.83-30.82-2.24-39-13" transform="translate(0 -130.07)"/><path class="cls-2" d="M804.5,1647.5a63.49,63.49,0,0,1-22,23c-23.07,14-54.68,11.13-82-6" transform="translate(0 -130.07)"/><path class="cls-2" d="M60.5,1303.5c-12,8-17.8,25.85-13,39a32.86,32.86,0,0,0,35,21" transform="translate(0 -130.07)"/><path class="cls-2" d="M71.5,1364.5c-.72,1.56-5,15.49,1,27,5.71,10.93,23,20,34,11" transform="translate(0 -130.07)"/></g></g><path class="cls-3" d="M975.92,1728s96.63-5.12,74.72-74.49" transform="translate(0 -130.07)"/><path class="cls-3" d="M1051.86,1679.85s76,6.42,55-40.62" transform="translate(0 -130.07)"/><path class="cls-3" d="M1001.86,1657s66.4,24.6,82.67-56.67" transform="translate(0 -130.07)"/><path class="cls-2" d="M1102.84,1212.2c3,0,15.9-.56,22.62-5.28,8.73-6.13,13.54-18.76,14.83-28.67" transform="translate(0 -130.07)"/><path class="cls-2" d="M1116.16,1154.06c17.59,27.23,35.58,30.49,49.84,20.49" transform="translate(0 -130.07)"/><path class="cls-2" d="M1049,1249c32.53-1.32,82.56-13,65.29-36" transform="translate(0 -130.07)"/></svg>