<svg id="CONTENT"
    xmlns="http://www.w3.org/2000/svg" viewBox="0 0 1114.92 1515.9">
    <defs>
        <style>.cls-1{fill:#fc2727;}.cls-2{fill:none;stroke:#1d1d1b;stroke-miterlimit:10;stroke-width:5px;}</style>
    </defs>
    <g id="JONCTION_THREE_TOP" data-name="JONCTION THREE TOP">
        <polygon id="Fond" class="cls-1" points="505.75 35.6 485.11 46.45 468.34 59.67 450.24 55.25 431.36 57.58 415.02 38.78 395.11 26.92 380.81 27.46 369.29 31.73 356.63 44.44 341.6 42.09 325.34 44.4 312.54 56.93 307.5 65.41 301.93 48.74 290.93 36.54 277.63 31.31 264.65 30.68 249.38 35.13 238.54 39.84 232.33 33.02 220.4 30.95 212.93 35.02 204.41 45.93 201.63 51.7 192.36 50.62 184.26 55.64 179.47 65.86 178.99 76.41 172.61 82.02 168.59 96.87 160.81 88 152.19 81.36 144.2 82.56 132.87 92.61 125.83 103.66 106.98 95.82 91.29 94.84 82.25 101.05 79.29 109.67 79.39 122.51 82.33 137.28 84.3 140.95 72.86 135.04 57.37 131.95 43.21 129.58 31.6 130.07 19.86 134.03 10.7 141.29 6.09 148.28 2.67 162.07 3.88 177.29 10.06 190.67 27.49 205.55 40.69 210.46 58.14 210.3 62.76 218.25 72.77 229.38 87.82 231.83 92.77 234.47 96.72 241.21 105.59 246.82 120.52 247.2 119.88 256.27 122.21 270.97 127.04 281.18 135.63 290.74 148.65 299.24 159.56 300.96 173.23 297.7 178.62 295.31 185.46 304.21 201.89 311.15 227.21 308.87 229.6 322.64 245.6 339.27 267.5 350.14 290.86 352.21 310.66 344.9 317.8 350.84 320.4 354.37 329.9 359.9 330.23 372.69 341.13 384.41 349.76 388.02 361.34 388.64 364.83 397.98 375.66 408.86 386.59 423.91 402.34 435.11 419.83 439.02 437.47 439.59 438.03 455.08 447.13 467.78 458.6 473.73 470.17 470.26 482.56 461.45 487.83 470.91 496.08 486.65 514.41 496.98 536.72 504.75 556.49 503.43 589.55 489.1 594.08 488.91 601.52 504.47 613.11 521.78 640.27 530.04 658.36 526.25 671.34 514.26 679.86 502.34 696.67 505.98 711.36 502.23 717.19 510.73 736.72 523.67 756.09 522.53 766.21 532.79 788.63 541.29 804.84 534.97 817.9 518.48 827.6 526.95 846.76 527.86 859.63 514.97 864.62 500.33 864.44 485.24 894.79 465.47 907.15 445.1 915.08 412.92 918.49 409.33 953.17 415.73 983.25 410.49 995.48 397.9 1001.25 378.35 1000.87 360.38 997.94 343.69 991.24 320.11 1001.49 313.73 1009.98 300.85 1009.42 282.16 1026.81 281.08 1052 273.79 1071.72 256.27 1082.98 236.88 1085.38 203.4 1074.25 155.18 1083.53 148.61 1098.15 144.7 1109.68 129.3 1111.4 106.19 1104.8 87.46 1100.52 75.4 1099.94 59.99 1090.95 49.51 1073.25 42.58 1050.8 39.28 1030 44.16 1012.32 52.64 1009.99 44.07 1001.54 33.84 987.57 28.1 968.8 33.63 965.94 33.88 958.58 29.1 944.57 24.36 930.8 24.14 917.58 32.97 910.76 36.62 905.37 30.33 887.13 20.37 872.81 16.62 861.21 21.02 851.34 9.65 835.98 2.76 824.05 4.07 814.2 11.56 807.64 7.29 796.5 5.13 788.46 17.23 778.37 14.38 766.48 17.09 755.65 24.56 747.4 19.1 730.9 26.8 718.01 19.93 708.45 20.07 693.86 25.82 685.53 19.38 673.99 6.26 652.92 6.5 634.02 13.69 624.41 34.22 611.61 28.97 593.68 27.32 569.54 37.27 556.1 50.18 549.55 58.01 538.7 46.16 521.16 36.42 505.75 35.6"/>
        <path class="cls-2" d="M728,859.1s51.28,16.82,43.16-29" transform="translate(-15.58 -553.82)"/>
        <path class="cls-2" d="M732.48,859.25s-20.48,97.7,65,52" transform="translate(-15.58 -553.82)"/>
        <path class="cls-2" d="M950.78,740.47c-3.7-.94,5.87-74.31-35.27-51.13" transform="translate(-15.58 -553.82)"/>
        <path class="cls-2" d="M921,958.58s133.84,56.17,85.63-84.8" transform="translate(-15.58 -553.82)"/>
        <path class="cls-2" d="M962.22,881.28s79.32,3.81,62-48.59" transform="translate(-15.58 -553.82)"/>
        <path class="cls-2" d="M1088.89,706.3C1140.77,852.37,1015,835.39,1015,835.39" transform="translate(-15.58 -553.82)"/>
        <path class="cls-2" d="M1070.4,709.44c3.53-1.33,89.5-1.75,44.69-78" transform="translate(-15.58 -553.82)"/>
        <path class="cls-2" d="M1069.29,602.85" transform="translate(-15.58 -553.82)"/>
        <path class="cls-2" d="M446.94,611.4s56.11-18.5,56.41,47.7" transform="translate(-15.58 -553.82)"/>
        <path class="cls-2" d="M483.91,613.5s39.06-39.68,67.54-16c36.38,30.28,3.09,49.66,5.85,57.89" transform="translate(-15.58 -553.82)"/>
        <path class="cls-2" d="M564.34,611.79s41.58-61.37,89.07-11.36" transform="translate(-15.58 -553.82)"/>
        <path class="cls-2" d="M907.2,807.1S884.57,834.1,879,864c-3.76,20.17.28,41.64,24.36,56.95" transform="translate(-15.58 -553.82)"/>
        <path class="cls-2" d="M836.58,882.73S857.16,838.05,879,864" transform="translate(-15.58 -553.82)"/>
        <path class="cls-2" d="M267.56,764.15s14.26-26.1,35-41.69c18-13.53,40.92-19.13,63.63,7.2a163.33,163.33,0,0,1-2.86-27.76C363,676.32,385.1,645,417.07,672" transform="translate(-15.58 -553.82)"/>
        <path class="cls-2" d="M300.28,667.64S272.2,704,302.56,722.46" transform="translate(-15.58 -553.82)"/>
        <path class="cls-2" d="M409.07,883.81s-18.26-95,54.07-90.47" transform="translate(-15.58 -553.82)"/>
        <path class="cls-2" d="M437.42,798.5S413,726.25,463.49,735.32" transform="translate(-15.58 -553.82)"/>
        <path class="cls-2" d="M471.57,841.5S431.84,783,506.5,747.62" transform="translate(-15.58 -553.82)"/>
        <path class="cls-2" d="M624.45,805.76s-117.59-91.48,12.44-127.3" transform="translate(-15.58 -553.82)"/>
        <path class="cls-2" d="M589.92,858.15c14.46-78.56,85.52-53.53,85.52-53.53" transform="translate(-15.58 -553.82)"/>
        <path class="cls-2" d="M657.12,723.42s-48.06-71.34,0-85.16" transform="translate(-15.58 -553.82)"/>
        <path class="cls-2" d="M616.62,875.35s-35.43-45.42-51.45,1.77" transform="translate(-15.58 -553.82)"/>
        <path class="cls-2" d="M833.7,702.07c-51.69,86.22-86.55,2.87-86.55,2.87s3.24,31.06-11.64,26.52" transform="translate(-15.58 -553.82)"/>
        <path class="cls-2" d="M821.76,669.52s6.61,66.23,39,21.68" transform="translate(-15.58 -553.82)"/>
        <path class="cls-2" d="M308.43,614.75" transform="translate(-15.58 -553.82)"/>
        <path class="cls-2" d="M209.17,631.62c-27.27-7.86-24.68,19.75-24.68,19.75a40.83,40.83,0,0,0-3.85-6.64c-6.51-9.17-20.8-21-39.23,12.75,0,0-62.73-36.71-43.11,35.11,0,0-53.45-22.61-72.74,2.84-7.07,9.31-9.23,23.71-6,35.89,5.56,21.32,28.36,36.5,55.6,32.62" transform="translate(-15.58 -553.82)"/>
        <path class="cls-2" d="M219.2,652s-35.88-41.67,30.38-31" transform="translate(-15.58 -553.82)"/>
        <path class="cls-2" d="M194.53,631.12s.81-34.17,22.67-25.6c0,0,14.59-37.91,38.43-12.28,0,0,18.43-10.76,36.61-8.25a32.46,32.46,0,0,1,19.29,9.59c5.07,5.19,9.36,12.79,12.2,23.66,0,0,12.2-31.28,49.06-19.8,0,0,39.62-61.17,91.28,42.16" transform="translate(-15.58 -553.82)"/>
        <path class="cls-2" d="M88.18,737.45c-9.7,6.29-14.3,19.16-11.32,30.47,3.36,12.76,15.64,20.79,28,17.4" transform="translate(-15.58 -553.82)"/>
        <path class="cls-2" d="M116.32,756.24c-8.93,6.89-12.7,19.28-9.56,29.46,3.84,12.44,17.41,19.73,30.09,14.18" transform="translate(-15.58 -553.82)"/>
        <path class="cls-2" d="M163.65,777.49c-1.5.26-18.86,3.66-25.74,20.78C131.16,815,139.54,832.42,147,841c11.37,13.08,30,16.46,47,8.46" transform="translate(-15.58 -553.82)"/>
        <path class="cls-2" d="M202.31,825.19c-2.36,3.27-9.78,14.3-7.09,24,3.46,12.52,23.18,21.41,47.52,12.65" transform="translate(-15.58 -553.82)"/>
        <path class="cls-2" d="M250.36,837c-2.87,4.25-8.11,13.36-7.62,24.86.94,21.76,21.67,33.61,27.23,36.79,25.26,14.44,51.81,2.22,57.23-.42" transform="translate(-15.58 -553.82)"/>
        <path class="cls-2" d="M332.34,878.82c-5.38,8.88-5.4,20-.4,27.2a18.43,18.43,0,0,0,13.54,7.7" transform="translate(-15.58 -553.82)"/>
        <path class="cls-2" d="M359.42,899.22a20.53,20.53,0,0,0-12.88,12.89c-3.31,10.3,2.8,19.24,3.84,20.77,5.73,8.38,16.26,11.79,26.92,9" transform="translate(-15.58 -553.82)"/>
        <path class="cls-2" d="M385.6,927.62a21.56,21.56,0,0,0-7.06,14A21.8,21.8,0,0,0,391.88,963" transform="translate(-15.58 -553.82)"/>
        <path class="cls-2" d="M393.32,944.16c-2.73,9.24-1.79,15.66-.73,19.4,5.17,18.32,28.7,33.23,59.64,29.16" transform="translate(-15.58 -553.82)"/>
        <path class="cls-2" d="M454.87,988.7c-4.05,12-1,25.21,7.17,32.34,9.71,8.51,26.67,5.79,35.75-6.06" transform="translate(-15.58 -553.82)"/>
        <path class="cls-2" d="M502.61,977.75c-2.49,5.75-8.1,20.81-4.11,37.82,7.9,33.73,48,41.07,52.4,41.81,32.61,5.53,67.41-16.45,90.77-54.66" transform="translate(-15.58 -553.82)"/>
        <path class="cls-2" d="M609.38,1041.75c.26,1.25,9.32,32.1,32.68,40.15,19,6.55,40.88-3.3,52.34-24.58" transform="translate(-15.58 -553.82)"/>
        <path class="cls-2" d="M679.29,1037c1.1,2.79,5.89,14.18,17.58,19.87,14.41,7,27.57-.35,29.4-1.42" transform="translate(-15.58 -553.82)"/>
        <path class="cls-2" d="M726.66,1033.29c-1.1,5.59-1.85,14.18,1.55,22.59,6.35,15.71,24.73,24.75,45.39,20.86" transform="translate(-15.58 -553.82)"/>
        <path class="cls-2" d="M766.77,1057.19c.35,3.83,1.83,15.17,10,24.72.89,1,13.32,15.11,30.44,12,21.48-3.93,29-31,29.83-34a55.46,55.46,0,0,0,1.78-15.63" transform="translate(-15.58 -553.82)"/>
        <path class="cls-2" d="M832.42,1073.91c8.78,9.57,25.45,11.28,35.73,3.93,10-7.14,14.75-26.1,11.52-39.07" transform="translate(-15.58 -553.82)"/>
        <path class="cls-2" d="M863.82,1037.88a49.9,49.9,0,0,0,27.83-4c22-10.25,36.79-37.33,39.21-69.47" transform="translate(-15.58 -553.82)"/>
        <path class="cls-2" d="M660.29,947.47s72.9-16,36.39,43.65" transform="translate(-15.58 -553.82)"/>
        <path class="cls-2" d="M1086.68,642.85c15.64,4,29.73-7.61,30.68-20.43,1-13.82-21.51-24-24.66-25.32-31.45-13.51-65.65,8.81-73.49,14.2" transform="translate(-15.58 -553.82)"/>
        <path class="cls-2" d="M1029.05,605.8c-.63-1.54-8.41-18.74-22.89-22.22-12.42-3-25.89,3.09-33.31,15.29" transform="translate(-15.58 -553.82)"/>
        <path class="cls-2" d="M980,589.23c-4.37-4.07-14.61-11.65-24.33-12.28-17.77-1.14-36.31,14.24-44,38.76" transform="translate(-15.58 -553.82)"/>
        <path class="cls-2" d="M923.39,591.29c-3.46-4.35-11.61-12-19.36-16-5.35-2.81-13.31-7-22.07-4.33a18.11,18.11,0,0,0-2.68,1c-9.8,4.74-12.76,18.63-13.57,23.32" transform="translate(-15.58 -553.82)"/>
        <path class="cls-2" d="M873.4,574.66c-1.46-2.85-6.81-10.84-13.67-14.72a28.78,28.78,0,0,0-22.89-2.2c-14.39,5.23-23.45,32.31-17.53,66.17" transform="translate(-15.58 -553.82)"/>
        <path class="cls-2" d="M638.86,590.48c.27-1.24,6-23.52,23.46-29.82C678,555,697.11,563.09,706.38,581" transform="translate(-15.58 -553.82)"/>
        <path class="cls-2" d="M694.05,598.36c9.39-19.67,26.64-28.54,38.52-24,6.8,2.58,10.74,9.14,12.76,13.68" transform="translate(-15.58 -553.82)"/>
        <path class="cls-2" d="M742.75,581.88c5.75-6.4,15.4-10.29,20.5-8,6.88,3.17,11,16.94,3.35,30.21" transform="translate(-15.58 -553.82)"/>
        <path class="cls-2" d="M768.75,579.22c5-8.08,17-12.86,25.42-10.69,10.83,2.8,14.44,14.17,14.62,14.78" transform="translate(-15.58 -553.82)"/>
        <path class="cls-2" d="M801.72,570.93c1.23-5.14,7.28-10.83,12-11.39,6.06-.71,11.9,5.28,12.19,5.64" transform="translate(-15.58 -553.82)"/>
    </g>
</svg>