<svg id="CONTENT"
    xmlns="http://www.w3.org/2000/svg" viewBox="0 0 1070.6 782.18">
    <g id="parchemin_gauche" data-name="parchemin gauche">
        <ellipse cx="249.46" cy="711.41" rx="81.98" ry="67" style="fill:#fff"/>
        <ellipse cx="985.4" cy="712.08" rx="81.98" ry="67" style="fill:#fff"/>
        <rect x="252.64" y="644.08" width="715.6" height="134" style="fill:#fff"/>
        <polygon points="164.93 99.19 164.92 105.41 164.3 520.52 207.51 549.58 165.57 580.58 164.3 688.08 1008.91 688.08 1008.91 188.74 164.93 99.19" style="fill:#fff"/>
        <path d="M305.53,866.5l722.43.1a154.48,154.48,0,0,0,36.26-4.13c36.26-8.88,58.37-32.55,56.69-64-2.18-41-32.13-66-84.56-67s-714.93,1-714.93,1" transform="translate(-52.9 -86.92)" style="fill:none;stroke:#000;stroke-miterlimit:10;stroke-width:5px"/>
        <path d="M1061.81,732V275.67L976.9,243.5l67.14-24-49.37-20v-27h61.21s20.54-86-95.12-83l-831.9,2" transform="translate(-52.9 -86.92)" style="fill:#fff;stroke:#000;stroke-miterlimit:10;stroke-width:5px"/>
        <line x1="323.29" y1="699.41" x2="569.13" y2="699.41" style="fill:none;stroke:#000;stroke-miterlimit:10;stroke-width:5px"/>
        <ellipse cx="72.46" cy="69.58" rx="70.86" ry="67" style="fill:#fff"/>
        <rect x="75.96" y="7.08" width="172.86" height="130" style="fill:#fff"/>
        <path d="M119.32,153.5c23.59,5.26,39.42,20.82,39.41,37,0,21.74-27.36,33.81-48.3,33-32.6-1.26-58.47-38-54.66-76,2.36-23.48,27.4-50.08,61-55,39.77-5.82,97.37,14.18,100.41,65,.12,1.95,0,3.67,0,5.62V610.78l43.22,25.72-41.94,31V805.86a15.94,15.94,0,0,0,1.91,7.49C227,825.88,251.23,864.82,296,866.5c53.38,2,72.45-26,78.8-55s-8.89-78-53.38-79-73.72,47-14,71" transform="translate(-52.9 -86.92)" style="fill:none;stroke:#000;stroke-miterlimit:10;stroke-width:5px"/>
        <line x1="57.53" y1="136.58" x2="164.93" y2="136.58" style="fill:none;stroke:#000;stroke-miterlimit:10;stroke-width:5px"/>
    </g>
    <text id="FLOWERDUST" transform="translate(220.77 487.17)" style="font-size:85px;font-family:BOOTLE">
        <tspan style="letter-spacing:0.125em">V</tspan>
        <tspan x="46.58" y="0">I - </tspan>
        <tspan x="117.3" y="0" xml:space="preserve" style="font-size:33px"></tspan>
        <tspan x="130.5" y="0" style="letter-spacing:0.11099494485294117em">F</tspan>
        <tspan x="171.04" y="0" style="letter-spacing:0.10198759191176471em">L</tspan>
        <tspan x="208.1" y="0" style="letter-spacing:0.10499770220588235em">O</tspan>
        <tspan x="256.46" y="0" style="letter-spacing:0.14799517463235295em">W</tspan>
        <tspan x="315.11" y="0" style="letter-spacing:0.11599839154411765em">E</tspan>
        <tspan x="356.51" y="0" style="letter-spacing:0.12699908088235295em">R</tspan>
        <tspan x="406.57" y="0" style="letter-spacing:0.12097886029411764em">D</tspan>
        <tspan x="456.97" y="0" style="letter-spacing:0.1180032169117647em">U</tspan>
        <tspan x="503.64" y="0" style="letter-spacing:0.07798713235294118em">S</tspan>
        <tspan x="545.63" y="0">t</tspan>
    </text>
    <text id="CLOUDFALLS" transform="translate(220.77 388.17)" style="font-size:85px;font-family:BOOTLE">
        <tspan style="letter-spacing:0.13699448529411765em">II</tspan>
        <tspan x="54.23" y="0">I - </tspan>
        <tspan x="124.95" y="0" style="font-size:21px"></tspan>
        <tspan x="129.15" y="0" style="letter-spacing:0.1179974724264706em">C</tspan>
        <tspan x="170.2" y="0" style="letter-spacing:0.10198759191176471em">L</tspan>
        <tspan x="207.26" y="0" style="letter-spacing:0.12199563419117647em">O</tspan>
        <tspan x="257.07" y="0" style="letter-spacing:0.13299632352941176em">U</tspan>
        <tspan x="305.01" y="0" style="letter-spacing:0.1179974724264706em">D</tspan>
        <tspan x="355.15" y="0" style="letter-spacing:0.024994255514705882em">F</tspan>
        <tspan x="388.39" y="0" style="letter-spacing:0.14099264705882353em">A</tspan>
        <tspan x="439.98" y="0" style="letter-spacing:0.11199448529411765em">L</tspan>
        <tspan x="477.89" y="0" style="letter-spacing:0.12099034926470588em">L</tspan>
        <tspan x="516.57" y="0">S</tspan>
    </text>
    <text id="FIRE" transform="translate(220.77 286.17)" style="font-size:85px;font-family:BOOTLE">
        <tspan style="letter-spacing:0.13699448529411765em">I</tspan>
        <tspan x="27.11" y="0" xml:space="preserve">I  -  </tspan>
        <tspan x="131.83" y="0" style="letter-spacing:0.11098920036764706em">F</tspan>
        <tspan x="172.38" y="0" style="letter-spacing:0.1389935661764706em">I</tspan>
        <tspan x="199.66" y="0" style="letter-spacing:0.1319910386029412em">R</tspan>
        <tspan x="250.15" y="0">E</tspan>
    </text>
    <text id="NEVERCATCH" transform="translate(221.13 183.9)" style="font-size:85px;font-family:BOOTLE">
        <tspan xml:space="preserve">I   -  </tspan>
        <tspan x="121.72" y="0" xml:space="preserve" style="font-size:22px"></tspan>
        <tspan x="130.52" y="0" style="letter-spacing:0.14099264705882353em">N</tspan>
        <tspan x="177.78" y="0" style="letter-spacing:0.12098460477941177em">E</tspan>
        <tspan x="219.59" y="0" style="letter-spacing:0.12899816176470588em">V</tspan>
        <tspan x="266.51" y="0" style="letter-spacing:0.11599839154411765em">E</tspan>
        <tspan x="307.91" y="0" style="letter-spacing:0.07699908088235294em">R</tspan>
        <tspan x="353.72" y="0" style="letter-spacing:0.10698529411764705em">C</tspan>
        <tspan x="393.84" y="0" style="letter-spacing:0.06800321691176471em">A</tspan>
        <tspan x="439.23" y="0">t</tspan>
        <tspan x="474.67" y="0" style="letter-spacing:0.11698069852941176em">C</tspan>
        <tspan x="515.64" y="0">H</tspan>
    </text>
</svg>