<svg id="CONTENT" xmlns="http://www.w3.org/2000/svg" viewBox="0 0 1170 1104.27"><defs><style>.cls-1,.cls-2,.cls-3{stroke:#fff;}.cls-1,.cls-2,.cls-3,.cls-4,.cls-5{stroke-miterlimit:10;}.cls-1,.cls-2{stroke-width:5px;}.cls-2,.cls-3{fill:#fff;}.cls-3{stroke-width:0.75px;}.cls-4,.cls-5{fill:none;stroke:#000;}.cls-4{stroke-width:8px;}.cls-5{stroke-width:6px;}</style></defs><g id="JONCTION_DEUX" data-name="JONCTION DEUX"><g id="MIDDLE"><path id="TOP" class="cls-1" d="M1167.5,2170.5v-745c-21.77-56.78-46.08-75.66-66-82-24.3-7.73-35.59,3.58-54-9-26-17.78-36.61-63.69-54-64-16.43-.3-11.09-8.11-21-14-4.93-2.93-9.62-9.62-19-23-6.38-9.1-8.3-13.06-14-16-6.45-3.32-10.29-1.5-17-3-8.7-1.94-13.8-7.58-25-21-25.87-31-26-33.79-33-38-10.55-6.39-15.61-3.29-38-6-14-1.7-61.41-8-97-40-10.88-9.78-8.84-11.34-16-17-20.42-16.16-57.84-20-128,10-50.24,49.75-75.34,55-89,49-6.55-2.86-12.07-9-23-10-13.7-1.27-30.62,5.17-39,18-6.44,9.85-3.06,16.13-9,22-8.35,8.24-21.63,2.21-39,1-23.94-1.67-15.33,21.62-28.29,33.65-5.15,4.77-11,5.47-14.71,6.35-31.76,7.51-41.59,59.67-79,80-26.44,14.37-33.1-5.4-70,9-38.69,15.09-36.46,38.8-70,47-27.47,6.72-37.51-7.09-73-1-22,3.77-36.78,10.61-47,17v802l58-49c17.87-6.49,41-11.4,57,0,5.53,3.93,6.9,7.44,12,12,9.5,8.5,30.79,2.07,65-3,10.85-.09,44.13,12.26,74-16a107.08,107.08,0,0,0,24-34c5.79-43.83,21-60.73,34-68,13.26-7.4,23.23-4.23,58-14,1.44-.4,24.72-7,40-14,35.8-16.39,36.22-43.34,70-72,19.36-16.42,37.51-24,52-30,68.19-28.36,171.82-29.06,214,20,8,9.28,15.4,22.26,34,34,22.71,14.34,31.13,7.28,54,20,26.28,14.61,42.17,39,52,54,13.42,20.55,11.61,25.87,22,34,15.87,12.42,33.58,10.57,60,11,7.9.13,59.82,1,90,10,22,6.57,51.44,23.17,80,69L1167,2171" transform="translate(0 -1077.62)"/><path class="cls-2" d="M675,1323.92c13.82,7.78,25,9.24,33,9,11.1-.33,17.35-4,25,0,7.88,4.14,5.69,10.38,14,16,8.77,5.93,22.35,6.52,31,1,6.14-3.92,5.35-8.08,11-10,7-2.38,10,3.48,21,4,.84,0,16.57.58,24-9,3-3.82,2-5.87,5-8,5.65-4,11.59,1.41,19-1,7-2.27,13.11-10.78,12-17-1.81-10.12-23.42-17.78-41-14-14.71,3.16-15.58,12-32,15-12.51,2.32-12.72-2.67-29-1-15.76,1.62-18.41,6.58-34,7-10.2.27-11.72-1.78-21-2C704.22,1313.72,691.26,1315.23,675,1323.92Z" transform="translate(0 -1077.62)"/><path class="cls-2" d="M740,1456.92c.29,10.19-32.66,26-64,24-14.62-.94-20.58-5.23-31-1-14.82,6-12.74,18.76-29,29-16.44,10.36-35.32,7.88-42,7a73.43,73.43,0,0,1-33-13c-15.87-11.45-12.8-19.45-25-26-15.79-8.48-26.59,1.92-47-3-18.95-4.57-18.84-22.9-36-25-11.58-1.41-19,4.68-22,1-3.42-4.23,1.78-18,12-25,13.92-9.6,24.5,1.9,51-5,14.7-3.82,14.88-8.26,29-10,13.56-1.67,17.33,1.93,30-1,14.19-3.27,14.6-9,24-9,13.35-.05,14.85,11.42,30,15,17.31,4.09,22.94-9.08,40-5,12.93,3.09,12.21,11.25,29,19,13.08,6,18.27,3.28,37,7C696.84,1436.68,739.71,1445.41,740,1456.92Z" transform="translate(0 -1077.62)"/><path class="cls-3" d="M1169.5,1702.5c-19,1-48.16,17.9-66.1,22.25-22.18,5.38-39.4-5-46.85,4.73-2.62,3.43-3.58,8.76-1.6,11.07,2.77,3.22,9.6-1.37,19,.3,6.53,1.15,10.52,4.63,15.32,8.44,14.51,11.51,24.64,19.55,33.86,22.76,14.66,5.1,11.34-8.55,46.34-7.55Z" transform="translate(0 -1077.62)"/><path class="cls-3" d="M2.5,1804.5c19,1,48.15,17.9,66.09,22.25,22.18,5.38,39.41-5,46.86,4.73,2.62,3.43,3.58,8.76,1.59,11.07-2.77,3.22-9.59-1.37-19,.3-6.53,1.15-10.53,4.63-15.32,8.44-14.51,11.51-24.64,19.55-33.87,22.76-14.66,5.1-11.33-8.55-46.33-7.55Z" transform="translate(0 -1077.62)"/><path class="cls-3" d="M2.5,1512.5c14-1,28.48-24.15,44.8-29.1,8.55-2.59,12.8-.8,25-.27,31.68,1.38,65.43-9.51,65.81-18.71.17-4.24-6.78-7.71-11.11-9.88-13.48-6.73-21-1.9-38-3.59-24.7-2.46-30.09-14.79-48.12-10.48,1.78-.43-18.18,12.06-38.34,8Z" transform="translate(0 -1077.62)"/><path class="cls-3" d="M1135.94,1505.4c-14.67-.19-27.47-.52-39.91-8.43-6.08-3.86-8.85-7.48-15.9-10.17-9.73-3.72-13.38.23-31,.67-19.29.48-21.78-3.72-34-.37-9.11,2.5-8.86,5.14-18.08,6.81-10.43,1.89-14.15-.88-24,1.74-1.92.51-15,4-15.09,8.84-.15,6,19.7,12.53,36.84,14.4,18,1.95,22.68-2.33,37-1.61,23.93,1.2,24.69,13.79,49.79,20.54,33.31,9,54.91-6.32,53.91-32.32" transform="translate(0 -1077.62)"/><path class="cls-3" d="M226.94,1601.4c-14.67-.19-27.47-.52-39.91-8.43-6.08-3.86-8.85-7.48-15.9-10.17-9.73-3.72-13.38.23-31,.67-19.29.48-21.78-3.72-34-.37-9.11,2.5-8.86,5.14-18.08,6.81-10.43,1.89-14.15-.88-24,1.74-1.92.51-15,4-15.09,8.84-.15,6,19.7,12.53,36.84,14.4,18,1.95,22.68-2.33,37-1.61,23.93,1.2,24.69,13.79,49.79,20.54,33.31,9,54.91-6.32,53.91-32.32" transform="translate(0 -1077.62)"/><path class="cls-3" d="M245.94,1688.4c14.67-.19,27.47-.52,39.91-8.43,6.07-3.86,8.85-7.48,15.89-10.17,9.73-3.72,13.38.23,31,.67,19.29.48,21.77-3.72,34-.37,9.11,2.5,8.86,5.14,18.07,6.81,10.43,1.89,14.15-.88,24,1.74,1.93.51,15,4,15.1,8.84.14,6-19.71,12.53-36.85,14.4-18,1.95-22.67-2.33-37-1.61-23.93,1.2-24.68,13.79-49.78,20.54-33.31,9-54.91-6.32-53.91-32.32" transform="translate(0 -1077.62)"/><path class="cls-3" d="M344.79,1600.17c14.61,9.49,28.07,13.4,39.85,14.43,10.08.88,12.37-.93,23,.25,19.75,2.18,24.13,9.8,39.86,13.43,20.73,4.78,48.9-.17,54.16-14.42,3.06-8.29-1.75-19.43-8.74-24.1-11.68-7.79-31.1,1.33-38.05,4.6-2.52,1.18-2.34,1.29-4,2-10.15,4-17.26.24-32-2.34-18.41-3.23-33-1.84-37,3.6a6.56,6.56,0,0,1-2,2c-4.18,2.45-9.69-1.69-15-3.16C360.7,1595.23,354.27,1595,344.79,1600.17Z" transform="translate(0 -1077.62)"/><path class="cls-3" d="M705.3,1555.16c13.73,7.92,24.94,9.51,32.9,9.35,11.1-.21,17.38-3.84,25,.27,7.83,4.23,5.57,10.44,13.83,16.15,8.7,6,22.27,6.76,31,1.33,6.18-3.85,5.44-8,11.11-9.88,7-2.31,9.93,3.59,21,4.23.83.05,16.56.75,24.09-8.74,3-3.8,2-5.85,5.09-7.95,5.68-3.91,11.57,1.53,19-.79,7-2.2,13.22-10.65,12.18-16.87-1.7-10.14-23.23-18-40.85-14.44-14.74,3-15.71,11.79-32.16,14.65-12.54,2.18-12.7-2.81-29-1.31-15.77,1.45-18.48,6.38-34.07,6.63-10.2.17-11.7-1.91-21-2.22C734.59,1545.27,721.62,1546.65,705.3,1555.16Z" transform="translate(0 -1077.62)"/><path class="cls-3" d="M924.56,1949.6c10.93,11.49,21.23,16.18,28.91,18.28,10.71,2.93,17.76,1.24,23.9,7.33,6.32,6.27,2.39,11.59,8.69,19.4,6.65,8.24,19.46,12.79,29.35,10,7-1.94,7.48-6.16,13.45-6.33,7.42-.22,8.51,6.25,18.9,10,.79.28,15.67,5.41,25.59-1.57,4-2.79,3.61-5,7.12-6.18,6.56-2.15,10.67,4.74,18.46,4.61,7.36-.12,15.7-6.47,16.46-12.73,1.23-10.21-17.18-23.87-35.1-25.41-15-1.29-18.41,6.87-35,5-12.64-1.45-11.39-6.28-27.43-9.46-15.55-3.07-19.54.9-34.56-3.27-9.83-2.73-10.68-5.14-19.49-8.07C955.45,1948.4,942.61,1946.05,924.56,1949.6Z" transform="translate(0 -1077.62)"/><path class="cls-3" d="M802.56,1768.16c-13.73,7.92-24.94,9.51-32.9,9.35-11.1-.21-17.38-3.84-25,.27-7.83,4.23-5.57,10.44-13.82,16.15-8.71,6-22.28,6.76-31,1.33-6.18-3.85-5.44-8-11.11-9.88-7-2.31-9.93,3.59-21,4.23-.84.05-16.57.75-24.1-8.74-3-3.8-2-5.85-5.09-7.95-5.68-3.91-11.57,1.53-19-.79-7-2.2-13.23-10.65-12.19-16.87,1.7-10.14,23.23-18,40.85-14.44,14.74,3,15.71,11.79,32.16,14.65,12.54,2.18,12.7-2.81,29-1.31,15.78,1.45,18.48,6.38,34.07,6.63,10.2.17,11.7-1.91,21-2.22C773.27,1758.27,786.24,1759.65,802.56,1768.16Z" transform="translate(0 -1077.62)"/><path class="cls-2" d="M5.5,1998.5c9.08,0,10.74,7.45,13,10,17,19.15,53.87,20.57,84.73,11.64,23.26-6.73,24-19.32,46.12-20.5,13.3-.7,17.64,3.58,34.31,1.63,15.88-1.85,34.28-8.33,34.13-14.36-.11-4.86-12.21-8.34-14-8.85-9.15-2.64-12.6.13-22.26-1.76-8.54-1.68-8.31-4.32-16.76-6.82-11.33-3.37-13.63.83-31.5.33-16.34-.45-19.73-4.4-28.74-.69-6.53,2.69-9.09,6.31-14.72,10.16-11.9,8.15-4.34,8-37,8.4-28.87.39-18.64-8.46-47.34-8.18Z" transform="translate(0 -1077.62)"/><path class="cls-2" d="M1167.5,1856.5c-9.08,0-10.74,7.45-13,10-17,19.15-53.88,20.57-84.74,11.64-23.25-6.73-23.94-19.32-46.12-20.5-13.29-.7-17.63,3.58-34.3,1.63-15.89-1.85-34.28-8.33-34.14-14.36.11-4.86,12.21-8.34,14-8.85,9.15-2.64,12.59.13,22.26-1.76,8.54-1.68,8.31-4.32,16.75-6.82,11.34-3.37,13.64.83,31.51.33,16.34-.45,19.72-4.4,28.74-.69,6.52,2.69,9.09,6.31,14.72,10.16,11.9,8.15,4.34,8,37,8.4,28.86.39,18.63-8.46,47.34-8.18Z" transform="translate(0 -1077.62)"/><path class="cls-2" d="M355.11,1508.76c-13.53,9.47-26,13.38-36.91,14.4-9.35.87-11.47-.94-21.32.23-18.29,2.17-22.35,9.77-36.92,13.39-19.21,4.77-45.32-.2-50.2-14.46-2.84-8.29,1.6-19.42,8.08-24.09,10.81-7.78,28.82,1.36,35.27,4.63,2.33,1.18,2.17,1.29,3.72,2,9.41,4,16,.25,29.64-2.32,17.06-3.22,30.58-1.82,34.33,3.63a6.22,6.22,0,0,0,1.87,2c3.87,2.46,9-1.68,13.87-3.15C340.37,1503.81,346.33,1503.61,355.11,1508.76Z" transform="translate(0 -1077.62)"/><path class="cls-2" d="M779.31,1704c12.72-7.91,23.1-9.49,30.48-9.33,10.29.23,16.12,3.86,23.17-.25,7.25-4.22,5.15-10.43,12.8-16.14,8.06-6,20.64-6.74,28.71-1.3,5.74,3.86,5,8,10.3,9.89,6.55,2.31,9.21-3.59,19.42-4.21.78,0,15.35-.74,22.34,8.76,2.79,3.79,1.9,5.85,4.72,8,5.27,3.92,10.72-1.53,17.61.81,6.51,2.2,12.27,10.65,11.31,16.88-1.57,10.14-21.51,18-37.85,14.41-13.66-3-14.57-11.81-29.81-14.69-11.62-2.19-11.76,2.8-26.86,1.29-14.62-1.46-17.14-6.4-31.58-6.66-9.46-.17-10.84,1.9-19.44,2.21C806.47,1713.93,794.44,1712.54,779.31,1704Z" transform="translate(0 -1077.62)"/><path class="cls-2" d="M333.31,1791c12.72-7.91,23.1-9.49,30.48-9.33,10.29.23,16.12,3.86,23.17-.25,7.25-4.22,5.15-10.43,12.8-16.14,8.06-6,20.64-6.74,28.71-1.3,5.74,3.86,5,8,10.3,9.89,6.55,2.31,9.21-3.59,19.42-4.21.78,0,15.35-.74,22.34,8.76,2.79,3.79,1.9,5.85,4.72,8,5.27,3.92,10.72-1.53,17.61.81,6.51,2.2,12.27,10.65,11.31,16.88-1.57,10.14-21.51,18-37.85,14.41-13.66-3-14.57-11.81-29.81-14.69-11.62-2.19-11.76,2.8-26.86,1.29-14.62-1.46-17.14-6.4-31.58-6.66-9.46-.17-10.84,1.9-19.44,2.21C360.47,1800.93,348.44,1799.54,333.31,1791Z" transform="translate(0 -1077.62)"/><path class="cls-2" d="M803,1428.8c2.15,12.33,33.34,15.58,47,17,16.64,1.74,29.36,2.89,37-5,5.47-5.64,4.82-12.29,12-16,4.69-2.41,7.3-.78,17-1,7-.15,18.29-.4,28-6,2.86-1.64,15.15-8.73,15-19-.14-9.76-11.49-18.66-22-20-11.62-1.48-14.59,7.25-35,14-6.37,2.11-19.65,6.51-36,5-15.75-1.44-19.61-7-30-4-7.92,2.3-13,7.65-20,15C806.93,1418.34,802.06,1423.46,803,1428.8Z" transform="translate(0 -1077.62)"/><path class="cls-2" d="M586,1248.8c2.15,12.33,33.34,15.58,47,17,16.64,1.74,29.36,2.89,37-5,5.47-5.64,4.82-12.29,12-16,4.69-2.41,7.3-.78,17-1,7-.15,18.29-.4,28-6,2.86-1.64,15.15-8.73,15-19-.14-9.76-11.49-18.66-22-20-11.62-1.48-14.59,7.25-35,14-6.37,2.11-19.65,6.51-36,5-15.75-1.44-19.61-7-30-4-7.92,2.3-13,7.65-20,15C589.93,1238.34,585.06,1243.46,586,1248.8Z" transform="translate(0 -1077.62)"/><path class="cls-2" d="M546,1672.8c1.37,3.85,8,1.39,21,8,8.79,4.48,9.21,7.38,17,10,3.57,1.21,11.45,3.86,19,1,7.78-2.94,7.42-8.77,14-14,5.66-4.49,10.51-3.8,43-3,17.13.43,24.87.46,35-2a52.38,52.38,0,0,0,18-8c4.62-3.23,12.21-9.71,11-12-1.58-3-15,6.58-33,5-15.58-1.36-19.27-9.72-35-14-14.07-3.82-15.54,2.4-42,3-22.68.52-25.08-3.27-37,0C558.6,1651.86,543.76,1666.53,546,1672.8Z" transform="translate(0 -1077.62)"/><path class="cls-2" d="M228,1891.8c1.37,3.85,8,1.39,21,8,8.79,4.48,9.21,7.38,17,10,3.57,1.21,11.45,3.86,19,1,7.78-2.94,7.42-8.77,14-14,5.66-4.49,10.51-3.8,43-3,17.13.43,24.87.46,35-2a52.38,52.38,0,0,0,18-8c4.62-3.23,12.21-9.71,11-12-1.58-3-15,6.58-33,5-15.58-1.36-19.27-9.72-35-14-14.07-3.82-15.54,2.4-42,3-22.68.52-25.08-3.27-37,0C240.6,1870.86,225.76,1885.53,228,1891.8Z" transform="translate(0 -1077.62)"/><path class="cls-2" d="M519.06,1337.73c-7.36,4.3-14.59,4.67-21.37,5-2.57.14-13.68.56-29.87-4.87-21.55-7.22-23.86-15.34-33.58-13.31-10.18,2.13-11.89,11.92-22.45,12-7.71.06-10-5.13-15.6-3.69-9.92,2.57-10.73,21.2-13.66,20.94-3.69-.33-12.24-30.69,2.52-46.26,13.14-13.84,38.21-9.11,49.16-7,20.21,3.81,23.65,11.77,36.66,10.06,15.65-2,17.73-13.15,35-15.51,9.77-1.34,26-.09,30.62,9.28C541.61,1314.64,530.86,1330.84,519.06,1337.73Z" transform="translate(0 -1077.62)"/><path class="cls-2" d="M961,1625.8c2.64,10.12,20.86,12.85,22,13a36.31,36.31,0,0,0,22-4c10.43-5.78,9.32-12.61,18-15,6.47-1.77,7.9,1.8,19,0,8.41-1.36,12-4.12,13-5,3.79-3.16,3-5.06,6-7,7.11-4.67,17.21,2.59,19,0,1.47-2.13-3.18-10.28-11-14-4.57-2.16-8.84-2.16-28,1-18.87,3.12-18.24,3.7-24,4-16.08.85-18.27-3.8-28-2C973.62,1599.66,958.21,1615.14,961,1625.8Z" transform="translate(0 -1077.62)"/><path class="cls-2" d="M791.13,1850.06c2.9-10,21.18-12.29,22.33-12.42a36.32,36.32,0,0,1,21.88,4.57c10.28,6,9,12.85,17.61,15.46,6.42,1.94,7.95-1.6,19,.49,8.38,1.58,11.85,4.44,12.87,5.33,3.71,3.27,2.92,5.15,5.82,7.16,7,4.85,17.27-2.14,19,.49,1.42,2.17-3.45,10.2-11.36,13.71-4.62,2.05-8.89,1.94-28-1.73-18.79-3.6-18.14-4.16-23.89-4.62-16-1.25-18.37,3.34-28,1.28C803.07,1876.53,788.06,1860.66,791.13,1850.06Z" transform="translate(0 -1077.62)"/><path class="cls-2" d="M196.22,1755.14c2.13-10.24-13-20.79-13.91-21.44a36.38,36.38,0,0,0-21.48-6.21c-11.91.53-14,7.14-22.8,5.41-6.58-1.29-6.27-5.13-17-8.46-8.14-2.52-12.55-1.62-13.87-1.31-4.81,1.15-5,3.18-8.49,3.6-8.45,1-14.26-10-17-8.46-2.27,1.25-1.73,10.63,3.62,17.43,3.12,4,6.94,5.88,25.51,11.57,18.29,5.61,18,4.81,23.27,7.11,14.78,6.4,14.67,11.54,24.18,14.26C173.27,1772.93,194,1765.93,196.22,1755.14Z" transform="translate(0 -1077.62)"/><path class="cls-2" d="M196.22,1755.14c2.13-10.24-13-20.79-13.91-21.44a36.38,36.38,0,0,0-21.48-6.21c-11.91.53-14,7.14-22.8,5.41-6.58-1.29-6.27-5.13-17-8.46-8.14-2.52-12.55-1.62-13.87-1.31-4.81,1.15-5,3.18-8.49,3.6-8.45,1-14.26-10-17-8.46-2.27,1.25-1.73,10.63,3.62,17.43,3.12,4,6.94,5.88,25.51,11.57,18.29,5.61,18,4.81,23.27,7.11,14.78,6.4,14.67,11.54,24.18,14.26C173.27,1772.93,194,1765.93,196.22,1755.14Z" transform="translate(0 -1077.62)"/><polyline class="cls-4" points="23 295.38 4 303.38 4 1092.38 25 1072.38"/><path class="cls-5" d="M1167,2171" transform="translate(0 -1077.62)"/><polyline class="cls-5" points="1159 341.38 1167 357.38 1167 1081.38 1158 1056.38"/></g></g></svg>