<svg id="CONTENT" xmlns="http://www.w3.org/2000/svg" viewBox="0 0 1171.01 1144.04"><defs><style>.cls-1,.cls-4{stroke:#000;}.cls-1,.cls-2,.cls-3,.cls-4{stroke-miterlimit:10;}.cls-1,.cls-3,.cls-4{stroke-width:5px;}.cls-2,.cls-3,.cls-4{fill:#fff;}.cls-2,.cls-3{stroke:#fff;}.cls-2{stroke-width:0.75px;}</style></defs><g id="JONCTION_DEUX" data-name="JONCTION DEUX"><g id="TOP"><g id="TOP-2" data-name="TOP"><path class="cls-1" d="M1166.5,1497.5v-459l-165.5.3-546-3.06L1.5,1038.5l2,487c12.27,5.79,27.48,13.12,51,10,41.77-5.54,55.57-38.94,80-34,26.55,5.37,19,46.62,54,72,41,29.76,106.09,12.7,124,8,45.23-11.86,65.49-33.56,87-22,16.75,9,11.32,25.85,32,41,27.52,20.16,65,9.45,70,8,22.79-6.62,28.35-19.92,37-21,12.29-1.53,23,22.41,32,36,28.87,43.6,93.38,61,136,58,40.37-2.85,73.39-24.89,120-56,35.72-23.84,42.94-35.78,66-38,39.54-3.81,50.54,28.19,90,26,33.85-1.88,41.5-26.28,86-46,25.24-11.18,55.89-18.89,98-16Z" transform="translate(1.01 -540.29)"/><path class="cls-1" d="M463.5,918.5c12.56-1.28,15.2,17.75,35,23,22.79,6,47.83-11.85,50-13,12-6.39,14.11-15.24,27-19a49.66,49.66,0,0,1,22-1c14.06,2.48,16.53,10.9,26,13,12.93,2.87,21-9.13,39-20,30.81-18.58,73.56-23.47,84-9,3.21,4.45,3.32,10.67,2,15-5.21,17.14-36.09,15.88-39,30-1.19,5.76,2.91,11,6,15,14.06,18.07,42,19.78,67,21,31.2,1.52,42.65-3.23,49,5,8.75,11.34-2.5,34-4,37-9.8,19.72-23.85,21.81-34,45-3.74,8.54-6,13.58-4,19,4.3,12,23.59,11.14,52,19,31.76,8.78,26.57,15,63,27,37.6,12.36,50.51,8.13,61,22,12.46,16.47,6.93,39.16,6,43-6.46,26.56-29.78,40.19-38,45-24.87,14.55-33.45,4.67-73,20-14.76,5.72-25.85,11.85-46,23-28.51,15.77-26.41,17.46-43,26-17.64,9.08-54.2,27.91-97,21-13.2-2.13-17-8.86-32-10-8.3-.63-19.86-2.33-30,4-7.25,4.53-5.89,8-12,11-13.52,6.54-32-4.93-37-8-13.34-8.26-11.73-13.35-22-17-9.89-3.51-25.3-3.73-34,6-4.88,5.47-2.09,8.63-6,14-7.8,10.71-23.26,4-73,3-7.78-.15-13.46-.11-19-4-9.24-6.49-8.32-17.07-14-31a77.79,77.79,0,0,0-26-33c-16.46-11.39-29-3.68-63-5-20.27-.79-58.26-2.26-87-26-7.45-6.16-28.53-23.56-28-47,.77-34,46.34-55.34,50-57,47.2-21.43,83.79,4.66,102-18,10.33-12.85,9.74-35.16,2-49-9.74-17.41-27-14.5-35-32-6.4-13.94-4.19-34.77,7-44,13.93-11.5,29.58,5,63-1,7.19-1.3,33.79-7,54-28C451.55,935.79,452,919.67,463.5,918.5Z" transform="translate(1.01 -540.29)"/><path class="cls-1" d="M401.5,1493.5s-8.81-13.78-19.7-19.36c-.64-.33-1.3-.64-1.3-.64-16-7.79-21.26-1.52-42-6-26.26-5.67-47.58-21.49-51-35a12.06,12.06,0,0,0-1-3c-4.37-8.44-18.75-6.63-37-9-13.68-1.78-26-3.38-38-11-13.19-8.39-12-15.16-24-20-11.81-4.76-15.94.59-30-3-11-2.8-29-11.29-30-23-1.2-13.81,21.72-26.23,35-31,6.2-2.23,7.06-1.62,36-5s41.17-5.52,53-14c5-3.56,11.18-8.14,11-14-.28-9-15.61-17.19-29-18-7.14-.43-7.63,1.59-19,3-10.67,1.32-23.2,2.88-35-2-13.58-5.61-12-13.89-27-20-11.54-4.71-14.24-.52-23-5-14.29-7.32-24.58-27.44-19-42,2.66-6.94,8.14-10.58,15-15,14.17-9.13,28.95-12.41,45-14,30.31-3,32.22,3.31,56,0,16.65-2.32,39.51-5.49,46-20,5.61-12.54-5.66-23.15,2-38,4.41-8.55,12.07-12.64,16.5-15,22.15-11.82,46.61-1.82,51.17.14a20.75,20.75,0,0,0,9.32-1.45l39.61-16a21.1,21.1,0,0,1,6-1.44l35.85-3,20.33-2.35a15.89,15.89,0,0,0,11.59-7.23c8.4-13.23,15.49-30.56,3.3-32.73l-70.34-3a7.79,7.79,0,0,1-1-.09h0a27.72,27.72,0,0,1-17.39-6.14l-23.32-18.78a19.26,19.26,0,0,0-2.12-1.49,59.26,59.26,0,0,0-13.53-6c-.45-.14-.9-.25-1.36-.36l-57.32-13.09A20.78,20.78,0,0,1,267.32,985l-2.17-9.78a20.77,20.77,0,0,1,9.09-22l10.28-6.56A58.2,58.2,0,0,1,314,937.48s42,8,62.79,4c2.19-.42,8.73-2,10.74-3l7-4a29.37,29.37,0,0,0,8.68-7.45l25.09-31.34a20.74,20.74,0,0,1,18-6c13,2,35.22,3.78,48.77-3.67l58.5-36.5c10.07-2.5,24.46-4.44,40,0,17.89,5.11,23,14.57,36,22,29.73,16.94,48.21-6.69,90.61,0,45.11,7.12,43.27,36.88,86.39,40,31.47,2.28,39.13-13.1,72-6,19.92,4.3,25,11.66,50,18,20.5,5.2,33.38-2.92,53,5,15,6,19.46,8.92,21,13,3.17,8.42-2.35,19.56-10,25-11,7.81-24.48,2.58-37,1-32.48-4.1-41.11,18.46-86,33-50.59,16.39-60.35-5.56-104,14-31.15,14-29.22,26.49-55,31-20.1,3.52-39.29-1-70,7-6.83,1.77-17,4.86-20,13a17.41,17.41,0,0,0,2,15c7,10.56,25.16,9.38,41,9,42.27-1,74.59-1.77,103,11,21.13,9.5,18.56,16.8,39,23,19.65,6,32.36,2.35,64,1,34.68-1.48,52-1.75,59,1,30.49,12,46.14,45.25,66,40,2.74-.73,5.37-2.13,10-2,9.89.28,21.44,7.36,25,18,4.54,13.57-5.36,28.57-16,35-13.15,8-23.28.3-44,5-16.43,3.73-14.92,11.19-33,17-15.11,4.86-28.26,4.39-39,4-25.67-.92-32.21-7.45-45-3-11.56,4-24.69,14-24,23,1,13.44,33.62,25.81,61,26,12.61.09,20-2.45,32,2,3.55,1.31,22.52,8.32,24,22,1.41,13-13.85,25-26,29-8.19,2.72-10,.24-23,2-3.89.53-34.48,4.94-36,16-1,7.31,11,15.5,20,19,10.8,4.19,18.78,2.2,29,2,5.55-.11,27,.91,46,11s19.31,20.83,39,27c5.59,1.75,10.39,2.17,20,3,30.59,2.65,37.46-3.74,53,1,11.79,3.59,28.58,13.58,29,26,.45,13.3-18,25.81-33,30-18,5-28.07-2.69-45,5-5.83,2.65-7.31,7-18,14-6.25,4.1-10.25,6.72-16,9-11.8,4.68-12.65,13-19.93,12.69a47.92,47.92,0,0,0-26.8,6.25l-43.36,48.82c-1.42,3.55-12.51,8.58-30.53,7-77.47-6.81-122.72,68.75-148.38,74.25-8.41,1.8-17.93,4.55-30,4-27-1.24-46.89-15.36-56-22-18.1-13.2-14-17.12-31-31-5.28-4.32-49.45-39.58-82-26-11.73,4.89-15.28,13.34-25,12-11.37-1.56-19.63-14.91-23-25-7.54-22.58,8.07-32.86,1-46C458.51,1501.1,413.59,1512.42,401.5,1493.5Z" transform="translate(1.01 -540.29)"/><path d="M1169,1110.8c-24,0-65,100-107,92-31.69-6-42.54,45.26-84,46-38.42.69-17,34.09-61,36-44.58,1.94-17.14,36.87-90,37-12.91,0-22.8,23-39,23-90.62.16-102.71-9-119.56-20-4.64-3-14.53-5.65-17.15-13.82s3-16.78,3.81-18c11.57-17.51,35.86-8.54,70.78-20.76C755,1262,748.82,1252,777.57,1242.65c32.57-10.58,41.24,2,67.88-10.73,22.43-10.76,22.14-22.52,42.72-26.46,13.84-2.65,20.51,1.41,40-3.43,9.52-2.37,23.78-5.91,24.86-13.27,1.33-9.1-18.37-18.42-21.22-19.77-16.1-7.62-21.27-1.3-42.06-5.55-26.32-5.38-47.81-21-51.37-34.45a12.1,12.1,0,0,0-1-3c-4.47-8.39-18.83-6.43-37.1-8.6-13.7-1.63-26-3.1-38.12-10.59-13.28-8.24-12.13-15-24.21-19.74-11.86-4.63-15.93.76-30-2.68-11-2.68-29.1-11-30.24-22.67-1.36-13.8,21.43-26.47,34.66-31.38,6.18-2.29,7-1.69,35.94-5.39s41.11-6,52.85-14.56c4.94-3.62,11.1-8.26,10.85-14.12-.38-9-15.8-17-29.19-17.69-7.14-.36-7.61,1.67-19,3.21-10.65,1.43-23.17,3.12-35-1.63-13.63-5.46-12.18-13.76-27.21-19.71-11.59-4.59-14.25-.36-23-4.75-14.37-7.16-24.87-27.17-19.45-41.79,2.58-7,8-10.67,14.83-15.16,14.07-9.28,28.82-12.73,44.85-14.49,30.28-3.32,32.25,3,56-.6,16.62-2.49,39.44-5.92,45.78-20.49,5.48-12.6-5.91-23.09,1.59-38,4.32-8.6,11.94-12.77,16.34-15.18,22-12.05,46.59-2.31,51.17-.4a20.85,20.85,0,0,0,9.3-1.56l39.43-16.44a20.8,20.8,0,0,1,6-1.5l35.82-3.44,20.3-2.57a15.91,15.91,0,0,0,11.51-7.35c8.26-13.32,15.17-30.72,2.95-32.77l-70.37-2.27a7.79,7.79,0,0,1-1-.09h0a47,47,0,0,1-22-9.55L902.6,717.11a17.94,17.94,0,0,0-2.13-1.47,59.89,59.89,0,0,0-13.59-5.84c-.45-.13-.91-.24-1.37-.34L828.06,697a20.78,20.78,0,0,1-14.7-15.3l-2.27-9.75a20.75,20.75,0,0,1,8.85-22.1l10.2-6.67a58.2,58.2,0,0,1,29.36-9.45s42.1,7.51,62.83,3.32c2.18-.44,8.7-2.11,10.7-3.09l7-4.08a29.29,29.29,0,0,0,8.6-7.54l24.75-31.61a20.74,20.74,0,0,1,17.9-6.23c13,1.81,35.26,3.4,48.72-4.2l58.11-37.12c10-2.61,24.41-4.7,40-.43,18,4.91,17.94,21.06,30.94,21.06" transform="translate(1.01 -540.29)"/><path d="M-.5,1192.3c22,0,56,71,95,66,29.68-3.8,31.58,47.29,70,48,35.6.66,51.21-11.87,92-10,41.31,1.9,12.48,25.92,80,26,12,0,29,34,48,28,80.08-25.29,66-15,83.05-15.11,5.26,0,13.47-5.67,15.91-13.83s-2.74-16.78-3.52-18c-10.71-17.5-33.22-8.51-65.57-20.71-27-10.18-21.25-20.19-47.88-29.51-30.18-10.56-38.22,2.08-62.9-10.68-20.78-10.74-20.5-22.5-39.57-26.43-12.82-2.63-19,1.43-37-3.39-8.83-2.36-22-5.9-23-13.25-1.23-9.11,17-18.44,19.67-19.79,14.94-7.63,19.72-1.31,39-5.58,24.39-5.41,44.32-21,47.63-34.49a12.87,12.87,0,0,1,1-3c4.15-8.4,17.45-6.45,34.39-8.63,12.7-1.64,24.13-3.12,35.33-10.62,12.31-8.26,11.26-15,22.45-19.76,11-4.65,14.76.74,27.83-2.71,10.2-2.68,27-11,28.05-22.7,1.26-13.8-19.84-26.44-32.1-31.34-5.72-2.29-6.52-1.69-33.31-5.36s-38.09-5.93-49-14.53c-4.57-3.61-10.27-8.24-10-14.11.36-9,14.65-17,27.07-17.71,6.61-.36,7.05,1.67,17.57,3.19,9.87,1.43,21.47,3.11,32.45-1.65,12.64-5.47,11.31-13.77,25.24-19.73,10.74-4.6,13.2-.37,21.37-4.77,13.32-7.17,23.06-27.19,18.05-41.81-2.39-7-7.43-10.66-13.74-15.15-13-9.26-26.69-12.7-41.54-14.44-28.06-3.3-29.9,3-51.9-.56-15.4-2.48-36.55-5.89-42.41-20.46-5.06-12.59,5.5-23.09-1.44-38-4-8.59-11.06-12.75-15.13-15.16-20.4-12-43.18-2.28-47.42-.37a17.81,17.81,0,0,1-8.62-1.55l-36.53-16.4a18.13,18.13,0,0,0-5.57-1.5l-33.18-3.41-18.81-2.55a14.65,14.65,0,0,1-10.67-7.35c-7.65-13.31-14-30.71-2.71-32.76l65.21-2.33c.3,0,.6,0,.9-.08h0a42.15,42.15,0,0,0,20.43-9.57L251,727.66a16.36,16.36,0,0,1,2-1.47,53.2,53.2,0,0,1,12.6-5.85c.42-.13.84-.24,1.26-.34l53.26-12.52a20.2,20.2,0,0,0,13.63-15.31l2.12-9.75a21.52,21.52,0,0,0-8.19-22.09l-9.45-6.67a51.26,51.26,0,0,0-27.2-9.43s-39,7.55-58.22,3.38c-2-.45-8.07-2.1-9.92-3.09l-6.45-4.07a27.87,27.87,0,0,1-8-7.54l-22.91-31.58A18.39,18.39,0,0,0,169,595.11c-12,1.82-32.68,3.43-45.15-4.16L70,553.87c-9.3-2.6-22.62-4.68-37.07-.4C17.24,558.13,17,574.8,0,574.8" transform="translate(1.01 -540.29)"/><path class="cls-2" d="M1169,1038.8c-19-1-48.16-17.89-66.09-22.24-22.18-5.38-39.41,5-46.86-4.74-2.62-3.43-3.58-8.76-1.59-11.06,2.76-3.22,9.59,1.36,19-.3,6.53-1.15,10.53-4.63,15.32-8.44,14.51-11.52,24.64-19.56,33.87-22.77,14.66-5.09,11.33,8.55,46.33,7.55Z" transform="translate(1.01 -540.29)"/><path class="cls-2" d="M1169,617.8c-14,1-28.48,24.15-44.81,29.1-8.55,2.6-12.79.8-25,.27-31.68-1.38-65.43,9.51-65.81,18.71-.17,4.25,6.78,7.72,11.11,9.88,13.48,6.74,21,1.9,38,3.59,24.7,2.46,30.08,14.8,48.12,10.49-1.79.42,18.18-12.07,38.34-8Z" transform="translate(1.01 -540.29)"/><path class="cls-2" d="M1068.44,894.9c-14.67.2-27.47.53-39.91,8.43-6.08,3.86-8.85,7.48-15.89,10.17-9.73,3.72-13.38-.23-31-.66-19.29-.48-21.77,3.72-34,.36-9.11-2.5-8.86-5.14-18.07-6.8-10.43-1.89-14.15.88-24-1.75-1.93-.51-15-4-15.1-8.84-.15-6,19.7-12.53,36.85-14.39,18-2,22.67,2.32,37,1.6,23.93-1.2,24.68-13.79,49.78-20.54,33.31-9,54.91,6.32,53.91,32.32" transform="translate(1.01 -540.29)"/><path class="cls-2" d="M761.29,1028.13c14.61-9.48,28.07-13.4,39.85-14.43,10.08-.88,12.37.93,23-.24,19.74-2.19,24.12-9.8,39.85-13.43,20.73-4.79,48.9.16,54.16,14.42,3.06,8.29-1.74,19.42-8.74,24.09-11.67,7.79-31.1-1.33-38-4.59-2.52-1.18-2.34-1.29-4-2-10.15-4-17.26-.24-32,2.35-18.41,3.23-33,1.84-37-3.61a6.44,6.44,0,0,0-2-2c-4.18-2.46-9.69,1.68-15,3.16C777.2,1033.07,770.77,1033.27,761.29,1028.13Z" transform="translate(1.01 -540.29)"/><path class="cls-2" d="M482.8,960.15c13.74-7.93,24.94-9.51,32.9-9.36,11.1.22,17.39,3.84,25-.27,7.83-4.23,5.57-10.44,13.83-16.15,8.71-6,22.28-6.76,31-1.33,6.19,3.85,5.44,8,11.11,9.88,7.06,2.31,9.93-3.59,21-4.22.84-.05,16.56-.76,24.09,8.74,3,3.79,2.05,5.85,5.09,7.94,5.68,3.92,11.57-1.53,19,.8,7,2.2,13.22,10.64,12.18,16.87-1.7,10.14-23.23,18-40.85,14.44-14.74-3-15.71-11.8-32.16-14.66-12.54-2.18-12.69,2.81-29,1.32-15.78-1.45-18.49-6.39-34.08-6.64-10.2-.16-11.7,1.91-21,2.23C512.1,970,499.12,968.66,482.8,960.15Z" transform="translate(1.01 -540.29)"/><path class="cls-3" d="M2,856.8c9.08,0,10.74-7.45,13-10,17-19.14,53.87-20.56,84.74-11.64,23.25,6.73,23.94,19.32,46.11,20.5,13.3.71,17.64-3.57,34.31-1.63,15.89,1.85,34.28,8.34,34.14,14.37-.12,4.85-12.22,8.33-14,8.85-9.15,2.63-12.59-.14-22.26,1.76-8.54,1.67-8.31,4.31-16.76,6.82-11.33,3.36-13.63-.83-31.5-.34-16.34.45-19.73,4.4-28.74.69C94.52,883.5,92,879.88,86.32,876c-11.9-8.15-4.34-7.95-37-8.4-28.87-.39-18.63,8.47-47.34,8.18Z" transform="translate(1.01 -540.29)"/><path class="cls-3" d="M1167.5,1225.83c-9.08,0-10.74,7.45-13,10-17,19.15-53.87,20.56-84.74,11.64-23.25-6.73-23.94-19.32-46.11-20.5-13.3-.71-17.64,3.57-34.31,1.63-15.89-1.85-34.28-8.34-34.14-14.37.12-4.85,12.22-8.33,14-8.85,9.15-2.63,12.59.14,22.26-1.76,8.54-1.67,8.31-4.31,16.76-6.82,11.33-3.36,13.63.84,31.5.34,16.34-.45,19.73-4.4,28.74-.69,6.52,2.69,9.09,6.31,14.72,10.16,11.9,8.15,4.34,8,37,8.4,28.87.39,18.63-8.46,47.34-8.18Z" transform="translate(1.01 -540.29)"/><path class="cls-4" d="M191.62,970.54c-13.53-9.47-26-13.37-36.92-14.39-9.34-.88-11.47.94-21.31-.23-18.3-2.17-22.35-9.78-36.93-13.4-19.21-4.77-45.32.2-50.2,14.46-2.84,8.29,1.6,19.43,8.08,24.09,10.81,7.78,28.82-1.35,35.27-4.62,2.33-1.19,2.17-1.3,3.73-2,9.4-4,16-.25,29.63,2.32,17.06,3.21,30.58,1.81,34.33-3.63a6.13,6.13,0,0,1,1.87-2c3.87-2.46,9,1.67,13.87,3.14C176.87,975.5,182.83,975.69,191.62,970.54Z" transform="translate(1.01 -540.29)"/><path class="cls-4" d="M208.78,1120.63c-12.73-7.91-23.11-9.49-30.49-9.33-10.29.23-16.11,3.86-23.16-.25-7.26-4.22-5.16-10.43-12.81-16.14-8.06-6-20.64-6.74-28.71-1.3-5.73,3.85-5,8-10.3,9.89-6.54,2.31-9.2-3.59-19.42-4.21-.78,0-15.35-.74-22.33,8.76-2.8,3.79-1.9,5.85-4.72,8-5.28,3.92-10.73-1.53-17.62.81-6.51,2.2-12.27,10.65-11.3,16.88,1.56,10.14,21.51,18,37.84,14.4,13.66-3,14.57-11.8,29.81-14.68,11.63-2.19,11.77,2.8,26.87,1.29,14.62-1.46,17.13-6.4,31.58-6.66,9.45-.17,10.84,1.9,19.43,2.21C181.62,1130.54,193.65,1129.15,208.78,1120.63Z" transform="translate(1.01 -540.29)"/><path class="cls-4" d="M779.78,1342.63c-12.73-7.91-23.11-9.49-30.49-9.33-10.29.23-16.11,3.86-23.16-.25-7.26-4.22-5.16-10.43-12.81-16.14-8.06-6-20.64-6.74-28.71-1.3-5.73,3.85-5.05,8-10.3,9.89-6.54,2.31-9.2-3.59-19.42-4.21-.78,0-15.35-.74-22.33,8.76-2.8,3.79-1.9,5.85-4.72,8-5.28,3.92-10.73-1.53-17.62.81-6.51,2.2-12.27,10.65-11.3,16.88,1.56,10.14,21.51,18,37.84,14.4,13.66-3,14.57-11.8,29.81-14.68,11.63-2.19,11.77,2.8,26.87,1.29,14.62-1.46,17.13-6.4,31.58-6.66,9.45-.17,10.84,1.9,19.43,2.21C752.62,1352.54,764.65,1351.15,779.78,1342.63Z" transform="translate(1.01 -540.29)"/><path class="cls-4" d="M40.5,1227.5c2.15-12.33,33.35-15.58,47-17,16.65-1.73,29.36-2.88,37,5,5.47,5.65,4.82,12.3,12,16,4.69,2.42,7.31.79,17,1,7,.15,18.29.4,28,6,2.86,1.65,15.15,8.73,15,19-.14,9.77-11.49,18.66-22,20-11.62,1.48-14.59-7.25-35-14-6.37-2.11-19.65-6.5-36-5-15.74,1.45-19.61,7-30,4-7.92-2.29-13-7.64-20-15C44.43,1238,39.57,1232.85,40.5,1227.5Z" transform="translate(1.01 -540.29)"/><path class="cls-4" d="M12.5,655.5c2.15-12.33,33.35-15.58,47-17,16.65-1.73,29.36-2.88,37,5,5.47,5.65,4.82,12.3,12,16,4.69,2.42,7.31.79,17,1,7,.15,18.29.4,28,6,2.86,1.65,15.15,8.73,15,19-.14,9.77-11.49,18.66-22,20-11.62,1.48-14.59-7.25-35-14-6.37-2.11-19.65-6.5-36-5-15.74,1.45-19.61,7-30,4-7.92-2.29-13-7.64-20-15C16.43,666,11.57,660.85,12.5,655.5Z" transform="translate(1.01 -540.29)"/><path class="cls-4" d="M406.5,1389.5c2.15-12.33,33.35-15.58,47-17,16.65-1.73,29.36-2.88,37,5,5.47,5.65,4.82,12.3,12,16,4.69,2.42,7.31.79,17,1,7,.15,18.29.4,28,6,2.86,1.65,15.15,8.73,15,19-.14,9.77-11.49,18.66-22,20-11.62,1.48-14.59-7.25-35-14-6.37-2.11-19.65-6.5-36-5-15.74,1.45-19.61,7-30,4-7.92-2.29-13-7.64-20-15C410.43,1400,405.57,1394.85,406.5,1389.5Z" transform="translate(1.01 -540.29)"/><path class="cls-4" d="M196.5,1449.5c2.15-12.33,33.35-15.58,47-17,16.65-1.73,29.36-2.88,37,5,5.47,5.65,4.82,12.3,12,16,4.69,2.42,7.31.79,17,1,7,.15,18.29.4,28,6,2.86,1.65,15.15,8.73,15,19-.14,9.77-11.49,18.66-22,20-11.62,1.48-14.59-7.25-35-14-6.37-2.11-19.65-6.5-36-5-15.74,1.45-19.61,7-30,4-7.92-2.29-13-7.64-20-15C200.43,1460,195.57,1454.85,196.5,1449.5Z" transform="translate(1.01 -540.29)"/><path class="cls-4" d="M471.5,1106.5c1.37-3.84,8-1.39,21-8,8.79-4.48,9.21-7.38,17-10,3.57-1.2,11.45-3.85,19-1,7.78,2.94,7.42,8.78,14,14,5.67,4.5,10.51,3.8,43,3,17.13-.42,24.87-.45,35,2a52.78,52.78,0,0,1,18,8c4.62,3.23,12.22,9.71,11,12-1.57,3-15-6.58-33-5-15.58,1.36-19.27,9.72-35,14-14.07,3.83-15.54-2.4-42-3-22.68-.52-25.07,3.28-37,0C484.1,1127.45,469.26,1112.78,471.5,1106.5Z" transform="translate(1.01 -540.29)"/><path class="cls-4" d="M971.5,1450.5c5.8-6.25,12.61-8.7,19-11,2.42-.87,12.93-4.5,30-4,22.72.66,27.29,7.76,36,3,9.12-5,7.92-14.85,18-18,7.36-2.3,11.1,2,16-1,8.75-5.33,4.12-23.4,7-24,3.62-.76,20.62,25.83,11,45-8.55,17.06-33.93,19.8-45,21-20.79,2.25-25.4-4.7-38,1-14.38,6.51-13.16,17.73-29,25-9,4.11-24.82,7.62-32,0C956.61,1479.13,962.21,1460.52,971.5,1450.5Z" transform="translate(1.01 -540.29)"/><path class="cls-4" d="M296.5,1284.5c2.65-10.12,20.86-12.84,22-13a36.47,36.47,0,0,1,22,4c10.43,5.78,9.32,12.62,18,15,6.47,1.78,7.9-1.8,19,0,8.42,1.36,12,4.13,13,5,3.79,3.17,3.05,5.06,6,7,7.11,4.67,17.21-2.58,19,0,1.48,2.13-3.18,10.29-11,14-4.57,2.17-8.83,2.17-28-1-18.87-3.12-18.24-3.7-24-4-16.08-.84-18.27,3.81-28,2C309.13,1310.65,293.71,1295.17,296.5,1284.5Z" transform="translate(1.01 -540.29)"/><path class="cls-4" d="M340.5,1275.5c10.43,5.78,9.32,12.62,18,15" transform="translate(1.01 -540.29)"/></g><g id="MIDDLE"><path class="cls-4" d="M168.5,1053.5c.48-9.19,34.34-19.72,66-18,12.2.66,16.42,2.5,25,0,16.38-4.78,16.47-17.85,31-28,23.9-16.7,57.66-6.52,66-4,20.66,6.23,17.91,16.32,36,20,22.36,4.56,39.19-6.48,47,3,2.74,3.33,3.9,8.62,2,11-2.65,3.32-9.64-1-19,1-6.48,1.39-10.35,5-15,9-14.07,12-23.9,20.45-33,24-14.46,5.63-16.43-5.17-50-6-24.65-.61-39.78,4.8-43,6-10.23,3.8-9.26,5.47-16,7-18.08,4.12-23.33-8.28-48-11-17-1.87-24.59,2.88-38-4C175.19,1061.29,168.28,1057.74,168.5,1053.5Z" transform="translate(1.01 -540.29)"/><path class="cls-4" d="M440.5,1264.5c-.08-6,19.84-12.32,37-14,18-1.76,22.65,2.56,37,2,23.94-.94,24.83-13.52,50-20,33.4-8.59,66.9,4.55,91,14,2.48,1,8.56,5.56,18,8,11.07,2.86,15.48-1.36,26,1,10,2.24,20.68,8.82,20,13-1.11,6.89-32.41,7-34,7-31,0-35.85-10.08-67-10-14.67,0-27.47.23-40,8-6.11,3.79-8.93,7.38-16,10-9.77,3.61-13.38-.37-31-1-19.28-.69-21.81,3.49-34,0-9.08-2.6-8.81-5.24-18-7-10.41-2-14.16.73-24-2C453.58,1273,440.57,1269.35,440.5,1264.5Z" transform="translate(1.01 -540.29)"/><path class="cls-4" d="M968.5,1093.5c.19-1.35,8.79.35,18-5a40.35,40.35,0,0,0,5.15-3.53c3.38-3.07,4.18-5.84,8.85-8.47,15.1-8.51,39.62,1,48,11a10.16,10.16,0,0,0,2,2c6.23,4.45,14.6-2.31,28-4,8.31-1,19.16-.23,20,3,.9,3.47-9.88,9.33-16,12-3.73,1.63-25.89,10.86-48,1-2.17-1-2.19-1.28-4-2-10.92-4.35-19.52.6-30,2C983.1,1103.83,968.25,1095.32,968.5,1093.5Z" transform="translate(1.01 -540.29)"/><path class="cls-4" d="M226.5,1186.5c14.71-9.33,28.22-13.1,40-14,10.09-.77,12.36,1.06,23,0,19.77-2,24.23-9.54,40-13,20.78-4.56,48.9.69,54,15,3,8.32-1.95,19.41-9,24-11.76,7.67-31.08-1.66-38-5-2.5-1.21-2.33-1.32-4-2-10.1-4.12-17.26-.42-32,2-18.45,3-33,1.49-37-4a6.44,6.44,0,0,0-2-2c-4.15-2.5-9.71,1.58-15,3C242.35,1191.61,235.92,1191.74,226.5,1186.5Z" transform="translate(1.01 -540.29)"/><path class="cls-4" d="M700.5,1186.5c14.71-9.33,28.22-13.1,40-14,10.09-.77,12.36,1.06,23,0,19.77-2,24.23-9.54,40-13,20.78-4.56,48.9.69,54,15,3,8.32-2,19.41-9,24-11.76,7.67-31.08-1.66-38-5-2.5-1.21-2.33-1.32-4-2-10.1-4.12-17.26-.42-32,2-18.45,3-33,1.49-37-4a6.44,6.44,0,0,0-2-2c-4.15-2.5-9.71,1.58-15,3C716.35,1191.61,709.92,1191.74,700.5,1186.5Z" transform="translate(1.01 -540.29)"/><path class="cls-4" d="M55.5,1350.5c13.82-7.78,25-9.24,33-9,11.1.33,17.34,4,25,0,7.88-4.14,5.68-10.38,14-16,8.77-5.93,22.35-6.52,31-1,6.14,3.92,5.35,8.08,11,10,7,2.38,10-3.48,21-4,.84,0,16.57-.58,24,9,3,3.83,2,5.87,5,8,5.64,4,11.59-1.41,19,1,7,2.27,13.11,10.78,12,17-1.81,10.12-23.42,17.78-41,14-14.71-3.16-15.59-12-32-15-12.52-2.31-12.73,2.67-29,1-15.76-1.62-18.41-6.58-34-7-10.2-.27-11.72,1.78-21,2C84.69,1360.71,71.73,1359.19,55.5,1350.5Z" transform="translate(1.01 -540.29)"/><path class="cls-4" d="M1076.86,1329.36c-12.73,9.45-23.67,12.32-31.6,13.09-11,1.07-17.71-1.81-24.8,3.15-7.29,5.11-4.33,11-11.87,17.64-8,7-21.35,9.29-30.62,4.9-6.59-3.11-6.33-7.34-12.18-8.53-7.27-1.48-9.45,4.71-20.33,6.62-.82.14-16.36,2.66-24.94-5.9-3.43-3.42-2.7-5.58-6-7.31-6.1-3.23-11.32,2.86-19,1.41-7.23-1.38-14.37-9-14.05-15.35.52-10.27,21-20.6,38.9-19.06,15,1.28,17,9.9,33.64,10.84,12.71.72,12.29-4.25,28.64-4.65,15.84-.39,19.1,4.21,34.61,2.65,10.16-1,11.4-3.24,20.58-4.63C1046.62,1322.91,1059.67,1322.79,1076.86,1329.36Z" transform="translate(1.01 -540.29)"/><path class="cls-4" d="M560.45,1522.6c-.28,10.18,32.67,26,64,24,14.63-.94,20.59-5.23,31-1,14.83,6,12.75,18.75,29,29,16.45,10.36,35.32,7.87,42,7a73.51,73.51,0,0,0,33-13c15.88-11.45,12.81-19.46,25-26,15.8-8.49,26.59,1.91,47-3,19-4.57,18.85-22.91,36-25,11.59-1.42,19,4.68,22,1,3.42-4.23-1.77-17.95-12-25-13.92-9.61-24.5,1.89-51-5-14.69-3.83-14.88-8.26-29-10-13.55-1.68-17.32,1.92-30-1-14.18-3.28-14.59-9-24-9-13.34,0-14.84,11.41-30,15-17.3,4.09-22.93-9.08-40-5-12.92,3.08-12.21,11.24-29,19-13.08,6-18.26,3.28-37,7C603.65,1502.35,560.78,1511.09,560.45,1522.6Z" transform="translate(1.01 -540.29)"/></g></g></g></svg>