<svg id="CONTENT"
    xmlns="http://www.w3.org/2000/svg" viewBox="0 0 483.94 389.23">
    <defs>
        <style>.cls-1{fill:#f4d0de;}.cls-2{fill:none;stroke:#000;stroke-miterlimit:10;stroke-width:5px;}</style>
    </defs>
    <g id="SMALL">
        <g id="CLOUDSFALL_SMALL">
            <g id="JUNCTION_CLOUDSFALL_SMALL">
                <g id="JUNCTION_CLOUDSFALL_TOP_SMALL">
                    <polygon class="cls-1" points="481.79 2.5 474.92 2.77 468.51 4.23 462.01 7.44 457.12 11.65 451.92 19.97 451.05 21.17 448.35 20.52 444.93 21.44 442.8 23.73 441.23 20.09 438.28 16.22 433.96 13.75 429.3 14.5 425.04 18.19 422.04 24.44 419.24 22.24 415.46 20.51 409.71 21.68 404.11 25.42 402.41 27.2 399.26 22.27 392.85 17.26 387.13 16.73 379.91 19.45 374.05 25.8 372.54 30.93 369.05 31.93 365.31 35.64 361.49 34.09 354.75 33.37 348.24 35.4 342.65 40.69 340.43 47.55 341.15 55.44 335.34 60.53 331.73 66.47 329.33 73.57 329.33 79.27 338.79 112.57 481.79 140.38 482.88 140.38 482.88 2.5 481.79 2.5"/>
                    <path id="FOND" class="cls-1" d="M825.5,1788.63l-6.17-1.09-5.75-4.93-3.5-4-2.67,4.39-5.34,4.52-6.72,1.09-6.85-1.5-2.88,6.58-5.75,5.34-6.17,2.47-4.52-1.24-2.19-2.46-3.57,2.88-4.11,1.23-4.8-.32-3.63-1.94-2.26,3.9-2.88,4.11-5.34,1.08-2.47,4.68-3.7,2.88-3.22,1.49-5.41-1.08-4.11-3.7-1.65-3.7h-2.46l-4.52,3.29-6.4,1.29-4.7-1.29-4.94-3.7-2.05-5.35-.83-3.7-4.93,1.29-4.32-.26-4.31-1.44-3.29-3.29-1-5.82-4.38-.55-4.46-1.44-2.88,5.76-5.41,5.17-4.73,1.87-7.53-.46-3.09-1.51-2.67,4.38-5.14,3.52-4.66.86-6.46-2.12-5.94-5.55-1-2.46-5.14,2.46-4.11,1.24-5.34-.36-6.64-2.94-5.79-6.36-3.6,4.72-5.35,2.88-7.4-.41-5.34-5.34-1.65-3.29-3.7,2.46h-4.93l-6.17-2.46-3.81-5.55-1.33-3.7-5.48,2.11-.68,6.25-2.68,4.18-5.68,2.12-1.3,1.78v7.81l-3.09,4.94-6.37,2.39h-5.29l-6.22-2.19-4.73-3.56-5.14,4.38-6.3,1.37-6.65-.83-3.29-2-6.37,3.49-6.65,1-4.24-.86-1.85,8.87-4.94,4.94-5.14,1-4.72-1.46-3.09-1-4.72,5.55-5.42,2.48h-5.27l-7.4-4.89-2.47-5-7.81,2-6.17-1.23-7.4-7-6.92,9-7.63,1.58-6.06-2-5.7-5.71-.82-1.23-3.5.66-5.55-1.9-2.17-3.29-4,4.53-5.35,2.05-6.16.82H344.5V1464.82h5.43s8.55,1.64,9,1.64,11.92,6.17,11.92,6.17l6.37,6.37,4.11,7.81,1.32,10.79,4.85.31,4.52,1.65,4.29,6.51.92.46,2.6-2,3.29-1.64,4.66.81,3.84,3.47,1.78,5.09,4.11.08,4.94,1.63,2.8,3.7,4.18-2.45,3.7-2.06,4.94.83,1.67.78,3.67-4.07,8.29-4.13,5.69.43,7.81,2.87,4.11,5.35,3.15,7.75,4.25.88,2.63,4.52.25,4.53-2.06,4.93,4.94,1.64,5.19,6.87,4.67-1.11,5.35,1.64,1.35-3.73,1.53-4.49,3.7-3.29,5.23-.61,5,1.44,2.88,1.64.41-3.7,3-3h3.86l.57-5.23,4.53-4.11,5.77-1.61,4.16.71-.47-3.6,1.22-2.08,4.12.41.29-3.19,1.76-3.39,3.7-2.46,5.55,2.07,2.67-2.49,3.29-2.87,4.52-1.24,5.35,1.24,4.52,3.29,2.47,5.34,4.13-2.29H587l4,1.88,3.29,2.47,5.76-.58,2.46-4.77,4.11-4.52,3.7-2.47,5.64-1.08,7.93,1.9,4.93-3.28,6.17-2.47,6.58-.82,6.16,2.87,2.88,4.8.62,5.46,3.49.84,3.29,3.7.62,3.45-.83,3.54h5l5.09,2.06,3.7,3.7,3.7,4.93,3.7-2h4.11l2.06,2.46.82,2.88h4.52l4.08,1.54,2.91,5.86,3.87-.87,3.53,1.69,2.88,5.35.16,4,4.77-1.51h2.88L718,1546l4.94-3.7,5.14,0,5.55,1.27,2,.82,2.06-5.35,4.93-4.93,5.35-.82,6.16.82,4.94,2.88,4.11,3.7,3.29,7,2.87-1.65,4.22-.37,3.59,2.43,3.43,6.45,3.43.38,4.66,3,1.43,1.53,2.68-1.53,4.11-2,5.75.41,4.53,2.88,3.7,4.52,2.26,7.79.2,4.54,3.29-1.64,4.59-1.23,4.25.2Z" transform="translate(-342.62 -1447.56)"/>
                    <g id="Tracé">
                        <path class="cls-2" d="M719.23,1805.83c.26,5.56,3.43,10.15,7.81,11.52a9.84,9.84,0,0,0,7-.42c5.22-2.46,5.74-8.77,5.75-9" transform="translate(-342.62 -1447.56)"/>
                        <path class="cls-2" d="M719.23,1808.71c-.65.48-8.22,7.4-16,4.52-6.93-2.55-11.51-11.7-8.63-21.37" transform="translate(-342.62 -1447.56)"/>
                        <path class="cls-2" d="M693.33,1800.08c-4.11,2.47-11,1.56-14-1.23-3.37-3.17-3.31-8.33-3.29-9" transform="translate(-342.62 -1447.56)"/>
                        <path class="cls-2" d="M683.05,1784.87a12.64,12.64,0,0,1-11.92,4.93,12.26,12.26,0,0,1-7.4-4.52" transform="translate(-342.62 -1447.56)"/>
                        <path class="cls-2" d="M666.61,1789c-.41.93-3.55,9.43-10.28,11.51a16.33,16.33,0,0,1-16.45-4.52" transform="translate(-342.62 -1447.56)"/>
                        <path class="cls-2" d="M643.58,1799.67c-.55.8-4.78,7.61-10.69,8.22s-12.58-3.74-15.21-10.28" transform="translate(-342.62 -1447.56)"/>
                        <path class="cls-2" d="M623.44,1788.57c-2.73,7.19-8.62,12.47-15.21,13.15-9.5,1-20-7.63-21-20.55" transform="translate(-342.62 -1447.56)"/>
                        <path class="cls-2" d="M590.34,1791.8c-2.45,5.94-8.48,9.12-13.91,7.77a12.3,12.3,0,0,1-8.7-9.56" transform="translate(-342.62 -1447.56)"/>
                        <path class="cls-2" d="M570.82,1783.22a10.69,10.69,0,0,1-7,9.46c-5.41,2-10.15-1.73-11.1-2.47-3.55-2.76-5-7.75-5.35-9" transform="translate(-342.62 -1447.56)"/>
                        <path class="cls-2" d="M554,1770.89c-.08.41-1.87,8.66-9.87,11.51a15.39,15.39,0,0,1-15.62-3.29" transform="translate(-342.62 -1447.56)"/>
                        <path class="cls-2" d="M528.88,1770.07c.8,7.46-2.69,14.13-8.22,16.44-.52.22-6.92,2.77-11.92-1.23a11.82,11.82,0,0,1-4.11-8.22" transform="translate(-342.62 -1447.56)"/>
                        <path class="cls-2" d="M509.15,1775.41a13.19,13.19,0,0,1-14.8.82c-5.28-3.35-7.4-10.59-4.52-16.85" transform="translate(-342.62 -1447.56)"/>
                        <path class="cls-2" d="M488.8,1770.07c-6.71,3.42-14.74,2.84-19.81-1.24a14,14,0,0,1-5.06-11.1" transform="translate(-342.62 -1447.56)"/>
                        <path class="cls-2" d="M466.6,1766.78a24.86,24.86,0,0,1-16,3.29c-9.72-1.5-18.37-9.18-17.92-17.68.3-5.8,4.72-9.8,6.29-11.1" transform="translate(-342.62 -1447.56)"/>
                        <path class="cls-2" d="M400.21,1769.25" transform="translate(-342.62 -1447.56)"/>
                        <path class="cls-2" d="M731.56,1805.83c5.94,4,12.53,3.73,15.62.42a16.62,16.62,0,0,0,3.7-6.58" transform="translate(-342.62 -1447.56)"/>
                        <path class="cls-2" d="M746.77,1792.27a11.27,11.27,0,0,0,7.81,9.45c4.72,1.43,8.64.83,11.93-3.7" transform="translate(-342.62 -1447.56)"/>
                        <path class="cls-2" d="M765.68,1784.87c-3.38,7.21.14,14.78,5.35,16.44,4.87,1.56,10.25-3.34,11.51-4.52,7.39-6.92,6.76-17.47,6.58-19.73" transform="translate(-342.62 -1447.56)"/>
                        <path class="cls-2" d="M374.31,1819.81a14.22,14.22,0,0,0,11.92,8.64c5.88.42,11.93-4.27,14.39-9.87" transform="translate(-342.62 -1447.56)"/>
                        <path class="cls-2" d="M399,1813.23c1.86,8.83,9.87,14.33,17.27,13.16,5.55-.88,10.26-5.45,11.92-11.51" transform="translate(-342.62 -1447.56)"/>
                        <path class="cls-2" d="M422.41,1823.92a14.23,14.23,0,0,0,11.51,10.28c5.58.72,11.07-3.09,13.56-8.22" transform="translate(-342.62 -1447.56)"/>
                        <path class="cls-2" d="M443.37,1821.87c4.47,6.19,12.29,8,17.68,4.93,5.77-3.27,6.15-12.29,6.17-12.74" transform="translate(-342.62 -1447.56)"/>
                        <path class="cls-2" d="M458.17,1806.66c.41.61,5.25,7.69,14,7.81a17.25,17.25,0,0,0,15.62-9.87" transform="translate(-342.62 -1447.56)"/>
                        <path class="cls-2" d="M484.48,1810c2.47,2.46,9.33,4.2,14,2.46,8.18-3.05,9.8-12.34,9.87-12.74" transform="translate(-342.62 -1447.56)"/>
                        <path class="cls-2" d="M505.86,1806.25c3.7,7.4,16.86,8.06,21.79,4.11,3.73-3,5-9.33,4.11-14.39" transform="translate(-342.62 -1447.56)"/>
                        <path class="cls-2" d="M527.24,1795.15c5,1.39,9.69.7,12.33-2.47,2.06-2.47,1.64-8.18,1.65-9.46" transform="translate(-342.62 -1447.56)"/>
                        <path class="cls-2" d="M700.32,1695.66c-4.94,16.32-20.21,25-32.48,21.79-12.45-3.28-17-17.58-17.27-18.5" transform="translate(-342.62 -1447.56)"/>
                        <path class="cls-2" d="M654.07,1707.58a17,17,0,0,1-16.49.82,11.7,11.7,0,0,1-4.85-16.44" transform="translate(-342.62 -1447.56)"/>
                        <path class="cls-2" d="M694.56,1688.21c1.7,6.6,8.08,10.06,13.16,8.24,4-1.44,6.88-6.07,6.57-11.28" transform="translate(-342.62 -1447.56)"/>
                        <path class="cls-2" d="M631,1696.89c-6.63,4.36-15.39,3.37-19.18-.82-2.64-2.93-2.75-7.3-.49-11.1" transform="translate(-342.62 -1447.56)"/>
                        <path class="cls-2" d="M704.84,1680.45c3.74,4.15,9.49,5.42,14,3.28,4.85-2.31,6-7.56,6.16-8.22" transform="translate(-342.62 -1447.56)"/>
                        <path class="cls-2" d="M609.26,1689.9c-6.52,2.59-13.71-.3-15.78-5.34-1.65-4,.11-9,4.51-11.93" transform="translate(-342.62 -1447.56)"/>
                        <path class="cls-2" d="M712.86,1693.6c7.11,5,17.57,5.61,25,1.65,6.29-3.37,9.43-9.52,8-15.63" transform="translate(-342.62 -1447.56)"/>
                        <path class="cls-2" d="M746,1684.56c6.83-3.46,10.06-9.79,8.08-15.63-2.19-6.44-10.29-11-19.4-10.68" transform="translate(-342.62 -1447.56)"/>
                        <path class="cls-2" d="M744.1,1659.27c3.55-17.31-3.48-31.54-10.45-32.79-5.13-.92-11.19,5-14.63,14.26" transform="translate(-342.62 -1447.56)"/>
                        <path class="cls-2" d="M723.75,1631.93a12.23,12.23,0,0,0-23.43,3.7" transform="translate(-342.62 -1447.56)"/>
                        <path class="cls-2" d="M701.76,1629.22c-9.91-5.2-20.18-2.18-22.47,2.61-1.73,3.63.69,9.11,5.91,13.05" transform="translate(-342.62 -1447.56)"/>
                        <path class="cls-2" d="M679.76,1630.29c-.42-.36-6.94-5.8-15.21-3.29a16.17,16.17,0,0,0-11.1,12.33" transform="translate(-342.62 -1447.56)"/>
                        <path class="cls-2" d="M656.53,1632.81a8.79,8.79,0,0,0-9.3-6.62,9.14,9.14,0,0,0-7.76,8.83" transform="translate(-342.62 -1447.56)"/>
                        <path class="cls-2" d="M641.94,1643.45a7.78,7.78,0,0,0-14.39-5.76" transform="translate(-342.62 -1447.56)"/>
                        <path class="cls-2" d="M603.5,1674.48c-5-.11-8.29-3.56-7.58-6.38.58-2.26,3.74-4.19,7.58-4.1" transform="translate(-342.62 -1447.56)"/>
                        <path class="cls-2" d="M607,1668.11a5.59,5.59,0,0,1,3.29-10.69" transform="translate(-342.62 -1447.56)"/>
                        <path class="cls-2" d="M616,1662.77a7.52,7.52,0,1,1,4.11-14.39" transform="translate(-342.62 -1447.56)"/>
                        <path class="cls-2" d="M617.76,1648.17c-1.16-3.75-1.37-7.91,0-10.18,2-3.27,7.58-3.25,12,3.18" transform="translate(-342.62 -1447.56)"/>
                        <path class="cls-2" d="M788.71,1787.33c7,4.53,18.46-.95,21-7.81a14.64,14.64,0,0,0-5.75-16.85" transform="translate(-342.62 -1447.56)"/>
                        <path class="cls-2" d="M810.08,1777.88c.22.73,3.77,7.87,10.91,10.08a15.25,15.25,0,0,0,4.3.67h.21" transform="translate(-342.62 -1447.56)"/>
                        <path class="cls-2" d="M729.92,1626.59a13.4,13.4,0,0,1,5.34-9.46,13.25,13.25,0,0,1,13.57-.82" transform="translate(-342.62 -1447.56)"/>
                        <path class="cls-2" d="M743.28,1615.28c.11-.62,1.71-9,8.44-12.22,6.93-3.29,12.79,2,13.14,2.33" transform="translate(-342.62 -1447.56)"/>
                        <path class="cls-2" d="M764.45,1615.08c-1.22-7,1.67-13.35,6.58-15.62,4.54-2.1,9.34,0,10.28.41a15.24,15.24,0,0,1,7.81,8.22" transform="translate(-342.62 -1447.56)"/>
                        <path class="cls-2" d="M785.62,1602.13c1.09-7.53,5.15-13.47,10.34-15.16,6.68-2.16,11.78,3.86,12.27,4.46" transform="translate(-342.62 -1447.56)"/>
                        <path class="cls-2" d="M805.44,1589.39c.18-1.39,1.28-8.65,7.28-12.85,3.62-2.53,7.13-3.42,8.87-3.39h3.91" transform="translate(-342.62 -1447.56)"/>
                        <path class="cls-2" d="M744.1,1688.87c5.07,8.09,12.73,11,17,8.62.59-.33,2.95-1.76,4-6.32" transform="translate(-342.62 -1447.56)"/>
                        <path class="cls-2" d="M760.75,1698.12c1.64,8.64,16.44,14.7,21.41,13.16,3.37-1,5.58-5.68,5.82-6.17a13.49,13.49,0,0,0,1.34-5.34" transform="translate(-342.62 -1447.56)"/>
                        <path class="cls-2" d="M779.66,1688.87c4.23,9.18,11.84,13.3,17.68,10.79,4.13-1.78,6.26-6.41,7-8.22" transform="translate(-342.62 -1447.56)"/>
                        <path class="cls-2" d="M800.22,1685a7.47,7.47,0,1,0,14.8-2.06" transform="translate(-342.62 -1447.56)"/>
                        <path class="cls-2" d="M813.58,1688.87c1.22,1.85,4.19,5.74,8.84,6.82a11.34,11.34,0,0,0,2.29.28h.79" transform="translate(-342.62 -1447.56)"/>
                        <path class="cls-2" d="M813,1576.64c1.22-10.67-4.5-19.32-11.43-20.72-5.47-1.11-10.26,2.59-11.43,3.54" transform="translate(-342.62 -1447.56)"/>
                        <path class="cls-2" d="M790.76,1565.75a9.54,9.54,0,0,0-13.57-10.28" transform="translate(-342.62 -1447.56)"/>
                        <path class="cls-2" d="M780.48,1554c-.1-.64-.89-5-4.44-7.33a8,8,0,0,0-9.33.52" transform="translate(-342.62 -1447.56)"/>
                        <path class="cls-2" d="M766.92,1552.8c0-1,.16-10.53-7.54-16-4.88-3.49-13.52-5.8-19.07-1.3-3.64,3-4.28,7.47-4.43,9.11" transform="translate(-342.62 -1447.56)"/>
                        <path class="cls-2" d="M742.87,1552.2a17.09,17.09,0,0,0-8.3-8.67c-1.75-.83-7.93-3.85-13.48-.51a12.74,12.74,0,0,0-5.7,12.24" transform="translate(-342.62 -1447.56)"/>
                        <path class="cls-2" d="M374.2,1509.46a12.45,12.45,0,0,1,10.59-11.79c5.27-.61,8.92,3.34,9.19,3.65a9.56,9.56,0,0,1,2,8.41" transform="translate(-342.62 -1447.56)"/>
                        <path class="cls-2" d="M396.09,1507.37c3-4.28,8.4-5.68,12.34-3.7,4.36,2.19,4.9,7.49,4.93,7.81" transform="translate(-342.62 -1447.56)"/>
                        <path class="cls-2" d="M409.25,1514.69a11,11,0,0,1,7.38-3c5.59.19,11.16,6,12.15,14.59" transform="translate(-342.62 -1447.56)"/>
                        <path class="cls-2" d="M422.41,1528.33" transform="translate(-342.62 -1447.56)"/>
                        <path class="cls-2" d="M425.9,1518.05c2.87-4.66,7.79-6.34,11.67-4.31,4.37,2.28,5.32,8.15,5.39,8.63" transform="translate(-342.62 -1447.56)"/>
                        <path class="cls-2" d="M439.7,1514.51a18.74,18.74,0,0,1,16.22-7.94,18.25,18.25,0,0,1,16.5,16.37" transform="translate(-342.62 -1447.56)"/>
                        <path class="cls-2" d="M466.39,1523c6-2.16,11.78.86,13.16,5.3,1.32,4.26-1.78,8.47-2.06,8.83" transform="translate(-342.62 -1447.56)"/>
                        <path class="cls-2" d="M472.15,1537.79a12.63,12.63,0,0,1,12.33,3.29c4.64,4.72,3.39,11,3.29,11.51" transform="translate(-342.62 -1447.56)"/>
                        <path class="cls-2" d="M487.62,1546.3a8.42,8.42,0,0,1,9.56.07,12.15,12.15,0,0,1,4.61,11.86,10.2,10.2,0,0,1-2.24,4.66" transform="translate(-342.62 -1447.56)"/>
                        <path class="cls-2" d="M496,1560.81a9.18,9.18,0,0,1,2.47,17.68" transform="translate(-342.62 -1447.56)"/>
                        <path class="cls-2" d="M494.37,1574a16,16,0,0,1,3.4,17.66,13.34,13.34,0,0,1-17.4,7" transform="translate(-342.62 -1447.56)"/>
                        <path class="cls-2" d="M491.06,1598.63c4.79,5.28,3.59,13.21-1.23,16.45-4.16,2.79-10.64,1.85-14.39-2.88" transform="translate(-342.62 -1447.56)"/>
                        <path class="cls-2" d="M479.74,1615.62a17.14,17.14,0,0,1-15.85,6.6A17.33,17.33,0,0,1,449.61,1608" transform="translate(-342.62 -1447.56)"/>
                        <path class="cls-2" d="M455.68,1618.16c.66,4.63-.6,9.25-3.79,11.54-4.83,3.46-14.29,1.68-19.41-6.46" transform="translate(-342.62 -1447.56)"/>
                        <path class="cls-2" d="M433.09,1617.55c.79,7.37-2.74,13.1-7,14a8.3,8.3,0,0,1-6.17-1.64" transform="translate(-342.62 -1447.56)"/>
                        <path class="cls-2" d="M422,1631.52c-.25,3.66-2.73,8.84-6.16,9.87a8.81,8.81,0,0,1-9.87-3.7" transform="translate(-342.62 -1447.56)"/>
                        <path class="cls-2" d="M407,1639.54c-.61,5.62-3.93,10.28-8.48,11.83-5.84,2-12.86-1.41-16-8.39" transform="translate(-342.62 -1447.56)"/>
                        <path class="cls-2" d="M390.27,1651.05c1.22,5.85-1.83,10.76-5.75,12.46-4.8,2.07-10.81-4.45-11-4.67" transform="translate(-342.62 -1447.56)"/>
                        <path class="cls-2" d="M375.13,1653.72c.58,5.1-2.67,9.13-6.17,9.46s-6-3.08-6.17-3.29" transform="translate(-342.62 -1447.56)"/>
                        <path class="cls-2" d="M364.44,1662c0,.64-2,11.39-9.17,16a14.85,14.85,0,0,1-7.93,2.31H344.5" transform="translate(-342.62 -1447.56)"/>
                        <path class="cls-2" d="M715.53,1550.53c-8-.23-13.12,5.22-12.75,9.46.26,3,3.22,5.66,7,7" transform="translate(-342.62 -1447.56)"/>
                        <path class="cls-2" d="M702.37,1560c-15.21-2.06-25.2,9.3-25.49,16.86-.21,5.53,4,9.78,5.35,11.1" transform="translate(-342.62 -1447.56)"/>
                        <path class="cls-2" d="M676.47,1579.72c-10.28,2.88-10.39,13.49-7.81,16.86,2,2.6,6.52,3.52,10.69,1.64" transform="translate(-342.62 -1447.56)"/>
                        <path class="cls-2" d="M668.66,1586.71c-5.14-5.43-18.53-3.84-22.2.41-2.72,3.16-3,8.39-.41,12.75" transform="translate(-342.62 -1447.56)"/>
                        <path class="cls-2" d="M644.41,1597.4c-9,2.09-16.47,10-16,17.47.36,6.32,5.29,12,12.5,14.39" transform="translate(-342.62 -1447.56)"/>
                        <path class="cls-2" d="M707.65,1552.16c1-4.88-1.31-9.43-4.53-10.72-4-1.6-10,1.55-11.12,8" transform="translate(-342.62 -1447.56)"/>
                        <path class="cls-2" d="M697.23,1541.49a8.1,8.1,0,0,0-5.13-7c-3.85-1.34-8.82.79-10.69,5.35" transform="translate(-342.62 -1447.56)"/>
                        <path class="cls-2" d="M685.27,1535.32c1.5-3-1-5.9-4-6.32-2.52-.33-5.54,1-6.6,3.35" transform="translate(-342.62 -1447.56)"/>
                        <path class="cls-2" d="M675.24,1538.2a16,16,0,0,0-1.65-9.45c-2.31-4.35-7.17-8.28-13.15-8.23a15.06,15.06,0,0,0-9.87,4.11" transform="translate(-342.62 -1447.56)"/>
                        <path class="cls-2" d="M657.76,1520.52c2.26-5-.39-10.23-4.39-11.44-2.89-.87-6.46.37-8.76,3.12" transform="translate(-342.62 -1447.56)"/>
                        <path class="cls-2" d="M651.19,1508.4c0-5.58-2.07-8.22-2.86-9.09-4.63-5.08-15.26-4.74-24.89,3" transform="translate(-342.62 -1447.56)"/>
                        <path class="cls-2" d="M633.31,1517.44c-.49-8.34-6.36-15.22-14-16.64-8.26-1.53-16.66,3.71-19.32,12.37" transform="translate(-342.62 -1447.56)"/>
                        <path class="cls-2" d="M605.35,1521.76c-1.08-5.72-5.43-9.13-9-8.64-2.79.38-4.51,3-4.94,3.7" transform="translate(-342.62 -1447.56)"/>
                        <path class="cls-2" d="M593.84,1513.53c-3.84-3.91-9.47-5-13.57-2.87-5.36,2.75-7.74,10.76-3.7,17.26" transform="translate(-342.62 -1447.56)"/>
                        <path class="cls-2" d="M578,1511.89a11.83,11.83,0,0,0-8.18-9.27c-5.3-1.48-11.39,1.34-14,7" transform="translate(-342.62 -1447.56)"/>
                        <path class="cls-2" d="M559.05,1517.85c.6-6.48-4.19-11.2-8.34-10.89-3.15.23-6.23,3.38-7,7.71" transform="translate(-342.62 -1447.56)"/>
                        <path class="cls-2" d="M548.62,1516.82c-3.52-2.08-7.22-2.32-8.64-.82-1.67,1.77-.94,6.82,3.7,10.69" transform="translate(-342.62 -1447.56)"/>
                        <path class="cls-2" d="M539.57,1520.93c-6.94-2.53-13.71,1.47-14.8,6.58-.8,3.78,1.48,8.27,5.76,10.69" transform="translate(-342.62 -1447.56)"/>
                        <path class="cls-2" d="M524.57,1531.21c-3.77-.67-7.26,1.78-7.61,4.94-.31,2.83,2,5.64,5.37,6.16" transform="translate(-342.62 -1447.56)"/>
                        <path class="cls-2" d="M517,1537.87c-6.77-4.86-13.79-3.86-16.88,1.22a14.84,14.84,0,0,0-1.82,8" transform="translate(-342.62 -1447.56)"/>
                        <path class="cls-2" d="M631.87,1622.52a18.27,18.27,0,0,1-19.47,1.07,12.63,12.63,0,0,1-6.28-12.83" transform="translate(-342.62 -1447.56)"/>
                        <path class="cls-2" d="M608,1620.42c-7.86,3-16.69-.44-19-6.16-2.39-5.9,2.45-13.43,11.22-14.8" transform="translate(-342.62 -1447.56)"/>
                        <path class="cls-2" d="M588.7,1613.23c-.47,5.26-3.83,9.61-8.23,10.82-5.39,1.49-11.48-2-13.56-8.24" transform="translate(-342.62 -1447.56)"/>
                        <path class="cls-2" d="M571.64,1608.5c-.54,4.87-4.51,8.34-8.63,8.22a8.58,8.58,0,0,1-7.4-5.34" transform="translate(-342.62 -1447.56)"/>
                        <path class="cls-2" d="M564,1593.68c.52,9.28-6,17.5-15.38,20-10.25,2.71-23.24-1.63-26-10-2.25-6.82,3.37-13.13,4.24-14.08" transform="translate(-342.62 -1447.56)"/>
                        <path class="cls-2" d="M522.92,1595.87c-3.32,2-7.35,1.84-9.54,0-2.89-2.44-2.87-8.1,1.69-11.42" transform="translate(-342.62 -1447.56)"/>
                        <path class="cls-2" d="M511.41,1591.69c-2.64,3.42-6.28,4.39-9.1,2.51-2.39-1.59-3.37-4.67-3.64-5.64" transform="translate(-342.62 -1447.56)"/>
                        <path class="cls-2" d="M540.81,1676.75c-3.84-3.82-5.59-9-4.12-13.16,2.16-6,11.31-10,20.15-5.76" transform="translate(-342.62 -1447.56)"/>
                        <path class="cls-2" d="M536.28,1664.82a9.74,9.74,0,0,0-7.81-1.64,9.93,9.93,0,0,0-6.58,5.75" transform="translate(-342.62 -1447.56)"/>
                        <path class="cls-2" d="M537.93,1688.26a12.23,12.23,0,0,1,7-13.57,12.09,12.09,0,0,1,12.74,2.47" transform="translate(-342.62 -1447.56)"/>
                        <path class="cls-2" d="M477.08,1687.43c-9.1-3.72-12.45-14.1-8.63-21,3.05-5.47,10.48-8.37,17.68-6.17" transform="translate(-342.62 -1447.56)"/>
                        <path class="cls-2" d="M467.63,1677.16c-4.37,3.78-10.38,2.94-12.75-.41-1.68-2.39-1.51-6,.41-9" transform="translate(-342.62 -1447.56)"/>
                        <path class="cls-2" d="M608.64,1737.59c.86-5.5-2.11-10.66-6.58-12.33-5.48-2-12.56,1.41-14.39,8.22" transform="translate(-342.62 -1447.56)"/>
                        <path class="cls-2" d="M590.14,1727.72c-.46-.2-4.58-1.93-7.4,0-3.13,2.14-4,8.31,0,13.57" transform="translate(-342.62 -1447.56)"/>
                        <path class="cls-2" d="M602.06,1742.93c2.82-5.09,8.54-6.59,11.92-4.52,2.25,1.38,3.43,4.32,3.29,7.4" transform="translate(-342.62 -1447.56)"/>
                        <path class="cls-2" d="M363.69,1587.66c-.16,1.14-1.92,11.95-10.22,15.27a13.53,13.53,0,0,1-4.86.94H344.5" transform="translate(-342.62 -1447.56)"/>
                        <path class="cls-2" d="M358.68,1581.37a9.34,9.34,0,0,0,7.4,7,9.77,9.77,0,0,0,8.23-2.88" transform="translate(-342.62 -1447.56)"/>
                        <path class="cls-2" d="M358.06,1599.87c1.41,5.4,6,8.83,10.37,8.46,4-.33,6.46-3.75,6.85-4.32" transform="translate(-342.62 -1447.56)"/>
                        <path class="cls-2" d="M347.17,1532a9,9,0,0,0,17.27-3.7" transform="translate(-342.62 -1447.56)"/>
                        <path class="cls-2" d="M356.3,1537.74c2.31,3,1.9,7-.88,9.9-3.26,3.39-8.17,3.47-8.61,3.47H344.5" transform="translate(-342.62 -1447.56)"/>
                        <path class="cls-2" d="M751.29,1734.71a7,7,0,1,0-14,.82" transform="translate(-342.62 -1447.56)"/>
                        <path class="cls-2" d="M743.89,1745a11.28,11.28,0,0,0-20.14-6.17" transform="translate(-342.62 -1447.56)"/>
                        <path class="cls-2" d="M727.86,1735.12c-.18-.34-2.82-5.26-8.22-5.75a10.69,10.69,0,0,0-10.69,7" transform="translate(-342.62 -1447.56)"/>
                        <path class="cls-2" d="M815.69,1626.62c-3.3-3.71-4.2-8.38-2.34-11.42,2.17-3.53,9.07-3.82,10.71-3.82h1.44" transform="translate(-342.62 -1447.56)"/>
                        <path class="cls-2" d="M822.91,1632.3c-.37-.64-3.15-5.3-8.56-6.08-5.09-.74-10.39,2.27-12.85,7.52" transform="translate(-342.62 -1447.56)"/>
                        <path class="cls-2" d="M819.44,1726.84a6.56,6.56,0,0,0-.57,8.75,8.4,8.4,0,0,0,6,2.89h.58" transform="translate(-342.62 -1447.56)"/>
                        <path class="cls-2" d="M816.87,1731.63a5.26,5.26,0,0,1-3.62-9.22" transform="translate(-342.62 -1447.56)"/>
                        <path class="cls-2" d="M450.36,1744.58c-6.39.67-11.93-2.41-13.57-7a10.47,10.47,0,0,1,.42-7.4" transform="translate(-342.62 -1447.56)"/>
                        <path class="cls-2" d="M436.18,1733.07c-7.8.6-14.3-3.34-15.39-8.22s3.49-8.66,4-9" transform="translate(-342.62 -1447.56)"/>
                        <path class="cls-2" d="M420.56,1722.39a10.23,10.23,0,0,1-11.71,0,6.19,6.19,0,0,1-1.24-9.06" transform="translate(-342.62 -1447.56)"/>
                        <path class="cls-2" d="M406,1717.61a9.08,9.08,0,0,1-11.76.91c-4.24-3.22-4.08-9.16-4.06-9.5" transform="translate(-342.62 -1447.56)"/>
                        <path class="cls-2" d="M395.27,1708.81a8.25,8.25,0,0,1-9.86-4.11,8,8,0,0,1,1.23-8.22" transform="translate(-342.62 -1447.56)"/>
                        <path class="cls-2" d="M394.45,1698.52a8.87,8.87,0,0,1-10.28-8.07,9.25,9.25,0,0,1,6.17-9" transform="translate(-342.62 -1447.56)"/>
                        <path class="cls-2" d="M403.91,1684.13c-10.22.71-18.63-4.33-21-12.2a18.25,18.25,0,0,1-.41-8.13" transform="translate(-342.62 -1447.56)"/>
                        <path class="cls-2" d="M353.11,1705.29a8.79,8.79,0,0,0-8-13.16h-.59" transform="translate(-342.62 -1447.56)"/>
                        <path class="cls-2" d="M352.31,1696.05a8.21,8.21,0,0,1,6.62-5.32c3.65-.31,7.24,2.47,8.39,6.78" transform="translate(-342.62 -1447.56)"/>
                        <path class="cls-2" d="M358.27,1764.72c1.71,4,.33,8.46-2.64,11.77a14.28,14.28,0,0,1-10.21,4.36h-.92" transform="translate(-342.62 -1447.56)"/>
                        <path class="cls-2" d="M355.81,1757.73a7.38,7.38,0,0,0,14.38,3.29" transform="translate(-342.62 -1447.56)"/>
                        <path class="cls-2" d="M369,1764.31c3.1,3.7,8.28,5.5,12.69,4a11.76,11.76,0,0,0,7.86-12.06" transform="translate(-342.62 -1447.56)"/>
                        <path class="cls-2" d="M530.53,1612.61a9.6,9.6,0,0,1-17.27,2.06" transform="translate(-342.62 -1447.56)"/>
                        <path class="cls-2" d="M523.54,1619.4c.11.39,2.65,8.93,8.63,10,4.8.88,8.15-3.7,8.64-4.39" transform="translate(-342.62 -1447.56)"/>
                        <path class="cls-2" d="M364.85,1807.48c-.63,6.2-4.23,11.46-9.46,13.57a26.06,26.06,0,0,1-10.27,1.64h-.62" transform="translate(-342.62 -1447.56)"/>
                        <path class="cls-2" d="M380.06,1816.93c-5.78,3.75-11.87,4.4-15.21,1.65a11.88,11.88,0,0,1-2.47-3.7" transform="translate(-342.62 -1447.56)"/>
                        <path class="cls-2" d="M383.24,1497.37a31.45,31.45,0,0,0-8.79-21.53c-10.18-10.61-24.22-11.08-26.55-11.12h-3.4" transform="translate(-342.62 -1447.56)"/>
                        <path class="cls-2" d="M785.42,1471.29c-2-5.94-5.76-9.78-9.93-10-4.58-.21-8.85,4-10.83,10.68" transform="translate(-342.62 -1447.56)"/>
                        <path class="cls-2" d="M768.15,1479.61c-.4-1.3-3-9.54-9-11.1-6.91-1.8-17.42,5.48-20.56,19.73" transform="translate(-342.62 -1447.56)"/>
                        <path class="cls-2" d="M744.43,1475c-.29-1-2.27-7.35-8.23-9.78-7.23-3-15.72,1.41-19.18,7.47a15.24,15.24,0,0,0-2,7.1" transform="translate(-342.62 -1447.56)"/>
                        <path class="cls-2" d="M720.87,1480.84c-3.56-2.92-8.45-2.69-11.1,0a7.93,7.93,0,0,0-1.64,7.81" transform="translate(-342.62 -1447.56)"/>
                        <path class="cls-2" d="M707.92,1483.2c-8.19-4.36-17.6-2.19-22.15,4.28-4.78,6.81-2.07,15.37-1.81,16.18" transform="translate(-342.62 -1447.56)"/>
                        <path class="cls-2" d="M693.33,1499.75a22.94,22.94,0,0,0-16,9.19A28.34,28.34,0,0,0,672,1525" transform="translate(-342.62 -1447.56)"/>
                        <path class="cls-2" d="M783,1475.49c1.16-4.19,4.12-7.14,7.4-7.4a6.76,6.76,0,0,1,3.7.83" transform="translate(-342.62 -1447.56)"/>
                        <path class="cls-2" d="M792.45,1477.9c.23-11.32,6.64-21.26,17.16-25.54a33.3,33.3,0,0,1,13.17-2.29h2.72" transform="translate(-342.62 -1447.56)"/>
                        <path class="cls-2" d="M561.77,1555.66c5-3.12,10.86-3.5,14.8-.82a11.3,11.3,0,0,1,3.78,4.58,12.91,12.91,0,0,1-.08,10.22" transform="translate(-342.62 -1447.56)"/>
                        <path class="cls-2" d="M579.66,1556.71a7.76,7.76,0,0,1,5.78-2.28c4.35.33,6.58,4.77,6.75,5.14" transform="translate(-342.62 -1447.56)"/>
                        <path class="cls-2" d="M561.36,1561c1-4.71-2.05-8.69-5.34-9-2.3-.24-4.75,1.26-6.17,3.7" transform="translate(-342.62 -1447.56)"/>
                        <path class="cls-2" d="M618.92,1540c5.86-.53,10.12,3.9,9.86,7.81-.19,2.88-2.86,5.69-6.57,6.58" transform="translate(-342.62 -1447.56)"/>
                        <path class="cls-2" d="M625.7,1553.45c5.43,6.62,13.38,6.45,16.38,2.68,2.13-2.67,2-7.48,0-11.77" transform="translate(-342.62 -1447.56)"/>
                    </g>
                </g>
            </g>
        </g>
    </g>
</svg>