<svg id="CONTENT"
    xmlns="http://www.w3.org/2000/svg" viewBox="0 0 1025 824.2">
    <defs>
        <style>.cls-1{fill:#f4d0de;}.cls-2{fill:none;stroke:#000;stroke-miterlimit:10;stroke-width:5px;}</style>
    </defs>
    <g id="NEW_MEDIUM" data-name="NEW MEDIUM">
        <g id="CLOUDSFALL_MEDIUM">
            <g id="JUNCTION_CLOUDSFALL_MEDIUM">
                <g id="JUNCTION_CLOUDSFALL_TOP_SMALL">
                    <polygon class="cls-1" points="1024.38 2.51 1009.73 3.08 996.08 6.19 982.21 13.04 971.78 22.02 960.69 39.75 958.84 42.3 953.09 40.91 945.81 42.88 941.26 47.76 937.92 39.99 931.62 31.74 922.41 26.48 912.46 28.09 903.39 35.95 896.99 49.27 891.02 44.58 882.97 40.91 870.7 43.38 858.76 51.38 855.15 55.17 848.42 44.65 834.76 33.96 822.56 32.83 807.16 38.65 794.68 52.17 791.46 63.11 784.02 65.25 776.03 73.16 767.9 69.86 753.53 68.31 739.66 72.65 727.73 83.93 723 98.55 724.53 115.38 712.15 126.23 704.44 138.89 699.34 154.02 699.34 166.17 719.5 237.19 1024.38 296.48 1026.18 296.48 1026.18 2.5 1024.38 2.51"/>
                    <path id="FOND" class="cls-1" d="M1097.24,1698.05l-12.62-2.32-12.27-10.52-7.45-8.47-5.7,9.35-11.39,9.64-14.32,2.32-14.61-3.2-6.13,14-12.28,11.39-13.14,5.26-9.64-2.63-4.68-5.25-7.6,6.13-8.76,2.63-10.23-.67-7.74-4.15-4.82,8.32-6.14,8.77-11.39,2.3-5.26,10-7.89,6.13-6.87,3.18-11.54-2.3-8.76-7.89-3.51-7.89h-5.26l-9.64,7L844,1752l-10-2.76-10.52-7.89-4.39-11.4-1.75-7.89-10.52,2.75-9.21-.55-9.19-3.07-7-7-2.2-12.42-9.34-1.17-9.49-3.07-6.14,12.27-11.54,11-10.08,4-16.07-1-6.57-3.22-5.7,9.35-11,7.51-9.93,1.82-13.79-4.51-12.65-11.83-2.19-5.25-11,5.25-8.77,2.63-11.39-.76-14.16-6.27-12.34-13.57L589.38,1715,578,1721.15l-15.78-.88-11.39-11.39-3.51-7-7.89,5.26H528.9l-13.14-5.26L507.63,1690l-2.83-7.89-11.69,4.5L491.65,1700l-5.69,8.91-12.13,4.53-2.78,3.79v16.66l-6.57,10.52-13.59,5.1H439.62l-13.27-4.67-10.08-7.59-11,9.35-13.44,2.91-14.17-1.78-7-4.2L357.11,1751l-14.17,2.19-9.06-1.83-3.95,18.92-10.51,10.52-11,2.25-10.08-3.13-6.57-2.19-10.08,11.84-11.55,5.29-11.24,0-15.78-10.43-5.26-10.61-16.66,4.38-13.14-2.63-15.78-14.9-14.76,19.15-16.27,3.36-12.92-4.21-12.15-12.16-1.75-2.63-7.45,1.41-11.83-4-4.64-7L102,1764.1l-11.4,4.38-13.15,1.75H72.24V1007.66H83.81s18.23,3.5,19.1,3.5,25.42,13.15,25.42,13.15l13.59,13.59,8.76,16.65,2.81,23,10.34.67,9.64,3.5,9.14,13.89,2,1,5.55-4.34,7-3.5,9.93,1.74,8.19,7.4,3.79,10.83,8.77.19,10.52,3.47,6,7.89,8.91-5.23,7.89-4.38,10.52,1.75,3.57,1.68,7.82-8.69,17.68-8.81,12.12.92,16.66,6.14,8.76,11.39,6.71,16.52,9.07,1.89,5.6,9.64.53,9.64-4.38,10.52,10.52,3.51,11.07,14.64,10-2.37,11.39,3.5,2.87-8,3.27-9.56,7.89-7,11.15-1.31,10.76,3.06,6.13,3.51.88-7.89L448,1149h8.23l1.22-11.15,9.64-8.76,12.32-3.43,8.86,1.52-1-7.69,2.62-4.43,8.76.88.64-6.81,3.75-7.22,7.89-5.26,11.83,4.44,5.7-5.31,7-6.14,9.64-2.63,11.4,2.63,9.64,7,5.26,11.4,8.81-4.89h9l8.52,4,7,5.26,12.28-1.22,5.25-10.17,8.77-9.65,7.89-5.25,12-2.3,16.89,4,10.52-7,13.15-5.26,14-1.76,13.15,6.14,6.14,10.23,1.31,11.63,7.45,1.81,7,7.89,1.31,7.35-1.78,7.55h10.64l10.86,4.38,7.89,7.89,7.89,10.52,7.89-4.39h8.76l4.39,5.26,1.75,6.14h9.64l8.69,3.28,6.21,12.5,8.26-1.86,7.52,3.61,6.13,11.39.35,8.48,10.17-3.22h6.14l5.26-9.64,10.52-7.89,10.95-.07,11.84,2.7,4.38,1.75,4.38-11.39,10.52-10.52,11.39-1.75,13.15,1.75,10.52,6.14,8.77,7.89,7,14.9,6.13-3.51,9-.79,7.67,5.17,7.3,13.77,7.31.8,9.93,6.47,3.07,3.24,5.7-3.24,8.76-4.38,12.27.87,9.64,6.14,7.89,9.64,4.82,16.61.44,9.69,7-3.51,9.79-2.63,8.53.44Z" transform="translate(-71.05 -973.7)"/>
                    <g id="Tracé">
                        <path class="cls-2" d="M871.19,1734.73c.55,11.86,7.31,21.64,16.65,24.55a20.93,20.93,0,0,0,14.9-.88c11.13-5.25,12.24-18.71,12.27-19.28" transform="translate(-71.05 -973.7)"/>
                        <path class="cls-2" d="M871.19,1740.87c-1.37,1-17.53,15.78-34.19,9.64-14.79-5.45-24.54-25-18.4-45.58" transform="translate(-71.05 -973.7)"/>
                        <path class="cls-2" d="M816,1722.46c-8.77,5.26-23.46,3.34-29.81-2.63-7.18-6.76-7-17.76-7-19.28" transform="translate(-71.05 -973.7)"/>
                        <path class="cls-2" d="M794.05,1690c-6.3,8-16,12.12-25.42,10.52a26.16,26.16,0,0,1-15.77-9.64" transform="translate(-71.05 -973.7)"/>
                        <path class="cls-2" d="M759,1698.8c-.86,2-7.56,20.11-21.91,24.54-12.18,3.76-25.77,0-35.06-9.64" transform="translate(-71.05 -973.7)"/>
                        <path class="cls-2" d="M709.91,1721.59c-1.19,1.71-10.19,16.24-22.79,17.53-12.85,1.31-26.84-8-32.43-21.92" transform="translate(-71.05 -973.7)"/>
                        <path class="cls-2" d="M667,1697.92c-5.83,15.33-18.39,26.59-32.43,28-20.26,2.11-42.54-16.27-44.71-43.83" transform="translate(-71.05 -973.7)"/>
                        <path class="cls-2" d="M596.4,1704.81c-5.23,12.67-18.1,19.45-29.67,16.57-9.12-2.27-16.34-10.26-18.54-20.39" transform="translate(-71.05 -973.7)"/>
                        <path class="cls-2" d="M554.76,1686.52a22.74,22.74,0,0,1-14.9,20.16c-11.53,4.18-21.64-3.68-23.66-5.25-7.57-5.9-10.74-16.54-11.4-19.29" transform="translate(-71.05 -973.7)"/>
                        <path class="cls-2" d="M518.82,1660.23c-.17.87-4,18.46-21,24.54a32.82,32.82,0,0,1-33.31-7" transform="translate(-71.05 -973.7)"/>
                        <path class="cls-2" d="M465.36,1658.48c1.69,15.91-5.74,30.12-17.53,35.06-1.11.46-14.76,5.91-25.42-2.63-7.79-6.24-8.64-15.67-8.77-17.53" transform="translate(-71.05 -973.7)"/>
                        <path class="cls-2" d="M423.28,1669.87c-9.56,7-22.21,7.68-31.55,1.75-11.25-7.14-15.78-22.59-9.64-35.93" transform="translate(-71.05 -973.7)"/>
                        <path class="cls-2" d="M379.9,1658.48c-14.3,7.28-31.43,6-42.23-2.63s-10.85-21.55-10.8-23.67" transform="translate(-71.05 -973.7)"/>
                        <path class="cls-2" d="M332.56,1651.46c-3.49,2.07-17.15,9.63-34.08,7-20.74-3.21-39.18-19.57-38.22-37.69.65-12.37,10.07-20.9,13.42-23.67" transform="translate(-71.05 -973.7)"/>
                        <path class="cls-2" d="M191,1656.72" transform="translate(-71.05 -973.7)"/>
                        <path class="cls-2" d="M897.48,1734.73c12.67,8.42,26.73,7.94,33.31.88,1.16-1.24,6.14-7,7.89-14" transform="translate(-71.05 -973.7)"/>
                        <path class="cls-2" d="M929.91,1705.81A24.07,24.07,0,0,0,946.57,1726c10.06,3,18.41,1.75,25.42-7.89" transform="translate(-71.05 -973.7)"/>
                        <path class="cls-2" d="M970.23,1690c-7.22,15.39.3,31.53,11.4,35.06,10.4,3.32,21.85-7.12,24.54-9.64,15.75-14.75,14.42-37.26,14-42.07" transform="translate(-71.05 -973.7)"/>
                        <path class="cls-2" d="M135.78,1764.54a30.34,30.34,0,0,0,25.42,18.4c12.54.91,25.44-9.09,30.68-21" transform="translate(-71.05 -973.7)"/>
                        <path class="cls-2" d="M188.38,1750.51c4,18.82,21,30.55,36.81,28,11.84-1.88,21.88-11.62,25.42-24.54" transform="translate(-71.05 -973.7)"/>
                        <path class="cls-2" d="M238.34,1773.3c2.9,11.23,13.19,20.46,24.54,21.91,11.89,1.53,23.6-6.58,28.93-17.53" transform="translate(-71.05 -973.7)"/>
                        <path class="cls-2" d="M283,1768.92c9.53,13.2,26.21,17,37.69,10.52,12.31-7,13.11-26.21,13.15-27.18" transform="translate(-71.05 -973.7)"/>
                        <path class="cls-2" d="M314.59,1736.49c.87,1.3,11.19,16.39,29.81,16.65a36.79,36.79,0,0,0,33.3-21" transform="translate(-71.05 -973.7)"/>
                        <path class="cls-2" d="M370.69,1743.5c5.26,5.26,19.89,9,29.8,5.26,17.44-6.51,20.9-26.31,21-27.17" transform="translate(-71.05 -973.7)"/>
                        <path class="cls-2" d="M416.27,1735.61c7.89,15.78,35.94,17.19,46.46,8.77,8-6.38,10.71-19.89,8.76-30.68" transform="translate(-71.05 -973.7)"/>
                        <path class="cls-2" d="M461.85,1711.94c10.64,3,20.66,1.51,26.3-5.26,4.38-5.25,3.48-17.43,3.5-20.16" transform="translate(-71.05 -973.7)"/>
                        <path class="cls-2" d="M830.87,1499.83c-10.52,34.79-43.09,53.34-69.25,46.45-26.55-7-36.22-37.48-36.81-39.44" transform="translate(-71.05 -973.7)"/>
                        <path class="cls-2" d="M732.26,1525.24c-10.75,6.63-24.81,7.28-35.15,1.76-12.81-6.84-17.87-22.07-10.33-35.06" transform="translate(-71.05 -973.7)"/>
                        <path class="cls-2" d="M818.6,1484c3.62,14.08,17.22,21.44,28,17.57,8.61-3.07,14.68-13,14-24" transform="translate(-71.05 -973.7)"/>
                        <path class="cls-2" d="M683.17,1502.45c-14.14,9.29-32.82,7.2-40.9-1.75-5.63-6.24-5.87-15.56-1-23.66" transform="translate(-71.05 -973.7)"/>
                        <path class="cls-2" d="M840.51,1467.39c8,8.86,20.24,11.57,29.8,7,10.34-4.93,12.86-16.13,13.15-17.53" transform="translate(-71.05 -973.7)"/>
                        <path class="cls-2" d="M636.72,1487.55c-13.89,5.53-29.22-.64-33.63-11.39-3.52-8.56.22-19.23,9.6-25.42" transform="translate(-71.05 -973.7)"/>
                        <path class="cls-2" d="M857.6,1495.44c15.16,10.7,37.47,12,53.25,3.51,13.41-7.18,20.11-20.3,17-33.31" transform="translate(-71.05 -973.7)"/>
                        <path class="cls-2" d="M928.17,1476.16c14.57-7.37,21.46-20.86,17.23-33.31-4.66-13.74-21.94-23.44-41.34-22.79" transform="translate(-71.05 -973.7)"/>
                        <path class="cls-2" d="M924.22,1422.25c7.57-36.9-7.42-67.24-22.28-69.92-10.93-2-23.87,10.67-31.19,30.4" transform="translate(-71.05 -973.7)"/>
                        <path class="cls-2" d="M880.83,1364c-4.68-10.12-14.86-16.39-25.42-15.77-12.28.71-22.83,10.6-24.54,23.66" transform="translate(-71.05 -973.7)"/>
                        <path class="cls-2" d="M833.94,1358.19c-21.12-11.1-43-4.66-47.91,5.56-3.69,7.72,1.48,19.42,12.61,27.82" transform="translate(-71.05 -973.7)"/>
                        <path class="cls-2" d="M787,1360.46c-.89-.77-14.79-12.36-32.43-7a34.5,34.5,0,0,0-23.67,26.29" transform="translate(-71.05 -973.7)"/>
                        <path class="cls-2" d="M737.52,1365.83c-2.57-9.19-11-15.14-19.84-14.11-9,1.06-16.09,9.07-16.54,18.82" transform="translate(-71.05 -973.7)"/>
                        <path class="cls-2" d="M706.4,1388.51a16.58,16.58,0,0,0-30.68-12.27" transform="translate(-71.05 -973.7)"/>
                        <path class="cls-2" d="M624.45,1454.68c-10.73-.24-17.68-7.59-16.16-13.6,1.23-4.83,8-8.93,16.16-8.75" transform="translate(-71.05 -973.7)"/>
                        <path class="cls-2" d="M631.9,1441.1a11.92,11.92,0,0,1,7-22.79" transform="translate(-71.05 -973.7)"/>
                        <path class="cls-2" d="M651.18,1429.7c-9.78-2.23-15.24-12.45-12.27-21,2.77-8,12.23-12.73,21-9.65" transform="translate(-71.05 -973.7)"/>
                        <path class="cls-2" d="M654.85,1398.59c-2.47-8-2.93-16.87,0-21.72,4.2-7,16.17-6.92,25.69,6.79" transform="translate(-71.05 -973.7)"/>
                        <path class="cls-2" d="M1019.32,1695.29c14.9,9.64,39.38-2,44.7-16.65,4.62-12.68-.28-27.7-12.27-35.94" transform="translate(-71.05 -973.7)"/>
                        <path class="cls-2" d="M1097.24,1698.05" transform="translate(-71.05 -973.7)"/>
                        <path class="cls-2" d="M1064.9,1675.13c1,2.32,8.35,17.31,23.25,21.5,2.2.61,4.82,0,9.09,0" transform="translate(-71.05 -973.7)"/>
                        <path class="cls-2" d="M894,1352.57c.16-1.75,1.42-13.11,11.39-20.16a28.19,28.19,0,0,1,28.93-1.75" transform="translate(-71.05 -973.7)"/>
                        <path class="cls-2" d="M922.46,1328.46c.24-1.34,3.66-19.23,18-26.06,14.77-7,27.26,4.27,28,5" transform="translate(-71.05 -973.7)"/>
                        <path class="cls-2" d="M967.61,1328c-2.61-14.84,3.55-28.47,14-33.31,9.67-4.47,19.92,0,21.91.88,11.42,5,15.77,15.29,16.66,17.53" transform="translate(-71.05 -973.7)"/>
                        <path class="cls-2" d="M1012.75,1300.42c2.31-16.05,11-28.73,22-32.32,14.25-4.61,25.13,8.23,26.17,9.51" transform="translate(-71.05 -973.7)"/>
                        <path class="cls-2" d="M1055,1273.26c.39-3,2.73-18.45,15.53-27.41,7.71-5.39,15.19-7.28,18.91-7.23h7.8" transform="translate(-71.05 -973.7)"/>
                        <path class="cls-2" d="M924.22,1485.36c10.82,17.25,27.13,23.38,36.24,18.37,1.27-.7,6.29-3.75,8.46-13.47" transform="translate(-71.05 -973.7)"/>
                        <path class="cls-2" d="M959.72,1505.08c3.5,18.41,35,31.34,45.65,28.05,7.17-2.22,11.9-12.11,12.4-13.14a28.8,28.8,0,0,0,2.86-11.4" transform="translate(-71.05 -973.7)"/>
                        <path class="cls-2" d="M1000,1485.36c9,19.56,25.24,28.36,37.69,23,8.81-3.79,13.34-13.66,14.9-17.52" transform="translate(-71.05 -973.7)"/>
                        <path class="cls-2" d="M1043.86,1477a15.94,15.94,0,1,0,31.56-4.39" transform="translate(-71.05 -973.7)"/>
                        <path class="cls-2" d="M1072.35,1485.36c2.61,3.94,8.93,12.23,18.86,14.53a23.46,23.46,0,0,0,4.88.6h1.15" transform="translate(-71.05 -973.7)"/>
                        <path class="cls-2" d="M1071.12,1246.07c2.6-22.76-9.59-41.19-24.36-44.18-11.67-2.36-21.89,5.52-24.37,7.54" transform="translate(-71.05 -973.7)"/>
                        <path class="cls-2" d="M1023.7,1222.84a20.33,20.33,0,0,0-28.92-21.91" transform="translate(-71.05 -973.7)"/>
                        <path class="cls-2" d="M1001.79,1197.86c-.22-1.35-1.9-10.72-9.47-15.63-6.13-4-13.79-3.53-19.89,1.11" transform="translate(-71.05 -973.7)"/>
                        <path class="cls-2" d="M972.86,1195.23c.07-2.12.34-22.45-16.07-34.2-10.41-7.46-28.81-12.37-40.65-2.77-7.76,6.28-9.13,15.91-9.45,19.41" transform="translate(-71.05 -973.7)"/>
                        <path class="cls-2" d="M921.59,1194a36.44,36.44,0,0,0-17.69-18.49c-3.74-1.77-16.91-8.21-28.74-1.09-8.52,5.13-13.17,15.34-12.17,26.1" transform="translate(-71.05 -973.7)"/>
                        <path class="cls-2" d="M135.56,1102.84c.37-13.19,11.15-23.83,22.57-25.15,11.24-1.3,19,7.14,19.61,7.8,6.6,7.46,4.7,16.39,4.35,17.91" transform="translate(-71.05 -973.7)"/>
                        <path class="cls-2" d="M182.24,1098.38c6.46-9.11,17.89-12.11,26.3-7.89,9.31,4.67,10.46,16,10.51,16.65" transform="translate(-71.05 -973.7)"/>
                        <path class="cls-2" d="M210.29,1114c3-2.65,8.7-6.65,15.73-6.41,11.93.4,23.79,12.89,25.9,31.11" transform="translate(-71.05 -973.7)"/>
                        <path class="cls-2" d="M238.34,1143.08" transform="translate(-71.05 -973.7)"/>
                        <path class="cls-2" d="M245.79,1121.16c6.12-9.93,16.61-13.53,24.89-9.21,9.31,4.86,11.33,17.38,11.48,18.42" transform="translate(-71.05 -973.7)"/>
                        <path class="cls-2" d="M275.22,1113.6c8.11-11.22,21.29-17.86,34.58-16.93,17.7,1.23,33,15.7,35.18,34.91" transform="translate(-71.05 -973.7)"/>
                        <path class="cls-2" d="M332.13,1131.79c12.86-4.6,25.11,1.82,28,11.3,2.82,9.08-3.79,18.06-4.38,18.84" transform="translate(-71.05 -973.7)"/>
                        <path class="cls-2" d="M344.4,1163.24a27,27,0,0,1,26.29,7c9.89,10.07,7.23,23.53,7,24.54" transform="translate(-71.05 -973.7)"/>
                        <path class="cls-2" d="M377.38,1181.39a17.93,17.93,0,0,1,20.39.15c7.89,5.42,11.55,16.34,9.82,25.28a21.58,21.58,0,0,1-4.77,9.93" transform="translate(-71.05 -973.7)"/>
                        <path class="cls-2" d="M395.23,1212.33a19.58,19.58,0,0,1,5.26,37.69" transform="translate(-71.05 -973.7)"/>
                        <path class="cls-2" d="M391.78,1240.37c9.94,9.81,12.77,25.39,7.24,37.65-6.37,14.12-22.55,21-37.09,14.86" transform="translate(-71.05 -973.7)"/>
                        <path class="cls-2" d="M384.72,1293c10.2,11.23,7.64,28.15-2.63,35.06-8.86,6-22.69,3.93-30.68-6.14" transform="translate(-71.05 -973.7)"/>
                        <path class="cls-2" d="M360.59,1329.18c-8.18,10.46-21.1,15.91-33.8,14.07-15.15-2.2-27.56-14.42-30.45-30.34" transform="translate(-71.05 -973.7)"/>
                        <path class="cls-2" d="M309.29,1334.6c1.41,9.86-1.29,19.72-8.08,24.59-10.31,7.39-30.47,3.59-41.4-13.77" transform="translate(-71.05 -973.7)"/>
                        <path class="cls-2" d="M261.13,1333.29c1.67,15.73-5.86,27.93-14.9,29.8-5.26,1.08-10.21-1.49-13.15-3.51" transform="translate(-71.05 -973.7)"/>
                        <path class="cls-2" d="M237.46,1363.09c-.55,7.79-5.82,18.83-13.15,21a18.75,18.75,0,0,1-21-7.88" transform="translate(-71.05 -973.7)"/>
                        <path class="cls-2" d="M205.47,1380.18c-1.3,12-8.37,21.92-18.07,25.23-12.46,4.25-27.42-3-34.05-17.89" transform="translate(-71.05 -973.7)"/>
                        <path class="cls-2" d="M169.83,1404.72c2.59,12.47-3.91,22.94-12.28,26.56-10.22,4.42-23.05-9.48-23.52-10" transform="translate(-71.05 -973.7)"/>
                        <path class="cls-2" d="M137.54,1410.42c1.23,10.86-5.7,19.46-13.15,20.16s-12.83-6.57-13.15-7" transform="translate(-71.05 -973.7)"/>
                        <path class="cls-2" d="M114.75,1428c0,1.37-4.31,24.3-19.54,34.21a31.73,31.73,0,0,1-16.92,4.92H72.24" transform="translate(-71.05 -973.7)"/>
                        <path class="cls-2" d="M863.3,1190.41c-17-.5-28,11.12-27.17,20.16.55,6.28,6.85,12.08,14.9,14.9" transform="translate(-71.05 -973.7)"/>
                        <path class="cls-2" d="M835.25,1210.57c-32.43-4.38-53.73,19.82-54.34,35.94-.46,11.8,8.42,20.87,11.39,23.67" transform="translate(-71.05 -973.7)"/>
                        <path class="cls-2" d="M780,1252.65c-21.91,6.13-22.15,28.74-16.66,35.93,4.25,5.55,13.9,7.52,22.79,3.51" transform="translate(-71.05 -973.7)"/>
                        <path class="cls-2" d="M763.37,1267.55c-11-11.59-39.51-8.2-47.33.87-5.79,6.73-6.34,17.87-.87,27.18" transform="translate(-71.05 -973.7)"/>
                        <path class="cls-2" d="M711.66,1290.34c-19.19,4.46-35.1,21.29-34.17,37.24.78,13.48,11.29,25.6,26.66,30.69" transform="translate(-71.05 -973.7)"/>
                        <path class="cls-2" d="M846.5,1193.88c2.1-10.4-2.79-20.11-9.66-22.86-8.49-3.4-21.29,3.31-23.71,17.12" transform="translate(-71.05 -973.7)"/>
                        <path class="cls-2" d="M824.29,1171.13c-.66-6.9-4.94-12.81-10.94-14.9-8.21-2.87-18.8,1.69-22.8,11.39" transform="translate(-71.05 -973.7)"/>
                        <path class="cls-2" d="M798.79,1158c3.2-6.34-2.1-12.6-8.65-13.47-5.35-.72-11.8,2.12-14.06,7.13" transform="translate(-71.05 -973.7)"/>
                        <path class="cls-2" d="M777.4,1164.12a34,34,0,0,0-3.51-20.16c-4.93-9.27-15.29-17.65-28-17.53-11.23.1-18.87,6.74-21,8.76" transform="translate(-71.05 -973.7)"/>
                        <path class="cls-2" d="M740.12,1126.43c4.83-10.69-.82-21.83-9.34-24.4-6.16-1.86-13.78.79-18.68,6.65" transform="translate(-71.05 -973.7)"/>
                        <path class="cls-2" d="M726.12,1100.57c.06-11.89-4.41-17.52-6.09-19.37-9.88-10.84-32.53-10.11-53.07,6.46" transform="translate(-71.05 -973.7)"/>
                        <path class="cls-2" d="M688,1119.85c-1-17.77-13.55-32.46-29.8-35.48-17.61-3.27-35.52,7.92-41.19,26.38" transform="translate(-71.05 -973.7)"/>
                        <path class="cls-2" d="M628.39,1129.06c-2.31-12.19-11.58-19.46-19.28-18.41-6,.81-9.61,6.39-10.52,7.89" transform="translate(-71.05 -973.7)"/>
                        <path class="cls-2" d="M603.85,1111.53c-8.18-8.35-20.18-10.63-28.93-6.14-11.44,5.88-16.5,22.95-7.89,36.81" transform="translate(-71.05 -973.7)"/>
                        <path class="cls-2" d="M570.1,1108c-1.88-9.57-8.63-17.31-17.44-19.77-11.31-3.16-24.3,2.87-29.89,14.83" transform="translate(-71.05 -973.7)"/>
                        <path class="cls-2" d="M529.67,1120.73c1.28-13.83-8.92-23.89-17.78-23.23-6.71.51-13.29,7.2-15,16.45" transform="translate(-71.05 -973.7)"/>
                        <path class="cls-2" d="M507.43,1118.54c-7.5-4.44-15.39-5-18.41-1.76-3.55,3.78-2,14.53,7.89,22.79" transform="translate(-71.05 -973.7)"/>
                        <path class="cls-2" d="M488.15,1127.3c-14.8-5.4-29.24,3.13-31.56,14-1.71,8.05,3.16,17.62,12.27,22.79" transform="translate(-71.05 -973.7)"/>
                        <path class="cls-2" d="M456.15,1149.22c-8-1.45-15.47,3.8-16.21,10.51-.66,6,4.24,12,11.45,13.15" transform="translate(-71.05 -973.7)"/>
                        <path class="cls-2" d="M439.94,1163.42c-14.44-10.37-29.42-8.25-36,2.6-1.25,2-4,7.34-3.89,16.94" transform="translate(-71.05 -973.7)"/>
                        <path class="cls-2" d="M684.93,1343.89c-12.19,8.78-29.42,9.55-41.52,2.28-9.94-6-15.08-16.58-13.39-27.35" transform="translate(-71.05 -973.7)"/>
                        <path class="cls-2" d="M634.09,1339.42c-16.76,6.44-35.6-.94-40.56-13.15-5.1-12.58,5.21-28.62,23.92-31.55" transform="translate(-71.05 -973.7)"/>
                        <path class="cls-2" d="M592.89,1324.08c-1,11.22-8.16,20.49-17.55,23.08-11.49,3.17-24.46-4.16-28.9-17.58" transform="translate(-71.05 -973.7)"/>
                        <path class="cls-2" d="M556.52,1314c-1.15,10.38-9.61,17.78-18.41,17.53-6.63-.18-12.82-4.69-15.78-11.39" transform="translate(-71.05 -973.7)"/>
                        <path class="cls-2" d="M540.24,1282.4c1.1,19.79-12.82,37.32-32.8,42.6-21.85,5.77-49.55-3.47-55.42-21.3-4.79-14.54,7.18-28,9-30" transform="translate(-71.05 -973.7)"/>
                        <path class="cls-2" d="M452.65,1287.07c-7.1,4.23-15.68,3.93-20.34,0-6.17-5.19-6.14-17.27,3.59-24.34" transform="translate(-71.05 -973.7)"/>
                        <path class="cls-2" d="M428.1,1278.17c-5.62,7.28-13.38,9.35-19.4,5.34-5.09-3.39-7.18-10-7.77-12" transform="translate(-71.05 -973.7)"/>
                        <path class="cls-2" d="M490.78,1459.51c-8.17-8.14-11.91-19.26-8.77-28,4.6-12.88,24.11-21.25,43-12.28" transform="translate(-71.05 -973.7)"/>
                        <path class="cls-2" d="M481.13,1434.09a20.73,20.73,0,0,0-16.65-3.51c-9.94,2.36-13.69,11.43-14,12.27" transform="translate(-71.05 -973.7)"/>
                        <path class="cls-2" d="M484.64,1484.05c-2.28-12.37,4.16-24.44,14.9-28.93,9-3.74,19.64-1.67,27.17,5.26" transform="translate(-71.05 -973.7)"/>
                        <path class="cls-2" d="M354.91,1482.29c-19.41-7.94-26.55-30.08-18.4-44.7,6.5-11.66,22.34-17.84,37.69-13.15" transform="translate(-71.05 -973.7)"/>
                        <path class="cls-2" d="M334.75,1460.38c-9.3,8.07-22.13,6.27-27.17-.87-3.58-5.08-3.23-12.88.88-19.29" transform="translate(-71.05 -973.7)"/>
                        <path class="cls-2" d="M635.4,1589.23c1.84-11.72-4.5-22.74-14-26.3-11.69-4.37-26.78,3-30.68,17.54" transform="translate(-71.05 -973.7)"/>
                        <path class="cls-2" d="M596,1568.19c-1-.42-9.76-4.11-15.78,0-6.66,4.56-8.53,17.72,0,28.93" transform="translate(-71.05 -973.7)"/>
                        <path class="cls-2" d="M621.38,1600.63c6-10.87,18.21-14.06,25.42-9.65,4.79,2.94,7.31,9.21,7,15.78" transform="translate(-71.05 -973.7)"/>
                        <path class="cls-2" d="M113.16,1269.58c-.36,2.43-4.09,25.46-21.8,32.54a28.62,28.62,0,0,1-10.36,2H72.24" transform="translate(-71.05 -973.7)"/>
                        <path class="cls-2" d="M102.48,1256.15a19.84,19.84,0,0,0,15.77,14.9c10,1.67,17-5.55,17.53-6.13" transform="translate(-71.05 -973.7)"/>
                        <path class="cls-2" d="M101.14,1295.6c3,11.52,12.74,18.82,22.11,18,8.62-.72,13.78-8,14.61-9.21" transform="translate(-71.05 -973.7)"/>
                        <path class="cls-2" d="M77.93,1151c4.48,9.1,14.79,13.44,23.67,10.52a19.72,19.72,0,0,0,13.15-18.41" transform="translate(-71.05 -973.7)"/>
                        <path class="cls-2" d="M97.4,1163.13c4.93,6.34,4,15-1.87,21.11-7,7.22-17.43,7.41-18.36,7.41H72.24" transform="translate(-71.05 -973.7)"/>
                        <path class="cls-2" d="M939.56,1583.09a14.93,14.93,0,0,0-29.81,1.76" transform="translate(-71.05 -973.7)"/>
                        <path class="cls-2" d="M923.78,1605c-1.13-11-9.06-19.84-19.28-21.92a24.55,24.55,0,0,0-23.67,8.77" transform="translate(-71.05 -973.7)"/>
                        <path class="cls-2" d="M889.59,1584c-.37-.73-6-11.23-17.53-12.27-9.53-.86-19,5.15-22.79,14.9" transform="translate(-71.05 -973.7)"/>
                        <path class="cls-2" d="M1076.86,1352.64c-7-7.91-9-17.86-5-24.35,4.62-7.53,19.32-8.15,22.83-8.15h2.54" transform="translate(-71.05 -973.7)"/>
                        <path class="cls-2" d="M1092.24,1364.75c-.78-1.37-6.72-11.31-18.25-13-10.85-1.56-22.14,4.86-27.4,16" transform="translate(-71.05 -973.7)"/>
                        <path class="cls-2" d="M1084.84,1566.32a14,14,0,0,0-1.21,18.65c4.58,5.84,12.23,6.15,12.9,6.17h.71" transform="translate(-71.05 -973.7)"/>
                        <path class="cls-2" d="M1079.38,1576.52a11.21,11.21,0,0,1-7.73-19.65" transform="translate(-71.05 -973.7)"/>
                        <path class="cls-2" d="M297.94,1604.13c-13.63,1.43-25.43-5.13-28.92-14.9-2.41-6.74-.21-13.16.87-15.78" transform="translate(-71.05 -973.7)"/>
                        <path class="cls-2" d="M267.7,1579.59c-16.63,1.29-30.49-7.12-32.81-17.53-2.28-10.22,7.45-18.45,8.47-19.29" transform="translate(-71.05 -973.7)"/>
                        <path class="cls-2" d="M234.39,1556.81c-7.19,5.29-18.14,5.2-25,0-6.42-4.88-7.63-13.1-2.63-19.29" transform="translate(-71.05 -973.7)"/>
                        <path class="cls-2" d="M203.28,1546.64c-7.45,6.83-17.76,7.5-25.09,1.93-9-6.87-8.68-19.53-8.65-20.26" transform="translate(-71.05 -973.7)"/>
                        <path class="cls-2" d="M180.49,1527.87c-8.78,2.54-17.74-1.51-21-8.76-2.53-5.55-1.46-12.37,2.63-17.53" transform="translate(-71.05 -973.7)"/>
                        <path class="cls-2" d="M178.73,1505.94a18.92,18.92,0,0,1-21.91-17.22c-.45-8,4.86-16.2,13.15-19.13" transform="translate(-71.05 -973.7)"/>
                        <path class="cls-2" d="M198.89,1475.26c-21.78,1.5-39.71-9.24-44.7-26a39.13,39.13,0,0,1-.88-17.35" transform="translate(-71.05 -973.7)"/>
                        <path class="cls-2" d="M90.59,1520.37a18.72,18.72,0,0,0-17.1-28l-1.25,0" transform="translate(-71.05 -973.7)"/>
                        <path class="cls-2" d="M88.89,1500.67c2.67-6.42,8.08-10.84,14.11-11.36,7.79-.66,15.44,5.27,17.88,14.46" transform="translate(-71.05 -973.7)"/>
                        <path class="cls-2" d="M101.6,1647.08c3.65,8.45.69,18-5.64,25.09-8.2,9.13-20.11,9.29-21.75,9.3h-2" transform="translate(-71.05 -973.7)"/>
                        <path class="cls-2" d="M96.34,1632.18c-1.31,8.93,4.84,17.14,13.15,18.41a16.13,16.13,0,0,0,17.53-11.4" transform="translate(-71.05 -973.7)"/>
                        <path class="cls-2" d="M124.39,1646.2c6.61,7.89,17.65,11.73,27.06,8.64,10.54-3.47,17.59-14.11,16.76-25.73" transform="translate(-71.05 -973.7)"/>
                        <path class="cls-2" d="M468.86,1322.77a20.46,20.46,0,0,1-36.81,4.38" transform="translate(-71.05 -973.7)"/>
                        <path class="cls-2" d="M454,1337.23c.24.84,5.66,19,18.41,21.39,10.23,1.89,17.37-7.89,18.41-9.36" transform="translate(-71.05 -973.7)"/>
                        <path class="cls-2" d="M115.62,1738.24c-1.33,13.23-9,24.44-20.16,28.92-8.73,3.52-16.65,3.51-21.91,3.51H72.24" transform="translate(-71.05 -973.7)"/>
                        <path class="cls-2" d="M148.06,1758.4c-12.33,8-25.32,9.37-32.44,3.51a25.25,25.25,0,0,1-5.26-7.89" transform="translate(-71.05 -973.7)"/>
                        <path class="cls-2" d="M154.83,1077.06a67,67,0,0,0-18.74-45.91c-21.71-22.62-51.64-23.61-56.61-23.7H72.24" transform="translate(-71.05 -973.7)"/>
                        <path class="cls-2" d="M1012.31,1021.45c-4.17-12.66-12.28-20.84-21.17-21.25-9.75-.45-18.87,8.52-23.1,22.77" transform="translate(-71.05 -973.7)"/>
                        <path class="cls-2" d="M975.49,1039.19c-.85-2.77-6.49-20.34-19.28-23.67-14.73-3.83-37.12,11.69-43.83,42.07" transform="translate(-71.05 -973.7)"/>
                        <path class="cls-2" d="M924.92,1029.4c-.62-2.12-4.85-15.65-17.54-20.85-15.43-6.32-33.51,3-40.91,15.92a32.9,32.9,0,0,0-4.17,15.15" transform="translate(-71.05 -973.7)"/>
                        <path class="cls-2" d="M874.69,1041.82c-7.6-6.24-18-5.75-23.66,0-4,4.11-5.3,10.57-3.51,16.65" transform="translate(-71.05 -973.7)"/>
                        <path class="cls-2" d="M847.08,1046.86c-17.47-9.31-37.53-4.67-47.22,9.12-10.21,14.52-4.43,32.77-3.86,34.48" transform="translate(-71.05 -973.7)"/>
                        <path class="cls-2" d="M816,1082.14a48.8,48.8,0,0,0-34.19,19.6c-10.46,14-11.3,29.51-11.39,34.3" transform="translate(-71.05 -973.7)"/>
                        <path class="cls-2" d="M1007.05,1030.42c2.47-9,8.79-15.22,15.78-15.78a14.37,14.37,0,0,1,7.88,1.76" transform="translate(-71.05 -973.7)"/>
                        <path class="cls-2" d="M1027.31,1035.54c.48-24.13,14.16-45.31,36.57-54.44a71.06,71.06,0,0,1,28.1-4.89h5.26" transform="translate(-71.05 -973.7)"/>
                        <path class="cls-2" d="M535.48,1201.34c10.74-6.65,23.14-7.46,31.55-1.75a24,24,0,0,1,8.05,9.77c4.68,10.25.61,20-.16,21.78" transform="translate(-71.05 -973.7)"/>
                        <path class="cls-2" d="M573.61,1203.59c1.11-1.09,5.74-5.36,12.34-4.87,9.26.7,14,10.18,14.39,11" transform="translate(-71.05 -973.7)"/>
                        <path class="cls-2" d="M534.6,1212.74c2-10-4.36-18.53-11.39-19.29-4.89-.52-10.13,2.69-13.15,7.89" transform="translate(-71.05 -973.7)"/>
                        <path class="cls-2" d="M657.32,1168c12.49-1.12,21.59,8.33,21,16.66-.41,6.14-6.1,12.12-14,14" transform="translate(-71.05 -973.7)"/>
                        <path class="cls-2" d="M671.78,1196.64c11.57,14.11,28.52,13.74,34.92,5.7,4.53-5.68,4.37-15.95,0-25.1" transform="translate(-71.05 -973.7)"/>
                    </g>
                </g>
            </g>
        </g>
    </g>
</svg>