<svg id="CONTENT" xmlns="http://www.w3.org/2000/svg" viewBox="0 0 481.05 472.4"><defs><style>.cls-1,.cls-7{stroke:#000;stroke-width:5px;}.cls-1,.cls-2,.cls-4,.cls-5,.cls-6,.cls-7{stroke-miterlimit:10;}.cls-2,.cls-3,.cls-4,.cls-5,.cls-6,.cls-7{fill:#fff;}.cls-2,.cls-4,.cls-5,.cls-6{stroke:#fff;}.cls-4{stroke-width:0.75px;}.cls-5{stroke-width:4.7px;}.cls-6{stroke-width:6px;}</style></defs><g id="SMALL"><g id="FIRE_SMALL"><g id="JUNCTION_FIRE_SMALL"><g id="TOP"><path class="cls-1" d="M823,2154.36v-185l-63.3-2.18-224.27-1.26-188.43.51v197.91c5,2.38,14.26,8.14,23.92,6.86,17.16-2.27,22.83-16,32.86-14,10.91,2.2,7.81,19.15,22.18,29.57,16.86,12.23,43.58,5.22,50.94,3.29,18.57-4.88,26.9-13.79,35.73-9,6.88,3.7,4.65,10.62,13.15,16.84,11.3,8.28,26.69,3.88,28.75,3.29,9.36-2.72,11.64-8.18,15.2-8.63,5-.63,9.44,9.21,13.14,14.79,11.86,17.91,38.36,25.06,55.86,23.82,16.58-1.17,30.15-10.22,49.29-23,14.67-9.79,17.64-14.7,27.11-15.61,16.24-1.56,20.76,11.58,37,10.68,13.9-.77,17-10.79,35.32-18.89,10.37-4.6,18.18-9.2,35.48-8Z" transform="translate(-344.45 -1761.42)"/><path class="cls-1" d="M536.92,1916.78c5.16-.53,6.24,7.29,14.38,9.45,9.36,2.48,19.64-4.87,20.53-5.34,4.95-2.63,5.8-6.26,11.09-7.81a20.53,20.53,0,0,1,9-.41c5.78,1,6.79,4.48,10.68,5.34,5.31,1.18,8.62-3.75,16-8.21,12.65-7.63,30.22-9.64,34.5-3.7a7.31,7.31,0,0,1,.82,6.16c-2.13,7-14.82,6.52-16,12.32-.49,2.37,1.19,4.53,2.46,6.16,5.77,7.43,17.25,8.13,27.52,8.63,12.82.62,17.52-1.33,20.13,2.05,3.59,4.66-1,14-1.65,15.2-4,8.1-9.79,9-14,18.49-1.54,3.5-2.44,5.57-1.64,7.8,1.76,4.91,9.68,4.58,21.35,7.8,13.05,3.61,10.92,6.18,25.88,11.09,15.45,5.08,20.75,3.34,25.06,9,5.12,6.77,2.85,16.09,2.46,17.66C742.93,2039.41,733.35,2045,730,2047c-10.21,6-13.73,1.92-30,8.21-6.06,2.35-10.62,4.87-18.9,9.45-11.71,6.48-10.84,7.17-17.66,10.68-7.24,3.73-22.26,11.46-39.84,8.63-5.42-.88-7-3.65-13.14-4.11-3.41-.26-8.16-1-12.33,1.64-3,1.86-2.42,3.3-4.93,4.52-5.55,2.69-13.16-2-15.19-3.29-5.48-3.39-4.82-5.48-9-7s-10.4-1.53-14,2.46c-2,2.25-.86,3.55-2.46,5.76-3.2,4.4-9.55,1.63-30,1.23-3.19-.06-5.52-.05-7.8-1.65-3.8-2.66-3.42-7-5.75-12.73a31.94,31.94,0,0,0-10.68-13.55c-6.76-4.68-11.91-1.52-25.88-2.06-8.32-.32-23.93-.92-35.73-10.68-3.07-2.53-11.72-9.68-11.5-19.3.31-14,19-22.73,20.53-23.42,19.39-8.8,34.42,1.92,41.9-7.39,4.24-5.28,4-14.44.82-20.13-4-7.15-11.07-6-14.37-13.14-2.63-5.73-1.72-14.28,2.87-18.07,5.72-4.73,12.15,2.07,25.88-.41,2.95-.54,13.88-2.88,22.18-11.5C532,1923.88,532.21,1917.26,536.92,1916.78Z" transform="translate(-344.45 -1761.42)"/><path class="cls-1" d="M511.45,2153s-3.61-5.66-8.09-7.95l-.53-.26c-6.58-3.2-8.73-.63-17.25-2.47-10.79-2.32-19.55-8.82-20.95-14.37a5.4,5.4,0,0,0-.41-1.24c-1.8-3.46-7.71-2.72-15.2-3.69-5.62-.73-10.68-1.39-15.61-4.52-5.42-3.45-4.92-6.23-9.86-8.22s-6.54.24-12.32-1.23c-4.51-1.15-11.9-4.63-12.32-9.45-.5-5.67,8.92-10.77,14.37-12.73,2.55-.91,2.9-.66,14.79-2s16.91-2.27,21.77-5.75c2-1.47,4.59-3.35,4.52-5.75-.12-3.71-6.41-7.06-11.91-7.4-2.93-.18-3.14.66-7.81,1.23-4.38.55-9.53,1.19-14.37-.82-5.58-2.3-4.95-5.7-11.09-8.21-4.74-1.94-5.85-.21-9.45-2.06-5.87-3-10.1-11.27-7.81-17.25,1.1-2.85,3.35-4.34,6.17-6.16,5.82-3.75,11.89-5.1,18.48-5.75,12.45-1.23,13.23,1.36,23,0,6.84-.95,16.23-2.26,18.9-8.21,2.3-5.16-2.33-9.51.82-15.61,1.81-3.51,5-5.19,6.78-6.16,9.09-4.86,19.14-.75,21,0a8.48,8.48,0,0,0,3.83-.59l16.27-6.58a8.41,8.41,0,0,1,2.47-.59l14.73-1.25,8.35-1a6.53,6.53,0,0,0,4.76-3c3.45-5.43,6.37-12.55,1.36-13.45L510,1969.29a2.58,2.58,0,0,1-.4,0h0a11.37,11.37,0,0,1-7.14-2.52l-9.58-7.71a8.62,8.62,0,0,0-.87-.62,24.63,24.63,0,0,0-5.56-2.45,5.12,5.12,0,0,0-.56-.15l-23.54-5.38a8.52,8.52,0,0,1-6-6.34l-.89-4a8.52,8.52,0,0,1,3.73-9l4.22-2.69a23.92,23.92,0,0,1,12.1-3.76s17.26,3.28,25.79,1.65a28.79,28.79,0,0,0,4.41-1.23l2.88-1.64a12.07,12.07,0,0,0,3.56-3.06l10.31-12.87a8.52,8.52,0,0,1,7.38-2.48c5.32.8,14.46,1.55,20-1.51l24-15a31.67,31.67,0,0,1,16.43,0c7.35,2.1,9.43,6,14.79,9,12.21,7,19.8-2.75,37.21,0,18.53,2.93,17.78,15.15,35.49,16.43,12.93.94,16.07-5.38,29.57-2.46,8.19,1.77,10.28,4.79,20.54,7.39,8.42,2.14,13.71-1.2,21.77,2.06,6.16,2.48,8,3.66,8.63,5.34,1.3,3.45-1,8-4.11,10.27-4.51,3.2-10.05,1.06-15.2.41-13.34-1.69-16.88,7.58-35.32,13.55-20.78,6.73-24.79-2.28-42.72,5.75-12.8,5.73-12,10.88-22.59,12.73-8.26,1.45-16.14-.39-28.76,2.88-2.8.73-7,2-8.21,5.34a7.14,7.14,0,0,0,.82,6.16c2.87,4.34,10.33,3.85,16.84,3.7,17.37-.41,30.64-.73,42.31,4.52,8.68,3.9,7.62,6.9,16,9.44,8.07,2.45,13.29,1,26.29.41,14.24-.6,21.37-.71,24.23.41,12.53,5,19,18.59,27.11,16.43a12,12,0,0,1,4.11-.82c4.06.12,8.8,3,10.27,7.4,1.86,5.57-2.21,11.73-6.58,14.37-5.4,3.27-9.56.13-18.07,2.06-6.75,1.53-6.13,4.59-13.55,7-6.21,2-11.61,1.8-16,1.64-10.55-.38-13.23-3.06-18.49-1.23-4.74,1.65-10.14,5.75-9.85,9.45.42,5.52,13.81,10.6,25,10.68,5.18,0,8.2-1,13.15.82,1.45.54,9.24,3.42,9.85,9,.58,5.35-5.69,10.25-10.68,11.91-3.36,1.12-4.12.09-9.44.82-1.6.22-14.17,2-14.79,6.57-.41,3,4.51,6.37,8.21,7.81,4.44,1.72,7.72.9,11.92.82a42.78,42.78,0,0,1,18.89,4.52c7.77,4.13,7.93,8.55,16,11.09a37.1,37.1,0,0,0,8.22,1.23c12.56,1.09,15.38-1.54,21.77.41,4.84,1.47,11.74,5.58,11.91,10.68.18,5.46-7.4,10.6-13.56,12.32-7.37,2.06-11.53-1.1-18.48,2-2.39,1.09-3,2.87-7.4,5.75a33.84,33.84,0,0,1-6.57,3.7c-4.84,1.92-5.19,5.35-8.18,5.21a19.7,19.7,0,0,0-11,2.57l-17.81,20.06c-.59,1.45-5.14,3.52-12.54,2.87-31.82-2.8-50.41,28.24-61,30.49-3.45.74-7.37,1.87-12.32,1.65-11.1-.51-19.26-6.31-23-9-7.44-5.42-5.76-7-12.74-12.73-2.17-1.78-20.31-16.26-33.68-10.68-4.82,2-6.27,5.48-10.27,4.93-4.67-.65-8.06-6.13-9.45-10.27-3.09-9.28,3.32-13.5.41-18.9C534.87,2156.08,516.42,2160.73,511.45,2153Z" transform="translate(-344.45 -1761.42)"/><path d="M825.5,1995.76c-9.86,0-27,41.08-44.24,37.79-13-2.48-17.47,18.59-34.5,18.9-15.78.28-7,14-25,14.78-18.31.8-7.05,15.14-37,15.2-5.3,0-9.37,9.44-16,9.45-37.23.06-42.19-3.7-49.11-8.21-1.91-1.24-6-2.32-7-5.67s1.22-6.89,1.56-7.41c4.75-7.2,14.73-3.51,29.07-8.53,12-4.19,9.43-8.3,21.23-12.14,13.38-4.35,17,.84,27.89-4.41,9.21-4.42,9.09-9.25,17.54-10.87,5.69-1.09,8.43.58,16.42-1.41,3.91-1,9.77-2.43,10.21-5.45.55-3.74-7.54-7.56-8.71-8.12-6.62-3.13-8.74-.53-17.28-2.28-10.81-2.21-19.64-8.61-21.1-14.15A4.78,4.78,0,0,0,689,2002c-1.83-3.44-7.73-2.64-15.23-3.53-5.63-.67-10.7-1.27-15.66-4.35-5.45-3.38-5-6.17-9.94-8.11s-6.55.31-12.34-1.1c-4.52-1.1-11.95-4.5-12.42-9.31-.56-5.67,8.8-10.87,14.24-12.89,2.53-.94,2.89-.69,14.76-2.21s16.89-2.45,21.71-6c2-1.48,4.55-3.39,4.45-5.79-.15-3.71-6.48-7-12-7.27-2.93-.15-3.12.69-7.79,1.32-4.37.59-9.51,1.28-14.38-.67-5.6-2.24-5-5.65-11.18-8.1-4.76-1.88-5.85-.14-9.47-2-5.9-2.94-10.21-11.16-8-17.16,1.06-2.87,3.3-4.39,6.1-6.23,5.78-3.81,11.83-5.23,18.42-6,12.43-1.37,13.25,1.22,23-.25,6.83-1,16.2-2.43,18.8-8.41,2.25-5.18-2.42-9.49.66-15.62,1.77-3.53,4.9-5.25,6.71-6.24,9-5,19.14-1,21-.16a8.63,8.63,0,0,0,3.82-.64l16.19-6.75a8.46,8.46,0,0,1,2.47-.62l14.71-1.41,8.34-1.06a6.51,6.51,0,0,0,4.73-3c3.4-5.47,6.23-12.62,1.21-13.46l-28.9-.93a2.85,2.85,0,0,1-.4,0h0a19.31,19.31,0,0,1-9-3.92l-7.78-6.13a8.42,8.42,0,0,0-.87-.6,24.25,24.25,0,0,0-5.59-2.4l-.56-.14-23.6-5.12a8.55,8.55,0,0,1-6-6.29l-.94-4a8.54,8.54,0,0,1,3.64-9.08l4.19-2.74a23.83,23.83,0,0,1,12.06-3.88s17.29,3.08,25.8,1.36a28.8,28.8,0,0,0,4.4-1.27l2.86-1.67a12.14,12.14,0,0,0,3.53-3.1l10.17-13a8.51,8.51,0,0,1,7.35-2.56c5.33.74,14.48,1.39,20-1.73l23.87-15.25a31.75,31.75,0,0,1,16.43-.17c7.37,2,7.6,8.6,12.94,8.6Z" transform="translate(-344.45 -1761.42)"/><path d="M344.5,1775c7,0,10.12-6.24,16.58-8.16a27.33,27.33,0,0,1,15.22.17l22.11,15.23c5.12,3.11,13.6,2.45,18.54,1.7a7.55,7.55,0,0,1,6.81,2.56l9.41,13a11.38,11.38,0,0,0,3.27,3.1l2.65,1.67a25.05,25.05,0,0,0,4.08,1.27c7.89,1.71,23.91-1.39,23.91-1.39a21,21,0,0,1,11.17,3.88l3.89,2.73a8.85,8.85,0,0,1,3.36,9.08l-.87,4a8.28,8.28,0,0,1-5.6,6.29l-21.87,5.14-.53.14a22.09,22.09,0,0,0-5.17,2.41,6.51,6.51,0,0,0-.81.6l-7.22,6.14a17.3,17.3,0,0,1-8.39,3.93h0a2.22,2.22,0,0,1-.37,0l-26.78,1c-4.65.84-2,8,1.11,13.46a6,6,0,0,0,4.38,3l7.73,1,13.63,1.4a7.35,7.35,0,0,1,2.29.62l15,6.74a7.33,7.33,0,0,0,3.54.63c1.74-.78,11.1-4.79,19.48.15a14.24,14.24,0,0,1,6.21,6.23c2.85,6.13-1.48,10.44.6,15.62,2.4,6,11.09,7.38,17.42,8.4,9,1.46,9.79-1.13,21.31.23,6.1.72,11.72,2.13,17.07,5.93,2.59,1.85,4.66,3.36,5.64,6.23,2.06,6-1.94,14.22-7.42,17.17-3.35,1.8-4.36.07-8.77,2-5.72,2.45-5.17,5.85-10.37,8.1-4.51,2-9.27,1.27-13.33.68-4.32-.62-4.5-1.46-7.22-1.31-5.1.28-11,3.57-11.11,7.28-.1,2.4,2.24,4.31,4.12,5.79,4.47,3.53,9.08,4.46,20.11,6s11.33,1.26,13.68,2.2c5,2,13.71,7.21,13.19,12.87-.44,4.81-7.33,8.22-11.52,9.33-5.37,1.41-6.92-.8-11.43,1.11s-4.17,4.72-9.23,8.11c-4.6,3.09-9.29,3.69-14.51,4.37-7,.9-12.42.09-14.12,3.54a5.26,5.26,0,0,0-.4,1.23c-1.36,5.54-9.54,12-19.56,14.17-7.92,1.75-9.88-.85-16,2.29-1.08.55-8.58,4.39-8.08,8.13.41,3,5.84,4.47,9.46,5.44,7.41,2,10,.31,15.21,1.4,7.84,1.61,7.72,6.44,16.26,10.85,10.13,5.24,13.44.05,25.83,4.39,10.94,3.82,8.57,7.94,19.67,12.12,13.29,5,22.53,1.32,26.93,8.51.32.51,2.46,4,1.45,7.4s-4.38,5.67-6.54,5.69c-7,0-1.22-4.18-34.11,6.2-7.8,2.47-14.8-11.49-19.72-11.5-27.73,0-15.89-9.9-32.86-10.68-16.75-.77-23.16,4.38-37.79,4.11-15.78-.29-16.56-21.28-28.75-19.72-16,2.06-32.85-28-41.9-28Z" transform="translate(-344.45 -1761.42)"/><path class="cls-2" d="M812.3,1949.93a7.82,7.82,0,0,1-10.71,7.28c-5.84-2.35-12-5.74-16.25-6.82-8.87-2.21-15.76,2.11-18.73-1.93-1.05-1.42-1.43-3.63-.63-4.58,1.11-1.34,3.83.56,7.6-.14,2.61-.48,4.21-1.92,6.13-3.5,5.81-4.78,9.86-8.11,13.55-9.45,4.68-1.69,5.11,1,12.23,2a7.84,7.84,0,0,1,6.82,7.77Z" transform="translate(-344.45 -1761.42)"/><path class="cls-3" d="M807.38,1808.69a6.15,6.15,0,0,0-10.21-4.62c-2.62,2.29-5.34,4.51-8.19,5.38-3.51,1.06-5.25.32-10.27.11-13-.57-26.87,3.9-27,7.68-.07,1.74,2.79,3.17,4.57,4.06,5.53,2.77,8.64.78,15.62,1.47,8.67.87,11.55,4.69,16.82,4.68a8.33,8.33,0,0,0,3.93-1,26.06,26.06,0,0,1,9.3-2.85,6.13,6.13,0,0,0,5.46-6.12Z" transform="translate(-344.45 -1761.42)"/><path class="cls-4" d="M785.4,1907.09c-6,.08-11.28.21-16.39,3.46-2.5,1.58-3.64,3.07-6.53,4.18-4,1.52-5.5-.1-12.74-.28-7.92-.19-8.94,1.53-14,.15-3.74-1-3.64-2.11-7.43-2.79-4.28-.78-5.81.36-9.86-.72-.79-.21-6.15-1.64-6.2-3.63-.06-2.48,8.09-5.15,15.13-5.91,7.39-.81,9.31,1,15.21.66,9.83-.5,10.14-5.67,20.45-8.44,13.68-3.68,22.55,2.6,22.14,13.28" transform="translate(-344.45 -1761.42)"/><path class="cls-4" d="M659.24,1961.81a35.56,35.56,0,0,1,16.37-5.93c4.14-.36,5.08.39,9.44-.1,8.11-.9,9.91-4,16.37-5.51,8.52-2,20.09.06,22.25,5.92,1.26,3.4-.72,8-3.59,9.9-4.8,3.2-12.77-.55-15.63-1.89-1-.49-1-.53-1.65-.8-4.17-1.65-7.09-.1-13.14,1-7.56,1.33-13.55.75-15.21-1.48a2.63,2.63,0,0,0-.83-.81c-1.72-1-4,.69-6.15,1.3C665.77,1963.84,663.13,1963.92,659.24,1961.81Z" transform="translate(-344.45 -1761.42)"/><path class="cls-4" d="M544.85,1933.88a25.68,25.68,0,0,1,13.51-3.84c4.56.09,7.14,1.58,10.27-.11s2.29-4.28,5.68-6.63c3.58-2.48,9.15-2.78,12.73-.55,2.54,1.58,2.23,3.3,4.56,4.06,2.9,1,4.08-1.47,8.61-1.74.34,0,6.8-.3,9.9,3.6,1.23,1.55.83,2.4,2.08,3.26,2.34,1.61,4.76-.63,7.81.33,2.89.9,5.44,4.37,5,6.93-.7,4.16-9.54,7.4-16.78,5.93-6.06-1.24-6.46-4.85-13.21-6-5.15-.9-5.22,1.15-11.91.54-6.48-.6-7.59-2.63-14-2.73-4.19-.07-4.81.78-8.62.91C556.88,1938,551.55,1937.38,544.85,1933.88Z" transform="translate(-344.45 -1761.42)"/><path class="cls-5" d="M360.45,1899a4.28,4.28,0,0,1,2.28-3.86c1.81-.91,2.36-2.83,3.06-3.62,7-7.86,22.13-8.44,34.81-4.78,9.55,2.76,9.83,7.94,18.94,8.42,5.46.29,7.24-1.47,14.09-.67,6.53.76,14.08,3.43,14,5.9,0,2-5,3.43-5.75,3.64-3.75,1.08-5.17-.06-9.14.72-3.51.69-3.41,1.77-6.88,2.8-4.66,1.38-5.6-.34-12.94-.14-6.71.19-8.11,1.81-11.81.29-2.68-1.11-3.73-2.59-6-4.18-4.89-3.34-1.79-3.26-15.19-3.45-9.83-.13-8.63,2.34-14.63,3.13a4.25,4.25,0,0,1-4.82-4.2Z" transform="translate(-344.45 -1761.42)"/><path class="cls-6" d="M801.05,2046c-4,1-6.12,4.94-7,6-7,7.87-20.47,6.57-33.15,2.9-9.55-2.76-9.84-7.93-18.94-8.42-5.46-.29-7.25,1.47-14.1.67-6.52-.76-14.07-3.42-14-5.9.05-2,5-3.42,5.75-3.63,3.76-1.08,5.18.05,9.15-.73,3.5-.68,3.41-1.77,6.88-2.8,4.65-1.38,5.6.34,12.94.14,6.71-.18,8.1-1.81,11.8-.28,2.68,1.1,3.74,2.59,6.05,4.17,4.89,3.35,1.78,3.27,15.19,3.45,6,.08,7.91-.82,9.86-1.71a6.81,6.81,0,0,1,9.64,6.15Z" transform="translate(-344.45 -1761.42)"/><path class="cls-7" d="M425.24,1938.16a31.26,31.26,0,0,0-15.16-5.92c-3.84-.36-4.71.39-8.75-.09-7.52-.89-9.19-4-15.17-5.5-7.89-2-18.62.08-20.62,5.94-1.17,3.4.66,8,3.32,9.89,4.44,3.2,11.83-.56,14.48-1.9,1-.48.89-.53,1.53-.8,3.87-1.65,6.57-.11,12.18,1,7,1.32,13,3,14.5.72a4.64,4.64,0,0,1,1-1,5.55,5.55,0,0,1,5.06-.73C419.19,1940.19,421.63,1940.27,425.24,1938.16Z" transform="translate(-344.45 -1761.42)"/><path class="cls-7" d="M432.29,1999.8c-5.22-3.25-9.49-3.89-12.52-3.83-4.23.09-6.62,1.59-9.52-.1s-2.11-4.29-5.25-6.63c-3.32-2.47-8.48-2.77-11.8-.54-2.35,1.59-2.07,3.3-4.23,4.07-2.69,1-3.78-1.47-8-1.73-.32,0-6.31-.31-9.18,3.6-1.15,1.56-.78,2.4-1.94,3.26-2.16,1.61-4.4-.62-7.23.33-2.68.91-5,4.38-4.65,6.94.65,4.16,8.84,7.4,15.55,5.92,5.61-1.24,6-4.85,12.24-6,4.78-.9,4.84,1.14,11,.52,6-.59,7-2.62,13-2.73,3.88-.07,4.45.78,8,.91C421.14,2003.88,426.08,2003.31,432.29,1999.8Z" transform="translate(-344.45 -1761.42)"/><path class="cls-7" d="M666.83,2091c-5.22-3.25-9.49-3.9-12.52-3.83-4.23.09-6.62,1.58-9.52-.1s-2.11-4.29-5.25-6.63c-3.32-2.47-8.48-2.77-11.8-.54-2.35,1.59-2.07,3.3-4.23,4.06-2.69,1-3.78-1.47-8-1.73-.31,0-6.3-.3-9.17,3.6-1.15,1.56-.78,2.41-1.94,3.27-2.16,1.61-4.4-.63-7.23.33s-5,4.38-4.65,6.93c.65,4.17,8.84,7.4,15.55,5.92,5.61-1.24,6-4.85,12.24-6,4.78-.9,4.84,1.15,11,.53,6-.6,7-2.63,13-2.73,3.88-.07,4.45.78,8,.9C655.68,2095.06,660.62,2094.49,666.83,2091Z" transform="translate(-344.45 -1761.42)"/><path class="cls-7" d="M363.17,2043.7c.89-5.06,13.7-6.4,19.31-7,6.83-.71,12.06-1.18,15.2,2,2.24,2.32,2,5,4.92,6.57,1.93,1,3,.33,7,.42,2.88.06,7.51.16,11.5,2.46,1.17.68,6.22,3.59,6.16,7.8-.06,4-4.72,7.67-9,8.22-4.77.61-6-3-14.37-5.75a35.66,35.66,0,0,0-14.79-2.06c-6.47.6-8.06,2.88-12.32,1.65-3.25-.94-5.35-3.14-8.22-6.16C364.79,2048,362.79,2045.9,363.17,2043.7Z" transform="translate(-344.45 -1761.42)"/><path class="cls-7" d="M351.67,1808.75c.89-5.06,13.7-6.4,19.31-7,6.83-.71,12.06-1.19,15.19,2,2.25,2.32,2,5,4.93,6.57,1.93,1,3,.33,7,.41,2.88.07,7.51.17,11.5,2.47,1.17.68,6.22,3.59,6.16,7.8-.06,4-4.72,7.67-9,8.22-4.77.61-6-3-14.37-5.75a35.66,35.66,0,0,0-14.79-2.06c-6.47.6-8.06,2.88-12.32,1.65-3.26-.94-5.35-3.14-8.22-6.16C353.29,1813.05,351.29,1811,351.67,1808.75Z" transform="translate(-344.45 -1761.42)"/><path class="cls-7" d="M513.51,2110.24c.88-5.06,13.69-6.4,19.3-7,6.84-.71,12.06-1.18,15.2,2,2.25,2.32,2,5.06,4.93,6.58,1.93,1,3,.32,7,.41,2.89.06,7.51.16,11.5,2.46,1.18.68,6.23,3.59,6.16,7.81-.05,4-4.72,7.66-9,8.21-4.78.61-6-3-14.38-5.75a35.63,35.63,0,0,0-14.79-2.05c-6.46.59-8,2.88-12.32,1.64-3.25-.94-5.34-3.14-8.21-6.16C515.12,2114.54,513.12,2112.44,513.51,2110.24Z" transform="translate(-344.45 -1761.42)"/><path class="cls-7" d="M427.25,2134.89c.88-5.07,13.7-6.4,19.3-7,6.84-.72,12.07-1.19,15.2,2.05,2.25,2.32,2,5.05,4.93,6.57,1.93,1,3,.33,7,.41,2.89.07,7.52.17,11.51,2.47,1.17.67,6.22,3.58,6.16,7.8-.06,4-4.72,7.67-9,8.22-4.77.6-6-3-14.38-5.75a35.57,35.57,0,0,0-14.78-2.06c-6.47.6-8.06,2.88-12.33,1.65-3.25-.95-5.34-3.15-8.21-6.17C428.86,2139.19,426.87,2137.09,427.25,2134.89Z" transform="translate(-344.45 -1761.42)"/><path class="cls-7" d="M540.21,1994c.56-1.58,3.29-.57,8.62-3.29,3.61-1.84,3.79-3,7-4.1,1.47-.5,4.71-1.59,7.81-.41s3,3.6,5.75,5.75c2.33,1.84,4.32,1.56,17.66,1.23,7-.17,10.22-.19,14.38.82a21.52,21.52,0,0,1,7.39,3.29c1.9,1.32,5,4,4.52,4.93-.65,1.21-6.16-2.71-13.55-2.06-6.4.56-7.92,4-14.38,5.75-5.78,1.57-6.38-1-17.25-1.23-9.32-.21-10.3,1.35-15.2,0C545.38,2002.6,539.29,1996.58,540.21,1994Z" transform="translate(-344.45 -1761.42)"/><path class="cls-7" d="M745.58,2135.3c2.38-2.57,5.18-3.58,7.81-4.52a33.42,33.42,0,0,1,12.32-1.64c9.33.27,11.21,3.19,14.79,1.23,3.74-2,3.25-6.1,7.39-7.39,3-.95,4.56.81,6.57-.41,3.6-2.19,1.7-9.62,2.88-9.86,1.48-.31,8.47,10.61,4.52,18.48-3.52,7-13.94,8.14-18.49,8.63-8.54.92-10.43-1.93-15.61.41-5.91,2.67-5.4,7.28-11.91,10.27-3.68,1.69-10.19,3.13-13.14,0C739.47,2147.06,741.77,2139.41,745.58,2135.3Z" transform="translate(-344.45 -1761.42)"/><path class="cls-7" d="M468.32,2067.11c1.09-4.15,8.57-5.27,9-5.34a15.06,15.06,0,0,1,9,1.65c4.28,2.37,3.83,5.18,7.39,6.16,2.66.73,3.25-.74,7.81,0,3.45.56,4.91,1.69,5.34,2.05,1.55,1.3,1.25,2.08,2.46,2.88,2.92,1.92,7.07-1.06,7.8,0,.61.87-1.3,4.22-4.51,5.75-1.88.89-3.63.89-11.51-.41s-7.49-1.52-9.85-1.65c-6.61-.34-7.51,1.57-11.5.83C473.51,2077.85,467.18,2071.5,468.32,2067.11Z" transform="translate(-344.45 -1761.42)"/><path class="cls-7" d="M486.4,2063.42c4.28,2.37,3.83,5.18,7.39,6.16" transform="translate(-344.45 -1761.42)"/><path class="cls-7" d="M415.75,1972.23c.19-3.78,14.1-8.1,27.11-7.39,5,.27,6.74,1,10.27,0,6.72-2,6.76-7.33,12.73-11.5,9.82-6.86,23.68-2.68,27.11-1.65,8.49,2.56,7.36,6.7,14.79,8.22,9.18,1.87,16.1-2.66,19.3,1.23,1.13,1.37,1.6,3.54.82,4.52-1.08,1.36-4-.42-7.8.41-2.66.57-4.25,2.06-6.16,3.7-5.78,4.94-9.82,8.4-13.56,9.85-5.94,2.32-6.75-2.12-20.53-2.46-10.13-.25-16.34,2-17.67,2.46-4.2,1.56-3.8,2.25-6.57,2.88-7.42,1.69-9.58-3.4-19.71-4.52-7-.77-10.11,1.18-15.61-1.64C418.5,1975.43,415.66,1974,415.75,1972.23Z" transform="translate(-344.45 -1761.42)"/><path class="cls-7" d="M527.47,2058.9c0-2.48,8.15-5.06,15.2-5.75,7.4-.73,9.3,1,15.2.82,9.83-.39,10.2-5.55,20.54-8.21,13.72-3.53,27.48,1.86,37.37,5.75,1,.4,3.52,2.28,7.4,3.28,4.54,1.18,6.36-.55,10.68.41,4.11.92,8.49,3.62,8.21,5.34-.45,2.83-13.31,2.88-14,2.88-12.73,0-14.73-4.14-27.52-4.11-6,0-11.29.09-16.43,3.29-2.51,1.55-3.67,3-6.58,4.1-4,1.49-5.49-.15-12.73-.41-7.92-.28-9,1.43-14,0-3.73-1.06-3.62-2.15-7.4-2.87-4.27-.82-5.81.3-9.86-.82C532.85,2062.38,527.5,2060.89,527.47,2058.9Z" transform="translate(-344.45 -1761.42)"/><path class="cls-7" d="M744.35,1988.66c.08-.55,3.61.14,7.39-2.05a16.24,16.24,0,0,0,2.12-1.45c1.39-1.26,1.72-2.4,3.63-3.48,6.21-3.5,16.28.42,19.72,4.52a4.51,4.51,0,0,0,.82.82c2.56,1.82,6-1,11.5-1.65,3.42-.43,7.87-.09,8.22,1.24s-4.06,3.83-6.57,4.93c-1.54.66-10.64,4.46-19.72.41-.89-.4-.9-.53-1.64-.82-4.49-1.79-8,.24-12.33.82C750.35,1992.9,744.25,1989.41,744.35,1988.66Z" transform="translate(-344.45 -1761.42)"/><path class="cls-7" d="M439.57,2026.86a35.41,35.41,0,0,1,16.43-5.75c4.15-.32,5.08.44,9.45,0,8.12-.81,9.95-3.92,16.43-5.34,8.53-1.87,20.08.28,22.18,6.16,1.22,3.42-.8,8-3.7,9.86-4.83,3.15-12.76-.68-15.61-2-1-.5-.95-.54-1.64-.83-4.15-1.69-7.09-.17-13.14.83-7.58,1.24-13.8,2.93-15.44.67-.13-.18-.53-1.72-1-2-1.7-1-3.82.42-6,1C445.83,2029.87,443.44,2029,439.57,2026.86Z" transform="translate(-344.45 -1761.42)"/><path class="cls-7" d="M634.27,2026.86a35.41,35.41,0,0,1,16.43-5.75c4.14-.32,5.08.44,9.45,0,8.11-.81,10-3.92,16.43-5.34,8.53-1.87,20.08.28,22.18,6.16,1.22,3.42-.81,8-3.7,9.86-4.83,3.15-12.77-.68-15.61-2-1-.5-1-.54-1.64-.83-4.15-1.69-7.09-.17-13.15.83-7.57,1.24-13,1.31-15.21-.33a11.42,11.42,0,0,0-2-1c-1.71-1-2.83.42-5,1C640.75,2029.87,638.14,2029,634.27,2026.86Z" transform="translate(-344.45 -1761.42)"/><path class="cls-7" d="M369.33,2094.22a25.65,25.65,0,0,1,13.56-3.69c4.56.13,7.12,1.65,10.27,0s2.33-4.27,5.75-6.57c3.6-2.44,9.18-2.68,12.73-.42,2.52,1.62,2.2,3.33,4.52,4.11,2.89,1,4.09-1.43,8.62-1.64.35,0,6.81-.24,9.86,3.7,1.22,1.57.82,2.41,2.06,3.28,2.31,1.64,4.76-.58,7.8.41,2.88.94,5.39,4.43,4.93,7-.74,4.15-9.62,7.3-16.84,5.75-6-1.3-6.4-4.92-13.15-6.17-5.14-.95-5.22,1.1-11.91.42-6.47-.67-7.56-2.71-14-2.88-4.19-.11-4.82.73-8.63.82C381.32,2098.42,376,2097.79,369.33,2094.22Z" transform="translate(-344.45 -1761.42)"/><path class="cls-7" d="M788.86,2085.54a25.72,25.72,0,0,1-13,5.38c-4.54.44-7.28-.75-10.19,1.29s-1.77,4.53-4.87,7.25c-3.27,2.87-8.77,3.81-12.58,2-2.71-1.28-2.6-3-5-3.5-3-.61-3.88,1.93-8.35,2.71-.34.06-6.72,1.1-10.25-2.42-1.41-1.4-1.11-2.29-2.45-3-2.5-1.33-4.65,1.18-7.79.58-3-.57-5.9-3.72-5.77-6.31.21-4.22,8.62-8.46,16-7.83,6.15.53,7,4.07,13.81,4.46,5.22.29,5.05-1.75,11.77-1.91,6.5-.16,7.84,1.73,14.22,1.09,4.16-.42,4.68-1.34,8.45-1.91C776.44,2082.89,781.8,2082.84,788.86,2085.54Z" transform="translate(-344.45 -1761.42)"/><path class="cls-7" d="M576.74,2164.91c-.11,4.19,13.42,10.69,26.29,9.86,6-.38,8.46-2.15,12.74-.41,6.09,2.47,5.23,7.7,11.91,11.91s14.51,3.24,17.25,2.88a30.08,30.08,0,0,0,13.55-5.34c6.53-4.7,5.26-8,10.27-10.68,6.49-3.49,10.93.79,19.31-1.23,7.78-1.88,7.74-9.41,14.79-10.27,4.75-.58,7.81,1.92,9,.41,1.41-1.74-.73-7.37-4.93-10.27-5.71-3.95-10.06.78-21-2.05-6-1.58-6.11-3.4-11.91-4.11-5.57-.69-7.11.79-12.32-.41-5.83-1.35-6-3.69-9.86-3.7-5.48,0-6.1,4.69-12.32,6.16-7.11,1.68-9.42-3.73-16.43-2-5.31,1.27-5,4.62-11.91,7.8-5.38,2.48-7.5,1.35-15.2,2.88C594.49,2156.6,576.88,2160.19,576.74,2164.91Z" transform="translate(-344.45 -1761.42)"/></g></g></g></g></svg>