<svg id="CONTENT"
    xmlns="http://www.w3.org/2000/svg" viewBox="0 0 1025 1001">
    <defs>
        <style>.cls-1,.cls-7{stroke:#000;stroke-width:5px;}.cls-1,.cls-2,.cls-4,.cls-5,.cls-6,.cls-7{stroke-miterlimit:10;}.cls-2,.cls-3,.cls-4,.cls-5,.cls-6,.cls-7{fill:#fff;}.cls-2,.cls-4,.cls-5,.cls-6{stroke:#fff;}.cls-4{stroke-width:0.75px;}.cls-5{stroke-width:4.7px;}.cls-6{stroke-width:6px;}</style>
    </defs>
    <g id="NEW_MEDIUM" data-name="NEW MEDIUM">
        <g id="FIRE_MEDIUM">
            <g id="JUNCTION_FIRE_SMALL">
                <g id="TOP">
                    <path d="M1097.42,2468.43V2074.36l-140.17-4.63L479.49,2067l-406.83,1.08v421.61c10.74,5.06,35.82,17.33,56.39,14.61,36.55-4.85,48.63-34.08,70-29.75,23.24,4.7,16.63,40.79,47.25,63,35.91,26,92.84,11.11,108.5,7,39.58-10.38,57.31-29.36,76.13-19.25,14.66,7.87,9.91,22.62,28,35.87,24.08,17.64,56.88,8.27,61.25,7,19.94-5.79,24.8-17.43,32.38-18.37,10.75-1.34,20.12,19.61,28,31.5,25.26,38.14,81.7,53.38,119,50.75,35.32-2.5,64.21-21.78,105-49,31.25-20.86,37.57-31.31,57.75-33.25,34.59-3.33,44.22,24.66,78.75,22.75,29.61-1.64,36.31-23,75.25-40.25,22.08-9.79,44.26-19.59,81.11-17.06Z" transform="translate(-72.66 -1631.38)"/>
                    <path class="cls-1" d="M482.67,1962.33c11-1.12,13.3,15.53,30.63,20.12,19.93,5.29,41.85-10.36,43.75-11.37,10.54-5.59,12.34-13.33,23.62-16.63a43.47,43.47,0,0,1,19.25-.87c12.31,2.17,14.47,9.53,22.75,11.37,11.31,2.52,18.36-8,34.13-17.5,27-16.25,64.37-20.53,73.5-7.87,2.81,3.89,2.9,9.34,1.75,13.12-4.56,15-31.58,13.9-34.13,26.25-1,5,2.55,9.65,5.25,13.13,12.3,15.81,36.75,17.31,58.63,18.37,27.3,1.33,37.32-2.82,42.87,4.38,7.66,9.93-2.18,29.73-3.5,32.37-8.58,17.26-20.86,19.09-29.75,39.38-3.27,7.47-5.2,11.88-3.5,16.63,3.76,10.46,20.64,9.75,45.5,16.62,27.8,7.68,23.25,13.15,55.13,23.63,32.9,10.81,44.19,7.11,53.37,19.25,10.9,14.4,6.07,34.26,5.25,37.62-5.65,23.24-26,35.17-33.25,39.38-21.76,12.72-29.26,4.09-63.87,17.5-12.92,5-22.62,10.37-40.25,20.12-24.95,13.8-23.11,15.28-37.63,22.75-15.43,8-47.43,24.42-84.87,18.38-11.55-1.87-14.86-7.76-28-8.75-7.26-.55-17.38-2-26.25,3.5-6.35,4-5.15,7-10.5,9.62-11.83,5.73-28-4.31-32.38-7-11.67-7.23-10.26-11.68-19.25-14.87-8.66-3.08-22.14-3.27-29.75,5.25-4.27,4.78-1.83,7.55-5.25,12.25-6.82,9.37-20.35,3.48-63.87,2.62-6.81-.13-11.78-.09-16.63-3.5-8.09-5.68-7.28-14.94-12.25-27.12a68.06,68.06,0,0,0-22.75-28.88c-14.4-10-25.37-3.22-55.12-4.37-17.74-.69-51-2-76.13-22.75-6.52-5.39-25-20.62-24.5-41.13.67-29.72,40.55-48.42,43.75-49.87,41.3-18.75,73.32,4.07,89.25-15.75,9-11.25,8.52-30.77,1.75-42.88-8.53-15.24-23.59-12.69-30.62-28-5.61-12.2-3.67-30.42,6.12-38.5,12.19-10.06,25.88,4.41,55.13-.88,6.28-1.13,29.56-6.13,47.25-24.5C472.22,1977.46,472.64,1963.35,482.67,1962.33Z" transform="translate(-72.66 -1631.38)"/>
                    <path class="cls-1" d="M428.42,2465.46s-7.7-12.06-17.24-16.94c-.56-.29-1.13-.56-1.13-.56-14-6.82-18.6-1.34-36.75-5.25-23-5-41.64-18.8-44.63-30.63a10.37,10.37,0,0,0-.87-2.62c-3.83-7.39-16.41-5.8-32.38-7.88-12-1.55-22.76-2.95-33.25-9.62-11.54-7.34-10.48-13.26-21-17.5-10.34-4.17-13.95.51-26.25-2.63-9.6-2.45-25.36-9.87-26.25-20.12-1.06-12.09,19-23,30.62-27.13,5.43-1.95,6.18-1.41,31.5-4.37s36-4.83,46.38-12.25c4.35-3.12,9.79-7.12,9.62-12.25-.24-7.91-13.65-15-25.37-15.75-6.25-.38-6.67,1.39-16.63,2.62-9.33,1.16-20.3,2.52-30.62-1.75-11.88-4.91-10.53-12.15-23.63-17.5-10.09-4.12-12.46-.45-20.12-4.37-12.51-6.41-21.51-24-16.63-36.75,2.33-6.08,7.13-9.26,13.13-13.13,12.4-8,25.33-10.86,39.37-12.25,26.53-2.62,28.2,2.89,49,0,14.57-2,34.57-4.81,40.26-17.5,4.91-11-5-20.26,1.75-33.25,3.85-7.48,10.56-11.06,14.43-13.12,19.38-10.35,40.79-1.59,44.78.12a18.15,18.15,0,0,0,8.15-1.27l34.66-14a18,18,0,0,1,5.27-1.25l31.37-2.67,17.78-2.06a13.89,13.89,0,0,0,10.14-6.33c7.36-11.57,13.56-26.74,2.9-28.64l-61.55-2.65a8,8,0,0,1-.84-.08h0a24.28,24.28,0,0,1-15.22-5.37l-20.41-16.43a15.86,15.86,0,0,0-1.85-1.31,51.75,51.75,0,0,0-11.84-5.23c-.39-.12-.79-.22-1.19-.31L323.73,2034A18.16,18.16,0,0,1,311,2020.48l-1.91-8.55a18.19,18.19,0,0,1,8-19.26l9-5.74a50.91,50.91,0,0,1,25.77-8s36.77,7,54.94,3.5a64.09,64.09,0,0,0,9.4-2.61l6.13-3.5a25.7,25.7,0,0,0,7.59-6.52l22-27.42a18.16,18.16,0,0,1,15.71-5.29c11.34,1.71,30.82,3.31,42.67-3.21q25.6-16,51.19-31.94c8.81-2.19,21.4-3.88,35,0,15.66,4.47,20.09,12.75,31.5,19.25,26,14.83,42.18-5.85,79.29,0,39.47,6.24,37.86,32.28,75.59,35,27.54,2,34.24-11.46,63-5.25,17.43,3.77,21.9,10.21,43.75,15.75,17.93,4.56,29.21-2.55,46.37,4.38,13.12,5.29,17,7.81,18.38,11.37,2.77,7.37-2.06,17.12-8.75,21.88-9.6,6.83-21.42,2.26-32.38.87-28.41-3.59-36,16.16-75.25,28.88-44.26,14.34-52.8-4.86-91,12.25-27.26,12.21-25.56,23.18-48.12,27.13-17.59,3.07-34.38-.84-61.25,6.12-6,1.55-14.86,4.25-17.5,11.38a15.21,15.21,0,0,0,1.75,13.12c6.11,9.24,22,8.2,35.87,7.88,37-.88,65.27-1.55,90.13,9.62,18.49,8.31,16.24,14.7,34.12,20.13,17.2,5.21,28.32,2.05,56,.87,30.35-1.29,45.54-1.53,51.63.88,26.68,10.53,40.37,39.59,57.75,35,2.4-.64,4.7-1.87,8.75-1.75,8.65.24,18.76,6.43,21.87,15.75,4,11.87-4.69,25-14,30.62-11.5,7-20.37.27-38.5,4.38-14.37,3.26-13,9.79-28.87,14.87-13.22,4.25-24.73,3.84-34.13,3.5-22.46-.81-28.18-6.52-39.37-2.62-10.11,3.52-21.6,12.23-21,20.12.89,11.76,29.42,22.59,53.37,22.75,11,.08,17.46-2.14,28,1.75,3.11,1.15,19.71,7.28,21,19.25,1.24,11.41-12.12,21.84-22.75,25.38-7.16,2.38-8.78.2-20.12,1.75-3.41.46-30.17,4.32-31.5,14-.88,6.4,9.6,13.56,17.5,16.62,9.45,3.67,16.43,1.93,25.37,1.75,4.86-.09,23.66.8,40.25,9.63s16.9,18.23,34.13,23.62c4.89,1.53,9.09,1.9,17.5,2.63,26.77,2.32,32.78-3.27,46.37.87,10.32,3.14,25,11.89,25.38,22.75.39,11.64-15.76,22.58-28.88,26.25-15.71,4.4-24.56-2.35-39.37,4.38-5.1,2.31-6.4,6.1-15.75,12.25-5.47,3.59-9,5.88-14,7.87-10.32,4.1-11.07,11.4-17.44,11.11a41.82,41.82,0,0,0-23.45,5.47l-37.94,42.72c-1.25,3.1-10.94,7.5-26.71,6.11-67.79-6-107.38,60.16-129.84,65-7.36,1.57-15.69,4-26.25,3.5-23.63-1.08-41-13.44-49-19.25-15.84-11.55-12.25-15-27.12-27.13-4.63-3.77-43.27-34.63-71.75-22.75-10.26,4.28-13.37,11.67-21.88,10.5-9.95-1.36-17.18-13-20.12-21.87-6.6-19.76,7.06-28.76.87-40.25C478.31,2472.11,439,2482,428.42,2465.46Z" transform="translate(-72.66 -1631.38)"/>
                    <path d="M1097.42,2130.58c-21,0-57.48,87.5-94.23,80.5-27.73-5.28-37.23,39.6-73.5,40.25-33.62.61-14.86,29.83-53.38,31.5-39,1.7-15,32.26-78.75,32.38-11.29,0-19.95,20.1-34.13,20.12-79.29.14-89.86-7.88-104.61-17.47-4.06-2.64-12.71-5-15-12.09s2.6-14.68,3.33-15.79c10.13-15.32,31.38-7.47,61.94-18.17,25.52-8.93,20.07-17.69,45.22-25.86,28.51-9.26,36.1,1.79,59.41-9.39,19.62-9.41,19.36-19.7,37.38-23.15,12.1-2.32,17.94,1.23,35-3,8.33-2.08,20.81-5.18,21.75-11.61,1.16-8-16.07-16.13-18.57-17.3-14.09-6.67-18.61-1.14-36.8-4.86-23-4.71-41.83-18.35-45-30.14a10.6,10.6,0,0,0-.9-2.62c-3.91-7.34-16.47-5.62-32.46-7.52-12-1.43-22.79-2.71-33.35-9.27-11.63-7.22-10.63-13.15-21.19-17.28-10.38-4-13.94.67-26.28-2.34-9.63-2.34-25.46-9.6-26.46-19.84-1.19-12.07,18.75-23.16,30.33-27.45,5.4-2,6.16-1.48,31.45-4.72s36-5.21,46.24-12.74c4.32-3.17,9.71-7.23,9.49-12.36-.33-7.9-13.82-14.89-25.54-15.47-6.25-.32-6.66,1.46-16.59,2.8-9.32,1.26-20.28,2.74-30.65-1.42-11.93-4.78-10.66-12-23.81-17.25-10.14-4-12.46-.31-20.17-4.15-12.57-6.27-21.76-23.78-17-36.57,2.26-6.1,7-9.34,13-13.27,12.32-8.12,25.22-11.13,39.25-12.67,26.49-2.91,28.22,2.59,49-.53,14.55-2.18,34.52-5.18,40.06-17.93,4.8-11-5.17-20.2,1.4-33.27,3.77-7.52,10.44-11.17,14.29-13.28,19.27-10.55,40.77-2,44.78-.35a18.24,18.24,0,0,0,8.13-1.36L895,1851.25a18.07,18.07,0,0,1,5.25-1.31l31.34-3,17.77-2.25a13.9,13.9,0,0,0,10.07-6.43c7.23-11.66,13.27-26.89,2.58-28.67l-61.57-2a6,6,0,0,1-.84-.08h0a41.11,41.11,0,0,1-19.28-8.36l-16.58-13.05a15.81,15.81,0,0,0-1.86-1.29A52.56,52.56,0,0,0,850,1779.7c-.4-.11-.8-.21-1.2-.29l-50.28-10.92a18.15,18.15,0,0,1-12.85-13.38l-2-8.54a18.17,18.17,0,0,1,7.75-19.33l8.93-5.84a50.89,50.89,0,0,1,25.69-8.27s36.83,6.57,55,2.91a64,64,0,0,0,9.37-2.71l6.09-3.57a25.53,25.53,0,0,0,7.52-6.6l21.66-27.65a18.15,18.15,0,0,1,15.66-5.46c11.35,1.59,30.85,3,42.63-3.67l50.84-32.48c8.79-2.29,21.36-4.12,35-.38,15.71,4.3,16.2,18.33,27.57,18.33Z" transform="translate(-72.66 -1631.38)"/>
                    <path d="M72.76,1660.31c14.88,0,21.56-13.3,35.32-17.38,12.64-3.75,24.29-1.93,32.43.35l47.09,32.44c10.92,6.64,29,5.24,39.51,3.64a16.09,16.09,0,0,1,14.51,5.44l20,27.64a24.39,24.39,0,0,0,7,6.59l5.64,3.57a54.83,54.83,0,0,0,8.68,2.69c16.81,3.66,50.95-3,50.95-3a44.87,44.87,0,0,1,23.8,8.25l8.27,5.84a18.83,18.83,0,0,1,7.16,19.33l-1.85,8.53a17.67,17.67,0,0,1-11.93,13.39l-46.6,11c-.37.09-.74.18-1.11.3a46.5,46.5,0,0,0-11,5.11,16.53,16.53,0,0,0-1.73,1.29l-15.37,13.07a36.94,36.94,0,0,1-17.88,8.38h0a6.85,6.85,0,0,1-.78.07l-57.06,2c-9.9,1.79-4.32,17,2.37,28.67a12.82,12.82,0,0,0,9.33,6.42l16.46,2.24,29,3a15.64,15.64,0,0,1,4.87,1.31l32,14.36a15.69,15.69,0,0,0,7.54,1.35c3.71-1.67,23.64-10.21,41.49.32,3.57,2.11,9.74,5.75,13.24,13.27,6.07,13.06-3.17,22.25,1.26,33.27,5.13,12.75,23.63,15.73,37.11,17.9,19.25,3.1,20.86-2.4,45.41.49,13,1.52,24.95,4.53,36.35,12.64,5.52,3.92,9.94,7.15,12,13.25,4.38,12.79-4.15,30.31-15.8,36.58-7.15,3.85-9.3.16-18.7,4.18-12.19,5.21-11,12.47-22.08,17.26-9.61,4.17-19.76,2.7-28.4,1.45-9.21-1.34-9.59-3.11-15.38-2.79-10.86.59-23.37,7.59-23.68,15.49-.2,5.13,4.79,9.19,8.79,12.35,9.51,7.52,19.33,9.49,42.84,12.71s24.13,2.69,29.14,4.69c10.73,4.29,29.2,15.35,28.09,27.43-.94,10.24-15.62,17.51-24.54,19.86-11.44,3-14.73-1.7-24.35,2.36-9.8,4.14-8.88,10.07-19.65,17.29-9.8,6.57-19.8,7.86-30.92,9.3-14.81,1.91-26.46.2-30.08,7.55a11.08,11.08,0,0,0-.84,2.61c-2.9,11.8-20.34,25.46-41.68,30.18-16.86,3.74-21-1.79-34.11,4.89-2.31,1.18-18.29,9.35-17.22,17.31.87,6.44,12.43,9.53,20.15,11.6,15.77,4.22,21.19.66,32.4,3,16.69,3.44,16.45,13.73,34.63,23.12,21.59,11.16,28.63.11,55,9.34,23.3,8.16,18.25,16.92,41.89,25.83,28.31,10.67,48,2.8,57.38,18.12.68,1.1,5.23,8.55,3.07,15.78s-9.31,12.07-13.91,12.1c-14.92.11-2.6-8.9-72.68,13.23-16.62,5.25-31.53-24.49-42-24.5-59.08-.07-33.85-21.09-70-22.75-35.69-1.64-49.34,9.33-80.5,8.75-33.62-.62-35.28-45.33-61.25-42-34.12,4.38-70-59.59-89.26-59.59Z" transform="translate(-72.66 -1631.38)"/>
                    <path class="cls-2" d="M1069.3,2033a16.66,16.66,0,0,1-22.81,15.5c-12.44-5-25.48-12.22-34.63-14.51-18.88-4.72-33.56,4.47-39.9-4.13-2.22-3-3-7.72-1.34-9.76,2.36-2.84,8.17,1.2,16.2-.28,5.56-1,9-4.1,13.06-7.47,12.36-10.17,21-17.28,28.86-20.12,10-3.6,10.89,2.22,26,4.24a16.69,16.69,0,0,1,14.53,16.54Z" transform="translate(-72.66 -1631.38)"/>
                    <path class="cls-3" d="M1058.83,1732.08a13.11,13.11,0,0,0-21.76-9.85c-5.58,4.88-11.37,9.61-17.45,11.45-7.48,2.27-11.19.7-21.87.24-27.72-1.21-57.25,8.32-57.58,16.37-.15,3.71,5.93,6.75,9.72,8.64,11.79,5.9,18.42,1.67,33.29,3.15,18.46,1.83,24.59,10,35.82,10a17.61,17.61,0,0,0,8.38-2.23,55.51,55.51,0,0,1,19.81-6.07,13,13,0,0,0,11.64-13Z" transform="translate(-72.66 -1631.38)"/>
                    <path class="cls-4" d="M1012,1941.68c-12.84.17-24,.46-34.93,7.38-5.31,3.37-7.74,6.54-13.9,8.9-8.51,3.25-11.71-.2-27.13-.59-16.88-.42-19,3.26-29.75.32-8-2.18-7.76-4.49-15.82-6-9.12-1.65-12.38.77-21-1.53-1.68-.44-13.1-3.48-13.2-7.73-.13-5.28,17.24-11,32.24-12.6,15.74-1.71,19.84,2,32.39,1.4,20.94-1,21.6-12.06,43.56-18,29.15-7.84,48,5.53,47.17,28.28" transform="translate(-72.66 -1631.38)"/>
                    <path class="cls-4" d="M743.24,2058.26c12.78-8.3,24.56-11.73,34.87-12.63,8.82-.77,10.82.82,20.12-.21,17.28-1.92,21.11-8.58,34.88-11.75,18.13-4.19,42.78.14,47.38,12.61,2.68,7.26-1.52,17-7.64,21.09-10.22,6.81-27.21-1.16-33.3-4-2.2-1-2-1.13-3.52-1.71-8.88-3.51-15.1-.21-28,2.05-16.11,2.82-28.88,1.61-32.41-3.16a5.62,5.62,0,0,0-1.77-1.73c-3.65-2.14-8.48,1.48-13.09,2.77C757.16,2062.58,751.53,2062.76,743.24,2058.26Z" transform="translate(-72.66 -1631.38)"/>
                    <path class="cls-4" d="M499.56,1998.77c12-6.93,21.82-8.32,28.79-8.19,9.71.19,15.21,3.36,21.87-.23,6.86-3.7,4.88-9.13,12.1-14.13,7.62-5.27,19.5-5.92,27.11-1.17,5.41,3.37,4.76,7,9.72,8.65,6.18,2,8.69-3.14,18.34-3.7.73,0,14.49-.66,21.08,7.65,2.64,3.32,1.79,5.12,4.45,6.95,5,3.43,10.13-1.34,16.64.7,6.14,1.92,11.57,9.31,10.66,14.76-1.49,8.87-20.33,15.78-35.75,12.64-12.89-2.63-13.75-10.33-28.13-12.83-11-1.91-11.11,2.46-25.37,1.15-13.8-1.27-16.17-5.59-29.81-5.81-8.93-.14-10.24,1.68-18.36,2C525.19,2007.42,513.84,2006.22,499.56,1998.77Z" transform="translate(-72.66 -1631.38)"/>
                    <path class="cls-5" d="M106.75,1924.52a9.14,9.14,0,0,1,4.85-8.23c3.85-1.94,5-6,6.52-7.7,14.87-16.75,47.14-18,74.15-10.18,20.34,5.88,20.95,16.9,40.35,17.93,11.63.62,15.43-3.13,30-1.43,13.9,1.62,30,7.3,29.87,12.58-.1,4.24-10.69,7.29-12.25,7.74-8,2.3-11-.12-19.48,1.54-7.47,1.46-7.27,3.77-14.66,6-9.92,2.94-11.93-.73-27.57-.3-14.29.4-17.26,3.85-25.14.61-5.71-2.35-8-5.52-12.88-8.89-10.42-7.14-3.8-7-32.36-7.35-20.93-.29-18.37,5-31.16,6.66a9.05,9.05,0,0,1-10.26-9Z" transform="translate(-72.66 -1631.38)"/>
                    <path class="cls-6" d="M1045.33,2237.63c-8.62,2.1-13,10.53-15,12.75-14.86,16.76-43.61,14-70.61,6.19-20.35-5.89-21-16.9-40.36-17.94-11.63-.62-15.43,3.13-30,1.43-13.9-1.62-30-7.3-29.87-12.57.1-4.25,10.69-7.3,12.25-7.74,8-2.31,11,.11,19.48-1.55,7.47-1.46,7.27-3.77,14.66-6,9.92-2.95,11.93.73,27.57.29,14.29-.39,17.26-3.85,25.14-.6,5.71,2.35,8,5.52,12.88,8.89,10.42,7.13,3.8,7,32.36,7.35,12.87.17,16.86-1.75,21-3.65a14.51,14.51,0,0,1,20.54,13.11Z" transform="translate(-72.66 -1631.38)"/>
                    <path class="cls-7" d="M244.77,2007.87c-11.84-8.29-22.76-11.71-32.3-12.6-8.18-.76-10,.82-18.65-.2-16-1.9-19.56-8.56-32.31-11.72-16.81-4.18-39.65.18-43.93,12.65-2.48,7.26,1.41,17,7.08,21.08,9.46,6.81,25.21-1.18,30.85-4,2.05-1,1.9-1.13,3.27-1.71,8.23-3.52,14-.22,25.92,2,14.93,2.81,27.63,6.31,30.91,1.54a9.26,9.26,0,0,1,2.12-2.13,11.9,11.9,0,0,1,10.79-1.57C231.87,2012.2,237.08,2012.37,244.77,2007.87Z" transform="translate(-72.66 -1631.38)"/>
                    <path class="cls-7" d="M259.79,2139.19c-11.14-6.92-20.22-8.3-26.68-8.16-9,.2-14.1,3.37-20.27-.22-6.35-3.69-4.51-9.13-11.2-14.12-7.06-5.26-18.06-5.9-25.13-1.14-5,3.37-4.41,7-9,8.65-5.72,2-8.05-3.13-17-3.68-.68,0-13.43-.65-19.54,7.66-2.45,3.33-1.66,5.12-4.13,7-4.62,3.43-9.38-1.33-15.42.71-5.69,1.93-10.73,9.32-9.89,14.77,1.37,8.87,18.82,15.76,33.12,12.61,11.95-2.64,12.75-10.34,26.08-12.85,10.17-1.92,10.3,2.45,23.51,1.13,12.79-1.28,15-5.6,27.63-5.83,8.27-.15,9.49,1.66,17,1.93C236,2147.87,246.55,2146.65,259.79,2139.19Z" transform="translate(-72.66 -1631.38)"/>
                    <path class="cls-7" d="M759.41,2333.45c-11.13-6.93-20.21-8.31-26.67-8.17-9,.2-14.1,3.38-20.27-.21-6.35-3.7-4.51-9.13-11.2-14.13-7.06-5.26-18.06-5.9-25.13-1.14-5,3.38-4.41,7-9,8.65-5.72,2-8-3.13-17-3.68-.68,0-13.43-.65-19.54,7.67-2.45,3.32-1.66,5.12-4.13,6.95-4.62,3.43-9.39-1.33-15.42.71-5.69,1.93-10.73,9.32-9.89,14.77,1.37,8.87,18.82,15.76,33.11,12.61,12-2.64,12.75-10.34,26.09-12.85,10.17-1.91,10.29,2.45,23.51,1.13,12.79-1.28,15-5.6,27.63-5.83,8.27-.15,9.48,1.66,17,1.93C735.65,2342.12,746.18,2340.9,759.41,2333.45Z" transform="translate(-72.66 -1631.38)"/>
                    <path class="cls-7" d="M112.54,2232.71c1.89-10.79,29.18-13.63,41.13-14.88,14.56-1.52,25.69-2.52,32.37,4.38,4.79,4.94,4.22,10.76,10.5,14,4.11,2.11,6.4.69,14.88.87,6.15.14,16,.35,24.5,5.25,2.5,1.44,13.25,7.64,13.12,16.63-.12,8.54-10,16.32-19.25,17.5-10.16,1.29-12.76-6.35-30.62-12.25-5.57-1.85-17.2-5.69-31.5-4.38-13.78,1.27-17.16,6.14-26.25,3.5-6.93-2-11.38-6.69-17.5-13.12C116,2241.86,111.73,2237.39,112.54,2232.71Z" transform="translate(-72.66 -1631.38)"/>
                    <path class="cls-7" d="M88,1732.2c1.89-10.79,29.18-13.63,41.13-14.87,14.56-1.52,25.69-2.52,32.37,4.37,4.79,4.94,4.22,10.76,10.5,14,4.11,2.12,6.4.69,14.88.88,6.15.13,16,.35,24.5,5.25,2.5,1.44,13.25,7.64,13.12,16.62-.12,8.55-10,16.33-19.25,17.5-10.17,1.3-12.76-6.34-30.62-12.25-5.57-1.84-17.2-5.69-31.5-4.37-13.78,1.26-17.16,6.13-26.25,3.5-6.93-2-11.38-6.69-17.5-13.13C91.48,1741.36,87.23,1736.88,88,1732.2Z" transform="translate(-72.66 -1631.38)"/>
                    <path class="cls-7" d="M432.8,2374.46c1.88-10.79,29.17-13.63,41.12-14.88,14.57-1.51,25.69-2.52,32.38,4.38,4.78,4.94,4.21,10.76,10.5,14,4.1,2.11,6.39.69,14.87.87,6.15.14,16,.35,24.5,5.25,2.5,1.44,13.26,7.65,13.13,16.63-.13,8.54-10.06,16.33-19.25,17.5-10.17,1.29-12.77-6.34-30.63-12.25-5.57-1.85-17.19-5.69-31.5-4.38-13.78,1.27-17.16,6.14-26.25,3.5-6.92-2-11.38-6.69-17.5-13.12C436.24,2383.61,432,2379.14,432.8,2374.46Z" transform="translate(-72.66 -1631.38)"/>
                    <path class="cls-7" d="M249,2427c1.89-10.79,29.18-13.63,41.13-14.88,14.57-1.51,25.69-2.52,32.38,4.38,4.78,4.94,4.21,10.76,10.5,14,4.1,2.11,6.39.69,14.87.87,6.15.14,16,.35,24.5,5.25,2.5,1.45,13.26,7.65,13.13,16.63-.13,8.55-10.06,16.33-19.25,17.5-10.17,1.29-12.77-6.34-30.63-12.25-5.57-1.85-17.2-5.69-31.5-4.38-13.78,1.27-17.16,6.14-26.25,3.5-6.93-2-11.38-6.69-17.5-13.12C252.49,2436.12,248.23,2431.64,249,2427Z" transform="translate(-72.66 -1631.38)"/>
                    <path class="cls-7" d="M489.67,2126.83c1.2-3.36,7-1.22,18.38-7,7.69-3.92,8.06-6.46,14.87-8.75,3.13-1,10-3.37,16.63-.87,6.81,2.57,6.49,7.68,12.25,12.25,5,3.93,9.2,3.32,37.62,2.62,15-.37,21.77-.39,30.63,1.75a46.1,46.1,0,0,1,15.75,7c4,2.83,10.69,8.5,9.62,10.5-1.37,2.59-13.13-5.75-28.87-4.37-13.64,1.19-16.86,8.5-30.63,12.25-12.31,3.35-13.59-2.1-36.75-2.63-19.84-.45-21.94,2.87-32.37,0C500.7,2145.16,487.72,2132.32,489.67,2126.83Z" transform="translate(-72.66 -1631.38)"/>
                    <path class="cls-7" d="M927.17,2427.83c5.08-5.47,11-7.61,16.63-9.62,2.12-.76,11.31-3.94,26.25-3.5,19.88.58,23.88,6.79,31.5,2.62,8-4.36,6.93-13,15.75-15.75,6.44-2,9.71,1.74,14-.87,7.65-4.67,3.61-20.48,6.12-21,3.17-.66,18,22.6,9.63,39.37-7.48,14.93-29.69,17.33-39.38,18.38-18.18,2-22.22-4.11-33.25.87-12.58,5.7-11.51,15.52-25.37,21.88-7.85,3.6-21.72,6.66-28,0C914.15,2452.88,919,2436.6,927.17,2427.83Z" transform="translate(-72.66 -1631.38)"/>
                    <path class="cls-7" d="M336.55,2282.58c2.31-8.85,18.25-11.24,19.25-11.37a31.75,31.75,0,0,1,19.25,3.5c9.12,5.06,8.15,11,15.75,13.12,5.66,1.56,6.91-1.57,16.62,0,7.36,1.2,10.46,3.61,11.38,4.38,3.32,2.77,2.67,4.43,5.25,6.12,6.22,4.09,15.06-2.26,16.62,0,1.29,1.87-2.78,9-9.62,12.25-4,1.9-7.73,1.9-24.5-.87-16.52-2.73-16-3.24-21-3.5-14.07-.74-16,3.33-24.5,1.75C347.59,2305.46,334.1,2291.92,336.55,2282.58Z" transform="translate(-72.66 -1631.38)"/>
                    <path class="cls-7" d="M375.05,2274.71c9.12,5.06,8.15,11,15.75,13.12" transform="translate(-72.66 -1631.38)"/>
                    <path class="cls-7" d="M224.54,2080.46c.42-8.05,30.05-17.26,57.75-15.75,10.68.57,14.37,2.18,21.88,0,14.33-4.19,14.41-15.62,27.13-24.51,20.91-14.6,50.45-5.7,57.75-3.5,18.07,5.46,15.67,14.28,31.5,17.51,19.56,4,34.29-5.67,41.12,2.62,2.4,2.91,3.41,7.54,1.75,9.63-2.32,2.9-8.43-.89-16.62.87-5.67,1.22-9.06,4.39-13.13,7.88-12.31,10.53-20.91,17.89-28.87,21-12.66,4.93-14.38-4.52-43.75-5.25-21.57-.54-34.81,4.2-37.63,5.25-8.95,3.32-8.11,4.78-14,6.12-15.82,3.6-20.41-7.24-42-9.62-14.85-1.64-21.52,2.51-33.25-3.5C230.4,2087.27,224.35,2084.17,224.54,2080.46Z" transform="translate(-72.66 -1631.38)"/>
                    <path class="cls-7" d="M462.55,2265.08c-.08-5.27,17.35-10.78,32.37-12.25,15.76-1.54,19.82,2.25,32.38,1.75,20.94-.82,21.72-11.83,43.75-17.5,29.23-7.52,58.53,4,79.62,12.25,2.18.85,7.5,4.86,15.75,7,9.68,2.51,13.55-1.18,22.75.88,8.76,2,18.09,7.71,17.5,11.37-1,6-28.35,6.13-29.75,6.13-27.1,0-31.36-8.83-58.62-8.75-12.84,0-24,.2-35,7-5.35,3.32-7.82,6.46-14,8.75-8.55,3.16-11.71-.33-27.13-.88-16.87-.6-19.08,3.05-29.75,0-7.95-2.27-7.7-4.58-15.75-6.12-9.11-1.75-12.39.64-21-1.75C474,2272.49,462.6,2269.33,462.55,2265.08Z" transform="translate(-72.66 -1631.38)"/>
                    <path class="cls-7" d="M924.55,2115.46c.16-1.19,7.69.3,15.75-4.38a32.76,32.76,0,0,0,4.5-3.09c3-2.68,3.67-5.11,7.75-7.41,13.22-7.45,34.67.9,42,9.63a8.73,8.73,0,0,0,1.75,1.75c5.45,3.89,12.77-2,24.5-3.5,7.27-.92,16.77-.21,17.5,2.62.79,3-8.64,8.16-14,10.5-3.26,1.42-22.65,9.51-42,.88-1.9-.85-1.91-1.12-3.5-1.75-9.55-3.81-17.08.52-26.25,1.75C937.32,2124.49,924.33,2117.05,924.55,2115.46Z" transform="translate(-72.66 -1631.38)"/>
                    <path class="cls-7" d="M275.29,2196.83c12.87-8.16,24.69-11.46,35-12.25,8.84-.68,10.82.93,20.13,0,17.3-1.73,21.2-8.34,35-11.37,18.18-4,42.78.6,47.25,13.12,2.6,7.28-1.71,17-7.87,21-10.29,6.71-27.2-1.45-33.25-4.37-2.2-1.06-2-1.16-3.5-1.75-8.85-3.61-15.1-.37-28,1.75-16.15,2.65-29.4,6.24-32.88,1.44-.28-.38-1.15-3.66-2.13-4.26-3.64-2.18-8.15.89-12.78,2.13C288.63,2203.24,283.54,2201.42,275.29,2196.83Z" transform="translate(-72.66 -1631.38)"/>
                    <path class="cls-7" d="M690.05,2196.83c12.87-8.16,24.69-11.46,35-12.25,8.83-.68,10.81.93,20.12,0,17.3-1.73,21.21-8.34,35-11.37,18.19-4,42.79.6,47.25,13.12,2.6,7.28-1.71,17-7.87,21-10.29,6.71-27.2-1.45-33.25-4.37-2.19-1.06-2-1.16-3.5-1.75-8.84-3.61-15.1-.37-28,1.75-16.14,2.65-27.63,2.8-32.42-.69a22.35,22.35,0,0,0-4.26-2.13c-3.64-2.17-6,.89-10.65,2.13C703.85,2203.24,698.29,2201.42,690.05,2196.83Z" transform="translate(-72.66 -1631.38)"/>
                    <path class="cls-7" d="M125.67,2340.33c12.09-6.8,21.91-8.08,28.87-7.87,9.71.29,15.18,3.52,21.88,0,6.89-3.63,5-9.08,12.25-14,7.68-5.19,19.56-5.71,27.12-.88,5.38,3.43,4.69,7.08,9.63,8.75,6.15,2.09,8.72-3,18.37-3.5.74,0,14.5-.5,21,7.88,2.6,3.34,1.74,5.13,4.38,7,4.94,3.48,10.14-1.24,16.62.87,6.13,2,11.48,9.44,10.5,14.88-1.58,8.85-20.49,15.56-35.87,12.25-12.87-2.77-13.64-10.47-28-13.13-10.95-2-11.14,2.34-25.38.88-13.79-1.42-16.11-5.76-29.75-6.13-8.92-.24-10.25,1.56-18.37,1.75C151.21,2349.26,139.87,2347.93,125.67,2340.33Z" transform="translate(-72.66 -1631.38)"/>
                    <path class="cls-7" d="M1019.37,2321.83c-11.14,8.28-20.72,10.79-27.65,11.46-9.67.93-15.5-1.58-21.7,2.76-6.39,4.46-3.79,9.63-10.39,15.43-7,6.12-18.68,8.13-26.8,4.29-5.76-2.73-5.54-6.43-10.65-7.47-6.37-1.29-8.27,4.13-17.79,5.79-.72.13-14.32,2.33-21.82-5.16-3-3-2.37-4.88-5.23-6.39-5.33-2.83-9.9,2.5-16.6,1.23-6.32-1.2-12.57-7.91-12.29-13.43.45-9,18.36-18,34-16.68,13.12,1.12,14.85,8.66,29.43,9.49,11.12.62,10.76-3.72,25.07-4.07,13.85-.34,16.71,3.68,30.28,2.32,8.88-.89,10-2.84,18-4.05C992.9,2316.19,1004.32,2316.08,1019.37,2321.83Z" transform="translate(-72.66 -1631.38)"/>
                    <path class="cls-7" d="M567.51,2490.92c-.26,8.91,28.58,22.76,56,21,12.79-.82,18-4.58,27.12-.88,13,5.27,11.16,16.41,25.38,25.38,14.39,9.06,30.9,6.89,36.75,6.12a64.18,64.18,0,0,0,28.87-11.37c13.89-10,11.21-17,21.88-22.75,13.82-7.42,23.26,1.68,41.12-2.63,16.59-4,16.49-20,31.5-21.87,10.14-1.24,16.65,4.09,19.25.87,3-3.7-1.55-15.7-10.5-21.87-12.18-8.41-21.43,1.66-44.62-4.38-12.86-3.35-13-7.22-25.38-8.75-11.86-1.46-15.16,1.69-26.25-.87-12.41-2.87-12.77-7.85-21-7.88-11.68,0-13,10-26.25,13.13-15.14,3.58-20.06-8-35-4.38-11.31,2.7-10.68,9.84-25.37,16.63-11.45,5.28-16,2.87-32.38,6.12C605.3,2473.2,567.79,2480.85,567.51,2490.92Z" transform="translate(-72.66 -1631.38)"/>
                </g>
            </g>
        </g>
    </g>
</svg>