<svg id="CONTENT" xmlns="http://www.w3.org/2000/svg" viewBox="0 0 1025.87 968.39"><defs><style>.cls-1,.cls-2,.cls-3{stroke:#fff;}.cls-1,.cls-2,.cls-3,.cls-4,.cls-5{stroke-miterlimit:10;}.cls-1,.cls-2{stroke-width:5px;}.cls-2,.cls-3{fill:#fff;}.cls-3{stroke-width:0.75px;}.cls-4,.cls-5{fill:none;stroke:#000;}.cls-4{stroke-width:8px;}.cls-5{stroke-width:6px;}</style></defs><g id="MEDIUM"><g id="FIRE_MEDIUM"><g id="JUNCTION_FIRE_MEDIUM"><g id="BOTTOM"><path id="TOP" class="cls-1" d="M1095.6,2325.14V1672.47c-19.07-49.74-40.37-66.28-57.82-71.84-21.28-6.77-31.18,3.14-47.31-7.88-22.79-15.58-32.07-55.79-47.3-56.07-14.39-.26-9.71-7.11-18.4-12.26-4.32-2.57-8.43-8.43-16.65-20.15-5.58-8-7.26-11.45-12.26-14-5.65-2.91-9-1.31-14.9-2.63-7.61-1.7-12.09-6.64-21.9-18.4-22.66-27.15-22.81-29.6-28.91-33.29-9.24-5.6-13.67-2.88-33.29-5.25-12.31-1.49-53.79-7-85-35-9.53-8.56-7.74-9.93-14-14.89-17.89-14.15-50.67-17.51-112.14,8.76-44,43.59-66,48.15-78,42.93-5.74-2.5-10.58-7.87-20.15-8.76-12-1.11-26.82,4.53-34.17,15.77-5.64,8.63-2.67,14.13-7.88,19.27-7.31,7.22-18.95,1.94-34.17.88-21-1.46-13.43,18.94-24.78,29.47-4.51,4.19-9.63,4.8-12.89,5.57-27.82,6.58-36.43,52.28-69.21,70.09-23.16,12.58-29-4.73-61.32,7.88-33.89,13.22-31.94,34-61.33,41.18-24.06,5.88-32.86-6.21-64-.88-19.27,3.3-32.22,9.3-41.18,14.89V2330.4l50.82-42.93c15.65-5.68,35.87-10,49.93,0,4.85,3.45,6.05,6.52,10.51,10.52,8.32,7.44,27,1.81,56.95-2.63,9.5-.08,38.66,10.74,64.83-14a93.7,93.7,0,0,0,21-29.79c5.08-38.39,18.39-53.2,29.79-59.57,11.62-6.48,20.36-3.7,50.81-12.26,1.26-.36,21.66-6.14,35-12.27,31.37-14.36,31.74-38,61.33-63.08,17-14.38,32.86-21,45.55-26.28,59.74-24.85,150.54-25.45,187.48,17.52,7,8.14,13.5,19.51,29.79,29.79,19.9,12.57,27.27,6.38,47.31,17.52,23,12.81,36.94,34.13,45.55,47.31,11.76,18,10.17,22.66,19.28,29.79,13.91,10.88,29.41,9.26,52.56,9.63,6.93.12,52.41.85,78.85,8.76,19.25,5.76,45.06,20.3,70.08,60.45l11,26.72" transform="translate(-72.3 -1367.39)"/><path class="cls-2" d="M664.17,1583.48c12.1,6.81,21.93,8.1,28.91,7.89,9.72-.3,15.19-3.53,21.9,0,6.9,3.63,5,9.09,12.26,14,7.69,5.2,19.59,5.72,27.16.88,5.38-3.43,4.69-7.08,9.64-8.76,6.16-2.09,8.73,3,18.4,3.5.73,0,14.51.51,21-7.88,2.6-3.35,1.74-5.15,4.38-7,4.95-3.48,10.15,1.23,16.65-.88,6.13-2,11.48-9.44,10.51-14.89-1.58-8.87-20.51-15.58-35.92-12.26-12.88,2.77-13.65,10.48-28,13.14-11,2-11.15-2.34-25.41-.88-13.81,1.42-16.13,5.77-29.78,6.13-8.94.24-10.27-1.56-18.4-1.75C689.74,1574.54,678.38,1575.87,664.17,1583.48Z" transform="translate(-72.3 -1367.39)"/><path class="cls-2" d="M721.11,1700c.26,8.92-28.61,22.79-56.07,21-12.81-.82-18-4.57-27.15-.87-13,5.27-11.17,16.43-25.41,25.4-14.41,9.08-30.94,6.91-36.8,6.14a64.46,64.46,0,0,1-28.91-11.39c-13.9-10-11.21-17-21.9-22.78-13.84-7.43-23.29,1.68-41.17-2.63-16.61-4-16.51-20.06-31.54-21.9-10.15-1.24-16.67,4.1-19.28.88-3-3.71,1.56-15.73,10.52-21.91,12.19-8.41,21.46,1.67,44.68-4.38,12.87-3.35,13-7.23,25.4-8.76,11.88-1.46,15.18,1.69,26.29-.87,12.42-2.87,12.78-7.86,21-7.89,11.69,0,13,10,26.28,13.14,15.17,3.59,20.09-8,35-4.38,11.32,2.71,10.69,9.86,25.4,16.65,11.46,5.29,16,2.88,32.42,6.13C683.27,1682.26,720.83,1689.92,721.11,1700Z" transform="translate(-72.3 -1367.39)"/><path class="cls-3" d="M1097.35,1915.14c-16.64.88-42.19,15.68-57.9,19.49-19.43,4.72-34.52-4.4-41.05,4.15-2.29,3-3.13,7.67-1.39,9.7,2.42,2.82,8.4-1.2,16.66.26,5.72,1,9.22,4.06,13.42,7.39,12.72,10.09,21.59,17.13,29.67,19.94,12.85,4.47,9.93-7.49,40.59-6.61Z" transform="translate(-72.3 -1367.39)"/><path class="cls-3" d="M75,2004.5c16.65.88,42.19,15.68,57.9,19.49,19.43,4.72,34.53-4.4,41.05,4.15,2.3,3,3.14,7.67,1.4,9.7-2.43,2.82-8.41-1.2-16.67.26-5.72,1-9.22,4.06-13.42,7.39-12.71,10.09-21.59,17.13-29.67,19.94-12.84,4.47-9.93-7.49-40.59-6.61Z" transform="translate(-72.3 -1367.39)"/><path class="cls-3" d="M75,1748.69c12.26-.88,25-21.15,39.25-25.49,7.49-2.27,11.21-.7,21.9-.24,27.76,1.21,57.32-8.33,57.65-16.39.15-3.72-5.94-6.76-9.73-8.65-11.81-5.9-18.44-1.67-33.33-3.15-21.64-2.15-26.35-13-42.15-9.18,1.56-.38-15.92,10.57-33.59,7Z" transform="translate(-72.3 -1367.39)"/><path class="cls-3" d="M1068,1742.47c-12.85-.17-24.06-.46-35-7.38-5.32-3.38-7.76-6.56-13.92-8.91-8.53-3.26-11.73.2-27.17.58-16.9.42-19.07-3.26-29.79-.32-8,2.19-7.76,4.5-15.83,6-9.14,1.66-12.4-.77-21,1.53-1.69.45-13.12,3.49-13.23,7.74-.13,5.28,17.26,11,32.28,12.62,15.77,1.71,19.87-2,32.43-1.41,21,1,21.63,12.08,43.62,18,29.18,7.85,48.1-5.53,47.23-28.31" transform="translate(-72.3 -1367.39)"/><path class="cls-3" d="M271.61,1826.58c-12.86-.18-24.07-.47-35-7.39-5.32-3.38-7.75-6.55-13.92-8.91-8.53-3.26-11.73.2-27.17.58-16.9.42-19.07-3.26-29.78-.32-8,2.19-7.77,4.51-15.84,6-9.14,1.65-12.39-.78-21,1.52-1.69.45-13.12,3.49-13.23,7.75-.12,5.28,17.27,11,32.29,12.61,15.76,1.71,19.86-2,32.43-1.41,21,1.06,21.62,12.09,43.61,18,29.18,7.84,48.11-5.54,47.23-28.32" transform="translate(-72.3 -1367.39)"/><path class="cls-3" d="M288.25,1902.79c12.85-.17,24.06-.46,35-7.38,5.33-3.38,7.76-6.55,13.93-8.91,8.52-3.26,11.72.2,27.16.58,16.9.42,19.08-3.26,29.79-.32,8,2.19,7.76,4.51,15.83,6,9.14,1.66,12.4-.77,21.05,1.53,1.68.45,13.12,3.49,13.22,7.74.13,5.28-17.26,11-32.28,12.62-15.76,1.71-19.86-2-32.43-1.41-21,1-21.63,12.08-43.62,18-29.18,7.85-48.1-5.53-47.23-28.31" transform="translate(-72.3 -1367.39)"/><path class="cls-3" d="M374.85,1825.5c12.8,8.31,24.6,11.74,34.91,12.64,8.83.77,10.84-.82,20.15.22,17.29,1.91,21.13,8.58,34.92,11.76,18.16,4.19,42.84-.14,47.44-12.63,2.68-7.26-1.53-17-7.66-21.11-10.22-6.83-27.24,1.16-33.33,4-2.21,1-2,1.13-3.52,1.72-8.89,3.51-15.13.2-28-2.06-16.13-2.83-28.91-1.61-32.45,3.16a5.63,5.63,0,0,1-1.77,1.73c-3.66,2.15-8.49-1.48-13.11-2.77C388.79,1821.17,383.15,1821,374.85,1825.5Z" transform="translate(-72.3 -1367.39)"/><path class="cls-3" d="M690.68,1786.06c12,6.94,21.85,8.33,28.83,8.2,9.72-.19,15.23-3.37,21.9.23,6.86,3.71,4.88,9.15,12.11,14.15,7.63,5.28,19.52,5.93,27.15,1.17,5.41-3.38,4.76-7,9.73-8.66,6.18-2,8.7,3.15,18.36,3.7.73.05,14.51.66,21.11-7.65,2.63-3.33,1.78-5.13,4.45-7,5-3.43,10.14,1.35,16.65-.69,6.16-1.93,11.59-9.33,10.68-14.78-1.49-8.88-20.35-15.8-35.79-12.65-12.91,2.63-13.76,10.33-28.17,12.84-11,1.91-11.13-2.46-25.4-1.15-13.82,1.27-16.19,5.59-29.85,5.81-8.93.14-10.25-1.67-18.38-1.95C716.35,1777.4,705,1778.61,690.68,1786.06Z" transform="translate(-72.3 -1367.39)"/><path class="cls-3" d="M882.77,2131.62c9.58,10.07,18.6,14.17,25.33,16,9.38,2.57,15.56,1.08,20.94,6.42,5.53,5.49,2.09,10.15,7.61,17,5.83,7.22,17.05,11.21,25.71,8.8,6.15-1.7,6.56-5.39,11.78-5.55,6.5-.19,7.46,5.48,16.56,8.74.7.25,13.73,4.74,22.42-1.37,3.47-2.44,3.16-4.41,6.24-5.42,5.75-1.88,9.34,4.16,16.17,4.05,6.45-.11,13.75-5.67,14.42-11.16,1.08-8.94-15-20.91-30.75-22.26-13.13-1.13-16.13,6-30.65,4.35-11.08-1.28-10-5.51-24-8.29-13.61-2.69-17.11.79-30.27-2.87-8.61-2.39-9.36-4.5-17.08-7.06C909.83,2130.57,898.59,2128.51,882.77,2131.62Z" transform="translate(-72.3 -1367.39)"/><path class="cls-3" d="M775.89,1972.67c-12,6.94-21.85,8.33-28.82,8.19-9.73-.19-15.23-3.36-21.9.24-6.86,3.7-4.88,9.14-12.11,14.14-7.63,5.28-19.52,5.93-27.15,1.17-5.42-3.37-4.77-7-9.73-8.65-6.18-2-8.7,3.14-18.36,3.7-.74,0-14.51.66-21.11-7.66-2.64-3.32-1.79-5.13-4.46-7-5-3.43-10.13,1.34-16.65-.7-6.15-1.93-11.59-9.32-10.67-14.78,1.49-8.88,20.34-15.8,35.78-12.65,12.92,2.63,13.77,10.34,28.18,12.84,11,1.91,11.12-2.46,25.39-1.15,13.82,1.27,16.2,5.59,29.85,5.81,8.94.15,10.25-1.67,18.38-2C750.23,1964,761.6,1965.21,775.89,1972.67Z" transform="translate(-72.3 -1367.39)"/><path class="cls-2" d="M77.61,2174.46c8,0,9.41,6.53,11.39,8.76,14.88,16.78,47.19,18,74.23,10.2,20.37-5.89,21-16.92,40.4-18,11.65-.62,15.45,3.13,30.06,1.43,13.92-1.62,30-7.3,29.9-12.59-.09-4.25-10.69-7.3-12.26-7.75-8-2.31-11,.12-19.5-1.54-7.48-1.47-7.28-3.78-14.68-6-9.93-2.94-11.94.73-27.6.3-14.31-.4-17.28-3.86-25.18-.61-5.71,2.36-8,5.53-12.89,8.9-10.43,7.15-3.8,7-32.4,7.36-25.29.34-16.32-7.41-41.47-7.16Z" transform="translate(-72.3 -1367.39)"/><path class="cls-2" d="M1095.6,2050.06c-7.95,0-9.41,6.53-11.39,8.76-14.88,16.77-47.19,18-74.23,10.2-20.38-5.9-21-16.93-40.4-18-11.65-.62-15.45,3.13-30.06,1.43-13.92-1.62-30-7.31-29.91-12.59.1-4.25,10.7-7.3,12.27-7.75,8-2.31,11,.12,19.5-1.54,7.48-1.47,7.28-3.78,14.68-6,9.93-3,11.94.73,27.6.3,14.31-.4,17.28-3.86,25.17-.61,5.72,2.35,8,5.53,12.9,8.9,10.43,7.14,3.8,7,32.4,7.36,25.29.34,16.32-7.41,41.47-7.17Z" transform="translate(-72.3 -1367.39)"/><path class="cls-2" d="M383.9,1745.41c-11.86,8.3-22.79,11.72-32.34,12.62-8.19.76-10.05-.83-18.68.2-16,1.9-19.58,8.56-32.35,11.74-16.82,4.17-39.7-.18-44-12.67-2.48-7.27,1.41-17,7.08-21.11,9.48-6.81,25.25,1.19,30.9,4,2,1,1.9,1.14,3.27,1.72,8.24,3.52,14,.22,26-2,14.94-2.82,26.79-1.59,30.07,3.18a5.42,5.42,0,0,0,1.64,1.73c3.4,2.16,7.87-1.47,12.15-2.76C371,1741.07,376.2,1740.9,383.9,1745.41Z" transform="translate(-72.3 -1367.39)"/><path class="cls-2" d="M755.52,1916.48c11.15-6.94,20.24-8.32,26.71-8.18,9,.2,14.11,3.38,20.29-.21,6.36-3.7,4.52-9.14,11.22-14.14,7.06-5.28,18.08-5.91,25.15-1.15,5,3.38,4.42,7,9,8.66,5.73,2,8.06-3.13,17-3.68.68,0,13.44-.65,19.57,7.67,2.44,3.33,1.66,5.13,4.13,7,4.62,3.43,9.39-1.34,15.43.71,5.71,1.93,10.75,9.33,9.91,14.78-1.38,8.89-18.85,15.79-33.16,12.63-12-2.65-12.76-10.35-26.12-12.86-10.18-1.92-10.3,2.44-23.53,1.12-12.81-1.27-15-5.6-27.67-5.83-8.28-.15-9.49,1.66-17,1.93C779.31,1925.16,768.77,1923.94,755.52,1916.48Z" transform="translate(-72.3 -1367.39)"/><path class="cls-2" d="M364.79,1992.69c11.15-6.93,20.24-8.31,26.71-8.17,9,.2,14.12,3.38,20.29-.22,6.36-3.7,4.52-9.14,11.22-14.13,7.06-5.28,18.08-5.91,25.16-1.15,5,3.38,4.42,7,9,8.66,5.73,2,8.06-3.13,17-3.68.68,0,13.44-.65,19.57,7.67,2.44,3.33,1.66,5.13,4.13,7,4.62,3.43,9.4-1.34,15.44.71,5.7,1.93,10.74,9.33,9.9,14.78-1.38,8.88-18.85,15.78-33.15,12.62-12-2.64-12.77-10.34-26.12-12.86-10.19-1.91-10.31,2.45-23.54,1.13-12.81-1.28-15-5.6-27.66-5.83-8.29-.15-9.5,1.66-17,1.93C388.58,2001.38,378.05,2000.16,364.79,1992.69Z" transform="translate(-72.3 -1367.39)"/><path class="cls-2" d="M776.27,1675.37c1.89,10.8,29.22,13.64,41.18,14.89,14.58,1.52,25.72,2.52,32.41-4.38,4.8-5,4.23-10.77,10.52-14,4.11-2.12,6.4-.69,14.89-.87,6.15-.14,16-.35,24.53-5.26,2.5-1.44,13.27-7.65,13.14-16.64-.12-8.56-10.07-16.35-19.27-17.53-10.18-1.29-12.79,6.35-30.67,12.27-5.58,1.84-17.21,5.69-31.53,4.38-13.8-1.27-17.18-6.14-26.29-3.51-6.93,2-11.39,6.7-17.52,13.15C779.72,1666.2,775.46,1670.68,776.27,1675.37Z" transform="translate(-72.3 -1367.39)"/><path class="cls-2" d="M586.17,1517.67c1.88,10.81,29.21,13.65,41.17,14.9,14.59,1.52,25.73,2.52,32.42-4.38,4.79-5,4.22-10.78,10.51-14,4.11-2.12,6.4-.69,14.89-.88,6.16-.13,16-.35,24.53-5.25,2.51-1.45,13.27-7.65,13.14-16.65-.12-8.56-10.06-16.35-19.27-17.52-10.18-1.3-12.78,6.35-30.66,12.27-5.58,1.84-17.22,5.69-31.54,4.38-13.79-1.27-17.18-6.15-26.28-3.51-6.94,2-11.4,6.7-17.52,13.14C589.61,1508.51,585.35,1513,586.17,1517.67Z" transform="translate(-72.3 -1367.39)"/><path class="cls-2" d="M551.12,1889.13c1.2,3.37,7,1.22,18.4,7,7.7,3.92,8.07,6.46,14.89,8.76,3.14,1,10,3.37,16.65.87,6.82-2.57,6.5-7.69,12.26-12.26,5-3.94,9.21-3.33,37.68-2.63,15,.37,21.79.4,30.66-1.75a46.23,46.23,0,0,0,15.77-7c4.05-2.83,10.7-8.51,9.63-10.51-1.37-2.6-13.14,5.76-28.91,4.38-13.64-1.2-16.88-8.52-30.66-12.27-12.32-3.35-13.61,2.1-36.79,2.63-19.87.45-22-2.87-32.42,0C562.16,1870.78,549.17,1883.63,551.12,1889.13Z" transform="translate(-72.3 -1367.39)"/><path class="cls-2" d="M272.53,2081c1.2,3.37,7,1.21,18.4,7,7.7,3.92,8.07,6.46,14.89,8.76,3.14,1,10,3.37,16.65.87,6.82-2.57,6.5-7.69,12.26-12.26,5-3.94,9.21-3.33,37.68-2.63,15,.37,21.79.4,30.66-1.75a46.23,46.23,0,0,0,15.77-7c4.05-2.83,10.7-8.51,9.63-10.51-1.37-2.6-13.14,5.76-28.91,4.38-13.64-1.2-16.88-8.52-30.66-12.27-12.32-3.35-13.61,2.1-36.79,2.63-19.87.45-22-2.87-32.42,0C283.57,2062.64,270.58,2075.49,272.53,2081Z" transform="translate(-72.3 -1367.39)"/><path class="cls-2" d="M527.53,1595.58c-6.45,3.76-12.79,4.09-18.73,4.39-2.24.12-12,.49-26.16-4.27-18.89-6.32-20.91-13.44-29.43-11.66-8.91,1.86-10.41,10.44-19.66,10.52-6.75.06-8.8-4.49-13.67-3.23-8.69,2.25-9.4,18.57-12,18.35-3.22-.29-10.72-26.89,2.22-40.53,11.5-12.12,33.47-8,43.06-6.17,17.71,3.34,20.72,10.31,32.11,8.82,13.72-1.8,15.54-11.53,30.67-13.6,8.56-1.17,22.75-.07,26.83,8.13C547.28,1575.35,537.86,1589.54,527.53,1595.58Z" transform="translate(-72.3 -1367.39)"/><path class="cls-2" d="M914.69,1848c2.32,8.87,18.28,11.25,19.28,11.39a31.82,31.82,0,0,0,19.27-3.5c9.14-5.07,8.17-11.06,15.77-13.14,5.67-1.56,6.92,1.57,16.64,0,7.38-1.2,10.48-3.62,11.39-4.38,3.33-2.78,2.68-4.44,5.26-6.14,6.23-4.09,15.08,2.27,16.65,0,1.29-1.86-2.79-9-9.64-12.26-4-1.9-7.74-1.9-24.53.87-16.53,2.74-16,3.25-21,3.51-14.08.74-16-3.33-24.53-1.75C925.75,1825.05,912.25,1838.61,914.69,1848Z" transform="translate(-72.3 -1367.39)"/><path class="cls-2" d="M765.87,2044.42c2.55-8.8,18.56-10.77,19.57-10.89a31.94,31.94,0,0,1,19.17,4c9,5.3,7.88,11.26,15.43,13.54,5.62,1.7,7-1.4,16.64.43,7.33,1.39,10.37,3.89,11.27,4.68,3.25,2.85,2.55,4.5,5.09,6.26,6.13,4.25,15.14-1.87,16.64.43,1.25,1.9-3,8.94-9.95,12-4.05,1.8-7.78,1.7-24.5-1.51-16.45-3.16-15.88-3.65-20.93-4-14.06-1.1-16.08,2.91-24.56,1.11C776.34,2067.61,763.19,2053.7,765.87,2044.42Z" transform="translate(-72.3 -1367.39)"/><path class="cls-2" d="M244.69,1961.26c1.87-9-11.35-18.21-12.18-18.78a31.93,31.93,0,0,0-18.82-5.45c-10.44.47-12.24,6.26-20,4.75-5.77-1.13-5.5-4.49-14.91-7.41-7.13-2.21-11-1.43-12.15-1.15-4.21,1-4.37,2.78-7.43,3.15-7.41.89-12.5-8.74-14.91-7.41-2,1.1-1.51,9.31,3.17,15.27,2.74,3.49,6.08,5.15,22.36,10.14,16,4.91,15.74,4.21,20.38,6.22,12.94,5.61,12.85,10.11,21.19,12.49C224.59,1976.84,242.72,1970.71,244.69,1961.26Z" transform="translate(-72.3 -1367.39)"/><path class="cls-2" d="M244.69,1961.26c1.87-9-11.35-18.21-12.18-18.78a31.93,31.93,0,0,0-18.82-5.45c-10.44.47-12.24,6.26-20,4.75-5.77-1.13-5.5-4.49-14.91-7.41-7.13-2.21-11-1.43-12.15-1.15-4.21,1-4.37,2.78-7.43,3.15-7.41.89-12.5-8.74-14.91-7.41-2,1.1-1.51,9.31,3.17,15.27,2.74,3.49,6.08,5.15,22.36,10.14,16,4.91,15.74,4.21,20.38,6.22,12.94,5.61,12.85,10.11,21.19,12.49C224.59,1976.84,242.72,1970.71,244.69,1961.26Z" transform="translate(-72.3 -1367.39)"/><polyline class="cls-4" points="20.64 259.08 4 266.09 4 957.31 22.4 939.79"/><path class="cls-5" d="M1095.17,2325.58" transform="translate(-72.3 -1367.39)"/><polyline class="cls-5" points="1015.86 299.38 1022.87 313.4 1022.87 947.67 1014.99 925.77"/></g></g></g></g></svg>