<svg id="CONTENT"
    xmlns="http://www.w3.org/2000/svg" viewBox="0 0 484.16 471.6">
    <defs>
        <style>.cls-1,.cls-4{stroke:#000;}.cls-1,.cls-2,.cls-3,.cls-4{stroke-miterlimit:10;}.cls-1,.cls-3,.cls-4{stroke-width:5px;}.cls-2,.cls-3,.cls-4{fill:#fff;}.cls-2,.cls-3{stroke:#fff;}.cls-2{stroke-width:0.75px;}</style>
    </defs>
    <g id="SMALL">
        <g id="FIRE_SMALL">
            <g id="JUNCTION_FIRE_SMALL">
                <g id="TOP">
                    <g id="TOP-2" data-name="TOP">
                        <path class="cls-1" d="M823.81,2006.75V1818.13l-68,.12L531.43,1817l-186.36,1.14.82,200.12c5.05,2.38,11.3,5.39,21,4.11,17.17-2.27,22.84-16,32.88-14,10.91,2.21,7.81,19.16,22.19,29.59,16.86,12.23,43.59,5.22,50.95,3.28,18.59-4.87,26.92-13.78,35.75-9,6.89,3.7,4.66,10.63,13.15,16.85,11.31,8.29,26.72,3.89,28.77,3.29,9.37-2.72,11.65-8.19,15.2-8.63,5-.63,9.46,9.21,13.15,14.79,11.87,17.92,38.38,25.08,55.89,23.84,16.59-1.17,30.16-10.23,49.31-23,14.68-9.8,17.65-14.71,27.13-15.62,16.24-1.56,20.76,11.58,37,10.68,13.91-.77,17-10.8,35.34-18.9,10.37-4.59,23-7.76,40.27-6.57Z" transform="translate(-342.56 -1613.39)"/>
                        <path class="cls-1" d="M534.92,1768.81c5.17-.52,6.25,7.3,14.39,9.46,9.36,2.48,19.65-4.87,20.54-5.35,4.95-2.62,5.8-6.26,11.1-7.8a20.17,20.17,0,0,1,9-.41c5.78,1,6.79,4.47,10.68,5.34,5.32,1.18,8.62-3.76,16-8.22,12.66-7.63,30.23-9.65,34.52-3.7a7.35,7.35,0,0,1,.82,6.16c-2.14,7-14.83,6.53-16,12.33-.48,2.37,1.2,4.53,2.47,6.17,5.78,7.42,17.26,8.13,27.53,8.63,12.82.62,17.53-1.33,20.14,2,3.6,4.66-1,14-1.65,15.21-4,8.1-9.79,9-14,18.49-1.53,3.51-2.44,5.58-1.64,7.81,1.77,4.91,9.69,4.57,21.37,7.8,13,3.61,10.92,6.18,25.89,11.1,15.45,5.08,20.75,3.34,25.06,9,5.12,6.77,2.85,16.09,2.47,17.67-2.66,10.91-12.24,16.52-15.62,18.49-10.22,6-13.74,1.92-30,8.22-6.07,2.35-10.63,4.87-18.91,9.45-11.71,6.48-10.85,7.18-17.67,10.69-7.25,3.73-22.27,11.46-39.86,8.63-5.42-.88-7-3.65-13.15-4.11-3.41-.26-8.16-1-12.33,1.64-3,1.86-2.42,3.3-4.93,4.52-5.55,2.69-13.16-2-15.2-3.29-5.48-3.39-4.82-5.48-9-7s-10.4-1.54-14,2.46c-2,2.25-.86,3.55-2.47,5.76-3.21,4.4-9.56,1.63-30,1.23-3.2-.06-5.53,0-7.81-1.65-3.79-2.66-3.42-7-5.75-12.73a32,32,0,0,0-10.68-13.57c-6.77-4.67-11.92-1.51-25.89-2-8.33-.32-23.94-.93-35.75-10.68-3.07-2.53-11.73-9.69-11.51-19.32.32-14,19-22.74,20.55-23.42,19.39-8.81,34.43,1.91,41.91-7.4,4.25-5.28,4-14.45.82-20.13-4-7.16-11.08-6-14.38-13.15-2.63-5.73-1.72-14.29,2.88-18.09,5.72-4.72,12.15,2.08,25.89-.41,2.95-.53,13.88-2.88,22.19-11.5C530,1775.92,530.21,1769.3,534.92,1768.81Z" transform="translate(-342.56 -1613.39)"/>
                        <path class="cls-1" d="M509.45,2005.1s-3.62-5.66-8.1-7.95l-.53-.27c-6.59-3.2-8.74-.62-17.26-2.46-10.79-2.33-19.55-8.83-21-14.38a5,5,0,0,0-.41-1.24c-1.8-3.47-7.71-2.72-15.21-3.7-5.62-.73-10.68-1.38-15.61-4.52-5.42-3.44-4.92-6.22-9.86-8.21s-6.55.24-12.33-1.24c-4.51-1.15-11.91-4.64-12.33-9.45-.5-5.68,8.92-10.78,14.38-12.74,2.55-.91,2.9-.66,14.8-2s16.91-2.27,21.78-5.76c2-1.46,4.59-3.34,4.52-5.75-.12-3.71-6.42-7.06-11.92-7.4-2.93-.17-3.14.66-7.81,1.24-4.38.54-9.53,1.18-14.38-.82-5.58-2.31-5-5.71-11.1-8.22-4.74-1.94-5.85-.22-9.45-2.06-5.87-3-10.1-11.27-7.81-17.26,1.1-2.85,3.35-4.35,6.17-6.16,5.82-3.75,11.9-5.1,18.49-5.75,12.46-1.24,13.24,1.35,23,0,6.84-1,16.24-2.26,18.91-8.22,2.3-5.16-2.33-9.52.82-15.62,1.81-3.51,5-5.19,6.78-6.16,9.1-4.86,19.15-.75,21,.06a8.6,8.6,0,0,0,3.82-.6l16.28-6.58a8.47,8.47,0,0,1,2.48-.59l14.73-1.26,8.35-1a6.54,6.54,0,0,0,4.76-3c3.46-5.43,6.37-12.55,1.36-13.45l-28.9-1.24-.4,0h0a11.37,11.37,0,0,1-7.14-2.52l-9.59-7.72a7.54,7.54,0,0,0-.87-.61,24.46,24.46,0,0,0-5.56-2.46c-.18-.06-.37-.1-.56-.15l-23.55-5.38a8.52,8.52,0,0,1-6-6.34l-.89-4a8.52,8.52,0,0,1,3.73-9l4.22-2.7a23.93,23.93,0,0,1,12.11-3.76s17.26,3.28,25.8,1.65a28.79,28.79,0,0,0,4.41-1.23l2.88-1.64a12.25,12.25,0,0,0,3.57-3.06l10.31-12.88a8.51,8.51,0,0,1,7.38-2.48c5.32.8,14.47,1.55,20-1.51l24-15a31.82,31.82,0,0,1,16.44,0c7.35,2.1,9.43,6,14.79,9,12.22,7,19.81-2.75,37.23,0,18.54,2.93,17.79,15.16,35.5,16.44,12.94.93,16.09-5.38,29.59-2.47,8.19,1.77,10.29,4.79,20.55,7.4,8.42,2.14,13.72-1.2,21.78,2.05,6.16,2.49,8,3.67,8.63,5.35,1.3,3.46-1,8-4.11,10.27-4.51,3.21-10.06,1.06-15.21.41-13.34-1.69-16.89,7.59-35.34,13.56-20.79,6.73-24.79-2.28-42.73,5.75-12.81,5.74-12,10.89-22.6,12.74-8.27,1.45-16.15-.39-28.77,2.88-2.81.73-7,2-8.22,5.34a7.2,7.2,0,0,0,.82,6.17c2.88,4.34,10.34,3.85,16.85,3.69,17.37-.41,30.65-.72,42.33,4.52,8.68,3.91,7.62,6.91,16,9.46,8.08,2.45,13.3,1,26.3.41,14.26-.61,21.39-.72,24.25.41,12.53,4.94,19,18.6,27.12,16.44a11.75,11.75,0,0,1,4.11-.83c4.06.12,8.81,3,10.27,7.4,1.87,5.58-2.2,11.74-6.57,14.38-5.4,3.27-9.57.13-18.08,2.06-6.76,1.53-6.13,4.6-13.56,7-6.21,2-11.62,1.81-16,1.65-10.55-.38-13.24-3.07-18.49-1.24-4.75,1.66-10.15,5.75-9.86,9.46.42,5.52,13.81,10.6,25.06,10.68,5.19,0,8.2-1,13.15.82,1.46.54,9.26,3.42,9.86,9,.59,5.36-5.69,10.26-10.68,11.92-3.36,1.12-4.12.1-9.45.82-1.6.22-14.17,2-14.79,6.58-.42,3,4.51,6.37,8.21,7.8,4.44,1.73,7.72.91,11.92.83a42.81,42.81,0,0,1,18.9,4.52c7.78,4.13,7.94,8.56,16,11.09,2.3.72,4.27.89,8.22,1.24,12.57,1.08,15.39-1.54,21.78.41,4.84,1.47,11.74,5.58,11.92,10.68.18,5.46-7.41,10.61-13.56,12.33-7.38,2.06-11.54-1.11-18.5,2-2.39,1.09-3,2.87-7.39,5.76a34.11,34.11,0,0,1-6.58,3.69c-4.85,1.93-5.2,5.36-8.19,5.22a19.66,19.66,0,0,0-11,2.57L712,2038.29c-.58,1.46-5.14,3.52-12.55,2.87-31.83-2.8-50.42,28.26-61,30.51-3.46.74-7.37,1.87-12.33,1.65-11.1-.51-19.27-6.31-23-9-7.44-5.43-5.76-7-12.74-12.74-2.17-1.78-20.32-16.27-33.7-10.69-4.81,2-6.27,5.48-10.27,4.94-4.67-.65-8.07-6.13-9.45-10.28-3.1-9.28,3.32-13.5.41-18.9C532.87,2008.23,514.42,2012.88,509.45,2005.1Z" transform="translate(-342.56 -1613.39)"/>
                        <path d="M824.84,1847.84c-9.86,0-26.71,41.09-44,37.81-13-2.49-17.48,18.59-34.52,18.9-15.79.28-7,14-25.07,14.79-18.31.8-7,15.15-37,15.21-5.3,0-9.37,9.44-16,9.45-37.24.06-42.2-3.71-49.13-8.21-1.9-1.24-6-2.32-7-5.68s1.23-6.89,1.57-7.41c4.76-7.2,14.73-3.51,29.09-8.53,12-4.2,9.42-8.31,21.23-12.15,13.39-4.35,16.95.84,27.9-4.41,9.22-4.42,9.1-9.25,17.56-10.87,5.68-1.09,8.43.58,16.42-1.41,3.92-1,9.77-2.43,10.22-5.45.54-3.75-7.55-7.58-8.72-8.13-6.62-3.13-8.74-.53-17.29-2.28-10.81-2.21-19.64-8.62-21.11-14.16a5.12,5.12,0,0,0-.42-1.23c-1.84-3.44-7.74-2.64-15.25-3.53-5.63-.67-10.7-1.27-15.66-4.35-5.46-3.39-5-6.18-10-8.11s-6.55.31-12.34-1.1c-4.52-1.11-12-4.51-12.43-9.32-.55-5.67,8.81-10.88,14.25-12.9,2.54-.94,2.89-.69,14.77-2.21s16.89-2.45,21.71-6c2-1.48,4.56-3.39,4.46-5.8-.15-3.71-6.49-7-12-7.27-2.94-.14-3.13.69-7.8,1.32-4.37.59-9.52,1.29-14.39-.67-5.6-2.24-5-5.65-11.18-8.1-4.77-1.88-5.86-.14-9.47-2-5.91-2.94-10.22-11.16-8-17.17,1.06-2.87,3.3-4.39,6.1-6.23,5.78-3.82,11.84-5.23,18.43-6,12.44-1.37,13.25,1.21,23-.25,6.83-1,16.21-2.43,18.81-8.42,2.25-5.18-2.42-9.49.66-15.63,1.77-3.53,4.9-5.24,6.71-6.23,9-5,19.15-1,21-.17a8.61,8.61,0,0,0,3.82-.64l16.21-6.75a8.39,8.39,0,0,1,2.46-.62l14.72-1.41,8.34-1.06a6.5,6.5,0,0,0,4.73-3c3.4-5.48,6.24-12.63,1.22-13.47l-28.92-.93a2.58,2.58,0,0,1-.39,0h0a19.31,19.31,0,0,1-9.06-3.92l-7.78-6.13a7.66,7.66,0,0,0-.88-.61,24.61,24.61,0,0,0-5.58-2.4l-.57-.14-23.61-5.12a8.52,8.52,0,0,1-6-6.29l-.94-4a8.53,8.53,0,0,1,3.64-9.08l4.19-2.74a23.83,23.83,0,0,1,12.06-3.88s17.3,3.09,25.82,1.36a28.8,28.8,0,0,0,4.4-1.27l2.86-1.67a12.33,12.33,0,0,0,3.54-3.1l10.17-13a8.51,8.51,0,0,1,7.35-2.56c5.33.74,14.49,1.4,20-1.73l23.88-15.25a31.78,31.78,0,0,1,16.44-.18c7.37,2,7.37,8.66,12.71,8.66" transform="translate(-342.56 -1613.39)"/>
                        <path d="M344.25,1881.33c9.06,0,23,29.18,39,27.12,12.2-1.56,13,19.44,28.76,19.73,14.63.27,21.05-4.88,37.81-4.11,17,.78,5.13,10.65,32.88,10.68,4.91,0,11.91,14,19.72,11.51,32.91-10.39,27.12-6.17,34.13-6.21,2.16,0,5.53-2.33,6.54-5.69s-1.13-6.89-1.45-7.41c-4.4-7.19-13.65-3.5-26.95-8.51-11.1-4.18-8.73-8.3-19.67-12.13-12.4-4.34-15.71.86-25.85-4.38-8.54-4.42-8.42-9.25-16.26-10.86-5.27-1.09-7.81.58-15.22-1.4-3.63-1-9.05-2.42-9.46-5.44-.5-3.75,7-7.58,8.08-8.14,6.14-3.13,8.11-.54,16-2.29,10-2.22,18.22-8.64,19.58-14.17a5,5,0,0,1,.39-1.23c1.71-3.45,7.17-2.65,14.13-3.55,5.22-.67,9.92-1.28,14.52-4.36,5.06-3.4,4.63-6.18,9.23-8.12s6.07.3,11.44-1.11c4.19-1.11,11.08-4.52,11.52-9.33.52-5.67-8.15-10.87-13.19-12.88-2.35-.94-2.68-.7-13.69-2.21s-15.65-2.43-20.12-6c-1.87-1.48-4.22-3.38-4.12-5.79.14-3.71,6-7,11.12-7.28,2.72-.15,2.9.68,7.22,1.31,4.06.59,8.82,1.28,13.34-.68,5.19-2.25,4.64-5.66,10.37-8.11,4.41-1.89,5.42-.15,8.78-2,5.47-2.94,9.48-11.17,7.42-17.18-1-2.86-3-4.38-5.65-6.22-5.35-3.81-11-5.22-17.07-5.94-11.53-1.36-12.28,1.23-21.33-.23-6.33-1-15-2.42-17.42-8.4-2.09-5.18,2.25-9.5-.6-15.63a14.24,14.24,0,0,0-6.21-6.23c-8.39-5-17.75-.94-19.49-.15a7.34,7.34,0,0,1-3.54-.64L434,1721a7.33,7.33,0,0,0-2.29-.61l-13.64-1.4-7.73-1a6,6,0,0,1-4.38-3c-3.14-5.47-5.77-12.62-1.12-13.47l26.8-1,.37,0h0a17.21,17.21,0,0,0,8.39-3.93l7.22-6.14a6.89,6.89,0,0,1,.82-.6,21.91,21.91,0,0,1,5.17-2.41l.52-.14L476,1682.1a8.31,8.31,0,0,0,5.6-6.29l.87-4a8.85,8.85,0,0,0-3.36-9.08l-3.89-2.74a21,21,0,0,0-11.17-3.87s-16,3.1-23.93,1.38a26.37,26.37,0,0,1-4.08-1.26l-2.65-1.68a11.49,11.49,0,0,1-3.27-3.09l-9.41-13a7.57,7.57,0,0,0-6.82-2.56c-4.94.75-13.43,1.41-18.55-1.71L373.23,1619a27.36,27.36,0,0,0-15.23-.17c-6.46,1.92-6.56,8.77-13.54,8.77" transform="translate(-342.56 -1613.39)"/>
                        <path class="cls-2" d="M824.84,1818.25c-7.81-.41-19.79-7.35-27.16-9.14-9.12-2.21-16.19,2.06-19.26-1.95-1.07-1.41-1.47-3.6-.65-4.54,1.14-1.33,3.94.56,7.82-.13,2.68-.47,4.32-1.9,6.29-3.46,6-4.74,10.13-8,13.92-9.36,6-2.09,4.66,3.51,19,3.1Z" transform="translate(-342.56 -1613.39)"/>
                        <path class="cls-2" d="M824.84,1645.25c-5.75.41-11.7,9.92-18.41,12-3.52,1.06-5.26.32-10.28.11-13-.57-26.88,3.9-27,7.68-.07,1.75,2.79,3.18,4.57,4.06,5.54,2.77,8.65.79,15.63,1.48,10.15,1,12.36,6.08,19.77,4.31-.73.17,7.47-5,15.76-3.3Z" transform="translate(-342.56 -1613.39)"/>
                        <path class="cls-2" d="M783.52,1759.12c-6,.08-11.29.21-16.41,3.46-2.49,1.59-3.63,3.08-6.53,4.18-4,1.53-5.49-.09-12.74-.27-7.92-.2-9,1.53-14,.15-3.74-1-3.64-2.12-7.43-2.8-4.28-.77-5.81.36-9.87-.72-.79-.21-6.15-1.63-6.2-3.63-.06-2.47,8.1-5.15,15.14-5.91,7.39-.81,9.32,1,15.21.65,9.84-.49,10.15-5.66,20.46-8.43,13.69-3.68,22.57,2.59,22.15,13.28" transform="translate(-342.56 -1613.39)"/>
                        <path class="cls-2" d="M657.3,1813.87a35.34,35.34,0,0,1,16.37-5.93c4.15-.37,5.09.38,9.45-.1,8.12-.9,9.92-4,16.38-5.52,8.52-2,20.1.06,22.26,5.92,1.25,3.41-.72,8-3.6,9.9-4.79,3.21-12.77-.54-15.63-1.88-1-.49-1-.53-1.65-.81-4.17-1.65-7.1-.1-13.14,1-7.57,1.32-13.57.75-15.23-1.48a2.63,2.63,0,0,0-.83-.82c-1.71-1-4,.7-6.15,1.3C663.83,1815.9,661.19,1816,657.3,1813.87Z" transform="translate(-342.56 -1613.39)"/>
                        <path class="cls-2" d="M542.86,1785.93a25.63,25.63,0,0,1,13.52-3.85c4.56.09,7.14,1.58,10.27-.11s2.29-4.29,5.68-6.63c3.58-2.48,9.16-2.78,12.73-.55,2.54,1.58,2.24,3.3,4.57,4.06,2.9,1,4.08-1.47,8.61-1.74.34,0,6.81-.31,9.9,3.6,1.24,1.55.84,2.4,2.09,3.26,2.34,1.61,4.76-.63,7.81.33,2.89.9,5.44,4.37,5,6.93-.7,4.17-9.54,7.41-16.79,5.93-6-1.23-6.45-4.84-13.21-6-5.15-.89-5.22,1.16-11.91.54-6.49-.59-7.6-2.62-14-2.73-4.19-.06-4.8.79-8.62.92C554.89,1790,549.56,1789.43,542.86,1785.93Z" transform="translate(-342.56 -1613.39)"/>
                        <path class="cls-3" d="M345.28,1743.46c3.73,0,4.41-3.06,5.34-4.11,7-7.87,22.14-8.45,34.82-4.78,9.56,2.76,9.84,7.94,18.95,8.42,5.47.29,7.25-1.47,14.1-.67,6.53.76,14.09,3.43,14,5.91,0,2-5,3.42-5.75,3.63-3.76,1.08-5.18,0-9.15.73-3.51.68-3.42,1.77-6.89,2.8-4.65,1.38-5.6-.34-12.94-.14-6.72.19-8.11,1.81-11.81.28-2.68-1.1-3.74-2.59-6.05-4.17-4.89-3.35-1.79-3.27-15.2-3.45-11.86-.16-7.66,3.47-19.45,3.36Z" transform="translate(-342.56 -1613.39)"/>
                        <path class="cls-3" d="M824.22,1895.11c-3.73,0-4.41,3.06-5.34,4.11-7,7.86-22.14,8.45-34.82,4.78-9.56-2.77-9.84-7.94-18.95-8.42-5.47-.29-7.25,1.46-14.1.67-6.53-.76-14.09-3.43-14-5.91,0-2,5-3.42,5.75-3.63,3.76-1.09,5.18,0,9.15-.73,3.51-.69,3.42-1.77,6.89-2.8,4.65-1.38,5.6.34,12.94.14,6.72-.19,8.11-1.81,11.81-.29,2.68,1.11,3.74,2.6,6.05,4.18,4.89,3.35,1.79,3.27,15.2,3.45,11.86.16,7.66-3.48,19.45-3.36Z" transform="translate(-342.56 -1613.39)"/>
                        <path class="cls-4" d="M423.2,1790.2a31.33,31.33,0,0,0-15.17-5.92c-3.84-.35-4.71.39-8.76-.09-7.52-.89-9.19-4-15.18-5.5-7.89-2-18.62.08-20.62,5.94-1.17,3.41.65,8,3.32,9.9,4.44,3.19,11.84-.56,14.49-1.9,1-.49.89-.53,1.53-.81,3.87-1.65,6.57-.1,12.18,1,7,1.33,12.57.75,14.1-1.49a2.62,2.62,0,0,1,.77-.81c1.6-1,3.69.69,5.7,1.29C417.14,1792.24,419.59,1792.32,423.2,1790.2Z" transform="translate(-342.56 -1613.39)"/>
                        <path class="cls-4" d="M430.25,1851.88c-5.23-3.25-9.5-3.9-12.53-3.84-4.23.1-6.62,1.59-9.52-.1s-2.12-4.29-5.26-6.63c-3.31-2.47-8.48-2.77-11.8-.54-2.35,1.59-2.07,3.3-4.23,4.07-2.69,1-3.78-1.48-8-1.73-.32,0-6.31-.31-9.18,3.6-1.15,1.56-.78,2.4-1.94,3.26-2.16,1.61-4.4-.62-7.24.34-2.67.9-5,4.37-4.64,6.93.64,4.17,8.84,7.4,15.55,5.92,5.61-1.24,6-4.85,12.25-6,4.78-.9,4.83,1.15,11,.53,6-.6,7-2.63,13-2.74,3.88-.07,4.45.78,8,.91C419.09,1856,424,1855.38,430.25,1851.88Z" transform="translate(-342.56 -1613.39)"/>
                        <path class="cls-4" d="M664.89,1943.1c-5.23-3.25-9.49-3.89-12.52-3.83-4.23.09-6.63,1.58-9.52-.1s-2.12-4.29-5.26-6.63c-3.32-2.48-8.49-2.77-11.8-.54-2.36,1.59-2.08,3.3-4.24,4.06-2.68,1-3.78-1.47-8-1.73-.32,0-6.3-.3-9.18,3.6-1.14,1.56-.77,2.41-1.93,3.27-2.17,1.61-4.41-.63-7.24.33s-5,4.38-4.65,6.94c.65,4.17,8.84,7.4,15.55,5.92,5.62-1.24,6-4.85,12.25-6,4.78-.9,4.84,1.15,11,.53,6-.6,7-2.63,13-2.74,3.89-.07,4.46.78,8,.91C653.73,1947.18,658.68,1946.61,664.89,1943.1Z" transform="translate(-342.56 -1613.39)"/>
                        <path class="cls-4" d="M361.1,1895.79c.88-5.06,13.7-6.4,19.31-7,6.84-.71,12.07-1.19,15.21,2,2.25,2.32,2,5.06,4.93,6.58,1.93,1,3,.32,7,.41,2.89.06,7.52.16,11.51,2.46,1.18.68,6.23,3.59,6.16,7.81-.05,4-4.72,7.67-9,8.22-4.77.61-6-3-14.38-5.75a35.63,35.63,0,0,0-14.79-2.06c-6.47.6-8.06,2.88-12.33,1.65-3.25-1-5.35-3.15-8.22-6.17C362.71,1900.09,360.71,1898,361.1,1895.79Z" transform="translate(-342.56 -1613.39)"/>
                        <path class="cls-4" d="M349.59,1660.74c.89-5.07,13.71-6.4,19.32-7,6.84-.71,12.06-1.18,15.2,2.06,2.25,2.32,2,5,4.93,6.57,1.93,1,3,.33,7,.41,2.88.07,7.51.17,11.5,2.47,1.18.68,6.23,3.59,6.17,7.81-.06,4-4.72,7.67-9,8.22-4.78.6-6-3-14.39-5.76a35.63,35.63,0,0,0-14.79-2c-6.47.59-8.06,2.88-12.33,1.64-3.25-.94-5.34-3.14-8.22-6.16C351.21,1665,349.21,1662.94,349.59,1660.74Z" transform="translate(-342.56 -1613.39)"/>
                        <path class="cls-4" d="M511.5,1962.37c.89-5.07,13.7-6.41,19.31-7,6.85-.71,12.07-1.18,15.21,2,2.25,2.32,2,5.06,4.93,6.58,1.93,1,3,.32,7,.41,2.88.06,7.51.16,11.5,2.47,1.18.67,6.23,3.58,6.17,7.8-.06,4-4.73,7.67-9,8.22-4.78.61-6-3-14.39-5.75a35.6,35.6,0,0,0-14.79-2.06c-6.47.6-8.06,2.88-12.33,1.65-3.25-.94-5.34-3.14-8.22-6.17C513.12,1966.67,511.12,1964.56,511.5,1962.37Z" transform="translate(-342.56 -1613.39)"/>
                        <path class="cls-4" d="M425.2,1987c.89-5.07,13.71-6.4,19.32-7,6.84-.72,12.06-1.19,15.2,2,2.25,2.32,2,5.05,4.93,6.58,1.93,1,3,.32,7,.41,2.89.06,7.52.16,11.51,2.46,1.17.68,6.22,3.59,6.16,7.81-.06,4-4.72,7.67-9,8.22-4.78.61-6-3-14.38-5.75a35.51,35.51,0,0,0-14.8-2.06c-6.47.59-8,2.88-12.32,1.64-3.26-.94-5.35-3.14-8.22-6.16C426.82,1991.32,424.82,1989.22,425.2,1987Z" transform="translate(-342.56 -1613.39)"/>
                        <path class="cls-4" d="M538.21,1846.07c.56-1.58,3.3-.57,8.63-3.29,3.61-1.84,3.79-3,7-4.11,1.47-.49,4.7-1.58,7.8-.41s3.06,3.61,5.76,5.76c2.33,1.84,4.32,1.56,17.67,1.23,7-.17,10.22-.19,14.38.82a21.63,21.63,0,0,1,7.4,3.29c1.9,1.33,5,4,4.52,4.93-.65,1.22-6.17-2.7-13.56-2.06-6.4.57-7.92,4-14.39,5.76-5.78,1.57-6.38-1-17.25-1.24-9.32-.21-10.31,1.35-15.21,0C543.39,1854.68,537.29,1848.65,538.21,1846.07Z" transform="translate(-342.56 -1613.39)"/>
                        <path class="cls-4" d="M743.68,1987.43c2.38-2.57,5.18-3.57,7.81-4.52a33.45,33.45,0,0,1,12.33-1.64c9.33.27,11.21,3.19,14.79,1.23,3.75-2,3.25-6.1,7.4-7.4,3-.94,4.56.82,6.57-.41,3.6-2.19,1.69-9.61,2.88-9.86,1.49-.31,8.47,10.61,4.52,18.49-3.52,7-13.94,8.14-18.49,8.63-8.55.93-10.44-1.93-15.62.41-5.91,2.68-5.41,7.29-11.92,10.28-3.68,1.69-10.2,3.13-13.15,0C737.56,1999.2,739.86,1991.55,743.68,1987.43Z" transform="translate(-342.56 -1613.39)"/>
                        <path class="cls-4" d="M466.3,1919.22c1.08-4.16,8.57-5.28,9-5.35a15.06,15.06,0,0,1,9,1.65c4.28,2.37,3.83,5.18,7.4,6.16,2.65.73,3.24-.74,7.8,0,3.46.56,4.92,1.7,5.35,2.06,1.55,1.3,1.25,2.08,2.46,2.87,2.92,1.92,7.07-1.06,7.81,0,.61.88-1.31,4.23-4.52,5.76-1.88.89-3.63.89-11.51-.41s-7.49-1.52-9.86-1.65c-6.61-.34-7.51,1.57-11.51.82C471.49,1930,465.15,1923.6,466.3,1919.22Z" transform="translate(-342.56 -1613.39)"/>
                        <path class="cls-4" d="M484.38,1915.52c4.28,2.37,3.83,5.18,7.4,6.16" transform="translate(-342.56 -1613.39)"/>
                    </g>
                    <g id="MIDDLE">
                        <path class="cls-4" d="M413.7,1824.29c.19-3.78,14.11-8.1,27.12-7.4,5,.28,6.75,1,10.27,0,6.73-2,6.77-7.33,12.74-11.5,9.82-6.86,23.7-2.68,27.12-1.65,8.49,2.56,7.37,6.71,14.8,8.22,9.19,1.87,16.1-2.66,19.31,1.24,1.13,1.36,1.6,3.54.82,4.52-1.08,1.36-4-.42-7.8.41-2.67.57-4.26,2.06-6.17,3.7-5.78,4.94-9.82,8.4-13.56,9.86-5.94,2.31-6.75-2.12-20.55-2.47-10.12-.25-16.34,2-17.67,2.47-4.2,1.56-3.8,2.24-6.57,2.87-7.43,1.7-9.59-3.4-19.73-4.52-7-.77-10.1,1.19-15.61-1.64C416.45,1827.49,413.61,1826,413.7,1824.29Z" transform="translate(-342.56 -1613.39)"/>
                        <path class="cls-4" d="M525.47,1911c0-2.48,8.15-5.06,15.21-5.75,7.4-.73,9.3,1,15.2.82,9.84-.39,10.2-5.56,20.55-8.22,13.73-3.53,27.49,1.87,37.39,5.75,1,.4,3.52,2.29,7.4,3.29,4.55,1.18,6.36-.56,10.68.41,4.12.92,8.5,3.62,8.22,5.34-.45,2.83-13.31,2.88-14,2.88-12.73,0-14.73-4.14-27.53-4.11-6,0-11.29.09-16.44,3.29-2.51,1.56-3.67,3-6.57,4.11-4,1.48-5.5-.16-12.74-.41-7.93-.29-9,1.43-14,0-3.74-1.07-3.62-2.16-7.4-2.88-4.28-.82-5.82.3-9.86-.82C530.85,1914.48,525.5,1913,525.47,1911Z" transform="translate(-342.56 -1613.39)"/>
                        <path class="cls-4" d="M742.45,1840.73c.07-.56,3.61.14,7.39-2.06a15.28,15.28,0,0,0,2.12-1.45c1.39-1.26,1.72-2.4,3.64-3.48,6.2-3.5,16.28.43,19.72,4.52a4,4,0,0,0,.82.82c2.56,1.83,6-.94,11.51-1.64,3.41-.43,7.87-.09,8.22,1.23s-4.06,3.84-6.58,4.93c-1.53.67-10.64,4.47-19.72.42-.89-.4-.9-.53-1.65-.83-4.48-1.79-8,.25-12.32.83C748.45,1845,742.34,1841.48,742.45,1840.73Z" transform="translate(-342.56 -1613.39)"/>
                        <path class="cls-4" d="M437.53,1879a35.39,35.39,0,0,1,16.44-5.76c4.15-.32,5.08.44,9.45,0,8.12-.81,10-3.92,16.44-5.34,8.54-1.88,20.09.28,22.19,6.16,1.22,3.42-.8,8-3.7,9.87-4.83,3.15-12.77-.69-15.61-2.06-1-.49-1-.54-1.65-.82-4.15-1.69-7.09-.17-13.15.82-7.58,1.25-13.57.61-15.2-1.64a2.68,2.68,0,0,0-.82-.82c-1.71-1-4,.65-6.17,1.23C444.05,1881.05,441.4,1881.1,437.53,1879Z" transform="translate(-342.56 -1613.39)"/>
                        <path class="cls-4" d="M632.32,1879a35.32,35.32,0,0,1,16.43-5.76c4.15-.32,5.08.44,9.45,0,8.13-.81,10-3.92,16.44-5.34,8.54-1.88,20.09.28,22.19,6.16,1.22,3.42-.8,8-3.7,9.87-4.83,3.15-12.77-.69-15.61-2.06-1-.49-1-.54-1.65-.82-4.15-1.69-7.09-.17-13.14.82-7.59,1.25-13.57.61-15.21-1.64a2.68,2.68,0,0,0-.82-.82c-1.71-1-4,.65-6.17,1.23C638.83,1881.05,636.19,1881.1,632.32,1879Z" transform="translate(-342.56 -1613.39)"/>
                        <path class="cls-4" d="M367.26,1946.34a25.59,25.59,0,0,1,13.56-3.7c4.56.14,7.13,1.66,10.28,0s2.33-4.26,5.75-6.57c3.6-2.44,9.18-2.69,12.74-.42,2.52,1.62,2.2,3.33,4.52,4.11,2.89,1,4.1-1.43,8.63-1.64.34,0,6.81-.24,9.86,3.7,1.22,1.57.81,2.41,2.06,3.29,2.31,1.63,4.76-.58,7.8.41,2.88.93,5.39,4.43,4.93,7-.74,4.16-9.62,7.31-16.84,5.76-6.05-1.3-6.41-4.92-13.15-6.17-5.15-.95-5.23,1.1-11.92.41-6.48-.66-7.57-2.7-14-2.87-4.19-.12-4.82.73-8.63.82C379.26,1950.53,373.93,1949.91,367.26,1946.34Z" transform="translate(-342.56 -1613.39)"/>
                        <path class="cls-4" d="M787,1937.65a25.65,25.65,0,0,1-13,5.38c-4.54.44-7.28-.74-10.19,1.3s-1.78,4.52-4.88,7.24c-3.27,2.88-8.77,3.82-12.58,2-2.71-1.28-2.6-3-5-3.51-3-.6-3.88,1.94-8.35,2.72-.34.06-6.72,1.1-10.25-2.42-1.41-1.41-1.11-2.29-2.45-3-2.51-1.33-4.65,1.17-7.8.57-3-.56-5.9-3.71-5.77-6.3.21-4.22,8.62-8.47,16-7.84,6.16.53,7,4.07,13.83,4.46,5.22.29,5.05-1.75,11.77-1.91,6.51-.16,7.85,1.73,14.22,1.09,4.17-.42,4.68-1.34,8.46-1.91C774.55,1935,779.91,1935,787,1937.65Z" transform="translate(-342.56 -1613.39)"/>
                        <path class="cls-4" d="M574.77,2017.06c-.12,4.19,13.42,10.69,26.3,9.86,6-.38,8.45-2.15,12.74-.41,6.09,2.47,5.23,7.71,11.91,11.92s14.52,3.24,17.26,2.87a30.1,30.1,0,0,0,13.56-5.34c6.53-4.7,5.26-8,10.28-10.68,6.49-3.49,10.92.79,19.31-1.24,7.79-1.87,7.74-9.41,14.79-10.27,4.76-.58,7.82,1.93,9,.41,1.41-1.73-.73-7.37-4.93-10.27-5.72-4-10.07.78-20.95-2.06-6-1.57-6.12-3.39-11.92-4.11-5.57-.68-7.12.8-12.33-.41-5.83-1.34-6-3.68-9.86-3.69-5.49,0-6.1,4.69-12.33,6.16-7.11,1.68-9.42-3.73-16.44-2.06-5.31,1.27-5,4.63-11.92,7.81-5.37,2.49-7.5,1.35-15.2,2.88C592.51,2008.74,574.9,2012.33,574.77,2017.06Z" transform="translate(-342.56 -1613.39)"/>
                    </g>
                </g>
            </g>
        </g>
    </g>
</svg>