<svg id="CONTENT"
    xmlns="http://www.w3.org/2000/svg" viewBox="0 0 1025 933.33">
    <defs>
        <style>.cls-1{fill:none;}.cls-1,.cls-2,.cls-3{stroke:#fff;stroke-miterlimit:10;}.cls-1,.cls-2{stroke-width:5px;}.cls-2,.cls-3{fill:#fff;}.cls-3{stroke-width:0.75px;}</style>
    </defs>
    <g id="NEW_MEDIUM" data-name="NEW MEDIUM">
        <g id="FIRE_MEDIUM">
            <g id="JUNCTION_FIRE_SMALL">
                <g id="BOTTOM">
                    <g id="FOND">
                        <path id="FOND-2" data-name="FOND" d="M1097.36,2193.93c-68,0-45.86-42.31-63.25-47.85-21.2-6.74-39.15-8.13-55.22-19.11-22.72-15.52-20.47-67.78-35.65-68-14.33-.26-9.67-7.09-18.33-12.22-4.3-2.56-8.4-8.4-16.58-20.08-5.57-7.94-7.24-11.4-12.22-14-5.63-2.89-9-1.3-14.84-2.61-7.59-1.7-12-6.62-21.83-18.33-22.58-27.07-22.73-29.5-28.8-33.17-9.21-5.58-13.62-2.87-33.17-5.24-12.27-1.49-53.6-7-84.67-34.92-9.5-8.53-7.72-9.89-14-14.84-17.82-14.1-50.48-17.44-111.73,8.73-43.85,43.43-65.76,48-77.68,42.77-5.72-2.49-10.54-7.84-20.08-8.72-12-1.11-26.72,4.51-34,15.71-5.62,8.6-2.67,14.07-7.86,19.2-7.28,7.19-18.87,1.93-34,.87-20.89-1.45-13.38,18.88-24.69,29.37-4.5,4.17-9.6,4.78-12.84,5.55-27.72,6.55-36.3,52.09-69,69.83-23.08,12.54-28.89-4.71-61.1,7.86-33.77,13.17-31.83,33.86-61.11,41-24,5.86-34.58-12.66-63.72-.87-17.24,7-14.29,7-48.28,7v42.48c-1.06,222.64,1.28,405.84,0,628.75h50.43a44.38,44.38,0,0,0,16.22-3.08c13.86-5.46,29.3-11.32,41-3,4.83,3.43,6,6.49,10.48,10.48,8.29,7.42,26.87,1.8,56.73-2.62,9.47-.08,38.52,10.7,64.59-14a93.27,93.27,0,0,0,20.95-29.68c5.06-38.26,18.32-53,29.68-59.35,11.58-6.47,20.29-3.69,50.63-12.22,1.25-.36,21.58-6.12,34.92-12.22,31.24-14.31,31.61-37.84,61.1-62.85,16.9-14.34,32.74-20.93,45.39-26.19,59.52-24.76,150-25.36,186.8,17.46,7,8.1,13.44,19.43,29.67,29.68,19.83,12.52,27.17,6.35,47.14,17.45,22.94,12.76,36.81,34,45.39,47.14,11.72,17.94,10.13,22.58,19.2,29.68,13.86,10.84,29.31,9.23,52.38,9.6,6.9.11,52.21.85,78.56,8.73,19,5.67,28.66,46.47,69,46.47h14.39" transform="translate(-72.42 -1890.24)"/>
                        <path id="CONTOUR_BAS" data-name="CONTOUR BAS" class="cls-1" d="M72.7,2813.07h50.43a44.38,44.38,0,0,0,16.22-3.08c13.86-5.46,29.3-11.32,41-3,4.83,3.43,6,6.49,10.48,10.48,8.29,7.42,26.87,1.8,56.73-2.62,9.47-.08,38.52,10.7,64.59-14a93.27,93.27,0,0,0,20.95-29.68c5.06-38.26,18.32-53,29.68-59.35,11.58-6.47,20.29-3.69,50.63-12.22,1.25-.36,21.58-6.12,34.92-12.22,31.24-14.31,31.61-37.84,61.1-62.85,16.9-14.34,32.74-20.93,45.39-26.19,59.52-24.76,150-25.36,186.8,17.46,7,8.1,13.44,19.43,29.67,29.68,19.83,12.52,27.17,6.35,47.14,17.45,22.94,12.76,36.81,34,45.39,47.14,11.72,17.94,10.13,22.58,19.2,29.68,13.86,10.84,29.31,9.23,52.38,9.6,6.9.11,52.21.85,78.56,8.73,19,5.67,28.66,46.47,69,46.47h14.39" transform="translate(-72.42 -1890.24)"/>
                        <path id="CONTOUR_HAUT" data-name="CONTOUR HAUT" class="cls-1" d="M1097.36,2193.93c-68,0-45.86-42.31-63.25-47.85-21.2-6.74-39.15-8.13-55.22-19.11-22.72-15.52-20.47-67.78-35.65-68-14.33-.26-9.67-7.09-18.33-12.22-4.3-2.56-8.4-8.4-16.58-20.08-5.57-7.94-7.24-11.4-12.22-14-5.63-2.89-9-1.3-14.84-2.61-7.59-1.7-12-6.62-21.83-18.33-22.58-27.07-22.73-29.5-28.8-33.17-9.21-5.58-13.62-2.87-33.17-5.24-12.27-1.49-53.6-7-84.67-34.92-9.5-8.53-7.72-9.89-14-14.84-17.82-14.1-50.48-17.44-111.73,8.73-43.85,43.43-65.76,48-77.68,42.77-5.72-2.49-10.54-7.84-20.08-8.72-12-1.11-26.72,4.51-34,15.71-5.62,8.6-2.67,14.07-7.86,19.2-7.28,7.19-18.87,1.93-34,.87-20.89-1.45-13.38,18.88-24.69,29.37-4.5,4.17-9.6,4.78-12.84,5.55-27.72,6.55-36.3,52.09-69,69.83-23.08,12.54-28.89-4.71-61.1,7.86-33.77,13.17-31.83,33.86-61.11,41-24,5.86-34.58-12.66-63.72-.87-17.24,7-14.29,7-48.28,7" transform="translate(-72.42 -1890.24)"/>
                    </g>
                    <g id="WHITE_MARK">
                        <path class="cls-2" d="M665.26,2105.55c12.06,6.79,21.85,8.06,28.8,7.85,9.69-.29,15.14-3.51,21.82,0,6.88,3.62,5,9.06,12.23,14,7.65,5.18,19.51,5.69,27,.87,5.36-3.42,4.68-7,9.61-8.73,6.13-2.08,8.7,3,18.33,3.5.73,0,14.46.5,20.95-7.86,2.59-3.34,1.72-5.13,4.36-7,4.93-3.47,10.12,1.23,16.59-.88,6.1-2,11.44-9.41,10.47-14.84-1.58-8.83-20.44-15.52-35.79-12.22-12.84,2.77-13.6,10.45-27.93,13.1-10.92,2-11.11-2.33-25.31-.88-13.76,1.42-16.08,5.75-29.68,6.11-8.9.24-10.23-1.55-18.33-1.74C690.74,2096.64,679.42,2098,665.26,2105.55Z" transform="translate(-72.42 -1890.24)"/>
                        <path class="cls-2" d="M722,2221.64c.25,8.89-28.51,22.71-55.87,21-12.77-.82-18-4.56-27.06-.87-12.94,5.25-11.13,16.37-25.31,25.31-14.36,9-30.83,6.88-36.66,6.11a64,64,0,0,1-28.81-11.35c-13.86-10-11.18-17-21.82-22.69-13.79-7.4-23.21,1.67-41-2.62-16.54-4-16.44-20-31.42-21.82-10.11-1.24-16.61,4.09-19.2.87-3-3.69,1.55-15.66,10.47-21.82,12.15-8.38,21.39,1.66,44.52-4.37,12.82-3.33,13-7.2,25.31-8.72,11.83-1.47,15.12,1.68,26.19-.88,12.38-2.85,12.74-7.82,21-7.85,11.65,0,13,10,26.18,13.09,15.11,3.57,20-7.92,34.92-4.36,11.28,2.69,10.66,9.81,25.31,16.58,11.42,5.27,16,2.87,32.3,6.11C684.29,2204,721.71,2211.6,722,2221.64Z" transform="translate(-72.42 -1890.24)"/>
                        <path class="cls-3" d="M1051.52,2439.3a22,22,0,0,0-35.49-8.54c-7.95,7.33-15.64,14.82-22.08,19.14-16.55,11.1-33.8,7.78-37,18-1.11,3.6-.29,8.25,2,9.54,3.24,1.8,7.45-4,15.68-5.5,5.69-1,10,.62,15.09,2.29,15.36,5,26.08,8.58,34.61,8.42,10.16-.19,8.85-6,19.78-12.94a21.94,21.94,0,0,0,8.94-26.07Z" transform="translate(-72.42 -1890.24)"/>
                        <path class="cls-3" d="M116.58,2594.82a30.91,30.91,0,0,1,42.51-28.6,115.3,115.3,0,0,0,15.23,5.3c19.36,4.69,34.39-4.39,40.9,4.13,2.28,3,3.12,7.64,1.39,9.66-2.42,2.81-8.38-1.2-16.61.26-5.7,1-9.19,4-13.37,7.36C174,2603,165.12,2610,157.07,2612.8c-12.8,4.45-10-7.46-40.52-6.59Z" transform="translate(-72.42 -1890.24)"/>
                        <path class="cls-3" d="M135,2228.66c3.14,19.37,26.71,27.37,40.93,13.85,7.1-6.75,13.32-14.17,18.41-17.22,6.69-4,10.66-3.39,21.11-5.52,27.12-5.55,53.39-21.91,51.76-29.78-.75-3.63-7.37-5.1-11.5-6-12.84-2.85-18.22,2.85-33,5-20.45,3-27.92-5.32-41,.38a10.47,10.47,0,0,0-2.77,2c-3.53,3.22-39.35-2.3-46.34,22.66Z" transform="translate(-72.42 -1890.24)"/>
                        <path class="cls-3" d="M1067.58,2264c-12.81-.17-24-.46-34.84-7.36-5.3-3.37-7.73-6.53-13.87-8.88-8.5-3.24-11.68.2-27.07.59-16.84.41-19-3.25-29.68-.32-8,2.18-7.73,4.48-15.77,5.94-9.11,1.64-12.36-.77-21,1.52-1.68.45-13.08,3.48-13.18,7.71-.13,5.27,17.2,10.94,32.17,12.57,15.7,1.71,19.79-2,32.31-1.4,20.89,1.05,21.54,12,43.45,17.93,29.08,7.81,47.93-5.52,47.06-28.21" transform="translate(-72.42 -1890.24)"/>
                        <path class="cls-3" d="M274.12,2347.76c-12.8-.17-24-.46-34.84-7.36-5.3-3.37-7.72-6.53-13.87-8.88-8.49-3.24-11.68.2-27.07.58-16.83.42-19-3.24-29.67-.32-7.95,2.19-7.74,4.49-15.78,5.95-9.1,1.64-12.35-.78-21,1.52-1.67.44-13.07,3.47-13.17,7.71-.13,5.26,17.2,10.94,32.16,12.57,15.71,1.71,19.79-2,32.32-1.4,20.88,1,21.54,12,43.45,17.92,29.08,7.82,47.93-5.51,47.06-28.21" transform="translate(-72.42 -1890.24)"/>
                        <path class="cls-3" d="M290.71,2423.7c12.8-.17,24-.46,34.83-7.36,5.31-3.37,7.73-6.53,13.88-8.88,8.49-3.24,11.68.2,27.06.58,16.84.42,19-3.24,29.68-.31,7.95,2.18,7.73,4.48,15.78,5.94,9.1,1.64,12.35-.78,21,1.52,1.68.44,13.08,3.48,13.18,7.71.13,5.26-17.2,10.94-32.16,12.57-15.71,1.71-19.79-2-32.32-1.4-20.88,1-21.54,12-43.45,17.93-29.08,7.81-47.93-5.52-47.06-28.22" transform="translate(-72.42 -1890.24)"/>
                        <path class="cls-3" d="M377,2346.68c12.75,8.28,24.51,11.7,34.78,12.6,8.81.77,10.8-.81,20.08.22,17.23,1.9,21.06,8.55,34.79,11.72,18.1,4.18,42.68-.15,47.27-12.59,2.67-7.24-1.52-17-7.63-21-10.19-6.8-27.14,1.16-33.21,4-2.2,1-2,1.12-3.51,1.7-8.86,3.51-15.07.21-27.91-2-16.07-2.82-28.81-1.61-32.34,3.14a5.57,5.57,0,0,1-1.76,1.73c-3.65,2.14-8.46-1.47-13.06-2.76C390.88,2342.37,385.27,2342.2,377,2346.68Z" transform="translate(-72.42 -1890.24)"/>
                        <path class="cls-3" d="M691.68,2307.39c12,6.92,21.77,8.3,28.72,8.17,9.69-.19,15.17-3.35,21.82.23,6.83,3.69,4.86,9.11,12.07,14.1,7.6,5.26,19.44,5.9,27,1.16,5.4-3.36,4.75-7,9.7-8.62,6.16-2,8.67,3.13,18.29,3.69.73,0,14.46.65,21-7.63,2.63-3.32,1.79-5.11,4.44-6.94,5-3.42,10.1,1.34,16.6-.7,6.13-1.91,11.54-9.29,10.63-14.72-1.48-8.85-20.27-15.74-35.66-12.61-12.86,2.63-13.71,10.3-28.07,12.8-10.94,1.9-11.08-2.45-25.3-1.15-13.77,1.27-16.13,5.58-29.74,5.79-8.91.15-10.21-1.66-18.31-1.94C717.25,2298.76,705.92,2300,691.68,2307.39Z" transform="translate(-72.42 -1890.24)"/>
                        <path class="cls-3" d="M883.06,2651.7c9.55,10,18.54,14.12,25.24,16,9.35,2.56,15.5,1.08,20.86,6.4,5.52,5.47,2.09,10.11,7.59,16.93,5.81,7.2,17,11.17,25.62,8.77,6.12-1.7,6.53-5.38,11.74-5.53,6.47-.19,7.43,5.46,16.5,8.71.69.25,13.68,4.72,22.33-1.37,3.46-2.43,3.15-4.39,6.22-5.39,5.73-1.88,9.31,4.14,16.11,4,6.42-.1,13.7-5.64,14.37-11.11,1.08-8.91-15-20.84-30.64-22.18-13.08-1.12-16.07,6-30.54,4.33-11-1.27-9.94-5.48-24-8.25-13.56-2.69-17,.78-30.16-2.86-8.58-2.38-9.33-4.49-17-7C910,2650.65,898.83,2648.6,883.06,2651.7Z" transform="translate(-72.42 -1890.24)"/>
                        <path class="cls-3" d="M776.58,2493.32c-12,6.91-21.77,8.3-28.72,8.16-9.69-.19-15.18-3.35-21.82.24-6.84,3.69-4.87,9.11-12.07,14.09-7.6,5.26-19.45,5.91-27.05,1.17-5.4-3.37-4.75-7-9.7-8.63-6.15-2-8.67,3.13-18.29,3.69-.73,0-14.45.66-21-7.63-2.63-3.31-1.78-5.11-4.44-6.94-5-3.41-10.1,1.34-16.59-.69-6.13-1.92-11.55-9.29-10.64-14.73,1.49-8.85,20.28-15.74,35.66-12.6,12.87,2.62,13.72,10.3,28.07,12.79,10.95,1.9,11.08-2.45,25.3-1.14,13.78,1.26,16.14,5.57,29.75,5.79,8.9.14,10.21-1.67,18.31-1.94C751,2484.68,762.33,2485.89,776.58,2493.32Z" transform="translate(-72.42 -1890.24)"/>
                        <path class="cls-2" d="M102.52,2728.45c7.92,0,9.41,6.51,11.38,8.73,14.83,16.71,47,18,74,10.16,20.3-5.87,20.9-16.86,40.25-17.89,11.61-.62,15.4,3.12,29.95,1.42,13.86-1.61,29.92-7.28,29.8-12.54-.1-4.24-10.66-7.28-12.22-7.72-8-2.3-11,.11-19.43-1.54-7.46-1.46-7.26-3.77-14.63-6-9.89-2.94-11.9.72-27.5.29-14.26-.39-17.22-3.84-25.08-.6-5.7,2.34-7.94,5.5-12.85,8.86-10.39,7.12-3.79,6.95-32.28,7.34-15.38.2-18-2.59-23.49-4.75a13.07,13.07,0,0,0-17.87,12.14Z" transform="translate(-72.42 -1890.24)"/>
                        <path class="cls-2" d="M1075,2586.41a9.14,9.14,0,0,1-6.72,6.76c-4.21.92-6.37,4.58-8.21,5.82-18.51,12.52-50,5.74-74.18-8.48-18.21-10.72-16.07-21.52-34.56-27.32-11.09-3.47-15.69-.79-29.37-6-13-5-27.18-14.47-25.76-19.53,1.15-4.08,12.14-4.41,13.75-4.46,8.31-.25,10.63,2.84,19.21,3.33,7.58.43,8-1.85,15.65-2.14,10.31-.4,11.34,3.65,26.57,7.1,13.91,3.15,17.63.54,24.45,5.63,4.93,3.68,6.32,7.3,10.25,11.78,8.3,9.46,1.94,7.66,29.45,15.1,20.16,5.45,19-.28,31.76,1.27a9,9,0,0,1,7.71,11.18Z" transform="translate(-72.42 -1890.24)"/>
                        <path class="cls-2" d="M386,2266.89c-11.8,8.27-22.7,11.68-32.22,12.57-8.16.76-10-.82-18.6.2-16,1.89-19.51,8.53-32.23,11.69-16.77,4.17-39.56-.17-43.82-12.62-2.48-7.24,1.39-17,7.05-21,9.44-6.79,25.16,1.18,30.78,4,2,1,1.9,1.13,3.26,1.71,8.21,3.51,14,.22,25.86-2,14.9-2.81,26.7-1.59,30,3.16a5.32,5.32,0,0,0,1.64,1.73c3.38,2.15,7.83-1.46,12.1-2.75C373.13,2262.57,378.33,2262.4,386,2266.89Z" transform="translate(-72.42 -1890.24)"/>
                        <path class="cls-2" d="M756.28,2437.33c11.1-6.91,20.17-8.28,26.61-8.14,9,.19,14.06,3.36,20.22-.22,6.33-3.68,4.5-9.11,11.17-14.09,7-5.25,18-5.88,25.07-1.14,5,3.37,4.4,7,9,8.64,5.71,2,8-3.13,16.95-3.68.68,0,13.39-.64,19.49,7.65,2.44,3.31,1.66,5.11,4.12,6.94,4.61,3.42,9.36-1.33,15.38.71,5.68,1.92,10.71,9.29,9.87,14.73-1.37,8.85-18.78,15.72-33,12.58-11.93-2.64-12.72-10.31-26-12.82-10.14-1.91-10.27,2.44-23.45,1.13-12.76-1.28-14.95-5.59-27.56-5.82-8.26-.15-9.47,1.66-17,1.93C780,2446,769.48,2444.77,756.28,2437.33Z" transform="translate(-72.42 -1890.24)"/>
                        <path class="cls-2" d="M367,2513.27c11.11-6.9,20.17-8.28,26.61-8.14,9,.2,14.07,3.36,20.22-.22,6.34-3.68,4.5-9.1,11.18-14.08,7-5.26,18-5.89,25.06-1.15,5,3.37,4.4,7,9,8.64,5.71,2,8-3.13,17-3.68.68,0,13.4-.64,19.5,7.65,2.43,3.31,1.65,5.11,4.12,6.94,4.6,3.42,9.36-1.33,15.37.71,5.69,1.92,10.71,9.3,9.87,14.73-1.37,8.85-18.77,15.72-33,12.58-11.93-2.64-12.72-10.31-26-12.82-10.14-1.91-10.26,2.44-23.44,1.13-12.77-1.28-15-5.59-27.57-5.82-8.25-.15-9.46,1.66-17,1.93C390.68,2521.93,380.18,2520.71,367,2513.27Z" transform="translate(-72.42 -1890.24)"/>
                        <path class="cls-2" d="M777,2197.1c1.88,10.76,29.1,13.6,41,14.84,14.53,1.51,25.63,2.51,32.3-4.37,4.78-4.92,4.21-10.73,10.47-14,4.1-2.11,6.38-.69,14.84-.88,6.13-.13,16-.34,24.44-5.23,2.5-1.44,13.23-7.63,13.1-16.59-.13-8.52-10-16.29-19.21-17.46-10.14-1.29-12.73,6.33-30.55,12.23-5.56,1.83-17.15,5.67-31.42,4.36-13.74-1.26-17.12-6.12-26.19-3.49-6.91,2-11.35,6.67-17.46,13.09C780.39,2188,776.14,2192.43,777,2197.1Z" transform="translate(-72.42 -1890.24)"/>
                        <path class="cls-2" d="M587.54,2040c1.88,10.76,29.11,13.6,41,14.84,14.53,1.51,25.63,2.51,32.29-4.37,4.78-4.92,4.21-10.73,10.48-14,4.09-2.11,6.38-.69,14.84-.87,6.13-.14,16-.35,24.44-5.24,2.49-1.44,13.22-7.63,13.09-16.59-.12-8.52-10-16.29-19.2-17.45-10.15-1.3-12.74,6.32-30.55,12.22-5.56,1.84-17.16,5.67-31.43,4.36-13.74-1.26-17.11-6.12-26.18-3.49-6.91,2-11.36,6.67-17.46,13.09C591,2030.84,586.72,2035.31,587.54,2040Z" transform="translate(-72.42 -1890.24)"/>
                        <path class="cls-2" d="M552.63,2410.08c1.19,3.36,7,1.22,18.33,7,7.67,3.91,8,6.44,14.83,8.73,3.13,1,10,3.36,16.59.87,6.79-2.57,6.48-7.66,12.22-12.22,4.95-3.93,9.18-3.32,37.53-2.62,15,.37,21.72.39,30.56-1.75a45.84,45.84,0,0,0,15.71-7c4-2.82,10.66-8.48,9.6-10.47-1.37-2.59-13.1,5.74-28.81,4.36-13.6-1.19-16.82-8.48-30.55-12.22-12.28-3.34-13.56,2.09-36.66,2.62-19.8.45-21.89-2.86-32.3,0C563.63,2391.8,550.67,2404.61,552.63,2410.08Z" transform="translate(-72.42 -1890.24)"/>
                        <path class="cls-2" d="M275.05,2601.25c1.19,3.35,7,1.21,18.33,7,7.67,3.91,8,6.44,14.84,8.73,3.12,1.05,10,3.36,16.58.87,6.8-2.57,6.48-7.66,12.22-12.22,5-3.93,9.18-3.32,37.54-2.62,14.95.37,21.71.4,30.55-1.74a46,46,0,0,0,15.71-7c4-2.82,10.66-8.47,9.6-10.47-1.37-2.59-13.1,5.74-28.8,4.36-13.6-1.19-16.82-8.48-30.56-12.22-12.27-3.34-13.56,2.09-36.66,2.62-19.79.45-21.88-2.86-32.29,0C286.05,2583,273.1,2595.77,275.05,2601.25Z" transform="translate(-72.42 -1890.24)"/>
                        <path class="cls-2" d="M529.12,2117.6c-6.43,3.75-12.74,4.08-18.66,4.38-2.24.11-11.94.48-26.07-4.25-18.82-6.31-20.84-13.4-29.32-11.62-8.88,1.85-10.37,10.4-19.59,10.48-6.73,0-8.77-4.47-13.62-3.22-8.66,2.24-9.37,18.5-11.92,18.28-3.22-.29-10.69-26.8,2.2-40.38,11.46-12.08,33.35-7.95,42.91-6.15,17.64,3.33,20.65,10.27,32,8.78,13.67-1.79,15.49-11.48,30.56-13.54,8.53-1.17,22.66-.08,26.73,8.1C548.8,2097.45,539.41,2111.58,529.12,2117.6Z" transform="translate(-72.42 -1890.24)"/>
                        <path class="cls-2" d="M914.87,2369.06c2.31,8.83,18.21,11.21,19.21,11.35a31.84,31.84,0,0,0,19.2-3.5c9.1-5,8.14-11,15.71-13.09,5.65-1.55,6.9,1.57,16.59,0,7.34-1.19,10.43-3.6,11.34-4.36,3.32-2.77,2.67-4.42,5.24-6.11,6.21-4.08,15,2.25,16.59,0,1.28-1.87-2.78-9-9.61-12.22-4-1.9-7.71-1.9-24.44.87-16.47,2.72-15.91,3.23-21,3.49-14,.73-15.94-3.32-24.44-1.75C925.89,2346.23,912.44,2359.75,914.87,2369.06Z" transform="translate(-72.42 -1890.24)"/>
                        <path class="cls-2" d="M766.59,2564.81c2.54-8.77,18.5-10.73,19.5-10.85a31.8,31.8,0,0,1,19.1,4c9,5.28,7.85,11.22,15.37,13.5,5.61,1.69,6.94-1.39,16.58.43,7.31,1.38,10.34,3.87,11.23,4.65,3.24,2.85,2.55,4.49,5.08,6.25,6.1,4.23,15.08-1.87,16.58.43,1.24,1.89-3,8.9-9.92,12-4,1.79-7.76,1.7-24.41-1.5-16.39-3.15-15.83-3.64-20.85-4-14-1.1-16,2.9-24.48,1.11C777,2587.91,763.92,2574.06,766.59,2564.81Z" transform="translate(-72.42 -1890.24)"/>
                        <path class="cls-2" d="M247.31,2482c1.86-8.94-11.32-18.15-12.15-18.71a31.7,31.7,0,0,0-18.75-5.43c-10.39.47-12.19,6.24-19.89,4.73-5.75-1.12-5.48-4.47-14.85-7.38-7.11-2.21-10.95-1.42-12.11-1.15-4.19,1-4.35,2.78-7.41,3.14-7.37.89-12.45-8.7-14.85-7.38-2,1.09-1.51,9.28,3.16,15.22,2.72,3.47,6.06,5.13,22.27,10.1,16,4.89,15.69,4.19,20.31,6.2,12.9,5.59,12.81,10.07,21.11,12.44C227.28,2497.48,245.34,2491.37,247.31,2482Z" transform="translate(-72.42 -1890.24)"/>
                    </g>
                </g>
            </g>
        </g>
    </g>
</svg>