<svg id="CONTENT" xmlns="http://www.w3.org/2000/svg" viewBox="0 0 1026.51 1002.57"><defs><style>.cls-1,.cls-4{stroke:#000;}.cls-1,.cls-2,.cls-3,.cls-4{stroke-miterlimit:10;}.cls-1,.cls-3,.cls-4{stroke-width:5px;}.cls-2,.cls-3,.cls-4{fill:#fff;}.cls-2,.cls-3{stroke:#fff;}.cls-2{stroke-width:0.75px;}</style></defs><g id="MEDIUM"><g id="FIRE_MEDIUM"><g id="JUNCTION_FIRE_MEDIUM"><g id="TOP"><g id="TOP-2" data-name="TOP"><path class="cls-1" d="M1094.73,1735.55V1333.43l-145,.27L471.4,1331l-397.29,2.42,1.75,426.65c10.75,5.07,24.08,11.49,44.68,8.76,36.59-4.85,48.68-34.12,70.08-29.79,23.26,4.71,16.65,40.85,47.31,63.08,35.95,26.07,92.95,11.12,108.63,7,39.62-10.39,57.38-29.4,76.22-19.27,14.68,7.88,9.92,22.65,28,35.91,24.11,17.67,56.94,8.29,61.32,7,20-5.8,24.84-17.45,32.42-18.39,10.76-1.35,20.15,19.63,28,31.53,25.29,38.2,81.81,53.45,119.15,50.82,35.36-2.5,64.29-21.81,105.12-49.06,31.29-20.89,37.62-31.35,57.82-33.29,34.64-3.34,44.28,24.69,78.85,22.77,29.65-1.64,36.36-23,75.34-40.3,22.11-9.79,49-16.54,85.86-14Z" transform="translate(-71.6 -896.97)"/><path class="cls-1" d="M478.85,1228.3c11-1.12,13.32,15.56,30.66,20.15,20,5.29,41.9-10.38,43.81-11.38,10.55-5.6,12.36-13.35,23.65-16.65a43.49,43.49,0,0,1,19.27-.88c12.32,2.18,14.49,9.55,22.78,11.39,11.32,2.52,18.38-8,34.17-17.52,27-16.27,64.44-20.56,73.59-7.88,2.81,3.9,2.9,9.35,1.75,13.14-4.56,15-31.61,13.91-34.17,26.28-1,5,2.55,9.66,5.26,13.14,12.32,15.83,36.79,17.33,58.7,18.4,27.33,1.33,37.36-2.83,42.92,4.38,7.67,9.94-2.18,29.76-3.5,32.41-8.59,17.28-20.89,19.11-29.79,39.43-3.27,7.48-5.21,11.9-3.5,16.64,3.76,10.48,20.66,9.77,45.55,16.65,27.83,7.69,23.28,13.16,55.2,23.65,32.94,10.83,44.24,7.12,53.44,19.27,10.91,14.43,6.07,34.31,5.25,37.68-5.66,23.26-26.08,35.21-33.29,39.42-21.79,12.74-29.3,4.09-64,17.52-12.93,5-22.65,10.39-40.3,20.15-25,13.82-23.14,15.3-37.67,22.78-15.45,8-47.49,24.45-85,18.4-11.56-1.87-14.87-7.77-28-8.77-7.27-.55-17.4-2-26.29,3.51-6.35,4-5.15,7-10.51,9.64-11.84,5.73-28.06-4.32-32.41-7-11.69-7.24-10.28-11.7-19.28-14.9-8.66-3.07-22.17-3.26-29.78,5.26-4.28,4.79-1.84,7.56-5.26,12.27-6.83,9.38-20.37,3.48-63.95,2.62-6.82-.13-11.79-.09-16.65-3.5-8.1-5.69-7.29-15-12.26-27.16a68.2,68.2,0,0,0-22.78-28.91c-14.42-10-25.4-3.22-55.19-4.38-17.76-.69-51-2-76.22-22.78-6.53-5.39-25-20.64-24.53-41.17.67-29.76,40.6-48.48,43.8-49.94,41.35-18.77,73.41,4.08,89.36-15.77,9-11.26,8.54-30.8,1.75-42.93-8.53-15.25-23.62-12.7-30.66-28-5.61-12.21-3.67-30.46,6.13-38.55,12.21-10.07,25.92,4.42,55.2-.87,6.29-1.14,29.6-6.14,47.3-24.53C468.38,1243.45,468.81,1229.33,478.85,1228.3Z" transform="translate(-71.6 -896.97)"/><path class="cls-1" d="M424.53,1732.05s-7.71-12.07-17.26-17l-1.13-.56c-14-6.82-18.63-1.33-36.8-5.25-23-5-41.68-18.83-44.68-30.67a10.5,10.5,0,0,0-.87-2.62c-3.84-7.4-16.43-5.81-32.42-7.89-12-1.55-22.78-3-33.29-9.63-11.56-7.35-10.49-13.28-21-17.53-10.34-4.17-14,.52-26.28-2.62-9.61-2.46-25.38-9.89-26.28-20.15-1.06-12.1,19-23,30.66-27.16,5.44-2,6.18-1.42,31.54-4.38s36.07-4.84,46.43-12.27c4.36-3.12,9.8-7.13,9.64-12.26-.25-7.92-13.68-15.06-25.41-15.77-6.25-.38-6.68,1.39-16.64,2.63-9.34,1.16-20.33,2.52-30.66-1.76-11.9-4.91-10.55-12.16-23.66-17.52-10.11-4.13-12.47-.45-20.15-4.38-12.52-6.41-21.53-24-16.64-36.79,2.33-6.09,7.13-9.27,13.14-13.14,12.41-8,25.36-10.88,39.42-12.27,26.56-2.63,28.23,2.9,49.06,0,14.59-2,34.61-4.81,40.3-17.52,4.92-11-5-20.28,1.75-33.29,3.87-7.49,10.58-11.07,14.46-13.14,19.4-10.36,40.84-1.59,44.83.12a18.22,18.22,0,0,0,8.16-1.27l34.7-14a18.1,18.1,0,0,1,5.28-1.26l31.4-2.67,17.81-2.06a13.87,13.87,0,0,0,10.15-6.34c7.37-11.59,13.58-26.77,2.9-28.67l-61.62-2.65-.84-.09h0a24.33,24.33,0,0,1-15.24-5.37l-20.43-16.46a17.28,17.28,0,0,0-1.86-1.31,52.1,52.1,0,0,0-11.85-5.24c-.39-.11-.79-.22-1.19-.31l-50.22-11.47A18.17,18.17,0,0,1,307,1286.53l-1.91-8.57a18.18,18.18,0,0,1,8-19.27l9-5.75a51,51,0,0,1,25.8-8s36.81,7,55,3.51a64.22,64.22,0,0,0,9.41-2.61l6.13-3.51a25.82,25.82,0,0,0,7.61-6.53l22-27.45a18.14,18.14,0,0,1,15.73-5.29c11.35,1.71,30.86,3.31,42.73-3.22q25.62-16,51.25-32c8.82-2.2,21.42-3.89,35,0,15.68,4.47,20.11,12.76,31.54,19.27,26.05,14.84,42.23-5.86,79.38,0,39.52,6.24,37.91,32.31,75.68,35,27.57,2,34.28-11.47,63.08-5.25,17.45,3.76,21.93,10.21,43.8,15.77,18,4.56,29.24-2.56,46.43,4.38,13.14,5.3,17.06,7.81,18.4,11.38,2.78,7.38-2.06,17.14-8.76,21.91-9.61,6.84-21.44,2.26-32.41.87-28.46-3.59-36,16.17-75.35,28.91-44.32,14.36-52.86-4.87-91.11,12.27-27.29,12.22-25.59,23.2-48.18,27.16-17.61,3.08-34.42-.84-61.33,6.13-6,1.55-14.87,4.26-17.52,11.39a15.22,15.22,0,0,0,1.76,13.14c6.12,9.25,22,8.21,35.91,7.88,37-.88,65.35-1.55,90.24,9.64,18.51,8.32,16.26,14.72,34.17,20.15,17.21,5.22,28.34,2.06,56.06.88,30.39-1.3,45.6-1.53,51.69.87,26.72,10.55,40.42,39.65,57.82,35,2.41-.63,4.71-1.86,8.76-1.75,8.66.25,18.79,6.45,21.91,15.77,4,11.89-4.7,25-14,30.66-11.52,7-20.4.27-38.55,4.38-14.39,3.27-13.07,9.81-28.91,14.9-13.24,4.25-24.76,3.84-34.17,3.5-22.48-.81-28.21-6.53-39.42-2.63-10.12,3.53-21.63,12.26-21,20.15.89,11.77,29.45,22.62,53.44,22.78,11.05.08,17.48-2.15,28,1.75,3.11,1.15,19.73,7.29,21,19.28,1.23,11.42-12.14,21.86-22.78,25.4-7.17,2.39-8.8.21-20.15,1.75-3.41.47-30.21,4.33-31.54,14-.88,6.41,9.62,13.58,17.52,16.65,9.47,3.67,16.46,1.93,25.41,1.75,4.86-.1,23.68.8,40.3,9.64s16.92,18.25,34.16,23.65c4.9,1.53,9.11,1.9,17.52,2.63,26.81,2.32,32.82-3.27,46.44.87,10.32,3.15,25,11.91,25.4,22.78.39,11.65-15.78,22.61-28.91,26.28-15.73,4.41-24.59-2.35-39.42,4.38-5.1,2.32-6.41,6.12-15.77,12.27-5.47,3.6-9,5.89-14,7.88-10.33,4.1-11.08,11.42-17.46,11.12a42,42,0,0,0-23.48,5.48l-38,42.77c-1.25,3.11-11,7.51-26.75,6.12-67.87-6-107.51,60.23-130,65-7.37,1.58-15.71,4-26.28,3.5-23.67-1.08-41.08-13.45-49.06-19.27-15.86-11.57-12.27-15-27.16-27.16-4.63-3.78-43.32-34.67-71.84-22.78-10.27,4.29-13.38,11.69-21.9,10.52-10-1.37-17.2-13.07-20.15-21.91-6.6-19.77,7.07-28.79.88-40.29C474.48,1738.7,435.13,1748.62,424.53,1732.05Z" transform="translate(-71.6 -896.97)"/><path d="M1096.92,1396.78c-21,0-57,87.6-93.74,80.6-27.77-5.29-37.27,39.64-73.59,40.29-33.66.61-14.88,29.87-53.44,31.54-39,1.7-15,32.3-78.85,32.42-11.3,0-20,20.12-34.17,20.15-79.39.13-90-7.9-104.74-17.5-4.06-2.64-12.73-5-15-12.11s2.6-14.7,3.33-15.8c10.14-15.34,31.42-7.48,62-18.19,25.55-8.94,20.1-17.71,45.28-25.9,28.54-9.27,36.14,1.8,59.48-9.4,19.65-9.42,19.39-19.72,37.42-23.18,12.12-2.32,18,1.24,35-3,8.34-2.08,20.83-5.18,21.77-11.63,1.17-8-16.09-16.14-18.58-17.32-14.11-6.67-18.64-1.13-36.85-4.86-23.06-4.71-41.88-18.37-45-30.18a10.2,10.2,0,0,0-.9-2.62c-3.91-7.35-16.49-5.63-32.5-7.53-12-1.43-22.81-2.72-33.39-9.28-11.64-7.22-10.64-13.17-21.21-17.3-10.4-4-14,.67-26.31-2.34-9.64-2.35-25.49-9.62-26.5-19.87-1.19-12.09,18.78-23.18,30.37-27.48,5.41-2,6.16-1.49,31.49-4.72s36-5.23,46.3-12.77c4.32-3.17,9.72-7.23,9.5-12.36-.33-7.91-13.84-14.91-25.57-15.5-6.26-.31-6.67,1.46-16.62,2.81-9.33,1.26-20.3,2.74-30.68-1.43-12-4.78-10.67-12-23.84-17.26-10.16-4-12.48-.32-20.2-4.17-12.59-6.27-21.78-23.8-17-36.61,2.27-6.11,7-9.35,13-13.28,12.33-8.13,25.25-11.15,39.29-12.69,26.53-2.91,28.26,2.59,49.06-.53,14.56-2.18,34.56-5.18,40.11-18,4.8-11-5.18-20.23,1.39-33.31,3.79-7.53,10.46-11.18,14.32-13.29,19.29-10.57,40.81-2,44.82-.36a18.17,18.17,0,0,0,8.15-1.36l34.55-14.4a18.07,18.07,0,0,1,5.26-1.32l31.38-3,17.78-2.25a13.91,13.91,0,0,0,10.09-6.45c7.24-11.66,13.29-26.91,2.59-28.7l-61.65-2a6,6,0,0,1-.84-.08h0a41.17,41.17,0,0,1-19.31-8.36l-16.6-13.08a17.11,17.11,0,0,0-1.86-1.29,52.52,52.52,0,0,0-11.91-5.11q-.59-.17-1.2-.3l-50.33-10.93a18.17,18.17,0,0,1-12.87-13.39l-2-8.55a18.18,18.18,0,0,1,7.76-19.36l8.93-5.85a51.1,51.1,0,0,1,25.72-8.28s36.88,6.59,55,2.92a63.81,63.81,0,0,0,9.38-2.71l6.1-3.57a25.74,25.74,0,0,0,7.53-6.61l21.69-27.69a18.14,18.14,0,0,1,15.67-5.46c11.37,1.59,30.89,3,42.69-3.68l50.91-32.52c8.79-2.29,21.38-4.12,35-.38,15.72,4.31,15.71,18.46,27.1,18.46" transform="translate(-71.6 -896.97)"/><path d="M72.35,1468.18c19.31,0,49.06,62.2,83.23,57.82,26-3.34,27.66,41.43,61.33,42,31.19.58,44.86-10.41,80.59-8.76,36.19,1.66,10.94,22.71,70.09,22.78,10.48,0,25.41,29.78,42.05,24.53,70.16-22.16,57.82-13.15,72.76-13.25,4.6,0,11.8-5,13.93-12.11s-2.4-14.7-3.07-15.81c-9.39-15.33-29.11-7.45-57.45-18.14-23.67-8.92-18.62-17.69-41.95-25.85-26.43-9.25-33.48,1.82-55.1-9.36-18.21-9.41-18-19.71-34.67-23.15-11.23-2.31-16.65,1.25-32.44-3-7.74-2.06-19.31-5.16-20.18-11.6-1.07-8,14.93-16.16,17.24-17.34,13.08-6.69,17.27-1.15,34.15-4.89,21.37-4.73,38.83-18.41,41.74-30.21a10.56,10.56,0,0,1,.84-2.62c3.63-7.36,15.28-5.65,30.12-7.57,11.12-1.43,21.14-2.73,30.95-9.3,10.79-7.23,9.87-13.17,19.67-17.31,9.64-4.07,12.93.65,24.38-2.37,8.94-2.35,23.64-9.63,24.58-19.88,1.1-12.09-17.39-23.17-28.13-27.47-5-2-5.71-1.48-29.17-4.69s-33.37-5.2-42.9-12.73c-4-3.16-9-7.22-8.8-12.36.32-7.91,12.84-14.92,23.72-15.51,5.79-.32,6.17,1.46,15.39,2.79,8.65,1.25,18.81,2.72,28.43-1.45,11.08-4.79,9.91-12.06,22.11-17.28,9.41-4,11.57-.33,18.72-4.18,11.67-6.28,20.21-23.82,15.82-36.63-2.09-6.1-6.51-9.34-12-13.27-11.41-8.12-23.38-11.12-36.4-12.65-24.57-2.9-26.18,2.61-45.46-.49-13.49-2.18-32-5.16-37.15-17.93-4.44-11,4.81-20.23-1.27-33.3-3.5-7.53-9.68-11.18-13.25-13.29-17.87-10.54-37.83-2-41.55-.32a15.75,15.75,0,0,1-7.55-1.35l-32-14.38a15.71,15.71,0,0,0-4.87-1.31l-29.08-3-16.48-2.24a12.86,12.86,0,0,1-9.34-6.44c-6.7-11.66-12.29-26.9-2.38-28.7l57.13-2a5.16,5.16,0,0,0,.79-.08h0a36.79,36.79,0,0,0,17.89-8.38l15.39-13.09a18.2,18.2,0,0,1,1.74-1.29,46.82,46.82,0,0,1,11-5.12q.56-.17,1.11-.3l46.66-11a17.68,17.68,0,0,0,11.94-13.4l1.85-8.55a18.83,18.83,0,0,0-7.17-19.35l-8.28-5.84A44.86,44.86,0,0,0,327.77,988s-34.19,6.61-51,3a55.1,55.1,0,0,1-8.7-2.7l-5.64-3.57a24.46,24.46,0,0,1-7-6.6l-20.07-27.67A16.09,16.09,0,0,0,220.85,945c-10.54,1.6-28.63,3-39.56-3.64l-47.15-32.48c-8.15-2.28-19.81-4.11-32.47-.35-13.77,4.08-14,18.68-28.88,18.68" transform="translate(-71.6 -896.97)"/><path class="cls-2" d="M1096.92,1333.7c-16.65-.88-42.19-15.68-57.91-19.49-19.43-4.71-34.52,4.4-41-4.15-2.29-3-3.13-7.67-1.39-9.69,2.42-2.82,8.4,1.19,16.67-.26,5.71-1,9.22-4.06,13.42-7.4,12.71-10.09,21.58-17.13,29.67-19.94,12.84-4.46,9.92,7.49,40.59,6.61Z" transform="translate(-71.6 -896.97)"/><path class="cls-2" d="M1096.92,964.87c-12.27.88-25,21.16-39.26,25.5-7.49,2.27-11.2.7-21.9.23-27.75-1.2-57.31,8.33-57.64,16.39-.16,3.72,5.93,6.76,9.73,8.66,11.8,5.9,18.44,1.66,33.32,3.15,21.64,2.15,26.36,13,42.16,9.18-1.57.37,15.92-10.57,33.59-7Z" transform="translate(-71.6 -896.97)"/><path class="cls-2" d="M1008.82,1207.63c-12.85.17-24.07.46-35,7.39-5.32,3.38-7.75,6.55-13.92,8.91-8.52,3.25-11.72-.2-27.16-.59-16.9-.42-19.08,3.26-29.79.32-8-2.19-7.76-4.5-15.83-6-9.14-1.65-12.4.77-21-1.53-1.68-.44-13.12-3.49-13.22-7.74-.13-5.28,17.26-11,32.28-12.61,15.76-1.72,19.86,2,32.43,1.4,21-1,21.62-12.08,43.61-18,29.19-7.84,48.11,5.54,47.23,28.32" transform="translate(-71.6 -896.97)"/><path class="cls-2" d="M739.74,1324.35c12.79-8.31,24.59-11.74,34.9-12.64,8.84-.77,10.84.81,20.15-.22,17.3-1.91,21.14-8.58,34.92-11.76,18.16-4.2,42.84.14,47.45,12.63,2.68,7.26-1.53,17-7.66,21.11-10.23,6.82-27.24-1.16-33.34-4-2.2-1-2-1.14-3.52-1.72-8.89-3.51-15.12-.21-28,2.06-16.13,2.83-28.92,1.61-32.45-3.16a5.75,5.75,0,0,0-1.77-1.73c-3.66-2.15-8.49,1.47-13.12,2.77C753.67,1328.68,748,1328.86,739.74,1324.35Z" transform="translate(-71.6 -896.97)"/><path class="cls-2" d="M495.76,1264.79c12-6.94,21.85-8.33,28.82-8.2,9.73.19,15.23,3.37,21.9-.23,6.87-3.71,4.88-9.15,12.12-14.15,7.63-5.28,19.51-5.92,27.14-1.17,5.42,3.38,4.77,7,9.73,8.66,6.18,2,8.71-3.14,18.36-3.7.74,0,14.51-.66,21.11,7.66,2.64,3.32,1.79,5.12,4.46,7,5,3.43,10.14-1.35,16.65.69,6.15,1.93,11.59,9.33,10.67,14.78-1.49,8.89-20.34,15.8-35.78,12.65-12.92-2.63-13.77-10.33-28.18-12.84-11-1.9-11.12,2.46-25.39,1.15-13.82-1.26-16.19-5.59-29.85-5.81-8.94-.14-10.25,1.67-18.38,2C521.42,1273.45,510.05,1272.25,495.76,1264.79Z" transform="translate(-71.6 -896.97)"/><path class="cls-3" d="M74.54,1174.26c8,0,9.41-6.53,11.39-8.77,14.89-16.77,47.2-18,74.24-10.19,20.37,5.89,21,16.92,40.4,18,11.65.62,15.45-3.13,30.06-1.43,13.91,1.63,30,7.31,29.9,12.59-.1,4.25-10.7,7.31-12.26,7.75-8,2.31-11-.11-19.5,1.55-7.48,1.46-7.28,3.78-14.68,6-9.93,3-11.94-.73-27.6-.29-14.32.39-17.28,3.85-25.18.6-5.72-2.35-8-5.52-12.89-8.9-10.43-7.14-3.81-7-32.4-7.36-25.29-.34-16.33,7.42-41.48,7.17Z" transform="translate(-71.6 -896.97)"/><path class="cls-3" d="M1095.6,1497.55c-7.95,0-9.41,6.52-11.39,8.76-14.88,16.77-47.19,18-74.23,10.19-20.37-5.89-21-16.92-40.4-18-11.65-.62-15.45,3.13-30.06,1.43-13.91-1.63-30-7.31-29.9-12.59.1-4.25,10.7-7.3,12.26-7.75,8-2.31,11,.11,19.5-1.55,7.48-1.46,7.28-3.78,14.68-6,9.93-2.95,11.94.73,27.6.29,14.31-.39,17.28-3.85,25.18-.6,5.71,2.35,8,5.52,12.89,8.9,10.43,7.14,3.8,7,32.4,7.36,25.29.34,16.33-7.42,41.47-7.17Z" transform="translate(-71.6 -896.97)"/><path class="cls-4" d="M240.66,1273.9c-11.85-8.3-22.78-11.72-32.34-12.61-8.19-.77-10,.82-18.67-.2-16-1.91-19.58-8.57-32.35-11.74-16.83-4.18-39.7.18-44,12.67-2.49,7.26,1.4,17,7.08,21.1,9.47,6.82,25.25-1.18,30.9-4,2-1,1.9-1.13,3.26-1.72,8.24-3.52,14-.22,26,2,14.95,2.81,26.79,1.58,30.08-3.19a5.42,5.42,0,0,1,1.64-1.73c3.39-2.15,7.86,1.47,12.15,2.76C227.74,1278.24,233,1278.41,240.66,1273.9Z" transform="translate(-71.6 -896.97)"/><path class="cls-4" d="M255.69,1405.38c-11.14-6.93-20.24-8.31-26.7-8.17-9,.2-14.12,3.38-20.3-.22-6.35-3.69-4.51-9.14-11.21-14.13-7.07-5.28-18.09-5.91-25.16-1.15-5,3.38-4.42,7-9,8.66-5.73,2-8.06-3.13-17-3.68-.68,0-13.45-.65-19.57,7.67-2.45,3.33-1.66,5.13-4.14,7-4.61,3.43-9.39-1.34-15.43.71-5.7,1.93-10.75,9.33-9.9,14.78,1.37,8.89,18.84,15.78,33.15,12.63,12-2.65,12.77-10.35,26.12-12.87,10.18-1.91,10.31,2.45,23.53,1.13,12.81-1.28,15-5.6,27.67-5.83,8.28-.15,9.5,1.66,17,1.93C231.9,1414.07,242.44,1412.85,255.69,1405.38Z" transform="translate(-71.6 -896.97)"/><path class="cls-4" d="M755.93,1599.87c-11.15-6.93-20.24-8.31-26.71-8.17-9,.2-14.11,3.38-20.29-.22-6.36-3.7-4.52-9.14-11.22-14.14-7.06-5.27-18.08-5.91-25.15-1.14-5,3.38-4.42,7-9,8.66-5.73,2-8.06-3.14-17-3.69-.68,0-13.44-.64-19.57,7.68-2.44,3.32-1.66,5.13-4.13,7-4.62,3.44-9.39-1.33-15.43.71-5.71,1.94-10.75,9.34-9.91,14.79,1.38,8.88,18.85,15.78,33.16,12.62,12-2.64,12.76-10.34,26.12-12.86,10.18-1.92,10.3,2.45,23.53,1.13,12.81-1.28,15-5.61,27.67-5.83,8.28-.15,9.49,1.66,17,1.93C732.14,1608.56,742.68,1607.34,755.93,1599.87Z" transform="translate(-71.6 -896.97)"/><path class="cls-4" d="M108.27,1499c1.89-10.8,29.22-13.65,41.18-14.89,14.58-1.52,25.72-2.53,32.41,4.38,4.8,4.94,4.22,10.77,10.52,14,4.1,2.12,6.4.7,14.89.88,6.15.14,16,.35,24.53,5.26,2.5,1.44,13.27,7.65,13.14,16.64-.12,8.56-10.07,16.35-19.27,17.52-10.19,1.3-12.79-6.35-30.67-12.26-5.58-1.85-17.21-5.7-31.54-4.38-13.79,1.27-17.17,6.14-26.28,3.5-6.93-2-11.39-6.69-17.52-13.14C111.72,1508.18,107.45,1503.7,108.27,1499Z" transform="translate(-71.6 -896.97)"/><path class="cls-4" d="M83.74,997.9C85.63,987.1,113,984.25,124.92,983c14.58-1.52,25.72-2.53,32.41,4.38,4.8,4.94,4.22,10.77,10.52,14,4.1,2.12,6.4.69,14.89.88,6.15.13,16,.35,24.53,5.26,2.5,1.44,13.27,7.65,13.14,16.64-.12,8.56-10.07,16.35-19.27,17.52-10.19,1.3-12.79-6.35-30.67-12.26-5.58-1.85-17.21-5.7-31.54-4.38-13.79,1.26-17.17,6.14-26.28,3.5-6.93-2-11.39-6.7-17.52-13.14C87.19,1007.07,82.92,1002.58,83.74,997.9Z" transform="translate(-71.6 -896.97)"/><path class="cls-4" d="M428.91,1640.93c1.89-10.8,29.22-13.64,41.18-14.89,14.58-1.52,25.72-2.52,32.41,4.38,4.8,4.95,4.23,10.77,10.52,14,4.11,2.12,6.4.69,14.89.87,6.15.14,16,.35,24.53,5.26,2.5,1.44,13.27,7.65,13.14,16.65-.12,8.55-10.07,16.34-19.27,17.52-10.18,1.29-12.79-6.35-30.66-12.27-5.59-1.84-17.22-5.69-31.54-4.38-13.8,1.27-17.18,6.14-26.29,3.51-6.93-2-11.39-6.7-17.52-13.14C432.36,1650.1,428.1,1645.62,428.91,1640.93Z" transform="translate(-71.6 -896.97)"/><path class="cls-4" d="M244.94,1693.5c1.89-10.8,29.21-13.65,41.17-14.9,14.59-1.51,25.73-2.52,32.42,4.39,4.79,4.94,4.22,10.77,10.51,14,4.11,2.12,6.4.69,14.9.88,6.15.13,16,.35,24.53,5.25,2.5,1.45,13.27,7.66,13.14,16.65-.13,8.56-10.07,16.35-19.28,17.52-10.18,1.3-12.78-6.35-30.66-12.26-5.58-1.85-17.22-5.7-31.54-4.38-13.79,1.26-17.18,6.14-26.28,3.5-6.93-2-11.39-6.7-17.52-13.14C248.38,1702.67,244.12,1698.18,244.94,1693.5Z" transform="translate(-71.6 -896.97)"/><path class="cls-4" d="M485.86,1393c1.2-3.37,7-1.22,18.4-7,7.7-3.93,8.07-6.47,14.89-8.76,3.13-1.06,10-3.38,16.64-.88,6.82,2.58,6.51,7.69,12.27,12.27,5,3.94,9.21,3.32,37.67,2.62,15-.37,21.79-.39,30.66,1.76a46,46,0,0,1,15.77,7c4.05,2.84,10.7,8.51,9.64,10.52-1.38,2.59-13.15-5.76-28.91-4.38-13.65,1.19-16.88,8.51-30.66,12.26-12.33,3.36-13.62-2.1-36.8-2.63-19.87-.45-22,2.87-32.41,0C496.9,1411.36,483.9,1398.5,485.86,1393Z" transform="translate(-71.6 -896.97)"/><path class="cls-4" d="M923.89,1694.37c5.08-5.47,11.05-7.62,16.65-9.63,2.12-.76,11.33-3.94,26.28-3.51,19.91.58,23.91,6.8,31.54,2.63,8-4.37,6.94-13,15.77-15.77,6.45-2,9.72,1.74,14-.87,7.66-4.67,3.61-20.5,6.13-21,3.17-.66,18.06,22.63,9.64,39.42-7.5,15-29.73,17.35-39.43,18.4-18.21,2-22.25-4.12-33.29.88-12.6,5.7-11.53,15.53-25.4,21.9-7.86,3.6-21.75,6.67-28,0C910.85,1719.46,915.75,1703.15,923.89,1694.37Z" transform="translate(-71.6 -896.97)"/><path class="cls-4" d="M332.55,1549c2.31-8.87,18.27-11.25,19.27-11.39a31.81,31.81,0,0,1,19.27,3.5c9.14,5.07,8.17,11,15.77,13.14,5.67,1.56,6.93-1.57,16.65,0,7.37,1.2,10.47,3.62,11.39,4.38,3.32,2.78,2.67,4.44,5.25,6.14,6.24,4.09,15.08-2.27,16.65,0,1.29,1.86-2.79,9-9.64,12.26-4,1.9-7.74,1.9-24.53-.88-16.53-2.73-16-3.24-21-3.5-14.09-.74-16,3.33-24.53,1.75C343.61,1571.85,330.1,1558.29,332.55,1549Z" transform="translate(-71.6 -896.97)"/><path class="cls-4" d="M371.09,1541.06c9.14,5.07,8.17,11,15.77,13.14" transform="translate(-71.6 -896.97)"/></g><g id="MIDDLE"><path class="cls-4" d="M220.41,1346.57c.42-8,30.08-17.27,57.82-15.76,10.69.58,14.39,2.19,21.9,0,14.35-4.19,14.43-15.64,27.16-24.53,20.94-14.63,50.51-5.71,57.82-3.51,18.1,5.46,15.69,14.29,31.54,17.52,19.59,4,34.34-5.67,41.17,2.63,2.41,2.92,3.42,7.55,1.76,9.64-2.32,2.9-8.45-.89-16.65.87-5.68,1.22-9.06,4.4-13.14,7.89-12.33,10.55-20.94,17.92-28.91,21-12.67,4.94-14.39-4.52-43.8-5.25-21.6-.54-34.85,4.21-37.67,5.25-9,3.33-8.12,4.79-14,6.14-15.84,3.6-20.44-7.26-42.05-9.64-14.87-1.64-21.55,2.52-33.29-3.5C226.27,1353.4,220.22,1350.29,220.41,1346.57Z" transform="translate(-71.6 -896.97)"/><path class="cls-4" d="M458.7,1531.43c-.07-5.29,17.38-10.8,32.42-12.27,15.78-1.54,19.83,2.25,32.41,1.75,21-.82,21.75-11.85,43.8-17.52,29.27-7.53,58.61,4,79.73,12.27,2.17.85,7.5,4.87,15.76,7,9.7,2.51,13.57-1.18,22.78.88,8.77,2,18.12,7.73,17.52,11.39-1,6-28.39,6.13-29.78,6.13-27.14,0-31.41-8.83-58.7-8.76-12.85,0-24.07.2-35,7-5.36,3.32-7.82,6.47-14,8.76-8.56,3.17-11.72-.33-27.16-.88-16.89-.6-19.1,3.06-29.78,0-8-2.27-7.72-4.58-15.77-6.13-9.12-1.75-12.41.64-21-1.75C470.16,1538.84,458.76,1535.68,458.7,1531.43Z" transform="translate(-71.6 -896.97)"/><path class="cls-4" d="M921.27,1381.62c.16-1.19,7.7.3,15.76-4.38a33.79,33.79,0,0,0,4.51-3.1c3-2.68,3.67-5.11,7.76-7.42,13.23-7.46,34.71.91,42.05,9.64a8.73,8.73,0,0,0,1.75,1.75c5.46,3.9,12.79-2,24.53-3.5,7.28-.92,16.79-.2,17.52,2.63.8,3-8.65,8.17-14,10.51-3.27,1.42-22.68,9.52-42,.88-1.9-.85-1.92-1.12-3.51-1.76-9.56-3.81-17.1.53-26.28,1.76C934.06,1390.66,921,1383.21,921.27,1381.62Z" transform="translate(-71.6 -896.97)"/><path class="cls-4" d="M271.22,1463.09c12.89-8.17,24.72-11.47,35-12.26,8.85-.68,10.83.93,20.15,0,17.32-1.73,21.23-8.36,35-11.39,18.2-4,42.83.6,47.3,13.14,2.61,7.29-1.71,17-7.88,21-10.3,6.72-27.23-1.45-33.29-4.38-2.19-1-2-1.15-3.51-1.75-8.85-3.61-15.11-.37-28,1.75-16.16,2.66-28.93,1.31-32.41-3.5a5.68,5.68,0,0,0-1.76-1.75c-3.63-2.19-8.5,1.38-13.14,2.63C285.11,1467.57,279.48,1467.69,271.22,1463.09Z" transform="translate(-71.6 -896.97)"/><path class="cls-4" d="M686.48,1463.09c12.88-8.17,24.72-11.47,35-12.26,8.84-.68,10.83.93,20.15,0,17.32-1.73,21.23-8.36,35-11.39,18.21-4,42.84.6,47.31,13.14,2.6,7.29-1.71,17-7.88,21-10.3,6.72-27.23-1.45-33.29-4.38-2.2-1-2-1.15-3.51-1.75-8.85-3.61-15.12-.37-28,1.75-16.16,2.66-28.93,1.31-32.42-3.5a5.62,5.62,0,0,0-1.75-1.75c-3.63-2.19-8.5,1.38-13.14,2.63C700.37,1467.57,694.73,1467.69,686.48,1463.09Z" transform="translate(-71.6 -896.97)"/><path class="cls-4" d="M121.41,1606.77c12.11-6.81,21.94-8.1,28.91-7.89,9.73.3,15.2,3.53,21.91,0,6.9-3.63,5-9.09,12.26-14,7.69-5.2,19.58-5.72,27.16-.88,5.38,3.43,4.69,7.08,9.64,8.76,6.15,2.09,8.73-3,18.39-3.5.74,0,14.52-.51,21,7.88,2.6,3.35,1.73,5.14,4.38,7,4.94,3.48,10.15-1.24,16.64.87,6.14,2,11.49,9.45,10.52,14.9-1.59,8.86-20.52,15.58-35.92,12.26-12.89-2.77-13.66-10.48-28-13.14-11-2-11.15,2.34-25.4.88-13.81-1.42-16.13-5.77-29.79-6.13-8.93-.24-10.26,1.56-18.4,1.75C147,1615.71,135.63,1614.38,121.41,1606.77Z" transform="translate(-71.6 -896.97)"/><path class="cls-4" d="M1016.2,1588.24c-11.15,8.29-20.74,10.8-27.69,11.47-9.68.94-15.51-1.58-21.72,2.77-6.39,4.47-3.8,9.64-10.4,15.45-7,6.12-18.7,8.14-26.83,4.29-5.77-2.72-5.55-6.43-10.67-7.47-6.37-1.3-8.28,4.13-17.81,5.8-.72.12-14.33,2.33-21.85-5.17-3-3-2.37-4.89-5.23-6.4-5.34-2.83-9.91,2.5-16.62,1.23-6.33-1.2-12.59-7.92-12.31-13.45.46-9,18.39-18,34.09-16.7,13.13,1.13,14.86,8.68,29.46,9.5,11.14.63,10.77-3.73,25.1-4.07,13.87-.34,16.73,3.68,30.32,2.32,8.89-.89,10-2.84,18-4.06C989.7,1582.6,1001.14,1582.49,1016.2,1588.24Z" transform="translate(-71.6 -896.97)"/><path class="cls-4" d="M563.79,1757.53c-.25,8.93,28.61,22.79,56.07,21,12.81-.82,18-4.58,27.16-.88,13,5.27,11.16,16.44,25.4,25.41,14.41,9.08,30.94,6.9,36.8,6.13a64.22,64.22,0,0,0,28.91-11.39c13.9-10,11.21-17,21.9-22.77,13.84-7.43,23.29,1.68,41.17-2.63,16.61-4,16.51-20.07,31.54-21.9,10.15-1.24,16.67,4.1,19.28.87,3-3.7-1.56-15.72-10.52-21.9-12.19-8.41-21.46,1.66-44.68-4.38-12.87-3.35-13-7.23-25.4-8.76-11.88-1.47-15.18,1.69-26.28-.88-12.43-2.86-12.79-7.85-21-7.88-11.69,0-13,10-26.28,13.14-15.16,3.58-20.09-8-35-4.38-11.33,2.71-10.7,9.85-25.41,16.65-11.46,5.29-16,2.87-32.42,6.13C601.63,1739.8,564.08,1747.45,563.79,1757.53Z" transform="translate(-71.6 -896.97)"/></g></g></g></g></g></svg>