<svg id="CONTENT"
    xmlns="http://www.w3.org/2000/svg" viewBox="0 0 1025 834.27">
    <defs>
        <style>.cls-1{fill:#840404;}.cls-2{fill:none;stroke:#000;stroke-miterlimit:10;stroke-width:5px;}</style>
    </defs>
    <g id="NEW_MEDIUM" data-name="NEW MEDIUM">
        <g id="FLOWERDUST_SMALL">
            <g id="JUNCTION_FLOWERDUST_SMALL">
                <g id="JUNCTION_FLOWERDUST_BOTTOM_SMALL">
                    <path id="FOND" class="cls-1" d="M1097.5,1581.94l-13.14,2.32-12.27,10.51-7.44,8.47-5.7-9.34-11.39-9.64-14.31-2.32-14.6,3.19-6.13-14-12.26-11.39-13.14-5.26-9.64,2.63-4.67,5.25-7.6-6.13-8.76-2.62-10.22.67-7.74,4.14-4.81-8.32-6.14-8.76-11.39-2.3-5.25-10-7.89-6.14-6.86-3.17-11.53,2.3-8.77,7.88-3.5,7.89h-5.26l-9.63-7-13.64-2.76-10,2.76-10.51,7.88-4.38,11.39-1.75,7.89-10.51-2.75-9.21.56-9.19,3.06-7,7-2.2,12.41-9.34,1.17-9.49,3.07-6.13-12.27-11.54-11-10.07-4-16.06,1-6.57,3.22-5.69-9.35-11-7.5-9.92-1.82-13.79,4.5-12.64,11.83-2.19,5.25-10.95-5.25-8.76-2.63-11.39.76-14.16,6.27-12.33,13.56L589.38,1565,578,1558.85l-15.77.88-11.39,11.39-3.5,7-7.89-5.26H528.93l-13.14,5.26L507.67,1590l-2.83,7.89-11.68-4.5L491.7,1580l-5.7-8.9-12.11-4.53-2.78-3.79v-16.65l-6.57-10.51-13.58-5.1H439.69l-13.26,4.66-10.07,7.59-10.95-9.34L392,1530.54l-14.16,1.77-7,4.2-13.58-7.44-14.16-2.2-9.05,1.84-3.95-18.92-10.51-10.51L308.6,1497l-10.07,3.13-6.57,2.19-10.08-11.83-11.53-5.29-11.25,0-15.77,10.42-5.25,10.61-16.65-4.38-13.14,2.63-15.77,14.89-14.75-19.14-16.26-3.36-12.92,4.21-12.14,12.16-1.75,2.63-7.45-1.41-11.82,4-4.63,7-8.51-9.63-11.39-4.38-13.14-1.76H72.5V2272H84.07s18.22-3.5,19.09-3.5,25.41-13.14,25.41-13.14l13.58-13.58,8.76-16.65,2.81-23,10.33-.66,9.64-3.51,9.13-13.88,2-1,5.55,4.34,7,3.51,9.93-1.75,8.18-7.39,3.79-10.83,8.76-.18,10.51-3.47,6-7.89,8.91,5.22,7.88,4.38,10.52-1.75,3.57-1.68,7.81,8.69,17.67,8.8,12.12-.91,16.65-6.14,8.76-11.39,6.71-16.51,9.06-1.88,5.59-9.64.54-9.64-4.38-10.51,10.51-3.5,11.06-14.64,10,2.37,11.39-3.5,2.87,8,3.26,9.56,7.88,7L424,2123l10.75-3.07,6.14-3.5.87,7.89,6.33,6.37h8.23l1.21,11.15,9.64,8.76,12.31,3.42,8.86-1.52-1,7.69,2.62,4.42,8.76-.87.63,6.8,3.75,7.22,7.88,5.25,11.83-4.43,5.69,5.31,7,6.13,9.64,2.63,11.39-2.63,9.63-7,5.26-11.39,8.81,4.89h9l8.51-4,7-5.26L617,2168.5l5.25,10.17,8.76,9.64,7.89,5.25,12,2.3,16.89-4.05,10.51,7,13.14,5.26,14,1.75,13.14-6.13,6.13-10.23,1.32-11.62,7.44-1.81,7-7.88,1.32-7.35-1.78-7.54h10.63l10.86-4.39,7.88-7.88,7.89-10.51,7.88,4.38h8.76l4.38-5.26,1.75-6.13h9.64l8.69-3.29,6.2-12.48,8.25,1.86,7.52-3.61,6.14-11.39.34-8.47,10.17,3.21h6.13l5.26,9.64,10.51,7.88,11,.08,11.83-2.7,4.38-1.76,4.38,11.39L921,2124.36l11.39,1.75,13.14-1.75,10.51-6.14,8.77-7.88,7-14.9,6.14,3.51,9,.79,7.66-5.17,7.3-13.76,7.31-.8,9.92-6.47,3.07-3.24,5.69,3.24,8.76,4.38,12.27-.87,9.63-6.14,7.89-9.63,4.82-16.6.44-9.68,7,3.5,9.79,2.63,9-.44Z" transform="translate(-71.31 -1482.14)"/>
                    <path class="cls-1" d="M812.78,2123a46.18,46.18,0,0,0,5.25,14.89c2.18,3.85,4,7.09,7.89,9.64,4.32,2.84,8.71,3.21,12.26,3.51a36.13,36.13,0,0,0,11.39-.88l2.9,9.57,7.71,9.41,7.35,2.82,10.91-1.36,7.58-3.87,5,11.95,8.17,9.67,13.64,6.58,17.66.86,17.65-6.75,3.91-3.22,1.88,7.81,4.45,8.62,7.51,5.68,9.85.32,9.81-4.91,8.55,10.77,8.47,7.6,13.73,3.84,8.47.83-7,7-2.63,17.52.83,12.47,7.93,17.31,10.89,13.67,15.9,10.58,18.29,6.57,28.51,2.36V2023.82L815.41,2060Z" transform="translate(-71.31 -1482.14)"/>
                    <g id="Tracé">
                        <path class="cls-2" d="M871,1545.27c.55-11.84,7.3-21.62,16.64-24.53a21,21,0,0,1,14.89.88c11.12,5.24,12.23,18.7,12.27,19.27" transform="translate(-71.31 -1482.14)"/>
                        <path class="cls-2" d="M871,1539.14c-1.37-1-17.53-15.77-34.17-9.64-14.79,5.45-24.54,25-18.4,45.56" transform="translate(-71.31 -1482.14)"/>
                        <path class="cls-2" d="M815.84,1557.54c-8.76-5.26-23.44-3.34-29.78,2.63-7.18,6.75-7.06,17.75-7,19.27" transform="translate(-71.31 -1482.14)"/>
                        <path class="cls-2" d="M793.94,1590c-6.29-8-16-12.11-25.4-10.51a26.16,26.16,0,0,0-15.77,9.64" transform="translate(-71.31 -1482.14)"/>
                        <path class="cls-2" d="M758.9,1581.19c-.86-2-7.56-20.1-21.9-24.53-12.17-3.75-25.76,0-35,9.64" transform="translate(-71.31 -1482.14)"/>
                        <path class="cls-2" d="M709.84,1558.41c-1.19-1.71-10.19-16.23-22.78-17.52-12.84-1.31-26.82,8-32.41,21.91" transform="translate(-71.31 -1482.14)"/>
                        <path class="cls-2" d="M666.91,1582.07c-5.82-15.32-18.37-26.57-32.41-28-20.25-2.1-42.51,16.26-44.68,43.81" transform="translate(-71.31 -1482.14)"/>
                        <path class="cls-2" d="M596.39,1575.18c-5.23-12.66-18.08-19.44-29.65-16.56-9.12,2.27-16.34,10.26-18.53,20.38" transform="translate(-71.31 -1482.14)"/>
                        <path class="cls-2" d="M554.78,1593.46a22.75,22.75,0,0,0-14.9-20.15c-11.52-4.17-21.63,3.68-23.65,5.25-7.56,5.9-10.73,16.53-11.39,19.28" transform="translate(-71.31 -1482.14)"/>
                        <path class="cls-2" d="M518.86,1619.74c-.18-.87-4-18.45-21-24.53a32.78,32.78,0,0,0-33.29,7" transform="translate(-71.31 -1482.14)"/>
                        <path class="cls-2" d="M465.42,1621.49c1.69-15.91-5.74-30.11-17.52-35-1.11-.46-14.75-5.91-25.41,2.63-7.79,6.23-8.63,15.66-8.76,17.52" transform="translate(-71.31 -1482.14)"/>
                        <path class="cls-2" d="M423.37,1610.1c-9.57-7-22.21-7.68-31.54-1.75-11.25,7.14-15.78,22.59-9.64,35.92" transform="translate(-71.31 -1482.14)"/>
                        <path class="cls-2" d="M380,1621.49c-14.29-7.28-31.41-6-42.2,2.63S327,1645.65,327,1647.77" transform="translate(-71.31 -1482.14)"/>
                        <path class="cls-2" d="M332.69,1628.5c-3.49-2.06-17.14-9.62-34.07-7-20.72,3.2-39.16,19.55-38.2,37.67.66,12.36,10.07,20.88,13.42,23.66" transform="translate(-71.31 -1482.14)"/>
                        <path class="cls-2" d="M191.21,1623.24" transform="translate(-71.31 -1482.14)"/>
                        <path class="cls-2" d="M897.32,1545.27c12.66-8.41,26.71-7.93,33.29-.87,1.15,1.24,6.13,7,7.88,14" transform="translate(-71.31 -1482.14)"/>
                        <path class="cls-2" d="M929.73,1574.18A24.06,24.06,0,0,1,946.38,1554c10.06-3,18.4-1.75,25.4,7.89" transform="translate(-71.31 -1482.14)"/>
                        <path class="cls-2" d="M970,1590c-7.22-15.37.3-31.5,11.39-35,10.39-3.31,21.84,7.12,24.53,9.64,15.74,14.74,14.41,37.23,14,42" transform="translate(-71.31 -1482.14)"/>
                        <path class="cls-2" d="M136,1515.49a30.29,30.29,0,0,1,25.41-18.4c12.53-.9,25.43,9.09,30.66,21" transform="translate(-71.31 -1482.14)"/>
                        <path class="cls-2" d="M188.58,1529.5c4-18.81,21-30.53,36.79-28,11.84,1.88,21.88,11.61,25.41,24.53" transform="translate(-71.31 -1482.14)"/>
                        <path class="cls-2" d="M238.51,1506.73c2.9-11.22,13.19-20.45,24.53-21.9,11.89-1.53,23.59,6.58,28.92,17.52" transform="translate(-71.31 -1482.14)"/>
                        <path class="cls-2" d="M283.19,1511.11c9.53-13.2,26.2-17,37.68-10.52,12.3,7,13.1,26.2,13.14,27.16" transform="translate(-71.31 -1482.14)"/>
                        <path class="cls-2" d="M314.73,1543.52c.86-1.3,11.18-16.38,29.79-16.64a36.75,36.75,0,0,1,33.29,21" transform="translate(-71.31 -1482.14)"/>
                        <path class="cls-2" d="M370.8,1536.51c5.26-5.25,19.88-9,29.79-5.25,17.42,6.5,20.89,26.3,21,27.15" transform="translate(-71.31 -1482.14)"/>
                        <path class="cls-2" d="M416.36,1544.4c7.88-15.77,35.91-17.18,46.43-8.76,7.95,6.37,10.7,19.87,8.76,30.66" transform="translate(-71.31 -1482.14)"/>
                        <path class="cls-2" d="M461.91,1568.05c10.63-3,20.65-1.51,26.28,5.26,4.38,5.25,3.49,17.43,3.51,20.15" transform="translate(-71.31 -1482.14)"/>
                        <path class="cls-2" d="M830.74,1780.06c-10.51-34.78-43.07-53.31-69.21-46.43-26.54,7-36.21,37.46-36.8,39.42" transform="translate(-71.31 -1482.14)"/>
                        <path class="cls-2" d="M732.18,1754.65c-10.74-6.62-24.8-7.26-35.13-1.75-12.8,6.84-17.86,22.06-10.33,35" transform="translate(-71.31 -1482.14)"/>
                        <path class="cls-2" d="M818.47,1795.93c3.62-14.07,17.22-21.43,28-17.57,8.59,3.07,14.67,13,14,24" transform="translate(-71.31 -1482.14)"/>
                        <path class="cls-2" d="M683.12,1777.43c-14.13-9.28-32.81-7.18-40.88,1.75-5.63,6.24-5.87,15.56-1,23.66" transform="translate(-71.31 -1482.14)"/>
                        <path class="cls-2" d="M840.37,1812.47c8-8.85,20.23-11.56,29.79-7,10.34,4.92,12.85,16.11,13.14,17.52" transform="translate(-71.31 -1482.14)"/>
                        <path class="cls-2" d="M636.69,1792.33c-13.89-5.53-29.21.64-33.62,11.38-3.51,8.56.23,19.23,9.61,25.41" transform="translate(-71.31 -1482.14)"/>
                        <path class="cls-2" d="M857.46,1784.44c15.15-10.69,37.45-11.94,53.22-3.5,13.4,7.17,20.1,20.28,17,33.29" transform="translate(-71.31 -1482.14)"/>
                        <path class="cls-2" d="M928,1803.71c14.56,7.37,21.44,20.85,17.22,33.29-4.66,13.74-21.93,23.44-41.32,22.78" transform="translate(-71.31 -1482.14)"/>
                        <path class="cls-2" d="M924,1857.59c7.57,36.89-7.42,67.21-22.26,69.89-10.93,2-23.87-10.67-31.18-30.39" transform="translate(-71.31 -1482.14)"/>
                        <path class="cls-2" d="M880.67,1915.85c-4.67,10.12-14.85,16.38-25.4,15.77-12.28-.71-22.82-10.59-24.53-23.65" transform="translate(-71.31 -1482.14)"/>
                        <path class="cls-2" d="M833.8,1921.63c-21.1,11.08-43,4.65-47.88-5.57-3.69-7.71,1.48-19.4,12.6-27.81" transform="translate(-71.31 -1482.14)"/>
                        <path class="cls-2" d="M786.93,1919.36c-.89.76-14.78,12.35-32.41,7a34.44,34.44,0,0,1-23.65-26.28" transform="translate(-71.31 -1482.14)"/>
                        <path class="cls-2" d="M737.44,1914c-2.57,9.19-11,15.14-19.84,14.11s-16.07-9.07-16.52-18.81" transform="translate(-71.31 -1482.14)"/>
                        <path class="cls-2" d="M706.34,1891.32a16.58,16.58,0,0,1-30.67,12.27" transform="translate(-71.31 -1482.14)"/>
                        <path class="cls-2" d="M624.42,1825.18c-10.71.24-17.67,7.59-16.14,13.6,1.22,4.82,8,8.92,16.14,8.74" transform="translate(-71.31 -1482.14)"/>
                        <path class="cls-2" d="M631.87,1838.76a11.91,11.91,0,0,0,7,22.77" transform="translate(-71.31 -1482.14)"/>
                        <path class="cls-2" d="M651.14,1850.15c-9.77,2.23-15.23,12.45-12.26,21,2.77,8,12.22,12.72,21,9.64" transform="translate(-71.31 -1482.14)"/>
                        <path class="cls-2" d="M654.81,1881.25c-2.46,8-2.93,16.85,0,21.7,4.2,7,16.16,6.92,25.68-6.78" transform="translate(-71.31 -1482.14)"/>
                        <path class="cls-2" d="M1019.09,1584.7c14.9-9.64,39.36,2,44.68,16.64,4.62,12.68-.28,27.68-12.26,35.92" transform="translate(-71.31 -1482.14)"/>
                        <path class="cls-2" d="M1064.65,1604.85c.45-1.56,8-16.77,23.24-21.49a32.52,32.52,0,0,1,9.16-1.42h.45" transform="translate(-71.31 -1482.14)"/>
                        <path class="cls-2" d="M893.81,1927.24c.17,1.75,1.43,13.1,11.39,20.15a28.18,28.18,0,0,0,28.91,1.75" transform="translate(-71.31 -1482.14)"/>
                        <path class="cls-2" d="M922.29,1951.33c.23,1.34,3.65,19.22,18,26.05,14.77,7,27.25-4.26,28-5" transform="translate(-71.31 -1482.14)"/>
                        <path class="cls-2" d="M967.4,1951.77c-2.6,14.82,3.55,28.45,14,33.29,9.67,4.47,19.91,0,21.9-.88,11.42-5,15.76-15.28,16.65-17.52" transform="translate(-71.31 -1482.14)"/>
                        <path class="cls-2" d="M1012.52,1979.37c2.31,16,11,28.71,22,32.29,14.24,4.61,25.11-8.22,26.16-9.5" transform="translate(-71.31 -1482.14)"/>
                        <path class="cls-2" d="M1054.75,2006.5c.4,3,2.73,18.45,15.53,27.4,7.7,5.39,15.17,7.28,18.9,7.23h8.32" transform="translate(-71.31 -1482.14)"/>
                        <path class="cls-2" d="M924,1794.52c10.81-17.24,27.12-23.37,36.23-18.36,1.26.7,6.28,3.75,8.45,13.46" transform="translate(-71.31 -1482.14)"/>
                        <path class="cls-2" d="M959.52,1774.8c3.5-18.39,35-31.32,45.63-28,7.17,2.22,11.89,12.1,12.4,13.14a29.11,29.11,0,0,1,2.86,11.39" transform="translate(-71.31 -1482.14)"/>
                        <path class="cls-2" d="M999.82,1794.52c9-19.56,25.23-28.35,37.67-23,8.81,3.79,13.34,13.65,14.89,17.51" transform="translate(-71.31 -1482.14)"/>
                        <path class="cls-2" d="M1043.62,1802.84a15.93,15.93,0,1,1,31.54,4.38" transform="translate(-71.31 -1482.14)"/>
                        <path class="cls-2" d="M1072.09,1794.52c2.61-3.94,8.93-12.23,18.85-14.53a23.5,23.5,0,0,1,4.89-.59l1.67,0" transform="translate(-71.31 -1482.14)"/>
                        <path class="cls-2" d="M1070.87,2033.68c2.59,22.75-9.59,41.17-24.36,44.16-11.65,2.36-21.87-5.51-24.35-7.54" transform="translate(-71.31 -1482.14)"/>
                        <path class="cls-2" d="M1023.47,2056.9a20.32,20.32,0,0,1-28.91,21.9" transform="translate(-71.31 -1482.14)"/>
                        <path class="cls-2" d="M1001.57,2081.87c-.22,1.35-1.9,10.71-9.47,15.62-6.12,4-13.78,3.53-19.88-1.11" transform="translate(-71.31 -1482.14)"/>
                        <path class="cls-2" d="M972.66,2084.49c.06,2.12.34,22.44-16.06,34.19-10.41,7.45-28.8,12.36-40.63,2.77-7.76-6.28-9.13-15.91-9.45-19.4" transform="translate(-71.31 -1482.14)"/>
                        <path class="cls-2" d="M921.41,2085.76a36.43,36.43,0,0,1-17.68,18.48c-3.73,1.76-16.9,8.2-28.73,1.08-8.51-5.12-13.15-15.33-12.15-26.08" transform="translate(-71.31 -1482.14)"/>
                        <path class="cls-2" d="M135.79,2176.84c.37,13.19,11.15,23.82,22.56,25.14,11.23,1.29,19-7.14,19.6-7.8,6.59-7.45,4.7-16.38,4.35-17.91" transform="translate(-71.31 -1482.14)"/>
                        <path class="cls-2" d="M182.45,2181.3c6.45,9.11,17.88,12.1,26.28,7.88,9.3-4.67,10.45-16,10.51-16.64" transform="translate(-71.31 -1482.14)"/>
                        <path class="cls-2" d="M210.48,2165.69c3,2.64,8.7,6.64,15.72,6.4,11.93-.4,23.78-12.88,25.89-31.09" transform="translate(-71.31 -1482.14)"/>
                        <path class="cls-2" d="M238.51,2136.62" transform="translate(-71.31 -1482.14)"/>
                        <path class="cls-2" d="M246,2158.53c6.12,9.93,16.6,13.52,24.88,9.2,9.31-4.86,11.33-17.37,11.48-18.41" transform="translate(-71.31 -1482.14)"/>
                        <path class="cls-2" d="M275.38,2166.09c8.1,11.21,21.27,17.85,34.56,16.92,17.69-1.24,33-15.7,35.16-34.9" transform="translate(-71.31 -1482.14)"/>
                        <path class="cls-2" d="M332.25,2147.9c12.87,4.61,25.1-1.82,28-11.29,2.81-9.07-3.8-18.06-4.38-18.83" transform="translate(-71.31 -1482.14)"/>
                        <path class="cls-2" d="M344.52,2116.47a26.94,26.94,0,0,0,26.28-7c9.88-10.06,7.23-23.51,7-24.53" transform="translate(-71.31 -1482.14)"/>
                        <path class="cls-2" d="M377.48,2098.33a17.93,17.93,0,0,0,20.38-.15c7.89-5.42,11.55-16.33,9.82-25.27a21.58,21.58,0,0,0-4.77-9.92" transform="translate(-71.31 -1482.14)"/>
                        <path class="cls-2" d="M395.33,2067.41a19.57,19.57,0,0,0,5.26-37.67" transform="translate(-71.31 -1482.14)"/>
                        <path class="cls-2" d="M391.88,2039.38c9.93-9.8,12.76-25.37,7.23-37.63-6.36-14.11-22.53-21-37.07-14.86" transform="translate(-71.31 -1482.14)"/>
                        <path class="cls-2" d="M384.82,1986.81c10.2-11.23,7.64-28.14-2.63-35-8.86-6-22.67-3.94-30.66,6.13" transform="translate(-71.31 -1482.14)"/>
                        <path class="cls-2" d="M360.7,1950.62c-8.17-10.46-21.09-15.9-33.78-14.06-15.14,2.19-27.55,14.41-30.43,30.32" transform="translate(-71.31 -1482.14)"/>
                        <path class="cls-2" d="M309.43,1945.2c1.41-9.86-1.29-19.71-8.07-24.58-10.3-7.39-30.46-3.59-41.38,13.76" transform="translate(-71.31 -1482.14)"/>
                        <path class="cls-2" d="M261.29,1946.51c1.68-15.72-5.85-27.92-14.89-29.78-5.25-1.09-10.2,1.48-13.14,3.5" transform="translate(-71.31 -1482.14)"/>
                        <path class="cls-2" d="M237.64,1916.73c-.55-7.8-5.82-18.83-13.14-21a18.75,18.75,0,0,0-21,7.89" transform="translate(-71.31 -1482.14)"/>
                        <path class="cls-2" d="M205.66,1899.64c-1.29-12-8.36-21.9-18.06-25.21-12.45-4.26-27.4,3-34,17.88" transform="translate(-71.31 -1482.14)"/>
                        <path class="cls-2" d="M170,1875.11c2.6-12.46-3.9-22.92-12.27-26.54-10.22-4.42-23,9.48-23.51,10" transform="translate(-71.31 -1482.14)"/>
                        <path class="cls-2" d="M137.77,1869.42c1.23-10.86-5.7-19.45-13.14-20.15s-12.83,6.57-13.14,7" transform="translate(-71.31 -1482.14)"/>
                        <path class="cls-2" d="M115,1851.9c.05-1.37-4.3-24.29-19.53-34.19a31.61,31.61,0,0,0-16.91-4.92h-6" transform="translate(-71.31 -1482.14)"/>
                        <path class="cls-2" d="M863.15,2089.31c-17,.5-27.95-11.11-27.16-20.15.56-6.27,6.85-12.07,14.9-14.89" transform="translate(-71.31 -1482.14)"/>
                        <path class="cls-2" d="M835.12,2069.16c-32.42,4.38-53.7-19.81-54.32-35.92-.45-11.79,8.42-20.85,11.39-23.65" transform="translate(-71.31 -1482.14)"/>
                        <path class="cls-2" d="M779.93,2027.11c-21.91-6.13-22.14-28.73-16.65-35.92,4.24-5.54,13.89-7.51,22.78-3.5" transform="translate(-71.31 -1482.14)"/>
                        <path class="cls-2" d="M763.28,2012.22c-11,11.58-39.49,8.19-47.31-.88-5.79-6.72-6.33-17.86-.87-27.16" transform="translate(-71.31 -1482.14)"/>
                        <path class="cls-2" d="M711.59,1989.44c-19.18-4.46-35.08-21.28-34.15-37.22.78-13.47,11.28-25.59,26.64-30.67" transform="translate(-71.31 -1482.14)"/>
                        <path class="cls-2" d="M846.36,2085.84c2.1,10.4-2.78,20.1-9.65,22.85-8.49,3.4-21.29-3.31-23.7-17.11" transform="translate(-71.31 -1482.14)"/>
                        <path class="cls-2" d="M824.17,2108.59c-.67,6.89-4.95,12.8-10.94,14.89-8.21,2.86-18.8-1.69-22.79-11.39" transform="translate(-71.31 -1482.14)"/>
                        <path class="cls-2" d="M798.68,2121.73c3.2,6.33-2.1,12.59-8.65,13.47-5.35.71-11.79-2.13-14-7.13" transform="translate(-71.31 -1482.14)"/>
                        <path class="cls-2" d="M777.3,2115.59a33.93,33.93,0,0,1-3.51,20.15c-4.92,9.27-15.28,17.64-28,17.53-11.23-.11-18.86-6.74-21-8.77" transform="translate(-71.31 -1482.14)"/>
                        <path class="cls-2" d="M740,2153.27c4.83,10.67-.82,21.81-9.34,24.38-6.16,1.85-13.77-.79-18.67-6.65" transform="translate(-71.31 -1482.14)"/>
                        <path class="cls-2" d="M726.05,2179.11c.05,11.88-4.41,17.51-6.09,19.35-9.88,10.85-32.52,10.11-53.05-6.45" transform="translate(-71.31 -1482.14)"/>
                        <path class="cls-2" d="M687.94,2159.84c-1,17.76-13.55,32.44-29.79,35.46-17.6,3.27-35.5-7.92-41.17-26.37" transform="translate(-71.31 -1482.14)"/>
                        <path class="cls-2" d="M628.37,2150.64c-2.31,12.18-11.58,19.44-19.28,18.39-5.94-.81-9.6-6.38-10.51-7.88" transform="translate(-71.31 -1482.14)"/>
                        <path class="cls-2" d="M603.84,2168.16c-8.18,8.33-20.18,10.62-28.91,6.13-11.44-5.87-16.5-22.94-7.89-36.79" transform="translate(-71.31 -1482.14)"/>
                        <path class="cls-2" d="M570.11,2171.66c-1.88,9.57-8.63,17.3-17.43,19.76-11.31,3.16-24.29-2.87-29.88-14.82" transform="translate(-71.31 -1482.14)"/>
                        <path class="cls-2" d="M529.7,2159c1.28,13.82-8.92,23.88-17.78,23.21-6.7-.5-13.27-7.19-15-16.44" transform="translate(-71.31 -1482.14)"/>
                        <path class="cls-2" d="M507.47,2161.15c-7.49,4.43-15.39,4.95-18.4,1.75-3.56-3.77-2-14.52,7.89-22.78" transform="translate(-71.31 -1482.14)"/>
                        <path class="cls-2" d="M488.19,2152.39c-14.78,5.4-29.22-3.13-31.53-14-1.72-8,3.15-17.62,12.26-22.78" transform="translate(-71.31 -1482.14)"/>
                        <path class="cls-2" d="M456.22,2130.49c-8,1.44-15.46-3.8-16.2-10.52-.67-6,4.23-12,11.43-13.14" transform="translate(-71.31 -1482.14)"/>
                        <path class="cls-2" d="M440,2116.29c-14.43,10.36-29.4,8.24-36-2.6-1.24-2.05-4-7.33-3.89-16.93" transform="translate(-71.31 -1482.14)"/>
                        <path class="cls-2" d="M684.87,1935.91c-12.17-8.77-29.4-9.54-41.49-2.28-9.94,6-15.08,16.58-13.38,27.34" transform="translate(-71.31 -1482.14)"/>
                        <path class="cls-2" d="M634.06,1940.38c-16.75-6.44-35.58.94-40.53,13.14-5.11,12.58,5.2,28.61,23.9,31.54" transform="translate(-71.31 -1482.14)"/>
                        <path class="cls-2" d="M592.88,1955.71c-1-11.21-8.15-20.47-17.54-23.07-11.48-3.17-24.45,4.16-28.89,17.58" transform="translate(-71.31 -1482.14)"/>
                        <path class="cls-2" d="M556.53,1965.79c-1.15-10.38-9.6-17.77-18.4-17.52-6.63.18-12.81,4.69-15.77,11.38" transform="translate(-71.31 -1482.14)"/>
                        <path class="cls-2" d="M540.26,1997.38c1.1-19.79-12.81-37.31-32.78-42.58-21.85-5.77-49.53,3.46-55.4,21.29-4.78,14.53,7.18,28,9.05,30" transform="translate(-71.31 -1482.14)"/>
                        <path class="cls-2" d="M452.71,1992.7c-7.09-4.22-15.67-3.92-20.33,0-6.16,5.2-6.13,17.27,3.59,24.34" transform="translate(-71.31 -1482.14)"/>
                        <path class="cls-2" d="M428.18,2001.6c-5.61-7.28-13.38-9.35-19.39-5.33-5.09,3.39-7.18,9.94-7.76,12" transform="translate(-71.31 -1482.14)"/>
                        <path class="cls-2" d="M490.82,1820.36c-8.16,8.13-11.9,19.25-8.76,28,4.6,12.87,24.1,21.24,42.93,12.27" transform="translate(-71.31 -1482.14)"/>
                        <path class="cls-2" d="M481.19,1845.77a20.81,20.81,0,0,1-16.65,3.5c-9.93-2.36-13.69-11.43-14-12.27" transform="translate(-71.31 -1482.14)"/>
                        <path class="cls-2" d="M484.69,1795.83c-2.28,12.36,4.16,24.43,14.89,28.91,9,3.74,19.63,1.67,27.16-5.26" transform="translate(-71.31 -1482.14)"/>
                        <path class="cls-2" d="M355,1797.58c-19.4,7.94-26.54,30.07-18.4,44.68,6.5,11.66,22.34,17.83,37.68,13.14" transform="translate(-71.31 -1482.14)"/>
                        <path class="cls-2" d="M334.88,1819.48c-9.29-8.06-22.12-6.26-27.16.88-3.58,5.07-3.23,12.86.88,19.27" transform="translate(-71.31 -1482.14)"/>
                        <path class="cls-2" d="M635.37,1690.7c1.84,11.72-4.49,22.73-14,26.28-11.69,4.37-26.77-3-30.67-17.52" transform="translate(-71.31 -1482.14)"/>
                        <path class="cls-2" d="M596,1711.73c-1,.43-9.75,4.11-15.77,0-6.66-4.56-8.53-17.71,0-28.91" transform="translate(-71.31 -1482.14)"/>
                        <path class="cls-2" d="M621.36,1679.31c6,10.86,18.2,14,25.4,9.64,4.8-2.94,7.31-9.2,7-15.77" transform="translate(-71.31 -1482.14)"/>
                        <path class="cls-2" d="M113.4,2010.19c-.36-2.43-4.09-25.45-21.79-32.52a28.37,28.37,0,0,0-10.35-2H72.5" transform="translate(-71.31 -1482.14)"/>
                        <path class="cls-2" d="M102.72,2023.61a19.88,19.88,0,0,1,15.77-14.9c10-1.66,17,5.55,17.52,6.14" transform="translate(-71.31 -1482.14)"/>
                        <path class="cls-2" d="M101.39,1984.18c3-11.51,12.74-18.81,22.1-18,8.61.71,13.77,8,14.6,9.21" transform="translate(-71.31 -1482.14)"/>
                        <path class="cls-2" d="M78.19,2128.74c4.48-9.1,14.78-13.44,23.66-10.52a19.73,19.73,0,0,1,13.14,18.4" transform="translate(-71.31 -1482.14)"/>
                        <path class="cls-2" d="M97.65,2116.58c4.92-6.33,4-15-1.87-21.1-7-7.22-17.42-7.4-18.35-7.4H72.5" transform="translate(-71.31 -1482.14)"/>
                        <path class="cls-2" d="M647.2,2078.24a18.14,18.14,0,0,0-22.21-2.79,15.09,15.09,0,0,0-6.06,19.56" transform="translate(-71.31 -1482.14)"/>
                        <path class="cls-2" d="M621.36,2077.05a19.74,19.74,0,0,0-20.15-5.26c-8.85,2.88-11.92,11.27-12.27,12.27" transform="translate(-71.31 -1482.14)"/>
                        <path class="cls-2" d="M641.51,2091.94a21.42,21.42,0,0,1,41.17-6.13" transform="translate(-71.31 -1482.14)"/>
                        <path class="cls-2" d="M939.37,1696.83a14.92,14.92,0,0,1-29.79-1.75" transform="translate(-71.31 -1482.14)"/>
                        <path class="cls-2" d="M923.6,1674.93c-1.13,11-9.05,19.83-19.27,21.9a24.5,24.5,0,0,1-23.66-8.76" transform="translate(-71.31 -1482.14)"/>
                        <path class="cls-2" d="M889.43,1696c-.37.73-6,11.22-17.52,12.26-9.53.86-18.95-5.15-22.78-14.89" transform="translate(-71.31 -1482.14)"/>
                        <path class="cls-2" d="M574.05,2106.83c-15,16.23-35.25,17.3-43.8,8.76-7.43-7.41-4.79-20.84-4.38-22.77" transform="translate(-71.31 -1482.14)"/>
                        <path class="cls-2" d="M1076.6,1927.17c-7,7.91-9,17.85-5,24.34,4.61,7.52,19.31,8.14,22.81,8.14h3.07" transform="translate(-71.31 -1482.14)"/>
                        <path class="cls-2" d="M1092,1915.07c-.79,1.36-6.72,11.3-18.25,13-10.84,1.57-22.13-4.85-27.38-16" transform="translate(-71.31 -1482.14)"/>
                        <path class="cls-2" d="M1084.58,1713.6a14,14,0,0,1-1.21-18.65c4.58-5.83,12.22-6.14,12.89-6.16h1.24" transform="translate(-71.31 -1482.14)"/>
                        <path class="cls-2" d="M1079.12,1703.41a11.2,11.2,0,0,0-7.73,19.63" transform="translate(-71.31 -1482.14)"/>
                        <path class="cls-2" d="M298.09,1675.81c-13.62-1.43-25.42,5.13-28.91,14.89-2.41,6.74-.21,13.15.87,15.77" transform="translate(-71.31 -1482.14)"/>
                        <path class="cls-2" d="M267.86,1700.34c-16.62-1.29-30.47,7.12-32.79,17.52-2.28,10.21,7.45,18.44,8.46,19.27" transform="translate(-71.31 -1482.14)"/>
                        <path class="cls-2" d="M234.57,1723.1c-7.18-5.28-18.13-5.19-24.95,0-6.41,4.89-7.62,13.1-2.63,19.29" transform="translate(-71.31 -1482.14)"/>
                        <path class="cls-2" d="M203.47,1733.27c-7.44-6.83-17.75-7.5-25.07-1.93-9,6.87-8.68,19.52-8.65,20.25" transform="translate(-71.31 -1482.14)"/>
                        <path class="cls-2" d="M180.69,1752c-8.77-2.54-17.72,1.51-21,8.76-2.53,5.54-1.46,12.36,2.63,17.52" transform="translate(-71.31 -1482.14)"/>
                        <path class="cls-2" d="M178.94,1774a18.91,18.91,0,0,0-21.9,17.21c-.45,8,4.86,16.19,13.14,19.12" transform="translate(-71.31 -1482.14)"/>
                        <path class="cls-2" d="M199.09,1804.62c-21.78-1.51-39.69,9.23-44.68,26a39.12,39.12,0,0,0-.87,17.34" transform="translate(-71.31 -1482.14)"/>
                        <path class="cls-2" d="M90.85,1759.53a18.73,18.73,0,0,1-17.09,28H72.5" transform="translate(-71.31 -1482.14)"/>
                        <path class="cls-2" d="M89.15,1779.21c2.67,6.42,8.07,10.84,14.1,11.36,7.78.66,15.43-5.27,17.87-14.45" transform="translate(-71.31 -1482.14)"/>
                        <path class="cls-2" d="M101.85,1632.88c3.65-8.44.69-18-5.64-25.07-8.19-9.13-20.1-9.29-21.74-9.3h-2" transform="translate(-71.31 -1482.14)"/>
                        <path class="cls-2" d="M96.59,1647.77c-1.31-8.92,4.84-17.13,13.14-18.39a16.1,16.1,0,0,1,17.52,11.39" transform="translate(-71.31 -1482.14)"/>
                        <path class="cls-2" d="M124.63,1633.76c6.6-7.88,17.64-11.72,27-8.63,10.54,3.47,17.59,14.1,16.75,25.71" transform="translate(-71.31 -1482.14)"/>
                        <path class="cls-2" d="M468.92,1957a20.45,20.45,0,0,0-36.79-4.38" transform="translate(-71.31 -1482.14)"/>
                        <path class="cls-2" d="M454,1942.57c.24-.84,5.66-19,18.4-21.38,10.22-1.88,17.36,7.89,18.39,9.35" transform="translate(-71.31 -1482.14)"/>
                        <path class="cls-2" d="M115.87,1541.77c-1.34-13.22-9-24.42-20.15-28.91-8.73-3.52-16.65-3.5-21.91-3.5H72.5" transform="translate(-71.31 -1482.14)"/>
                        <path class="cls-2" d="M148.28,1521.62c-12.32-8-25.31-9.37-32.41-3.5a25,25,0,0,0-5.26,7.88" transform="translate(-71.31 -1482.14)"/>
                        <path class="cls-2" d="M155.05,2202.61a66.92,66.92,0,0,1-18.73,45.88c-21.7,22.61-51.62,23.6-56.57,23.69H72.5" transform="translate(-71.31 -1482.14)"/>
                        <path class="cls-2" d="M813.22,2123.48c.77,14,10,25.37,21.9,28a29.57,29.57,0,0,0,23.65-6.13" transform="translate(-71.31 -1482.14)"/>
                        <path class="cls-2" d="M848.26,2150.64c.82,2.47,6.17,15.72,13.14,19.27,9.37,4.78,22.77,1.26,31.54-9.64" transform="translate(-71.31 -1482.14)"/>
                        <path class="cls-2" d="M887,2167.88c1,4.46,3.78,13.79,12.26,20.51,15.9,12.61,44,9.83,55.88-5.94,6.13-8.12,6.29-17.5,6-22.17" transform="translate(-71.31 -1482.14)"/>
                        <path class="cls-2" d="M952.07,2185.24c.43,3.39,1.87,12,7,17.89,7,8,18.07,7.79,27.16-1.28" transform="translate(-71.31 -1482.14)"/>
                        <path class="cls-2" d="M982.3,2185.68c-.52,14.56,6.5,28.08,18.39,35,12.9,7.55,26.15,4.26,28.91,3.51" transform="translate(-71.31 -1482.14)"/>
                        <path class="cls-2" d="M1024.22,2224.35c-13.19,17.43-12.54,41.15,1.63,60.29,20.13,27.21,55.44,29,57.31,29.27h14.34" transform="translate(-71.31 -1482.14)"/>
                    </g>
                </g>
            </g>
        </g>
    </g>
</svg>