<svg id="CONTENT"
    xmlns="http://www.w3.org/2000/svg" viewBox="0 0 1025 823.78">
    <defs>
        <style>.cls-1{fill:#9e2e48;}.cls-2{fill:none;stroke:#000;stroke-miterlimit:10;stroke-width:5px;}</style>
    </defs>
    <g id="NEW_MEDIUM" data-name="NEW MEDIUM">
        <g id="FLOWERDUST_SMALL">
            <g id="JUNCTION_FLOWERDUST_SMALL">
                <g id="JUNCTION_FLOWERDUST_TOP_SMALL">
                    <polygon class="cls-1" points="2.38 2.51 17.01 3.08 30.66 6.19 44.52 13.04 54.95 22 66.03 39.73 67.88 42.28 73.62 40.89 80.9 42.86 85.45 47.73 88.79 39.98 95.08 31.73 104.29 26.47 114.23 28.08 123.3 35.93 129.69 49.25 135.67 44.56 143.71 40.89 155.97 43.36 167.91 51.35 171.51 55.14 178.24 44.63 191.89 33.95 204.09 32.81 219.48 38.63 231.96 52.14 235.17 63.08 242.6 65.22 250.59 73.12 258.72 69.82 273.08 68.27 286.95 72.61 298.87 83.89 303.59 98.5 302.07 115.32 314.44 126.16 322.14 138.81 327.25 153.94 327.25 166.09 307.1 237.06 2.38 296.33 0.04 296.33 0.04 2.5 2.38 2.51"/>
                    <path id="FOND" class="cls-1" d="M72.5,1859.5l13.14-2.32,12.27-10.51,7.44-8.47,5.7,9.34,11.39,9.64,14.31,2.32,14.6-3.2,6.13,14,12.26,11.39,13.14,5.26,9.64-2.63,4.67-5.25,7.6,6.12,8.76,2.63,10.22-.67,7.74-4.15,4.81,8.33,6.14,8.76,11.39,2.3,5.25,10,7.89,6.13,6.86,3.17,11.53-2.29,8.77-7.88,3.5-7.89h5.26l9.63,7,13.64,2.76,10-2.76,10.51-7.88,4.38-11.39,1.75-7.89,10.51,2.75,9.21-.56,9.19-3.06,7-7,2.2-12.41,9.34-1.17,9.49-3.07,6.13,12.27,11.54,11,10.07,4,16.06-1,6.57-3.21,5.69,9.35,11,7.5,9.92,1.82,13.79-4.5,12.64-11.83,2.19-5.25,10.95,5.25,8.76,2.63,11.39-.76,14.16-6.27,12.33-13.56,7.68,10.07,11.39,6.14,15.77-.88,11.39-11.39,3.5-7,7.89,5.26h10.51l13.14-5.26,8.12-11.82,2.83-7.89,11.68,4.5,1.46,13.32,5.7,8.9,12.11,4.53,2.78,3.79v16.65l6.57,10.51,13.58,5.1h11.27l13.26-4.66,10.07-7.59,11,9.34L778,1910.9l14.16-1.77,7-4.2,13.58,7.44,14.16,2.2,9-1.84,4,18.92,10.51,10.51,10.95,2.25,10.07-3.13,6.57-2.19,10.08,11.83,11.53,5.29,11.25,0,15.77-10.42,5.25-10.61,16.65,4.38,13.14-2.63L977.48,1922l14.75,19.14,16.26,3.36,12.92-4.21,12.14-12.16,1.75-2.63,7.45,1.41,11.82-4,4.63-7,8.51,9.63,11.39,4.38,13.14,1.76h5.26V1169.47h-11.57s-18.22,3.5-19.09,3.5-25.41,13.14-25.41,13.14l-13.58,13.58-8.76,16.65-2.81,23L1006,1240l-9.64,3.5-9.13,13.89-2,1-5.55-4.33-7-3.51-9.93,1.75-8.18,7.39-3.79,10.83-8.76.18-10.51,3.47-6,7.89-8.91-5.23-7.88-4.38-10.52,1.76-3.57,1.67-7.81-8.68-17.67-8.81-12.12.92-16.65,6.14-8.76,11.38-6.71,16.51-9.06,1.89-5.59,9.64-.54,9.64,4.38,10.51-10.51,3.5-11.06,14.64-10-2.37-11.39,3.5-2.87-8-3.26-9.56-7.88-7L746,1318.4l-10.75,3.06-6.14,3.51-.87-7.89-6.33-6.37h-8.23l-1.21-11.15-9.64-8.76-12.31-3.42-8.86,1.52,1-7.69-2.62-4.43-8.76.88-.63-6.8-3.75-7.22-7.88-5.25-11.83,4.43-5.69-5.31-7-6.13-9.64-2.63-11.39,2.63-9.63,7-5.26,11.39-8.81-4.89h-9l-8.51,4-7,5.26L553,1272.94l-5.25-10.17-8.76-9.64-7.89-5.26-12-2.29-16.89,4.05-10.51-7-13.14-5.26-14-1.75-13.14,6.13L445.27,1252,444,1263.59l-7.44,1.81-7,7.88-1.32,7.35,1.78,7.54H419.33l-10.86,4.38-7.88,7.89L392.7,1311l-7.88-4.38h-8.76l-4.38,5.26-1.75,6.13h-9.64l-8.69,3.29-6.2,12.48-8.25-1.86-7.52,3.61-6.14,11.39-.34,8.47L313,1352.13h-6.13l-5.26-9.64-10.51-7.88-10.95-.08-11.83,2.7-4.38,1.76-4.38-11.39L249,1317.08l-11.39-1.75-13.14,1.75L214,1323.22l-8.77,7.88-7,14.89-6.14-3.5-9-.79-7.66,5.17-7.3,13.76-7.31.8-9.92,6.47-3.07,3.24-5.69-3.24-8.76-4.38-12.27.87-9.63,6.13-7.89,9.64-4.82,16.6-.44,9.68-7-3.5-9.79-2.63-9,.44Z" transform="translate(-72.47 -1135.52)"/>
                    <g id="Tracé">
                        <path class="cls-2" d="M299,1896.17c-.55,11.84-7.3,21.62-16.64,24.53a21,21,0,0,1-14.89-.88c-11.12-5.24-12.23-18.7-12.27-19.27" transform="translate(-72.47 -1135.52)"/>
                        <path class="cls-2" d="M299,1902.3c1.37,1,17.53,15.77,34.17,9.63,14.79-5.44,24.54-24.94,18.4-45.55" transform="translate(-72.47 -1135.52)"/>
                        <path class="cls-2" d="M354.16,1883.9c8.76,5.26,23.44,3.34,29.78-2.63,7.18-6.75,7.06-17.75,7-19.27" transform="translate(-72.47 -1135.52)"/>
                        <path class="cls-2" d="M376.06,1851.49c6.29,8,16,12.11,25.4,10.51a26.16,26.16,0,0,0,15.77-9.64" transform="translate(-72.47 -1135.52)"/>
                        <path class="cls-2" d="M411.1,1860.25c.86,2,7.56,20.1,21.9,24.53,12.17,3.75,25.76,0,35-9.64" transform="translate(-72.47 -1135.52)"/>
                        <path class="cls-2" d="M460.16,1883c1.19,1.72,10.19,16.24,22.78,17.53,12.84,1.31,26.82-8,32.41-21.91" transform="translate(-72.47 -1135.52)"/>
                        <path class="cls-2" d="M503.09,1859.37c5.82,15.32,18.37,26.57,32.41,28,20.25,2.11,42.51-16.25,44.68-43.8" transform="translate(-72.47 -1135.52)"/>
                        <path class="cls-2" d="M573.61,1866.26c5.23,12.66,18.08,19.44,29.65,16.56,9.12-2.27,16.34-10.26,18.53-20.38" transform="translate(-72.47 -1135.52)"/>
                        <path class="cls-2" d="M615.22,1848a22.75,22.75,0,0,0,14.9,20.15c11.52,4.17,21.63-3.68,23.65-5.26,7.56-5.89,10.73-16.52,11.39-19.27" transform="translate(-72.47 -1135.52)"/>
                        <path class="cls-2" d="M651.14,1821.7c.18.87,4,18.45,21,24.53a32.78,32.78,0,0,0,33.29-7" transform="translate(-72.47 -1135.52)"/>
                        <path class="cls-2" d="M704.58,1820c-1.69,15.9,5.74,30.11,17.52,35,1.11.46,14.75,5.91,25.41-2.63,7.79-6.24,8.63-15.66,8.76-17.52" transform="translate(-72.47 -1135.52)"/>
                        <path class="cls-2" d="M746.63,1831.34c9.57,7,22.21,7.67,31.54,1.75,11.25-7.14,15.78-22.59,9.64-35.92" transform="translate(-72.47 -1135.52)"/>
                        <path class="cls-2" d="M790,1820c14.29,7.28,31.41,6,42.2-2.63s10.85-21.53,10.8-23.65" transform="translate(-72.47 -1135.52)"/>
                        <path class="cls-2" d="M837.31,1812.94c3.49,2.06,17.14,9.62,34.07,7,20.72-3.21,39.16-19.55,38.2-37.67-.66-12.37-10.07-20.89-13.42-23.66" transform="translate(-72.47 -1135.52)"/>
                        <path class="cls-2" d="M978.79,1818.2" transform="translate(-72.47 -1135.52)"/>
                        <path class="cls-2" d="M272.68,1896.17c-12.66,8.41-26.71,7.93-33.29.87-1.15-1.24-6.13-7-7.88-14" transform="translate(-72.47 -1135.52)"/>
                        <path class="cls-2" d="M240.27,1867.25a24,24,0,0,1-16.65,20.15c-10.06,3-18.4,1.76-25.4-7.88" transform="translate(-72.47 -1135.52)"/>
                        <path class="cls-2" d="M200,1851.49c7.22,15.37-.3,31.5-11.39,35-10.39,3.31-21.84-7.12-24.53-9.64-15.74-14.74-14.41-37.23-14-42.05" transform="translate(-72.47 -1135.52)"/>
                        <path class="cls-2" d="M1034,1926a30.29,30.29,0,0,1-25.41,18.4c-12.53.9-25.43-9.09-30.66-21" transform="translate(-72.47 -1135.52)"/>
                        <path class="cls-2" d="M981.42,1911.93c-4,18.81-21,30.54-36.79,28-11.84-1.88-21.88-11.61-25.41-24.53" transform="translate(-72.47 -1135.52)"/>
                        <path class="cls-2" d="M931.49,1934.71c-2.9,11.22-13.19,20.45-24.53,21.9-11.89,1.53-23.59-6.58-28.92-17.52" transform="translate(-72.47 -1135.52)"/>
                        <path class="cls-2" d="M886.81,1930.33c-9.53,13.2-26.2,17-37.68,10.51-12.3-7-13.1-26.19-13.14-27.15" transform="translate(-72.47 -1135.52)"/>
                        <path class="cls-2" d="M855.27,1897.92c-.86,1.3-11.18,16.38-29.79,16.64a36.75,36.75,0,0,1-33.29-21" transform="translate(-72.47 -1135.52)"/>
                        <path class="cls-2" d="M799.2,1904.93c-5.26,5.25-19.88,9-29.79,5.25-17.42-6.5-20.89-26.3-21-27.16" transform="translate(-72.47 -1135.52)"/>
                        <path class="cls-2" d="M753.64,1897c-7.88,15.77-35.91,17.18-46.43,8.76-8-6.37-10.7-19.87-8.76-30.66" transform="translate(-72.47 -1135.52)"/>
                        <path class="cls-2" d="M708.09,1873.39c-10.63,3-20.65,1.5-26.28-5.26-4.38-5.26-3.49-17.43-3.51-20.15" transform="translate(-72.47 -1135.52)"/>
                        <path class="cls-2" d="M339.26,1661.38c10.51,34.78,43.07,53.31,69.21,46.43,26.54-7,36.21-37.46,36.8-39.42" transform="translate(-72.47 -1135.52)"/>
                        <path class="cls-2" d="M437.82,1686.78c10.74,6.63,24.8,7.27,35.13,1.76,12.8-6.84,17.86-22.06,10.33-35" transform="translate(-72.47 -1135.52)"/>
                        <path class="cls-2" d="M351.53,1645.51c-3.62,14.07-17.22,21.43-28,17.57-8.59-3.07-14.67-12.95-14-24" transform="translate(-72.47 -1135.52)"/>
                        <path class="cls-2" d="M486.88,1664c14.13,9.28,32.81,7.18,40.88-1.76,5.63-6.23,5.87-15.55,1-23.65" transform="translate(-72.47 -1135.52)"/>
                        <path class="cls-2" d="M329.63,1629c-8,8.86-20.23,11.57-29.79,7-10.34-4.92-12.85-16.11-13.14-17.52" transform="translate(-72.47 -1135.52)"/>
                        <path class="cls-2" d="M533.31,1649.11c13.89,5.53,29.21-.64,33.62-11.38,3.51-8.56-.23-19.23-9.61-25.41" transform="translate(-72.47 -1135.52)"/>
                        <path class="cls-2" d="M312.54,1657c-15.15,10.69-37.45,11.94-53.22,3.5-13.4-7.17-20.1-20.28-17-33.29" transform="translate(-72.47 -1135.52)"/>
                        <path class="cls-2" d="M242,1637.73c-14.56-7.37-21.44-20.85-17.22-33.3,4.66-13.73,21.93-23.43,41.32-22.77" transform="translate(-72.47 -1135.52)"/>
                        <path class="cls-2" d="M246,1583.85c-7.57-36.89,7.42-67.21,22.26-69.89,10.93-2,23.87,10.67,31.18,30.39" transform="translate(-72.47 -1135.52)"/>
                        <path class="cls-2" d="M289.33,1525.59c4.67-10.12,14.85-16.38,25.4-15.77,12.28.71,22.82,10.59,24.53,23.65" transform="translate(-72.47 -1135.52)"/>
                        <path class="cls-2" d="M336.2,1519.81c21.1-11.08,43-4.65,47.88,5.56,3.69,7.72-1.48,19.41-12.6,27.81" transform="translate(-72.47 -1135.52)"/>
                        <path class="cls-2" d="M383.07,1522.08c.89-.76,14.78-12.35,32.41-7a34.44,34.44,0,0,1,23.65,26.28" transform="translate(-72.47 -1135.52)"/>
                        <path class="cls-2" d="M432.56,1527.46c2.57-9.19,11-15.14,19.84-14.11s16.07,9.06,16.52,18.81" transform="translate(-72.47 -1135.52)"/>
                        <path class="cls-2" d="M463.66,1550.12a16.58,16.58,0,0,1,30.67-12.27" transform="translate(-72.47 -1135.52)"/>
                        <path class="cls-2" d="M545.58,1616.26c10.71-.24,17.67-7.59,16.14-13.6-1.22-4.82-8-8.92-16.14-8.74" transform="translate(-72.47 -1135.52)"/>
                        <path class="cls-2" d="M538.13,1602.68a11.92,11.92,0,0,0-7-22.78" transform="translate(-72.47 -1135.52)"/>
                        <path class="cls-2" d="M518.86,1591.29c9.77-2.23,15.23-12.45,12.26-21-2.77-8-12.22-12.72-21-9.64" transform="translate(-72.47 -1135.52)"/>
                        <path class="cls-2" d="M515.19,1560.19c2.46-8,2.93-16.85,0-21.7-4.2-7-16.16-6.92-25.68,6.78" transform="translate(-72.47 -1135.52)"/>
                        <path class="cls-2" d="M150.91,1856.74c-14.9,9.64-39.36-2-44.68-16.64-4.62-12.68.28-27.69,12.26-35.92" transform="translate(-72.47 -1135.52)"/>
                        <path class="cls-2" d="M105.35,1836.59c-.45,1.56-8,16.77-23.24,21.49A32.52,32.52,0,0,1,73,1859.5H72.5" transform="translate(-72.47 -1135.52)"/>
                        <path class="cls-2" d="M276.19,1514.2c-.17-1.75-1.43-13.1-11.39-20.15a28.18,28.18,0,0,0-28.91-1.75" transform="translate(-72.47 -1135.52)"/>
                        <path class="cls-2" d="M247.71,1490.11c-.23-1.34-3.65-19.22-18-26-14.77-7-27.25,4.26-28,5" transform="translate(-72.47 -1135.52)"/>
                        <path class="cls-2" d="M202.6,1489.67c2.6-14.82-3.55-28.45-14-33.29-9.67-4.47-19.91,0-21.9.87-11.42,5-15.76,15.29-16.65,17.53" transform="translate(-72.47 -1135.52)"/>
                        <path class="cls-2" d="M157.48,1462.07c-2.31-16-11-28.71-22-32.29-14.24-4.61-25.11,8.22-26.16,9.5" transform="translate(-72.47 -1135.52)"/>
                        <path class="cls-2" d="M115.25,1434.94c-.4-3-2.73-18.45-15.53-27.4-7.7-5.39-15.17-7.28-18.9-7.23H72.5" transform="translate(-72.47 -1135.52)"/>
                        <path class="cls-2" d="M246,1646.92c-10.81,17.24-27.12,23.37-36.23,18.36-1.26-.7-6.28-3.75-8.45-13.46" transform="translate(-72.47 -1135.52)"/>
                        <path class="cls-2" d="M210.48,1666.64c-3.5,18.39-35,31.31-45.63,28-7.17-2.22-11.89-12.1-12.4-13.14a29.11,29.11,0,0,1-2.86-11.39" transform="translate(-72.47 -1135.52)"/>
                        <path class="cls-2" d="M170.18,1646.92c-9,19.56-25.23,28.34-37.67,23-8.81-3.79-13.34-13.65-14.89-17.51" transform="translate(-72.47 -1135.52)"/>
                        <path class="cls-2" d="M126.38,1638.6a15.93,15.93,0,1,1-31.54-4.38" transform="translate(-72.47 -1135.52)"/>
                        <path class="cls-2" d="M97.91,1646.92c-2.61,3.94-8.93,12.23-18.85,14.53a23.5,23.5,0,0,1-4.89.59l-1.67,0" transform="translate(-72.47 -1135.52)"/>
                        <path class="cls-2" d="M99.13,1407.76c-2.59-22.75,9.59-41.17,24.36-44.16,11.65-2.36,21.87,5.51,24.35,7.54" transform="translate(-72.47 -1135.52)"/>
                        <path class="cls-2" d="M146.53,1384.54a20.32,20.32,0,0,1,28.91-21.9" transform="translate(-72.47 -1135.52)"/>
                        <path class="cls-2" d="M168.43,1359.57c.22-1.35,1.9-10.71,9.47-15.62,6.12-4,13.78-3.53,19.88,1.11" transform="translate(-72.47 -1135.52)"/>
                        <path class="cls-2" d="M197.34,1357c-.06-2.12-.34-22.44,16.06-34.19,10.41-7.45,28.8-12.36,40.63-2.77,7.76,6.28,9.13,15.91,9.45,19.4" transform="translate(-72.47 -1135.52)"/>
                        <path class="cls-2" d="M248.59,1355.68a36.43,36.43,0,0,1,17.68-18.48c3.73-1.77,16.9-8.2,28.73-1.08,8.51,5.12,13.15,15.33,12.15,26.08" transform="translate(-72.47 -1135.52)"/>
                        <path class="cls-2" d="M1034.21,1264.6c-.37-13.19-11.15-23.82-22.56-25.14-11.23-1.29-19,7.14-19.6,7.8-6.59,7.45-4.7,16.38-4.35,17.9" transform="translate(-72.47 -1135.52)"/>
                        <path class="cls-2" d="M987.55,1260.14c-6.45-9.11-17.88-12.1-26.28-7.89-9.3,4.68-10.45,16-10.51,16.65" transform="translate(-72.47 -1135.52)"/>
                        <path class="cls-2" d="M959.52,1275.75c-3-2.64-8.7-6.64-15.72-6.4-11.93.4-23.78,12.88-25.89,31.09" transform="translate(-72.47 -1135.52)"/>
                        <path class="cls-2" d="M931.49,1304.82" transform="translate(-72.47 -1135.52)"/>
                        <path class="cls-2" d="M924,1282.91c-6.12-9.93-16.6-13.52-24.88-9.2-9.31,4.86-11.33,17.37-11.48,18.41" transform="translate(-72.47 -1135.52)"/>
                        <path class="cls-2" d="M894.62,1275.35c-8.1-11.21-21.27-17.85-34.56-16.92-17.69,1.23-33,15.7-35.16,34.9" transform="translate(-72.47 -1135.52)"/>
                        <path class="cls-2" d="M837.75,1293.54c-12.87-4.61-25.1,1.82-28,11.29-2.81,9.07,3.8,18.05,4.38,18.82" transform="translate(-72.47 -1135.52)"/>
                        <path class="cls-2" d="M825.48,1325a26.94,26.94,0,0,0-26.28,7c-9.88,10.06-7.23,23.51-7,24.53" transform="translate(-72.47 -1135.52)"/>
                        <path class="cls-2" d="M792.52,1343.11a17.92,17.92,0,0,0-20.38.15c-7.89,5.42-11.55,16.33-9.82,25.27a21.58,21.58,0,0,0,4.77,9.92" transform="translate(-72.47 -1135.52)"/>
                        <path class="cls-2" d="M774.67,1374a19.57,19.57,0,0,0-5.26,37.67" transform="translate(-72.47 -1135.52)"/>
                        <path class="cls-2" d="M778.12,1402.06c-9.93,9.8-12.76,25.37-7.23,37.63,6.36,14.11,22.53,21,37.07,14.86" transform="translate(-72.47 -1135.52)"/>
                        <path class="cls-2" d="M785.18,1454.63c-10.2,11.23-7.64,28.14,2.63,35,8.86,5.95,22.67,3.94,30.66-6.13" transform="translate(-72.47 -1135.52)"/>
                        <path class="cls-2" d="M809.3,1490.82c8.17,10.46,21.09,15.9,33.78,14.06,15.14-2.19,27.55-14.41,30.43-30.32" transform="translate(-72.47 -1135.52)"/>
                        <path class="cls-2" d="M860.57,1496.24c-1.41,9.86,1.29,19.71,8.07,24.58,10.3,7.38,30.46,3.59,41.38-13.77" transform="translate(-72.47 -1135.52)"/>
                        <path class="cls-2" d="M908.71,1494.93c-1.68,15.72,5.85,27.92,14.89,29.78,5.25,1.09,10.2-1.48,13.14-3.5" transform="translate(-72.47 -1135.52)"/>
                        <path class="cls-2" d="M932.36,1524.71c.55,7.8,5.82,18.82,13.14,21a18.76,18.76,0,0,0,21-7.89" transform="translate(-72.47 -1135.52)"/>
                        <path class="cls-2" d="M964.34,1541.8c1.29,12,8.36,21.9,18.06,25.21,12.45,4.26,27.4-3,34-17.88" transform="translate(-72.47 -1135.52)"/>
                        <path class="cls-2" d="M1000,1566.33c-2.6,12.46,3.9,22.92,12.27,26.54,10.22,4.42,23-9.48,23.51-10" transform="translate(-72.47 -1135.52)"/>
                        <path class="cls-2" d="M1032.23,1572c-1.23,10.86,5.7,19.45,13.14,20.15s12.83-6.57,13.14-7" transform="translate(-72.47 -1135.52)"/>
                        <path class="cls-2" d="M1055,1589.54c0,1.37,4.3,24.29,19.53,34.19a31.61,31.61,0,0,0,16.91,4.92h6" transform="translate(-72.47 -1135.52)"/>
                        <path class="cls-2" d="M306.85,1352.13c17-.5,27.95,11.1,27.16,20.15-.56,6.27-6.85,12.07-14.9,14.89" transform="translate(-72.47 -1135.52)"/>
                        <path class="cls-2" d="M334.88,1372.28c32.42-4.38,53.7,19.8,54.32,35.92.45,11.79-8.42,20.85-11.39,23.65" transform="translate(-72.47 -1135.52)"/>
                        <path class="cls-2" d="M390.07,1414.33c21.91,6.13,22.14,28.73,16.65,35.92-4.24,5.54-13.89,7.51-22.78,3.5" transform="translate(-72.47 -1135.52)"/>
                        <path class="cls-2" d="M406.72,1429.22c11-11.58,39.49-8.19,47.31.88,5.79,6.72,6.33,17.86.87,27.15" transform="translate(-72.47 -1135.52)"/>
                        <path class="cls-2" d="M458.41,1452c19.18,4.46,35.08,21.28,34.15,37.22-.78,13.47-11.28,25.59-26.64,30.67" transform="translate(-72.47 -1135.52)"/>
                        <path class="cls-2" d="M323.64,1355.6c-2.1-10.4,2.78-20.1,9.65-22.85,8.49-3.4,21.29,3.31,23.7,17.11" transform="translate(-72.47 -1135.52)"/>
                        <path class="cls-2" d="M345.83,1332.85c.67-6.89,4.95-12.8,10.94-14.89,8.21-2.86,18.8,1.69,22.79,11.39" transform="translate(-72.47 -1135.52)"/>
                        <path class="cls-2" d="M371.32,1319.71c-3.2-6.34,2.1-12.59,8.65-13.47,5.35-.72,11.79,2.13,14,7.13" transform="translate(-72.47 -1135.52)"/>
                        <path class="cls-2" d="M392.7,1325.84a33.91,33.91,0,0,1,3.51-20.14c4.92-9.27,15.28-17.64,28-17.53,11.23.11,18.86,6.74,21,8.76" transform="translate(-72.47 -1135.52)"/>
                        <path class="cls-2" d="M430,1288.17c-4.83-10.68.82-21.81,9.34-24.38,6.16-1.85,13.77.79,18.67,6.65" transform="translate(-72.47 -1135.52)"/>
                        <path class="cls-2" d="M444,1262.33c-.05-11.88,4.41-17.51,6.09-19.35,9.88-10.85,32.52-10.11,53,6.45" transform="translate(-72.47 -1135.52)"/>
                        <path class="cls-2" d="M482.06,1281.6c1-17.76,13.55-32.44,29.79-35.46,17.6-3.27,35.5,7.92,41.17,26.37" transform="translate(-72.47 -1135.52)"/>
                        <path class="cls-2" d="M541.63,1290.8c2.31-12.18,11.58-19.44,19.28-18.4,5.94.81,9.6,6.39,10.51,7.89" transform="translate(-72.47 -1135.52)"/>
                        <path class="cls-2" d="M566.16,1273.28c8.18-8.34,20.18-10.62,28.91-6.13,11.44,5.87,16.5,22.94,7.89,36.79" transform="translate(-72.47 -1135.52)"/>
                        <path class="cls-2" d="M599.89,1269.78c1.88-9.57,8.63-17.3,17.43-19.76,11.31-3.16,24.29,2.87,29.88,14.82" transform="translate(-72.47 -1135.52)"/>
                        <path class="cls-2" d="M640.3,1282.48c-1.28-13.82,8.92-23.88,17.78-23.21,6.7.5,13.27,7.19,15,16.44" transform="translate(-72.47 -1135.52)"/>
                        <path class="cls-2" d="M662.53,1280.29c7.49-4.43,15.39-5,18.4-1.75,3.56,3.77,2,14.52-7.89,22.77" transform="translate(-72.47 -1135.52)"/>
                        <path class="cls-2" d="M681.81,1289.05c14.78-5.4,29.22,3.13,31.53,14,1.72,8-3.15,17.62-12.26,22.77" transform="translate(-72.47 -1135.52)"/>
                        <path class="cls-2" d="M713.78,1311c8-1.44,15.46,3.8,16.2,10.51.67,6-4.23,12-11.43,13.15" transform="translate(-72.47 -1135.52)"/>
                        <path class="cls-2" d="M730,1325.14c14.43-10.35,29.4-8.23,36,2.61,1.24,2,3.95,7.33,3.89,16.93" transform="translate(-72.47 -1135.52)"/>
                        <path class="cls-2" d="M485.13,1505.53c12.17,8.77,29.4,9.54,41.49,2.28,9.94-6,15.08-16.58,13.38-27.34" transform="translate(-72.47 -1135.52)"/>
                        <path class="cls-2" d="M535.94,1501.06c16.75,6.44,35.58-.94,40.53-13.14,5.11-12.58-5.2-28.61-23.9-31.54" transform="translate(-72.47 -1135.52)"/>
                        <path class="cls-2" d="M577.12,1485.73c1,11.21,8.15,20.47,17.54,23.06,11.48,3.18,24.45-4.15,28.89-17.57" transform="translate(-72.47 -1135.52)"/>
                        <path class="cls-2" d="M613.47,1475.65c1.15,10.38,9.6,17.77,18.4,17.52,6.63-.18,12.81-4.69,15.77-11.39" transform="translate(-72.47 -1135.52)"/>
                        <path class="cls-2" d="M629.74,1444.06c-1.1,19.78,12.81,37.3,32.78,42.58,21.85,5.77,49.53-3.46,55.4-21.29,4.78-14.53-7.18-28-9-30" transform="translate(-72.47 -1135.52)"/>
                        <path class="cls-2" d="M717.29,1448.73c7.09,4.23,15.67,3.93,20.33,0,6.16-5.19,6.13-17.26-3.59-24.33" transform="translate(-72.47 -1135.52)"/>
                        <path class="cls-2" d="M741.82,1439.84c5.61,7.28,13.38,9.35,19.39,5.33,5.09-3.39,7.18-9.94,7.76-12" transform="translate(-72.47 -1135.52)"/>
                        <path class="cls-2" d="M679.18,1621.08c8.16-8.13,11.9-19.25,8.76-28-4.6-12.87-24.1-21.24-42.93-12.27" transform="translate(-72.47 -1135.52)"/>
                        <path class="cls-2" d="M688.81,1595.67a20.81,20.81,0,0,1,16.65-3.5c9.93,2.36,13.69,11.43,14,12.26" transform="translate(-72.47 -1135.52)"/>
                        <path class="cls-2" d="M685.31,1645.61c2.28-12.36-4.16-24.43-14.89-28.91-9-3.74-19.63-1.67-27.16,5.26" transform="translate(-72.47 -1135.52)"/>
                        <path class="cls-2" d="M815,1643.86c19.4-7.95,26.54-30.07,18.4-44.68-6.5-11.66-22.34-17.84-37.68-13.14" transform="translate(-72.47 -1135.52)"/>
                        <path class="cls-2" d="M835.12,1622c9.29,8.06,22.12,6.26,27.16-.88,3.58-5.08,3.23-12.86-.88-19.27" transform="translate(-72.47 -1135.52)"/>
                        <path class="cls-2" d="M534.63,1750.74c-1.84-11.72,4.49-22.73,14-26.28,11.69-4.37,26.77,3,30.67,17.52" transform="translate(-72.47 -1135.52)"/>
                        <path class="cls-2" d="M574.05,1729.71c1-.43,9.75-4.11,15.77,0,6.66,4.56,8.53,17.71,0,28.91" transform="translate(-72.47 -1135.52)"/>
                        <path class="cls-2" d="M548.64,1762.13c-6-10.86-18.2-14.05-25.4-9.64-4.8,2.94-7.31,9.2-7,15.77" transform="translate(-72.47 -1135.52)"/>
                        <path class="cls-2" d="M1056.6,1431.25c.36,2.43,4.09,25.45,21.79,32.52a28.58,28.58,0,0,0,10.35,2h8.76" transform="translate(-72.47 -1135.52)"/>
                        <path class="cls-2" d="M1067.28,1417.83a19.88,19.88,0,0,1-15.77,14.9c-10,1.66-17-5.55-17.52-6.14" transform="translate(-72.47 -1135.52)"/>
                        <path class="cls-2" d="M1068.61,1457.26c-3,11.51-12.74,18.81-22.1,18-8.61-.72-13.77-8-14.6-9.21" transform="translate(-72.47 -1135.52)"/>
                        <path class="cls-2" d="M1091.81,1312.7c-4.48,9.1-14.78,13.44-23.66,10.52a19.73,19.73,0,0,1-13.14-18.4" transform="translate(-72.47 -1135.52)"/>
                        <path class="cls-2" d="M1072.35,1324.86c-4.92,6.33-4,15,1.87,21.1,7,7.22,17.42,7.4,18.35,7.4h4.93" transform="translate(-72.47 -1135.52)"/>
                        <path class="cls-2" d="M230.63,1744.61a14.92,14.92,0,0,1,29.79,1.75" transform="translate(-72.47 -1135.52)"/>
                        <path class="cls-2" d="M246.4,1766.51c1.13-11,9-19.83,19.27-21.9a24.48,24.48,0,0,1,23.66,8.76" transform="translate(-72.47 -1135.52)"/>
                        <path class="cls-2" d="M280.57,1745.48c.37-.73,6-11.22,17.52-12.26,9.53-.86,19,5.14,22.78,14.89" transform="translate(-72.47 -1135.52)"/>
                        <path class="cls-2" d="M93.4,1514.27c7-7.91,9-17.85,5-24.34-4.61-7.52-19.31-8.15-22.81-8.15H72.5" transform="translate(-72.47 -1135.52)"/>
                        <path class="cls-2" d="M78,1526.37c.79-1.36,6.72-11.3,18.25-13,10.84-1.56,22.13,4.85,27.38,16" transform="translate(-72.47 -1135.52)"/>
                        <path class="cls-2" d="M85.42,1727.84a14,14,0,0,1,1.21,18.64c-4.58,5.84-12.22,6.15-12.89,6.16H72.5" transform="translate(-72.47 -1135.52)"/>
                        <path class="cls-2" d="M90.88,1738a11.2,11.2,0,0,0,7.73-19.63" transform="translate(-72.47 -1135.52)"/>
                        <path class="cls-2" d="M871.91,1765.63c13.62,1.43,25.42-5.13,28.91-14.89,2.41-6.74.21-13.15-.87-15.77" transform="translate(-72.47 -1135.52)"/>
                        <path class="cls-2" d="M902.14,1741.1c16.62,1.29,30.47-7.12,32.79-17.52,2.28-10.21-7.45-18.44-8.46-19.27" transform="translate(-72.47 -1135.52)"/>
                        <path class="cls-2" d="M935.43,1718.34c7.18,5.28,18.13,5.19,25,0,6.41-4.89,7.62-13.1,2.63-19.29" transform="translate(-72.47 -1135.52)"/>
                        <path class="cls-2" d="M966.53,1708.17c7.44,6.83,17.75,7.5,25.07,1.93,9-6.87,8.68-19.52,8.65-20.25" transform="translate(-72.47 -1135.52)"/>
                        <path class="cls-2" d="M989.31,1689.41c8.77,2.54,17.72-1.51,21-8.76,2.53-5.55,1.46-12.36-2.63-17.52" transform="translate(-72.47 -1135.52)"/>
                        <path class="cls-2" d="M991.06,1667.49a18.91,18.91,0,0,0,21.9-17.21c.45-8-4.86-16.19-13.14-19.13" transform="translate(-72.47 -1135.52)"/>
                        <path class="cls-2" d="M970.91,1636.82c21.78,1.51,39.69-9.23,44.68-26a39.12,39.12,0,0,0,.87-17.34" transform="translate(-72.47 -1135.52)"/>
                        <path class="cls-2" d="M1079.15,1681.91a18.73,18.73,0,0,1,17.09-28h1.26" transform="translate(-72.47 -1135.52)"/>
                        <path class="cls-2" d="M1080.85,1662.23c-2.67-6.42-8.07-10.84-14.1-11.36-7.78-.66-15.43,5.27-17.87,14.45" transform="translate(-72.47 -1135.52)"/>
                        <path class="cls-2" d="M1068.15,1808.56c-3.65,8.44-.69,18,5.64,25.07,8.19,9.13,20.1,9.29,21.74,9.3h2" transform="translate(-72.47 -1135.52)"/>
                        <path class="cls-2" d="M1073.41,1793.67c1.31,8.92-4.84,17.13-13.14,18.39a16.1,16.1,0,0,1-17.52-11.39" transform="translate(-72.47 -1135.52)"/>
                        <path class="cls-2" d="M1045.37,1807.68c-6.6,7.88-17.64,11.72-27,8.63-10.54-3.47-17.59-14.1-16.75-25.71" transform="translate(-72.47 -1135.52)"/>
                        <path class="cls-2" d="M701.08,1484.41a20.45,20.45,0,0,0,36.79,4.38" transform="translate(-72.47 -1135.52)"/>
                        <path class="cls-2" d="M716,1498.87c-.24.84-5.66,19-18.4,21.38-10.22,1.88-17.36-7.89-18.39-9.35" transform="translate(-72.47 -1135.52)"/>
                        <path class="cls-2" d="M1054.13,1899.67c1.34,13.22,9,24.42,20.15,28.91,8.73,3.52,16.65,3.5,21.91,3.5h1.31" transform="translate(-72.47 -1135.52)"/>
                        <path class="cls-2" d="M1021.72,1919.82c12.32,8,25.31,9.37,32.41,3.5a25,25,0,0,0,5.26-7.88" transform="translate(-72.47 -1135.52)"/>
                        <path class="cls-2" d="M1015,1238.83a66.92,66.92,0,0,1,18.73-45.88c21.7-22.61,51.62-23.6,56.57-23.69h7.25" transform="translate(-72.47 -1135.52)"/>
                        <path class="cls-2" d="M157.92,1183.25c4.16-12.66,12.27-20.83,21.16-21.24,9.74-.45,18.85,8.52,23.08,22.76" transform="translate(-72.47 -1135.52)"/>
                        <path class="cls-2" d="M194.71,1201c.85-2.76,6.49-20.33,19.28-23.65,14.71-3.83,37.1,11.68,43.8,42.05" transform="translate(-72.47 -1135.52)"/>
                        <path class="cls-2" d="M245.26,1191.2c.62-2.12,4.84-15.65,17.53-20.84,15.42-6.32,33.5,3,40.88,15.91a32.77,32.77,0,0,1,4.17,15.14" transform="translate(-72.47 -1135.52)"/>
                        <path class="cls-2" d="M295.46,1203.61c7.6-6.23,18-5.74,23.65,0,4.05,4.11,5.3,10.57,3.51,16.64" transform="translate(-72.47 -1135.52)"/>
                        <path class="cls-2" d="M323.06,1208.65c17.46-9.31,37.51-4.67,47.2,9.12,10.2,14.51,4.42,32.75,3.85,34.46" transform="translate(-72.47 -1135.52)"/>
                        <path class="cls-2" d="M354.16,1243.91a48.77,48.77,0,0,1,34.16,19.59c10.46,14,11.3,29.5,11.39,34.28" transform="translate(-72.47 -1135.52)"/>
                        <path class="cls-2" d="M163.17,1192.22c-2.47-9-8.79-15.22-15.77-15.77a14.35,14.35,0,0,0-7.88,1.75" transform="translate(-72.47 -1135.52)"/>
                        <path class="cls-2" d="M142.92,1197.34c-.48-24.12-14.15-45.3-36.55-54.42A71.12,71.12,0,0,0,78.29,1138l-5.79,0" transform="translate(-72.47 -1135.52)"/>
                        <path class="cls-2" d="M634.5,1363.05c-10.74-6.65-23.14-7.46-31.54-1.75a24,24,0,0,0-8,9.76c-4.68,10.25-.61,20,.15,21.78" transform="translate(-72.47 -1135.52)"/>
                        <path class="cls-2" d="M596.39,1365.3c-1.11-1.09-5.75-5.36-12.33-4.87-9.27.7-14,10.17-14.39,10.94" transform="translate(-72.47 -1135.52)"/>
                        <path class="cls-2" d="M635.37,1374.44c-2-10,4.37-18.52,11.39-19.27,4.89-.53,10.12,2.68,13.14,7.88" transform="translate(-72.47 -1135.52)"/>
                        <path class="cls-2" d="M512.72,1329.76c-12.48-1.13-21.58,8.32-21,16.65.41,6.13,6.1,12.11,14,14" transform="translate(-72.47 -1135.52)"/>
                        <path class="cls-2" d="M498.27,1358.35c-11.57,14.1-28.51,13.73-34.91,5.7-4.53-5.68-4.36-15.94,0-25.09" transform="translate(-72.47 -1135.52)"/>
                    </g>
                </g>
            </g>
        </g>
    </g>
</svg>