<svg id="CONTENT" xmlns="http://www.w3.org/2000/svg" viewBox="0 0 481.05 971.06"><defs><style>.cls-1{fill:#d88d6d;}.cls-2{fill:none;}.cls-10,.cls-2,.cls-4,.cls-5{stroke:#000;stroke-miterlimit:10;stroke-width:2px;}.cls-3{fill:#b93837;}.cls-4{fill:#f8b837;}.cls-6{fill:#a12c35;}.cls-7{fill:#821624;}.cls-8{fill:#c22434;}.cls-9{fill:#b91814;}.cls-10{fill:#fff;}</style></defs><g id="SMALL"><g id="FLOWERDUST_SMALL"><g id="FLOWERDUST_SMALL-2" data-name="FLOWERDUST_SMALL"><rect y="0.01" width="481" height="971.04"/><g id="Chute"><polygon id="Fond" class="cls-1" points="165.68 0.01 159.92 592.01 327.27 594.16 321.08 0.01 165.68 0.01"/><line class="cls-2" x1="190.55" y1="0.01" x2="185.21" y2="724.47"/><line class="cls-2" x1="306.89" y1="0.01" x2="314.71" y2="724.47"/><line class="cls-2" x1="222.21" y1="0.01" x2="219.74" y2="724.88"/><line class="cls-2" x1="237.01" y1="0.01" x2="232.07" y2="724.47"/><line class="cls-2" x1="292.92" y1="0.01" x2="301.96" y2="727.27"/><line class="cls-2" x1="179.04" y1="0.01" x2="172.42" y2="726.66"/><line class="cls-2" x1="206.99" y1="0.01" x2="201.65" y2="726.17"/><line class="cls-2" x1="253.45" y1="0.01" x2="250.98" y2="725.21"/><line class="cls-2" x1="320.87" y1="0.01" x2="328.68" y2="726.03"/><line class="cls-2" x1="282.23" y1="0.01" x2="286.75" y2="725.62"/><line class="cls-2" x1="269.48" y1="0.01" x2="264.55" y2="724.39"/><line class="cls-2" x1="165.47" y1="0.01" x2="158.44" y2="727.9"/></g><g id="Nuage_Haut" data-name="Nuage Haut"><polygon id="FOND-2" data-name="FOND" class="cls-3" points="0 660.67 481 657.38 481 371.66 477.81 370.86 474.63 371.04 470.93 373.13 467.64 376.38 466.41 380.5 465.99 385.43 463.12 385.43 459.83 385.84 456.54 387.07 452.83 389.33 450.84 392.27 450.9 396.18 453.41 398.94 454.35 400.62 451.19 403.52 448.51 407.02 447.89 411.6 449.37 415.15 451.8 418.47 449.55 419.96 442.76 421.83 437.63 424.07 434.75 429.42 434.34 436 435.5 441.3 436.81 444.22 435.57 447.51 435.16 451.75 435.98 456.55 435.16 456.96 429.37 456.25 423.65 456.55 417.54 458.43 414.12 461.88 412.14 466.83 410.85 473.13 412.52 481.52 406.79 484.1 403.51 488.62 402.24 497.25 399.94 497.25 394.05 498.9 391.52 501.35 388.88 506.98 390.44 515.21 388.44 516.78 383.17 519.86 380.07 522.77 376.78 519.45 371.78 515.87 366.64 513.63 359.93 514.93 356.64 516.99 351.38 523.04 350.06 528.91 349.21 533.87 343.89 536.31 338.96 541.24 337.32 545.76 336.91 550.28 332.23 551.31 326.22 556.25 322.52 553.16 316.76 552.75 311.14 552.93 306.69 556.43 303.37 564.71 303.19 574.65 303.19 595.99 163.4 595.99 160.54 578.24 158.89 560.08 157.05 551.13 151.7 545.35 150.26 542.55 147.53 539.06 143.27 537.13 143 531.3 141.63 526.03 137.41 521.45 133.87 519.67 135.49 514.55 134.67 510.4 132.58 507.12 128.88 503.83 124.36 502.19 120.25 502.6 116.55 504.65 114.08 507.12 111.21 504.65 108.12 502.19 102.37 501.75 93.94 503.42 92.79 498.08 88.55 493.92 82.63 491.7 79.55 490.37 79.6 485.74 77.94 477.96 74.75 473.45 72.61 470.8 78.11 465.8 81.4 459.63 81.69 454.12 78.93 449.36 72.8 448.68 68.32 448.68 68.04 446.75 67.01 439.08 62.53 433.16 58.79 431.68 52.92 431.14 47.27 432.3 46.46 421.4 43.17 414.41 38.23 411.95 31.24 411.12 26.72 406.19 22.61 404.55 22.63 399.34 20.14 395.09 15.62 393.45 14.8 390.57 12.3 384.05 6.99 380.7 0 379.06 0 660.67"/><path class="cls-2" d="M817.07,1784.59a12.47,12.47,0,0,1-6.16-13.56c1.45-6,7-9,13.56-9h1" transform="translate(-344.5 -1390.94)"/><path class="cls-2" d="M345.53,2051.82" transform="translate(-344.5 -1390.94)"/><path class="cls-2" d="M355.39,1787.47c1.39-1.19,3.65-3.55,3.7-6.58.1-4.9-4.52-11.1-13.15-11.1H344.5" transform="translate(-344.5 -1390.94)"/><path class="cls-2" d="M358.68,1783.77c.83,0,4.4.27,6.17,2.06,2.3,2.32,3.12,7.16,1.23,10.69" transform="translate(-344.5 -1390.94)"/><path class="cls-2" d="M363.21,1799.39a6.1,6.1,0,0,1,3.28-3.28c2.91-1,7.38,1.4,9.46,5.75" transform="translate(-344.5 -1390.94)"/><path class="cls-2" d="M369.37,1810.91c.14-.62,1.66-6.79,7-8.64a11.24,11.24,0,0,1,8.22.82c6.35,3.33,8.75,14.58,6.17,28" transform="translate(-344.5 -1390.94)"/><path class="cls-2" d="M392.39,1823.24c1.05-.37,8.72-3,14,.41,6,3.83,8.28,13.44,3.7,22.2" transform="translate(-344.5 -1390.94)"/><path class="cls-2" d="M412.54,1839.68c4.31-.9,10.24-.33,12.33,2.47,3.27,4.36-.42,10.93-1.54,12.94a19.66,19.66,0,0,1-7.09,7.2" transform="translate(-344.5 -1390.94)"/><path class="cls-2" d="M406,1859.42c1.59,0,9.52.27,14.39,6.16,5.67,6.87,5,18.76-2.88,27.55" transform="translate(-344.5 -1390.94)"/><path class="cls-2" d="M424.05,1882c5.81.21,12.42,3.77,14,8.63,2,6.28-1.89,14-9.46,16.45" transform="translate(-344.5 -1390.94)"/><path class="cls-2" d="M438.85,1894.77c.85-.37,9.16-4.5,14.39-1.64,5.63,3.07,8.36,11.14,5.34,18.91" transform="translate(-344.5 -1390.94)"/><path class="cls-2" d="M459,1898.47c.74-.77,3.29-6.16,9.05-5.75,5.5.39,10.53,4.24,11.51,9.45a13.06,13.06,0,0,1-1.23,7.81" transform="translate(-344.5 -1390.94)"/><path class="cls-2" d="M472.15,1910.39a12.91,12.91,0,0,1,7.81.83c5.16,2.39,8.3,9,7.81,16" transform="translate(-344.5 -1390.94)"/><path class="cls-2" d="M477.91,1932.59a9.54,9.54,0,0,1,17.67,3.7" transform="translate(-344.5 -1390.94)"/><path class="cls-2" d="M490.65,1941.23c3.27-4.74,5.69-4.58,6.17-4.52,3.45.39,6.46,7,6.57,16.85" transform="translate(-344.5 -1390.94)"/><path class="cls-2" d="M810.49,1776.78c-8.22-2.87-16,4.78-15.62,8.64.27,2.8,3.43,5.38,7.4,6.57" transform="translate(-344.5 -1390.94)"/><path class="cls-2" d="M799.39,1791.17c-.53.42-7.4,4.94-7,9.87a13.49,13.49,0,0,0,3.89,8.38,12.94,12.94,0,0,0,6,3.13" transform="translate(-344.5 -1390.94)"/><path class="cls-2" d="M795.69,1810.08c5.37-.06-12.74.83-16,9.05a16.61,16.61,0,0,0,2.06,16" transform="translate(-344.5 -1390.94)"/><path class="cls-2" d="M786.65,1831.05a13,13,0,0,0-7,11.1c-.06,5.85,4.34,11.3,10.69,12.74" transform="translate(-344.5 -1390.94)"/><path class="cls-2" d="M781.72,1848.73c-1-.38-12.69-3.79-19.33.41s-8.68,14.4-5.75,23" transform="translate(-344.5 -1390.94)"/><path class="cls-2" d="M769.38,1875c-.58-.44-6.16-4.52-12.74-2.47-5.71,1.78-11.1,8.22-9.46,15.62" transform="translate(-344.5 -1390.94)"/><path class="cls-2" d="M753.76,1892.72a11.78,11.78,0,0,0-6.58-4.11,11.59,11.59,0,0,0-12.33,5.34,13,13,0,0,0,.41,12.74" transform="translate(-344.5 -1390.94)"/><path class="cls-2" d="M749.65,1911.63c-.54-.53-6.33-6-14.39-4.52A16.47,16.47,0,0,0,722.52,1919" transform="translate(-344.5 -1390.94)"/><path class="cls-2" d="M724.57,1913.27c-.47-.57-8.43-9.57-16.44-8.63s-14.87,9.27-14.39,19.73" transform="translate(-344.5 -1390.94)"/><path class="cls-2" d="M681.41,1940.41c-.83-7.4,5.11-14.27,11.1-15.63a14,14,0,0,1,9,1.24" transform="translate(-344.5 -1390.94)"/><path class="cls-2" d="M689.63,1941.23a17.16,17.16,0,0,0-9-.41c-8.72,2-12.33,10.5-12.74,11.51" transform="translate(-344.5 -1390.94)"/><path class="cls-2" d="M670.72,1947c-3.29-3.7-11.21-4.93-15.63-2.87-6.38,3-7.34,12.32-7.4,12.74" transform="translate(-344.5 -1390.94)"/><path class="cls-2" d="M410.1,1992.47s5.86-10.73,14.38-17.14c7.41-5.56,16.83-7.86,26.16,3a66.9,66.9,0,0,1-1.17-11.41c-.16-10.51,3.78-24.43,16.92-13.32" transform="translate(-344.5 -1390.94)"/><path class="cls-2" d="M781.36,1957.33s-42-44.59,13.11-50.93" transform="translate(-344.5 -1390.94)"/><path class="cls-2" d="M764,1976.43c10.84-31,38.12-16.34,38.12-16.34" transform="translate(-344.5 -1390.94)"/><path class="cls-2" d="M799.84,1926s-15-32,5.37-34.6" transform="translate(-344.5 -1390.94)"/><path class="cls-2" d="M773.79,1985.11s-11.53-20.7-21-2.54" transform="translate(-344.5 -1390.94)"/><path class="cls-2" d="M358.71,1864.83s9.14,4.38,15.07,10.87c5.16,5.64,7.89,12.87.1,20.19a52.93,52.93,0,0,1,9-1c8.41-.25,19.59,6.61,11.93,16.87" transform="translate(-344.5 -1390.94)"/><path class="cls-2" d="M391.75,1874.72s-13.06-8.72-18,1" transform="translate(-344.5 -1390.94)"/><path class="cls-2" d="M375.76,1926.18s-2.25,30.71,15.06,18.38" transform="translate(-344.5 -1390.94)"/></g><g id="TOMBE"><polygon class="cls-4" points="378.22 792.64 378.09 584.5 118.99 584.42 118.61 793.05 378.22 792.64"/><path class="cls-5" d="M706.89,1975.35c-3.65-15.09-11.08-13.36-11.62-13.23h-.08l-9.33,1.37a4.53,4.53,0,0,1-1.22,0l-12-1.92s-16.38-.79-16.83-1.8-13.12-3-13.12-3L626,1957l-43.4-1.35s-11.19.25-14.72-1.6-26.09-1.09-31.9-.76-11.78,6.65-14,7.11c-1.63.34-5-.26-6.73-.63a1.45,1.45,0,0,1-1.14-1.2,21,21,0,0,0-.5-2.14,1.18,1.18,0,0,0-.91-.83l-2-.37s-2.7-1.56-3.2-1.43c-.33.08-1.76.27-2.7.39a1.24,1.24,0,0,1-1.21-.54c-.6-.89-1.81-2-2.74-1.7s-4.17.84-4.17.84l-6,.39c-1.94-.25-3.79,1.21-5.14,2.3a7.52,7.52,0,0,0-1.89,2.19c-5,6.06-1.18,17.71-1.18,17.71Z" transform="translate(-344.5 -1390.94)"/></g><g id="Nuage_Bas" data-name="Nuage Bas"><g id="Nuage_Bas_Droit" data-name="Nuage Bas Droit"><polygon class="cls-6" points="481 755.63 481 834.57 469.49 830.87 468.87 834.36 466.74 839.91 461.7 845.1 455.95 847.52 455.31 855.33 451.2 860.22 442.56 863.55 435.71 862.24 433.11 860.67 428.58 863.14 423.51 864.37 420.36 863.79 419.01 868.13 415.52 872.67 410.95 875.55 404.35 876.02 399.71 873.82 395.06 870.38 389.94 865.2 381.72 844.23 380.48 817.51 403.09 799.83 439.68 775.16 468.5 754.77 481 755.63"/><path class="cls-2" d="M739,2260.66c.53.92,6.75,5.9,11.1,6.58,5.37.84,13-3.88,14.8-11.92" transform="translate(-344.5 -1390.94)"/><path class="cls-2" d="M759.93,2250c.45.75,2.92,4.62,7.4,5.35,5,.81,10.53-2.64,12.74-8.64" transform="translate(-344.5 -1390.94)"/><path class="cls-2" d="M778,2251.62c4.93,4.93,15.86,2.68,19.73-2.47a14.1,14.1,0,0,0,.41-16" transform="translate(-344.5 -1390.94)"/><path class="cls-2" d="M801,2238.46a20.07,20.07,0,0,0,8.63-5.34c4.78-5.58,3.08-12.79,2.88-13.57" transform="translate(-344.5 -1390.94)"/><path class="cls-2" d="M824.47,2137.33" transform="translate(-344.5 -1390.94)"/><path class="cls-2" d="M810.89,2216.59a11,11,0,0,0,3.83,5,18.57,18.57,0,0,0,10.47,3.39h.31" transform="translate(-344.5 -1390.94)"/></g><g id="Nuage_Bas_Gauche" data-name="Nuage Bas Gauche"><polygon class="cls-7" points="0 748.65 0 834.98 5.45 839.76 8.84 840.56 11.47 845.93 18.8 851.83 25.67 853.44 29.81 852.86 33.51 855.74 37.62 857.8 45.18 858.24 48.31 863.96 54.56 868.91 62.44 872.25 70.94 871.85 82.43 868.07 89.01 861.91 84.07 794.9 39.26 747.21 0 748.65"/><path class="cls-2" d="M433.09,2253.26c-6.57,8.22-20.87,12.17-30,8.63a23.89,23.89,0,0,1-13.15-12.74" transform="translate(-344.5 -1390.94)"/><path class="cls-2" d="M374.72,2243.39c.41,1.24,7.17,6.28,12.74,5.76a12.51,12.51,0,0,0,10.28-7.81" transform="translate(-344.5 -1390.94)"/><path class="cls-2" d="M379.24,2236.82c-.84,2.08-2.66,5.53-6.17,7-5.86,2.42-16.85-2.88-19.73-11.93" transform="translate(-344.5 -1390.94)"/><path class="cls-2" d="M345.53,2135.07" transform="translate(-344.5 -1390.94)"/><path class="cls-2" d="M362,2227.77a11.12,11.12,0,0,1-9,3.7,8.36,8.36,0,0,1-7.4-5.75" transform="translate(-344.5 -1390.94)"/></g><g id="Nuage_Bas_Middle" data-name="Nuage Bas Middle"><path class="cls-8" d="M402.4,2196.12,401,2199l-1.24,4.94v4.52l1.65,5.76,3.08,5.7,4.73,3.75.16,1.73-1.08,8.67,2.13,6.39,4,5.15,5.25,2.44,6.3-.83,4-1.93,3.43,7,5.59,4.63,5.64,2,1.81,1-.23,7.38,2.08,9.47,5.34,8.24,7.87,5.89,7.61,1.51,7.49-1,4.69-1.75,4.1,4.16,3.41,2,5.18,1.93,6.89.31,5.05-1.3,2.8-1.13,5.34,5.75s7.47,3.37,7.44,3.33,8.67.78,8.67.78l6.09-2.09,5.55,1.39,6.31-.92,4.62-3.44,2.43-3.16s7.54,2.42,7.68,2.44,8.73-.53,8.73-.53l7.2-2.65,3.38,6.71,6.31,5.13,7.32-.45,5.43-3.25,3.29-4.28,4.12,1.25,5.53-.09,4.84-2.29,1.92-2,4.52.81,6.23-1.08,6.5-3.57,3.66,2.2,3.82.94,4-2.1,3.38,1.16,3,.95,4-.95,1.39-1.85s3.47.75,3.51.68,6.6-1.94,6.6-1.94l3.45-3.81,1.08-2.13,3.44,1.36,3.58,1.35,6.94-.83,5.48-3.65,2.35-2.34,3.7,2.06,4.34,1.34,8-.42,6.2-3.49,2.4-2.37.93-6,.32-6.08,4.78-1.18,5.46-2.46,4.28-3.5,3.65-4.47,3.6-7.41,5.34.69,5.31-2.81,3.33-5,.21-6.7-1.86-4,4.93-4.11,2.88-4.93,1.24-7v-5.18l-1.53-3.64-35.06-7.22L579,2200.23l-110.38-8.64Z" transform="translate(-344.5 -1390.94)"/><path class="cls-2" d="M401.85,2196.12c-4.52,7.4-1.84,20.89,4.52,25.49a17,17,0,0,0,11.1,2.87" transform="translate(-344.5 -1390.94)"/><path class="cls-2" d="M410.07,2224.07c-5.34,9.46,1.47,21.19,7.4,23.44,5.28,2,11.58-1.55,12.34-2.06" transform="translate(-344.5 -1390.94)"/><path class="cls-2" d="M429.39,2238.87a19.64,19.64,0,0,0,4.53,14,19.84,19.84,0,0,0,19.73,5.76" transform="translate(-344.5 -1390.94)"/><path class="cls-2" d="M446.25,2259.84c-1.62,11.21,4.69,26,14,30.42,10.67,5.06,21.16-.65,22.2-1.23" transform="translate(-344.5 -1390.94)"/><path class="cls-2" d="M478.32,2278.75c0,.84.6,10.93,9.45,16.44a20.31,20.31,0,0,0,20.56.42" transform="translate(-344.5 -1390.94)"/><path class="cls-2" d="M504.63,2282c.48,9.81,6.08,18.33,14.39,21.79,7.93,3.3,15.33.74,17.26,0" transform="translate(-344.5 -1390.94)"/><path class="cls-2" d="M528.06,2292.32a14.62,14.62,0,0,0,10.69,11.92c6.69,1.59,13.25-.26,16-7.4" transform="translate(-344.5 -1390.94)"/><path class="cls-2" d="M544.51,2287c.81,1.37,6.36,10.31,17.67,12.34,13,2.32,22.21-6.58,23-7.4" transform="translate(-344.5 -1390.94)"/><path class="cls-2" d="M579,2297.25c.09.45,2.8,8.29,9,10.69,5.54,2.12,12.84-1.13,16.45-7" transform="translate(-344.5 -1390.94)"/><path class="cls-2" d="M600,2294a12.1,12.1,0,0,0,5.34,6.58c4.07,2.27,12.74,1.64,14.8-2.88" transform="translate(-344.5 -1390.94)"/><path class="cls-2" d="M614.39,2290.67c2.53,4.47,5.52,6,7,6.58,7.56,3,18.65-2.26,25.9-14" transform="translate(-344.5 -1390.94)"/><path class="cls-2" d="M765.27,2205.57c3.35,6.61,2.11,16.54-2.88,21.38a16.33,16.33,0,0,1-16,3.7" transform="translate(-344.5 -1390.94)"/><path class="cls-2" d="M757.87,2230.65c4.52,5.76,1,14.66-3.7,17.27a10.52,10.52,0,0,1-12.74-2.47" transform="translate(-344.5 -1390.94)"/><path class="cls-2" d="M745.54,2249.15c-.45,1.27-5.4,13.3-16,16.86a24,24,0,0,1-16.86-.83" transform="translate(-344.5 -1390.94)"/><path class="cls-2" d="M723.75,2268.06c.06,1.08.32,10-4.11,14.39-4.6,4.52-15.62,4.93-21.38.41" transform="translate(-344.5 -1390.94)"/><path class="cls-2" d="M699.91,2276.28c-1.38,6.53-6.08,11.56-11.93,12.75-5.22,1.06-9.89-1.73-11.1-2.47" transform="translate(-344.5 -1390.94)"/><path class="cls-2" d="M677.29,2279.57c.13,6.93-3.49,12.73-8.63,14.39a11.79,11.79,0,0,1-7.81-.41" transform="translate(-344.5 -1390.94)"/><path class="cls-2" d="M662.08,2286.15c1.48,4.61-.72,9.09-4.11,10.28s-7.21-1.9-7.4-2.06" transform="translate(-344.5 -1390.94)"/><path class="cls-2" d="M651.39,2290.26a6.72,6.72,0,0,1-4.93,6.17c-2.35.6-5.71-1-7.4-2.88" transform="translate(-344.5 -1390.94)"/></g><g id="Nuage_Center" data-name="Nuage Center"><path class="cls-9" d="M344.5,1979.26l5.55.61s3.7,0,3.7.41,4.11,2.88,4.11,2.88l3.29,4.11.82,2.47,5.18-2.82,4.69-.47,4.52.82,4.25,2.47.27,3.29-1.57,3.7,3.22.41,3.7,1.64,3.53,3.78,1,4.79V2011l6.58-.3,6.53.3,4.57,1.34,6.16,6.17,1.41,9.77,3.08,3.62,2.09,4,4.78-2.3,8.17-2.39,6.46,1.06,7.09,4.29,4.77,5.56,2.85,7.1,5.45,1.09,6.07,3.26,4.11,5.39,5.13-1.78,6.41,1,3.68,2.9,3.1,6.23.44,3.24,4.53-.55,7.54,1.84,1.47-5.71,4.18-7.32,2.66-2,6.18-1.11,6,.88,5.1,2.39,5.29,5.38,1.22,2.69,4.33-.62,6.07,1.3,5.75,4.48,1.94,3.27,6-.37,5.92,1.39,1.64.62,1.35-5.12,2.84-3,4.77-2,4.05-.12,4.64,1.81,3.48,3.68.69,1.37,3.79-1.8,5.93-1.41,3.39.43,4.13,3.05,2.05,5.34-.39,4.24-1.16,3.9,3.83,2.19,2.94,3.27,3.3-2.64,3.75-1.28,2,.9,2.65-3.62,3.59-1.64,3.69-.09,3-4.51,2.94-4.24,3.57-2.49,3.8-1.14,3.07.06.84-6.8,2.93-3.38,3.73-2.61,5.29-.71,3.55,1.11,3,2.49,3.22,4.77.94.71,2.71-1.26,4.57-1.12,4.63,1.54,4,2.42,3,2.12,3.72-3.77,4.93-2,4.21,0,5.6,1.1,2.1-5.76,4.1-5.95,6.17-3.29,1.49-.55-1.9-5.62-1.28-9.23,1.69-3.93,2.63-3.14,3.43-.67,3.81.94,4.27,1.85,4.37-6.78,5.34-3.71,4.11-1.23,4.36.41,4.5,2.38,2.93,2.85,3-7.28,3.72-4.63,4.21-3.26,5.33-1.08,5.25,1.83,1.63,1.38,2.52-2.09,3.65-2,2.74.3h1.44l1.59-4,2.86-3.24,5.55-.78,2.6.4,1.08-3.51,2.49-4.13,2.46-.82,2.88-2.05,5.35-.83,4.93-.82v170.61h-2.06l-8.83-2.26-2.26,1.14-.21,4.62-1.86,2.86-3.65,2.5-4.77,1.21-1.23.83.29,5.91-4.33,6.71-6.3,3.81-11,1.44-.11,7.7-4,6.49-9.87,3.29-3.49-.29-.68,4.76-3.61,4.08-6.08,1.33-5.46-1.24-2.88-1.95-6.1,6.07-10.41,3.39-7.08-.27,1.21,6.12-1,5.16-3.22,3.53-5.82.93-7.61-1.63-3.56-2-2.87,2.88-5.76,1.64-4.19-.53-4.85,3.8-5,1.91-9.29,1.47-6.34-1.27-4.82-2.11-2.07,2.42-5.74,3.35-6.67.21-3.49-1-5.33,6-6.73,3.38-8,.61-6.18-3.48-3.94-4.46-1.89-3.64-5.46,3.62-6.56,1.09-5.58-1.07-3.08,2.15-7.74.21-5.2-3.13-3.34,2.9-6.41,4.15-9,.28-6.26-5.07-5.54-7.88-5.9,2.37-4.29-.21-4.32-1.55-2.65,2.9-4.48,2.72-6.87,1.23-7.15-2.35-5.86-4.57-4.35-5.27-5.23,3.7-10.69,2.46-8.92-2-10-5.44-3.78-4.88-1.4-2.52-6.08,1.92-5.93-.73-5-3.7L436,2220l-.44-2.67-6.47-1.39-7.48-5-4.89-9.45-.75-3.41-6.5-.16-8.23-3.35-5.19-5.23-2.82-6.25-.74-5.86-8.29-3.7-2.05-2.06-4.94,2.47-8.22-.83-6.17-4.52-2.87-6.16-.83-6.17.83-6.58-6.38,4.32h-9V1979.26Z" transform="translate(-344.5 -1390.94)"/><path class="cls-2" d="M806,2001.25c-.77-.28-4.09-1.35-6.42-.38-3,1.25-5.88,4.62-5.5,8.6" transform="translate(-344.5 -1390.94)"/><path class="cls-2" d="M783.77,2011.53c3.6-3.21,8-3.86,10.3-1.82a6.15,6.15,0,0,1,1.77,4.31" transform="translate(-344.5 -1390.94)"/><path class="cls-2" d="M785.71,2022.26c.1-.62,1.08-6.9-3.12-10.66a11.16,11.16,0,0,0-7.9-2.42c-7.14.62-13.69,10.08-16.48,23.42" transform="translate(-344.5 -1390.94)"/><path class="cls-2" d="M759.93,2024.68c-.82-.74-7-6.57-13.27-4.94-6.87,1.79-12.82,9.21-12,19.06" transform="translate(-344.5 -1390.94)"/><path class="cls-2" d="M734.85,2032.08c-2.88-3.7-9.38-4.19-12.4-2.41-4.69,2.77-3.83,10.25-3.56,12.54a19.72,19.72,0,0,0,3.75,9.38" transform="translate(-344.5 -1390.94)"/><path class="cls-2" d="M733.24,2052.9c-1.48-.6-8.89-3.42-15.66.14-7.88,4.14-11.89,15.35-8,26.52" transform="translate(-344.5 -1390.94)"/><path class="cls-2" d="M707.72,2067c-5.35-2.88-12.81-1.56-16.12,2.32-4.28,5-3.67,13.67,2.38,18.82" transform="translate(-344.5 -1390.94)"/><path class="cls-2" d="M689.63,2072c-.64-.67-7.08-6.82-13-6.2-6.38.67-12,7-12.22,15.39" transform="translate(-344.5 -1390.94)"/><path class="cls-2" d="M670.31,2068.26c-.38-1-3.34-6.89-7.19-8.59a11.9,11.9,0,0,0-14.27,4.28,12,12,0,0,0-1.57,7.6" transform="translate(-344.5 -1390.94)"/><path class="cls-2" d="M652.5,2074.39a12.94,12.94,0,0,0-7.52-2.25c-5.69.22-11.06,5.08-13.32,11.74" transform="translate(-344.5 -1390.94)"/><path class="cls-2" d="M638.63,2092.66a9.55,9.55,0,0,0-17.74-3.41" transform="translate(-344.5 -1390.94)"/><path class="cls-2" d="M623.54,2095.7c-1.19-5.63-3.48-6.41-3.94-6.55-3.34-1-8.67,4-12.57,13" transform="translate(-344.5 -1390.94)"/><path class="cls-2" d="M807.64,2006a11.09,11.09,0,0,1-.87-7.49c1.51-5.75,8.25-9.62,17.7-9.62h1" transform="translate(-344.5 -1390.94)"/><path class="cls-2" d="M360.34,1999.37a13,13,0,0,0-.75-14.88c-3.4-4.34-7.9-5.44-13.65-5.44H344.5" transform="translate(-344.5 -1390.94)"/><path class="cls-2" d="M362.38,1989.74c5.76-5.76,16.62-3.42,18.06.18,1.05,2.61-.58,6.36-3.56,9.24" transform="translate(-344.5 -1390.94)"/><path class="cls-2" d="M379.65,1996.73c.67.13,7.81-.41,10.15,5.94a14.59,14.59,0,0,1,.38,9.23,12.88,12.88,0,0,1-3.87,5.52" transform="translate(-344.5 -1390.94)"/><path class="cls-2" d="M390.34,2011.12c.56-.23,12.64-2.66,19.08,1.77,4.71,3.24,7.29,10.1,6.41,15.9" transform="translate(-344.5 -1390.94)"/><path class="cls-2" d="M408.68,2026.69a13,13,0,0,1,11.3,6.66c2.74,5.17,1.34,12-3.65,16.23" transform="translate(-344.5 -1390.94)"/><path class="cls-2" d="M421.17,2036.61c.75-.81,9.46-7,17.36-5,7.51,1.92,15.42,9.12,16.76,18.12" transform="translate(-344.5 -1390.94)"/><path class="cls-2" d="M444.21,2057.86c.31-.66,3.4-6.84,10.19-8,5.89-1,14.05,2.82,16.52,9.4" transform="translate(-344.5 -1390.94)"/><path class="cls-2" d="M466.2,2066.4a11.84,11.84,0,0,1,4-6.67,11.58,11.58,0,0,1,13.41-.91c3.54,2.28,6.24,7.17,5.85,11.5" transform="translate(-344.5 -1390.94)"/><path class="cls-2" d="M478.53,2081.32c.23-.72,2.86-8.25,10.71-10.62a16.5,16.5,0,0,1,16.79,4.74" transform="translate(-344.5 -1390.94)"/><path class="cls-2" d="M534.05,2067c-4.37-9.52-14-12.43-21.84-10.93s-10.3,14.76-10.46,15.49" transform="translate(-344.5 -1390.94)"/><path class="cls-2" d="M551.91,2075.25c-3.33-6.81-10.63-10-16.57-8.46a13.9,13.9,0,0,0-7.47,5.24" transform="translate(-344.5 -1390.94)"/><path class="cls-2" d="M545.44,2080.08a17.19,17.19,0,0,1,7.85-4.52c8.67-2.19,15.78,3.68,16.6,4.38" transform="translate(-344.5 -1390.94)"/><path class="cls-2" d="M565.47,2076.48c.41-7,7-9.94,12-9.69a11.48,11.48,0,0,1,10.64,9.69" transform="translate(-344.5 -1390.94)"/><path class="cls-2" d="M588.08,2073.61c3.69-2.65,10.1-4.2,13.57-2.06,4.5,2.78,6.26,10.14,3.29,15.62" transform="translate(-344.5 -1390.94)"/><path class="cls-2" d="M595.89,2090.05c4.08-3.24,9.07-3.56,11.93-1.23,1.69,1.38,3.9,3.38,4.11,4.52" transform="translate(-344.5 -1390.94)"/><path class="cls-2" d="M418.86,2110.37S412.47,2100,403.62,2094c-7.68-5.18-17.2-7-26,4.28a66.59,66.59,0,0,0,.59-11.46c-.38-10.51-10.13-22.92-22.69-11.15" transform="translate(-344.5 -1390.94)"/><path class="cls-2" d="M403.41,2071.43s12.29,14.35.21,22.56" transform="translate(-344.5 -1390.94)"/><path class="cls-2" d="M475.21,2177.5s-38.69,9.23-38.14-20.56" transform="translate(-344.5 -1390.94)"/><path class="cls-2" d="M439.66,2167.41s-29.23,11.36-26.42-9.56" transform="translate(-344.5 -1390.94)"/><path class="cls-2" d="M456.7,2152.6S433.39,2170,417.5,2140" transform="translate(-344.5 -1390.94)"/><path class="cls-2" d="M554.44,2131.45c-21.26,35.45-35.59,1.18-35.59,1.18s1.34,12.77-4.78,10.9" transform="translate(-344.5 -1390.94)"/><path class="cls-2" d="M549.52,2118.07s2.72,27.23,16.05,8.91" transform="translate(-344.5 -1390.94)"/><path class="cls-2" d="M616,2162.46c7-6.06,16.24-9,26.3,1.16a67.23,67.23,0,0,1-2-11.3c-.88-10.49,7.32-24,21.19-13.78" transform="translate(-344.5 -1390.94)"/><path class="cls-2" d="M602.86,2180.54s5.11-11.11,13.18-18.08" transform="translate(-344.5 -1390.94)"/><path class="cls-2" d="M613.56,2140s-10.49,15.7,2.48,22.42" transform="translate(-344.5 -1390.94)"/><path class="cls-2" d="M769.81,2154.48s-39.23-6.63-36.68,23.06" transform="translate(-344.5 -1390.94)"/><path class="cls-2" d="M735,2166.92s-29.92-9.38-25.73,11.3" transform="translate(-344.5 -1390.94)"/><path class="cls-2" d="M753,2180.56s-24.42-15.79-38.26,15.23" transform="translate(-344.5 -1390.94)"/><path class="cls-2" d="M757.18,2088.87c12.15,39.36,34.16,9.59,34.16,9.59s-4.32,12.05,2,11.69" transform="translate(-344.5 -1390.94)"/><path class="cls-2" d="M765.11,2077.08s-9.1,25.71-17.65,4.82" transform="translate(-344.5 -1390.94)"/><path class="cls-2" d="M360.33,2149.66c-2.7,10.16,1.84,21.48,8.63,23.85,5.63,2,11.62-1.36,12.75-2.06" transform="translate(-344.5 -1390.94)"/><path class="cls-2" d="M379.24,2162.82c.11,1,1,8.12,7,11.92a15.8,15.8,0,0,0,14,1.23" transform="translate(-344.5 -1390.94)"/><path class="cls-2" d="M392,2177.21c.26,2,1.31,10.2,6.58,15.21,7.47,7.1,17.19,5.93,18.5,5.75" transform="translate(-344.5 -1390.94)"/><path class="cls-2" d="M416.24,2191.59c-1.43,9.15,2.3,18,9.45,22.62,7.34,4.68,15.27,2.86,16.86,2.46" transform="translate(-344.5 -1390.94)"/><path class="cls-2" d="M436,2217.91c.13.81,1.19,8.14,6.58,11.1,5.17,2.83,12.16,1.6,16.86-3.29" transform="translate(-344.5 -1390.94)"/><path class="cls-2" d="M456.53,2229c5.75,12.33,24.51,17.49,34.53,11.92,7.32-4.07,11.61-12.83,11.1-22.2" transform="translate(-344.5 -1390.94)"/><path class="cls-2" d="M496.82,2237.23c3.7,6.58,9.44,11,16,11.92a15.66,15.66,0,0,0,14.8-6.58" transform="translate(-344.5 -1390.94)"/><path class="cls-2" d="M521.89,2235.17a13.33,13.33,0,0,0,10.69,9,11.42,11.42,0,0,0,9.46-2.88" transform="translate(-344.5 -1390.94)"/><path class="cls-2" d="M538.34,2228.59c1.89,16.69,12.35,27.19,21.38,26.73,5.4-.28,10.42-5.27,12.74-8.23" transform="translate(-344.5 -1390.94)"/><path class="cls-2" d="M570.82,2236.82c-.13.48-1.6,6.71,2.46,11.1,3.74,4,10.57,4.37,16,.82" transform="translate(-344.5 -1390.94)"/><path class="cls-2" d="M583.56,2245a16.08,16.08,0,0,0,7.81,4.11c6.89,1.34,14.43-2.42,19.32-9.46" transform="translate(-344.5 -1390.94)"/><path class="cls-2" d="M605.76,2245.45c.61,1.24,5,8.34,11.92,10.28,7.49,2.1,16.28-1.79,21-9.87" transform="translate(-344.5 -1390.94)"/><path class="cls-2" d="M632.07,2239.28a13.73,13.73,0,0,0,11.1,8.23c7.5.8,12.92-5.45,13.16-5.76" transform="translate(-344.5 -1390.94)"/><path class="cls-2" d="M648.93,2232.29a22.93,22.93,0,0,0,9,9.87c8.34,4.74,19.59,2.57,28.78-4.11" transform="translate(-344.5 -1390.94)"/><path class="cls-2" d="M681.82,2231.47c.23.65,1.95,5.34,6.16,6.58,4.69,1.38,10.86-2,13.16-8.63" transform="translate(-344.5 -1390.94)"/><path class="cls-2" d="M699.91,2233.94c5.52,3.62,14.36,4.3,17.67,1.64,4.39-3.51,4.84-14-3.29-21.79" transform="translate(-344.5 -1390.94)"/><path class="cls-2" d="M720.05,2221.61c.48.17,11,1.47,18.09-4.12a16.67,16.67,0,0,0,6.17-15.62" transform="translate(-344.5 -1390.94)"/><path class="cls-2" d="M743.07,2212.56c3.36,3.69,12.47,3.87,16,.41a8.92,8.92,0,0,0,0-12.74" transform="translate(-344.5 -1390.94)"/><path class="cls-2" d="M762.39,2205.16c1,.13,8.19.82,12.75-3.29s5.83-11.31,2.88-17.68" transform="translate(-344.5 -1390.94)"/><path class="cls-2" d="M779.66,2187.89c8.45,1.18,17.38-3.12,20.15-9.45,2.19-5,.57-10,0-11.51" transform="translate(-344.5 -1390.94)"/><path class="cls-2" d="M800.63,2169.39c4.78.28,10.19-2.75,11.51-6.57a9.52,9.52,0,0,0-.82-7.4" transform="translate(-344.5 -1390.94)"/><path class="cls-2" d="M363.41,2146.17a17.27,17.27,0,0,1-3.56,4.21,17.89,17.89,0,0,1-12.27,4.63H344.5" transform="translate(-344.5 -1390.94)"/><path class="cls-2" d="M808.64,2153.16a20.84,20.84,0,0,0,12.31,6,18.38,18.38,0,0,0,3.32,0l1.23-.06" transform="translate(-344.5 -1390.94)"/></g></g><g id="TETE"><path class="cls-5" d="M528,1688.7a19,19,0,0,0-.73-2.93c-2-8.77-10.28-51.23,1.05-67.79,0,0,53.09-78.06,118.72-2.78,1.94,2.22,4.75,10,5,12.89,1.16,12.39,3.87,41.4-.6,55.88-.09.29-.17.57-.24.87-1.17,5-12.29,51.06-23.42,61.37,0,0-33,31.33-73.83,3.2a15.92,15.92,0,0,1-5.4-6.35C543.43,1732,528.52,1699.38,528,1688.7Z" transform="translate(-344.5 -1390.94)"/><path id="Oeil_Gauche" data-name="Oeil Gauche" class="cls-10" d="M559.06,1615.58l-12.49,22.48,25.68-7S569.82,1618,559.06,1615.58Z" transform="translate(-344.5 -1390.94)"/><path id="Oeil_Gauche-2" data-name="Oeil Gauche" class="cls-10" d="M617.54,1614.72l13.55,21.85-26-5.72S606.9,1617.62,617.54,1614.72Z" transform="translate(-344.5 -1390.94)"/></g></g></g></g><path class="cls-2" d="M52.7,612.37" transform="translate(-344.5 -1390.94)"/></svg>