<svg id="CONTENT" xmlns="http://www.w3.org/2000/svg" viewBox="0 0 1171.03 939.6"><defs><style>.cls-1{fill:#f4d0de;}.cls-2{fill:none;stroke:#000;stroke-miterlimit:10;stroke-width:5px;}</style></defs><g id="JUNCTION_THREE"><g id="Nuage_Haut" data-name="Nuage Haut"><polygon class="cls-1" points="1168.33 2.51 1151.62 3.16 1136.05 6.71 1120.22 14.53 1108.32 24.76 1095.67 45 1093.56 47.9 1087 46.32 1078.69 48.57 1073.5 54.13 1069.69 45.28 1062.51 35.86 1052 29.86 1040.65 31.7 1030.3 40.66 1023 55.86 1016.18 50.51 1007 46.32 993.01 49.15 979.38 58.26 975.26 62.59 967.58 50.59 952 38.39 938.08 37.1 920.52 43.74 906.27 59.16 902.61 71.65 894.12 74.09 885 83.11 875.72 79.35 859.33 77.58 843.5 82.53 829.89 95.4 824.5 112.08 826.24 131.28 812.12 143.66 803.33 158.1 797.5 175.36 797.5 189.23 820.5 270.25 1168.33 337.89 1171 337.89 1171 2.5 1168.33 2.51"/><path id="FOND" class="cls-1" d="M1170,1483.18l-15-2.65-14-12-8.5-9.67-6.5,10.67-13,11-16.33,2.65-16.67-3.65-7,16-14,13-15,6-11-3-5.33-6-8.67,7-10,3-11.67-.77L988.5,1510l-5.5,9.5-7,10-13,2.62-6,11.38-9,7-7.83,3.62L927,1551.53l-10-9-4-9h-6l-11,8-15.56,3.15L869,1541.53l-12-9-5-13-2-9-12,3.14-10.51-.64-10.49-3.5-8-8-2.51-14.17L795.83,1486l-10.83-3.5-7,14-13.17,12.57-11.5,4.57L735,1512.53l-7.5-3.67-6.5,10.67-12.5,8.56-11.33,2.08L681.43,1525,667,1511.53l-2.5-6-12.5,6-10,3-13-.86-16.16-7.16L598.76,1491l-8.76,11.5-13,7-18-1-13-13-4-8-9,6H521l-15-6-9.27-13.5-3.23-9-13.33,5.13-1.67,15.21-6.5,10.16-13.83,5.17L455,1505v19l-7.5,12-15.5,5.82H419.14L404,1536.53l-11.5-8.67L380,1538.53l-15.33,3.32-16.17-2-8-4.8-15.5,8.5-16.17,2.5-10.33-2.09-4.5,21.59-12,12-12.5,2.56-11.5-3.56-7.5-2.5-11.5,13.5-13.17,6-12.83,0-18-11.9-6-12.1-19,5-15-3-18-17-16.83,21.84-18.57,3.84-14.74-4.8L73,1561.53l-2-3-8.5,1.61L49,1555.53l-5.28-8-9.72,11-13,5-15,2H0v-870H13.2s20.8,4,21.8,4,29,15,29,15L79.5,730l10,19,3.21,26.24,11.79.76,11,4,10.42,15.85,2.25,1.1,6.33-5,8-4,11.33,2,9.34,8.44,4.33,12.36,10,.21,12,4,6.83,9,10.17-6,9-5,12,2,4.08,1.92L240.5,807l20.17-10,13.83,1,19,7,10,13,7.66,18.84L321.5,839l6.39,11,.61,11-5,12,12,4,12.63,16.7L359.5,891l13,4,3.28-9.09L379.5,875l9-8,12.72-1.5L413.5,869l7,4,1-9,7.22-7.28h9.39L439.5,844l11-10,14.06-3.9,10.11,1.73-1.15-8.77,3-5.06,10,1,.72-7.77L491.5,803l9-6,13.5,5.06,6.5-6.06,8-7,11-3,13,3,11,8,6,13,10.06-5.58h10.22L599.5,809l8,6,14-1.39,6-11.61,10-11,9-6,13.72-2.62L679.5,787l12-8,15-6,16-2,15,7,7,11.67L746,803l8.5,2.06,8,9,1.5,8.39L762,831h12.14l12.39,5,9,9,9,12,9-5h10l5,6,2,7h11l9.92,3.75L858.5,883l9.42-2.12L876.5,885l7,13,.39,9.67L895.5,904h7l6-11,12-9L933,884,946.5,887l5,2,5-13,12-12,13-2,15,2,12,7,10,9,8,17,7-4,10.25-.9,8.75,5.9,8.33,15.7,8.34.91L1080.5,922l3.5,3.7,6.5-3.7,10-5,14,1,11,7,9,11L1140,955l.5,11.06,8-4,11.17-3,10.33.5Z" transform="translate(1 -657.14)"/><g id="Tracé"><path class="cls-2" d="M911.5,1525c.63,13.52,8.34,24.69,19,28a23.88,23.88,0,0,0,17-1c12.69-6,14-21.34,14-22" transform="translate(1 -657.14)"/><path class="cls-2" d="M911.5,1532c-1.57,1.17-20,18-39,11-16.88-6.22-28-28.47-21-52" transform="translate(1 -657.14)"/><path class="cls-2" d="M848.5,1511c-10,6-26.76,3.81-34-3-8.2-7.71-8-20.26-8-22" transform="translate(1 -657.14)"/><path class="cls-2" d="M823.5,1474c-7.19,9.15-18.31,13.83-29,12-10.29-1.76-16.34-8.89-18-11" transform="translate(1 -657.14)"/><path class="cls-2" d="M783.5,1484c-1,2.27-8.63,22.94-25,28-13.89,4.29-29.4,0-40-11" transform="translate(1 -657.14)"/><path class="cls-2" d="M727.5,1510c-1.35,2-11.63,18.53-26,20-14.65,1.5-30.62-9.11-37-25" transform="translate(1 -657.14)"/><path class="cls-2" d="M678.5,1483c-6.65,17.49-21,30.33-37,32-23.11,2.41-48.53-18.56-51-50" transform="translate(1 -657.14)"/><path class="cls-2" d="M598,1490.89c-6,14.46-20.64,22.19-33.85,18.91-10.41-2.59-18.64-11.71-21.15-23.27" transform="translate(1 -657.14)"/><path class="cls-2" d="M550.5,1470a26,26,0,0,1-17,23c-13.16,4.76-24.7-4.2-27-6-8.63-6.73-12.25-18.86-13-22" transform="translate(1 -657.14)"/><path class="cls-2" d="M509.5,1440c-.2,1-4.54,21.06-24,28a37.44,37.44,0,0,1-38-8" transform="translate(1 -657.14)"/><path class="cls-2" d="M448.5,1438c1.93,18.16-6.54,34.37-20,40-1.26.53-16.84,6.74-29-3-8.89-7.12-9.85-17.87-10-20" transform="translate(1 -657.14)"/><path class="cls-2" d="M400.5,1451c-10.91,8-25.34,8.76-36,2-12.84-8.15-18-25.78-11-41" transform="translate(1 -657.14)"/><path class="cls-2" d="M351,1438c-16.31,8.31-35.85,6.9-48.18-3s-12.38-24.58-12.32-27" transform="translate(1 -657.14)"/><path class="cls-2" d="M297,1430c-4,2.36-19.56,11-38.89,8-23.66-3.66-44.7-22.32-43.6-43,.74-14.11,11.49-23.84,15.32-27" transform="translate(1 -657.14)"/><path class="cls-2" d="M135.5,1436" transform="translate(1 -657.14)"/><path class="cls-2" d="M941.5,1525c14.46,9.6,30.49,9,38,1,1.32-1.41,7-8,9-16" transform="translate(1 -657.14)"/><path class="cls-2" d="M978.5,1492a27.44,27.44,0,0,0,19,23c11.48,3.46,21,2,29-9" transform="translate(1 -657.14)"/><path class="cls-2" d="M1024.5,1474c-8.24,17.55.34,36,13,40,11.86,3.78,24.93-8.12,28-11,18-16.83,16.45-42.5,16-48" transform="translate(1 -657.14)"/><path class="cls-2" d="M72.5,1559a34.59,34.59,0,0,0,29,21c14.3,1,29-10.38,35-24" transform="translate(1 -657.14)"/><path class="cls-2" d="M132.5,1543c4.53,21.47,24,34.86,42,32,13.51-2.14,25-13.25,29-28" transform="translate(1 -657.14)"/><path class="cls-2" d="M189.5,1569c3.31,12.81,15.06,23.34,28,25,13.57,1.74,26.92-7.51,33-20" transform="translate(1 -657.14)"/><path class="cls-2" d="M240.5,1564c10.87,15.06,29.9,19.43,43,12,14-8,15-29.9,15-31" transform="translate(1 -657.14)"/><path class="cls-2" d="M276.5,1527c1,1.49,12.76,18.7,34,19,15.94.22,30.8-9.17,38-24" transform="translate(1 -657.14)"/><path class="cls-2" d="M340.5,1535c6,6,22.69,10.22,34,6,19.89-7.42,23.84-30,24-31" transform="translate(1 -657.14)"/><path class="cls-2" d="M392.5,1526c9,18,41,19.61,53,10,9.08-7.27,12.22-22.68,10-35" transform="translate(1 -657.14)"/><path class="cls-2" d="M444.5,1499c12.13,3.4,23.57,1.72,30-6,5-6,4-19.9,4-23" transform="translate(1 -657.14)"/><path class="cls-2" d="M865.5,1257c-12,39.7-49.16,60.85-79,53-30.29-8-41.32-42.76-42-45" transform="translate(1 -657.14)"/><path class="cls-2" d="M753,1286c-12.26,7.56-28.3,8.3-40.1,2-14.61-7.8-20.39-25.18-11.79-40" transform="translate(1 -657.14)"/><path class="cls-2" d="M851.5,1238.92c4.13,16.06,19.65,24.46,32,20,9.81-3.51,16.74-14.79,16-27.44" transform="translate(1 -657.14)"/><path class="cls-2" d="M697,1260c-16.13,10.6-37.45,8.2-46.66-2-6.43-7.12-6.7-17.75-1.2-27" transform="translate(1 -657.14)"/><path class="cls-2" d="M876.5,1220c9.1,10.11,23.09,13.2,34,8,11.8-5.62,14.67-18.39,15-20" transform="translate(1 -657.14)"/><path class="cls-2" d="M644,1243c-15.85,6.31-33.34-.73-38.37-13-4-9.77.26-21.94,11-29" transform="translate(1 -657.14)"/><path class="cls-2" d="M896,1252c17.3,12.2,42.75,13.63,60.75,4,15.3-8.19,23-23.15,19.39-38" transform="translate(1 -657.14)"/><path class="cls-2" d="M976.51,1230c16.62-8.41,24.48-23.8,19.66-38-5.32-15.68-25-26.75-47.17-26" transform="translate(1 -657.14)"/><path class="cls-2" d="M972,1168.53c8.64-42.1-8.47-76.72-25.42-79.77-12.48-2.25-27.24,12.17-35.59,34.68" transform="translate(1 -657.14)"/><path class="cls-2" d="M922.5,1102c-5.34-11.55-17-18.7-29-18-14,.81-26,12.09-28,27" transform="translate(1 -657.14)"/><path class="cls-2" d="M869,1095.44c-24.09-12.66-49.08-5.31-54.65,6.35-4.21,8.81,1.69,22.15,14.38,31.74" transform="translate(1 -657.14)"/><path class="cls-2" d="M815.5,1098c-1-.88-16.88-14.1-37-8a39.35,39.35,0,0,0-27,30" transform="translate(1 -657.14)"/><path class="cls-2" d="M759,1104.16c-2.93-10.48-12.53-17.28-22.64-16.1-10.28,1.2-18.35,10.35-18.86,21.47" transform="translate(1 -657.14)"/><path class="cls-2" d="M723.5,1130a18.92,18.92,0,0,0-35-14" transform="translate(1 -657.14)"/><path class="cls-2" d="M630,1205.53c-12.23-.28-20.17-8.67-18.43-15.52,1.4-5.51,9.09-10.19,18.43-10" transform="translate(1 -657.14)"/><path class="cls-2" d="M638.5,1190a13.6,13.6,0,0,1,8-26" transform="translate(1 -657.14)"/><path class="cls-2" d="M660.5,1177c-11.16-2.55-17.39-14.21-14-24,3.16-9.13,14-14.52,24-11" transform="translate(1 -657.14)"/><path class="cls-2" d="M664.68,1141.53c-2.81-9.13-3.33-19.24,0-24.78,4.8-8,18.45-7.89,29.32,7.75" transform="translate(1 -657.14)"/><path class="cls-2" d="M1080.5,1480c17,11,44.93-2.32,51-19,5.27-14.47-.33-31.6-14-41" transform="translate(1 -657.14)"/><path class="cls-2" d="M1132.5,1457c.52,1.77,9.16,19.14,26.53,24.52a36.71,36.71,0,0,0,10.45,1.63h.52" transform="translate(1 -657.14)"/><path class="cls-2" d="M937.5,1089c.19-2,1.63-15,13-23,9.47-6.7,22.19-7.44,33-2" transform="translate(1 -657.14)"/><path class="cls-2" d="M970,1061.53c.27-1.53,4.17-21.94,20.54-29.73,16.86-8,31.11,4.86,32,5.66" transform="translate(1 -657.14)"/><path class="cls-2" d="M1021.5,1061c-3-16.92,4-32.48,16-38,11-5.1,22.73,0,25,1,13,5.69,18,17.45,19,20" transform="translate(1 -657.14)"/><path class="cls-2" d="M1073,1029.53c2.64-18.31,12.51-32.77,25.14-36.86,16.26-5.27,28.67,9.38,29.86,10.84" transform="translate(1 -657.14)"/><path class="cls-2" d="M1121.2,998.55c.45-3.4,3.12-21,17.72-31.27,8.8-6.16,17.33-8.31,21.58-8.25h9.5" transform="translate(1 -657.14)"/><path class="cls-2" d="M972,1240.53c12.34,19.67,31,26.67,41.35,21,1.45-.79,7.17-4.28,9.65-15.36" transform="translate(1 -657.14)"/><path class="cls-2" d="M1012.5,1263c4,21,40,35.75,52.09,32,8.18-2.53,13.57-13.81,14.15-15a33.22,33.22,0,0,0,3.26-13" transform="translate(1 -657.14)"/><path class="cls-2" d="M1058.5,1240.53c10.28,22.32,28.8,32.35,43,26.24,10-4.33,15.22-15.58,17-20" transform="translate(1 -657.14)"/><path class="cls-2" d="M1108.5,1231a18.18,18.18,0,1,0,36-5" transform="translate(1 -657.14)"/><path class="cls-2" d="M1141,1240.53c3,4.49,10.19,14,21.52,16.58a26.85,26.85,0,0,0,5.57.68l1.91,0" transform="translate(1 -657.14)"/><path class="cls-2" d="M1139.6,967.53c3-26-10.94-47-27.8-50.41-13.3-2.69-25,6.3-27.8,8.61" transform="translate(1 -657.14)"/><path class="cls-2" d="M1085.5,941a23.2,23.2,0,0,0-33-25" transform="translate(1 -657.14)"/><path class="cls-2" d="M1060.5,912.53c-.25-1.55-2.17-12.23-10.81-17.84-7-4.54-15.73-4-22.69,1.28" transform="translate(1 -657.14)"/><path class="cls-2" d="M1027.5,909.53c.07-2.42.39-25.61-18.34-39-11.87-8.51-32.87-14.12-46.37-3.17-8.85,7.18-10.42,18.16-10.79,22.15" transform="translate(1 -657.14)"/><path class="cls-2" d="M969,908.09A41.53,41.53,0,0,0,948.82,887c-4.26-2-19.29-9.37-32.79-1.25-9.72,5.85-15,17.51-13.88,29.78" transform="translate(1 -657.14)"/><path class="cls-2" d="M72.25,804.12c.42-15,12.72-27.19,25.75-28.69,12.81-1.48,21.7,8.14,22.37,8.9,7.52,8.5,5.36,18.7,5,20.44" transform="translate(1 -657.14)"/><path class="cls-2" d="M125.5,799c7.37-10.4,20.41-13.82,30-9,10.62,5.33,11.93,18.23,12,19" transform="translate(1 -657.14)"/><path class="cls-2" d="M157.5,816.85c3.45-3,9.93-7.58,17.94-7.31C189.06,810,202.59,824.25,205,845" transform="translate(1 -657.14)"/><path class="cls-2" d="M189.5,850" transform="translate(1 -657.14)"/><path class="cls-2" d="M198,825c7-11.33,18.95-15.43,28.39-10.5,10.63,5.54,12.94,19.83,13.11,21" transform="translate(1 -657.14)"/><path class="cls-2" d="M231.58,816.39C240.83,803.6,255.86,796,271,797.08c20.2,1.41,37.69,17.92,40.13,39.83" transform="translate(1 -657.14)"/><path class="cls-2" d="M296.5,837.15c14.68-5.25,28.65,2.08,32,12.89,3.21,10.36-4.33,20.61-5,21.49" transform="translate(1 -657.14)"/><path class="cls-2" d="M310.5,873a30.77,30.77,0,0,1,30,8c11.28,11.49,8.25,26.84,8,28" transform="translate(1 -657.14)"/><path class="cls-2" d="M348.13,893.73a20.46,20.46,0,0,1,23.26.18c9,6.18,13.18,18.64,11.21,28.84a24.7,24.7,0,0,1-5.45,11.32" transform="translate(1 -657.14)"/><path class="cls-2" d="M368.5,929a22.34,22.34,0,0,1,6,43" transform="translate(1 -657.14)"/><path class="cls-2" d="M364.56,961c11.34,11.18,14.57,29,8.25,43-7.26,16.11-25.71,24-42.31,17" transform="translate(1 -657.14)"/><path class="cls-2" d="M356.5,1021c11.64,12.82,8.72,32.12-3,40-10.11,6.79-25.88,4.49-35-7" transform="translate(1 -657.14)"/><path class="cls-2" d="M329,1062.35c-9.33,11.93-24.07,18.14-38.55,16-17.29-2.5-31.45-16.44-34.75-34.61" transform="translate(1 -657.14)"/><path class="cls-2" d="M270.45,1068.53c1.6,11.25-1.47,22.5-9.22,28-11.76,8.44-34.77,4.1-47.23-15.71" transform="translate(1 -657.14)"/><path class="cls-2" d="M215.5,1067c1.91,18-6.68,31.87-17,34-6,1.24-11.64-1.69-15-4" transform="translate(1 -657.14)"/><path class="cls-2" d="M188.5,1101c-.63,8.9-6.64,21.48-15,24a21.4,21.4,0,0,1-24-9" transform="translate(1 -657.14)"/><path class="cls-2" d="M152,1120.53c-1.48,13.68-9.55,25-20.61,28.78-14.22,4.86-31.29-3.45-38.85-20.41" transform="translate(1 -657.14)"/><path class="cls-2" d="M111.34,1148.53c3,14.22-4.46,26.16-14,30.29-11.67,5-26.3-10.81-26.84-11.36" transform="translate(1 -657.14)"/><path class="cls-2" d="M74.5,1155c1.41,12.39-6.5,22.2-15,23s-14.63-7.5-15-8" transform="translate(1 -657.14)"/><path class="cls-2" d="M48.5,1175c.06,1.56-4.91,27.72-22.29,39a36.1,36.1,0,0,1-19.3,5.61H0" transform="translate(1 -657.14)"/><path class="cls-2" d="M902.5,904c-19.37-.57-31.91,12.68-31,23,.63,7.16,7.82,13.78,17,17" transform="translate(1 -657.14)"/><path class="cls-2" d="M870.5,927c-37-5-61.3,22.61-62,41-.52,13.47,9.61,23.81,13,27" transform="translate(1 -657.14)"/><path class="cls-2" d="M807.5,975c-25,7-25.27,32.8-19,41,4.84,6.33,15.85,8.58,26,4" transform="translate(1 -657.14)"/><path class="cls-2" d="M788.5,992c-12.51-13.22-45.08-9.35-54,1-6.61,7.67-7.23,20.39-1,31" transform="translate(1 -657.14)"/><path class="cls-2" d="M729.5,1018c-21.89,5.09-40,24.29-39,42.49.9,15.38,12.89,29.21,30.42,35" transform="translate(1 -657.14)"/><path class="cls-2" d="M883.34,908c2.39-11.87-3.18-22.94-11-26.08-9.69-3.88-24.3,3.78-27.06,19.53" transform="translate(1 -657.14)"/><path class="cls-2" d="M858,882c-.76-7.87-5.64-14.61-12.49-17-9.36-3.27-21.45,1.93-26,13" transform="translate(1 -657.14)"/><path class="cls-2" d="M828.91,867c3.65-7.23-2.4-14.37-9.87-15.37-6.11-.83-13.46,2.42-16,8.13" transform="translate(1 -657.14)"/><path class="cls-2" d="M804.5,874a38.82,38.82,0,0,0-4-23c-5.62-10.58-17.44-20.14-32-20-12.81.12-21.53,7.69-24,10" transform="translate(1 -657.14)"/><path class="cls-2" d="M762,831c5.51-12.19-.93-24.9-10.65-27.83-7-2.12-15.72.9-21.32,7.59" transform="translate(1 -657.14)"/><path class="cls-2" d="M746,801.53c.06-13.56-5-20-7-22.09-11.28-12.38-37.12-11.54-60.55,7.36" transform="translate(1 -657.14)"/><path class="cls-2" d="M702.5,823.53c-1.17-20.28-15.47-37-34-40.48-20.09-3.73-40.53,9-47,30.1" transform="translate(1 -657.14)"/><path class="cls-2" d="M634.5,834c-2.64-13.91-13.21-22.2-22-21-6.79.92-11,7.29-12,9" transform="translate(1 -657.14)"/><path class="cls-2" d="M606.5,814c-9.33-9.52-23-12.13-33-7-13,6.71-18.83,26.19-9,42" transform="translate(1 -657.14)"/><path class="cls-2" d="M568,810c-2.14-10.92-9.85-19.75-19.89-22.55-12.91-3.61-27.73,3.27-34.11,16.91" transform="translate(1 -657.14)"/><path class="cls-2" d="M521.88,824.53c1.45-15.77-10.18-27.26-20.29-26.5-7.65.58-15.16,8.22-17.09,18.77" transform="translate(1 -657.14)"/><path class="cls-2" d="M496.5,822c-8.55-5.06-17.56-5.65-21-2-4.06,4.31-2.28,16.58,9,26" transform="translate(1 -657.14)"/><path class="cls-2" d="M474.5,832c-16.88-6.17-33.36,3.57-36,16-2,9.19,3.6,20.11,14,26" transform="translate(1 -657.14)"/><path class="cls-2" d="M438,857c-9.15-1.65-17.65,4.33-18.49,12-.77,6.9,4.83,13.74,13.05,15" transform="translate(1 -657.14)"/><path class="cls-2" d="M419.5,873.23c-16.47-11.82-33.56-9.4-41.06,3-1.42,2.34-4.51,8.37-4.44,19.33" transform="translate(1 -657.14)"/><path class="cls-2" d="M699,1079.13c-13.9,10-33.56,10.89-47.36,2.6-11.34-6.82-17.21-18.92-15.28-31.2" transform="translate(1 -657.14)"/><path class="cls-2" d="M641,1074c-19.12,7.35-40.61-1.07-46.27-15-5.82-14.36,5.95-32.66,27.29-36" transform="translate(1 -657.14)"/><path class="cls-2" d="M594,1056.53c-1.14,12.8-9.31,23.37-20,26.33-13.11,3.62-27.91-4.75-33-20.06" transform="translate(1 -657.14)"/><path class="cls-2" d="M552.5,1045c-1.31,11.84-11,20.28-21,20-7.57-.21-14.62-5.36-18-13" transform="translate(1 -657.14)"/><path class="cls-2" d="M533.93,1009c1.26,22.58-14.62,42.58-37.42,48.6-24.93,6.59-56.53-4-63.23-24.3-5.46-16.59,8.19-31.92,10.32-34.24" transform="translate(1 -657.14)"/><path class="cls-2" d="M434,1014.3c-8.09,4.83-17.89,4.49-23.21,0-7-5.92-7-19.7,4.1-27.77" transform="translate(1 -657.14)"/><path class="cls-2" d="M406,1004.15c-6.41,8.31-15.27,10.67-22.14,6.09-5.81-3.87-8.19-11.36-8.86-13.71" transform="translate(1 -657.14)"/><path class="cls-2" d="M477.5,1211c-9.32-9.28-13.58-22-10-32,5.24-14.69,27.51-24.24,49-14" transform="translate(1 -657.14)"/><path class="cls-2" d="M466.5,1182c-1.08-.81-8.86-6.41-19-4-11.34,2.7-15.62,13-16,14" transform="translate(1 -657.14)"/><path class="cls-2" d="M470.5,1239c-2.61-14.11,4.75-27.88,17-33,10.22-4.27,22.4-1.91,31,6" transform="translate(1 -657.14)"/><path class="cls-2" d="M322.5,1237c-22.15-9.07-30.3-34.32-21-51,7.42-13.31,25.49-20.36,43-15" transform="translate(1 -657.14)"/><path class="cls-2" d="M299.5,1212c-10.61,9.21-25.25,7.15-31-1-4.09-5.79-3.69-14.68,1-22" transform="translate(1 -657.14)"/><path class="cls-2" d="M642.5,1359c2.1-13.38-5.13-25.94-16-30-13.34-5-30.55,3.44-35,20" transform="translate(1 -657.14)"/><path class="cls-2" d="M597.5,1335c-1.12-.49-11.13-4.7-18,0-7.6,5.2-9.74,20.21,0,33" transform="translate(1 -657.14)"/><path class="cls-2" d="M626.5,1372c6.86-12.4,20.78-16,29-11,5.47,3.35,8.34,10.51,8,18" transform="translate(1 -657.14)"/><path class="cls-2" d="M46.69,994.34c-.41,2.78-4.67,29.06-24.87,37.13A32.63,32.63,0,0,1,10,1033.76H0" transform="translate(1 -657.14)"/><path class="cls-2" d="M34.5,979a22.67,22.67,0,0,0,18,17c11.4,1.9,19.37-6.33,20-7" transform="translate(1 -657.14)"/><path class="cls-2" d="M33,1024c3.42,13.14,14.53,21.47,25.23,20.58,9.83-.82,15.71-9.13,16.66-10.51" transform="translate(1 -657.14)"/><path class="cls-2" d="M6.5,859c5.11,10.38,16.86,15.33,27,12,8.66-2.85,14.77-11.29,15-21" transform="translate(1 -657.14)"/><path class="cls-2" d="M28.71,872.9c5.62,7.23,4.62,17.08-2.14,24.09-7.94,8.24-19.88,8.45-20.94,8.45H0" transform="translate(1 -657.14)"/><path class="cls-2" d="M989.5,1352a17,17,0,0,0-34,2" transform="translate(1 -657.14)"/><path class="cls-2" d="M971.5,1377c-1.29-12.5-10.33-22.64-22-25a28,28,0,0,0-27,10" transform="translate(1 -657.14)"/><path class="cls-2" d="M932.5,1353c-.43-.83-6.87-12.81-20-14-10.88-1-21.64,5.88-26,17" transform="translate(1 -657.14)"/><path class="cls-2" d="M1146.14,1089.11c-8-9-10.23-20.38-5.69-27.78,5.27-8.59,22-9.3,26-9.3h3.5" transform="translate(1 -657.14)"/><path class="cls-2" d="M1163.7,1102.93c-.9-1.56-7.67-12.91-20.83-14.81-12.38-1.78-25.26,5.54-31.26,18.31" transform="translate(1 -657.14)"/><path class="cls-2" d="M1155.25,1332.89a16,16,0,0,0-1.38,21.28c5.22,6.67,14,7,14.71,7H1170" transform="translate(1 -657.14)"/><path class="cls-2" d="M1149,1344.53a12.79,12.79,0,0,1-8.82-22.41" transform="translate(1 -657.14)"/><path class="cls-2" d="M257.5,1376c-15.55,1.63-29-5.85-33-17-2.75-7.69-.24-15,1-18" transform="translate(1 -657.14)"/><path class="cls-2" d="M223,1348c-19,1.47-34.79-8.13-37.43-20-2.6-11.66,8.5-21,9.66-22" transform="translate(1 -657.14)"/><path class="cls-2" d="M185,1322c-8.2,6-20.7,5.93-28.48,0-7.32-5.57-8.7-15-3-22" transform="translate(1 -657.14)"/><path class="cls-2" d="M149.5,1310.44c-8.5,7.8-20.26,8.56-28.62,2.2-10.31-7.84-9.91-22.28-9.87-23.11" transform="translate(1 -657.14)"/><path class="cls-2" d="M123.5,1289c-10,2.89-20.24-1.72-24-10-2.88-6.33-1.66-14.11,3-20" transform="translate(1 -657.14)"/><path class="cls-2" d="M121.5,1264a21.58,21.58,0,0,1-25-19.64c-.51-9.13,5.55-18.48,15-21.83" transform="translate(1 -657.14)"/><path class="cls-2" d="M144.5,1229c-24.86,1.72-45.31-10.54-51-29.68a44.69,44.69,0,0,1-1-19.79" transform="translate(1 -657.14)"/><path class="cls-2" d="M20.94,1280.47a21.37,21.37,0,0,0-19.51-32l-1.43,0" transform="translate(1 -657.14)"/><path class="cls-2" d="M19,1258c3.05-7.33,9.21-12.37,16.1-13,8.88-.76,17.62,6,20.4,16.49" transform="translate(1 -657.14)"/><path class="cls-2" d="M33.5,1425c4.17,9.64.79,20.56-6.44,28.62-9.35,10.42-22.94,10.6-24.81,10.61H0" transform="translate(1 -657.14)"/><path class="cls-2" d="M27.5,1408c-1.5,10.19,5.53,19.56,15,21,8.57,1.31,17.28-4.15,20-13" transform="translate(1 -657.14)"/><path class="cls-2" d="M59.5,1424c7.54,9,20.14,13.38,30.87,9.85,12-4,20.07-16.09,19.12-29.35" transform="translate(1 -657.14)"/><path class="cls-2" d="M452.5,1055a23.34,23.34,0,0,1-42,5" transform="translate(1 -657.14)"/><path class="cls-2" d="M435.5,1071.53c.27,1,6.46,21.73,21,24.41,11.67,2.14,19.82-9,21-10.68" transform="translate(1 -657.14)"/><path class="cls-2" d="M49.5,1529c-1.52,15.09-10.29,27.88-23,33-10,4-19,4-25,4H0" transform="translate(1 -657.14)"/><path class="cls-2" d="M86.5,1552c-14.06,9.1-28.88,10.69-37,4-1.63-1.35-4.56-5.49-6-9" transform="translate(1 -657.14)"/><path class="cls-2" d="M94.23,774.71a76.35,76.35,0,0,0-21.38-52.37c-24.77-25.81-58.92-27-64.58-27.05H0" transform="translate(1 -657.14)"/><path class="cls-2" d="M1072.5,711.27c-4.75-14.45-14-23.78-24.15-24.25-11.13-.51-21.53,9.72-26.35,26" transform="translate(1 -657.14)"/><path class="cls-2" d="M1030.5,731.5c-1-3.15-7.4-23.2-22-27-16.8-4.37-42.35,13.33-50,48" transform="translate(1 -657.14)"/><path class="cls-2" d="M972.8,720.34c-.71-2.42-5.53-17.86-20-23.79-17.6-7.21-38.23,3.44-46.67,18.17A37.55,37.55,0,0,0,901.36,732" transform="translate(1 -657.14)"/><path class="cls-2" d="M915.5,734.5c-8.68-7.11-20.56-6.55-27,0-4.62,4.69-6,12.06-4,19" transform="translate(1 -657.14)"/><path class="cls-2" d="M884,740.25c-19.93-10.62-42.82-5.33-53.88,10.41-11.64,16.57-5,37.39-4.4,39.34" transform="translate(1 -657.14)"/><path class="cls-2" d="M848.5,780.5a55.71,55.71,0,0,0-39,22.36c-11.94,16-12.89,33.68-13,39.14" transform="translate(1 -657.14)"/><path class="cls-2" d="M1066.5,721.5c2.82-10.21,10-17.37,18-18a16.44,16.44,0,0,1,9,2" transform="translate(1 -657.14)"/><path class="cls-2" d="M1089.62,727.35c.55-27.53,16.15-51.71,41.72-62.12a81.15,81.15,0,0,1,32.05-5.58H1170" transform="translate(1 -657.14)"/><path class="cls-2" d="M528.5,916.5c12.25-7.59,26.41-8.52,36-2a27.4,27.4,0,0,1,9.18,11.15c5.34,11.69.69,22.85-.18,24.85" transform="translate(1 -657.14)"/><path class="cls-2" d="M572,919.06c1.27-1.24,6.56-6.11,14.08-5.55,10.57.79,16,11.61,16.42,12.49" transform="translate(1 -657.14)"/><path class="cls-2" d="M527.5,929.5c2.34-11.46-5-21.14-13-22-5.58-.6-11.55,3.07-15,9" transform="translate(1 -657.14)"/><path class="cls-2" d="M667.5,878.5c14.25-1.29,24.63,9.5,24,19-.47,7-7,13.83-16,16" transform="translate(1 -657.14)"/><path class="cls-2" d="M684,911.13c13.21,16.1,32.54,15.68,39.85,6.51,5.16-6.49,5-18.19,0-28.64" transform="translate(1 -657.14)"/></g></g></g></svg>