<svg id="CONTENT"
    xmlns="http://www.w3.org/2000/svg" viewBox="0 0 1170 1515.9">
    <defs>
        <style>.cls-1{fill:#fc2727;}.cls-2{fill:none;stroke:#1d1d1b;stroke-miterlimit:10;stroke-width:5px;}</style>
    </defs>
    <g id="JONCTION_THREE_BOTTOM" data-name="JONCTION THREE BOTTOM">
        <polyline id="Fond" class="cls-1" points="1 84.56 13 72.56 24.39 69.77 44.26 69.47 66.39 81.57 91.49 74.31 147.69 76.42 167.12 83.91 167.85 77.29 173.92 63.23 184.79 53.13 203.27 51.26 223.46 63.22 235.26 75.96 249.84 63.49 269.61 54.08 287.27 64.2 293.51 71.66 300.07 69.03 315.9 69.43 323.31 77.28 336.97 70.47 366.69 69.77 389.43 86.47 393.44 97.99 404.62 98.34 421.01 106.54 428.7 109.73 439.61 96.89 458.42 87.46 486.64 88.17 503.72 97.44 509.84 107.02 527.72 102.5 548.64 104.75 561.3 115.2 572.59 113.25 591.76 113.12 604.66 118.75 608.36 127.99 609.27 138.77 620 153.02 613.58 185.78 599.87 202.44 573.89 218.25 571.94 222.3 590.69 251.96 597.24 280.57 590.49 295.02 575.07 305.49 558.74 309.97 542.63 311.81 518.9 312.07 517 323.06 508.59 334.19 491.56 338.71 497.1 354.73 499.98 379.48 491.61 402.03 478.38 417.41 449.14 428.57 401.58 431.46 399.14 441.61 401.11 455.89 391.57 470.45 371.42 478.21 352.08 477.27 339.63 476.64 332.1 478.22 314.08 477.55 286.11 463.56 262.34 477.78 223.17 476.72 198.08 468.39 184.13 476.25 172.54 472.39 155.56 494.34 138.92 508.11 120.87 512.45 109.89 511.82 96.38 498.85 87.83 488.7 85.66 481.03 79.93 478.45 77.33 484.96 65.85 508.12 53.22 516.34 48.98 515.09 40.49 522.2 28.32 525.44 15.05 522.79 1 512.56"/>
        <path class="cls-2" d="M285.42,1457.11s-34.74,51.69-92.93,8.17" transform="translate(0 -1176.44)"/>
        <path class="cls-2" d="M256.63,1533.68" transform="translate(0 -1176.44)"/>
        <path class="cls-2" d="M224,1481s-22.88,23.51-27.08,48.83c-2.84,17.12,2.85,35.06,29.89,47.13" transform="translate(0 -1176.44)"/>
        <path class="cls-2" d="M152.09,1547.12s19.57-38.32,44.83-17.27" transform="translate(0 -1176.44)"/>
        <path class="cls-2" d="M377.8,1473.64c-2.22-3.09-64.67,25.26-59.22-18.18" transform="translate(0 -1176.44)"/>
        <path class="cls-2" d="M562.93,1388.15s100.69,106-44.23,100.24" transform="translate(0 -1176.44)"/>
        <path class="cls-2" d="M508.81,1446.19s33.14,70.74-20.52,69.09" transform="translate(0 -1176.44)"/>
        <path class="cls-2" d="M398.8,1607.76c150.89,7.72,88.49-101.49,88.49-101.49" transform="translate(0 -1176.44)"/>
        <path class="cls-2" d="M394.7,1590.19c.12,3.55,31.95,81.45-53.47,61.38" transform="translate(0 -1176.44)"/>
        <path class="cls-2" d="M199.1,1643.48s80,40.34,99.26-25.68" transform="translate(0 -1176.44)"/>
        <path class="cls-2" d="M285.81,1639.61s58.71,41,65.74-7.5" transform="translate(0 -1176.44)"/>
        <path class="cls-2" d="M256.79,1597.31s41.52,51.4,96.55-7.67" transform="translate(0 -1176.44)"/>
        <path class="cls-2" d="M66.78,1438.25s40.66-48.15-26.68-79.55" transform="translate(0 -1176.44)"/>
        <path class="cls-2" d="M68.41,1378.67s15.82-27.73,40.6-40.78c16.74-8.81,37.57-10.92,60.38,6.75" transform="translate(0 -1176.44)"/>
        <path class="cls-2" d="M110,1294.48s-32.49,30.6-1,43.41" transform="translate(0 -1176.44)"/>
        <path class="cls-2" d="M119,1508c-4.06-.66,1.82-62.77-41.35-41.84" transform="translate(0 -1176.44)"/>
        <path class="cls-2" d="M299.75,1405.45" transform="translate(0 -1176.44)"/>
        <path class="cls-2" d="M-3.33,1421.19" transform="translate(0 -1176.44)"/>
        <path class="cls-2" d="M108.38,1471.71s33.63-62.64-28.86-72.47" transform="translate(0 -1176.44)"/>
        <path class="cls-2" d="M-7.59,1536.51" transform="translate(0 -1176.44)"/>
        <path class="cls-2" d="M174.38,1646.87c-63.15,93.81-92.74,6.51-92.74,6.51s-14.24,44.94-32.83,38.88" transform="translate(0 -1176.44)"/>
        <path class="cls-2" d="M156.72,1613.09s12.6,69.65,52.76,20.88" transform="translate(0 -1176.44)"/>
        <path class="cls-2" d="M609.41,1314.6c3.63,6.4,10.74,16,10.28,26.77-1,22.68-19.8,43.3-47.83,54.12" transform="translate(0 -1176.44)"/>
        <path class="cls-2" d="M7.12,1681.49" transform="translate(0 -1176.44)"/>
        <path class="cls-2" d="M-28,1695.81" transform="translate(0 -1176.44)"/>
        <path class="cls-2" d="M72,1269.85c-.82-2-7.63-18-25.44-23.11-17.55-5-33.45-4.92-44,11.76v431c.87,1.24,9.38,11,21.73,12.29,11.73,1.24,28-6.45,26.63-18.39" transform="translate(0 -1176.44)"/>
        <path class="cls-2" d="M67.06,1257.9c45.15-18.11,106.84-.85,113.56,11.94" transform="translate(0 -1176.44)"/>
        <path class="cls-2" d="M215.67,1298.65c9.46-44,36.7-68.84,56.48-66.13,16,2.2,25.82,22.13,29,29.23" transform="translate(0 -1176.44)"/>
        <path class="cls-2" d="M293.52,1247.19c10.82-4.27,24.42-1.56,27.88,4.45,2.83,4.91,0,10.54-.66,11.67" transform="translate(0 -1176.44)"/>
        <path class="cls-2" d="M322.76,1254.45c11.94-11.66,36.62-11.37,52.17-3.3,15.76,8.19,23,25.21,17.16,40.34" transform="translate(0 -1176.44)"/>
        <path class="cls-2" d="M394,1276.55c11.88-3.5,30.74,3.64,34.87,13.62,3.85,9.28-.93,20-11.38,24.44" transform="translate(0 -1176.44)"/>
        <path class="cls-2" d="M428.35,1287.83c7.79-22.88,45-28.73,63.62-21.66,13.64,5.16,22.86,19.45,22.14,35.23" transform="translate(0 -1176.44)"/>
        <path class="cls-2" d="M510.46,1283.15c15.68-7.35,40.89-5.12,47.75,4.14,5.77,7.8,2.48,17.36,1.81,19.18" transform="translate(0 -1176.44)"/>
        <path class="cls-2" d="M562.24,1292.7c11.33-7.71,35.7-5.62,43.51,3.64,6.77,8,6.08,19.94-2.33,27.79" transform="translate(0 -1176.44)"/>
        <path class="cls-2" d="M235.82,1253.25c-12.1-18.94-38.79-28.75-52.21-22.88-8.86,3.88-13.73,17.82-14.09,18.81a38.75,38.75,0,0,0-2.26,10.73" transform="translate(0 -1176.44)"/>
        <path class="cls-2" d="M258,1384c82-48,2-82.8,2-82.8" transform="translate(0 -1176.44)"/>
        <path class="cls-2" d="M226.73,1372s63.37,7.45,21.07,37.73" transform="translate(0 -1176.44)"/>
        <path class="cls-2" d="M468.32,1414.34C473.79,1327,395,1361.2,395,1361.2" transform="translate(0 -1176.44)"/>
        <path class="cls-2" d="M439,1428.68s44.33-39.66,46.44,8.85" transform="translate(0 -1176.44)"/>
        <polyline id="Fond-2" data-name="Fond" class="cls-1" points="1168 466.56 1153 470.56 1137 466.56 1128 460.56 1118.64 463.5 1100.56 468.05 1080.58 458.79 1070.53 468.65 1050.62 481.36 1030.75 481.67 1008.61 468.95 983.52 476.58 927.31 474.37 907.89 466.49 907.16 473.45 901.09 488.23 890.21 498.84 871.73 500.8 851.54 488.23 839.75 474.85 825.16 487.94 805.39 497.84 787.73 487.2 781.49 479.36 774.93 482.13 759.1 481.71 751.7 473.46 738.03 480.62 708.31 481.35 685.58 463.8 681.57 451.7 670.39 451.33 653.99 442.72 646.3 439.36 635.39 452.86 616.58 462.76 588.36 462.02 571.28 452.28 565.16 442.21 547.29 446.96 526.36 444.59 513.7 433.61 502.41 435.66 483.25 435.8 470.35 429.88 466.64 420.18 465.74 408.85 455 393.87 461.43 359.45 475.13 341.94 501.11 325.33 503.06 321.07 484.31 289.91 477.77 259.84 484.51 244.66 499.94 233.66 516.26 228.96 532.37 227.03 556.11 226.74 558 215.2 566.41 203.5 583.44 198.76 577.9 181.92 575.02 155.92 583.4 132.22 596.63 116.06 625.86 104.33 673.42 101.3 675.86 90.63 673.9 75.63 683.44 60.33 703.59 52.17 722.92 53.16 735.37 53.82 742.9 52.16 760.93 52.87 788.89 67.57 812.67 52.62 851.84 53.74 876.93 62.49 890.88 54.23 902.46 58.29 919.45 35.23 936.09 20.76 954.14 16.19 965.11 16.86 978.62 30.49 987.18 41.15 989.35 49.21 995.07 51.93 997.67 45.08 1009.16 20.75 1021.79 12.11 1026.03 13.43 1034.52 5.96 1046.68 2.55 1059.95 5.33 1074.98 15.7 1083.27 10.41 1095.34 8.34 1108.29 10.75 1120.6 19.94 1123.84 28.33 1126.14 35.6 1133.04 35.69 1146.77 29.47 1167.2 31.68"/>
        <path id="Fond-3" data-name="Fond" class="cls-1" d="M499.2,1735.65" transform="translate(0 -1176.44)"/>
        <line id="Fond-4" data-name="Fond" class="cls-1" x1="495.31" y1="601.35" x2="501.24" y2="585.63"/>
        <path class="cls-2" d="M789.58,1436.17s34.75-54.31,92.93-8.58" transform="translate(0 -1176.44)"/>
        <path class="cls-2" d="M818.38,1355.72" transform="translate(0 -1176.44)"/>
        <path class="cls-2" d="M851,1411.06s22.88-24.71,27.09-51.32c2.84-18-2.85-36.83-29.89-49.52" transform="translate(0 -1176.44)"/>
        <path class="cls-2" d="M922.91,1341.59s-19.56,40.27-44.82,18.15" transform="translate(0 -1176.44)"/>
        <path class="cls-2" d="M697.2,1418.81c2.23,3.24,64.67-26.54,59.22,19.1" transform="translate(0 -1176.44)"/>
        <path class="cls-2" d="M512.07,1508.64s-100.69-111.39,44.24-105.33" transform="translate(0 -1176.44)"/>
        <path class="cls-2" d="M566.2,1447.65s-33.15-74.33,20.52-72.6" transform="translate(0 -1176.44)"/>
        <path class="cls-2" d="M676.2,1277.87c-150.88-8.11-88.48,106.64-88.48,106.64" transform="translate(0 -1176.44)"/>
        <path class="cls-2" d="M680.31,1296.34c-.13-3.74-32-85.58,53.47-64.5" transform="translate(0 -1176.44)"/>
        <path class="cls-2" d="M875.91,1240.34s-80-42.38-99.27,27" transform="translate(0 -1176.44)"/>
        <path class="cls-2" d="M789.2,1244.41s-58.72-43.09-65.74,7.88" transform="translate(0 -1176.44)"/>
        <path class="cls-2" d="M818.22,1288.86s-41.53-54-96.56,8.05" transform="translate(0 -1176.44)"/>
        <path class="cls-2" d="M1008.23,1456s-40.67,50.6,26.67,83.59" transform="translate(0 -1176.44)"/>
        <path class="cls-2" d="M1006.59,1518.6s-15.82,29.13-40.59,42.84c-16.75,9.27-37.58,11.49-60.38-7.09" transform="translate(0 -1176.44)"/>
        <path class="cls-2" d="M965,1607.07s32.49-32.17,1-45.63" transform="translate(0 -1176.44)"/>
        <path class="cls-2" d="M956,1382.7c4.06.7-1.81,66,41.35,44" transform="translate(0 -1176.44)"/>
        <path class="cls-2" d="M775.25,1490.45" transform="translate(0 -1176.44)"/>
        <path class="cls-2" d="M1176.43,1640.63" transform="translate(0 -1176.44)"/>
        <path class="cls-2" d="M1152.66,1489.74" transform="translate(0 -1176.44)"/>
        <path class="cls-2" d="M1151.92,1517.55s16.23-87.18-73.58-43.63" transform="translate(0 -1176.44)"/>
        <path class="cls-2" d="M1127,1631.17" transform="translate(0 -1176.44)"/>
        <path class="cls-2" d="M1119.67,1592.74s18.43,27.9,7,41.78c-8.56,10.37-25.91,13.32-38.52,6.32-12-6.63-14.18-19.2-14.48-21" transform="translate(0 -1176.44)"/>
        <path class="cls-2" d="M966.63,1420.84S933,1486.66,995.48,1497" transform="translate(0 -1176.44)"/>
        <path class="cls-2" d="M1126.1,1462.12s32.78-23.32-.58-45.28" transform="translate(0 -1176.44)"/>
        <path class="cls-2" d="M1138.61,1430.42" transform="translate(0 -1176.44)"/>
        <path class="cls-2" d="M1153.14,1299.94s19.77,112.16-70.54,52.81" transform="translate(0 -1176.44)"/>
        <path class="cls-2" d="M1124.17,1270.57" transform="translate(0 -1176.44)"/>
        <path class="cls-2" d="M1093.8,1319.65s-8.89,61.87-42.54,40.23" transform="translate(0 -1176.44)"/>
        <path class="cls-2" d="M900.62,1236.78c63.15-98.57,92.74-6.84,92.74-6.84s14.24-47.22,32.84-40.85" transform="translate(0 -1176.44)"/>
        <path class="cls-2" d="M918.29,1272.27s-12.6-73.18-52.77-21.93" transform="translate(0 -1176.44)"/>
        <path class="cls-2" d="M1120.51,1220.68a44.14,44.14,0,0,1,14.55-10.21c3.71-1.61,16.36-12.22,32.44-1V1642" transform="translate(0 -1176.44)"/>
        <path class="cls-2" d="M465.6,1585.92c-3.64-6.73-10.75-16.84-10.29-28.13,1-23.83,19.81-45.5,47.83-56.87" transform="translate(0 -1176.44)"/>
        <path class="cls-2" d="M1127.35,1214.38c-.09-12.76-11.3-25.93-24.32-29-13.93-3.3-28.66,2.91-35.14,15" transform="translate(0 -1176.44)"/>
        <path class="cls-2" d="M1072.86,1191.87c-.86-1.31-9.74-11.42-22.09-12.8-11.72-1.31-28,6.78-26.63,19.32" transform="translate(0 -1176.44)"/>
        <path class="cls-2" d="M1079.64,1634.11c-10.57,17.53-33.61,28.41-51.16,23.12-17.81-5.38-24.61-22.15-25.44-24.29" transform="translate(0 -1176.44)"/>
        <path class="cls-2" d="M1008,1645.5c-45.16,19-106.85.89-113.57-12.55" transform="translate(0 -1176.44)"/>
        <path class="cls-2" d="M859.33,1602.68c-9.46,46.27-36.7,72.34-56.48,69.48-16-2.3-25.82-23.25-29-30.7" transform="translate(0 -1176.44)"/>
        <path class="cls-2" d="M781.48,1656.75c-10.82,4.49-24.42,1.64-27.88-4.67-2.82-5.16,0-11.08.66-12.27" transform="translate(0 -1176.44)"/>
        <path class="cls-2" d="M752.25,1649.12c-12,12.26-36.63,12-52.17,3.47-15.76-8.61-23-26.48-17.17-42.39" transform="translate(0 -1176.44)"/>
        <path class="cls-2" d="M681,1625.9c-11.89,3.68-30.74-3.82-34.88-14.31-3.85-9.75.94-21,11.38-25.68" transform="translate(0 -1176.44)"/>
        <path class="cls-2" d="M646.65,1614.05c-7.79,24-45,30.18-63.62,22.76-13.63-5.42-22.86-20.44-22.14-37" transform="translate(0 -1176.44)"/>
        <path class="cls-2" d="M564.55,1619c-15.69,7.72-40.9,5.37-47.75-4.35-5.78-8.2-2.48-18.25-1.81-20.15" transform="translate(0 -1176.44)"/>
        <path class="cls-2" d="M512.76,1608.93c-11.32,8.11-35.7,5.91-43.51-3.82-6.77-8.44-6.07-20.95,2.33-29.2" transform="translate(0 -1176.44)"/>
        <path class="cls-2" d="M839.19,1650.39c12.09,19.9,38.78,30.2,52.2,24,8.86-4.07,13.74-18.72,14.1-19.76a42.87,42.87,0,0,0,2.26-11.28" transform="translate(0 -1176.44)"/>
        <path class="cls-2" d="M817.05,1513c-82,50.46-2,87-2,87" transform="translate(0 -1176.44)"/>
        <path class="cls-2" d="M848.27,1525.64s-63.37-7.83-21.06-39.65" transform="translate(0 -1176.44)"/>
        <path class="cls-2" d="M606.68,1481.12C601.21,1572.88,680,1537,680,1537" transform="translate(0 -1176.44)"/>
        <path class="cls-2" d="M636,1466.05s-44.32,41.67-46.44-9.3" transform="translate(0 -1176.44)"/>
        <path class="cls-2" d="M91.84,1586.21C62.62,1499.05,3,1561.8,3,1561.8" transform="translate(0 -1176.44)"/>
        <path class="cls-2" d="M70.28,1611.14s25.54-55.21,46.55-8.73" transform="translate(0 -1176.44)"/>
        <path class="cls-2" d="M1126.5,1636.5c1.59,1.8,9.49,9,18.5,10.5,11.91,2,22.5-1.5,22.5-5.5" transform="translate(0 -1176.44)"/>
    </g>
</svg>