<svg id="CONTENT"
    xmlns="http://www.w3.org/2000/svg" viewBox="0 0 484.82 633.99">
    <defs>
        <style>.cls-1,.cls-2{stroke:#fff;stroke-width:5px;}.cls-1,.cls-2,.cls-3{stroke-miterlimit:10;}.cls-2{fill:none;}.cls-3{stroke:#000;}</style>
    </defs>
    <g id="SMALL">
        <g id="NEVERCATCH_SMALL">
            <g id="JUNCTION_NEVERCATCH_SMALL">
                <g id="JONCTION_BASSE" data-name="JONCTION BASSE">
                    <g id="Falasie_Droite_Bas" data-name="Falasie Droite Bas">
                        <polygon points="481.71 315.3 482.12 555.28 409.61 535.5 314.85 313.44 481.71 315.3"/>
                        <polyline class="cls-1" points="319.78 316.68 325.55 321 333.88 329.1 333.88 336.1 339.19 344.34 343.86 353.4 357.7 361.85 372.73 363.7 381.59 360.2 391.89 355.67 407.55 358.14 414.96 361.03 417.02 367 424.85 369.26 432.68 366.59 436.8 361.85 447.92 369.26 456.78 375.16 468.52 377.92 477.79 375.16 482.32 377.92 482.32 251.85 366.6 248.14 285.6 259.26 250.58 295.93 248.72 307.47 265.41 327.65 282.71 333.42 289.92 351.34 303.31 362.26 310.73 368.85 318.74 373.59 323.3 389.66 332.77 397.9 348.01 410.67 350.49 419.32 358.73 431.68 372.16 453.52 372.73 468.07 385.09 485.24 392.1 505.43 397.04 523.97 409.68 535.46 409.68 552.12 413.48 564.75 420.52 573.41 432.68 579.04 448.71 586.18 461.31 602.06 471.61 608.84 482.32 612.75 482.32 549.31 480.26 548.95 473.67 549.84 466.81 549.84 454.72 544.71 452.04 539.83 430.82 536.61 419.5 537.77 409.68 535.46"/>
                        <polyline class="cls-2" points="386.66 489.76 398.07 494.1 409.68 494.1 419.08 501.93 443.8 503.57 454.72 499.94 465.43 503.57 473.88 510.17 480.06 519.23 482.32 520.05 482.32 465.26 478.41 465.26 471.41 462.79 463.99 459.08 459.87 452.49 452.16 447.25 448.75 435.18 447.51 427.77 435.56 421.59 433.5 413.76 419.01 407.99 402.6 407.99 383.24 400.17 380.77 391.1 367.8 384.03 346.99 378.74 341.42 371.32 334.56 372.04 320 361.85 310.52 363.91 308.88 365.97"/>
                    </g>
                    <g id="Falaise_Gauche_Bas" data-name="Falaise Gauche Bas">
                        <polygon class="cls-1" points="2.56 268.33 2.56 630.13 13.68 625.11 20.27 619.76 25.43 609.25 27.9 602.06 42.71 598.81 46.85 602.06 67.24 591.33 76.79 574.08 81.04 557.67 83.91 539.76 83.91 528.87 78.72 520.05 74.03 511.92 71.59 494.99 78.72 473.57 86.19 468.56 91.14 460.02 95.46 445.86 105.66 440.06 116.88 430.72 124.21 418.64 127.81 408.82 131.3 396.66 148.38 389.8 156.65 384.51 163.31 377.92 166.3 369.75 169.42 364.73 177.24 362.26 183.76 359.03 193.15 354.64 197.84 347.43 195.14 338.98 201.14 330.95 204.02 326.01 202.38 317.77 206.08 314.06 213.09 312.82 214.74 305 220.98 300.05 226.27 292.63 169.42 187.99 2.56 268.33"/>
                        <path class="cls-1" d="M168.22,892.28l-9.06-2.06-6.36,1-12.11-1-3.36-4.54L122.84,889l-4.47,6.59L111.6,908l-14.24,2.4L82.71,914l-9.87-3.84-11.73,5.22-2.89,7.34S45,926.47,43.8,926.47H32.2l-6.52,3.3-3.92,6.79s-6.93-.61-7.69,0-7.76-2.26-7.76-2.26l-4.94-3.23" transform="translate(1.19 -527.54)"/>
                        <polyline class="cls-1" points="94.85 446.31 77.13 452.08 70.19 448.97 57.77 452.08 49.32 453.86 38.88 453.86 33.66 449.86 24.39 447.13 19.66 449.86 15.81 454.24 5.86 461.14 2.56 460.03"/>
                        <polyline class="cls-1" points="78.72 473.57 71.59 479.34 68.89 485.04 67.65 492.45 62.71 498.22 56.12 505.63 56.12 515.04 53.65 524.59 49.32 528.51 44.17 532.83 30.39 536.19 24.81 536.12 19.04 544.36 19.04 552.67 17.18 559.66 12.52 563.37 7.3 563.37 2.56 563.37"/>
                    </g>
                    <g id="Socle">
                        <polyline class="cls-3" points="480.06 201.59 478.28 201.92 471.61 204.88 464.61 204.88 460.9 206.12 454.72 213.12 451.01 224.24 437.42 222.6 428.76 225.48 422.17 221.36 430.41 216.83 432.88 206.94 417.23 196.23 411.05 193.34 399.51 190.05 378.91 190.05 359.09 181.3 338.08 165.64 331.12 164.51 315.88 170.69 305.17 168.21 292.4 153.38 275.5 142.26 265.62 142.67 241.72 155.85 231.01 166.57 220.71 160.8 198.87 168.63 173.74 182.22 149.85 172.75 137.49 176.45 121.42 167.39 89.7 188.81 60.45 199.53 41.08 192.52 27.9 196.64 2.77 191.28 2.77 290.16 115.65 337.13 221.94 299.23 235.54 313.24 241.31 312.41 249.96 307.88 298.58 290.16 341.83 317.35 458.43 351.14 480.88 270.74"/>
                        <polyline class="cls-1" points="281.89 288.1 295.9 287.69 306.61 292.22 313.61 294.69 321.44 302.94 332.63 299.02 339.77 302.94 349.87 310.76 356.12 310.76 363.46 303.35 368.82 302.11 375.82 296.34 378.71 295.11 383.65 297.17 389.83 302.52 393.95 306.23 398.07 306.23 404.66 302.52 407.2 299.02 411.67 297.17 414.55 296 422.79 301.7 429.38 302.52 437.62 297.58 442.57 297.17 448.3 296.14 453.69 292.63 459.46 290.57 463.92 287.69 466.87 282.75 472.23 279.04 476.01 279.04 481.91 279.04 482.12 281.51 482.12 312 479.85 311.79 467.08 304.38 455.13 299.02 442.77 308.08 432.27 310.56 420.94 320.44 407.75 317.56 392.51 329.51 388.39 327.86 368.61 332.8 359.55 327.86 353.99 327.86 348.84 324.56 334.42 319.21 329.06 322.92 320.41 328.68 315.06 326.21 307.64 323.33 299.58 315.5 295.69 315.5 294.46 312.82 285.67 306.85 276.74 306.85 271.8 303.14 262.53 299.23"/>
                        <path class="cls-2" d="M432.31,734.48l-18.54-12.36c-15.24-9.88-30.56-1.61-37.49-5.76-10.3-6.18-12-4.54-18.13-7.42-14.7-6.9-15.26-16.22-25.13-17.3-9.44-1-12.81,7.06-22.25,6.18-7.91-.74-12.95-8.24-16.95-14.61a11.62,11.62,0,0,0-3-3.2l-10.57-7.82A16,16,0,0,0,263.06,671l-24.8,13.61-5.85,7.21a4.61,4.61,0,0,1-6.61.58l-3.4-3a5.46,5.46,0,0,0-5.53-1l-18.41,7.07L174.63,709a5.41,5.41,0,0,1-5,.14l-16.13-7.92a9.26,9.26,0,0,0-7.19-.4l-8.59,3.1a4.44,4.44,0,0,1-4.15-.61L123.59,696a6,6,0,0,0-6.85-.17l-5.14,3.4" transform="translate(1.19 -527.54)"/>
                        <path class="cls-1" d="M422.84,748.9s6.18,4.12,7,3.71,7-2.15,9-2.72a3,3,0,0,1,1.2-.08l5.09.74,2.45.7a2.3,2.3,0,0,0,2.83-1.51l1.31-4.13,1.46-4.73a3.16,3.16,0,0,1,.63-1.13l4.3-4.86,3.11-2.45a3.49,3.49,0,0,1,3.63-.41l.78.37a3.5,3.5,0,0,0,1.94.3l4.17-.56a4.74,4.74,0,0,0,1.86-.64l6.14-3.61,1.44-4.12v55.62l-1,3.3-3.77,4.94-4.88,6.18L462.8,798a3,3,0,0,0-1.72,2.74v1.74a3.41,3.41,0,0,1-1.27,2.67L457,807.41l-3.6,5a4,4,0,0,1-1.3,1.17l-5,2.8a3.08,3.08,0,0,1-1.81.37l-5.23-.55a3.69,3.69,0,0,1-2.6-1.5l-2.89-3.94a4,4,0,0,0-1.72-1.34l-7-2.87-6-3.52a4.21,4.21,0,0,1-.61-.43l-4.63-4a2,2,0,0,0-2-.32l-5.88,2.48-10.3,1.24-9.13,4.53L383,810.66a3.39,3.39,0,0,1-1.12.69l-6,2.28a3,3,0,0,1-3.42-.92l-4-4.89-2.81-3.3-7.22-3.75a2.52,2.52,0,0,0-2.79.32l-3.31,2.84a2.47,2.47,0,0,1-1.6.59H346a4.16,4.16,0,0,1-2.56-.88l-15.76-12.3" transform="translate(1.19 -527.54)"/>
                        <path class="cls-1" d="M481.34,809.26" transform="translate(1.19 -527.54)"/>
                        <polyline class="cls-1" points="112.97 255.56 98.55 262.15 85.78 272.04 73.31 264.41 60.65 269.15 53.05 265.24 50.76 261.74 40.05 255.14 30.57 256.79 28.93 261.74 19.86 268.74 14.1 271.21 8.17 269.93 2.56 262.15 2.56 275.95"/>
                        <polyline class="cls-1" points="209.79 296.75 197.64 302.32 193.15 305.92 186.51 308.91 176.21 307.67 169.07 312.82 159.32 313.85 149.85 318.8 141.19 323.74 139.13 328.27 130.9 329.92 123.07 334.04 117.16 334.04 109.88 321.68 104.94 320.44 100.13 315.71 94.64 314.26 90.11 315.71 86.81 316.74 82.69 314.26 75.69 304.79 65.8 297.37 58.8 293.67 53.44 294.9 49.73 297.79 46.02 299.85 41.49 299.43 37.12 296 31.61 289.96 28.72 289.13 18.83 282.54 15.13 284.19 10.18 285.01 6.47 287.07 2.77 290.16 2.56 275.74 6.89 278.01 13.07 277.19 19.66 274.71 24.6 274.71 28.31 273.89 35.73 267.71 40.67 265.24 48.09 267.71 53.44 271.42 57.97 278.42 63.33 280.89 73.22 280.07 79.4 277.6 82.58 281.22 86.81 282.13 92.58 292.84 105.76 289.55 114.42 288.31 121.01 290.78 127.6 290.78 135.01 286.25 147.38 285.01 150.67 282.54 158.09 284.6 166.74 294.49 171.27 293.25 176.21 293.25 188.78 286.45"/>
                        <path class="cls-1" d="M90,770.33l-9.48,6.59-4.12,1.23-4.94-.41s-5.77,2.47-5.77,2.89-5,1.23-5,1.23l-2.47-1.65-2.58-3.7-3.19-2.89L50,771.56l-9.47-3.71-3.71-5.76-6.18-3.3H23.13l-5.69-9.89-3.71-4.12-7-1.23-4.12-3.3L1.37,739V718.83l11.12,1.65,16.89,3.29,13.23-4.42L54.1,724.6l7.42,2.47" transform="translate(1.19 -527.54)"/>
                        <path class="cls-1" d="M42.16,738.19c-1.65-1.65-13-3.3-13-3.3l-6.82-4.53-9.89-2.06-6.18-3.7-4.94-2.32" transform="translate(1.19 -527.54)"/>
                        <line class="cls-1" x1="2.56" y1="211.68" x2="2.56" y2="262.15"/>
                        <path class="cls-2" d="M111.78,699.05,90,715.1l0,0-24.26,9.46h0l-10.28,6.58h0L35.91,741.71a.19.19,0,0,0,0,.34l1.65.66h.09l20.93-2.05h.07l15.18,4.52h.06l38.68-.82h0L132,747.66h0l12.32-.83h0l8.62,1.64h0l23,.82h.08l10.63-4.09h.09l15.15,2h.09l4.44-1.62h.1l13.11,2.86h.05l24.43-1.63a.19.19,0,0,1,.19.24l-1.93,6.56a.18.18,0,0,0,.13.23l12.13,2.83h.09l11.87-2.87h.06l10.65.82h.07l16.21-5.34h8.88l24.72-1.23,16-.82.06,0,8.93-3.68h15.77l22.24-2.06,24.33-2.44a5.16,5.16,0,0,0,.77-.13l4.07-1,12-3L430,742.72a2.22,2.22,0,0,1-.83,1.34l-9,6.81a2.2,2.2,0,0,1-1.51.43l-3-.24a2.46,2.46,0,0,0-1.94.71l-4.14,4.14-4.4,6.23a2.44,2.44,0,0,1-1.47,1l-3.86.83a2.7,2.7,0,0,0-1.59,1l-5.12,6.72a2.28,2.28,0,0,1-2.26.86L383,770.93a2.52,2.52,0,0,0-1.78.31l-4.41,2.64a2.92,2.92,0,0,1-2,.38L367.6,773a2.53,2.53,0,0,0-2.12.61L363,775.83a2.84,2.84,0,0,1-1.75.73l-6.36.31a2.61,2.61,0,0,0-1.55.61l-5.28,4.4a3.29,3.29,0,0,1-3.25.55l-3.52-1.32a2.13,2.13,0,0,0-2.26.49l-5.2,5.21-2.67,2.66a2.74,2.74,0,0,1-1.51.77l-12.32,1.86a2,2,0,0,0-.74.27l-5,3.09-9.48,8.65-6.09,5a3.28,3.28,0,0,1-2.1.76h-5.61a2.81,2.81,0,0,0-1.72.58l-3,2.3-1.4,2a2.74,2.74,0,0,1-1.78,1.11l-2.56.43a3,3,0,0,0-2,1.25l-3.72,5.28a3.13,3.13,0,0,1-1.25,1l-2.41,1.1a3.13,3.13,0,0,1-2.69,0l-.86-.43a1.28,1.28,0,0,0-1.7.52l-1.46,2.63-3.06,2.72a2.67,2.67,0,0,1-1.53.65l-3.37.28a1.78,1.78,0,0,0-1.16.58l-3.24,3.6-5.19,1.48a2,2,0,0,0-1,.63l-1.14,1.37a2.17,2.17,0,0,1-1.35.76l-5,.7h-1.22a2.81,2.81,0,0,1-2-.84l-11.79-12.1a2.82,2.82,0,0,0-1.53-.81l-7.65-1.39a2.78,2.78,0,0,1-1-.39L203.22,820a1.72,1.72,0,0,0-.85-.28l-6.25-.35a2.34,2.34,0,0,1-1.27-.46L174.42,803.5a2.9,2.9,0,0,0-1.89-.57l-5.78.3a3.8,3.8,0,0,1-1.9-.39L155,797.93l-7.62-4.72a3.87,3.87,0,0,1-1.52-1.75l-1.84-4.21a1.29,1.29,0,0,0-1.78-.63l-9.07,4.72-1.26,1a3.17,3.17,0,0,1-2.76.66l-3.81-.88-9.48-7.83-9.47-3.7-4.07-3.7a2.66,2.66,0,0,0-1.08-.59l-4.68-1.25a4,4,0,0,1-1.58-.83l-10.55-9.09a3.09,3.09,0,0,0-1.62-.74l-6.93-1a3.57,3.57,0,0,1-1.48-.57L65.75,757a2.21,2.21,0,0,0-.89-.35l-4.58-.74-10.4-5.6a2.48,2.48,0,0,0-.66-.24l-6.77-1.36a3.2,3.2,0,0,1-1.85-1.1l-4.67-5.56" transform="translate(1.19 -527.54)"/>
                        <path class="cls-1" d="M430.66,733.66" transform="translate(1.19 -527.54)"/>
                        <path class="cls-1" d="M418.61,718.93" transform="translate(1.19 -527.54)"/>
                    </g>
                    <g id="Socle_dessus" data-name="Socle dessus">
                        <polygon class="cls-1" points="96.29 90.35 116.27 75.1 130.9 71.81 139.13 53.68 148.41 53.68 162.62 60.07 174.15 50.8 184.87 34.73 200.11 31.02 209.79 20.1 216.18 3.42 234.84 12.28 253.26 42.56 262.53 39.05 282.1 42.14 295.28 59.45 318.35 59.45 334.21 75.1 353.99 79.64 365.52 82.72 382 120.01 269.53 171.51 134.6 167.8 96.29 90.35"/>
                        <path class="cls-1" d="M327.67,644.67,343.11,636l9.69-15.32,18.33-4.94,13.8,9.13,19.47-5.28,7.43-3.45a20.92,20.92,0,0,1,14-1.28l14.67,3.77.46.14,7.18,2.39a8.12,8.12,0,0,0,7-.89l4-2.59a8.19,8.19,0,0,1,4.39-2.46l7.13-1.43a5.8,5.8,0,0,1,6.29,3l4.17,8.07v26.44l-18.95,16.41L416.45,678l-47.79.82s-30.76-22.5-30-22.78S327.67,644.67,327.67,644.67Z" transform="translate(1.19 -527.54)"/>
                        <path class="cls-1" d="M16,620.77l7.42-11.53,18.75-2.06L52,611.37l10.51-6.66,11.12,9.88,8.24-4.53,8.24-.82,11.13-6.59,18.54,10.71,10.71-.41,16.27,11.94,14.63,33.37-40.79,19L48.47,687.93S30.83,643.43,30,642.61,16,620.77,16,620.77Z" transform="translate(1.19 -527.54)"/>
                        <polygon class="cls-1" points="76.51 115.89 60.86 104.77 46.85 105.8 44.38 101.88 37.01 95.54 32.43 85.81 22.95 90.05 13.07 84.99 5.24 79.64 2.97 83.82 3.8 125.01 3.8 151.02 26.25 160.39 53.23 159.26 74.04 148.03 78.16 127.01 76.51 115.89"/>
                        <polyline points="5.03 127.43 6.8 127.77 13.48 130.72 20.48 130.72 24.19 131.96 30.37 138.96 34.08 150.09 47.67 148.44 56.33 151.32 62.92 147.2 54.68 142.67 52.2 132.78 67.86 122.07 74.04 119.19 85.58 115.89 106.18 115.89 126 107.14 147.01 91.48 153.97 90.35 169.21 96.53 179.92 94.06 192.69 79.22 209.59 68.1 219.47 68.51 243.37 81.69 254.08 92.41 264.38 86.64 286.22 94.47 311.35 108.06 335.24 98.59 347.6 102.3 363.67 93.23 395.39 114.66 424.64 125.37 444.01 118.36 457.19 122.48 482.32 117.13 482.32 216 474.91 210.65 466.26 208.59 454.72 215.59 444.01 225.07 439.06 226.3 429.59 220.12 425.06 220.12 409.81 230.42 404.46 237.43 399.1 242.37 391.27 240.31 386.33 241.14 380.56 245.67 374.79 248.14 367.38 260.09 354.91 255.9 345.54 253.5 342.66 248.55 325.77 239.9 316.29 238.66 308.88 233.72 296.52 234.13 286.63 227.95 275.09 222.6 263.14 225.07 249.55 239.08 243.78 238.25 235.13 233.72 229.77 229.6 224.83 229.19 221.53 225.89 218.4 227.63 186.51 216 143.25 243.2 49.53 234.75 33.39 221.6 4.21 205.91 3.8 196.85"/>
                        <polyline class="cls-1" points="203.2 213.94 189.19 213.53 178.48 218.06 171.48 220.54 163.65 228.78 152.46 224.86 145.31 228.78 135.22 236.6 128.97 236.6 121.63 229.19 116.27 227.95 109.27 222.18 106.38 220.95 101.44 223.01 95.26 228.36 91.14 232.07 87.02 232.07 80.43 228.36 77.89 224.86 73.42 223.01 70.54 221.84 62.3 227.54 55.71 228.36 47.47 223.42 42.52 223.01 36.79 221.98 31.4 218.48 25.63 216.42 21.17 213.53 18.21 208.59 12.86 204.88 9.08 204.88 3.18 204.88 2.97 207.35 2.97 237.84 5.24 237.63 18.01 230.22 29.96 224.86 42.32 233.93 52.82 236.4 64.15 246.29 77.34 243.4 92.58 255.35 96.7 253.7 116.47 258.65 125.54 253.7 131.1 253.7 136.25 250.41 150.67 245.05 156.03 248.76 164.68 254.53 170.03 252.05 177.45 249.17 185.51 241.34 189.4 241.34 190.63 238.66 199.42 232.69 208.35 232.69 213.29 228.98 222.56 225.07"/>
                        <path class="cls-2" d="M50.39,660.32,68.93,648c15.25-9.88,30.57-1.61,37.5-5.76,10.3-6.18,12-4.53,18.12-7.42,14.71-6.9,15.27-16.21,25.13-17.3,9.45-1,12.81,7.06,22.25,6.18,7.91-.74,12.95-8.24,17-14.61a11.62,11.62,0,0,1,3-3.2L202.42,598a16,16,0,0,1,17.22-1.17l24.8,13.61,5.85,7.21a4.61,4.61,0,0,0,6.61.58l3.4-3a5.45,5.45,0,0,1,5.54-1l18.41,7.06,23.83,13.43a5.41,5.41,0,0,0,5.05.14L329.26,627a9.22,9.22,0,0,1,7.19-.39l8.59,3.09a4.44,4.44,0,0,0,4.15-.61l9.93-7.32a6,6,0,0,1,6.84-.17l5.15,3.4" transform="translate(1.19 -527.54)"/>
                        <path class="cls-1" d="M59.87,674.74s-6.18,4.12-7,3.71-7-2.15-9-2.71a2.7,2.7,0,0,0-1.2-.08l-5.09.73-2.45.7a2.3,2.3,0,0,1-2.83-1.51L31,671.45l-1.45-4.72a3,3,0,0,0-.64-1.13l-4.29-4.86-3.12-2.45a3.45,3.45,0,0,0-3.62-.42l-.78.37a3.53,3.53,0,0,1-1.95.3L11,658a5,5,0,0,1-1.87-.65L3,653.73l-1.45-4.12v55.62l1,3.3,3.78,4.94,4.88,6.18,8.64,4.18a3,3,0,0,1,1.72,2.74v1.74A3.44,3.44,0,0,0,22.89,731l2.79,2.27,3.59,5a4,4,0,0,0,1.31,1.17l5,2.8a3,3,0,0,0,1.81.37l5.23-.55a3.73,3.73,0,0,0,2.61-1.49l2.89-4a4,4,0,0,1,1.71-1.34l7-2.87,6-3.51a5.35,5.35,0,0,0,.62-.44l4.63-4a2,2,0,0,1,2-.32l5.89,2.48,10.3,1.24,9.13,4.53,4.38,4.08a3.43,3.43,0,0,0,1.12.69l6,2.28a3,3,0,0,0,3.43-.92l4-4.89,2.82-3.3,7.22-3.75a2.51,2.51,0,0,1,2.78.32l3.32,2.84a2.45,2.45,0,0,0,1.6.59h4.73a4.16,4.16,0,0,0,2.56-.88L155,717.18" transform="translate(1.19 -527.54)"/>
                        <path class="cls-1" d="M1.37,735.1" transform="translate(1.19 -527.54)"/>
                        <polyline class="cls-1" points="372.12 181.4 386.54 187.99 399.31 197.88 411.78 190.25 424.44 194.99 432.04 191.08 434.33 187.58 445.04 180.99 454.51 182.63 456.16 187.58 465.23 194.58 470.99 197.05 476.92 195.77 482.32 187.99 482.32 202.2"/>
                        <polyline class="cls-1" points="275.3 222.6 287.45 228.16 291.94 231.76 298.58 234.75 308.88 233.51 316.02 238.66 325.77 239.69 335.24 244.64 343.89 249.58 345.95 254.11 354.19 255.76 362.02 259.88 367.93 259.88 375.21 247.52 380.15 246.29 384.96 241.55 390.45 240.11 394.98 241.55 398.28 242.58 402.4 240.11 409.4 230.63 419.29 223.21 426.29 219.51 431.65 220.74 435.36 223.63 439.06 225.69 443.6 225.27 447.97 221.84 453.48 215.8 456.37 214.97 466.26 208.38 469.96 210.03 474.91 210.85 478.62 212.91 482.32 216 482.32 201.59 478.2 203.85 472.02 203.03 465.43 200.56 460.49 200.56 456.78 199.73 449.36 193.55 444.42 191.08 437 193.55 431.65 197.26 427.12 204.26 421.76 206.74 411.87 205.91 405.69 203.44 402.51 207.06 398.28 207.97 392.51 218.68 379.33 215.39 370.67 214.15 364.08 216.62 357.49 216.62 350.07 212.09 337.71 210.85 334.42 208.38 327 210.44 318.35 220.33 313.82 219.09 308.88 219.09 296.31 212.3"/>
                        <path class="cls-1" d="M392.14,696.17l9.48,6.59,4.12,1.24,4.94-.42s5.77,2.48,5.77,2.89,4.94,1.23,4.94,1.23l2.48-1.64,2.58-3.71,3.18-2.89,2.48-2.06,9.47-3.7,3.71-5.77,6.18-3.3H459l5.7-9.89,3.71-4.12,7-1.23,4.12-3.3,1.24-1.23V644.67l-11.12,1.65-16.9,3.29-13.22-4.41L428,650.44l-7.42,2.47" transform="translate(1.19 -527.54)"/>
                        <path class="cls-1" d="M440.55,664c1.65-1.65,13-3.29,13-3.29l6.82-4.54,9.88-2.06,6.18-3.7,4.95-2.32" transform="translate(1.19 -527.54)"/>
                        <line class="cls-1" x1="482.12" y1="137.52" x2="482.12" y2="187.99"/>
                        <path class="cls-2" d="M370.92,624.89,392.74,641l0,0,24.27,9.46,0,0L427.36,657h0l19.43,10.52a.19.19,0,0,1,0,.34l-1.66.66H445l-20.93-2H424L408.86,671h-.06l-38.68-.83h0l-19.32,3.28h-.05l-12.31-.82s0,0,0,0l-8.61,1.64h0l-23,.82a.09.09,0,0,1-.07,0L296,671.05h-.1l-15.15,2.05h-.08l-4.44-1.61a.14.14,0,0,0-.11,0L263,674.33H263l-24.43-1.63a.19.19,0,0,0-.19.24l1.93,6.56a.18.18,0,0,1-.14.23L228,682.56a.14.14,0,0,1-.09,0L216,679.69h0l-10.65.82h-.07l-16.21-5.33h-8.89l-24.72-1.24-16-.82-.06,0-8.94-3.68H114.66l-22.24-2.06L68.09,664.9a5,5,0,0,1-.77-.14l-4.08-1-12-3,1.49,7.82a2.22,2.22,0,0,0,.83,1.34l9,6.81a2.18,2.18,0,0,0,1.5.44l3-.25a2.46,2.46,0,0,1,1.94.71l4.13,4.14,4.4,6.23a2.43,2.43,0,0,0,1.47,1l3.87.83a2.68,2.68,0,0,1,1.58,1l5.12,6.72a2.29,2.29,0,0,0,2.27.86l7.95-1.59a2.53,2.53,0,0,1,1.78.31l4.41,2.64a2.91,2.91,0,0,0,2,.38l7.18-1.25a2.54,2.54,0,0,1,2.13.61l2.45,2.21a2.83,2.83,0,0,0,1.76.73l6.36.32a2.6,2.6,0,0,1,1.55.6l5.28,4.4a3.28,3.28,0,0,0,3.24.55L141.4,707a2.13,2.13,0,0,1,2.25.49l5.21,5.21,2.67,2.66a2.74,2.74,0,0,0,1.51.77l12.32,1.86a1.9,1.9,0,0,1,.73.27l5,3.09,9.47,8.65,6.09,5a3.3,3.3,0,0,0,2.1.76h5.62a2.83,2.83,0,0,1,1.72.58l3,2.3,1.4,2a2.78,2.78,0,0,0,1.78,1.11l2.57.43a3.1,3.1,0,0,1,2,1.25l3.73,5.28a3.06,3.06,0,0,0,1.25,1l2.41,1.1a3.13,3.13,0,0,0,2.69,0l.86-.43a1.29,1.29,0,0,1,1.7.52l1.46,2.63,3,2.72a2.57,2.57,0,0,0,1.53.65l3.38.28a1.8,1.8,0,0,1,1.16.58l3.24,3.6,5.18,1.48a1.93,1.93,0,0,1,1,.64l1.15,1.37a2.16,2.16,0,0,0,1.35.75l4.94.71h1.22a2.8,2.8,0,0,0,2-.85l11.79-12.09a2.84,2.84,0,0,1,1.54-.82l7.64-1.39a2.75,2.75,0,0,0,1-.39l7.4-4.81a1.75,1.75,0,0,1,.86-.28l6.24-.35a2.29,2.29,0,0,0,1.28-.46l20.43-15.42a2.84,2.84,0,0,1,1.88-.58l5.78.3a3.78,3.78,0,0,0,1.9-.39l9.82-4.91,7.62-4.72a3.79,3.79,0,0,0,1.51-1.75l1.85-4.21a1.29,1.29,0,0,1,1.78-.63l9.07,4.72,1.25,1a3.19,3.19,0,0,0,2.77.66l3.81-.88,9.47-7.82,9.48-3.71,4.06-3.7a2.63,2.63,0,0,1,1.09-.59l4.68-1.25a3.78,3.78,0,0,0,1.57-.83L398.24,691a3.09,3.09,0,0,1,1.62-.74l6.93-1a3.53,3.53,0,0,0,1.47-.57l8.7-5.87a2.21,2.21,0,0,1,.89-.35l4.57-.74,10.4-5.6a2.61,2.61,0,0,1,.66-.24l6.77-1.35a3.33,3.33,0,0,0,1.86-1.1l4.67-5.57" transform="translate(1.19 -527.54)"/>
                        <path class="cls-1" d="M52,659.5" transform="translate(1.19 -527.54)"/>
                        <path class="cls-1" d="M64.09,644.77" transform="translate(1.19 -527.54)"/>
                    </g>
                </g>
            </g>
        </g>
    </g>
</svg>