<svg id="CONTENT" xmlns="http://www.w3.org/2000/svg" viewBox="0 0 480.18 629.08"><defs><style>.cls-1,.cls-2{stroke:#fff;}.cls-1,.cls-2,.cls-3{stroke-miterlimit:10;stroke-width:2px;}.cls-2,.cls-3{fill:none;}.cls-3{stroke:#000;}</style></defs><g id="SMALL"><g id="NEVERCATCH_SMALL"><g id="JUNCTION_NEVERCATCH_SMALL"><g id="JONCTION_BASSE" data-name="JONCTION BASSE"><g id="Falasie_Droite_Bas" data-name="Falasie Droite Bas"><polygon points="478.78 250.41 478.78 610.41 406.53 533.45 300.78 261.41 478.78 250.41"/><polyline class="cls-1" points="474.78 373.41 465.37 375.87 453.64 373.11 444.8 367.22 433.69 359.8 429.57 364.54 421.75 367.22 413.94 364.95 411.88 358.98 404.47 356.09 388.84 353.62 378.55 358.15 369.7 361.65 354.69 359.8 340.87 351.35 336.2 342.29 330.9 334.05 330.9 327.05 322.58 318.95"/><polyline class="cls-1" points="480.18 610.7 474.31 610.7 468.45 606.79 458.17 600.01 445.58 584.13 429.57 576.99 417.43 571.36 410.39 562.71 406.6 550.07 406.6 533.41 393.98 521.92 389.04 503.38 382.05 483.19 369.7 466.02 369.13 451.47 355.71 429.63 347.48 417.27 345.02 408.62 329.79 395.85 320.33 387.61 315.78 371.54 307.78 366.8 300.37 360.21 287 349.29 279.8 331.37 262.52 325.61 245.85 305.42 247.71 293.88 282.68 257.21 363.58 246.09 472.36 249.63 480.18 249.63"/><polyline class="cls-1" points="480.18 546.9 477.1 546.9 470.51 547.79 463.65 547.79 451.58 542.66 448.91 537.78 427.72 534.57 416.4 535.72 406.6 533.41"/><polyline class="cls-2" points="480.18 463.21 475.24 463.21 468.25 460.74 460.84 457.03 456.73 450.44 449.02 445.2 445.62 433.13 444.38 425.72 432.45 419.54 430.39 411.71 415.92 405.94 399.53 405.94 380.2 398.12 377.73 389.05 364.77 381.98 343.99 376.69 338.43 369.28 331.58 369.99 317.04 359.8 307.57 361.86 305.93 363.92"/><polyline class="cls-2" points="383.61 487.71 395.01 492.05 406.6 492.05 415.99 499.88 440.68 501.52 451.58 497.89 462.28 501.52 470.72 508.12 476.78 510.41 480.18 510.41"/><path class="cls-2" d="M531.37,905.46" transform="translate(-52.22 -529.59)"/></g><g id="Falaise_Gauche_Bas" data-name="Falaise Gauche Bas"><polyline class="cls-1" points="0 628.08 2.78 628.08 11.11 623.06 17.7 617.71 22.84 607.2 25.31 600.01 40.1 596.76 44.24 600.01 64.6 589.28 74.14 572.03 78.39 555.62 81.25 537.71 81.25 526.82 76.07 518 71.39 509.87 68.95 492.94 76.07 471.52 83.53 466.51 88.47 457.97 92.78 443.81 102.97 438.01 114.18 428.67 121.5 416.59 125.09 406.77 128.58 394.61 145.64 387.75 153.89 382.46 160.54 375.87 163.54 367.7 166.65 362.68 174.46 360.21 180.97 356.99 190.35 352.59 195.04 345.38 192.34 336.94 198.33 328.9 201.21 323.96 199.56 315.72 203.27 312.01 210.26 310.77 211.91 302.94 218.15 298 223.43 290.58 166.65 185.94 1.78 266.41 0 266.41"/><path class="cls-1" d="M218.87,892.28l-9.05-2.06-6.36,1-12.09-1L188,885.68,173.54,889l-4.46,6.59L162.31,908l-14.21,2.4L133.47,914l-9.86-3.84-11.72,5.22L109,922.76s-13.17,3.71-14.4,3.71H83l-6.52,3.3-3.91,6.79s-6.92-.61-7.68,0-7.75-2.26-7.75-2.26L54,932H52.23" transform="translate(-52.22 -529.59)"/><polyline class="cls-1" points="92.17 444.26 74.48 450.03 67.55 446.92 55.14 450.03 46.7 451.81 36.28 451.81 31.07 447.81 21.81 445.08 17.08 447.81 13.24 452.19 3.3 459.09 0 459.09"/><polyline class="cls-1" points="76.07 471.52 68.95 477.29 66.25 482.99 65.02 490.4 60.08 496.17 53.49 503.58 53.49 512.99 51.02 522.54 46.7 526.46 41.56 530.78 27.8 534.14 22.22 534.07 16.46 542.31 16.46 550.62 14.61 557.61 9.95 561.32 4.74 561.32 0 561.32"/></g><g id="Socle"><polyline points="480.18 204.41 468.45 204.41 461.46 203.83 457.76 205.07 451.58 212.07 441.78 212.41 434.3 221.55 432.78 214.41 432.78 211.41 427.31 215.78 429.78 205.89 414.14 195.18 407.97 192.3 396.45 189 375.88 189 356.07 180.25 335.09 164.59 328.15 163.46 312.92 169.64 302.22 167.16 289.47 152.33 272.6 141.21 262.72 141.62 238.86 154.8 228.16 165.52 217.87 159.75 196.07 167.58 170.97 181.17 147.1 171.7 134.76 175.4 118.71 166.34 87.03 187.76 57.81 198.47 38.48 191.47 25.31 195.59 0 190.41 0 289.11 112.95 336.08 219.11 298.18 232.78 311.41 238.78 310.41 246.78 305.41 295.64 289.11 338.84 316.31 455.29 350.09 480.18 354.41"/><polyline class="cls-1" points="480.18 309.95 476.68 309.95 463.93 302.33 452 296.97 439.65 306.04 429.16 308.51 417.84 318.39 404.68 315.51 389.45 327.46 385.34 325.81 365.59 330.75 356.54 325.81 350.98 325.81 345.84 322.51 331.44 317.16 326.09 320.87 317.45 326.63 312.1 324.16 304.69 321.28 296.65 313.45 292.76 313.45 291.52 310.77 282.75 304.8 273.83 304.8 268.89 301.09 259.64 297.18"/><polyline class="cls-1" points="278.98 286.05 292.96 285.64 303.66 290.17 310.66 292.64 318.48 300.88 329.65 296.97 336.79 300.88 346.87 308.71 353.11 308.71 360.44 301.3 365.79 300.06 372.79 294.29 375.67 293.06 380.61 295.12 386.78 300.47 390.89 304.18 395.01 304.18 401.59 300.47 404.13 296.97 408.59 295.12 411.47 293.95 419.7 299.65 426.28 300.47 434.51 295.53 439.45 295.12 445.17 294.09 450.56 290.58 456.32 288.53 460.77 285.64 463.72 280.7 469.07 276.99 472.84 276.99 480.18 276.99"/><path class="cls-2" d="M482.62,734.48,464.1,722.12c-15.22-9.88-30.52-1.61-37.44-5.76-10.29-6.18-12-4.54-18.11-7.42-14.68-6.9-15.24-16.22-25.1-17.3-9.42-1-12.79,7.06-22.22,6.18-7.89-.74-12.93-8.24-16.93-14.61a11.62,11.62,0,0,0-3-3.2l-10.55-7.82a16,16,0,0,0-17.2-1.17l-24.76,13.61L283,691.84a4.6,4.6,0,0,1-6.6.58l-3.39-3a5.46,5.46,0,0,0-5.53-1l-18.39,7.07L225.26,709a5.39,5.39,0,0,1-5,.14l-16.11-7.92a9.24,9.24,0,0,0-7.18-.4l-8.58,3.1a4.44,4.44,0,0,1-4.15-.61L174.29,696a6,6,0,0,0-6.84-.17l-5.14,3.4" transform="translate(-52.22 -529.59)"/><path class="cls-1" d="M532.4,782.69h-4.5L523,786l-1.3,7.81L513.07,798a3,3,0,0,0-1.72,2.74v1.74a3.44,3.44,0,0,1-1.27,2.67l-2.78,2.27-3.59,5a4,4,0,0,1-1.3,1.17l-5,2.8a3.08,3.08,0,0,1-1.81.37l-5.22-.55a3.69,3.69,0,0,1-2.6-1.5l-2.89-3.94a4,4,0,0,0-1.71-1.34l-7-2.87-6-3.52a3.81,3.81,0,0,1-.62-.43l-4.62-4a2,2,0,0,0-2-.32l-5.87,2.48-10.29,1.24-9.12,4.53-4.38,4.08a3.39,3.39,0,0,1-1.12.69l-6,2.28a3,3,0,0,1-3.42-.92l-4-4.89-2.81-3.3-7.21-3.75a2.52,2.52,0,0,0-2.79.32l-3.3,2.84a2.47,2.47,0,0,1-1.6.59H396.4a4.15,4.15,0,0,1-2.55-.88l-15.75-12.3" transform="translate(-52.22 -529.59)"/><path class="cls-1" d="M483,741c.69-.35,4.12,9.46,6.09,8.89a3,3,0,0,1,1.2-.08L490,747l1-4c1.2.34,3.62.19,4-1l5-2,3.41.88a3,3,0,0,1,.63-1.13l4.29-4.86,3.11-2.45a3.47,3.47,0,0,1,3.62-.41l.78.37a3.51,3.51,0,0,0,1.94.3l4.16-.56a4.84,4.84,0,0,0,1.87-.64l6.12-3.61,1.44-4.12" transform="translate(-52.22 -529.59)"/><path class="cls-1" d="M531.58,809.26" transform="translate(-52.22 -529.59)"/><polyline class="cls-1" points="110.28 253.51 95.88 260.1 83.12 269.99 70.66 262.36 58.02 267.1 50.43 263.19 48.15 259.69 37.45 253.09 27.98 254.74 26.34 259.69 17.29 266.69 11.53 269.16 5.6 267.41 0 267.41"/><polyline class="cls-1" points="0 275.14 10.5 275.14 17.08 272.66 22.02 272.66 25.72 271.84 33.13 265.66 38.06 263.19 45.47 265.66 50.82 269.37 55.35 276.37 60.7 278.84 70.57 278.02 76.74 275.55 79.92 279.17 84.15 280.08 90.78 287.41 103.08 287.5 111.72 286.26 118.3 288.73 124.88 288.73 132.29 284.2 144.63 282.96 147.93 280.49 155.33 282.55 163.97 292.44 168.5 291.2 173.44 291.2 185.99 284.41"/><polyline class="cls-1" points="206.97 294.7 194.83 300.27 190.35 303.87 183.72 306.86 173.44 305.62 166.3 310.77 156.56 311.8 147.1 316.75 138.46 321.69 136.4 326.22 128.18 327.87 120.36 331.99 114.46 331.99 107.19 319.63 102.25 318.39 97.45 313.66 91.97 312.21 87.44 313.66 84.15 314.69 80.03 312.21 73.04 302.74 63.16 295.32 56.17 291.62 50.82 292.85 47.12 295.74 43.41 297.8 38.89 297.38 34.52 293.95 29.01 287.91 26.13 287.08 16.26 280.49 12.55 282.14 7.62 282.96 3.91 285.02 0 285.02"/><path class="cls-2" d="M433.36,770.93a2.5,2.5,0,0,0-1.77.31l-4.41,2.64a2.89,2.89,0,0,1-2,.38L418,773a2.53,2.53,0,0,0-2.12.61l-2.46,2.21a2.84,2.84,0,0,1-1.75.73l-6.35.31a2.56,2.56,0,0,0-1.54.61l-5.28,4.4a3.28,3.28,0,0,1-3.24.55l-3.52-1.32a2.11,2.11,0,0,0-2.25.49l-5.2,5.21-2.67,2.66a2.68,2.68,0,0,1-1.51.77l-12.3,1.86a1.9,1.9,0,0,0-.73.27l-5,3.09-9.47,8.65-6.08,5a3.28,3.28,0,0,1-2.1.76h-5.6a2.81,2.81,0,0,0-1.72.58l-3,2.3-1.4,2a2.74,2.74,0,0,1-1.78,1.11l-2.56.43a3,3,0,0,0-2,1.25l-3.72,5.28a3.13,3.13,0,0,1-1.25,1l-2.41,1.1a3.11,3.11,0,0,1-2.68,0l-.86-.43a1.28,1.28,0,0,0-1.7.52l-1.46,2.63-3,2.72a2.67,2.67,0,0,1-1.53.65l-3.37.28a1.8,1.8,0,0,0-1.16.58l-3.23,3.6-5.18,1.48a2,2,0,0,0-1,.63l-1.14,1.37a2.17,2.17,0,0,1-1.35.76l-4.94.7h-1.22a2.81,2.81,0,0,1-2-.84l-11.77-12.1a2.82,2.82,0,0,0-1.54-.81l-7.63-1.39a2.78,2.78,0,0,1-1-.39l-7.4-4.81a1.72,1.72,0,0,0-.85-.28l-6.24-.35a2.34,2.34,0,0,1-1.27-.46L225.05,803.5a2.87,2.87,0,0,0-1.88-.57l-5.77.3a3.78,3.78,0,0,1-1.9-.39l-9.8-4.91-7.61-4.72a3.87,3.87,0,0,1-1.52-1.75l-1.84-4.21a1.28,1.28,0,0,0-1.77-.63l-9.07,4.72-1.25,1a3.17,3.17,0,0,1-2.76.66l-3.8-.88-9.47-7.83-9.46-3.7-4.06-3.7a2.66,2.66,0,0,0-1.08-.59l-4.68-1.25a3.9,3.9,0,0,1-1.57-.83l-10.54-9.09a3.09,3.09,0,0,0-1.62-.74l-6.92-1a3.53,3.53,0,0,1-1.47-.57L116.52,757a2.16,2.16,0,0,0-.89-.35l-4.57-.74-10.38-5.6a2.61,2.61,0,0,0-.66-.24l-6.76-1.36a3.22,3.22,0,0,1-1.86-1.1l-4.66-5.56" transform="translate(-52.22 -529.59)"/><path class="cls-2" d="M323,745l21.13,4.32H353l24.68-1.23,16-.82.06,0,8.92-3.68h15.75l22.21-2.06,24.3-2.44a5.39,5.39,0,0,0,.77-.13l4.06-1,12-3-1.48,7.83a2.23,2.23,0,0,1-.84,1.34l-8.94,6.81a2.19,2.19,0,0,1-1.5.43l-3-.24a2.46,2.46,0,0,0-1.94.71L460,755.91l-4.4,6.23a2.45,2.45,0,0,1-1.46,1l-3.86.83a2.67,2.67,0,0,0-1.59,1l-5.11,6.72" transform="translate(-52.22 -529.59)"/><path class="cls-2" d="M317.24,753.85" transform="translate(-52.22 -529.59)"/><path class="cls-1" d="M481,733.66" transform="translate(-52.22 -529.59)"/><path class="cls-1" d="M468.93,718.93" transform="translate(-52.22 -529.59)"/></g><g id="Socle_dessus" data-name="Socle dessus"><polygon class="cls-1" points="93.61 88.3 113.57 73.05 128.18 69.76 136.4 51.63 145.66 51.63 159.86 58.02 171.38 48.75 182.08 32.68 197.3 28.97 206.97 18.05 213.35 1.37 231.99 10.22 250.38 40.51 259.64 37.01 279.18 40.09 292.35 57.4 315.39 57.4 331.23 73.05 350.98 77.59 362.5 80.68 378.96 117.96 266.63 169.46 131.88 165.75 93.61 88.3"/><path class="cls-1" d="M532.4,667.74H512.45L466.77,678l-47.73.82s-30.72-22.5-30-22.78-11-11.41-11-11.41L393.53,636l9.67-15.32,18.31-4.94,13.79,9.13,19.44-5.28,7.42-3.45a20.89,20.89,0,0,1,14-1.28l14.65,3.77.46.14,7.17,2.39a8.08,8.08,0,0,0,7-.89l4-2.59a8.16,8.16,0,0,1,4.38-2.46l7.13-1.43H532.4" transform="translate(-52.22 -529.59)"/><path class="cls-1" d="M66.83,620.77l7.41-11.53L93,607.18l9.88,4.19,10.49-6.66,11.11,9.88,8.23-4.53,8.23-.82L152,602.65l18.51,10.71,10.7-.41,16.25,11.94,14.61,33.37-40.74,19L99.27,687.93s-17.62-44.5-18.45-45.32S66.83,620.77,66.83,620.77Z" transform="translate(-52.22 -529.59)"/><polyline class="cls-1" points="0 157.41 50.61 157.22 71.39 145.98 75.51 124.97 73.86 113.84 58.23 102.72 44.24 103.75 41.77 99.83 34.41 93.49 29.84 83.77 20.37 88 10.5 82.94 4.78 81.77 0 81.77"/><polyline points="0.41 124.41 10.91 128.67 17.9 128.67 21.61 129.91 27.78 136.91 31.48 148.04 45.06 146.39 53.7 149.27 60.28 145.15 52.05 140.62 49.59 130.73 65.22 120.02 71.39 117.14 82.91 113.84 103.49 113.84 123.29 105.09 144.27 89.44 151.22 88.3 166.44 94.48 177.14 92.01 189.89 77.17 206.76 66.05 216.64 66.46 240.5 79.65 251.2 90.36 261.49 84.59 283.3 92.42 308.39 106.01 332.26 96.54 344.6 100.25 360.65 91.18 392.33 112.61 421.55 123.32 440.89 116.31 454.05 120.43 479.15 115.08 479.78 211.41 471.75 208.6 463.11 206.54 451.58 213.54 440.89 223.02 435.95 224.25 426.49 218.07 421.96 218.07 406.74 228.38 401.39 235.38 396.04 240.32 388.22 238.26 383.28 239.09 377.52 243.62 371.76 246.09 364.35 258.04 351.9 253.85 342.55 251.45 339.67 246.5 322.8 237.85 313.33 236.62 305.93 231.67 293.58 232.08 283.71 225.9 272.19 220.55 260.25 223.02 246.68 237.03 240.91 236.2 232.28 231.67 226.93 227.55 221.99 227.14 218.7 223.84 215.57 225.58 183.72 213.96 140.52 241.15 46.91 232.7 30.79 219.55 0.41 203.41"/><polyline points="0 124.41 10.9 128.67 17.9 128.67 21.6 129.91 27.77 136.91 31.48 148.04 45.05 146.39 53.69 149.27 60.28 145.15 52.05 140.62 49.58 130.73 65.22 120.02 71.39 117.14 82.91 113.84 103.48 113.84 123.28 105.09 144.27 89.44 151.21 88.3 166.44 94.48 177.13 92.01 189.89 77.17 206.76 66.05 216.63 66.46 240.5 79.65 251.2 90.36 261.48 84.59 283.29 92.42 308.39 106.01 332.25 96.54 344.6 100.25 360.64 91.18 392.33 112.61 421.54 123.32 440.88 116.31 454.05 120.43 480.18 115.08 480.18 208.41 471.74 208.6 463.1 206.54 451.58 213.54 440.88 223.02 435.94 224.25 426.48 218.07 421.95 218.07 406.73 228.38 401.38 235.38 396.03 240.32 388.21 238.26 383.28 239.09 377.51 243.62 371.75 246.09 364.35 258.04 351.9 253.85 342.54 251.45 339.66 246.5 322.79 237.85 313.33 236.62 305.92 231.67 293.58 232.08 283.7 225.9 272.18 220.55 260.25 223.02 246.67 237.03 240.91 236.2 232.27 231.67 226.92 227.55 221.98 227.14 218.69 223.84 215.56 225.58 183.72 213.96 140.51 241.15 46.91 232.7 30.79 219.55 0 203.41"/><polyline points="200.39 211.9 186.4 211.48 175.7 216.01 168.7 218.49 160.89 226.73 149.71 222.81 142.58 226.73 132.5 234.56 126.25 234.56 118.92 227.14 113.57 225.9 106.57 220.13 103.69 218.9 98.75 220.96 92.58 226.31 88.47 230.02 84.35 230.02 77.77 226.31 75.23 222.81 70.78 220.96 67.89 219.79 59.67 225.49 53.08 226.31 44.85 221.37 39.92 220.96 34.19 219.93 28.81 216.43 23.05 214.37 18.59 211.48 15.64 206.54 8.78 205.41 5.78 203.41 3.38 202.83 0 202.83 0.41 216.85 0 235.79 2.68 235.79 15.43 228.17 27.37 222.81 39.71 231.88 50.2 234.35 61.52 244.24 74.68 241.35 89.91 253.3 94.02 251.65 113.77 256.6 122.83 251.65 128.38 251.65 133.52 248.36 147.93 243 153.27 246.71 161.91 252.48 167.26 250 174.67 247.12 182.72 239.29 186.6 239.29 187.84 236.62 196.62 230.64 205.53 230.64 210.47 226.93 219.72 223.02"/><polyline class="cls-2" points="0 235.79 2.68 235.79 15.43 228.17 27.37 222.81 39.71 231.88 50.2 234.35 61.52 244.24 74.68 241.35 89.91 253.3 94.02 251.65 113.77 256.6 122.83 251.65 128.38 251.65 133.52 248.36 147.93 243 153.27 246.71 161.91 252.48 167.26 250 174.67 247.12 182.72 239.29 186.6 239.29 187.84 236.62 196.62 230.64 205.53 230.64 210.47 226.93 219.72 223.02"/><polyline class="cls-2" points="200.39 211.9 186.4 211.48 175.7 216.01 168.7 218.49 160.89 226.73 149.71 222.81 142.58 226.73 132.5 234.56 126.25 234.56 118.92 227.14 113.57 225.9 106.57 220.13 103.69 218.9 98.75 220.96 92.58 226.31 88.47 230.02 84.35 230.02 77.77 226.31 75.23 222.81 70.78 220.96 67.89 219.79 59.67 225.49 53.08 226.31 44.85 221.37 39.92 220.96 34.19 219.93 28.81 216.43 23.05 214.37 18.59 211.48 15.64 206.54 8.78 205.41 5.78 203.41 3.38 202.83 0 202.83"/><path class="cls-2" d="M101.19,660.32,119.71,648c15.22-9.88,30.52-1.61,37.44-5.76,10.29-6.18,12-4.53,18.1-7.42,14.69-6.9,15.25-16.21,25.1-17.3,9.43-1,12.79,7.06,22.22,6.18,7.9-.74,12.94-8.24,16.94-14.61a11.58,11.58,0,0,1,3-3.2L253,598a16,16,0,0,1,17.2-1.17L295,610.47l5.84,7.21a4.6,4.6,0,0,0,6.6.58l3.4-3a5.44,5.44,0,0,1,5.53-1l18.38,7.06,23.8,13.43a5.41,5.41,0,0,0,5,.14L379.7,627a9.19,9.19,0,0,1,7.18-.39l8.57,3.09a4.44,4.44,0,0,0,4.15-.61l9.91-7.32a6,6,0,0,1,6.84-.17l5.14,3.4" transform="translate(-52.22 -529.59)"/><path class="cls-1" d="M52.23,708.53H56L59,711l3.1,8.65,8.64,4.18a3.06,3.06,0,0,1,1.72,2.74v1.74A3.41,3.41,0,0,0,73.73,731l2.77,2.27,3.6,5a3.84,3.84,0,0,0,1.3,1.17l5,2.8a3,3,0,0,0,1.8.37l5.23-.55a3.71,3.71,0,0,0,2.6-1.49l2.89-4a4,4,0,0,1,1.71-1.34l7-2.87,6-3.51a4.51,4.51,0,0,0,.61-.44l4.63-4a2,2,0,0,1,2-.32l5.88,2.48L137,727.89l9.12,4.53,4.37,4.08a3.43,3.43,0,0,0,1.12.69l6,2.28a3,3,0,0,0,3.42-.92l4-4.89,2.81-3.3,7.21-3.75a2.51,2.51,0,0,1,2.78.32l3.31,2.84a2.45,2.45,0,0,0,1.6.59h4.72a4.16,4.16,0,0,0,2.56-.88l15.74-12.3" transform="translate(-52.22 -529.59)"/><path class="cls-1" d="M110.65,674.74s-6.17,4.12-7,3.71-7-2.15-8.94-2.71a2.71,2.71,0,0,0-1.2-.08l-5.09.73-2.44.7a2.29,2.29,0,0,1-2.83-1.51l-1.31-4.13-1.45-4.72a3,3,0,0,0-.63-1.13l-4.3-4.86-3.11-2.45a3.45,3.45,0,0,0-3.62-.42l-.78.37a3.48,3.48,0,0,1-1.94.3L61.86,658a5,5,0,0,1-1.86-.65l-6.13-3.61H52.23" transform="translate(-52.22 -529.59)"/><path class="cls-1" d="M52.23,735.1" transform="translate(-52.22 -529.59)"/><polyline class="cls-1" points="369.09 179.35 383.49 185.94 396.24 195.83 408.7 188.21 421.34 192.94 428.93 189.03 431.22 185.53 441.92 178.94 451.38 180.58 453.02 185.53 462.08 192.53 467.84 195 473.76 193.72 480.18 193.72"/><polyline id="T" points="272.39 220.55 284.53 226.11 289.02 229.71 295.64 232.7 305.93 231.47 313.06 236.62 322.8 237.65 332.26 242.59 340.9 247.53 342.96 252.06 351.19 253.71 359 257.83 364.9 257.83 372.17 245.47 377.11 244.24 381.91 239.5 387.4 238.06 391.92 239.5 395.21 240.53 399.33 238.06 406.32 228.58 416.2 221.16 423.19 217.46 428.54 218.69 432.25 221.58 435.95 223.64 440.48 223.22 444.84 219.79 450.35 213.75 453.23 212.93 463.11 206.33 466.81 207.98 471.75 208.81 475.45 210.87 480.18 210.87 480.18 199.53 475.04 201.8 468.87 200.98 462.28 198.5 457.35 198.5 453.64 197.68 446.24 191.5 441.3 189.03 433.89 191.5 428.54 195.21 424.02 202.21 418.67 204.69 408.79 203.86 402.62 201.39 399.44 205.01 395.21 205.92 389.45 216.63 376.29 213.34 367.65 212.1 361.06 214.57 354.48 214.57 347.07 210.04 334.73 208.81 331.44 206.33 324.03 208.39 315.39 218.28 310.86 217.04 305.93 217.04 293.38 210.25"/><polyline id="T-2" data-name="T" class="cls-2" points="480.18 201.8 475.04 201.8 468.87 200.98 462.28 198.5 457.35 198.5 453.64 197.68 446.24 191.5 441.3 189.03 433.89 191.5 428.54 195.21 424.02 202.21 418.67 204.69 408.79 203.86 402.62 201.39 399.44 205.01 395.21 205.92 389.45 216.63 376.29 213.34 367.65 212.1 361.06 214.57 354.48 214.57 347.07 210.04 334.73 208.81 331.44 206.33 324.03 208.39 315.39 218.28 310.86 217.04 305.93 217.04 293.38 210.25"/><polyline id="T-3" data-name="T" class="cls-2" points="272.39 220.55 284.53 226.11 289.02 229.71 295.64 232.7 305.93 231.47 313.06 236.62 322.8 237.65 332.26 242.59 340.9 247.53 342.96 252.06 351.19 253.71 359 257.83 364.9 257.83 372.17 245.47 377.11 244.24 381.91 239.5 387.4 238.06 391.92 239.5 395.21 240.53 399.33 238.06 406.32 228.58 416.2 221.16 423.19 217.46 428.54 218.69 432.25 221.58 435.95 223.64 440.48 223.22 444.84 219.79 450.35 213.75 453.23 212.93 463.11 206.33 466.81 207.98 471.75 208.81 475.45 210.87 480.18 210.87"/><polyline class="cls-1" points="480.18 115.08 472.78 115.08 467.63 116.72 450.76 120.02 437.55 115.6 426.07 120.84 418.67 123.32"/><path class="cls-1" d="M442.5,696.17l9.46,6.59,4.12,1.24,4.93-.42s5.76,2.48,5.76,2.89,4.94,1.23,4.94,1.23l2.47-1.64,2.58-3.71,3.18-2.89,2.47-2.06,9.46-3.7,3.71-5.77,6.17-3.3h7.47l5.7-9.89,3.7-4.12,7-1.23,4.12-2.39h2.67" transform="translate(-52.22 -529.59)"/><path class="cls-1" d="M490.85,664c1.64-1.65,12.93-3.29,12.93-3.29l6.82-4.54,9.87-2.06,6.17-3.7h5.76" transform="translate(-52.22 -529.59)"/><path class="cls-1" d="M531.17,715.53" transform="translate(-52.22 -529.59)"/><path class="cls-1" d="M531.17,665.06" transform="translate(-52.22 -529.59)"/><path class="cls-2" d="M421.31,624.89,443.1,641l0,0,24.23,9.46,0,0L477.67,657h0l19.4,10.52a.19.19,0,0,1,0,.34l-1.65.66h-.08l-20.91-2h-.07L459.19,671h-.06l-38.63-.83h0l-19.3,3.28h-.05l-12.29-.82s0,0-.05,0l-8.6,1.64h0l-23,.82a.11.11,0,0,1-.08,0l-10.61-4.09h-.1l-15.13,2.05h-.09l-4.43-1.61a.12.12,0,0,0-.1,0l-13.09,2.87h0l-24.4-1.63a.19.19,0,0,0-.19.24l1.93,6.56a.18.18,0,0,1-.14.23l-12.11,2.83a.11.11,0,0,1-.08,0l-11.86-2.87h-.06l-10.63.82h-.08l-16.18-5.33H230.8l-24.69-1.24-16-.82-.06,0-8.92-3.68H165.37l-22.21-2.06-24.3-2.43a5,5,0,0,1-.77-.14l-4.07-1-12-3,1.49,7.82a2.22,2.22,0,0,0,.83,1.34l9,6.81a2.18,2.18,0,0,0,1.5.44l3-.25a2.46,2.46,0,0,1,1.94.71l4.13,4.14,4.39,6.23a2.43,2.43,0,0,0,1.47,1l3.86.83a2.68,2.68,0,0,1,1.58,1l5.12,6.72a2.27,2.27,0,0,0,2.26.86l7.94-1.59a2.53,2.53,0,0,1,1.78.31l4.4,2.64a2.92,2.92,0,0,0,2,.38l7.18-1.25a2.53,2.53,0,0,1,2.12.61l2.45,2.21a2.78,2.78,0,0,0,1.75.73l6.35.32a2.6,2.6,0,0,1,1.55.6l5.27,4.4a3.3,3.3,0,0,0,3.25.55l3.51-1.32a2.14,2.14,0,0,1,2.26.49l5.2,5.21,2.66,2.66a2.74,2.74,0,0,0,1.51.77l12.3,1.86a1.94,1.94,0,0,1,.74.27l5,3.09,9.46,8.65,6.08,5a3.3,3.3,0,0,0,2.1.76H245a2.83,2.83,0,0,1,1.72.58l3,2.3,1.4,2a2.74,2.74,0,0,0,1.77,1.11l2.57.43a3.1,3.1,0,0,1,2,1.25l3.72,5.28a3,3,0,0,0,1.25,1l2.4,1.1a3.13,3.13,0,0,0,2.69,0l.86-.43a1.29,1.29,0,0,1,1.7.52l1.46,2.63,3,2.72a2.6,2.6,0,0,0,1.53.65l3.37.28a1.78,1.78,0,0,1,1.16.58l3.24,3.6,5.18,1.48a2,2,0,0,1,1,.64l1.14,1.37a2.16,2.16,0,0,0,1.35.75l4.94.71h1.22a2.79,2.79,0,0,0,2-.85l11.78-12.09a2.78,2.78,0,0,1,1.53-.82l7.63-1.39a2.75,2.75,0,0,0,1-.39l7.39-4.81a1.75,1.75,0,0,1,.86-.28l6.24-.35a2.26,2.26,0,0,0,1.27-.46l20.4-15.42a2.84,2.84,0,0,1,1.88-.58l5.78.3a3.74,3.74,0,0,0,1.89-.39l9.8-4.91,7.61-4.72a3.81,3.81,0,0,0,1.52-1.75l1.84-4.21a1.29,1.29,0,0,1,1.78-.63l9.06,4.72,1.25,1a3.17,3.17,0,0,0,2.76.66l3.81-.88,9.46-7.82,9.47-3.71,4-3.7a2.63,2.63,0,0,1,1.09-.59l4.67-1.25a3.88,3.88,0,0,0,1.58-.83L448.58,691a3.12,3.12,0,0,1,1.63-.74l6.92-1a3.58,3.58,0,0,0,1.47-.57l8.68-5.87a2.21,2.21,0,0,1,.89-.35l4.57-.74,10.39-5.6a2.48,2.48,0,0,1,.66-.24l6.76-1.35a3.31,3.31,0,0,0,1.85-1.1l4.66-5.57" transform="translate(-52.22 -529.59)"/><path class="cls-1" d="M102.84,659.5" transform="translate(-52.22 -529.59)"/><path class="cls-1" d="M114.87,644.77" transform="translate(-52.22 -529.59)"/></g></g></g></g></g><path class="cls-3" d="M52.7,612.37" transform="translate(-52.22 -529.59)"/></svg>