<svg id="CONTENT"
    xmlns="http://www.w3.org/2000/svg" viewBox="0 0 1058.74 1515.9">
    <defs>
        <style>.cls-1,.cls-2{fill:#ffb731;}.cls-2,.cls-3{stroke:#000;stroke-miterlimit:10;stroke-width:5px;}.cls-3{fill:none;}</style>
    </defs>
    <g id="TITLE_PARCHEMIN" data-name="TITLE PARCHEMIN">
        <polygon class="cls-1" points="129.05 47.57 231.27 43.62 378.38 43.62 585.49 45.6 679.72 43.62 809.72 46.07 826.34 26.94 883.72 30.07 920.59 37.35 930.39 49.63 933.43 81.68 129.05 90.85 121.7 65.2 123.38 47.57 129.05 47.57"/>
        <path class="cls-2" d="M173.06,1116c1.93,3.1,6.87,4.08,8,5,8.45,6.91,28.65.77,41,2,20,2,32.42-8.9,46-10,1.05-.09,1.52-1.24,3-3,1.71-2,1.49-2.41,0-13-1-7.24,1-8.29.5-9.5-3.23-7.45-12.71-10.53-28-13-17.76-2.87-28-4.51-45-3-25.33,2.25-55.15,10.56-72,22a323.89,323.89,0,0,1-32,19c-1.37.7-1.76.88-2,1-12.73,5.93-25.67,2.86-35-1,2.26,4,13,22.26,30.5,23.5,6.14.44,11-1.37,18-4,15-5.7,22.37-12.62,32-19,21.37-14.17,42.55-18,43-17,.59,1.37-33.81,15-63,40a110.88,110.88,0,0,0-22,25c-4,6.29-11.74,18.63-10,20,3.58,2.84,35.84-50.53,83-52,1.66,0,3,0,4,0v-15.5" transform="translate(-51.84 -1068.43)"/>
        <path class="cls-1" d="M179,1159.28l2,62.76,5.09,7,9,4,15,1,45-2,45-1,44-3,56-3,34-1,34,2,42,7,28,4h28.83l41.17-4s35-2,36-2,32-1,32-1l31,1,26,1,33.83,1.93,36.17-2.93,34-1h37l37.66,4.31,26.18,1.4,35.15-6.89,15.69-34.55L987.06,1175l-3-26H878l-432.94,2-193,1Z" transform="translate(-51.84 -1068.43)"/>
        <path class="cls-3" d="M272.06,1098c-18.54-1.32-35.5,8.72-50,6-17.77-3.33-33.38,4.39-45,10a26.5,26.5,0,0,1-6,2" transform="translate(-51.84 -1068.43)"/>
        <path class="cls-2" d="M269.06,1112c24,1,117-4.82,148-5,4.64,0,9,0,9,0,25.58.16,44.42,1.6,50,2,27.69,2,90.69,4.28,159-1,5.16-.4,9.37-.76,12-1H762.67l102.22,2.56,53.17,5.45,63-1-.62-1.52a11.1,11.1,0,0,0-8-6.7l-34.84-7.25a18.56,18.56,0,0,0-5.1-.35l-39.26,2.67a8.82,8.82,0,0,1-4.15-.72l-13.52-5.91a.28.28,0,0,1,0-.5l13.9-8.5a13.05,13.05,0,0,1,7.88-1.87l31.76,2.65,80.63,11.68a26.32,26.32,0,0,1,4.63,1.06l59.95,19.36a18,18,0,0,1,5.14,2.64l20.65,15.26-24.65-5-.38-.07-53.31-7.2a1,1,0,0,0-.59,1.85l23.93,12.38,9.85,5.57a102.41,102.41,0,0,1,23.59,18.33l12.56,13.1-30-13-32-11-24.84-7.64a17.34,17.34,0,0,0-2.37-.55L984.06,1140l-2-24" transform="translate(-51.84 -1068.43)"/>
        <path class="cls-3" d="M672.06,1232.5" transform="translate(-51.84 -1068.43)"/>
        <path class="cls-3" d="M173.06,1222" transform="translate(-51.84 -1068.43)"/>
        <path class="cls-3" d="M173.06,1130.5" transform="translate(-51.84 -1068.43)"/>
        <line class="cls-3" x1="817.22" y1="40.57" x2="824.22" y2="24.57"/>
        <path class="cls-3" d="M173.06,1129l5,27c.68,3.51,1.55,20.47,1,24l1,42c0,7.24,13.76,11.76,21,12,37.06,1.2,130.09-3.91,198-8,83-5,115,14,152,12s109-7.25,121-7c42.83.89,102.62,3.19,96,3l89.19-3.42a37,37,0,0,1,3.94.06l71.82,5.21h0a26.34,26.34,0,0,0,7-.49l27-5.36c3.65-.08,9.13-1.45,10-5l10.66-25.46a54.77,54.77,0,0,0,1.22-19.3L984.06,1140" transform="translate(-51.84 -1068.43)"/>
    </g>
</svg>