<svg id="Portail"
    xmlns="http://www.w3.org/2000/svg" viewBox="0 0 1175 2031">
    <rect id="FOND" x="2.5" y="2.5" width="1170" height="2026" style="fill:#1d1d1b;stroke:#1d1d1b;stroke-miterlimit:10;stroke-width:5px"/>
    <polygon id="Background_white" data-name="Background white" points="559.09 360.72 523.37 369.17 497.31 379.43 478.6 389.17 455.26 404.69 437.83 420.83 418.63 439.86 402.17 462.54 394.33 482.07 388 505.17 381.8 545.85 380.67 601.08 381.17 629 387.64 628.92 394.58 648.03 390.11 648.11 390.02 684.48 381.89 692.5 389.83 1356.75 399.62 1365.83 400.72 1397.11 778.61 1399.37 779.2 1372.81 789.94 1360.72 798.72 692.5 790.06 684.83 790.59 647.94 787.45 646.61 791.42 632.22 801.88 632.22 799.73 557.52 796.94 533.83 790.5 500.5 782.06 469.08 745.28 422.18 700.45 388.43 665.24 372 628.67 362.67 617.67 360.27 615.5 378.08 564.25 378.42 559.09 360.72" style="fill:#fff"/>
    <g id="Portal">
        <polygon points="553.58 246.28 623 246.28 615.33 376.75 563.33 376.75 553.58 246.28" style="fill:none;stroke:#fff;stroke-miterlimit:10;stroke-width:5px"/>
        <path d="M551.08,251.67S340,289.13,284.44,441c0,0-14.82,71.25-9.09,194" transform="translate(2.5 2.5)" style="fill:none;stroke:#fff;stroke-miterlimit:10;stroke-width:5px"/>
        <path d="M620.5,252.33S829.39,289.67,884.39,441c0,0,14.67,71,9,193.33" transform="translate(2.5 2.5)" style="fill:none;stroke:#fff;stroke-miterlimit:10;stroke-width:5px"/>
        <path d="M558.51,328.43S433.55,358.14,387.3,431c-21.23,33.44-26.11,140.44-24.46,199.72" transform="translate(2.5 2.5)" style="fill:none;stroke:#fff;stroke-miterlimit:10;stroke-width:5px"/>
        <path d="M617,328.43S742.13,358.34,788.45,431.7c21.25,33.66,26.14,141.39,24.49,201.07" transform="translate(2.5 2.5)" style="fill:none;stroke:#fff;stroke-miterlimit:10;stroke-width:5px"/>
        <path d="M560.52,357.77S452,366.14,393,471.17c0,0-18,38.13-16.67,159.55" transform="translate(2.5 2.5)" style="fill:none;stroke:#fff;stroke-miterlimit:10;stroke-width:5px"/>
        <path d="M615.17,357.77S723.68,366.2,782.68,472c0,0,18,38.42,16.67,160.75" transform="translate(2.5 2.5)" style="fill:none;stroke:#fff;stroke-miterlimit:10;stroke-width:5px"/>
        <path d="M270.83,632.77l2.62-.09,107.32-3.87,4-.14c2.26,7.66,4.34,14.5,4.34,14.5L272.22,647Z" transform="translate(2.5 2.5)" style="fill:none;stroke:#fff;stroke-miterlimit:10;stroke-width:5px"/>
        <polyline points="277.83 649.39 276.53 690.72 378.77 690.72 378.77 645.94" style="fill:none;stroke:#fff;stroke-miterlimit:10;stroke-width:5px"/>
        <polyline points="387.64 648.03 387.57 683.49 379.5 691.44 381.65 871.5 387.52 1363.84 387.64 1373.83 379.39 1396.06" style="fill:none;stroke:#fff;stroke-miterlimit:10;stroke-width:5px"/>
        <path d="M903.22,633.83l-2.62-.1-107.31-3.87-4-.14c-2.26,7.67-4.34,14.5-4.34,14.5l116.88,3.83Z" transform="translate(2.5 2.5)" style="fill:none;stroke:#fff;stroke-miterlimit:10;stroke-width:5px"/>
        <polyline points="901.22 650.45 902.52 691.77 800.28 691.77 800.28 647" style="fill:none;stroke:#fff;stroke-miterlimit:10;stroke-width:5px"/>
        <polyline points="791.42 649.09 791.49 684.54 799.56 692.5" style="fill:none;stroke:#fff;stroke-miterlimit:10;stroke-width:5px"/>
        <polygon points="281.5 690.72 281.5 1396.06 372.5 1396.06 367.91 690.72 281.5 690.72" style="fill:none;stroke:#fff;stroke-miterlimit:10;stroke-width:5px"/>
        <rect x="270.5" y="1396.06" width="108.89" height="37.78" style="fill:#1d1d1b;stroke:#fff;stroke-miterlimit:10;stroke-width:5px"/>
        <polyline points="380.04 1434.92 399.61 1396.06 398.94 1368.5 387.45 1357.94" style="fill:none;stroke:#fff;stroke-miterlimit:10;stroke-width:5px"/>
        <polyline points="790.59 649.09 790.66 684.54 798.72 692.5 790.71 1364.89 790.59 1374.89 798.83 1397.11" style="fill:none;stroke:#fff;stroke-miterlimit:10;stroke-width:5px"/>
        <polygon points="896.72 691.77 896.72 1397.11 805.72 1397.11 810.31 691.77 896.72 691.77" style="fill:none;stroke:#fff;stroke-miterlimit:10;stroke-width:5px"/>
        <rect x="796.33" y="1394.61" width="108.89" height="37.78" transform="translate(1704.06 2829.49) rotate(-180)" style="fill:#1d1d1b;stroke:#fff;stroke-miterlimit:10;stroke-width:5px"/>
        <polyline points="798.18 1435.97 778.61 1397.11 779.28 1369.55 790.78 1358.99" style="fill:none;stroke:#fff;stroke-miterlimit:10;stroke-width:5px"/>
        <line x1="908.02" y1="1395.84" x2="896.52" y2="1376.13" style="fill:none;stroke:#fff;stroke-miterlimit:10;stroke-width:5px"/>
        <line x1="398.65" y1="1398.97" x2="778.61" y2="1399.37" style="fill:none;stroke:#fff;stroke-miterlimit:10;stroke-width:5px"/>
        <line x1="379.39" y1="1433.83" x2="798.83" y2="1434.89" style="fill:none;stroke:#fff;stroke-miterlimit:10;stroke-width:5px"/>
        <line x1="270.18" y1="1394.81" x2="281.5" y2="1375.5" style="fill:none;stroke:#fff;stroke-miterlimit:10;stroke-width:5px"/>
        <g id="Sol">
            <rect x="194.52" y="1433.83" width="786.67" height="41" style="fill:#1d1d1b;stroke:#fff;stroke-miterlimit:10;stroke-width:5px"/>
            <polyline points="193.69 1433.41 237.39 1396.06 375.1 1396.06" style="fill:none;stroke:#fff;stroke-miterlimit:10;stroke-width:5px"/>
            <polyline points="981.64 1433.17 939.75 1397.11 797.4 1397.11" style="fill:none;stroke:#fff;stroke-miterlimit:10;stroke-width:5px"/>
            <polyline points="156.03 1508.3 197.25 1474.25 337.44 1474.25" style="fill:none;stroke:#fff;stroke-miterlimit:10;stroke-width:5px"/>
            <polyline points="1022.15 1508.69 980.93 1474.64 840.73 1474.64" style="fill:#1d1d1b;stroke:#fff;stroke-miterlimit:10;stroke-width:5px"/>
            <rect x="156.76" y="1508.69" width="864.42" height="65.81" style="fill:#1d1d1b;stroke:#fff;stroke-miterlimit:10;stroke-width:5px"/>
            <polyline points="119.17 1608 160.2 1574.5 299.74 1574.5" style="fill:none;stroke:#fff;stroke-miterlimit:10;stroke-width:5px"/>
            <polyline points="1058.5 1608.29 1017.12 1574.5 876.38 1574.5" style="fill:none;stroke:#fff;stroke-miterlimit:10;stroke-width:5px"/>
            <rect x="120" y="1608.55" width="937.72" height="134.62" style="fill:#1d1d1b;stroke:#fff;stroke-miterlimit:10;stroke-width:5px"/>
        </g>
    </g>
</svg>